%TF.GenerationSoftware,KiCad,Pcbnew,8.0.1*%
%TF.CreationDate,2024-04-20T00:47:07+02:00*%
%TF.ProjectId,Gotek_Floppy_Disk_Emulator_V2,476f7465-6b5f-4466-9c6f-7070795f4469,rev?*%
%TF.SameCoordinates,Original*%
%TF.FileFunction,Legend,Bot*%
%TF.FilePolarity,Positive*%
%FSLAX46Y46*%
G04 Gerber Fmt 4.6, Leading zero omitted, Abs format (unit mm)*
G04 Created by KiCad (PCBNEW 8.0.1) date 2024-04-20 00:47:07*
%MOMM*%
%LPD*%
G01*
G04 APERTURE LIST*
G04 Aperture macros list*
%AMRoundRect*
0 Rectangle with rounded corners*
0 $1 Rounding radius*
0 $2 $3 $4 $5 $6 $7 $8 $9 X,Y pos of 4 corners*
0 Add a 4 corners polygon primitive as box body*
4,1,4,$2,$3,$4,$5,$6,$7,$8,$9,$2,$3,0*
0 Add four circle primitives for the rounded corners*
1,1,$1+$1,$2,$3*
1,1,$1+$1,$4,$5*
1,1,$1+$1,$6,$7*
1,1,$1+$1,$8,$9*
0 Add four rect primitives between the rounded corners*
20,1,$1+$1,$2,$3,$4,$5,0*
20,1,$1+$1,$4,$5,$6,$7,0*
20,1,$1+$1,$6,$7,$8,$9,0*
20,1,$1+$1,$8,$9,$2,$3,0*%
G04 Aperture macros list end*
%ADD10RoundRect,0.051000X1.000000X1.000000X-1.000000X1.000000X-1.000000X-1.000000X1.000000X-1.000000X0*%
%ADD11C,2.102000*%
%ADD12RoundRect,0.051000X0.800000X-0.800000X0.800000X0.800000X-0.800000X0.800000X-0.800000X-0.800000X0*%
%ADD13C,1.702000*%
%ADD14C,3.102000*%
%ADD15RoundRect,0.051000X0.850000X-0.850000X0.850000X0.850000X-0.850000X0.850000X-0.850000X-0.850000X0*%
%ADD16O,1.802000X1.802000*%
%ADD17RoundRect,0.051000X-0.850000X-0.850000X0.850000X-0.850000X0.850000X0.850000X-0.850000X0.850000X0*%
%ADD18C,1.802000*%
%ADD19RoundRect,0.051000X0.900000X-0.900000X0.900000X0.900000X-0.900000X0.900000X-0.900000X-0.900000X0*%
%ADD20C,1.902000*%
G04 APERTURE END LIST*
%LPC*%
D10*
%TO.C,BZ1*%
X142325000Y-109220000D03*
D11*
X135825000Y-109220000D03*
%TD*%
D12*
%TO.C,J3*%
X158750000Y-99060000D03*
D13*
X158750000Y-96560000D03*
X158750000Y-94560000D03*
X158750000Y-92060000D03*
D14*
X161460000Y-102130000D03*
X161460000Y-88990000D03*
%TD*%
D15*
%TO.C,J5*%
X123825000Y-64135000D03*
D16*
X123825000Y-61595000D03*
X126365000Y-64135000D03*
X126365000Y-61595000D03*
X128905000Y-64135000D03*
X128905000Y-61595000D03*
X131445000Y-64135000D03*
X131445000Y-61595000D03*
X133985000Y-64135000D03*
X133985000Y-61595000D03*
%TD*%
D17*
%TO.C,J1*%
X92075000Y-58420000D03*
D16*
X92075000Y-60960000D03*
X92075000Y-63500000D03*
X92075000Y-66040000D03*
%TD*%
D17*
%TO.C,J6*%
X91948000Y-72390000D03*
D18*
X94488000Y-72390000D03*
D16*
X91948000Y-74930000D03*
X94488000Y-74930000D03*
X91948000Y-77470000D03*
X94488000Y-77470000D03*
X91948000Y-80010000D03*
X94488000Y-80010000D03*
X91948000Y-82550000D03*
X94488000Y-82550000D03*
X91948000Y-85090000D03*
X94488000Y-85090000D03*
X91948000Y-87630000D03*
X94488000Y-87630000D03*
X91948000Y-90170000D03*
X94488000Y-90170000D03*
X91948000Y-92710000D03*
X94488000Y-92710000D03*
X91948000Y-95250000D03*
X94488000Y-95250000D03*
X91948000Y-97790000D03*
X94488000Y-97790000D03*
X91948000Y-100330000D03*
X94488000Y-100330000D03*
X91948000Y-102870000D03*
X94488000Y-102870000D03*
X91948000Y-105410000D03*
X94488000Y-105410000D03*
X91948000Y-107950000D03*
X94488000Y-107950000D03*
X91948000Y-110490000D03*
X94488000Y-110490000D03*
X91948000Y-113030000D03*
X94488000Y-113030000D03*
%TD*%
D19*
%TO.C,D1*%
X168275000Y-81915000D03*
D20*
X168275000Y-79375000D03*
%TD*%
D15*
%TO.C,J2*%
X154305000Y-113365000D03*
D16*
X156845000Y-113365000D03*
X159385000Y-113365000D03*
X161925000Y-113365000D03*
%TD*%
D17*
%TO.C,SW1*%
X170103800Y-59944000D03*
D16*
X170103800Y-62484000D03*
X170103800Y-65024000D03*
X170103800Y-67564000D03*
X170103800Y-70104000D03*
%TD*%
%LPD*%
M02*
