%TF.GenerationSoftware,KiCad,Pcbnew,8.0.1*%
%TF.CreationDate,2024-04-21T19:34:11+02:00*%
%TF.ProjectId,Gotek_Floppy_Disk_Emulator_V2,476f7465-6b5f-4466-9c6f-7070795f4469,rev?*%
%TF.SameCoordinates,Original*%
%TF.FileFunction,Paste,Top*%
%TF.FilePolarity,Positive*%
%FSLAX46Y46*%
G04 Gerber Fmt 4.6, Leading zero omitted, Abs format (unit mm)*
G04 Created by KiCad (PCBNEW 8.0.1) date 2024-04-21 19:34:11*
%MOMM*%
%LPD*%
G01*
G04 APERTURE LIST*
G04 Aperture macros list*
%AMRoundRect*
0 Rectangle with rounded corners*
0 $1 Rounding radius*
0 $2 $3 $4 $5 $6 $7 $8 $9 X,Y pos of 4 corners*
0 Add a 4 corners polygon primitive as box body*
4,1,4,$2,$3,$4,$5,$6,$7,$8,$9,$2,$3,0*
0 Add four circle primitives for the rounded corners*
1,1,$1+$1,$2,$3*
1,1,$1+$1,$4,$5*
1,1,$1+$1,$6,$7*
1,1,$1+$1,$8,$9*
0 Add four rect primitives between the rounded corners*
20,1,$1+$1,$2,$3,$4,$5,0*
20,1,$1+$1,$4,$5,$6,$7,0*
20,1,$1+$1,$6,$7,$8,$9,0*
20,1,$1+$1,$8,$9,$2,$3,0*%
G04 Aperture macros list end*
%ADD10RoundRect,0.225000X0.225000X0.375000X-0.225000X0.375000X-0.225000X-0.375000X0.225000X-0.375000X0*%
%ADD11RoundRect,0.250000X-0.625000X0.312500X-0.625000X-0.312500X0.625000X-0.312500X0.625000X0.312500X0*%
%ADD12RoundRect,0.250000X-0.650000X0.325000X-0.650000X-0.325000X0.650000X-0.325000X0.650000X0.325000X0*%
%ADD13RoundRect,0.250000X0.650000X-0.325000X0.650000X0.325000X-0.650000X0.325000X-0.650000X-0.325000X0*%
%ADD14RoundRect,0.250000X0.325000X0.650000X-0.325000X0.650000X-0.325000X-0.650000X0.325000X-0.650000X0*%
%ADD15RoundRect,0.140000X-0.170000X0.140000X-0.170000X-0.140000X0.170000X-0.140000X0.170000X0.140000X0*%
%ADD16RoundRect,0.150000X-0.587500X-0.150000X0.587500X-0.150000X0.587500X0.150000X-0.587500X0.150000X0*%
%ADD17RoundRect,0.150000X0.587500X0.150000X-0.587500X0.150000X-0.587500X-0.150000X0.587500X-0.150000X0*%
%ADD18RoundRect,0.250000X-0.312500X-0.625000X0.312500X-0.625000X0.312500X0.625000X-0.312500X0.625000X0*%
%ADD19RoundRect,0.250000X0.625000X-0.312500X0.625000X0.312500X-0.625000X0.312500X-0.625000X-0.312500X0*%
%ADD20RoundRect,0.250000X0.312500X0.625000X-0.312500X0.625000X-0.312500X-0.625000X0.312500X-0.625000X0*%
%ADD21R,2.440000X1.120000*%
%ADD22RoundRect,0.375000X-0.375000X0.625000X-0.375000X-0.625000X0.375000X-0.625000X0.375000X0.625000X0*%
%ADD23RoundRect,0.500000X-1.400000X0.500000X-1.400000X-0.500000X1.400000X-0.500000X1.400000X0.500000X0*%
%ADD24RoundRect,0.075000X0.075000X-0.700000X0.075000X0.700000X-0.075000X0.700000X-0.075000X-0.700000X0*%
%ADD25RoundRect,0.075000X0.700000X-0.075000X0.700000X0.075000X-0.700000X0.075000X-0.700000X-0.075000X0*%
%ADD26RoundRect,0.150000X0.512500X0.150000X-0.512500X0.150000X-0.512500X-0.150000X0.512500X-0.150000X0*%
%ADD27RoundRect,0.150000X-0.825000X-0.150000X0.825000X-0.150000X0.825000X0.150000X-0.825000X0.150000X0*%
%ADD28R,2.000000X2.400000*%
%ADD29RoundRect,0.243750X0.456250X-0.243750X0.456250X0.243750X-0.456250X0.243750X-0.456250X-0.243750X0*%
G04 APERTURE END LIST*
D10*
%TO.C,D2*%
X115315000Y-100965000D03*
X112015000Y-100965000D03*
%TD*%
D11*
%TO.C,R102*%
X161319900Y-67212300D03*
X161319900Y-70137300D03*
%TD*%
D12*
%TO.C,C1*%
X151669900Y-82649800D03*
X151669900Y-85599800D03*
%TD*%
D13*
%TO.C,C2*%
X137419900Y-90349800D03*
X137419900Y-87399800D03*
%TD*%
D14*
%TO.C,C4*%
X138919900Y-69124800D03*
X135969900Y-69124800D03*
%TD*%
D15*
%TO.C,C5*%
X142036800Y-89690000D03*
X142036800Y-90650000D03*
%TD*%
%TO.C,C6*%
X145796000Y-89690000D03*
X145796000Y-90650000D03*
%TD*%
D12*
%TO.C,C7*%
X98669900Y-59649800D03*
X98669900Y-62599800D03*
%TD*%
%TO.C,C8*%
X138919900Y-82399800D03*
X138919900Y-85349800D03*
%TD*%
D13*
%TO.C,C9*%
X153169900Y-67174800D03*
X153169900Y-70124800D03*
%TD*%
D12*
%TO.C,C10*%
X104919900Y-68399800D03*
X104919900Y-71349800D03*
%TD*%
%TO.C,C11*%
X107419900Y-68399800D03*
X107419900Y-71349800D03*
%TD*%
%TO.C,C12*%
X132169900Y-97899800D03*
X132169900Y-100849800D03*
%TD*%
%TO.C,C13*%
X148419900Y-104374800D03*
X148419900Y-107324800D03*
%TD*%
D16*
%TO.C,Q1*%
X127967500Y-108905000D03*
X127967500Y-110805000D03*
X129842500Y-109855000D03*
%TD*%
D17*
%TO.C,Q2*%
X108887500Y-76515000D03*
X108887500Y-74615000D03*
X107012500Y-75565000D03*
%TD*%
%TO.C,Q3*%
X108887500Y-82230000D03*
X108887500Y-80330000D03*
X107012500Y-81280000D03*
%TD*%
%TO.C,Q4*%
X108887500Y-87945000D03*
X108887500Y-86045000D03*
X107012500Y-86995000D03*
%TD*%
%TO.C,Q5*%
X108887500Y-93660000D03*
X108887500Y-91760000D03*
X107012500Y-92710000D03*
%TD*%
%TO.C,Q6*%
X108887500Y-99375000D03*
X108887500Y-97475000D03*
X107012500Y-98425000D03*
%TD*%
%TO.C,Q7*%
X108887500Y-105090000D03*
X108887500Y-103190000D03*
X107012500Y-104140000D03*
%TD*%
D11*
%TO.C,R1*%
X134419900Y-87412300D03*
X134419900Y-90337300D03*
%TD*%
D18*
%TO.C,R2*%
X121092500Y-109855000D03*
X124017500Y-109855000D03*
%TD*%
D19*
%TO.C,R3*%
X158919900Y-70137300D03*
X158919900Y-67212300D03*
%TD*%
%TO.C,R4*%
X155719900Y-70137300D03*
X155719900Y-67212300D03*
%TD*%
D18*
%TO.C,R5*%
X151572500Y-97790000D03*
X154497500Y-97790000D03*
%TD*%
%TO.C,R6*%
X151572500Y-93980000D03*
X154497500Y-93980000D03*
%TD*%
D11*
%TO.C,R7*%
X154419900Y-86167500D03*
X154419900Y-89092500D03*
%TD*%
D20*
%TO.C,R8*%
X115127500Y-76835000D03*
X112202500Y-76835000D03*
%TD*%
%TO.C,R9*%
X115127500Y-82550000D03*
X112202500Y-82550000D03*
%TD*%
%TO.C,R11*%
X115127500Y-93345000D03*
X112202500Y-93345000D03*
%TD*%
%TO.C,R12*%
X115127500Y-97155000D03*
X112202500Y-97155000D03*
%TD*%
%TO.C,R13*%
X115127500Y-104775000D03*
X112202500Y-104775000D03*
%TD*%
D18*
%TO.C,R14*%
X99502500Y-72390000D03*
X102427500Y-72390000D03*
%TD*%
%TO.C,R15*%
X99502500Y-74930000D03*
X102427500Y-74930000D03*
%TD*%
%TO.C,R16*%
X99502500Y-80010000D03*
X102427500Y-80010000D03*
%TD*%
%TO.C,R17*%
X99502500Y-84455000D03*
X102427500Y-84455000D03*
%TD*%
%TO.C,R18*%
X99502500Y-87630000D03*
X102427500Y-87630000D03*
%TD*%
%TO.C,R19*%
X99502500Y-90805000D03*
X102427500Y-90805000D03*
%TD*%
%TO.C,R20*%
X99502500Y-93980000D03*
X102427500Y-93980000D03*
%TD*%
%TO.C,R21*%
X99502500Y-97155000D03*
X102427500Y-97155000D03*
%TD*%
%TO.C,R22*%
X99502500Y-100330000D03*
X102427500Y-100330000D03*
%TD*%
%TO.C,R23*%
X99502500Y-103505000D03*
X102427500Y-103505000D03*
%TD*%
%TO.C,R24*%
X99502500Y-106680000D03*
X102427500Y-106680000D03*
%TD*%
%TO.C,R25*%
X99502500Y-109855000D03*
X102427500Y-109855000D03*
%TD*%
%TO.C,R26*%
X99502500Y-113030000D03*
X102427500Y-113030000D03*
%TD*%
D21*
%TO.C,SW2*%
X130035000Y-90170000D03*
X130035000Y-87630000D03*
X130035000Y-85090000D03*
X130035000Y-82550000D03*
X130035000Y-80010000D03*
X130035000Y-77470000D03*
X130035000Y-74930000D03*
X130035000Y-72390000D03*
X121425000Y-72390000D03*
X121425000Y-74930000D03*
X121425000Y-77470000D03*
X121425000Y-80010000D03*
X121425000Y-82550000D03*
X121425000Y-85090000D03*
X121425000Y-87630000D03*
X121425000Y-90170000D03*
%TD*%
D22*
%TO.C,U1*%
X105969900Y-59715000D03*
X103669900Y-59715000D03*
D23*
X103669900Y-66015000D03*
D22*
X101369900Y-59715000D03*
%TD*%
D24*
%TO.C,U2*%
X141665000Y-81240000D03*
X142165000Y-81240000D03*
X142665000Y-81240000D03*
X143165000Y-81240000D03*
X143665000Y-81240000D03*
X144165000Y-81240000D03*
X144665000Y-81240000D03*
X145165000Y-81240000D03*
X145665000Y-81240000D03*
X146165000Y-81240000D03*
X146665000Y-81240000D03*
X147165000Y-81240000D03*
X147665000Y-81240000D03*
X148165000Y-81240000D03*
X148665000Y-81240000D03*
X149165000Y-81240000D03*
D25*
X151090000Y-79315000D03*
X151090000Y-78815000D03*
X151090000Y-78315000D03*
X151090000Y-77815000D03*
X151090000Y-77315000D03*
X151090000Y-76815000D03*
X151090000Y-76315000D03*
X151090000Y-75815000D03*
X151090000Y-75315000D03*
X151090000Y-74815000D03*
X151090000Y-74315000D03*
X151090000Y-73815000D03*
X151090000Y-73315000D03*
X151090000Y-72815000D03*
X151090000Y-72315000D03*
X151090000Y-71815000D03*
D24*
X149165000Y-69890000D03*
X148665000Y-69890000D03*
X148165000Y-69890000D03*
X147665000Y-69890000D03*
X147165000Y-69890000D03*
X146665000Y-69890000D03*
X146165000Y-69890000D03*
X145665000Y-69890000D03*
X145165000Y-69890000D03*
X144665000Y-69890000D03*
X144165000Y-69890000D03*
X143665000Y-69890000D03*
X143165000Y-69890000D03*
X142665000Y-69890000D03*
X142165000Y-69890000D03*
X141665000Y-69890000D03*
D25*
X139740000Y-71815000D03*
X139740000Y-72315000D03*
X139740000Y-72815000D03*
X139740000Y-73315000D03*
X139740000Y-73815000D03*
X139740000Y-74315000D03*
X139740000Y-74815000D03*
X139740000Y-75315000D03*
X139740000Y-75815000D03*
X139740000Y-76315000D03*
X139740000Y-76815000D03*
X139740000Y-77315000D03*
X139740000Y-77815000D03*
X139740000Y-78315000D03*
X139740000Y-78815000D03*
X139740000Y-79315000D03*
%TD*%
D26*
%TO.C,U3*%
X148457500Y-102550000D03*
X148457500Y-101600000D03*
X148457500Y-100650000D03*
X146182500Y-100650000D03*
X146182500Y-102550000D03*
%TD*%
D27*
%TO.C,U4*%
X122620000Y-97790000D03*
X122620000Y-99060000D03*
X122620000Y-100330000D03*
X122620000Y-101600000D03*
X122620000Y-102870000D03*
X122620000Y-104140000D03*
X122620000Y-105410000D03*
X127570000Y-105410000D03*
X127570000Y-104140000D03*
X127570000Y-102870000D03*
X127570000Y-101600000D03*
X127570000Y-100330000D03*
X127570000Y-99060000D03*
X127570000Y-97790000D03*
%TD*%
D12*
%TO.C,C3*%
X96169900Y-59649800D03*
X96169900Y-62599800D03*
%TD*%
D28*
%TO.C,Y1*%
X142066400Y-87020400D03*
X145766400Y-87020400D03*
%TD*%
D20*
%TO.C,R10*%
X115127500Y-88265000D03*
X112202500Y-88265000D03*
%TD*%
D11*
%TO.C,R27*%
X138430000Y-61402500D03*
X138430000Y-64327500D03*
%TD*%
D29*
%TO.C,D101*%
X170169900Y-76812300D03*
X170169900Y-74937300D03*
%TD*%
D19*
%TO.C,R101*%
X163719900Y-70137300D03*
X163719900Y-67212300D03*
%TD*%
M02*
