%TF.GenerationSoftware,KiCad,Pcbnew,8.0.1*%
%TF.CreationDate,2024-04-20T00:47:07+02:00*%
%TF.ProjectId,Gotek_Floppy_Disk_Emulator_V2,476f7465-6b5f-4466-9c6f-7070795f4469,rev?*%
%TF.SameCoordinates,Original*%
%TF.FileFunction,Copper,L2,Bot*%
%TF.FilePolarity,Positive*%
%FSLAX46Y46*%
G04 Gerber Fmt 4.6, Leading zero omitted, Abs format (unit mm)*
G04 Created by KiCad (PCBNEW 8.0.1) date 2024-04-20 00:47:07*
%MOMM*%
%LPD*%
G01*
G04 APERTURE LIST*
%ADD10C,0.150000*%
%TA.AperFunction,NonConductor*%
%ADD11C,0.150000*%
%TD*%
%TA.AperFunction,ComponentPad*%
%ADD12R,2.000000X2.000000*%
%TD*%
%TA.AperFunction,ComponentPad*%
%ADD13C,2.000000*%
%TD*%
%TA.AperFunction,ComponentPad*%
%ADD14R,1.600000X1.600000*%
%TD*%
%TA.AperFunction,ComponentPad*%
%ADD15C,1.600000*%
%TD*%
%TA.AperFunction,ComponentPad*%
%ADD16C,3.000000*%
%TD*%
%TA.AperFunction,ComponentPad*%
%ADD17R,1.700000X1.700000*%
%TD*%
%TA.AperFunction,ComponentPad*%
%ADD18O,1.700000X1.700000*%
%TD*%
%TA.AperFunction,ComponentPad*%
%ADD19C,1.700000*%
%TD*%
%TA.AperFunction,ComponentPad*%
%ADD20R,1.800000X1.800000*%
%TD*%
%TA.AperFunction,ComponentPad*%
%ADD21C,1.800000*%
%TD*%
%TA.AperFunction,ViaPad*%
%ADD22C,0.800000*%
%TD*%
%TA.AperFunction,Conductor*%
%ADD23C,0.500000*%
%TD*%
%TA.AperFunction,Conductor*%
%ADD24C,0.250000*%
%TD*%
G04 APERTURE END LIST*
D10*
D11*
X85692466Y-60072378D02*
X85644847Y-59977140D01*
X85644847Y-59977140D02*
X85644847Y-59834283D01*
X85644847Y-59834283D02*
X85692466Y-59691426D01*
X85692466Y-59691426D02*
X85787704Y-59596188D01*
X85787704Y-59596188D02*
X85882942Y-59548569D01*
X85882942Y-59548569D02*
X86073418Y-59500950D01*
X86073418Y-59500950D02*
X86216275Y-59500950D01*
X86216275Y-59500950D02*
X86406751Y-59548569D01*
X86406751Y-59548569D02*
X86501989Y-59596188D01*
X86501989Y-59596188D02*
X86597228Y-59691426D01*
X86597228Y-59691426D02*
X86644847Y-59834283D01*
X86644847Y-59834283D02*
X86644847Y-59929521D01*
X86644847Y-59929521D02*
X86597228Y-60072378D01*
X86597228Y-60072378D02*
X86549608Y-60119997D01*
X86549608Y-60119997D02*
X86216275Y-60119997D01*
X86216275Y-60119997D02*
X86216275Y-59929521D01*
X86644847Y-60691426D02*
X86597228Y-60596188D01*
X86597228Y-60596188D02*
X86549608Y-60548569D01*
X86549608Y-60548569D02*
X86454370Y-60500950D01*
X86454370Y-60500950D02*
X86168656Y-60500950D01*
X86168656Y-60500950D02*
X86073418Y-60548569D01*
X86073418Y-60548569D02*
X86025799Y-60596188D01*
X86025799Y-60596188D02*
X85978180Y-60691426D01*
X85978180Y-60691426D02*
X85978180Y-60834283D01*
X85978180Y-60834283D02*
X86025799Y-60929521D01*
X86025799Y-60929521D02*
X86073418Y-60977140D01*
X86073418Y-60977140D02*
X86168656Y-61024759D01*
X86168656Y-61024759D02*
X86454370Y-61024759D01*
X86454370Y-61024759D02*
X86549608Y-60977140D01*
X86549608Y-60977140D02*
X86597228Y-60929521D01*
X86597228Y-60929521D02*
X86644847Y-60834283D01*
X86644847Y-60834283D02*
X86644847Y-60691426D01*
X85978180Y-61310474D02*
X85978180Y-61691426D01*
X85644847Y-61453331D02*
X86501989Y-61453331D01*
X86501989Y-61453331D02*
X86597228Y-61500950D01*
X86597228Y-61500950D02*
X86644847Y-61596188D01*
X86644847Y-61596188D02*
X86644847Y-61691426D01*
X86597228Y-62405712D02*
X86644847Y-62310474D01*
X86644847Y-62310474D02*
X86644847Y-62119998D01*
X86644847Y-62119998D02*
X86597228Y-62024760D01*
X86597228Y-62024760D02*
X86501989Y-61977141D01*
X86501989Y-61977141D02*
X86121037Y-61977141D01*
X86121037Y-61977141D02*
X86025799Y-62024760D01*
X86025799Y-62024760D02*
X85978180Y-62119998D01*
X85978180Y-62119998D02*
X85978180Y-62310474D01*
X85978180Y-62310474D02*
X86025799Y-62405712D01*
X86025799Y-62405712D02*
X86121037Y-62453331D01*
X86121037Y-62453331D02*
X86216275Y-62453331D01*
X86216275Y-62453331D02*
X86311513Y-61977141D01*
X86644847Y-62881903D02*
X85644847Y-62881903D01*
X86263894Y-62977141D02*
X86644847Y-63262855D01*
X85978180Y-63262855D02*
X86359132Y-62881903D01*
X86121037Y-64786665D02*
X86121037Y-64453332D01*
X86644847Y-64453332D02*
X85644847Y-64453332D01*
X85644847Y-64453332D02*
X85644847Y-64929522D01*
X86644847Y-65453332D02*
X86597228Y-65358094D01*
X86597228Y-65358094D02*
X86501989Y-65310475D01*
X86501989Y-65310475D02*
X85644847Y-65310475D01*
X86644847Y-65977142D02*
X86597228Y-65881904D01*
X86597228Y-65881904D02*
X86549608Y-65834285D01*
X86549608Y-65834285D02*
X86454370Y-65786666D01*
X86454370Y-65786666D02*
X86168656Y-65786666D01*
X86168656Y-65786666D02*
X86073418Y-65834285D01*
X86073418Y-65834285D02*
X86025799Y-65881904D01*
X86025799Y-65881904D02*
X85978180Y-65977142D01*
X85978180Y-65977142D02*
X85978180Y-66119999D01*
X85978180Y-66119999D02*
X86025799Y-66215237D01*
X86025799Y-66215237D02*
X86073418Y-66262856D01*
X86073418Y-66262856D02*
X86168656Y-66310475D01*
X86168656Y-66310475D02*
X86454370Y-66310475D01*
X86454370Y-66310475D02*
X86549608Y-66262856D01*
X86549608Y-66262856D02*
X86597228Y-66215237D01*
X86597228Y-66215237D02*
X86644847Y-66119999D01*
X86644847Y-66119999D02*
X86644847Y-65977142D01*
X85978180Y-66739047D02*
X86978180Y-66739047D01*
X86025799Y-66739047D02*
X85978180Y-66834285D01*
X85978180Y-66834285D02*
X85978180Y-67024761D01*
X85978180Y-67024761D02*
X86025799Y-67119999D01*
X86025799Y-67119999D02*
X86073418Y-67167618D01*
X86073418Y-67167618D02*
X86168656Y-67215237D01*
X86168656Y-67215237D02*
X86454370Y-67215237D01*
X86454370Y-67215237D02*
X86549608Y-67167618D01*
X86549608Y-67167618D02*
X86597228Y-67119999D01*
X86597228Y-67119999D02*
X86644847Y-67024761D01*
X86644847Y-67024761D02*
X86644847Y-66834285D01*
X86644847Y-66834285D02*
X86597228Y-66739047D01*
X85978180Y-67643809D02*
X86978180Y-67643809D01*
X86025799Y-67643809D02*
X85978180Y-67739047D01*
X85978180Y-67739047D02*
X85978180Y-67929523D01*
X85978180Y-67929523D02*
X86025799Y-68024761D01*
X86025799Y-68024761D02*
X86073418Y-68072380D01*
X86073418Y-68072380D02*
X86168656Y-68119999D01*
X86168656Y-68119999D02*
X86454370Y-68119999D01*
X86454370Y-68119999D02*
X86549608Y-68072380D01*
X86549608Y-68072380D02*
X86597228Y-68024761D01*
X86597228Y-68024761D02*
X86644847Y-67929523D01*
X86644847Y-67929523D02*
X86644847Y-67739047D01*
X86644847Y-67739047D02*
X86597228Y-67643809D01*
X85978180Y-68453333D02*
X86644847Y-68691428D01*
X85978180Y-68929523D02*
X86644847Y-68691428D01*
X86644847Y-68691428D02*
X86882942Y-68596190D01*
X86882942Y-68596190D02*
X86930561Y-68548571D01*
X86930561Y-68548571D02*
X86978180Y-68453333D01*
X86644847Y-70072381D02*
X85644847Y-70072381D01*
X85644847Y-70072381D02*
X85644847Y-70310476D01*
X85644847Y-70310476D02*
X85692466Y-70453333D01*
X85692466Y-70453333D02*
X85787704Y-70548571D01*
X85787704Y-70548571D02*
X85882942Y-70596190D01*
X85882942Y-70596190D02*
X86073418Y-70643809D01*
X86073418Y-70643809D02*
X86216275Y-70643809D01*
X86216275Y-70643809D02*
X86406751Y-70596190D01*
X86406751Y-70596190D02*
X86501989Y-70548571D01*
X86501989Y-70548571D02*
X86597228Y-70453333D01*
X86597228Y-70453333D02*
X86644847Y-70310476D01*
X86644847Y-70310476D02*
X86644847Y-70072381D01*
X86644847Y-71072381D02*
X85978180Y-71072381D01*
X85644847Y-71072381D02*
X85692466Y-71024762D01*
X85692466Y-71024762D02*
X85740085Y-71072381D01*
X85740085Y-71072381D02*
X85692466Y-71120000D01*
X85692466Y-71120000D02*
X85644847Y-71072381D01*
X85644847Y-71072381D02*
X85740085Y-71072381D01*
X86597228Y-71500952D02*
X86644847Y-71596190D01*
X86644847Y-71596190D02*
X86644847Y-71786666D01*
X86644847Y-71786666D02*
X86597228Y-71881904D01*
X86597228Y-71881904D02*
X86501989Y-71929523D01*
X86501989Y-71929523D02*
X86454370Y-71929523D01*
X86454370Y-71929523D02*
X86359132Y-71881904D01*
X86359132Y-71881904D02*
X86311513Y-71786666D01*
X86311513Y-71786666D02*
X86311513Y-71643809D01*
X86311513Y-71643809D02*
X86263894Y-71548571D01*
X86263894Y-71548571D02*
X86168656Y-71500952D01*
X86168656Y-71500952D02*
X86121037Y-71500952D01*
X86121037Y-71500952D02*
X86025799Y-71548571D01*
X86025799Y-71548571D02*
X85978180Y-71643809D01*
X85978180Y-71643809D02*
X85978180Y-71786666D01*
X85978180Y-71786666D02*
X86025799Y-71881904D01*
X86644847Y-72358095D02*
X85644847Y-72358095D01*
X86263894Y-72453333D02*
X86644847Y-72739047D01*
X85978180Y-72739047D02*
X86359132Y-72358095D01*
X86121037Y-73929524D02*
X86121037Y-74262857D01*
X86644847Y-74405714D02*
X86644847Y-73929524D01*
X86644847Y-73929524D02*
X85644847Y-73929524D01*
X85644847Y-73929524D02*
X85644847Y-74405714D01*
X86644847Y-74834286D02*
X85978180Y-74834286D01*
X86073418Y-74834286D02*
X86025799Y-74881905D01*
X86025799Y-74881905D02*
X85978180Y-74977143D01*
X85978180Y-74977143D02*
X85978180Y-75120000D01*
X85978180Y-75120000D02*
X86025799Y-75215238D01*
X86025799Y-75215238D02*
X86121037Y-75262857D01*
X86121037Y-75262857D02*
X86644847Y-75262857D01*
X86121037Y-75262857D02*
X86025799Y-75310476D01*
X86025799Y-75310476D02*
X85978180Y-75405714D01*
X85978180Y-75405714D02*
X85978180Y-75548571D01*
X85978180Y-75548571D02*
X86025799Y-75643810D01*
X86025799Y-75643810D02*
X86121037Y-75691429D01*
X86121037Y-75691429D02*
X86644847Y-75691429D01*
X85978180Y-76596190D02*
X86644847Y-76596190D01*
X85978180Y-76167619D02*
X86501989Y-76167619D01*
X86501989Y-76167619D02*
X86597228Y-76215238D01*
X86597228Y-76215238D02*
X86644847Y-76310476D01*
X86644847Y-76310476D02*
X86644847Y-76453333D01*
X86644847Y-76453333D02*
X86597228Y-76548571D01*
X86597228Y-76548571D02*
X86549608Y-76596190D01*
X86644847Y-77215238D02*
X86597228Y-77120000D01*
X86597228Y-77120000D02*
X86501989Y-77072381D01*
X86501989Y-77072381D02*
X85644847Y-77072381D01*
X86644847Y-78024762D02*
X86121037Y-78024762D01*
X86121037Y-78024762D02*
X86025799Y-77977143D01*
X86025799Y-77977143D02*
X85978180Y-77881905D01*
X85978180Y-77881905D02*
X85978180Y-77691429D01*
X85978180Y-77691429D02*
X86025799Y-77596191D01*
X86597228Y-78024762D02*
X86644847Y-77929524D01*
X86644847Y-77929524D02*
X86644847Y-77691429D01*
X86644847Y-77691429D02*
X86597228Y-77596191D01*
X86597228Y-77596191D02*
X86501989Y-77548572D01*
X86501989Y-77548572D02*
X86406751Y-77548572D01*
X86406751Y-77548572D02*
X86311513Y-77596191D01*
X86311513Y-77596191D02*
X86263894Y-77691429D01*
X86263894Y-77691429D02*
X86263894Y-77929524D01*
X86263894Y-77929524D02*
X86216275Y-78024762D01*
X85978180Y-78358096D02*
X85978180Y-78739048D01*
X85644847Y-78500953D02*
X86501989Y-78500953D01*
X86501989Y-78500953D02*
X86597228Y-78548572D01*
X86597228Y-78548572D02*
X86644847Y-78643810D01*
X86644847Y-78643810D02*
X86644847Y-78739048D01*
X86644847Y-79215239D02*
X86597228Y-79120001D01*
X86597228Y-79120001D02*
X86549608Y-79072382D01*
X86549608Y-79072382D02*
X86454370Y-79024763D01*
X86454370Y-79024763D02*
X86168656Y-79024763D01*
X86168656Y-79024763D02*
X86073418Y-79072382D01*
X86073418Y-79072382D02*
X86025799Y-79120001D01*
X86025799Y-79120001D02*
X85978180Y-79215239D01*
X85978180Y-79215239D02*
X85978180Y-79358096D01*
X85978180Y-79358096D02*
X86025799Y-79453334D01*
X86025799Y-79453334D02*
X86073418Y-79500953D01*
X86073418Y-79500953D02*
X86168656Y-79548572D01*
X86168656Y-79548572D02*
X86454370Y-79548572D01*
X86454370Y-79548572D02*
X86549608Y-79500953D01*
X86549608Y-79500953D02*
X86597228Y-79453334D01*
X86597228Y-79453334D02*
X86644847Y-79358096D01*
X86644847Y-79358096D02*
X86644847Y-79215239D01*
X86644847Y-79977144D02*
X85978180Y-79977144D01*
X86168656Y-79977144D02*
X86073418Y-80024763D01*
X86073418Y-80024763D02*
X86025799Y-80072382D01*
X86025799Y-80072382D02*
X85978180Y-80167620D01*
X85978180Y-80167620D02*
X85978180Y-80262858D01*
X85644847Y-81215240D02*
X86644847Y-81548573D01*
X86644847Y-81548573D02*
X85644847Y-81881906D01*
X85740085Y-82167621D02*
X85692466Y-82215240D01*
X85692466Y-82215240D02*
X85644847Y-82310478D01*
X85644847Y-82310478D02*
X85644847Y-82548573D01*
X85644847Y-82548573D02*
X85692466Y-82643811D01*
X85692466Y-82643811D02*
X85740085Y-82691430D01*
X85740085Y-82691430D02*
X85835323Y-82739049D01*
X85835323Y-82739049D02*
X85930561Y-82739049D01*
X85930561Y-82739049D02*
X86073418Y-82691430D01*
X86073418Y-82691430D02*
X86644847Y-82120002D01*
X86644847Y-82120002D02*
X86644847Y-82739049D01*
X87350029Y-67167619D02*
X87302410Y-67215238D01*
X87302410Y-67215238D02*
X87254791Y-67310476D01*
X87254791Y-67310476D02*
X87254791Y-67548571D01*
X87254791Y-67548571D02*
X87302410Y-67643809D01*
X87302410Y-67643809D02*
X87350029Y-67691428D01*
X87350029Y-67691428D02*
X87445267Y-67739047D01*
X87445267Y-67739047D02*
X87540505Y-67739047D01*
X87540505Y-67739047D02*
X87683362Y-67691428D01*
X87683362Y-67691428D02*
X88254791Y-67120000D01*
X88254791Y-67120000D02*
X88254791Y-67739047D01*
X87254791Y-68358095D02*
X87254791Y-68453333D01*
X87254791Y-68453333D02*
X87302410Y-68548571D01*
X87302410Y-68548571D02*
X87350029Y-68596190D01*
X87350029Y-68596190D02*
X87445267Y-68643809D01*
X87445267Y-68643809D02*
X87635743Y-68691428D01*
X87635743Y-68691428D02*
X87873838Y-68691428D01*
X87873838Y-68691428D02*
X88064314Y-68643809D01*
X88064314Y-68643809D02*
X88159552Y-68596190D01*
X88159552Y-68596190D02*
X88207172Y-68548571D01*
X88207172Y-68548571D02*
X88254791Y-68453333D01*
X88254791Y-68453333D02*
X88254791Y-68358095D01*
X88254791Y-68358095D02*
X88207172Y-68262857D01*
X88207172Y-68262857D02*
X88159552Y-68215238D01*
X88159552Y-68215238D02*
X88064314Y-68167619D01*
X88064314Y-68167619D02*
X87873838Y-68120000D01*
X87873838Y-68120000D02*
X87635743Y-68120000D01*
X87635743Y-68120000D02*
X87445267Y-68167619D01*
X87445267Y-68167619D02*
X87350029Y-68215238D01*
X87350029Y-68215238D02*
X87302410Y-68262857D01*
X87302410Y-68262857D02*
X87254791Y-68358095D01*
X87350029Y-69072381D02*
X87302410Y-69120000D01*
X87302410Y-69120000D02*
X87254791Y-69215238D01*
X87254791Y-69215238D02*
X87254791Y-69453333D01*
X87254791Y-69453333D02*
X87302410Y-69548571D01*
X87302410Y-69548571D02*
X87350029Y-69596190D01*
X87350029Y-69596190D02*
X87445267Y-69643809D01*
X87445267Y-69643809D02*
X87540505Y-69643809D01*
X87540505Y-69643809D02*
X87683362Y-69596190D01*
X87683362Y-69596190D02*
X88254791Y-69024762D01*
X88254791Y-69024762D02*
X88254791Y-69643809D01*
X87254791Y-70262857D02*
X87254791Y-70358095D01*
X87254791Y-70358095D02*
X87302410Y-70453333D01*
X87302410Y-70453333D02*
X87350029Y-70500952D01*
X87350029Y-70500952D02*
X87445267Y-70548571D01*
X87445267Y-70548571D02*
X87635743Y-70596190D01*
X87635743Y-70596190D02*
X87873838Y-70596190D01*
X87873838Y-70596190D02*
X88064314Y-70548571D01*
X88064314Y-70548571D02*
X88159552Y-70500952D01*
X88159552Y-70500952D02*
X88207172Y-70453333D01*
X88207172Y-70453333D02*
X88254791Y-70358095D01*
X88254791Y-70358095D02*
X88254791Y-70262857D01*
X88254791Y-70262857D02*
X88207172Y-70167619D01*
X88207172Y-70167619D02*
X88159552Y-70120000D01*
X88159552Y-70120000D02*
X88064314Y-70072381D01*
X88064314Y-70072381D02*
X87873838Y-70024762D01*
X87873838Y-70024762D02*
X87635743Y-70024762D01*
X87635743Y-70024762D02*
X87445267Y-70072381D01*
X87445267Y-70072381D02*
X87350029Y-70120000D01*
X87350029Y-70120000D02*
X87302410Y-70167619D01*
X87302410Y-70167619D02*
X87254791Y-70262857D01*
X88254791Y-72358095D02*
X87778600Y-72024762D01*
X88254791Y-71786667D02*
X87254791Y-71786667D01*
X87254791Y-71786667D02*
X87254791Y-72167619D01*
X87254791Y-72167619D02*
X87302410Y-72262857D01*
X87302410Y-72262857D02*
X87350029Y-72310476D01*
X87350029Y-72310476D02*
X87445267Y-72358095D01*
X87445267Y-72358095D02*
X87588124Y-72358095D01*
X87588124Y-72358095D02*
X87683362Y-72310476D01*
X87683362Y-72310476D02*
X87730981Y-72262857D01*
X87730981Y-72262857D02*
X87778600Y-72167619D01*
X87778600Y-72167619D02*
X87778600Y-71786667D01*
X88254791Y-72786667D02*
X87588124Y-72786667D01*
X87254791Y-72786667D02*
X87302410Y-72739048D01*
X87302410Y-72739048D02*
X87350029Y-72786667D01*
X87350029Y-72786667D02*
X87302410Y-72834286D01*
X87302410Y-72834286D02*
X87254791Y-72786667D01*
X87254791Y-72786667D02*
X87350029Y-72786667D01*
X88207172Y-73691428D02*
X88254791Y-73596190D01*
X88254791Y-73596190D02*
X88254791Y-73405714D01*
X88254791Y-73405714D02*
X88207172Y-73310476D01*
X88207172Y-73310476D02*
X88159552Y-73262857D01*
X88159552Y-73262857D02*
X88064314Y-73215238D01*
X88064314Y-73215238D02*
X87778600Y-73215238D01*
X87778600Y-73215238D02*
X87683362Y-73262857D01*
X87683362Y-73262857D02*
X87635743Y-73310476D01*
X87635743Y-73310476D02*
X87588124Y-73405714D01*
X87588124Y-73405714D02*
X87588124Y-73596190D01*
X87588124Y-73596190D02*
X87635743Y-73691428D01*
X88254791Y-74120000D02*
X87254791Y-74120000D01*
X88254791Y-74548571D02*
X87730981Y-74548571D01*
X87730981Y-74548571D02*
X87635743Y-74500952D01*
X87635743Y-74500952D02*
X87588124Y-74405714D01*
X87588124Y-74405714D02*
X87588124Y-74262857D01*
X87588124Y-74262857D02*
X87635743Y-74167619D01*
X87635743Y-74167619D02*
X87683362Y-74120000D01*
X88254791Y-75024762D02*
X87588124Y-75024762D01*
X87254791Y-75024762D02*
X87302410Y-74977143D01*
X87302410Y-74977143D02*
X87350029Y-75024762D01*
X87350029Y-75024762D02*
X87302410Y-75072381D01*
X87302410Y-75072381D02*
X87254791Y-75024762D01*
X87254791Y-75024762D02*
X87350029Y-75024762D01*
D12*
%TO.P,BZ1,1,-*%
%TO.N,+5V*%
X142325000Y-109220000D03*
D13*
%TO.P,BZ1,2,+*%
%TO.N,Net-(BZ1-+)*%
X135825000Y-109220000D03*
%TD*%
D14*
%TO.P,J3,1,VBUS*%
%TO.N,Net-(J3-VBUS)*%
X158750000Y-99060000D03*
D15*
%TO.P,J3,2,D-*%
%TO.N,Net-(J3-D-)*%
X158750000Y-96560000D03*
%TO.P,J3,3,D+*%
%TO.N,Net-(J3-D+)*%
X158750000Y-94560000D03*
%TO.P,J3,4,GND*%
%TO.N,GNDD*%
X158750000Y-92060000D03*
D16*
%TO.P,J3,5,Shield*%
X161460000Y-102130000D03*
X161460000Y-88990000D03*
%TD*%
D17*
%TO.P,J5,1,Pin_1*%
%TO.N,NRST*%
X123825000Y-64135000D03*
D18*
%TO.P,J5,2,Pin_2*%
%TO.N,GNDD*%
X123825000Y-61595000D03*
%TO.P,J5,3,Pin_3*%
%TO.N,USART1_RX*%
X126365000Y-64135000D03*
%TO.P,J5,4,Pin_4*%
%TO.N,+5V*%
X126365000Y-61595000D03*
%TO.P,J5,5,Pin_5*%
%TO.N,USART1_TX*%
X128905000Y-64135000D03*
%TO.P,J5,6,Pin_6*%
%TO.N,JTCK-SWCLK*%
X128905000Y-61595000D03*
%TO.P,J5,7,Pin_7*%
%TO.N,+3V3*%
X131445000Y-64135000D03*
%TO.P,J5,8,Pin_8*%
%TO.N,JTMS-SWDIO*%
X131445000Y-61595000D03*
%TO.P,J5,9,Pin_9*%
%TO.N,BOOT_0*%
X133985000Y-64135000D03*
%TO.P,J5,10,Pin_10*%
%TO.N,unconnected-(J5-Pin_10-Pad10)*%
X133985000Y-61595000D03*
%TD*%
D17*
%TO.P,J1,1,Pin_1*%
%TO.N,unconnected-(J1-Pin_1-Pad1)*%
X92075000Y-58420000D03*
D18*
%TO.P,J1,2,Pin_2*%
%TO.N,GNDD*%
X92075000Y-60960000D03*
%TO.P,J1,3,Pin_3*%
X92075000Y-63500000D03*
%TO.P,J1,4,Pin_4*%
%TO.N,+5V*%
X92075000Y-66040000D03*
%TD*%
D17*
%TO.P,J6,1,Pin_1*%
%TO.N,Net-(J6-Pin_1)*%
X91948000Y-72390000D03*
D19*
%TO.P,J6,2,Pin_2*%
%TO.N,Net-(J6-Pin_2)*%
X94488000Y-72390000D03*
D18*
%TO.P,J6,3,Pin_3*%
%TO.N,GNDD*%
X91948000Y-74930000D03*
%TO.P,J6,4,Pin_4*%
%TO.N,Net-(J6-Pin_4)*%
X94488000Y-74930000D03*
%TO.P,J6,5,Pin_5*%
%TO.N,GNDD*%
X91948000Y-77470000D03*
%TO.P,J6,6,Pin_6*%
%TO.N,unconnected-(J6-Pin_6-Pad6)*%
X94488000Y-77470000D03*
%TO.P,J6,7,Pin_7*%
%TO.N,GNDD*%
X91948000Y-80010000D03*
%TO.P,J6,8,Pin_8*%
%TO.N,Net-(J6-Pin_8)*%
X94488000Y-80010000D03*
%TO.P,J6,9,Pin_9*%
%TO.N,GNDD*%
X91948000Y-82550000D03*
%TO.P,J6,10,Pin_10*%
%TO.N,Net-(J6-Pin_10)*%
X94488000Y-82550000D03*
%TO.P,J6,11,Pin_11*%
%TO.N,GNDD*%
X91948000Y-85090000D03*
%TO.P,J6,12,Pin_12*%
%TO.N,Net-(J6-Pin_12)*%
X94488000Y-85090000D03*
%TO.P,J6,13,Pin_13*%
%TO.N,GNDD*%
X91948000Y-87630000D03*
%TO.P,J6,14,Pin_14*%
%TO.N,unconnected-(J6-Pin_14-Pad14)*%
X94488000Y-87630000D03*
%TO.P,J6,15,Pin_15*%
%TO.N,GNDD*%
X91948000Y-90170000D03*
%TO.P,J6,16,Pin_16*%
%TO.N,MOTOR_SIGNAL*%
X94488000Y-90170000D03*
%TO.P,J6,17,Pin_17*%
%TO.N,GNDD*%
X91948000Y-92710000D03*
%TO.P,J6,18,Pin_18*%
%TO.N,FPI5V_DIRn*%
X94488000Y-92710000D03*
%TO.P,J6,19,Pin_19*%
%TO.N,GNDD*%
X91948000Y-95250000D03*
%TO.P,J6,20,Pin_20*%
%TO.N,FPI5V_STEPn*%
X94488000Y-95250000D03*
%TO.P,J6,21,Pin_21*%
%TO.N,GNDD*%
X91948000Y-97790000D03*
%TO.P,J6,22,Pin_22*%
%TO.N,FPI5V_WDATAn*%
X94488000Y-97790000D03*
%TO.P,J6,23,Pin_23*%
%TO.N,GNDD*%
X91948000Y-100330000D03*
%TO.P,J6,24,Pin_24*%
%TO.N,FPI5V_WGATEn*%
X94488000Y-100330000D03*
%TO.P,J6,25,Pin_25*%
%TO.N,GNDD*%
X91948000Y-102870000D03*
%TO.P,J6,26,Pin_26*%
%TO.N,Net-(J6-Pin_26)*%
X94488000Y-102870000D03*
%TO.P,J6,27,Pin_27*%
%TO.N,GNDD*%
X91948000Y-105410000D03*
%TO.P,J6,28,Pin_28*%
%TO.N,Net-(J6-Pin_28)*%
X94488000Y-105410000D03*
%TO.P,J6,29,Pin_29*%
%TO.N,GNDD*%
X91948000Y-107950000D03*
%TO.P,J6,30,Pin_30*%
%TO.N,Net-(J6-Pin_30)*%
X94488000Y-107950000D03*
%TO.P,J6,31,Pin_31*%
%TO.N,GNDD*%
X91948000Y-110490000D03*
%TO.P,J6,32,Pin_32*%
%TO.N,FPI5V_SIDEn*%
X94488000Y-110490000D03*
%TO.P,J6,33,Pin_33*%
%TO.N,GNDD*%
X91948000Y-113030000D03*
%TO.P,J6,34,Pin_34*%
%TO.N,Net-(J6-Pin_34)*%
X94488000Y-113030000D03*
%TD*%
D20*
%TO.P,D1,1,K*%
%TO.N,FPI5V_DSELn*%
X168275000Y-81915000D03*
D21*
%TO.P,D1,2,A*%
%TO.N,Net-(D1-A)*%
X168275000Y-79375000D03*
%TD*%
D17*
%TO.P,J2,1,SDA*%
%TO.N,Net-(J2-SDA)*%
X154305000Y-113365000D03*
D18*
%TO.P,J2,2,SCL*%
%TO.N,Net-(J2-SCL)*%
X156845000Y-113365000D03*
%TO.P,J2,3,VCC*%
%TO.N,+3V3*%
X159385000Y-113365000D03*
%TO.P,J2,4,GND*%
%TO.N,GNDD*%
X161925000Y-113365000D03*
%TD*%
D17*
%TO.P,SW1,1,CLK*%
%TO.N,Net-(SW1-CLK)*%
X170103800Y-59944000D03*
D18*
%TO.P,SW1,2,DT*%
%TO.N,Net-(SW1-DT)*%
X170103800Y-62484000D03*
%TO.P,SW1,3,SW*%
%TO.N,Net-(SW1-SW)*%
X170103800Y-65024000D03*
%TO.P,SW1,4,VCC*%
%TO.N,+3V3*%
X170103800Y-67564000D03*
%TO.P,SW1,5,GND*%
%TO.N,GNDD*%
X170103800Y-70104000D03*
%TD*%
D22*
%TO.N,GNDD*%
X83185000Y-71520000D03*
X83185000Y-85890000D03*
X83185000Y-100260000D03*
X83185000Y-114630000D03*
X153670000Y-57150000D03*
X170815000Y-57150000D03*
X111760000Y-85090000D03*
X139065000Y-100965000D03*
X121920000Y-68580000D03*
X125730000Y-76835000D03*
X137160000Y-72540000D03*
X110490000Y-57150000D03*
X135890000Y-57150000D03*
X106045000Y-78105000D03*
X164465000Y-114630000D03*
X107315000Y-101600000D03*
X130810000Y-81280000D03*
X156210000Y-83820000D03*
X118110000Y-107950000D03*
X150495000Y-66675000D03*
X108585000Y-95885000D03*
X140754097Y-69430903D03*
X170815000Y-90485000D03*
X117475000Y-114630000D03*
X118110000Y-99695000D03*
X137795000Y-80645000D03*
X170815000Y-108585000D03*
X153670000Y-66675000D03*
X140970000Y-114630000D03*
X118364000Y-105232200D03*
X156845000Y-100330000D03*
X170815000Y-72390000D03*
X143916400Y-89204800D03*
X149860000Y-101600000D03*
X125730000Y-111125000D03*
X146685000Y-106680000D03*
X130022600Y-88773000D03*
X107315000Y-71120000D03*
X135458200Y-84582000D03*
X138684000Y-88646000D03*
X161290000Y-57150000D03*
X117475000Y-57150000D03*
X159004000Y-72390000D03*
X83185000Y-57150000D03*
X110490000Y-114630000D03*
%TO.N,NRST*%
X128270000Y-93980000D03*
X144890000Y-83095000D03*
X133985000Y-91440000D03*
X140970000Y-83095000D03*
%TO.N,FPI5V_DSELn*%
X147320014Y-84455000D03*
X156845000Y-85725000D03*
X130810000Y-93345000D03*
%TO.N,BOOT_0*%
X138430000Y-67310000D03*
%TO.N,JTMS-SWDIO*%
X139699986Y-67310000D03*
%TO.N,JTCK-SWCLK*%
X137160000Y-67310000D03*
%TO.N,USART1_TX*%
X144500107Y-67894670D03*
%TO.N,USART1_RX*%
X143510000Y-68035000D03*
%TO.N,FPI5V_SIDEn*%
X142149990Y-76200008D03*
%TO.N,FPI5V_WGATEn*%
X141408437Y-77908437D03*
%TO.N,FPI5V_WDATAn*%
X135255000Y-75565000D03*
%TO.N,FPI5V_STEPn*%
X148680010Y-79375000D03*
%TO.N,FPI5V_DIRn*%
X149271436Y-74883564D03*
%TO.N,MOTOR_SIGNAL*%
X147320000Y-71755000D03*
%TO.N,SOUND*%
X132080000Y-83185000D03*
X120015000Y-107950000D03*
%TO.N,Net-(R8-Pad1)*%
X122555000Y-95250000D03*
X129539998Y-100330000D03*
%TO.N,JUMPER_JC*%
X153035000Y-74295000D03*
X148590000Y-66040000D03*
%TO.N,JUMPER_JB*%
X147320000Y-83185000D03*
X129735512Y-93540512D03*
%TO.N,FPO3V_RDDATAn*%
X125820010Y-101600000D03*
X149486567Y-76172065D03*
%TO.N,FPO3V_READYn*%
X142902258Y-75541126D03*
X125095000Y-104140000D03*
%TO.N,FPO3V_TRK00n*%
X137160000Y-76835000D03*
X135255000Y-78105000D03*
%TO.N,FPO3V_INDEXn*%
X137199651Y-79287651D03*
X133350000Y-79465010D03*
%TO.N,Net-(J2-SCL)*%
X156210000Y-75565000D03*
%TO.N,Net-(J2-SDA)*%
X156209992Y-74295000D03*
%TO.N,Net-(J6-Pin_28)*%
X100965000Y-102235000D03*
X104775000Y-98425000D03*
%TO.N,Net-(J6-Pin_2)*%
X104775000Y-75565000D03*
X100965000Y-73660000D03*
%TO.N,Net-(J6-Pin_26)*%
X104775000Y-93700032D03*
X100965000Y-99060000D03*
%TO.N,Net-(J6-Pin_30)*%
X100965000Y-105410000D03*
X104775000Y-99695000D03*
%TO.N,Net-(J6-Pin_1)*%
X119126000Y-87630000D03*
%TO.N,Net-(J6-Pin_10)*%
X117475000Y-77470000D03*
%TO.N,Net-(J6-Pin_4)*%
X119126000Y-85090000D03*
X100965000Y-76200000D03*
%TO.N,Net-(J6-Pin_8)*%
X100965000Y-81280000D03*
X104775000Y-81280000D03*
%TO.N,Net-(J6-Pin_12)*%
X117475000Y-74930000D03*
%TO.N,Net-(J6-Pin_34)*%
X104775000Y-105410000D03*
X100965000Y-111760000D03*
%TO.N,Net-(U2-PA11)*%
X151765000Y-92075000D03*
X146685000Y-76835000D03*
%TO.N,Net-(U2-PA12)*%
X149860000Y-93980000D03*
X145415000Y-77092679D03*
%TO.N,Net-(SW1-CLK)*%
X142039968Y-73025000D03*
%TO.N,Net-(SW1-SW)*%
X151130000Y-67945000D03*
%TO.N,Net-(SW1-DT)*%
X141169676Y-72480010D03*
%TO.N,Net-(U2-PA4)*%
X153035000Y-78105000D03*
X146685000Y-99060000D03*
%TD*%
D23*
%TO.N,+5V*%
X117159998Y-66040000D02*
X123104999Y-60094999D01*
X125515001Y-60745001D02*
X126365000Y-61595000D01*
X123104999Y-60094999D02*
X124864999Y-60094999D01*
X124864999Y-60094999D02*
X125515001Y-60745001D01*
X92075000Y-66040000D02*
X117159998Y-66040000D01*
D24*
%TO.N,GNDD*%
X130810000Y-81280000D02*
X136614996Y-81280000D01*
X136614996Y-81280000D02*
X137160000Y-81280000D01*
X137160000Y-81280000D02*
X137795000Y-80645000D01*
%TO.N,NRST*%
X130810000Y-94615000D02*
X133985000Y-91440000D01*
X144800000Y-83185000D02*
X144890000Y-83095000D01*
X128905000Y-94615000D02*
X128270000Y-93980000D01*
X140970000Y-83095000D02*
X144890000Y-83095000D01*
X128905000Y-94615000D02*
X130810000Y-94615000D01*
%TO.N,FPI5V_DSELn*%
X130810000Y-93345000D02*
X130810000Y-92710000D01*
X156845000Y-85725000D02*
X162560000Y-85725000D01*
X162560000Y-85725000D02*
X166370000Y-81915000D01*
X166370000Y-81915000D02*
X168275000Y-81915000D01*
X139065000Y-84455000D02*
X147320014Y-84455000D01*
X130810000Y-92710000D02*
X139065000Y-84455000D01*
%TO.N,BOOT_0*%
X135255000Y-64135000D02*
X138430000Y-67310000D01*
X133985000Y-64135000D02*
X135255000Y-64135000D01*
%TO.N,JTMS-SWDIO*%
X135159987Y-62770001D02*
X139299987Y-66910001D01*
X131445000Y-61595000D02*
X132620001Y-62770001D01*
X139299987Y-66910001D02*
X139699986Y-67310000D01*
X132620001Y-62770001D02*
X135159987Y-62770001D01*
%TO.N,JTCK-SWCLK*%
X128905000Y-61595000D02*
X130269999Y-62959999D01*
X135725686Y-65310001D02*
X137160000Y-66744315D01*
X133324316Y-65310001D02*
X135725686Y-65310001D01*
X130269999Y-62959999D02*
X132009001Y-62959999D01*
X137160000Y-66744315D02*
X137160000Y-67310000D01*
X132009001Y-62959999D02*
X132620001Y-63570999D01*
X132620001Y-63570999D02*
X132620001Y-64605686D01*
X132620001Y-64605686D02*
X133324316Y-65310001D01*
%TO.N,USART1_TX*%
X143915437Y-67310000D02*
X144500107Y-67894670D01*
X136434999Y-66655738D02*
X136434999Y-67658001D01*
X128905000Y-64135000D02*
X130556000Y-65786000D01*
X136434999Y-67658001D02*
X136811999Y-68035001D01*
X136811999Y-68035001D02*
X140879999Y-68035001D01*
X135565261Y-65786000D02*
X136434999Y-66655738D01*
X130556000Y-65786000D02*
X135565261Y-65786000D01*
X143510000Y-67310000D02*
X143915437Y-67310000D01*
X141605000Y-67310000D02*
X143510000Y-67310000D01*
X140879999Y-68035001D02*
X141605000Y-67310000D01*
%TO.N,USART1_RX*%
X143509990Y-68035010D02*
X143510000Y-68035000D01*
X126365000Y-64135000D02*
X126365000Y-65337081D01*
X135436851Y-66294000D02*
X135984989Y-66842138D01*
X127321919Y-66294000D02*
X135436851Y-66294000D01*
X135984990Y-67844402D02*
X136625599Y-68485011D01*
X136625599Y-68485011D02*
X141066399Y-68485011D01*
X141066399Y-68485011D02*
X141516400Y-68035010D01*
X135984989Y-66842138D02*
X135984990Y-67844402D01*
X142875000Y-68035010D02*
X143509990Y-68035010D01*
X141516400Y-68035010D02*
X142875000Y-68035010D01*
X126365000Y-65337081D02*
X127321919Y-66294000D01*
%TO.N,FPI5V_SIDEn*%
X138521413Y-82459998D02*
X142149990Y-78831421D01*
X95663001Y-101186999D02*
X105156000Y-91694000D01*
X105156000Y-91694000D02*
X119759589Y-91694000D01*
X142149990Y-76765693D02*
X142149990Y-76200008D01*
X142149990Y-78831421D02*
X142149990Y-76765693D01*
X128720011Y-82734989D02*
X128995002Y-82459998D01*
X128995002Y-82459998D02*
X138521413Y-82459998D01*
X119759589Y-91694000D02*
X128718600Y-82734989D01*
X94488000Y-110490000D02*
X95663001Y-109314999D01*
X128718600Y-82734989D02*
X128720011Y-82734989D01*
X95663001Y-109314999D02*
X95663001Y-101186999D01*
%TO.N,FPI5V_WGATEn*%
X128808602Y-82009987D02*
X138335013Y-82009987D01*
X138335013Y-82009987D02*
X141408437Y-78936563D01*
X119631179Y-91186000D02*
X128532200Y-82284978D01*
X128532200Y-82284978D02*
X128533611Y-82284978D01*
X128533611Y-82284978D02*
X128808602Y-82009987D01*
X94488000Y-100330000D02*
X103632000Y-91186000D01*
X103632000Y-91186000D02*
X119631179Y-91186000D01*
X141408437Y-78936563D02*
X141408437Y-77908437D01*
%TO.N,FPI5V_WDATAn*%
X134617179Y-75565000D02*
X134689315Y-75565000D01*
X119502768Y-90678000D02*
X128345800Y-81834967D01*
X128345800Y-81834967D02*
X128347212Y-81834967D01*
X128347212Y-81834967D02*
X134617179Y-75565000D01*
X101600000Y-90678000D02*
X119502768Y-90678000D01*
X134689315Y-75565000D02*
X135255000Y-75565000D01*
X94488000Y-97790000D02*
X101600000Y-90678000D01*
%TO.N,FPI5V_STEPn*%
X148680010Y-78809315D02*
X148680010Y-79375000D01*
X99568000Y-90170000D02*
X119374357Y-90170000D01*
X94488000Y-95250000D02*
X99568000Y-90170000D01*
X148680010Y-75365140D02*
X148680010Y-78809315D01*
X128160812Y-81384956D02*
X134705771Y-74839997D01*
X119374357Y-90170000D02*
X128159400Y-81384956D01*
X135164997Y-74839997D02*
X135188869Y-74816125D01*
X135188869Y-74816125D02*
X148130995Y-74816125D01*
X128159400Y-81384956D02*
X128160812Y-81384956D01*
X134705771Y-74839997D02*
X135164997Y-74839997D01*
X148130995Y-74816125D02*
X148680010Y-75365140D01*
%TO.N,FPI5V_DIRn*%
X127974412Y-80934945D02*
X127973000Y-80934945D01*
X97478011Y-89719989D02*
X94488000Y-92710000D01*
X148696255Y-74308383D02*
X134600974Y-74308383D01*
X149271436Y-74883564D02*
X148696255Y-74308383D01*
X127973000Y-80934945D02*
X119187957Y-89719989D01*
X134600974Y-74308383D02*
X127974412Y-80934945D01*
X119187957Y-89719989D02*
X97478011Y-89719989D01*
%TO.N,MOTOR_SIGNAL*%
X94488000Y-90170000D02*
X95388022Y-89269978D01*
X127786600Y-80484934D02*
X127788012Y-80484934D01*
X127786600Y-80484934D02*
X134413161Y-73858373D01*
X119001557Y-89269978D02*
X127786600Y-80484934D01*
X95388022Y-89269978D02*
X119001557Y-89269978D01*
X134413161Y-73858373D02*
X138231627Y-73858373D01*
X140335000Y-71755000D02*
X147320000Y-71755000D01*
X138231627Y-73858373D02*
X140335000Y-71755000D01*
%TO.N,SOUND*%
X120015000Y-107950000D02*
X120015000Y-92075000D01*
X120015000Y-92075000D02*
X128905000Y-83185000D01*
X128905000Y-83185000D02*
X132080000Y-83185000D01*
%TO.N,Net-(R8-Pad1)*%
X122555000Y-95250000D02*
X124369999Y-97064999D01*
X129539998Y-100895685D02*
X129539998Y-100330000D01*
X124369999Y-104488001D02*
X124746999Y-104865001D01*
X124369999Y-97064999D02*
X124369999Y-104488001D01*
X124746999Y-104865001D02*
X125570682Y-104865001D01*
X125570682Y-104865001D02*
X129539998Y-100895685D01*
%TO.N,JUMPER_JC*%
X149860000Y-67310000D02*
X148590000Y-66040000D01*
X153035000Y-74295000D02*
X149860000Y-71120000D01*
X149860000Y-71120000D02*
X149860000Y-67310000D01*
%TO.N,JUMPER_JB*%
X138973587Y-83910002D02*
X129735512Y-93148077D01*
X138973587Y-83910002D02*
X145148000Y-83910002D01*
X145873002Y-83185000D02*
X146754315Y-83185000D01*
X129735512Y-93148077D02*
X129735512Y-93540512D01*
X145148000Y-83910002D02*
X145873002Y-83185000D01*
X146754315Y-83185000D02*
X147320000Y-83185000D01*
%TO.N,FPO3V_RDDATAn*%
X145324680Y-76109999D02*
X147033001Y-76109999D01*
X144689998Y-76744677D02*
X145324680Y-76109999D01*
X125820010Y-101600000D02*
X125820010Y-87542810D01*
X147955009Y-79723001D02*
X148332009Y-80100001D01*
X149486567Y-76737750D02*
X149486567Y-76172065D01*
X147955009Y-77032007D02*
X147955009Y-79723001D01*
X138894213Y-83360020D02*
X144689998Y-77564235D01*
X147033001Y-76109999D02*
X147955009Y-77032007D01*
X132715000Y-84455000D02*
X133809980Y-83360020D01*
X125820010Y-87542810D02*
X128907820Y-84455000D01*
X144689998Y-77564235D02*
X144689998Y-76744677D01*
X148332009Y-80100001D02*
X149028011Y-80100001D01*
X128907820Y-84455000D02*
X132715000Y-84455000D01*
X149486567Y-79641445D02*
X149486567Y-76737750D01*
X133809980Y-83360020D02*
X138894213Y-83360020D01*
X149028011Y-80100001D02*
X149486567Y-79641445D01*
%TO.N,FPO3V_READYn*%
X142902258Y-76106811D02*
X142902258Y-75541126D01*
X125095000Y-104140000D02*
X125095000Y-87631410D01*
X138707813Y-82910009D02*
X142902258Y-78715564D01*
X128816409Y-83910001D02*
X132428001Y-83910001D01*
X132428001Y-83910001D02*
X133427993Y-82910009D01*
X125095000Y-87631410D02*
X128816409Y-83910001D01*
X142902258Y-78715564D02*
X142902258Y-76106811D01*
X133427993Y-82910009D02*
X138707813Y-82910009D01*
%TO.N,FPO3V_TRK00n*%
X135890000Y-78105000D02*
X137160000Y-76835000D01*
X135255000Y-78105000D02*
X135890000Y-78105000D01*
%TO.N,FPO3V_INDEXn*%
X137022292Y-79465010D02*
X137199651Y-79287651D01*
X133350000Y-79465010D02*
X137022292Y-79465010D01*
%TO.N,Net-(J2-SCL)*%
X154940000Y-111460000D02*
X156845000Y-113365000D01*
X154940000Y-76835000D02*
X154940000Y-111460000D01*
X156210000Y-75565000D02*
X154940000Y-76835000D01*
%TO.N,Net-(J2-SDA)*%
X154305000Y-76199992D02*
X156209992Y-74295000D01*
X154305000Y-113365000D02*
X154305000Y-76199992D01*
%TO.N,Net-(J6-Pin_28)*%
X100965000Y-102235000D02*
X104775000Y-98425000D01*
%TO.N,Net-(J6-Pin_2)*%
X100965000Y-73660000D02*
X102870000Y-75565000D01*
X102870000Y-75565000D02*
X104775000Y-75565000D01*
%TO.N,Net-(J6-Pin_26)*%
X100965000Y-97510032D02*
X104375001Y-94100031D01*
X104375001Y-94100031D02*
X104775000Y-93700032D01*
X100965000Y-99060000D02*
X100965000Y-97510032D01*
%TO.N,Net-(J6-Pin_30)*%
X100965000Y-105410000D02*
X104775000Y-101600000D01*
X104775000Y-101600000D02*
X104775000Y-99695000D01*
%TO.N,Net-(J6-Pin_1)*%
X90772999Y-85843999D02*
X91289000Y-86360000D01*
X90772999Y-72465001D02*
X90772999Y-85843999D01*
X94957002Y-86360000D02*
X97416970Y-88819968D01*
X97416970Y-88819968D02*
X117555032Y-88819968D01*
X91289000Y-86360000D02*
X94957002Y-86360000D01*
X117936032Y-88819968D02*
X119126000Y-87630000D01*
X91948000Y-72390000D02*
X90848000Y-72390000D01*
X90848000Y-72390000D02*
X90772999Y-72465001D01*
X117555032Y-88819968D02*
X117936032Y-88819968D01*
%TO.N,Net-(J6-Pin_10)*%
X94996000Y-82042000D02*
X105086002Y-82042000D01*
X105086002Y-82042000D02*
X109658002Y-77470000D01*
X109658002Y-77470000D02*
X117475000Y-77470000D01*
X94488000Y-82550000D02*
X94996000Y-82042000D01*
%TO.N,Net-(J6-Pin_4)*%
X117823001Y-74204999D02*
X118200001Y-74581999D01*
X100965000Y-76200000D02*
X101530685Y-76200000D01*
X118200001Y-84164001D02*
X119126000Y-85090000D01*
X117126999Y-74204999D02*
X117823001Y-74204999D01*
X101620686Y-76290001D02*
X115041997Y-76290001D01*
X115041997Y-76290001D02*
X117126999Y-74204999D01*
X101530685Y-76200000D02*
X101620686Y-76290001D01*
X118200001Y-74581999D02*
X118200001Y-84164001D01*
%TO.N,Net-(J6-Pin_8)*%
X100965000Y-81280000D02*
X104775000Y-81280000D01*
%TO.N,Net-(J6-Pin_12)*%
X100616999Y-80554999D02*
X105936593Y-80554999D01*
X109656592Y-76835000D02*
X115570000Y-76835000D01*
X93218000Y-81807499D02*
X93745499Y-81280000D01*
X93218000Y-83820000D02*
X93218000Y-81807499D01*
X93745499Y-81280000D02*
X99891998Y-81280000D01*
X105936593Y-80554999D02*
X109656592Y-76835000D01*
X94488000Y-85090000D02*
X93218000Y-83820000D01*
X115570000Y-76835000D02*
X117475000Y-74930000D01*
X99891998Y-81280000D02*
X100616999Y-80554999D01*
%TO.N,Net-(J6-Pin_34)*%
X100965000Y-111760000D02*
X104775000Y-107950000D01*
X104775000Y-107950000D02*
X104775000Y-105410000D01*
%TO.N,Net-(U2-PA11)*%
X146685000Y-80424589D02*
X146685000Y-77400685D01*
X151765000Y-92075000D02*
X150368000Y-90678000D01*
X150368000Y-90678000D02*
X150368000Y-84107589D01*
X146685000Y-77400685D02*
X146685000Y-76835000D01*
X150368000Y-84107589D02*
X146685000Y-80424589D01*
%TO.N,Net-(U2-PA12)*%
X145415000Y-77658364D02*
X145415000Y-77092679D01*
X149860000Y-93980000D02*
X149860000Y-84235999D01*
X146050000Y-78293364D02*
X145415000Y-77658364D01*
X146050000Y-80425999D02*
X146050000Y-78293364D01*
X149860000Y-84235999D02*
X146050000Y-80425999D01*
%TO.N,Net-(SW1-CLK)*%
X153383001Y-75020001D02*
X160007992Y-68395010D01*
X142039968Y-73025000D02*
X149225000Y-73025000D01*
X168045695Y-63905695D02*
X168045695Y-60902105D01*
X151220002Y-75020002D02*
X153383001Y-75020001D01*
X160007992Y-68395010D02*
X163556380Y-68395010D01*
X169003800Y-59944000D02*
X170103800Y-59944000D01*
X149225000Y-73025000D02*
X151220002Y-75020002D01*
X168045695Y-60902105D02*
X169003800Y-59944000D01*
X163556380Y-68395010D02*
X168045695Y-63905695D01*
%TO.N,Net-(SW1-SW)*%
X171278801Y-58833999D02*
X171278801Y-63848999D01*
X151130000Y-67945000D02*
X163369980Y-67945000D01*
X163369980Y-67945000D02*
X167595685Y-63719295D01*
X170953799Y-64174001D02*
X170103800Y-65024000D01*
X167595685Y-63719295D02*
X167595685Y-60167113D01*
X171213801Y-58768999D02*
X171278801Y-58833999D01*
X167595685Y-60167113D02*
X168993799Y-58768999D01*
X168993799Y-58768999D02*
X171213801Y-58768999D01*
X171278801Y-63848999D02*
X170953799Y-64174001D01*
%TO.N,Net-(SW1-DT)*%
X151033603Y-75470013D02*
X153569402Y-75470013D01*
X160194396Y-68845019D02*
X163742781Y-68845019D01*
X141691966Y-73750002D02*
X149313592Y-73750002D01*
X163742781Y-68845019D02*
X169253801Y-63333999D01*
X169253801Y-63333999D02*
X170103800Y-62484000D01*
X153569402Y-75470013D02*
X160194396Y-68845019D01*
X149313592Y-73750002D02*
X151033603Y-75470013D01*
X141169676Y-72480010D02*
X141169676Y-73227712D01*
X141169676Y-73227712D02*
X141691966Y-73750002D01*
%TO.N,Net-(U2-PA4)*%
X153670000Y-78740000D02*
X153035000Y-78105000D01*
X153670000Y-92075000D02*
X153670000Y-78740000D01*
X146685000Y-99060000D02*
X153670000Y-92075000D01*
%TD*%
%TA.AperFunction,Conductor*%
%TO.N,GNDD*%
G36*
X92329000Y-63069297D02*
G01*
X92267993Y-63034075D01*
X92140826Y-63000000D01*
X92009174Y-63000000D01*
X91882007Y-63034075D01*
X91821000Y-63069297D01*
X91821000Y-61390702D01*
X91882007Y-61425925D01*
X92009174Y-61460000D01*
X92140826Y-61460000D01*
X92267993Y-61425925D01*
X92329000Y-61390702D01*
X92329000Y-63069297D01*
G37*
%TD.AperFunction*%
%TA.AperFunction,Conductor*%
G36*
X171796621Y-55960502D02*
G01*
X171843114Y-56014158D01*
X171854500Y-56066500D01*
X171854500Y-58209604D01*
X171834498Y-58277725D01*
X171780842Y-58324218D01*
X171710568Y-58334322D01*
X171645988Y-58304828D01*
X171639405Y-58298699D01*
X171617636Y-58276930D01*
X171617634Y-58276928D01*
X171513876Y-58207599D01*
X171398586Y-58159844D01*
X171324887Y-58145184D01*
X171276197Y-58135499D01*
X171276195Y-58135499D01*
X169056193Y-58135499D01*
X168931405Y-58135499D01*
X168931402Y-58135499D01*
X168809013Y-58159844D01*
X168809008Y-58159846D01*
X168693723Y-58207598D01*
X168589966Y-58276926D01*
X168332969Y-58533924D01*
X167191852Y-59675042D01*
X167103616Y-59763277D01*
X167103611Y-59763284D01*
X167034286Y-59867036D01*
X166986531Y-59982325D01*
X166962185Y-60104716D01*
X166962185Y-63404701D01*
X166942183Y-63472822D01*
X166925280Y-63493796D01*
X163144481Y-67274595D01*
X163082169Y-67308621D01*
X163055386Y-67311500D01*
X151838200Y-67311500D01*
X151770079Y-67291498D01*
X151744563Y-67269810D01*
X151741252Y-67266133D01*
X151586752Y-67153882D01*
X151412288Y-67076206D01*
X151225487Y-67036500D01*
X151034513Y-67036500D01*
X150847711Y-67076206D01*
X150673246Y-67153883D01*
X150654796Y-67167287D01*
X150587927Y-67191143D01*
X150518776Y-67175060D01*
X150469298Y-67124144D01*
X150464330Y-67113567D01*
X150460182Y-67103552D01*
X150421400Y-67009925D01*
X150352071Y-66906167D01*
X150263833Y-66817929D01*
X149537122Y-66091218D01*
X149503096Y-66028906D01*
X149500907Y-66015293D01*
X149483542Y-65850072D01*
X149424527Y-65668444D01*
X149329040Y-65503056D01*
X149329038Y-65503054D01*
X149329034Y-65503048D01*
X149201255Y-65361135D01*
X149046752Y-65248882D01*
X148872288Y-65171206D01*
X148685487Y-65131500D01*
X148494513Y-65131500D01*
X148307711Y-65171206D01*
X148133247Y-65248882D01*
X147978744Y-65361135D01*
X147850965Y-65503048D01*
X147850958Y-65503058D01*
X147755476Y-65668438D01*
X147755473Y-65668445D01*
X147696457Y-65850072D01*
X147676496Y-66040000D01*
X147696457Y-66229927D01*
X147717276Y-66294000D01*
X147755473Y-66411556D01*
X147783841Y-66460691D01*
X147850958Y-66576941D01*
X147850965Y-66576951D01*
X147978744Y-66718864D01*
X148039999Y-66763368D01*
X148133248Y-66831118D01*
X148307712Y-66908794D01*
X148494513Y-66948500D01*
X148550406Y-66948500D01*
X148618527Y-66968502D01*
X148639501Y-66985405D01*
X149189595Y-67535499D01*
X149223621Y-67597811D01*
X149226500Y-67624594D01*
X149226500Y-71182396D01*
X149233594Y-71218058D01*
X149250845Y-71304785D01*
X149298600Y-71420075D01*
X149367929Y-71523833D01*
X149367931Y-71523835D01*
X152015502Y-74171406D01*
X152049528Y-74233718D01*
X152044463Y-74304533D01*
X152001916Y-74361369D01*
X151935396Y-74386180D01*
X151926407Y-74386501D01*
X151534595Y-74386501D01*
X151466474Y-74366499D01*
X151445500Y-74349596D01*
X149628835Y-72532931D01*
X149628833Y-72532929D01*
X149525075Y-72463600D01*
X149409785Y-72415845D01*
X149336086Y-72401185D01*
X149287396Y-72391500D01*
X149287394Y-72391500D01*
X148219800Y-72391500D01*
X148151679Y-72371498D01*
X148105186Y-72317842D01*
X148095082Y-72247568D01*
X148110681Y-72202500D01*
X148132375Y-72164924D01*
X148154527Y-72126556D01*
X148213542Y-71944928D01*
X148233504Y-71755000D01*
X148213542Y-71565072D01*
X148154527Y-71383444D01*
X148059040Y-71218056D01*
X148059038Y-71218054D01*
X148059034Y-71218048D01*
X147931255Y-71076135D01*
X147776752Y-70963882D01*
X147602288Y-70886206D01*
X147415487Y-70846500D01*
X147224513Y-70846500D01*
X147037711Y-70886206D01*
X146863247Y-70963882D01*
X146708747Y-71076133D01*
X146705437Y-71079810D01*
X146644991Y-71117050D01*
X146611800Y-71121500D01*
X140272600Y-71121500D01*
X140150217Y-71145844D01*
X140150209Y-71145846D01*
X140116447Y-71159830D01*
X140116447Y-71159831D01*
X140061976Y-71182394D01*
X140034925Y-71193599D01*
X139931167Y-71262927D01*
X139479458Y-71714637D01*
X138006126Y-73187969D01*
X137943816Y-73221993D01*
X137917033Y-73224873D01*
X134350764Y-73224873D01*
X134277729Y-73239401D01*
X134228376Y-73249218D01*
X134228374Y-73249218D01*
X134228373Y-73249219D01*
X134160836Y-73277194D01*
X134129660Y-73290108D01*
X134113084Y-73296974D01*
X134009332Y-73366299D01*
X134009325Y-73366304D01*
X120133979Y-87241650D01*
X120071667Y-87275676D01*
X120000852Y-87270611D01*
X119944016Y-87228064D01*
X119935765Y-87215555D01*
X119865041Y-87093058D01*
X119865034Y-87093048D01*
X119737255Y-86951135D01*
X119582752Y-86838882D01*
X119408288Y-86761206D01*
X119221487Y-86721500D01*
X119030513Y-86721500D01*
X118843711Y-86761206D01*
X118669247Y-86838882D01*
X118514744Y-86951135D01*
X118386965Y-87093048D01*
X118386958Y-87093058D01*
X118291476Y-87258438D01*
X118291473Y-87258445D01*
X118232457Y-87440072D01*
X118215092Y-87605292D01*
X118188079Y-87670949D01*
X118178878Y-87681216D01*
X117710533Y-88149563D01*
X117648220Y-88183588D01*
X117621437Y-88186468D01*
X97731564Y-88186468D01*
X97663443Y-88166466D01*
X97642469Y-88149563D01*
X95579349Y-86086443D01*
X95545323Y-86024131D01*
X95550388Y-85953316D01*
X95562961Y-85928433D01*
X95658888Y-85781605D01*
X95686860Y-85738791D01*
X95777296Y-85532616D01*
X95832564Y-85314368D01*
X95851156Y-85090000D01*
X95832564Y-84865632D01*
X95795291Y-84718444D01*
X95777297Y-84647387D01*
X95777296Y-84647386D01*
X95777296Y-84647384D01*
X95686860Y-84441209D01*
X95667211Y-84411134D01*
X95563724Y-84252734D01*
X95563720Y-84252729D01*
X95411237Y-84087091D01*
X95316716Y-84013522D01*
X95233576Y-83948811D01*
X95200319Y-83930813D01*
X95149929Y-83880802D01*
X95134576Y-83811485D01*
X95159136Y-83744872D01*
X95200320Y-83709186D01*
X95233576Y-83691189D01*
X95411240Y-83552906D01*
X95563722Y-83387268D01*
X95686860Y-83198791D01*
X95777296Y-82992616D01*
X95811637Y-82857007D01*
X95833527Y-82770568D01*
X95869639Y-82709443D01*
X95933067Y-82677544D01*
X95955671Y-82675500D01*
X105148395Y-82675500D01*
X105148396Y-82675500D01*
X105270787Y-82651155D01*
X105386077Y-82603400D01*
X105489835Y-82534071D01*
X109883501Y-78140405D01*
X109945813Y-78106379D01*
X109972596Y-78103500D01*
X116766800Y-78103500D01*
X116834921Y-78123502D01*
X116860437Y-78145190D01*
X116863747Y-78148866D01*
X117018248Y-78261118D01*
X117192712Y-78338794D01*
X117379513Y-78378500D01*
X117440501Y-78378500D01*
X117508622Y-78398502D01*
X117555115Y-78452158D01*
X117566501Y-78504500D01*
X117566501Y-84101607D01*
X117566501Y-84226395D01*
X117590846Y-84348786D01*
X117638601Y-84464076D01*
X117707930Y-84567834D01*
X117707932Y-84567836D01*
X118178877Y-85038781D01*
X118212903Y-85101093D01*
X118215092Y-85114705D01*
X118232457Y-85279927D01*
X118246711Y-85323794D01*
X118291473Y-85461556D01*
X118291476Y-85461561D01*
X118386958Y-85626941D01*
X118386965Y-85626951D01*
X118514744Y-85768864D01*
X118575999Y-85813368D01*
X118669248Y-85881118D01*
X118843712Y-85958794D01*
X119030513Y-85998500D01*
X119221487Y-85998500D01*
X119408288Y-85958794D01*
X119582752Y-85881118D01*
X119737253Y-85768866D01*
X119764333Y-85738791D01*
X119865034Y-85626951D01*
X119865035Y-85626949D01*
X119865040Y-85626944D01*
X119960527Y-85461556D01*
X120019542Y-85279928D01*
X120039504Y-85090000D01*
X120019542Y-84900072D01*
X119960527Y-84718444D01*
X119865040Y-84553056D01*
X119865038Y-84553054D01*
X119865034Y-84553048D01*
X119737255Y-84411135D01*
X119582752Y-84298882D01*
X119408288Y-84221206D01*
X119221487Y-84181500D01*
X119165594Y-84181500D01*
X119097473Y-84161498D01*
X119076499Y-84144595D01*
X118870406Y-83938502D01*
X118836380Y-83876190D01*
X118833501Y-83849407D01*
X118833501Y-74519606D01*
X118833500Y-74519602D01*
X118827092Y-74487386D01*
X118809156Y-74397214D01*
X118792662Y-74357394D01*
X118761402Y-74281924D01*
X118692073Y-74178166D01*
X118226834Y-73712928D01*
X118123076Y-73643599D01*
X118007786Y-73595844D01*
X117934087Y-73581184D01*
X117885397Y-73571499D01*
X117885395Y-73571499D01*
X117189393Y-73571499D01*
X117064605Y-73571499D01*
X117064602Y-73571499D01*
X116997374Y-73584872D01*
X116942214Y-73595844D01*
X116942212Y-73595844D01*
X116942211Y-73595845D01*
X116874674Y-73623820D01*
X116839616Y-73638342D01*
X116826922Y-73643600D01*
X116723170Y-73712925D01*
X116723163Y-73712930D01*
X114816498Y-75619596D01*
X114754186Y-75653622D01*
X114727403Y-75656501D01*
X105811572Y-75656501D01*
X105743451Y-75636499D01*
X105696958Y-75582843D01*
X105686262Y-75543671D01*
X105683893Y-75521135D01*
X105668542Y-75375072D01*
X105609527Y-75193444D01*
X105514040Y-75028056D01*
X105514038Y-75028054D01*
X105514034Y-75028048D01*
X105386255Y-74886135D01*
X105231752Y-74773882D01*
X105057288Y-74696206D01*
X104870487Y-74656500D01*
X104679513Y-74656500D01*
X104492711Y-74696206D01*
X104318247Y-74773882D01*
X104163747Y-74886133D01*
X104160437Y-74889810D01*
X104099991Y-74927050D01*
X104066800Y-74931500D01*
X103184594Y-74931500D01*
X103116473Y-74911498D01*
X103095499Y-74894595D01*
X101912122Y-73711218D01*
X101878096Y-73648906D01*
X101875907Y-73635293D01*
X101873893Y-73616135D01*
X101858542Y-73470072D01*
X101799527Y-73288444D01*
X101704040Y-73123056D01*
X101704038Y-73123054D01*
X101704034Y-73123048D01*
X101576255Y-72981135D01*
X101421752Y-72868882D01*
X101247288Y-72791206D01*
X101060487Y-72751500D01*
X100869513Y-72751500D01*
X100682711Y-72791206D01*
X100508247Y-72868882D01*
X100353744Y-72981135D01*
X100225965Y-73123048D01*
X100225958Y-73123058D01*
X100131713Y-73286296D01*
X100130473Y-73288444D01*
X100126267Y-73301388D01*
X100071457Y-73470072D01*
X100051496Y-73660000D01*
X100071457Y-73849927D01*
X100095343Y-73923438D01*
X100130473Y-74031556D01*
X100130476Y-74031561D01*
X100225958Y-74196941D01*
X100225965Y-74196951D01*
X100353744Y-74338864D01*
X100391780Y-74366499D01*
X100508248Y-74451118D01*
X100682712Y-74528794D01*
X100869513Y-74568500D01*
X100925406Y-74568500D01*
X100993527Y-74588502D01*
X101014501Y-74605405D01*
X101738640Y-75329544D01*
X101772666Y-75391856D01*
X101767601Y-75462671D01*
X101725054Y-75519507D01*
X101658534Y-75544318D01*
X101589160Y-75529227D01*
X101575484Y-75520575D01*
X101421752Y-75408882D01*
X101247288Y-75331206D01*
X101060487Y-75291500D01*
X100869513Y-75291500D01*
X100682711Y-75331206D01*
X100508247Y-75408882D01*
X100353744Y-75521135D01*
X100225965Y-75663048D01*
X100225958Y-75663058D01*
X100146601Y-75800509D01*
X100130473Y-75828444D01*
X100130470Y-75828453D01*
X100071457Y-76010072D01*
X100051496Y-76200000D01*
X100071457Y-76389927D01*
X100098612Y-76473500D01*
X100130473Y-76571556D01*
X100149104Y-76603825D01*
X100225958Y-76736941D01*
X100225965Y-76736951D01*
X100353744Y-76878864D01*
X100353747Y-76878866D01*
X100508248Y-76991118D01*
X100682712Y-77068794D01*
X100869513Y-77108500D01*
X101060487Y-77108500D01*
X101247288Y-77068794D01*
X101421752Y-76991118D01*
X101481697Y-76947565D01*
X101548565Y-76923707D01*
X101555758Y-76923501D01*
X101558292Y-76923501D01*
X101558293Y-76923501D01*
X101683080Y-76923501D01*
X108367997Y-76923501D01*
X108436118Y-76943503D01*
X108482611Y-76997159D01*
X108492715Y-77067433D01*
X108463221Y-77132013D01*
X108457092Y-77138596D01*
X105711094Y-79884594D01*
X105648782Y-79918620D01*
X105621999Y-79921499D01*
X100554602Y-79921499D01*
X100481567Y-79936027D01*
X100432214Y-79945844D01*
X100432212Y-79945844D01*
X100432211Y-79945845D01*
X100382310Y-79966515D01*
X100318704Y-79992862D01*
X100316922Y-79993600D01*
X100213170Y-80062925D01*
X100213163Y-80062930D01*
X99666499Y-80609595D01*
X99604187Y-80643621D01*
X99577404Y-80646500D01*
X95885108Y-80646500D01*
X95816987Y-80626498D01*
X95770494Y-80572842D01*
X95760390Y-80502568D01*
X95769721Y-80469886D01*
X95771964Y-80464769D01*
X95777296Y-80452616D01*
X95832564Y-80234368D01*
X95851156Y-80010000D01*
X95832564Y-79785632D01*
X95799468Y-79654938D01*
X95777297Y-79567387D01*
X95777296Y-79567386D01*
X95777296Y-79567384D01*
X95686860Y-79361209D01*
X95630591Y-79275082D01*
X95563724Y-79172734D01*
X95563720Y-79172729D01*
X95416586Y-79012901D01*
X95411240Y-79007094D01*
X95411239Y-79007093D01*
X95411237Y-79007091D01*
X95329382Y-78943381D01*
X95233576Y-78868811D01*
X95200319Y-78850813D01*
X95149929Y-78800802D01*
X95134576Y-78731485D01*
X95159136Y-78664872D01*
X95200320Y-78629186D01*
X95233576Y-78611189D01*
X95411240Y-78472906D01*
X95563722Y-78307268D01*
X95563927Y-78306955D01*
X95630643Y-78204837D01*
X95686860Y-78118791D01*
X95777296Y-77912616D01*
X95832564Y-77694368D01*
X95851156Y-77470000D01*
X95832564Y-77245632D01*
X95800071Y-77117319D01*
X95777297Y-77027387D01*
X95777296Y-77027386D01*
X95777296Y-77027384D01*
X95686860Y-76821209D01*
X95666652Y-76790278D01*
X95563724Y-76632734D01*
X95563720Y-76632729D01*
X95444866Y-76503621D01*
X95411240Y-76467094D01*
X95411239Y-76467093D01*
X95411237Y-76467091D01*
X95317138Y-76393851D01*
X95233576Y-76328811D01*
X95224717Y-76324017D01*
X95200320Y-76310814D01*
X95149929Y-76260802D01*
X95134576Y-76191485D01*
X95159136Y-76124872D01*
X95200320Y-76089186D01*
X95233576Y-76071189D01*
X95411240Y-75932906D01*
X95563722Y-75767268D01*
X95563927Y-75766955D01*
X95587382Y-75731053D01*
X95686860Y-75578791D01*
X95777296Y-75372616D01*
X95832564Y-75154368D01*
X95851156Y-74930000D01*
X95832564Y-74705632D01*
X95830125Y-74696002D01*
X95777297Y-74487387D01*
X95777296Y-74487386D01*
X95777296Y-74487384D01*
X95686860Y-74281209D01*
X95619539Y-74178166D01*
X95563724Y-74092734D01*
X95563720Y-74092729D01*
X95411237Y-73927091D01*
X95312097Y-73849927D01*
X95233576Y-73788811D01*
X95200319Y-73770813D01*
X95149929Y-73720802D01*
X95134576Y-73651485D01*
X95159136Y-73584872D01*
X95200320Y-73549186D01*
X95233576Y-73531189D01*
X95411240Y-73392906D01*
X95563722Y-73227268D01*
X95686860Y-73038791D01*
X95777296Y-72832616D01*
X95832564Y-72614368D01*
X95851156Y-72390000D01*
X95832564Y-72165632D01*
X95777296Y-71947384D01*
X95686860Y-71741209D01*
X95669500Y-71714637D01*
X95563724Y-71552734D01*
X95563720Y-71552729D01*
X95411237Y-71387091D01*
X95305493Y-71304787D01*
X95233576Y-71248811D01*
X95035574Y-71141658D01*
X95035572Y-71141657D01*
X95035571Y-71141656D01*
X94822639Y-71068557D01*
X94822630Y-71068555D01*
X94778476Y-71061187D01*
X94600569Y-71031500D01*
X94375431Y-71031500D01*
X94227211Y-71056233D01*
X94153369Y-71068555D01*
X94153360Y-71068557D01*
X93940428Y-71141656D01*
X93940426Y-71141658D01*
X93799255Y-71218056D01*
X93742426Y-71248810D01*
X93742424Y-71248811D01*
X93564762Y-71387091D01*
X93503754Y-71453363D01*
X93442901Y-71489933D01*
X93371936Y-71487798D01*
X93313391Y-71447636D01*
X93292999Y-71412057D01*
X93252988Y-71304787D01*
X93248889Y-71293796D01*
X93248888Y-71293794D01*
X93248887Y-71293792D01*
X93161261Y-71176738D01*
X93044207Y-71089112D01*
X93044202Y-71089110D01*
X92907204Y-71038011D01*
X92907196Y-71038009D01*
X92846649Y-71031500D01*
X92846638Y-71031500D01*
X91049362Y-71031500D01*
X91049350Y-71031500D01*
X90988803Y-71038009D01*
X90988795Y-71038011D01*
X90851797Y-71089110D01*
X90851792Y-71089112D01*
X90734738Y-71176738D01*
X90647112Y-71293792D01*
X90647110Y-71293797D01*
X90596011Y-71430795D01*
X90596009Y-71430803D01*
X90589500Y-71491350D01*
X90589500Y-71733471D01*
X90569498Y-71801592D01*
X90533503Y-71838236D01*
X90444167Y-71897929D01*
X90444164Y-71897931D01*
X90280930Y-72061165D01*
X90280925Y-72061172D01*
X90211600Y-72164924D01*
X90163845Y-72280213D01*
X90139499Y-72402604D01*
X90139499Y-85906395D01*
X90143651Y-85927268D01*
X90163844Y-86028784D01*
X90211599Y-86144074D01*
X90280928Y-86247832D01*
X90666595Y-86633500D01*
X90781933Y-86748838D01*
X90815958Y-86811150D01*
X90810893Y-86881966D01*
X90798320Y-86906848D01*
X90749581Y-86981448D01*
X90659179Y-87187543D01*
X90659176Y-87187550D01*
X90611455Y-87375999D01*
X90611456Y-87376000D01*
X91517297Y-87376000D01*
X91482075Y-87437007D01*
X91448000Y-87564174D01*
X91448000Y-87695826D01*
X91482075Y-87822993D01*
X91517297Y-87884000D01*
X90611455Y-87884000D01*
X90659176Y-88072449D01*
X90659179Y-88072456D01*
X90749580Y-88278548D01*
X90872674Y-88466958D01*
X91025097Y-88632534D01*
X91202698Y-88770767D01*
X91202699Y-88770768D01*
X91236734Y-88789187D01*
X91287123Y-88839201D01*
X91302475Y-88908518D01*
X91277913Y-88975130D01*
X91236734Y-89010813D01*
X91202699Y-89029231D01*
X91202698Y-89029232D01*
X91025097Y-89167465D01*
X90872674Y-89333041D01*
X90749580Y-89521451D01*
X90659179Y-89727543D01*
X90659176Y-89727550D01*
X90611455Y-89915999D01*
X90611456Y-89916000D01*
X91517297Y-89916000D01*
X91482075Y-89977007D01*
X91448000Y-90104174D01*
X91448000Y-90235826D01*
X91482075Y-90362993D01*
X91517297Y-90424000D01*
X90611455Y-90424000D01*
X90659176Y-90612449D01*
X90659179Y-90612456D01*
X90749580Y-90818548D01*
X90872674Y-91006958D01*
X91025097Y-91172534D01*
X91202698Y-91310767D01*
X91202699Y-91310768D01*
X91236734Y-91329187D01*
X91287123Y-91379201D01*
X91302475Y-91448518D01*
X91277913Y-91515130D01*
X91236734Y-91550813D01*
X91202699Y-91569231D01*
X91202698Y-91569232D01*
X91025097Y-91707465D01*
X90872674Y-91873041D01*
X90749580Y-92061451D01*
X90659179Y-92267543D01*
X90659176Y-92267550D01*
X90611455Y-92455999D01*
X90611456Y-92456000D01*
X91517297Y-92456000D01*
X91482075Y-92517007D01*
X91448000Y-92644174D01*
X91448000Y-92775826D01*
X91482075Y-92902993D01*
X91517297Y-92964000D01*
X90611455Y-92964000D01*
X90659176Y-93152449D01*
X90659179Y-93152456D01*
X90749580Y-93358548D01*
X90872674Y-93546958D01*
X91025097Y-93712534D01*
X91202698Y-93850767D01*
X91202699Y-93850768D01*
X91236734Y-93869187D01*
X91287123Y-93919201D01*
X91302475Y-93988518D01*
X91277913Y-94055130D01*
X91236734Y-94090813D01*
X91202699Y-94109231D01*
X91202698Y-94109232D01*
X91025097Y-94247465D01*
X90872674Y-94413041D01*
X90749580Y-94601451D01*
X90659179Y-94807543D01*
X90659176Y-94807550D01*
X90611455Y-94995999D01*
X90611456Y-94996000D01*
X91517297Y-94996000D01*
X91482075Y-95057007D01*
X91448000Y-95184174D01*
X91448000Y-95315826D01*
X91482075Y-95442993D01*
X91517297Y-95504000D01*
X90611455Y-95504000D01*
X90659176Y-95692449D01*
X90659179Y-95692456D01*
X90749580Y-95898548D01*
X90872674Y-96086958D01*
X91025097Y-96252534D01*
X91202698Y-96390767D01*
X91202699Y-96390768D01*
X91236734Y-96409187D01*
X91287123Y-96459201D01*
X91302475Y-96528518D01*
X91277913Y-96595130D01*
X91236734Y-96630813D01*
X91202699Y-96649231D01*
X91202698Y-96649232D01*
X91025097Y-96787465D01*
X90872674Y-96953041D01*
X90749580Y-97141451D01*
X90659179Y-97347543D01*
X90659176Y-97347550D01*
X90611455Y-97535999D01*
X90611456Y-97536000D01*
X91517297Y-97536000D01*
X91482075Y-97597007D01*
X91448000Y-97724174D01*
X91448000Y-97855826D01*
X91482075Y-97982993D01*
X91517297Y-98044000D01*
X90611455Y-98044000D01*
X90659176Y-98232449D01*
X90659179Y-98232456D01*
X90749580Y-98438548D01*
X90872674Y-98626958D01*
X91025097Y-98792534D01*
X91202698Y-98930767D01*
X91202699Y-98930768D01*
X91236734Y-98949187D01*
X91287123Y-98999201D01*
X91302475Y-99068518D01*
X91277913Y-99135130D01*
X91236734Y-99170813D01*
X91202699Y-99189231D01*
X91202698Y-99189232D01*
X91025097Y-99327465D01*
X90872674Y-99493041D01*
X90749580Y-99681451D01*
X90659179Y-99887543D01*
X90659176Y-99887550D01*
X90611455Y-100075999D01*
X90611456Y-100076000D01*
X91517297Y-100076000D01*
X91482075Y-100137007D01*
X91448000Y-100264174D01*
X91448000Y-100395826D01*
X91482075Y-100522993D01*
X91517297Y-100584000D01*
X90611455Y-100584000D01*
X90659176Y-100772449D01*
X90659179Y-100772456D01*
X90749580Y-100978548D01*
X90872674Y-101166958D01*
X91025097Y-101332534D01*
X91202698Y-101470767D01*
X91202699Y-101470768D01*
X91236734Y-101489187D01*
X91287123Y-101539201D01*
X91302475Y-101608518D01*
X91277913Y-101675130D01*
X91236734Y-101710813D01*
X91202699Y-101729231D01*
X91202698Y-101729232D01*
X91025097Y-101867465D01*
X90872674Y-102033041D01*
X90749580Y-102221451D01*
X90659179Y-102427543D01*
X90659176Y-102427550D01*
X90611455Y-102615999D01*
X90611456Y-102616000D01*
X91517297Y-102616000D01*
X91482075Y-102677007D01*
X91448000Y-102804174D01*
X91448000Y-102935826D01*
X91482075Y-103062993D01*
X91517297Y-103124000D01*
X90611455Y-103124000D01*
X90659176Y-103312449D01*
X90659179Y-103312456D01*
X90749580Y-103518548D01*
X90872674Y-103706958D01*
X91025097Y-103872534D01*
X91202698Y-104010767D01*
X91202699Y-104010768D01*
X91236734Y-104029187D01*
X91287123Y-104079201D01*
X91302475Y-104148518D01*
X91277913Y-104215130D01*
X91236734Y-104250813D01*
X91202699Y-104269231D01*
X91202698Y-104269232D01*
X91025097Y-104407465D01*
X90872674Y-104573041D01*
X90749580Y-104761451D01*
X90659179Y-104967543D01*
X90659176Y-104967550D01*
X90611455Y-105155999D01*
X90611456Y-105156000D01*
X91517297Y-105156000D01*
X91482075Y-105217007D01*
X91448000Y-105344174D01*
X91448000Y-105475826D01*
X91482075Y-105602993D01*
X91517297Y-105664000D01*
X90611455Y-105664000D01*
X90659176Y-105852449D01*
X90659179Y-105852456D01*
X90749580Y-106058548D01*
X90872674Y-106246958D01*
X91025097Y-106412534D01*
X91202698Y-106550767D01*
X91202699Y-106550768D01*
X91236734Y-106569187D01*
X91287123Y-106619201D01*
X91302475Y-106688518D01*
X91277913Y-106755130D01*
X91236734Y-106790813D01*
X91202699Y-106809231D01*
X91202698Y-106809232D01*
X91025097Y-106947465D01*
X90872674Y-107113041D01*
X90749580Y-107301451D01*
X90659179Y-107507543D01*
X90659176Y-107507550D01*
X90611455Y-107695999D01*
X90611456Y-107696000D01*
X91517297Y-107696000D01*
X91482075Y-107757007D01*
X91448000Y-107884174D01*
X91448000Y-108015826D01*
X91482075Y-108142993D01*
X91517297Y-108204000D01*
X90611455Y-108204000D01*
X90659176Y-108392449D01*
X90659179Y-108392456D01*
X90749580Y-108598548D01*
X90872674Y-108786958D01*
X91025097Y-108952534D01*
X91202698Y-109090767D01*
X91202699Y-109090768D01*
X91236734Y-109109187D01*
X91287123Y-109159201D01*
X91302475Y-109228518D01*
X91277913Y-109295130D01*
X91236734Y-109330813D01*
X91202699Y-109349231D01*
X91202698Y-109349232D01*
X91025097Y-109487465D01*
X90872674Y-109653041D01*
X90749580Y-109841451D01*
X90659179Y-110047543D01*
X90659176Y-110047550D01*
X90611455Y-110235999D01*
X90611456Y-110236000D01*
X91517297Y-110236000D01*
X91482075Y-110297007D01*
X91448000Y-110424174D01*
X91448000Y-110555826D01*
X91482075Y-110682993D01*
X91517297Y-110744000D01*
X90611455Y-110744000D01*
X90659176Y-110932449D01*
X90659179Y-110932456D01*
X90749580Y-111138548D01*
X90872674Y-111326958D01*
X91025097Y-111492534D01*
X91202698Y-111630767D01*
X91202699Y-111630768D01*
X91236734Y-111649187D01*
X91287123Y-111699201D01*
X91302475Y-111768518D01*
X91277913Y-111835130D01*
X91236734Y-111870813D01*
X91202699Y-111889231D01*
X91202698Y-111889232D01*
X91025097Y-112027465D01*
X90872674Y-112193041D01*
X90749580Y-112381451D01*
X90659179Y-112587543D01*
X90659176Y-112587550D01*
X90611455Y-112775999D01*
X90611456Y-112776000D01*
X91517297Y-112776000D01*
X91482075Y-112837007D01*
X91448000Y-112964174D01*
X91448000Y-113095826D01*
X91482075Y-113222993D01*
X91517297Y-113284000D01*
X90611455Y-113284000D01*
X90659176Y-113472449D01*
X90659179Y-113472456D01*
X90749580Y-113678548D01*
X90872674Y-113866958D01*
X91025097Y-114032534D01*
X91202698Y-114170767D01*
X91202699Y-114170768D01*
X91400628Y-114277882D01*
X91400630Y-114277883D01*
X91613483Y-114350955D01*
X91613492Y-114350957D01*
X91694000Y-114364391D01*
X91694000Y-113460702D01*
X91755007Y-113495925D01*
X91882174Y-113530000D01*
X92013826Y-113530000D01*
X92140993Y-113495925D01*
X92202000Y-113460702D01*
X92202000Y-114364390D01*
X92282507Y-114350957D01*
X92282516Y-114350955D01*
X92495369Y-114277883D01*
X92495371Y-114277882D01*
X92693300Y-114170768D01*
X92693301Y-114170767D01*
X92870902Y-114032534D01*
X93023327Y-113866955D01*
X93112217Y-113730899D01*
X93166220Y-113684810D01*
X93236568Y-113675235D01*
X93300925Y-113705212D01*
X93323183Y-113730898D01*
X93412279Y-113867270D01*
X93564762Y-114032908D01*
X93607148Y-114065898D01*
X93742424Y-114171189D01*
X93940426Y-114278342D01*
X93940427Y-114278342D01*
X93940428Y-114278343D01*
X94008282Y-114301637D01*
X94153365Y-114351444D01*
X94375431Y-114388500D01*
X94375435Y-114388500D01*
X94600565Y-114388500D01*
X94600569Y-114388500D01*
X94822635Y-114351444D01*
X95035574Y-114278342D01*
X95233576Y-114171189D01*
X95411240Y-114032906D01*
X95563722Y-113867268D01*
X95563927Y-113866955D01*
X95587466Y-113830925D01*
X95686860Y-113678791D01*
X95777296Y-113472616D01*
X95832564Y-113254368D01*
X95851156Y-113030000D01*
X95832564Y-112805632D01*
X95803112Y-112689329D01*
X95777297Y-112587387D01*
X95777296Y-112587386D01*
X95777296Y-112587384D01*
X95686860Y-112381209D01*
X95613417Y-112268796D01*
X95563724Y-112192734D01*
X95563720Y-112192729D01*
X95427079Y-112044300D01*
X95411240Y-112027094D01*
X95411239Y-112027093D01*
X95411237Y-112027091D01*
X95310419Y-111948621D01*
X95233576Y-111888811D01*
X95200319Y-111870813D01*
X95149929Y-111820802D01*
X95136462Y-111760000D01*
X100051496Y-111760000D01*
X100071457Y-111949927D01*
X100097672Y-112030606D01*
X100130473Y-112131556D01*
X100130476Y-112131561D01*
X100225958Y-112296941D01*
X100225965Y-112296951D01*
X100353744Y-112438864D01*
X100353747Y-112438866D01*
X100508248Y-112551118D01*
X100682712Y-112628794D01*
X100869513Y-112668500D01*
X101060487Y-112668500D01*
X101247288Y-112628794D01*
X101421752Y-112551118D01*
X101576253Y-112438866D01*
X101645379Y-112362094D01*
X101704034Y-112296951D01*
X101704035Y-112296949D01*
X101704040Y-112296944D01*
X101799527Y-112131556D01*
X101858542Y-111949928D01*
X101875907Y-111784704D01*
X101902920Y-111719049D01*
X101912113Y-111708790D01*
X104400904Y-109220000D01*
X134311835Y-109220000D01*
X134330465Y-109456711D01*
X134340806Y-109499784D01*
X134385894Y-109687592D01*
X134450997Y-109844764D01*
X134476760Y-109906963D01*
X134588865Y-110089901D01*
X134600825Y-110109417D01*
X134600826Y-110109419D01*
X134755030Y-110289969D01*
X134935580Y-110444173D01*
X134935584Y-110444176D01*
X135138037Y-110568240D01*
X135357406Y-110659105D01*
X135588289Y-110714535D01*
X135825000Y-110733165D01*
X136061711Y-110714535D01*
X136292594Y-110659105D01*
X136511963Y-110568240D01*
X136714416Y-110444176D01*
X136894969Y-110289969D01*
X136913178Y-110268649D01*
X140816500Y-110268649D01*
X140823009Y-110329196D01*
X140823011Y-110329204D01*
X140874110Y-110466202D01*
X140874112Y-110466207D01*
X140961738Y-110583261D01*
X141078792Y-110670887D01*
X141078794Y-110670888D01*
X141078796Y-110670889D01*
X141111248Y-110682993D01*
X141215795Y-110721988D01*
X141215803Y-110721990D01*
X141276350Y-110728499D01*
X141276355Y-110728499D01*
X141276362Y-110728500D01*
X141276368Y-110728500D01*
X143373632Y-110728500D01*
X143373638Y-110728500D01*
X143373645Y-110728499D01*
X143373649Y-110728499D01*
X143434196Y-110721990D01*
X143434199Y-110721989D01*
X143434201Y-110721989D01*
X143571204Y-110670889D01*
X143688261Y-110583261D01*
X143708799Y-110555826D01*
X143775887Y-110466207D01*
X143775887Y-110466206D01*
X143775889Y-110466204D01*
X143826989Y-110329201D01*
X143833500Y-110268638D01*
X143833500Y-108171362D01*
X143831207Y-108150030D01*
X143826990Y-108110803D01*
X143826988Y-108110795D01*
X143797924Y-108032875D01*
X143775889Y-107973796D01*
X143775888Y-107973794D01*
X143775887Y-107973792D01*
X143688261Y-107856738D01*
X143571207Y-107769112D01*
X143571202Y-107769110D01*
X143434204Y-107718011D01*
X143434196Y-107718009D01*
X143373649Y-107711500D01*
X143373638Y-107711500D01*
X141276362Y-107711500D01*
X141276350Y-107711500D01*
X141215803Y-107718009D01*
X141215795Y-107718011D01*
X141078797Y-107769110D01*
X141078792Y-107769112D01*
X140961738Y-107856738D01*
X140874112Y-107973792D01*
X140874110Y-107973797D01*
X140823011Y-108110795D01*
X140823009Y-108110803D01*
X140816500Y-108171350D01*
X140816500Y-110268649D01*
X136913178Y-110268649D01*
X137049176Y-110109416D01*
X137173240Y-109906963D01*
X137264105Y-109687594D01*
X137319535Y-109456711D01*
X137338165Y-109220000D01*
X137319535Y-108983289D01*
X137264105Y-108752406D01*
X137173240Y-108533037D01*
X137049176Y-108330584D01*
X137041470Y-108321561D01*
X136894969Y-108150030D01*
X136714419Y-107995826D01*
X136714417Y-107995825D01*
X136714416Y-107995824D01*
X136511963Y-107871760D01*
X136475697Y-107856738D01*
X136292592Y-107780894D01*
X136134651Y-107742976D01*
X136061711Y-107725465D01*
X135825000Y-107706835D01*
X135588289Y-107725465D01*
X135357407Y-107780894D01*
X135138038Y-107871759D01*
X134935582Y-107995825D01*
X134935580Y-107995826D01*
X134755030Y-108150030D01*
X134600826Y-108330580D01*
X134600825Y-108330582D01*
X134476759Y-108533038D01*
X134385894Y-108752407D01*
X134360424Y-108858500D01*
X134330465Y-108983289D01*
X134311835Y-109220000D01*
X104400904Y-109220000D01*
X105267072Y-108353833D01*
X105336401Y-108250075D01*
X105377840Y-108150031D01*
X105384155Y-108134785D01*
X105408500Y-108012394D01*
X105408500Y-106112524D01*
X105428502Y-106044403D01*
X105440858Y-106028220D01*
X105514040Y-105946944D01*
X105609527Y-105781556D01*
X105668542Y-105599928D01*
X105688504Y-105410000D01*
X105668542Y-105220072D01*
X105609527Y-105038444D01*
X105514040Y-104873056D01*
X105514038Y-104873054D01*
X105514034Y-104873048D01*
X105386255Y-104731135D01*
X105231752Y-104618882D01*
X105057288Y-104541206D01*
X104870487Y-104501500D01*
X104679513Y-104501500D01*
X104492711Y-104541206D01*
X104318247Y-104618882D01*
X104163744Y-104731135D01*
X104035965Y-104873048D01*
X104035958Y-104873058D01*
X103940476Y-105038438D01*
X103940473Y-105038445D01*
X103881457Y-105220072D01*
X103861496Y-105410000D01*
X103881457Y-105599927D01*
X103892648Y-105634368D01*
X103940473Y-105781556D01*
X104035960Y-105946944D01*
X104109137Y-106028215D01*
X104139853Y-106092220D01*
X104141500Y-106112524D01*
X104141500Y-107635405D01*
X104121498Y-107703526D01*
X104104595Y-107724500D01*
X101014501Y-110814595D01*
X100952189Y-110848621D01*
X100925406Y-110851500D01*
X100869513Y-110851500D01*
X100682711Y-110891206D01*
X100508247Y-110968882D01*
X100353744Y-111081135D01*
X100225965Y-111223048D01*
X100225958Y-111223058D01*
X100130476Y-111388438D01*
X100130473Y-111388445D01*
X100071457Y-111570072D01*
X100051496Y-111760000D01*
X95136462Y-111760000D01*
X95134576Y-111751485D01*
X95159136Y-111684872D01*
X95200320Y-111649186D01*
X95233576Y-111631189D01*
X95411240Y-111492906D01*
X95563722Y-111327268D01*
X95563927Y-111326955D01*
X95570441Y-111316983D01*
X95686860Y-111138791D01*
X95777296Y-110932616D01*
X95832564Y-110714368D01*
X95851156Y-110490000D01*
X95832564Y-110265632D01*
X95804817Y-110156062D01*
X95807484Y-110085118D01*
X95837864Y-110036038D01*
X96155072Y-109718832D01*
X96224401Y-109615074D01*
X96272156Y-109499784D01*
X96296501Y-109377393D01*
X96296501Y-109252606D01*
X96296501Y-105410000D01*
X100051496Y-105410000D01*
X100071457Y-105599927D01*
X100082648Y-105634368D01*
X100130473Y-105781556D01*
X100130476Y-105781561D01*
X100225958Y-105946941D01*
X100225965Y-105946951D01*
X100353744Y-106088864D01*
X100353747Y-106088866D01*
X100508248Y-106201118D01*
X100682712Y-106278794D01*
X100869513Y-106318500D01*
X101060487Y-106318500D01*
X101247288Y-106278794D01*
X101421752Y-106201118D01*
X101576253Y-106088866D01*
X101603333Y-106058791D01*
X101704034Y-105946951D01*
X101704035Y-105946949D01*
X101704040Y-105946944D01*
X101799527Y-105781556D01*
X101858542Y-105599928D01*
X101875907Y-105434704D01*
X101902920Y-105369049D01*
X101912113Y-105358790D01*
X105267072Y-102003833D01*
X105336401Y-101900075D01*
X105370168Y-101818552D01*
X105384155Y-101784785D01*
X105408500Y-101662394D01*
X105408500Y-100397524D01*
X105428502Y-100329403D01*
X105440858Y-100313220D01*
X105514040Y-100231944D01*
X105609527Y-100066556D01*
X105668542Y-99884928D01*
X105688504Y-99695000D01*
X105668542Y-99505072D01*
X105609527Y-99323444D01*
X105514040Y-99158056D01*
X105501664Y-99144311D01*
X105470946Y-99080306D01*
X105479708Y-99009852D01*
X105501663Y-98975689D01*
X105514040Y-98961944D01*
X105609527Y-98796556D01*
X105668542Y-98614928D01*
X105688504Y-98425000D01*
X105668542Y-98235072D01*
X105609527Y-98053444D01*
X105514040Y-97888056D01*
X105514038Y-97888054D01*
X105514034Y-97888048D01*
X105386255Y-97746135D01*
X105231752Y-97633882D01*
X105057288Y-97556206D01*
X104870487Y-97516500D01*
X104679513Y-97516500D01*
X104492711Y-97556206D01*
X104318247Y-97633882D01*
X104163744Y-97746135D01*
X104035965Y-97888048D01*
X104035958Y-97888058D01*
X103940476Y-98053438D01*
X103940473Y-98053445D01*
X103881457Y-98235072D01*
X103864092Y-98400292D01*
X103837079Y-98465949D01*
X103827877Y-98476216D01*
X101014499Y-101289596D01*
X100952189Y-101323620D01*
X100925406Y-101326500D01*
X100869513Y-101326500D01*
X100682711Y-101366206D01*
X100508247Y-101443882D01*
X100353744Y-101556135D01*
X100225965Y-101698048D01*
X100225958Y-101698058D01*
X100130476Y-101863438D01*
X100130473Y-101863444D01*
X100118571Y-101900075D01*
X100071457Y-102045072D01*
X100051496Y-102235000D01*
X100071457Y-102424927D01*
X100098612Y-102508500D01*
X100130473Y-102606556D01*
X100130476Y-102606561D01*
X100225958Y-102771941D01*
X100225965Y-102771951D01*
X100353744Y-102913864D01*
X100353747Y-102913866D01*
X100508248Y-103026118D01*
X100682712Y-103103794D01*
X100869513Y-103143500D01*
X101060487Y-103143500D01*
X101247288Y-103103794D01*
X101421752Y-103026118D01*
X101576253Y-102913866D01*
X101704040Y-102771944D01*
X101799527Y-102606556D01*
X101858542Y-102424928D01*
X101875907Y-102259704D01*
X101902920Y-102194049D01*
X101912113Y-102183790D01*
X103860581Y-100235321D01*
X103922891Y-100201298D01*
X103993706Y-100206362D01*
X104043310Y-100240107D01*
X104109137Y-100313215D01*
X104139853Y-100377220D01*
X104141500Y-100397524D01*
X104141500Y-101285405D01*
X104121498Y-101353526D01*
X104104595Y-101374500D01*
X101014501Y-104464595D01*
X100952189Y-104498621D01*
X100925406Y-104501500D01*
X100869513Y-104501500D01*
X100682711Y-104541206D01*
X100508247Y-104618882D01*
X100353744Y-104731135D01*
X100225965Y-104873048D01*
X100225958Y-104873058D01*
X100130476Y-105038438D01*
X100130473Y-105038445D01*
X100071457Y-105220072D01*
X100051496Y-105410000D01*
X96296501Y-105410000D01*
X96296501Y-101501592D01*
X96316503Y-101433471D01*
X96333401Y-101412502D01*
X100116405Y-97629497D01*
X100178717Y-97595472D01*
X100249532Y-97600537D01*
X100306368Y-97643084D01*
X100331179Y-97709604D01*
X100331500Y-97718593D01*
X100331500Y-98357474D01*
X100311498Y-98425595D01*
X100299137Y-98441784D01*
X100225957Y-98523059D01*
X100130476Y-98688438D01*
X100130473Y-98688445D01*
X100071457Y-98870072D01*
X100051496Y-99060000D01*
X100071457Y-99249927D01*
X100101526Y-99342470D01*
X100130473Y-99431556D01*
X100158841Y-99480691D01*
X100225958Y-99596941D01*
X100225965Y-99596951D01*
X100353744Y-99738864D01*
X100353747Y-99738866D01*
X100508248Y-99851118D01*
X100682712Y-99928794D01*
X100869513Y-99968500D01*
X101060487Y-99968500D01*
X101247288Y-99928794D01*
X101421752Y-99851118D01*
X101576253Y-99738866D01*
X101651959Y-99654786D01*
X101704034Y-99596951D01*
X101704035Y-99596949D01*
X101704040Y-99596944D01*
X101799527Y-99431556D01*
X101858542Y-99249928D01*
X101878504Y-99060000D01*
X101858542Y-98870072D01*
X101799527Y-98688444D01*
X101704040Y-98523056D01*
X101630863Y-98441784D01*
X101600146Y-98377776D01*
X101598500Y-98357474D01*
X101598500Y-97824626D01*
X101618502Y-97756505D01*
X101635405Y-97735531D01*
X104725500Y-94645437D01*
X104787812Y-94611411D01*
X104814595Y-94608532D01*
X104870487Y-94608532D01*
X105057288Y-94568826D01*
X105231752Y-94491150D01*
X105386253Y-94378898D01*
X105386255Y-94378896D01*
X105514034Y-94236983D01*
X105514035Y-94236981D01*
X105514040Y-94236976D01*
X105609527Y-94071588D01*
X105668542Y-93889960D01*
X105688504Y-93700032D01*
X105668542Y-93510104D01*
X105609527Y-93328476D01*
X105514040Y-93163088D01*
X105514038Y-93163086D01*
X105514034Y-93163080D01*
X105386255Y-93021167D01*
X105231752Y-92908914D01*
X105135630Y-92866118D01*
X105126083Y-92861867D01*
X105071988Y-92815888D01*
X105051339Y-92747961D01*
X105070691Y-92679652D01*
X105088238Y-92657665D01*
X105225904Y-92520000D01*
X105381500Y-92364404D01*
X105443812Y-92330379D01*
X105470595Y-92327500D01*
X119255500Y-92327500D01*
X119323621Y-92347502D01*
X119370114Y-92401158D01*
X119381500Y-92453500D01*
X119381500Y-107247474D01*
X119361498Y-107315595D01*
X119349137Y-107331784D01*
X119275957Y-107413059D01*
X119180476Y-107578438D01*
X119180473Y-107578445D01*
X119121457Y-107760072D01*
X119101496Y-107950000D01*
X119121457Y-108139927D01*
X119131673Y-108171367D01*
X119180473Y-108321556D01*
X119180476Y-108321561D01*
X119275958Y-108486941D01*
X119275965Y-108486951D01*
X119403744Y-108628864D01*
X119403747Y-108628866D01*
X119558248Y-108741118D01*
X119732712Y-108818794D01*
X119919513Y-108858500D01*
X120110487Y-108858500D01*
X120297288Y-108818794D01*
X120471752Y-108741118D01*
X120626253Y-108628866D01*
X120653333Y-108598791D01*
X120754034Y-108486951D01*
X120754035Y-108486949D01*
X120754040Y-108486944D01*
X120849527Y-108321556D01*
X120908542Y-108139928D01*
X120928504Y-107950000D01*
X120908542Y-107760072D01*
X120849527Y-107578444D01*
X120754040Y-107413056D01*
X120680863Y-107331784D01*
X120650146Y-107267776D01*
X120648500Y-107247474D01*
X120648500Y-92389594D01*
X120668502Y-92321473D01*
X120685405Y-92300499D01*
X124246405Y-88739499D01*
X124308717Y-88705473D01*
X124379532Y-88710538D01*
X124436368Y-88753085D01*
X124461179Y-88819605D01*
X124461500Y-88828594D01*
X124461500Y-95956406D01*
X124441498Y-96024527D01*
X124387842Y-96071020D01*
X124317568Y-96081124D01*
X124252988Y-96051630D01*
X124246405Y-96045501D01*
X123502122Y-95301218D01*
X123468096Y-95238906D01*
X123465907Y-95225293D01*
X123465787Y-95224155D01*
X123448542Y-95060072D01*
X123389527Y-94878444D01*
X123294040Y-94713056D01*
X123294038Y-94713054D01*
X123294034Y-94713048D01*
X123166255Y-94571135D01*
X123011752Y-94458882D01*
X122837288Y-94381206D01*
X122650487Y-94341500D01*
X122459513Y-94341500D01*
X122272711Y-94381206D01*
X122098247Y-94458882D01*
X121943744Y-94571135D01*
X121815965Y-94713048D01*
X121815958Y-94713058D01*
X121724259Y-94871886D01*
X121720473Y-94878444D01*
X121708250Y-94916063D01*
X121661457Y-95060072D01*
X121641496Y-95250000D01*
X121661457Y-95439927D01*
X121671523Y-95470905D01*
X121720473Y-95621556D01*
X121720476Y-95621561D01*
X121815958Y-95786941D01*
X121815965Y-95786951D01*
X121943744Y-95928864D01*
X121943747Y-95928866D01*
X122098248Y-96041118D01*
X122272712Y-96118794D01*
X122459513Y-96158500D01*
X122515406Y-96158500D01*
X122583527Y-96178502D01*
X122604501Y-96195405D01*
X123699594Y-97290498D01*
X123733620Y-97352810D01*
X123736499Y-97379593D01*
X123736499Y-104550397D01*
X123741004Y-104573044D01*
X123760844Y-104672786D01*
X123808599Y-104788076D01*
X123877928Y-104891834D01*
X124343166Y-105357073D01*
X124446924Y-105426402D01*
X124528446Y-105460169D01*
X124562214Y-105474156D01*
X124684605Y-105498501D01*
X124684606Y-105498501D01*
X125633075Y-105498501D01*
X125633076Y-105498501D01*
X125755467Y-105474156D01*
X125870757Y-105426401D01*
X125974515Y-105357072D01*
X130032070Y-101299518D01*
X130101399Y-101195760D01*
X130149153Y-101080469D01*
X130157482Y-101038599D01*
X130160079Y-101025540D01*
X130190022Y-100965805D01*
X130279038Y-100866944D01*
X130374525Y-100701556D01*
X130433540Y-100519928D01*
X130453502Y-100330000D01*
X130433540Y-100140072D01*
X130374525Y-99958444D01*
X130279038Y-99793056D01*
X130279036Y-99793054D01*
X130279032Y-99793048D01*
X130151253Y-99651135D01*
X129996750Y-99538882D01*
X129822286Y-99461206D01*
X129635485Y-99421500D01*
X129444511Y-99421500D01*
X129257709Y-99461206D01*
X129083245Y-99538882D01*
X128928742Y-99651135D01*
X128800963Y-99793048D01*
X128800956Y-99793058D01*
X128722590Y-99928793D01*
X128705471Y-99958444D01*
X128701976Y-99969201D01*
X128646455Y-100140072D01*
X128626494Y-100330000D01*
X128646455Y-100519927D01*
X128705471Y-100701557D01*
X128705716Y-100701980D01*
X128705783Y-100702259D01*
X128708159Y-100707595D01*
X128707183Y-100708029D01*
X128722458Y-100770974D01*
X128699241Y-100838068D01*
X128685695Y-100854081D01*
X125976577Y-103563200D01*
X125914265Y-103597226D01*
X125843450Y-103592161D01*
X125793845Y-103558414D01*
X125760863Y-103521783D01*
X125730146Y-103457776D01*
X125728500Y-103437474D01*
X125728500Y-102634500D01*
X125748502Y-102566379D01*
X125802158Y-102519886D01*
X125854500Y-102508500D01*
X125915497Y-102508500D01*
X126102298Y-102468794D01*
X126276762Y-102391118D01*
X126431263Y-102278866D01*
X126506969Y-102194786D01*
X126559044Y-102136951D01*
X126559045Y-102136949D01*
X126559050Y-102136944D01*
X126654537Y-101971556D01*
X126713552Y-101789928D01*
X126733514Y-101600000D01*
X126713552Y-101410072D01*
X126654537Y-101228444D01*
X126590879Y-101118185D01*
X126559052Y-101063059D01*
X126559051Y-101063058D01*
X126559050Y-101063056D01*
X126485873Y-100981784D01*
X126455156Y-100917776D01*
X126453510Y-100897474D01*
X126453510Y-87857404D01*
X126473512Y-87789283D01*
X126490415Y-87768309D01*
X129133320Y-85125405D01*
X129195632Y-85091379D01*
X129222415Y-85088500D01*
X132777393Y-85088500D01*
X132777394Y-85088500D01*
X132899785Y-85064155D01*
X133015075Y-85016400D01*
X133118833Y-84947071D01*
X134035481Y-84030424D01*
X134097793Y-83996399D01*
X134124576Y-83993520D01*
X137689975Y-83993520D01*
X137758096Y-84013522D01*
X137804589Y-84067178D01*
X137814693Y-84137452D01*
X137785199Y-84202032D01*
X137779070Y-84208615D01*
X129331679Y-92656006D01*
X129308033Y-92679652D01*
X129243442Y-92744242D01*
X129243439Y-92744245D01*
X129215927Y-92785419D01*
X129185227Y-92817349D01*
X129124259Y-92861645D01*
X128996474Y-93003565D01*
X128996473Y-93003567D01*
X128911360Y-93150985D01*
X128859977Y-93199978D01*
X128790263Y-93213413D01*
X128732772Y-93191657D01*
X128732469Y-93192183D01*
X128729248Y-93190323D01*
X128728178Y-93189918D01*
X128726752Y-93188882D01*
X128552288Y-93111206D01*
X128365487Y-93071500D01*
X128174513Y-93071500D01*
X127987711Y-93111206D01*
X127813247Y-93188882D01*
X127658744Y-93301135D01*
X127530965Y-93443048D01*
X127530958Y-93443058D01*
X127435476Y-93608438D01*
X127435473Y-93608445D01*
X127376457Y-93790072D01*
X127356496Y-93980000D01*
X127376457Y-94169927D01*
X127406526Y-94262470D01*
X127435473Y-94351556D01*
X127463841Y-94400691D01*
X127530958Y-94516941D01*
X127530965Y-94516951D01*
X127658744Y-94658864D01*
X127658747Y-94658866D01*
X127813248Y-94771118D01*
X127987712Y-94848794D01*
X128174513Y-94888500D01*
X128230405Y-94888500D01*
X128298526Y-94908502D01*
X128319500Y-94925405D01*
X128501167Y-95107072D01*
X128604925Y-95176401D01*
X128686447Y-95210168D01*
X128720215Y-95224155D01*
X128842606Y-95248500D01*
X128842607Y-95248500D01*
X130872393Y-95248500D01*
X130872394Y-95248500D01*
X130994785Y-95224155D01*
X131110075Y-95176400D01*
X131213833Y-95107071D01*
X133935499Y-92385405D01*
X133997811Y-92351379D01*
X134024594Y-92348500D01*
X134080487Y-92348500D01*
X134267288Y-92308794D01*
X134441752Y-92231118D01*
X134596253Y-92118866D01*
X134695419Y-92008731D01*
X134724034Y-91976951D01*
X134724035Y-91976949D01*
X134724040Y-91976944D01*
X134819527Y-91811556D01*
X134878542Y-91629928D01*
X134898504Y-91440000D01*
X134878542Y-91250072D01*
X134819527Y-91068444D01*
X134724040Y-90903056D01*
X134724038Y-90903054D01*
X134724034Y-90903048D01*
X134596255Y-90761135D01*
X134441752Y-90648882D01*
X134267284Y-90571204D01*
X134145766Y-90545374D01*
X134083293Y-90511646D01*
X134048972Y-90449496D01*
X134053700Y-90378657D01*
X134082867Y-90333035D01*
X139290499Y-85125405D01*
X139352811Y-85091379D01*
X139379594Y-85088500D01*
X146611814Y-85088500D01*
X146679935Y-85108502D01*
X146705451Y-85130190D01*
X146708761Y-85133866D01*
X146863262Y-85246118D01*
X147037726Y-85323794D01*
X147224527Y-85363500D01*
X147415501Y-85363500D01*
X147602302Y-85323794D01*
X147776766Y-85246118D01*
X147931267Y-85133866D01*
X147934577Y-85130190D01*
X148059048Y-84991951D01*
X148059049Y-84991949D01*
X148059054Y-84991944D01*
X148154541Y-84826556D01*
X148213556Y-84644928D01*
X148233518Y-84455000D01*
X148213556Y-84265072D01*
X148154541Y-84083444D01*
X148059054Y-83918056D01*
X148046670Y-83904302D01*
X148015953Y-83840297D01*
X148024716Y-83769843D01*
X148046669Y-83735682D01*
X148059040Y-83721944D01*
X148120053Y-83616265D01*
X148171435Y-83567273D01*
X148241149Y-83553837D01*
X148307060Y-83580223D01*
X148318259Y-83590163D01*
X149189596Y-84461499D01*
X149223620Y-84523810D01*
X149226500Y-84550593D01*
X149226500Y-93277474D01*
X149206498Y-93345595D01*
X149194137Y-93361784D01*
X149120957Y-93443059D01*
X149025476Y-93608438D01*
X149025473Y-93608445D01*
X148966457Y-93790072D01*
X148946496Y-93980000D01*
X148966457Y-94169927D01*
X148996526Y-94262470D01*
X149025473Y-94351556D01*
X149053841Y-94400691D01*
X149120958Y-94516941D01*
X149120965Y-94516951D01*
X149248744Y-94658864D01*
X149248747Y-94658866D01*
X149403248Y-94771118D01*
X149577712Y-94848794D01*
X149699231Y-94874623D01*
X149761704Y-94908351D01*
X149796026Y-94970501D01*
X149791298Y-95041340D01*
X149762129Y-95086965D01*
X146734501Y-98114595D01*
X146672189Y-98148620D01*
X146645406Y-98151500D01*
X146589513Y-98151500D01*
X146402711Y-98191206D01*
X146228247Y-98268882D01*
X146073744Y-98381135D01*
X145945965Y-98523048D01*
X145945958Y-98523058D01*
X145850476Y-98688438D01*
X145850473Y-98688445D01*
X145791457Y-98870072D01*
X145771496Y-99060000D01*
X145791457Y-99249927D01*
X145821526Y-99342470D01*
X145850473Y-99431556D01*
X145878841Y-99480691D01*
X145945958Y-99596941D01*
X145945965Y-99596951D01*
X146073744Y-99738864D01*
X146073747Y-99738866D01*
X146228248Y-99851118D01*
X146402712Y-99928794D01*
X146589513Y-99968500D01*
X146780487Y-99968500D01*
X146967288Y-99928794D01*
X147141752Y-99851118D01*
X147296253Y-99738866D01*
X147371959Y-99654786D01*
X147424034Y-99596951D01*
X147424035Y-99596949D01*
X147424040Y-99596944D01*
X147519527Y-99431556D01*
X147578542Y-99249928D01*
X147595907Y-99084703D01*
X147622920Y-99019048D01*
X147632113Y-99008789D01*
X153456407Y-93184496D01*
X153518717Y-93150472D01*
X153589532Y-93155537D01*
X153646368Y-93198084D01*
X153671179Y-93264604D01*
X153671500Y-93273593D01*
X153671500Y-111880500D01*
X153651498Y-111948621D01*
X153597842Y-111995114D01*
X153545500Y-112006500D01*
X153406350Y-112006500D01*
X153345803Y-112013009D01*
X153345795Y-112013011D01*
X153208797Y-112064110D01*
X153208792Y-112064112D01*
X153091738Y-112151738D01*
X153004112Y-112268792D01*
X153004110Y-112268797D01*
X152953011Y-112405795D01*
X152953009Y-112405803D01*
X152946500Y-112466350D01*
X152946500Y-114263649D01*
X152953009Y-114324196D01*
X152953011Y-114324204D01*
X153004110Y-114461202D01*
X153004112Y-114461207D01*
X153091738Y-114578261D01*
X153208792Y-114665887D01*
X153208794Y-114665888D01*
X153208796Y-114665889D01*
X153262600Y-114685957D01*
X153345795Y-114716988D01*
X153345803Y-114716990D01*
X153406350Y-114723499D01*
X153406355Y-114723499D01*
X153406362Y-114723500D01*
X153406368Y-114723500D01*
X155203632Y-114723500D01*
X155203638Y-114723500D01*
X155203645Y-114723499D01*
X155203649Y-114723499D01*
X155264196Y-114716990D01*
X155264199Y-114716989D01*
X155264201Y-114716989D01*
X155401204Y-114665889D01*
X155471399Y-114613342D01*
X155518261Y-114578261D01*
X155605886Y-114461208D01*
X155605885Y-114461208D01*
X155605889Y-114461204D01*
X155649999Y-114342939D01*
X155692545Y-114286107D01*
X155759066Y-114261296D01*
X155828440Y-114276388D01*
X155860753Y-114301635D01*
X155906157Y-114350957D01*
X155921762Y-114367908D01*
X155948219Y-114388500D01*
X156099424Y-114506189D01*
X156297426Y-114613342D01*
X156297427Y-114613342D01*
X156297428Y-114613343D01*
X156409227Y-114651723D01*
X156510365Y-114686444D01*
X156732431Y-114723500D01*
X156732435Y-114723500D01*
X156957565Y-114723500D01*
X156957569Y-114723500D01*
X157179635Y-114686444D01*
X157392574Y-114613342D01*
X157590576Y-114506189D01*
X157768240Y-114367906D01*
X157920722Y-114202268D01*
X158009518Y-114066354D01*
X158063520Y-114020268D01*
X158133868Y-114010692D01*
X158198225Y-114040669D01*
X158220480Y-114066353D01*
X158253607Y-114117058D01*
X158309275Y-114202265D01*
X158309279Y-114202270D01*
X158461762Y-114367908D01*
X158488219Y-114388500D01*
X158639424Y-114506189D01*
X158837426Y-114613342D01*
X158837427Y-114613342D01*
X158837428Y-114613343D01*
X158949227Y-114651723D01*
X159050365Y-114686444D01*
X159272431Y-114723500D01*
X159272435Y-114723500D01*
X159497565Y-114723500D01*
X159497569Y-114723500D01*
X159719635Y-114686444D01*
X159932574Y-114613342D01*
X160130576Y-114506189D01*
X160308240Y-114367906D01*
X160460722Y-114202268D01*
X160549816Y-114065898D01*
X160603819Y-114019810D01*
X160674167Y-114010235D01*
X160738524Y-114040212D01*
X160760782Y-114065898D01*
X160849674Y-114201958D01*
X161002097Y-114367534D01*
X161179698Y-114505767D01*
X161179699Y-114505768D01*
X161377628Y-114612882D01*
X161377630Y-114612883D01*
X161590483Y-114685955D01*
X161590492Y-114685957D01*
X161671000Y-114699391D01*
X161671000Y-113795702D01*
X161732007Y-113830925D01*
X161859174Y-113865000D01*
X161990826Y-113865000D01*
X162117993Y-113830925D01*
X162179000Y-113795702D01*
X162179000Y-114699390D01*
X162259507Y-114685957D01*
X162259516Y-114685955D01*
X162472369Y-114612883D01*
X162472371Y-114612882D01*
X162670300Y-114505768D01*
X162670301Y-114505767D01*
X162847902Y-114367534D01*
X163000325Y-114201958D01*
X163123419Y-114013548D01*
X163213820Y-113807456D01*
X163213823Y-113807449D01*
X163261544Y-113619000D01*
X162355703Y-113619000D01*
X162390925Y-113557993D01*
X162425000Y-113430826D01*
X162425000Y-113299174D01*
X162390925Y-113172007D01*
X162355703Y-113111000D01*
X163261544Y-113111000D01*
X163261544Y-113110999D01*
X163213823Y-112922550D01*
X163213820Y-112922543D01*
X163123419Y-112716451D01*
X163000325Y-112528041D01*
X162847902Y-112362465D01*
X162670301Y-112224232D01*
X162670300Y-112224231D01*
X162472371Y-112117117D01*
X162472369Y-112117116D01*
X162259512Y-112044043D01*
X162259501Y-112044040D01*
X162179000Y-112030606D01*
X162179000Y-112934297D01*
X162117993Y-112899075D01*
X161990826Y-112865000D01*
X161859174Y-112865000D01*
X161732007Y-112899075D01*
X161671000Y-112934297D01*
X161671000Y-112030607D01*
X161670999Y-112030606D01*
X161590498Y-112044040D01*
X161590487Y-112044043D01*
X161377630Y-112117116D01*
X161377628Y-112117117D01*
X161179699Y-112224231D01*
X161179698Y-112224232D01*
X161002097Y-112362465D01*
X160849670Y-112528045D01*
X160760780Y-112664101D01*
X160706776Y-112710189D01*
X160636428Y-112719764D01*
X160572071Y-112689786D01*
X160549816Y-112664101D01*
X160499803Y-112587550D01*
X160460724Y-112527734D01*
X160460720Y-112527729D01*
X160329109Y-112384764D01*
X160308240Y-112362094D01*
X160308239Y-112362093D01*
X160308237Y-112362091D01*
X160188367Y-112268792D01*
X160130576Y-112223811D01*
X159932574Y-112116658D01*
X159932572Y-112116657D01*
X159932571Y-112116656D01*
X159719639Y-112043557D01*
X159719630Y-112043555D01*
X159642029Y-112030606D01*
X159497569Y-112006500D01*
X159272431Y-112006500D01*
X159146794Y-112027465D01*
X159050369Y-112043555D01*
X159050360Y-112043557D01*
X158837428Y-112116656D01*
X158837426Y-112116658D01*
X158696850Y-112192734D01*
X158639426Y-112223810D01*
X158639424Y-112223811D01*
X158461762Y-112362091D01*
X158309279Y-112527729D01*
X158220483Y-112663643D01*
X158166479Y-112709731D01*
X158096131Y-112719306D01*
X158031774Y-112689329D01*
X158009517Y-112663643D01*
X157959798Y-112587543D01*
X157920722Y-112527732D01*
X157920721Y-112527731D01*
X157920720Y-112527729D01*
X157789109Y-112384764D01*
X157768240Y-112362094D01*
X157768239Y-112362093D01*
X157768237Y-112362091D01*
X157648367Y-112268792D01*
X157590576Y-112223811D01*
X157392574Y-112116658D01*
X157392572Y-112116657D01*
X157392571Y-112116656D01*
X157179639Y-112043557D01*
X157179630Y-112043555D01*
X157102029Y-112030606D01*
X156957569Y-112006500D01*
X156732431Y-112006500D01*
X156609035Y-112027091D01*
X156510356Y-112043557D01*
X156507227Y-112044350D01*
X156505905Y-112044300D01*
X156505224Y-112044414D01*
X156505200Y-112044273D01*
X156436281Y-112041681D01*
X156387204Y-112011300D01*
X155610405Y-111234501D01*
X155576379Y-111172189D01*
X155573500Y-111145406D01*
X155573500Y-102130004D01*
X159447308Y-102130004D01*
X159466052Y-102404048D01*
X159466053Y-102404054D01*
X159521942Y-102673011D01*
X159521944Y-102673019D01*
X159613938Y-102931865D01*
X159740314Y-103175756D01*
X159740316Y-103175759D01*
X159870541Y-103360248D01*
X160485532Y-102745256D01*
X160582829Y-102879175D01*
X160710825Y-103007171D01*
X160844741Y-103104466D01*
X160230715Y-103718492D01*
X160230715Y-103718494D01*
X160299313Y-103774304D01*
X160299318Y-103774307D01*
X160534030Y-103917038D01*
X160785989Y-104026480D01*
X161050509Y-104100595D01*
X161322635Y-104137999D01*
X161322649Y-104138000D01*
X161597351Y-104138000D01*
X161597364Y-104137999D01*
X161869490Y-104100595D01*
X162134010Y-104026480D01*
X162385969Y-103917038D01*
X162620679Y-103774309D01*
X162689283Y-103718493D01*
X162689283Y-103718492D01*
X162075257Y-103104466D01*
X162209175Y-103007171D01*
X162337171Y-102879175D01*
X162434467Y-102745257D01*
X163049457Y-103360247D01*
X163179682Y-103175762D01*
X163179685Y-103175756D01*
X163306061Y-102931865D01*
X163398055Y-102673019D01*
X163398057Y-102673011D01*
X163453946Y-102404054D01*
X163453947Y-102404048D01*
X163472692Y-102130004D01*
X163472692Y-102129995D01*
X163453947Y-101855951D01*
X163453946Y-101855945D01*
X163398057Y-101586988D01*
X163398055Y-101586980D01*
X163306061Y-101328134D01*
X163179685Y-101084243D01*
X163179681Y-101084237D01*
X163049457Y-100899750D01*
X162434466Y-101514741D01*
X162337171Y-101380825D01*
X162209175Y-101252829D01*
X162075256Y-101155532D01*
X162689283Y-100541504D01*
X162620680Y-100485691D01*
X162385969Y-100342961D01*
X162134010Y-100233519D01*
X161869490Y-100159404D01*
X161597364Y-100122000D01*
X161322635Y-100122000D01*
X161050509Y-100159404D01*
X160785989Y-100233519D01*
X160534030Y-100342961D01*
X160299325Y-100485687D01*
X160230715Y-100541505D01*
X160230714Y-100541505D01*
X160844742Y-101155533D01*
X160710825Y-101252829D01*
X160582829Y-101380825D01*
X160485533Y-101514742D01*
X159870541Y-100899750D01*
X159740317Y-101084236D01*
X159613938Y-101328134D01*
X159521944Y-101586980D01*
X159521942Y-101586988D01*
X159466053Y-101855945D01*
X159466052Y-101855951D01*
X159447308Y-102129995D01*
X159447308Y-102130004D01*
X155573500Y-102130004D01*
X155573500Y-96560000D01*
X157436502Y-96560000D01*
X157456457Y-96788086D01*
X157515715Y-97009240D01*
X157515717Y-97009246D01*
X157612477Y-97216749D01*
X157743799Y-97404296D01*
X157743804Y-97404302D01*
X157889139Y-97549637D01*
X157923165Y-97611949D01*
X157918100Y-97682764D01*
X157875553Y-97739600D01*
X157844078Y-97756787D01*
X157703795Y-97809111D01*
X157703792Y-97809112D01*
X157586738Y-97896738D01*
X157499112Y-98013792D01*
X157499110Y-98013797D01*
X157448011Y-98150795D01*
X157448009Y-98150803D01*
X157441500Y-98211350D01*
X157441500Y-99908649D01*
X157448009Y-99969196D01*
X157448011Y-99969204D01*
X157499110Y-100106202D01*
X157499112Y-100106207D01*
X157586738Y-100223261D01*
X157703792Y-100310887D01*
X157703794Y-100310888D01*
X157703796Y-100310889D01*
X157755034Y-100330000D01*
X157840795Y-100361988D01*
X157840803Y-100361990D01*
X157901350Y-100368499D01*
X157901355Y-100368499D01*
X157901362Y-100368500D01*
X157901368Y-100368500D01*
X159598632Y-100368500D01*
X159598638Y-100368500D01*
X159598645Y-100368499D01*
X159598649Y-100368499D01*
X159659196Y-100361990D01*
X159659199Y-100361989D01*
X159659201Y-100361989D01*
X159796204Y-100310889D01*
X159890758Y-100240107D01*
X159913261Y-100223261D01*
X160000887Y-100106207D01*
X160000887Y-100106206D01*
X160000889Y-100106204D01*
X160051989Y-99969201D01*
X160052065Y-99968500D01*
X160058499Y-99908649D01*
X160058500Y-99908632D01*
X160058500Y-98211367D01*
X160058499Y-98211350D01*
X160051990Y-98150803D01*
X160051988Y-98150795D01*
X160015675Y-98053438D01*
X160000889Y-98013796D01*
X160000888Y-98013794D01*
X160000887Y-98013792D01*
X159913261Y-97896738D01*
X159796207Y-97809112D01*
X159796202Y-97809110D01*
X159655922Y-97756787D01*
X159599086Y-97714240D01*
X159574276Y-97647720D01*
X159589368Y-97578346D01*
X159610854Y-97549643D01*
X159756198Y-97404300D01*
X159887523Y-97216749D01*
X159984284Y-97009243D01*
X160043543Y-96788087D01*
X160063498Y-96560000D01*
X160043543Y-96331913D01*
X159984284Y-96110757D01*
X159887523Y-95903251D01*
X159756198Y-95715700D01*
X159689593Y-95649095D01*
X159655567Y-95586783D01*
X159660632Y-95515968D01*
X159689593Y-95470905D01*
X159720571Y-95439927D01*
X159756198Y-95404300D01*
X159887523Y-95216749D01*
X159984284Y-95009243D01*
X160043543Y-94788087D01*
X160063498Y-94560000D01*
X160043543Y-94331913D01*
X159984284Y-94110757D01*
X159887523Y-93903251D01*
X159756198Y-93715700D01*
X159594300Y-93553802D01*
X159594296Y-93553799D01*
X159406746Y-93422474D01*
X159401985Y-93419726D01*
X159403023Y-93417927D01*
X159356532Y-93376963D01*
X159337095Y-93308679D01*
X159357661Y-93240726D01*
X159402782Y-93201664D01*
X159401730Y-93199841D01*
X159406496Y-93197088D01*
X159477888Y-93147099D01*
X159477888Y-93147097D01*
X158842289Y-92511498D01*
X158927553Y-92488651D01*
X159032446Y-92428091D01*
X159118091Y-92342446D01*
X159178651Y-92237553D01*
X159201498Y-92152289D01*
X159837097Y-92787888D01*
X159837099Y-92787888D01*
X159887088Y-92716497D01*
X159983811Y-92509073D01*
X159983813Y-92509068D01*
X160043048Y-92288002D01*
X160062995Y-92060000D01*
X160043048Y-91831997D01*
X159983813Y-91610931D01*
X159983811Y-91610926D01*
X159887086Y-91403498D01*
X159837100Y-91332110D01*
X159837098Y-91332110D01*
X159201497Y-91967710D01*
X159178651Y-91882447D01*
X159118091Y-91777554D01*
X159032446Y-91691909D01*
X158927553Y-91631349D01*
X158842287Y-91608501D01*
X159477888Y-90972899D01*
X159477888Y-90972898D01*
X159406501Y-90922913D01*
X159199073Y-90826188D01*
X159199068Y-90826186D01*
X158978000Y-90766951D01*
X158978004Y-90766951D01*
X158750000Y-90747004D01*
X158521997Y-90766951D01*
X158300931Y-90826186D01*
X158300926Y-90826188D01*
X158093500Y-90922913D01*
X158022109Y-90972900D01*
X158657710Y-91608501D01*
X158572447Y-91631349D01*
X158467554Y-91691909D01*
X158381909Y-91777554D01*
X158321349Y-91882447D01*
X158298501Y-91967710D01*
X157662900Y-91332109D01*
X157612913Y-91403500D01*
X157516188Y-91610926D01*
X157516186Y-91610931D01*
X157456951Y-91831997D01*
X157437004Y-92060000D01*
X157456951Y-92288002D01*
X157516186Y-92509068D01*
X157516188Y-92509073D01*
X157612913Y-92716501D01*
X157662899Y-92787888D01*
X158298501Y-92152287D01*
X158321349Y-92237553D01*
X158381909Y-92342446D01*
X158467554Y-92428091D01*
X158572447Y-92488651D01*
X158657711Y-92511498D01*
X158022110Y-93147098D01*
X158022110Y-93147100D01*
X158093498Y-93197086D01*
X158098266Y-93199839D01*
X158097178Y-93201721D01*
X158143420Y-93242409D01*
X158162904Y-93310680D01*
X158142386Y-93378647D01*
X158097015Y-93417995D01*
X158098015Y-93419726D01*
X158093253Y-93422474D01*
X157905703Y-93553799D01*
X157905697Y-93553804D01*
X157743804Y-93715697D01*
X157743799Y-93715703D01*
X157612477Y-93903250D01*
X157515717Y-94110753D01*
X157515715Y-94110759D01*
X157479185Y-94247091D01*
X157456457Y-94331913D01*
X157436502Y-94560000D01*
X157456457Y-94788087D01*
X157480667Y-94878438D01*
X157515715Y-95009240D01*
X157515717Y-95009246D01*
X157612477Y-95216749D01*
X157743799Y-95404296D01*
X157743804Y-95404302D01*
X157810407Y-95470905D01*
X157844433Y-95533217D01*
X157839368Y-95604032D01*
X157810407Y-95649095D01*
X157743804Y-95715697D01*
X157743799Y-95715703D01*
X157612477Y-95903250D01*
X157515717Y-96110753D01*
X157515715Y-96110759D01*
X157456457Y-96331913D01*
X157436502Y-96560000D01*
X155573500Y-96560000D01*
X155573500Y-88990004D01*
X159447308Y-88990004D01*
X159466052Y-89264048D01*
X159466053Y-89264054D01*
X159521942Y-89533011D01*
X159521944Y-89533019D01*
X159613938Y-89791865D01*
X159740314Y-90035756D01*
X159740316Y-90035759D01*
X159870541Y-90220248D01*
X160485532Y-89605256D01*
X160582829Y-89739175D01*
X160710825Y-89867171D01*
X160844741Y-89964466D01*
X160230715Y-90578492D01*
X160230715Y-90578494D01*
X160299313Y-90634304D01*
X160299318Y-90634307D01*
X160534030Y-90777038D01*
X160785989Y-90886480D01*
X161050509Y-90960595D01*
X161322635Y-90997999D01*
X161322649Y-90998000D01*
X161597351Y-90998000D01*
X161597364Y-90997999D01*
X161869490Y-90960595D01*
X162134010Y-90886480D01*
X162385969Y-90777038D01*
X162620679Y-90634309D01*
X162689283Y-90578493D01*
X162689283Y-90578492D01*
X162075257Y-89964466D01*
X162209175Y-89867171D01*
X162337171Y-89739175D01*
X162434467Y-89605257D01*
X163049457Y-90220247D01*
X163179682Y-90035762D01*
X163179685Y-90035756D01*
X163306061Y-89791865D01*
X163398055Y-89533019D01*
X163398057Y-89533011D01*
X163453946Y-89264054D01*
X163453947Y-89264048D01*
X163472692Y-88990004D01*
X163472692Y-88989995D01*
X163453947Y-88715951D01*
X163453946Y-88715945D01*
X163398057Y-88446988D01*
X163398055Y-88446980D01*
X163306061Y-88188134D01*
X163179685Y-87944243D01*
X163179681Y-87944237D01*
X163049457Y-87759750D01*
X162434466Y-88374741D01*
X162337171Y-88240825D01*
X162209175Y-88112829D01*
X162075256Y-88015532D01*
X162689283Y-87401504D01*
X162620680Y-87345691D01*
X162385969Y-87202961D01*
X162134010Y-87093519D01*
X161869490Y-87019404D01*
X161597364Y-86982000D01*
X161322635Y-86982000D01*
X161050509Y-87019404D01*
X160785989Y-87093519D01*
X160534030Y-87202961D01*
X160299325Y-87345687D01*
X160230715Y-87401505D01*
X160230714Y-87401505D01*
X160844742Y-88015533D01*
X160710825Y-88112829D01*
X160582829Y-88240825D01*
X160485533Y-88374742D01*
X159870541Y-87759750D01*
X159740317Y-87944236D01*
X159613938Y-88188134D01*
X159521944Y-88446980D01*
X159521942Y-88446988D01*
X159466053Y-88715945D01*
X159466052Y-88715951D01*
X159447308Y-88989995D01*
X159447308Y-88990004D01*
X155573500Y-88990004D01*
X155573500Y-85725000D01*
X155931496Y-85725000D01*
X155951457Y-85914927D01*
X155965711Y-85958794D01*
X156010473Y-86096556D01*
X156010476Y-86096561D01*
X156105958Y-86261941D01*
X156105965Y-86261951D01*
X156233744Y-86403864D01*
X156233747Y-86403866D01*
X156388248Y-86516118D01*
X156562712Y-86593794D01*
X156749513Y-86633500D01*
X156940487Y-86633500D01*
X157127288Y-86593794D01*
X157301752Y-86516118D01*
X157456253Y-86403866D01*
X157459563Y-86400190D01*
X157520009Y-86362950D01*
X157553200Y-86358500D01*
X162622393Y-86358500D01*
X162622394Y-86358500D01*
X162744785Y-86334155D01*
X162860075Y-86286400D01*
X162963833Y-86217071D01*
X166595500Y-82585405D01*
X166657812Y-82551379D01*
X166684595Y-82548500D01*
X166740500Y-82548500D01*
X166808621Y-82568502D01*
X166855114Y-82622158D01*
X166866500Y-82674500D01*
X166866500Y-82863649D01*
X166873009Y-82924196D01*
X166873011Y-82924204D01*
X166924110Y-83061202D01*
X166924112Y-83061207D01*
X167011738Y-83178261D01*
X167128792Y-83265887D01*
X167128794Y-83265888D01*
X167128796Y-83265889D01*
X167187875Y-83287924D01*
X167265795Y-83316988D01*
X167265803Y-83316990D01*
X167326350Y-83323499D01*
X167326355Y-83323499D01*
X167326362Y-83323500D01*
X167326368Y-83323500D01*
X169223632Y-83323500D01*
X169223638Y-83323500D01*
X169223645Y-83323499D01*
X169223649Y-83323499D01*
X169284196Y-83316990D01*
X169284199Y-83316989D01*
X169284201Y-83316989D01*
X169421204Y-83265889D01*
X169538261Y-83178261D01*
X169625889Y-83061204D01*
X169676989Y-82924201D01*
X169683500Y-82863638D01*
X169683500Y-80966362D01*
X169679903Y-80932903D01*
X169676990Y-80905803D01*
X169676988Y-80905795D01*
X169633025Y-80787929D01*
X169625889Y-80768796D01*
X169625888Y-80768794D01*
X169625887Y-80768792D01*
X169538261Y-80651738D01*
X169421207Y-80564112D01*
X169421204Y-80564111D01*
X169353824Y-80538979D01*
X169296989Y-80496432D01*
X169272179Y-80429911D01*
X169287271Y-80360538D01*
X169305156Y-80335588D01*
X169390314Y-80243083D01*
X169517984Y-80047669D01*
X169611749Y-79833907D01*
X169669051Y-79607626D01*
X169688327Y-79375000D01*
X169669051Y-79142374D01*
X169636264Y-79012901D01*
X169611750Y-78916096D01*
X169611747Y-78916089D01*
X169602986Y-78896117D01*
X169517984Y-78702331D01*
X169478536Y-78641951D01*
X169390314Y-78506916D01*
X169232225Y-78335186D01*
X169232221Y-78335182D01*
X169137062Y-78261117D01*
X169048017Y-78191810D01*
X168842727Y-78080713D01*
X168842724Y-78080712D01*
X168842723Y-78080711D01*
X168621955Y-78004921D01*
X168621948Y-78004919D01*
X168523411Y-77988476D01*
X168391712Y-77966500D01*
X168158288Y-77966500D01*
X168043066Y-77985727D01*
X167928051Y-78004919D01*
X167928044Y-78004921D01*
X167707276Y-78080711D01*
X167707273Y-78080713D01*
X167589030Y-78144703D01*
X167501985Y-78191809D01*
X167501983Y-78191810D01*
X167317778Y-78335182D01*
X167317774Y-78335186D01*
X167159685Y-78506916D01*
X167032015Y-78702331D01*
X166938252Y-78916089D01*
X166938249Y-78916096D01*
X166880950Y-79142366D01*
X166880949Y-79142372D01*
X166880949Y-79142374D01*
X166861673Y-79375000D01*
X166878581Y-79579051D01*
X166880950Y-79607633D01*
X166938249Y-79833903D01*
X166938252Y-79833910D01*
X167032015Y-80047668D01*
X167153996Y-80234375D01*
X167159686Y-80243083D01*
X167244842Y-80335587D01*
X167276263Y-80399251D01*
X167268276Y-80469797D01*
X167223417Y-80524826D01*
X167196175Y-80538979D01*
X167128795Y-80564111D01*
X167128792Y-80564112D01*
X167011738Y-80651738D01*
X166924112Y-80768792D01*
X166924110Y-80768797D01*
X166873011Y-80905795D01*
X166873009Y-80905803D01*
X166866500Y-80966350D01*
X166866500Y-81155500D01*
X166846498Y-81223621D01*
X166792842Y-81270114D01*
X166740500Y-81281500D01*
X166307603Y-81281500D01*
X166185215Y-81305845D01*
X166162077Y-81315429D01*
X166069923Y-81353600D01*
X165966167Y-81422927D01*
X165966161Y-81422932D01*
X162334501Y-85054595D01*
X162272189Y-85088620D01*
X162245406Y-85091500D01*
X157553200Y-85091500D01*
X157485079Y-85071498D01*
X157459563Y-85049810D01*
X157456252Y-85046133D01*
X157301752Y-84933882D01*
X157127288Y-84856206D01*
X156940487Y-84816500D01*
X156749513Y-84816500D01*
X156562711Y-84856206D01*
X156388247Y-84933882D01*
X156233744Y-85046135D01*
X156105965Y-85188048D01*
X156105958Y-85188058D01*
X156010476Y-85353438D01*
X156010473Y-85353445D01*
X155951457Y-85535072D01*
X155931496Y-85725000D01*
X155573500Y-85725000D01*
X155573500Y-77149594D01*
X155593502Y-77081473D01*
X155610405Y-77060499D01*
X156160499Y-76510405D01*
X156222811Y-76476379D01*
X156249594Y-76473500D01*
X156305487Y-76473500D01*
X156492288Y-76433794D01*
X156666752Y-76356118D01*
X156821253Y-76243866D01*
X156821255Y-76243864D01*
X156949034Y-76101951D01*
X156949035Y-76101949D01*
X156949040Y-76101944D01*
X157044527Y-75936556D01*
X157103542Y-75754928D01*
X157123504Y-75565000D01*
X157103542Y-75375072D01*
X157044527Y-75193444D01*
X156949040Y-75028056D01*
X156936658Y-75014304D01*
X156905942Y-74950299D01*
X156914705Y-74879845D01*
X156936659Y-74845685D01*
X156949032Y-74831944D01*
X157044519Y-74666556D01*
X157103534Y-74484928D01*
X157123496Y-74295000D01*
X157103534Y-74105072D01*
X157044519Y-73923444D01*
X156949032Y-73758056D01*
X156949030Y-73758054D01*
X156949026Y-73758048D01*
X156821247Y-73616135D01*
X156729099Y-73549186D01*
X156666744Y-73503882D01*
X156666739Y-73503880D01*
X156661023Y-73500579D01*
X156662354Y-73498272D01*
X156617291Y-73459947D01*
X156596661Y-73392013D01*
X156616034Y-73323711D01*
X156633556Y-73301761D01*
X160419895Y-69515424D01*
X160482207Y-69481398D01*
X160508990Y-69478519D01*
X163805174Y-69478519D01*
X163805175Y-69478519D01*
X163927566Y-69454174D01*
X164042856Y-69406419D01*
X164146614Y-69337090D01*
X168526931Y-64956771D01*
X168589241Y-64922748D01*
X168660056Y-64927812D01*
X168716892Y-64970359D01*
X168741593Y-65035462D01*
X168758923Y-65244595D01*
X168759237Y-65248375D01*
X168814502Y-65466612D01*
X168814503Y-65466613D01*
X168814504Y-65466616D01*
X168830488Y-65503056D01*
X168904941Y-65672793D01*
X169028075Y-65861265D01*
X169028079Y-65861270D01*
X169180562Y-66026908D01*
X169197383Y-66040000D01*
X169358224Y-66165189D01*
X169391480Y-66183186D01*
X169441871Y-66233200D01*
X169457223Y-66302516D01*
X169432662Y-66369129D01*
X169391480Y-66404813D01*
X169358226Y-66422810D01*
X169358224Y-66422811D01*
X169180562Y-66561091D01*
X169028079Y-66726729D01*
X169028075Y-66726734D01*
X168904941Y-66915206D01*
X168814503Y-67121386D01*
X168814502Y-67121387D01*
X168759237Y-67339624D01*
X168759236Y-67339630D01*
X168759236Y-67339632D01*
X168740644Y-67564000D01*
X168752306Y-67704742D01*
X168759237Y-67788375D01*
X168814502Y-68006612D01*
X168814503Y-68006613D01*
X168814504Y-68006616D01*
X168874977Y-68144481D01*
X168904941Y-68212793D01*
X169028075Y-68401265D01*
X169028079Y-68401270D01*
X169180562Y-68566908D01*
X169201173Y-68582950D01*
X169358224Y-68705189D01*
X169392005Y-68723470D01*
X169442396Y-68773482D01*
X169457749Y-68842799D01*
X169433189Y-68909412D01*
X169392009Y-68945096D01*
X169358504Y-68963228D01*
X169358498Y-68963232D01*
X169180897Y-69101465D01*
X169028474Y-69267041D01*
X168905380Y-69455451D01*
X168814979Y-69661543D01*
X168814976Y-69661550D01*
X168767255Y-69849999D01*
X168767256Y-69850000D01*
X169673097Y-69850000D01*
X169637875Y-69911007D01*
X169603800Y-70038174D01*
X169603800Y-70169826D01*
X169637875Y-70296993D01*
X169673097Y-70358000D01*
X168767255Y-70358000D01*
X168814976Y-70546449D01*
X168814979Y-70546456D01*
X168905380Y-70752548D01*
X169028474Y-70940958D01*
X169180897Y-71106534D01*
X169358498Y-71244767D01*
X169358499Y-71244768D01*
X169556428Y-71351882D01*
X169556430Y-71351883D01*
X169769283Y-71424955D01*
X169769292Y-71424957D01*
X169849800Y-71438391D01*
X169849800Y-70534702D01*
X169910807Y-70569925D01*
X170037974Y-70604000D01*
X170169626Y-70604000D01*
X170296793Y-70569925D01*
X170357800Y-70534702D01*
X170357800Y-71438390D01*
X170438307Y-71424957D01*
X170438316Y-71424955D01*
X170651169Y-71351883D01*
X170651171Y-71351882D01*
X170849100Y-71244768D01*
X170849101Y-71244767D01*
X171026702Y-71106534D01*
X171179125Y-70940958D01*
X171302219Y-70752548D01*
X171392620Y-70546456D01*
X171392623Y-70546449D01*
X171440344Y-70358000D01*
X170534503Y-70358000D01*
X170569725Y-70296993D01*
X170603800Y-70169826D01*
X170603800Y-70038174D01*
X170569725Y-69911007D01*
X170534503Y-69850000D01*
X171440344Y-69850000D01*
X171440344Y-69849999D01*
X171392623Y-69661550D01*
X171392620Y-69661543D01*
X171302219Y-69455451D01*
X171179125Y-69267041D01*
X171026702Y-69101465D01*
X170849101Y-68963232D01*
X170849100Y-68963231D01*
X170815591Y-68945097D01*
X170765201Y-68895083D01*
X170749850Y-68825766D01*
X170774412Y-68759153D01*
X170815590Y-68723472D01*
X170849376Y-68705189D01*
X171027040Y-68566906D01*
X171179522Y-68401268D01*
X171302660Y-68212791D01*
X171393096Y-68006616D01*
X171448364Y-67788368D01*
X171466956Y-67564000D01*
X171448364Y-67339632D01*
X171429752Y-67266134D01*
X171393097Y-67121387D01*
X171393096Y-67121386D01*
X171393096Y-67121384D01*
X171302660Y-66915209D01*
X171277870Y-66877265D01*
X171179524Y-66726734D01*
X171179520Y-66726729D01*
X171063370Y-66600559D01*
X171027040Y-66561094D01*
X171027039Y-66561093D01*
X171027037Y-66561091D01*
X170945182Y-66497381D01*
X170849376Y-66422811D01*
X170816119Y-66404813D01*
X170765729Y-66354802D01*
X170750376Y-66285485D01*
X170774936Y-66218872D01*
X170816120Y-66183186D01*
X170849376Y-66165189D01*
X171027040Y-66026906D01*
X171179522Y-65861268D01*
X171302660Y-65672791D01*
X171393096Y-65466616D01*
X171448364Y-65248368D01*
X171466956Y-65024000D01*
X171448364Y-64799632D01*
X171420617Y-64690062D01*
X171423283Y-64619119D01*
X171453666Y-64570038D01*
X171639405Y-64384299D01*
X171701717Y-64350273D01*
X171772532Y-64355338D01*
X171829368Y-64397885D01*
X171854179Y-64464405D01*
X171854500Y-64473394D01*
X171854500Y-115693500D01*
X171834498Y-115761621D01*
X171780842Y-115808114D01*
X171728500Y-115819500D01*
X82101500Y-115819500D01*
X82033379Y-115799498D01*
X81986886Y-115745842D01*
X81975500Y-115693500D01*
X81975500Y-94986500D01*
X81995502Y-94918379D01*
X82049158Y-94871886D01*
X82101500Y-94860500D01*
X87825060Y-94860500D01*
X87860500Y-94825060D01*
X87860500Y-90574940D01*
X87860499Y-90574938D01*
X87825061Y-90539500D01*
X87825060Y-90539500D01*
X82101500Y-90539500D01*
X82033379Y-90519498D01*
X81986886Y-90465842D01*
X81975500Y-90413500D01*
X81975500Y-58911125D01*
X85055491Y-58911125D01*
X85055491Y-83328405D01*
X88844667Y-83328405D01*
X88844667Y-66040000D01*
X90711844Y-66040000D01*
X90727853Y-66233200D01*
X90730437Y-66264375D01*
X90785702Y-66482612D01*
X90785703Y-66482613D01*
X90785704Y-66482616D01*
X90827080Y-66576944D01*
X90876141Y-66688793D01*
X90999275Y-66877265D01*
X90999279Y-66877270D01*
X91151762Y-67042908D01*
X91183534Y-67067637D01*
X91329424Y-67181189D01*
X91527426Y-67288342D01*
X91527427Y-67288342D01*
X91527428Y-67288343D01*
X91594883Y-67311500D01*
X91740365Y-67361444D01*
X91962431Y-67398500D01*
X91962435Y-67398500D01*
X92187565Y-67398500D01*
X92187569Y-67398500D01*
X92409635Y-67361444D01*
X92622574Y-67288342D01*
X92820576Y-67181189D01*
X92998240Y-67042906D01*
X93150722Y-66877268D01*
X93164890Y-66855583D01*
X93218895Y-66809495D01*
X93270372Y-66798500D01*
X117234703Y-66798500D01*
X117234704Y-66798500D01*
X117329001Y-66779743D01*
X117381245Y-66769351D01*
X117519282Y-66712174D01*
X117643513Y-66629166D01*
X122318567Y-61954111D01*
X122380875Y-61920089D01*
X122451690Y-61925153D01*
X122508526Y-61967700D01*
X122529802Y-62012276D01*
X122536178Y-62037454D01*
X122536179Y-62037456D01*
X122626580Y-62243548D01*
X122749674Y-62431958D01*
X122892981Y-62587632D01*
X122924401Y-62651297D01*
X122916414Y-62721843D01*
X122871555Y-62776872D01*
X122844313Y-62791024D01*
X122728795Y-62834111D01*
X122728792Y-62834112D01*
X122611738Y-62921738D01*
X122524112Y-63038792D01*
X122524110Y-63038797D01*
X122473011Y-63175795D01*
X122473009Y-63175803D01*
X122466500Y-63236350D01*
X122466500Y-65033649D01*
X122473009Y-65094196D01*
X122473011Y-65094204D01*
X122524110Y-65231202D01*
X122524112Y-65231207D01*
X122611738Y-65348261D01*
X122728792Y-65435887D01*
X122728794Y-65435888D01*
X122728796Y-65435889D01*
X122783691Y-65456364D01*
X122865795Y-65486988D01*
X122865803Y-65486990D01*
X122926350Y-65493499D01*
X122926355Y-65493499D01*
X122926362Y-65493500D01*
X122926368Y-65493500D01*
X124723632Y-65493500D01*
X124723638Y-65493500D01*
X124723645Y-65493499D01*
X124723649Y-65493499D01*
X124784196Y-65486990D01*
X124784199Y-65486989D01*
X124784201Y-65486989D01*
X124921204Y-65435889D01*
X124980894Y-65391206D01*
X125038261Y-65348261D01*
X125125886Y-65231208D01*
X125125885Y-65231208D01*
X125125889Y-65231204D01*
X125169999Y-65112939D01*
X125212545Y-65056107D01*
X125279066Y-65031296D01*
X125348440Y-65046388D01*
X125380753Y-65071635D01*
X125401529Y-65094204D01*
X125441762Y-65137908D01*
X125525049Y-65202733D01*
X125619424Y-65276189D01*
X125666120Y-65301459D01*
X125716510Y-65351473D01*
X125729566Y-65393547D01*
X125730292Y-65393403D01*
X125731500Y-65399475D01*
X125755845Y-65521866D01*
X125803600Y-65637156D01*
X125872929Y-65740914D01*
X126918086Y-66786071D01*
X127021844Y-66855400D01*
X127137134Y-66903155D01*
X127259525Y-66927500D01*
X127384313Y-66927500D01*
X135122257Y-66927500D01*
X135190378Y-66947502D01*
X135211352Y-66964405D01*
X135314584Y-67067637D01*
X135348610Y-67129949D01*
X135351489Y-67156732D01*
X135351489Y-67906795D01*
X135351490Y-67906797D01*
X135375835Y-68029188D01*
X135423590Y-68144478D01*
X135423591Y-68144480D01*
X135423592Y-68144481D01*
X135484647Y-68235857D01*
X135484650Y-68235860D01*
X135484653Y-68235864D01*
X135492919Y-68248235D01*
X136133528Y-68888844D01*
X136221766Y-68977082D01*
X136325524Y-69046411D01*
X136440814Y-69094166D01*
X136563205Y-69118511D01*
X136563206Y-69118511D01*
X141128792Y-69118511D01*
X141128793Y-69118511D01*
X141251184Y-69094166D01*
X141366474Y-69046411D01*
X141470232Y-68977082D01*
X141741901Y-68705414D01*
X141804213Y-68671389D01*
X141830996Y-68668510D01*
X142801809Y-68668510D01*
X142869930Y-68688512D01*
X142895446Y-68710200D01*
X142898747Y-68713866D01*
X143053248Y-68826118D01*
X143227712Y-68903794D01*
X143414513Y-68943500D01*
X143605487Y-68943500D01*
X143792288Y-68903794D01*
X143966752Y-68826118D01*
X144056763Y-68760719D01*
X144123629Y-68736861D01*
X144182073Y-68747549D01*
X144217817Y-68763463D01*
X144217819Y-68763464D01*
X144404620Y-68803170D01*
X144595594Y-68803170D01*
X144782395Y-68763464D01*
X144956859Y-68685788D01*
X145111360Y-68573536D01*
X145239147Y-68431614D01*
X145334634Y-68266226D01*
X145393649Y-68084598D01*
X145413611Y-67894670D01*
X145393649Y-67704742D01*
X145334634Y-67523114D01*
X145239147Y-67357726D01*
X145239145Y-67357724D01*
X145239141Y-67357718D01*
X145111362Y-67215805D01*
X144956859Y-67103552D01*
X144782395Y-67025876D01*
X144595594Y-66986170D01*
X144539701Y-66986170D01*
X144471580Y-66966168D01*
X144450606Y-66949265D01*
X144319272Y-66817931D01*
X144319270Y-66817929D01*
X144215512Y-66748600D01*
X144100222Y-66700845D01*
X144026523Y-66686185D01*
X143977833Y-66676500D01*
X143977831Y-66676500D01*
X143572394Y-66676500D01*
X141667394Y-66676500D01*
X141542606Y-66676500D01*
X141542603Y-66676500D01*
X141469568Y-66691028D01*
X141420215Y-66700845D01*
X141420213Y-66700845D01*
X141420212Y-66700846D01*
X141304923Y-66748601D01*
X141201171Y-66817926D01*
X141201169Y-66817927D01*
X140809375Y-67209721D01*
X140747063Y-67243746D01*
X140676247Y-67238681D01*
X140619412Y-67196134D01*
X140594970Y-67133791D01*
X140593528Y-67120073D01*
X140588160Y-67103552D01*
X140534513Y-66938444D01*
X140439026Y-66773056D01*
X140439024Y-66773054D01*
X140439020Y-66773048D01*
X140311241Y-66631135D01*
X140156738Y-66518882D01*
X139982274Y-66441206D01*
X139795473Y-66401500D01*
X139739580Y-66401500D01*
X139671459Y-66381498D01*
X139650485Y-66364595D01*
X135563822Y-62277932D01*
X135563820Y-62277930D01*
X135460062Y-62208601D01*
X135353418Y-62164427D01*
X135298139Y-62119879D01*
X135275718Y-62052516D01*
X135279493Y-62017091D01*
X135329564Y-61819368D01*
X135348156Y-61595000D01*
X135329564Y-61370632D01*
X135299043Y-61250108D01*
X135274297Y-61152387D01*
X135274296Y-61152386D01*
X135274296Y-61152384D01*
X135183860Y-60946209D01*
X135177140Y-60935924D01*
X135060724Y-60757734D01*
X135060720Y-60757729D01*
X134908237Y-60592091D01*
X134812458Y-60517543D01*
X134730576Y-60453811D01*
X134532574Y-60346658D01*
X134532572Y-60346657D01*
X134532571Y-60346656D01*
X134319639Y-60273557D01*
X134319630Y-60273555D01*
X134246038Y-60261275D01*
X134097569Y-60236500D01*
X133872431Y-60236500D01*
X133724211Y-60261233D01*
X133650369Y-60273555D01*
X133650360Y-60273557D01*
X133437428Y-60346656D01*
X133437426Y-60346658D01*
X133239426Y-60453810D01*
X133239424Y-60453811D01*
X133061762Y-60592091D01*
X132909279Y-60757729D01*
X132820483Y-60893643D01*
X132766479Y-60939731D01*
X132696131Y-60949306D01*
X132631774Y-60919329D01*
X132609517Y-60893643D01*
X132520720Y-60757729D01*
X132368237Y-60592091D01*
X132272458Y-60517543D01*
X132190576Y-60453811D01*
X131992574Y-60346658D01*
X131992572Y-60346657D01*
X131992571Y-60346656D01*
X131779639Y-60273557D01*
X131779630Y-60273555D01*
X131706038Y-60261275D01*
X131557569Y-60236500D01*
X131332431Y-60236500D01*
X131184211Y-60261233D01*
X131110369Y-60273555D01*
X131110360Y-60273557D01*
X130897428Y-60346656D01*
X130897426Y-60346658D01*
X130699426Y-60453810D01*
X130699424Y-60453811D01*
X130521762Y-60592091D01*
X130369279Y-60757729D01*
X130280483Y-60893643D01*
X130226479Y-60939731D01*
X130156131Y-60949306D01*
X130091774Y-60919329D01*
X130069517Y-60893643D01*
X129980720Y-60757729D01*
X129828237Y-60592091D01*
X129732458Y-60517543D01*
X129650576Y-60453811D01*
X129452574Y-60346658D01*
X129452572Y-60346657D01*
X129452571Y-60346656D01*
X129239639Y-60273557D01*
X129239630Y-60273555D01*
X129166038Y-60261275D01*
X129017569Y-60236500D01*
X128792431Y-60236500D01*
X128644211Y-60261233D01*
X128570369Y-60273555D01*
X128570360Y-60273557D01*
X128357428Y-60346656D01*
X128357426Y-60346658D01*
X128159426Y-60453810D01*
X128159424Y-60453811D01*
X127981762Y-60592091D01*
X127829279Y-60757729D01*
X127740483Y-60893643D01*
X127686479Y-60939731D01*
X127616131Y-60949306D01*
X127551774Y-60919329D01*
X127529517Y-60893643D01*
X127440720Y-60757729D01*
X127288237Y-60592091D01*
X127192458Y-60517543D01*
X127110576Y-60453811D01*
X126912574Y-60346658D01*
X126912572Y-60346657D01*
X126912571Y-60346656D01*
X126699639Y-60273557D01*
X126699630Y-60273555D01*
X126626038Y-60261275D01*
X126477569Y-60236500D01*
X126252431Y-60236500D01*
X126230183Y-60240212D01*
X126167925Y-60250600D01*
X126097442Y-60242082D01*
X126058094Y-60215413D01*
X125348518Y-59505837D01*
X125348516Y-59505835D01*
X125348514Y-59505833D01*
X125224283Y-59422825D01*
X125086246Y-59365648D01*
X125012975Y-59351073D01*
X125012974Y-59351072D01*
X124939710Y-59336499D01*
X124939705Y-59336499D01*
X123030293Y-59336499D01*
X123030287Y-59336499D01*
X122957023Y-59351072D01*
X122957023Y-59351073D01*
X122883752Y-59365648D01*
X122883750Y-59365648D01*
X122883749Y-59365649D01*
X122883748Y-59365649D01*
X122745714Y-59422825D01*
X122621488Y-59505830D01*
X122621481Y-59505835D01*
X116882722Y-65244595D01*
X116820410Y-65278621D01*
X116793627Y-65281500D01*
X93270372Y-65281500D01*
X93202251Y-65261498D01*
X93164890Y-65224417D01*
X93159504Y-65216175D01*
X93150722Y-65202732D01*
X92998240Y-65037094D01*
X92998239Y-65037093D01*
X92998237Y-65037091D01*
X92895045Y-64956773D01*
X92820576Y-64898811D01*
X92786792Y-64880528D01*
X92736402Y-64830516D01*
X92721050Y-64761199D01*
X92745610Y-64694586D01*
X92786793Y-64658901D01*
X92820300Y-64640767D01*
X92820301Y-64640767D01*
X92997902Y-64502534D01*
X93150325Y-64336958D01*
X93273419Y-64148548D01*
X93363820Y-63942456D01*
X93363823Y-63942449D01*
X93411544Y-63754000D01*
X92505703Y-63754000D01*
X92540925Y-63692993D01*
X92575000Y-63565826D01*
X92575000Y-63434174D01*
X92540925Y-63307007D01*
X92505703Y-63246000D01*
X93411544Y-63246000D01*
X93411544Y-63245999D01*
X93363823Y-63057550D01*
X93363820Y-63057543D01*
X93273419Y-62851451D01*
X93150325Y-62663041D01*
X92997902Y-62497465D01*
X92820301Y-62359232D01*
X92820300Y-62359231D01*
X92786267Y-62340814D01*
X92735876Y-62290801D01*
X92720524Y-62221484D01*
X92745085Y-62154871D01*
X92786267Y-62119186D01*
X92820300Y-62100768D01*
X92820301Y-62100767D01*
X92997902Y-61962534D01*
X93150325Y-61796958D01*
X93273419Y-61608548D01*
X93363820Y-61402456D01*
X93363823Y-61402449D01*
X93411544Y-61214000D01*
X92505703Y-61214000D01*
X92540925Y-61152993D01*
X92575000Y-61025826D01*
X92575000Y-60894174D01*
X92540925Y-60767007D01*
X92505703Y-60706000D01*
X93411544Y-60706000D01*
X93411544Y-60705999D01*
X93363823Y-60517550D01*
X93363820Y-60517543D01*
X93273419Y-60311451D01*
X93150325Y-60123041D01*
X93007018Y-59967367D01*
X92975598Y-59903702D01*
X92983585Y-59833156D01*
X93028444Y-59778127D01*
X93055679Y-59763977D01*
X93171204Y-59720889D01*
X93288261Y-59633261D01*
X93375889Y-59516204D01*
X93426989Y-59379201D01*
X93433500Y-59318638D01*
X93433500Y-57521362D01*
X93433499Y-57521350D01*
X93426990Y-57460803D01*
X93426988Y-57460795D01*
X93375889Y-57323797D01*
X93375887Y-57323792D01*
X93288261Y-57206738D01*
X93171207Y-57119112D01*
X93171202Y-57119110D01*
X93034204Y-57068011D01*
X93034196Y-57068009D01*
X92973649Y-57061500D01*
X92973638Y-57061500D01*
X91176362Y-57061500D01*
X91176350Y-57061500D01*
X91115803Y-57068009D01*
X91115795Y-57068011D01*
X90978797Y-57119110D01*
X90978792Y-57119112D01*
X90861738Y-57206738D01*
X90774112Y-57323792D01*
X90774110Y-57323797D01*
X90723011Y-57460795D01*
X90723009Y-57460803D01*
X90716500Y-57521350D01*
X90716500Y-59318649D01*
X90723009Y-59379196D01*
X90723011Y-59379204D01*
X90774110Y-59516202D01*
X90774112Y-59516207D01*
X90861738Y-59633261D01*
X90978792Y-59720887D01*
X90978796Y-59720889D01*
X91094312Y-59763975D01*
X91151148Y-59806522D01*
X91175958Y-59873042D01*
X91160866Y-59942416D01*
X91142981Y-59967367D01*
X90999674Y-60123041D01*
X90876580Y-60311451D01*
X90786179Y-60517543D01*
X90786176Y-60517550D01*
X90738455Y-60705999D01*
X90738456Y-60706000D01*
X91644297Y-60706000D01*
X91609075Y-60767007D01*
X91575000Y-60894174D01*
X91575000Y-61025826D01*
X91609075Y-61152993D01*
X91644297Y-61214000D01*
X90738455Y-61214000D01*
X90786176Y-61402449D01*
X90786179Y-61402456D01*
X90876580Y-61608548D01*
X90999674Y-61796958D01*
X91152097Y-61962534D01*
X91329698Y-62100767D01*
X91329699Y-62100768D01*
X91363734Y-62119187D01*
X91414123Y-62169201D01*
X91429475Y-62238518D01*
X91404913Y-62305130D01*
X91363734Y-62340813D01*
X91329699Y-62359231D01*
X91329698Y-62359232D01*
X91152097Y-62497465D01*
X90999674Y-62663041D01*
X90876580Y-62851451D01*
X90786179Y-63057543D01*
X90786176Y-63057550D01*
X90738455Y-63245999D01*
X90738456Y-63246000D01*
X91644297Y-63246000D01*
X91609075Y-63307007D01*
X91575000Y-63434174D01*
X91575000Y-63565826D01*
X91609075Y-63692993D01*
X91644297Y-63754000D01*
X90738455Y-63754000D01*
X90786176Y-63942449D01*
X90786179Y-63942456D01*
X90876580Y-64148548D01*
X90999674Y-64336958D01*
X91152097Y-64502534D01*
X91329698Y-64640767D01*
X91329704Y-64640771D01*
X91363207Y-64658902D01*
X91413597Y-64708915D01*
X91428949Y-64778232D01*
X91404388Y-64844845D01*
X91363207Y-64880528D01*
X91329430Y-64898807D01*
X91329424Y-64898811D01*
X91151762Y-65037091D01*
X90999279Y-65202729D01*
X90999275Y-65202734D01*
X90876141Y-65391206D01*
X90785703Y-65597386D01*
X90785702Y-65597387D01*
X90730437Y-65815624D01*
X90730436Y-65815630D01*
X90730436Y-65815632D01*
X90711844Y-66040000D01*
X88844667Y-66040000D01*
X88844667Y-58911125D01*
X85055491Y-58911125D01*
X81975500Y-58911125D01*
X81975500Y-56066500D01*
X81995502Y-55998379D01*
X82049158Y-55951886D01*
X82101500Y-55940500D01*
X171728500Y-55940500D01*
X171796621Y-55960502D01*
G37*
%TD.AperFunction*%
%TA.AperFunction,Conductor*%
G36*
X92202000Y-112599297D02*
G01*
X92140993Y-112564075D01*
X92013826Y-112530000D01*
X91882174Y-112530000D01*
X91755007Y-112564075D01*
X91694000Y-112599297D01*
X91694000Y-110920702D01*
X91755007Y-110955925D01*
X91882174Y-110990000D01*
X92013826Y-110990000D01*
X92140993Y-110955925D01*
X92202000Y-110920702D01*
X92202000Y-112599297D01*
G37*
%TD.AperFunction*%
%TA.AperFunction,Conductor*%
G36*
X92202000Y-110059297D02*
G01*
X92140993Y-110024075D01*
X92013826Y-109990000D01*
X91882174Y-109990000D01*
X91755007Y-110024075D01*
X91694000Y-110059297D01*
X91694000Y-108380702D01*
X91755007Y-108415925D01*
X91882174Y-108450000D01*
X92013826Y-108450000D01*
X92140993Y-108415925D01*
X92202000Y-108380702D01*
X92202000Y-110059297D01*
G37*
%TD.AperFunction*%
%TA.AperFunction,Conductor*%
G36*
X92202000Y-107519297D02*
G01*
X92140993Y-107484075D01*
X92013826Y-107450000D01*
X91882174Y-107450000D01*
X91755007Y-107484075D01*
X91694000Y-107519297D01*
X91694000Y-105840702D01*
X91755007Y-105875925D01*
X91882174Y-105910000D01*
X92013826Y-105910000D01*
X92140993Y-105875925D01*
X92202000Y-105840702D01*
X92202000Y-107519297D01*
G37*
%TD.AperFunction*%
%TA.AperFunction,Conductor*%
G36*
X92202000Y-104979297D02*
G01*
X92140993Y-104944075D01*
X92013826Y-104910000D01*
X91882174Y-104910000D01*
X91755007Y-104944075D01*
X91694000Y-104979297D01*
X91694000Y-103300702D01*
X91755007Y-103335925D01*
X91882174Y-103370000D01*
X92013826Y-103370000D01*
X92140993Y-103335925D01*
X92202000Y-103300702D01*
X92202000Y-104979297D01*
G37*
%TD.AperFunction*%
%TA.AperFunction,Conductor*%
G36*
X92202000Y-102439297D02*
G01*
X92140993Y-102404075D01*
X92013826Y-102370000D01*
X91882174Y-102370000D01*
X91755007Y-102404075D01*
X91694000Y-102439297D01*
X91694000Y-100760702D01*
X91755007Y-100795925D01*
X91882174Y-100830000D01*
X92013826Y-100830000D01*
X92140993Y-100795925D01*
X92202000Y-100760702D01*
X92202000Y-102439297D01*
G37*
%TD.AperFunction*%
%TA.AperFunction,Conductor*%
G36*
X92202000Y-99899297D02*
G01*
X92140993Y-99864075D01*
X92013826Y-99830000D01*
X91882174Y-99830000D01*
X91755007Y-99864075D01*
X91694000Y-99899297D01*
X91694000Y-98220702D01*
X91755007Y-98255925D01*
X91882174Y-98290000D01*
X92013826Y-98290000D01*
X92140993Y-98255925D01*
X92202000Y-98220702D01*
X92202000Y-99899297D01*
G37*
%TD.AperFunction*%
%TA.AperFunction,Conductor*%
G36*
X92202000Y-97359297D02*
G01*
X92140993Y-97324075D01*
X92013826Y-97290000D01*
X91882174Y-97290000D01*
X91755007Y-97324075D01*
X91694000Y-97359297D01*
X91694000Y-95680702D01*
X91755007Y-95715925D01*
X91882174Y-95750000D01*
X92013826Y-95750000D01*
X92140993Y-95715925D01*
X92202000Y-95680702D01*
X92202000Y-97359297D01*
G37*
%TD.AperFunction*%
%TA.AperFunction,Conductor*%
G36*
X92202000Y-94819297D02*
G01*
X92140993Y-94784075D01*
X92013826Y-94750000D01*
X91882174Y-94750000D01*
X91755007Y-94784075D01*
X91694000Y-94819297D01*
X91694000Y-93140702D01*
X91755007Y-93175925D01*
X91882174Y-93210000D01*
X92013826Y-93210000D01*
X92140993Y-93175925D01*
X92202000Y-93140702D01*
X92202000Y-94819297D01*
G37*
%TD.AperFunction*%
%TA.AperFunction,Conductor*%
G36*
X92202000Y-92279297D02*
G01*
X92140993Y-92244075D01*
X92013826Y-92210000D01*
X91882174Y-92210000D01*
X91755007Y-92244075D01*
X91694000Y-92279297D01*
X91694000Y-90600702D01*
X91755007Y-90635925D01*
X91882174Y-90670000D01*
X92013826Y-90670000D01*
X92140993Y-90635925D01*
X92202000Y-90600702D01*
X92202000Y-92279297D01*
G37*
%TD.AperFunction*%
%TA.AperFunction,Conductor*%
G36*
X92202000Y-89739297D02*
G01*
X92140993Y-89704075D01*
X92013826Y-89670000D01*
X91882174Y-89670000D01*
X91755007Y-89704075D01*
X91694000Y-89739297D01*
X91694000Y-88060702D01*
X91755007Y-88095925D01*
X91882174Y-88130000D01*
X92013826Y-88130000D01*
X92140993Y-88095925D01*
X92202000Y-88060702D01*
X92202000Y-89739297D01*
G37*
%TD.AperFunction*%
%TA.AperFunction,Conductor*%
G36*
X92144121Y-87013502D02*
G01*
X92190614Y-87067158D01*
X92202000Y-87119500D01*
X92202000Y-87199297D01*
X92140993Y-87164075D01*
X92013826Y-87130000D01*
X91882174Y-87130000D01*
X91755007Y-87164075D01*
X91694000Y-87199297D01*
X91694000Y-87119500D01*
X91714002Y-87051379D01*
X91767658Y-87004886D01*
X91820000Y-86993500D01*
X92076000Y-86993500D01*
X92144121Y-87013502D01*
G37*
%TD.AperFunction*%
%TA.AperFunction,Conductor*%
G36*
X92202000Y-85600500D02*
G01*
X92181998Y-85668621D01*
X92128342Y-85715114D01*
X92076000Y-85726500D01*
X91820000Y-85726500D01*
X91751879Y-85706498D01*
X91705386Y-85652842D01*
X91694000Y-85600500D01*
X91694000Y-85520702D01*
X91755007Y-85555925D01*
X91882174Y-85590000D01*
X92013826Y-85590000D01*
X92140993Y-85555925D01*
X92202000Y-85520702D01*
X92202000Y-85600500D01*
G37*
%TD.AperFunction*%
%TA.AperFunction,Conductor*%
G36*
X92202000Y-84659297D02*
G01*
X92140993Y-84624075D01*
X92013826Y-84590000D01*
X91882174Y-84590000D01*
X91755007Y-84624075D01*
X91694000Y-84659297D01*
X91694000Y-82980702D01*
X91755007Y-83015925D01*
X91882174Y-83050000D01*
X92013826Y-83050000D01*
X92140993Y-83015925D01*
X92202000Y-82980702D01*
X92202000Y-84659297D01*
G37*
%TD.AperFunction*%
%TA.AperFunction,Conductor*%
G36*
X92202000Y-82119297D02*
G01*
X92140993Y-82084075D01*
X92013826Y-82050000D01*
X91882174Y-82050000D01*
X91755007Y-82084075D01*
X91694000Y-82119297D01*
X91694000Y-80440702D01*
X91755007Y-80475925D01*
X91882174Y-80510000D01*
X92013826Y-80510000D01*
X92140993Y-80475925D01*
X92202000Y-80440702D01*
X92202000Y-82119297D01*
G37*
%TD.AperFunction*%
%TA.AperFunction,Conductor*%
G36*
X141388252Y-75469627D02*
G01*
X141434745Y-75523283D01*
X141444849Y-75593557D01*
X141415355Y-75658137D01*
X141413765Y-75659938D01*
X141410951Y-75663062D01*
X141410948Y-75663066D01*
X141315466Y-75828446D01*
X141315463Y-75828453D01*
X141256447Y-76010080D01*
X141236486Y-76200008D01*
X141256447Y-76389935D01*
X141280330Y-76463438D01*
X141315463Y-76571564D01*
X141315466Y-76571569D01*
X141410948Y-76736949D01*
X141410955Y-76736959D01*
X141458378Y-76789627D01*
X141489096Y-76853634D01*
X141480331Y-76924088D01*
X141434868Y-76978619D01*
X141367141Y-76999914D01*
X141364742Y-76999937D01*
X141312950Y-76999937D01*
X141126148Y-77039643D01*
X140951684Y-77117319D01*
X140797181Y-77229572D01*
X140669402Y-77371485D01*
X140669395Y-77371495D01*
X140573913Y-77536875D01*
X140573910Y-77536882D01*
X140514894Y-77718509D01*
X140494933Y-77908437D01*
X140514894Y-78098364D01*
X140538463Y-78170899D01*
X140573910Y-78279993D01*
X140573913Y-78279998D01*
X140661530Y-78431756D01*
X140669397Y-78445381D01*
X140742574Y-78526652D01*
X140773290Y-78590657D01*
X140774937Y-78610961D01*
X140774937Y-78621969D01*
X140754935Y-78690090D01*
X140738032Y-78711064D01*
X138109514Y-81339582D01*
X138047202Y-81373608D01*
X138020419Y-81376487D01*
X130005786Y-81376487D01*
X129937665Y-81356485D01*
X129891172Y-81302829D01*
X129881068Y-81232555D01*
X129910562Y-81167975D01*
X129916691Y-81161392D01*
X131085224Y-79992859D01*
X131613073Y-79465010D01*
X132436496Y-79465010D01*
X132456457Y-79654937D01*
X132486526Y-79747480D01*
X132515473Y-79836566D01*
X132515476Y-79836571D01*
X132610958Y-80001951D01*
X132610965Y-80001961D01*
X132738744Y-80143874D01*
X132763946Y-80162184D01*
X132893248Y-80256128D01*
X133067712Y-80333804D01*
X133254513Y-80373510D01*
X133445487Y-80373510D01*
X133632288Y-80333804D01*
X133806752Y-80256128D01*
X133961253Y-80143876D01*
X133964563Y-80140200D01*
X134025009Y-80102960D01*
X134058200Y-80098510D01*
X136760455Y-80098510D01*
X136811703Y-80109403D01*
X136917360Y-80156444D01*
X136917361Y-80156444D01*
X136917363Y-80156445D01*
X137104164Y-80196151D01*
X137295138Y-80196151D01*
X137481939Y-80156445D01*
X137656403Y-80078769D01*
X137810904Y-79966517D01*
X137831022Y-79944174D01*
X137938685Y-79824602D01*
X137938686Y-79824600D01*
X137938691Y-79824595D01*
X138034178Y-79659207D01*
X138093193Y-79477579D01*
X138113155Y-79287651D01*
X138093193Y-79097723D01*
X138034178Y-78916095D01*
X137938691Y-78750707D01*
X137938689Y-78750705D01*
X137938685Y-78750699D01*
X137810906Y-78608786D01*
X137656403Y-78496533D01*
X137481939Y-78418857D01*
X137295138Y-78379151D01*
X137104164Y-78379151D01*
X136917362Y-78418857D01*
X136842567Y-78452158D01*
X136742899Y-78496533D01*
X136742897Y-78496533D01*
X136736867Y-78499219D01*
X136735813Y-78496851D01*
X136678060Y-78510835D01*
X136610979Y-78487583D01*
X136567117Y-78431756D01*
X136560401Y-78361078D01*
X136592962Y-78297989D01*
X136594934Y-78295969D01*
X137110501Y-77780402D01*
X137172811Y-77746379D01*
X137199594Y-77743500D01*
X137255487Y-77743500D01*
X137442288Y-77703794D01*
X137616752Y-77626118D01*
X137771253Y-77513866D01*
X137793500Y-77489158D01*
X137899034Y-77371951D01*
X137899035Y-77371949D01*
X137899040Y-77371944D01*
X137994527Y-77206556D01*
X138053542Y-77024928D01*
X138073504Y-76835000D01*
X138053542Y-76645072D01*
X137994527Y-76463444D01*
X137899040Y-76298056D01*
X137899038Y-76298054D01*
X137899034Y-76298048D01*
X137771255Y-76156135D01*
X137616752Y-76043882D01*
X137442288Y-75966206D01*
X137255487Y-75926500D01*
X137064513Y-75926500D01*
X136877711Y-75966206D01*
X136703247Y-76043882D01*
X136548744Y-76156135D01*
X136420965Y-76298048D01*
X136420958Y-76298058D01*
X136325476Y-76463438D01*
X136325473Y-76463444D01*
X136322206Y-76473500D01*
X136266457Y-76645072D01*
X136249092Y-76810293D01*
X136222079Y-76875950D01*
X136212877Y-76886217D01*
X135823815Y-77275279D01*
X135761503Y-77309305D01*
X135690688Y-77304240D01*
X135683483Y-77301296D01*
X135537288Y-77236206D01*
X135350487Y-77196500D01*
X135159513Y-77196500D01*
X134972711Y-77236206D01*
X134798247Y-77313882D01*
X134643744Y-77426135D01*
X134515965Y-77568048D01*
X134515958Y-77568058D01*
X134420476Y-77733438D01*
X134420473Y-77733445D01*
X134361457Y-77915072D01*
X134341496Y-78105000D01*
X134361457Y-78294927D01*
X134388612Y-78378500D01*
X134420473Y-78476556D01*
X134504427Y-78621969D01*
X134516287Y-78642510D01*
X134533025Y-78711505D01*
X134509805Y-78778597D01*
X134453998Y-78822484D01*
X134407168Y-78831510D01*
X134058200Y-78831510D01*
X133990079Y-78811508D01*
X133964563Y-78789820D01*
X133961252Y-78786143D01*
X133806752Y-78673892D01*
X133632288Y-78596216D01*
X133445487Y-78556510D01*
X133254513Y-78556510D01*
X133067711Y-78596216D01*
X132893247Y-78673892D01*
X132738744Y-78786145D01*
X132610965Y-78928058D01*
X132610958Y-78928068D01*
X132515476Y-79093448D01*
X132515473Y-79093455D01*
X132456457Y-79275082D01*
X132436496Y-79465010D01*
X131613073Y-79465010D01*
X134684232Y-76393849D01*
X134746542Y-76359826D01*
X134817357Y-76364890D01*
X134824573Y-76367838D01*
X134972712Y-76433794D01*
X135159513Y-76473500D01*
X135350487Y-76473500D01*
X135537288Y-76433794D01*
X135711752Y-76356118D01*
X135866253Y-76243866D01*
X135866255Y-76243864D01*
X135994034Y-76101951D01*
X135994035Y-76101949D01*
X135994040Y-76101944D01*
X136089527Y-75936556D01*
X136148542Y-75754928D01*
X136168504Y-75565000D01*
X136168503Y-75564997D01*
X136168771Y-75562455D01*
X136195784Y-75496798D01*
X136254005Y-75456168D01*
X136294081Y-75449625D01*
X141320131Y-75449625D01*
X141388252Y-75469627D01*
G37*
%TD.AperFunction*%
%TA.AperFunction,Conductor*%
G36*
X92202000Y-79579297D02*
G01*
X92140993Y-79544075D01*
X92013826Y-79510000D01*
X91882174Y-79510000D01*
X91755007Y-79544075D01*
X91694000Y-79579297D01*
X91694000Y-77900702D01*
X91755007Y-77935925D01*
X91882174Y-77970000D01*
X92013826Y-77970000D01*
X92140993Y-77935925D01*
X92202000Y-77900702D01*
X92202000Y-79579297D01*
G37*
%TD.AperFunction*%
%TA.AperFunction,Conductor*%
G36*
X92202000Y-77039297D02*
G01*
X92140993Y-77004075D01*
X92013826Y-76970000D01*
X91882174Y-76970000D01*
X91755007Y-77004075D01*
X91694000Y-77039297D01*
X91694000Y-75360702D01*
X91755007Y-75395925D01*
X91882174Y-75430000D01*
X92013826Y-75430000D01*
X92140993Y-75395925D01*
X92202000Y-75360702D01*
X92202000Y-77039297D01*
G37*
%TD.AperFunction*%
%TD*%
M02*
