%TF.GenerationSoftware,KiCad,Pcbnew,8.0.1*%
%TF.CreationDate,2024-04-21T20:15:04+02:00*%
%TF.ProjectId,Gotek_Floppy_Disk_Emulator_V2,476f7465-6b5f-4466-9c6f-7070795f4469,rev?*%
%TF.SameCoordinates,Original*%
%TF.FileFunction,Legend,Top*%
%TF.FilePolarity,Positive*%
%FSLAX46Y46*%
G04 Gerber Fmt 4.6, Leading zero omitted, Abs format (unit mm)*
G04 Created by KiCad (PCBNEW 8.0.1) date 2024-04-21 20:15:04*
%MOMM*%
%LPD*%
G01*
G04 APERTURE LIST*
G04 Aperture macros list*
%AMRoundRect*
0 Rectangle with rounded corners*
0 $1 Rounding radius*
0 $2 $3 $4 $5 $6 $7 $8 $9 X,Y pos of 4 corners*
0 Add a 4 corners polygon primitive as box body*
4,1,4,$2,$3,$4,$5,$6,$7,$8,$9,$2,$3,0*
0 Add four circle primitives for the rounded corners*
1,1,$1+$1,$2,$3*
1,1,$1+$1,$4,$5*
1,1,$1+$1,$6,$7*
1,1,$1+$1,$8,$9*
0 Add four rect primitives between the rounded corners*
20,1,$1+$1,$2,$3,$4,$5,0*
20,1,$1+$1,$4,$5,$6,$7,0*
20,1,$1+$1,$6,$7,$8,$9,0*
20,1,$1+$1,$8,$9,$2,$3,0*%
G04 Aperture macros list end*
%ADD10C,0.150000*%
%ADD11C,0.120000*%
%ADD12RoundRect,0.051000X1.000000X1.000000X-1.000000X1.000000X-1.000000X-1.000000X1.000000X-1.000000X0*%
%ADD13C,2.102000*%
%ADD14RoundRect,0.272174X-0.678826X0.353826X-0.678826X-0.353826X0.678826X-0.353826X0.678826X0.353826X0*%
%ADD15RoundRect,0.272174X0.678826X-0.353826X0.678826X0.353826X-0.678826X0.353826X-0.678826X-0.353826X0*%
%ADD16RoundRect,0.272174X0.353826X0.678826X-0.353826X0.678826X-0.353826X-0.678826X0.353826X-0.678826X0*%
%ADD17RoundRect,0.165500X-0.195500X0.165500X-0.195500X-0.165500X0.195500X-0.165500X0.195500X0.165500X0*%
%ADD18RoundRect,0.272174X-0.353826X-0.678826X0.353826X-0.678826X0.353826X0.678826X-0.353826X0.678826X0*%
%ADD19RoundRect,0.250500X0.250500X0.400500X-0.250500X0.400500X-0.250500X-0.400500X0.250500X-0.400500X0*%
%ADD20RoundRect,0.051000X0.800000X-0.800000X0.800000X0.800000X-0.800000X0.800000X-0.800000X-0.800000X0*%
%ADD21C,1.702000*%
%ADD22C,3.102000*%
%ADD23RoundRect,0.051000X0.850000X-0.850000X0.850000X0.850000X-0.850000X0.850000X-0.850000X-0.850000X0*%
%ADD24O,1.802000X1.802000*%
%ADD25RoundRect,0.175500X-0.613000X-0.175500X0.613000X-0.175500X0.613000X0.175500X-0.613000X0.175500X0*%
%ADD26RoundRect,0.175500X0.613000X0.175500X-0.613000X0.175500X-0.613000X-0.175500X0.613000X-0.175500X0*%
%ADD27RoundRect,0.272666X-0.653334X0.340834X-0.653334X-0.340834X0.653334X-0.340834X0.653334X0.340834X0*%
%ADD28RoundRect,0.272666X-0.340834X-0.653334X0.340834X-0.653334X0.340834X0.653334X-0.340834X0.653334X0*%
%ADD29RoundRect,0.272666X0.653334X-0.340834X0.653334X0.340834X-0.653334X0.340834X-0.653334X-0.340834X0*%
%ADD30RoundRect,0.272666X0.340834X0.653334X-0.340834X0.653334X-0.340834X-0.653334X0.340834X-0.653334X0*%
%ADD31RoundRect,0.051000X1.220000X0.560000X-1.220000X0.560000X-1.220000X-0.560000X1.220000X-0.560000X0*%
%ADD32RoundRect,0.400500X-0.400500X0.650500X-0.400500X-0.650500X0.400500X-0.650500X0.400500X0.650500X0*%
%ADD33RoundRect,0.525500X-1.425500X0.525500X-1.425500X-0.525500X1.425500X-0.525500X1.425500X0.525500X0*%
%ADD34RoundRect,0.100500X0.100500X-0.725500X0.100500X0.725500X-0.100500X0.725500X-0.100500X-0.725500X0*%
%ADD35RoundRect,0.100500X0.725500X-0.100500X0.725500X0.100500X-0.725500X0.100500X-0.725500X-0.100500X0*%
%ADD36RoundRect,0.175500X0.538000X0.175500X-0.538000X0.175500X-0.538000X-0.175500X0.538000X-0.175500X0*%
%ADD37RoundRect,0.175500X-0.850500X-0.175500X0.850500X-0.175500X0.850500X0.175500X-0.850500X0.175500X0*%
%ADD38RoundRect,0.051000X-0.850000X-0.850000X0.850000X-0.850000X0.850000X0.850000X-0.850000X0.850000X0*%
%ADD39C,1.802000*%
%ADD40RoundRect,0.051000X0.900000X-0.900000X0.900000X0.900000X-0.900000X0.900000X-0.900000X-0.900000X0*%
%ADD41C,1.902000*%
%ADD42RoundRect,0.051000X-1.000000X-1.200000X1.000000X-1.200000X1.000000X1.200000X-1.000000X1.200000X0*%
%ADD43C,0.902000*%
%ADD44C,6.502000*%
%ADD45RoundRect,0.269250X0.481750X-0.269250X0.481750X0.269250X-0.481750X0.269250X-0.481750X-0.269250X0*%
G04 APERTURE END LIST*
D10*
X126422533Y-58813570D02*
X126422533Y-58204047D01*
X126727295Y-58508808D02*
X126117771Y-58508808D01*
X125927295Y-57442142D02*
X125927295Y-57823094D01*
X125927295Y-57823094D02*
X126308247Y-57861190D01*
X126308247Y-57861190D02*
X126270152Y-57823094D01*
X126270152Y-57823094D02*
X126232057Y-57746904D01*
X126232057Y-57746904D02*
X126232057Y-57556428D01*
X126232057Y-57556428D02*
X126270152Y-57480237D01*
X126270152Y-57480237D02*
X126308247Y-57442142D01*
X126308247Y-57442142D02*
X126384438Y-57404047D01*
X126384438Y-57404047D02*
X126574914Y-57404047D01*
X126574914Y-57404047D02*
X126651104Y-57442142D01*
X126651104Y-57442142D02*
X126689200Y-57480237D01*
X126689200Y-57480237D02*
X126727295Y-57556428D01*
X126727295Y-57556428D02*
X126727295Y-57746904D01*
X126727295Y-57746904D02*
X126689200Y-57823094D01*
X126689200Y-57823094D02*
X126651104Y-57861190D01*
X125927295Y-57175475D02*
X126727295Y-56908808D01*
X126727295Y-56908808D02*
X125927295Y-56642142D01*
X127823318Y-59115276D02*
X128394746Y-59115276D01*
X128394746Y-59115276D02*
X128509032Y-59153371D01*
X128509032Y-59153371D02*
X128585223Y-59229562D01*
X128585223Y-59229562D02*
X128623318Y-59343847D01*
X128623318Y-59343847D02*
X128623318Y-59420038D01*
X127823318Y-58848609D02*
X127823318Y-58391466D01*
X128623318Y-58620038D02*
X127823318Y-58620038D01*
X128547127Y-57667656D02*
X128585223Y-57705752D01*
X128585223Y-57705752D02*
X128623318Y-57820037D01*
X128623318Y-57820037D02*
X128623318Y-57896228D01*
X128623318Y-57896228D02*
X128585223Y-58010514D01*
X128585223Y-58010514D02*
X128509032Y-58086704D01*
X128509032Y-58086704D02*
X128432842Y-58124799D01*
X128432842Y-58124799D02*
X128280461Y-58162895D01*
X128280461Y-58162895D02*
X128166175Y-58162895D01*
X128166175Y-58162895D02*
X128013794Y-58124799D01*
X128013794Y-58124799D02*
X127937603Y-58086704D01*
X127937603Y-58086704D02*
X127861413Y-58010514D01*
X127861413Y-58010514D02*
X127823318Y-57896228D01*
X127823318Y-57896228D02*
X127823318Y-57820037D01*
X127823318Y-57820037D02*
X127861413Y-57705752D01*
X127861413Y-57705752D02*
X127899508Y-57667656D01*
X128623318Y-57324799D02*
X127823318Y-57324799D01*
X128623318Y-56867656D02*
X128166175Y-57210514D01*
X127823318Y-56867656D02*
X128280461Y-57324799D01*
X129873178Y-59934324D02*
X129911273Y-59820038D01*
X129911273Y-59820038D02*
X129911273Y-59629562D01*
X129911273Y-59629562D02*
X129873178Y-59553371D01*
X129873178Y-59553371D02*
X129835082Y-59515276D01*
X129835082Y-59515276D02*
X129758892Y-59477181D01*
X129758892Y-59477181D02*
X129682701Y-59477181D01*
X129682701Y-59477181D02*
X129606511Y-59515276D01*
X129606511Y-59515276D02*
X129568416Y-59553371D01*
X129568416Y-59553371D02*
X129530320Y-59629562D01*
X129530320Y-59629562D02*
X129492225Y-59781943D01*
X129492225Y-59781943D02*
X129454130Y-59858133D01*
X129454130Y-59858133D02*
X129416035Y-59896228D01*
X129416035Y-59896228D02*
X129339844Y-59934324D01*
X129339844Y-59934324D02*
X129263654Y-59934324D01*
X129263654Y-59934324D02*
X129187463Y-59896228D01*
X129187463Y-59896228D02*
X129149368Y-59858133D01*
X129149368Y-59858133D02*
X129111273Y-59781943D01*
X129111273Y-59781943D02*
X129111273Y-59591466D01*
X129111273Y-59591466D02*
X129149368Y-59477181D01*
X129111273Y-59210514D02*
X129911273Y-59020038D01*
X129911273Y-59020038D02*
X129339844Y-58867657D01*
X129339844Y-58867657D02*
X129911273Y-58715276D01*
X129911273Y-58715276D02*
X129111273Y-58524800D01*
X129835082Y-57762894D02*
X129873178Y-57800990D01*
X129873178Y-57800990D02*
X129911273Y-57915275D01*
X129911273Y-57915275D02*
X129911273Y-57991466D01*
X129911273Y-57991466D02*
X129873178Y-58105752D01*
X129873178Y-58105752D02*
X129796987Y-58181942D01*
X129796987Y-58181942D02*
X129720797Y-58220037D01*
X129720797Y-58220037D02*
X129568416Y-58258133D01*
X129568416Y-58258133D02*
X129454130Y-58258133D01*
X129454130Y-58258133D02*
X129301749Y-58220037D01*
X129301749Y-58220037D02*
X129225558Y-58181942D01*
X129225558Y-58181942D02*
X129149368Y-58105752D01*
X129149368Y-58105752D02*
X129111273Y-57991466D01*
X129111273Y-57991466D02*
X129111273Y-57915275D01*
X129111273Y-57915275D02*
X129149368Y-57800990D01*
X129149368Y-57800990D02*
X129187463Y-57762894D01*
X129911273Y-57039085D02*
X129911273Y-57420037D01*
X129911273Y-57420037D02*
X129111273Y-57420037D01*
X129911273Y-56772418D02*
X129111273Y-56772418D01*
X129911273Y-56315275D02*
X129454130Y-56658133D01*
X129111273Y-56315275D02*
X129568416Y-56772418D01*
X130338218Y-59153371D02*
X130909646Y-59153371D01*
X130909646Y-59153371D02*
X131023932Y-59191466D01*
X131023932Y-59191466D02*
X131100123Y-59267657D01*
X131100123Y-59267657D02*
X131138218Y-59381942D01*
X131138218Y-59381942D02*
X131138218Y-59458133D01*
X130338218Y-58886704D02*
X130338218Y-58429561D01*
X131138218Y-58658133D02*
X130338218Y-58658133D01*
X131138218Y-58162894D02*
X130338218Y-58162894D01*
X130338218Y-58162894D02*
X130909646Y-57896228D01*
X130909646Y-57896228D02*
X130338218Y-57629561D01*
X130338218Y-57629561D02*
X131138218Y-57629561D01*
X131100123Y-57286704D02*
X131138218Y-57172418D01*
X131138218Y-57172418D02*
X131138218Y-56981942D01*
X131138218Y-56981942D02*
X131100123Y-56905751D01*
X131100123Y-56905751D02*
X131062027Y-56867656D01*
X131062027Y-56867656D02*
X130985837Y-56829561D01*
X130985837Y-56829561D02*
X130909646Y-56829561D01*
X130909646Y-56829561D02*
X130833456Y-56867656D01*
X130833456Y-56867656D02*
X130795361Y-56905751D01*
X130795361Y-56905751D02*
X130757265Y-56981942D01*
X130757265Y-56981942D02*
X130719170Y-57134323D01*
X130719170Y-57134323D02*
X130681075Y-57210513D01*
X130681075Y-57210513D02*
X130642980Y-57248608D01*
X130642980Y-57248608D02*
X130566789Y-57286704D01*
X130566789Y-57286704D02*
X130490599Y-57286704D01*
X130490599Y-57286704D02*
X130414408Y-57248608D01*
X130414408Y-57248608D02*
X130376313Y-57210513D01*
X130376313Y-57210513D02*
X130338218Y-57134323D01*
X130338218Y-57134323D02*
X130338218Y-56943846D01*
X130338218Y-56943846D02*
X130376313Y-56829561D01*
X132388078Y-59820038D02*
X132426173Y-59705752D01*
X132426173Y-59705752D02*
X132426173Y-59515276D01*
X132426173Y-59515276D02*
X132388078Y-59439085D01*
X132388078Y-59439085D02*
X132349982Y-59400990D01*
X132349982Y-59400990D02*
X132273792Y-59362895D01*
X132273792Y-59362895D02*
X132197601Y-59362895D01*
X132197601Y-59362895D02*
X132121411Y-59400990D01*
X132121411Y-59400990D02*
X132083316Y-59439085D01*
X132083316Y-59439085D02*
X132045220Y-59515276D01*
X132045220Y-59515276D02*
X132007125Y-59667657D01*
X132007125Y-59667657D02*
X131969030Y-59743847D01*
X131969030Y-59743847D02*
X131930935Y-59781942D01*
X131930935Y-59781942D02*
X131854744Y-59820038D01*
X131854744Y-59820038D02*
X131778554Y-59820038D01*
X131778554Y-59820038D02*
X131702363Y-59781942D01*
X131702363Y-59781942D02*
X131664268Y-59743847D01*
X131664268Y-59743847D02*
X131626173Y-59667657D01*
X131626173Y-59667657D02*
X131626173Y-59477180D01*
X131626173Y-59477180D02*
X131664268Y-59362895D01*
X131626173Y-59096228D02*
X132426173Y-58905752D01*
X132426173Y-58905752D02*
X131854744Y-58753371D01*
X131854744Y-58753371D02*
X132426173Y-58600990D01*
X132426173Y-58600990D02*
X131626173Y-58410514D01*
X132426173Y-58105751D02*
X131626173Y-58105751D01*
X131626173Y-58105751D02*
X131626173Y-57915275D01*
X131626173Y-57915275D02*
X131664268Y-57800989D01*
X131664268Y-57800989D02*
X131740458Y-57724799D01*
X131740458Y-57724799D02*
X131816649Y-57686704D01*
X131816649Y-57686704D02*
X131969030Y-57648608D01*
X131969030Y-57648608D02*
X132083316Y-57648608D01*
X132083316Y-57648608D02*
X132235697Y-57686704D01*
X132235697Y-57686704D02*
X132311887Y-57724799D01*
X132311887Y-57724799D02*
X132388078Y-57800989D01*
X132388078Y-57800989D02*
X132426173Y-57915275D01*
X132426173Y-57915275D02*
X132426173Y-58105751D01*
X132426173Y-57305751D02*
X131626173Y-57305751D01*
X131626173Y-56772418D02*
X131626173Y-56620037D01*
X131626173Y-56620037D02*
X131664268Y-56543847D01*
X131664268Y-56543847D02*
X131740458Y-56467656D01*
X131740458Y-56467656D02*
X131892839Y-56429561D01*
X131892839Y-56429561D02*
X132159506Y-56429561D01*
X132159506Y-56429561D02*
X132311887Y-56467656D01*
X132311887Y-56467656D02*
X132388078Y-56543847D01*
X132388078Y-56543847D02*
X132426173Y-56620037D01*
X132426173Y-56620037D02*
X132426173Y-56772418D01*
X132426173Y-56772418D02*
X132388078Y-56848609D01*
X132388078Y-56848609D02*
X132311887Y-56924799D01*
X132311887Y-56924799D02*
X132159506Y-56962895D01*
X132159506Y-56962895D02*
X131892839Y-56962895D01*
X131892839Y-56962895D02*
X131740458Y-56924799D01*
X131740458Y-56924799D02*
X131664268Y-56848609D01*
X131664268Y-56848609D02*
X131626173Y-56772418D01*
X124187295Y-69259285D02*
X123387295Y-69259285D01*
X123387295Y-69259285D02*
X124187295Y-68802142D01*
X124187295Y-68802142D02*
X123387295Y-68802142D01*
X124187295Y-67964047D02*
X123806342Y-68230714D01*
X124187295Y-68421190D02*
X123387295Y-68421190D01*
X123387295Y-68421190D02*
X123387295Y-68116428D01*
X123387295Y-68116428D02*
X123425390Y-68040238D01*
X123425390Y-68040238D02*
X123463485Y-68002143D01*
X123463485Y-68002143D02*
X123539676Y-67964047D01*
X123539676Y-67964047D02*
X123653961Y-67964047D01*
X123653961Y-67964047D02*
X123730152Y-68002143D01*
X123730152Y-68002143D02*
X123768247Y-68040238D01*
X123768247Y-68040238D02*
X123806342Y-68116428D01*
X123806342Y-68116428D02*
X123806342Y-68421190D01*
X124149200Y-67659286D02*
X124187295Y-67545000D01*
X124187295Y-67545000D02*
X124187295Y-67354524D01*
X124187295Y-67354524D02*
X124149200Y-67278333D01*
X124149200Y-67278333D02*
X124111104Y-67240238D01*
X124111104Y-67240238D02*
X124034914Y-67202143D01*
X124034914Y-67202143D02*
X123958723Y-67202143D01*
X123958723Y-67202143D02*
X123882533Y-67240238D01*
X123882533Y-67240238D02*
X123844438Y-67278333D01*
X123844438Y-67278333D02*
X123806342Y-67354524D01*
X123806342Y-67354524D02*
X123768247Y-67506905D01*
X123768247Y-67506905D02*
X123730152Y-67583095D01*
X123730152Y-67583095D02*
X123692057Y-67621190D01*
X123692057Y-67621190D02*
X123615866Y-67659286D01*
X123615866Y-67659286D02*
X123539676Y-67659286D01*
X123539676Y-67659286D02*
X123463485Y-67621190D01*
X123463485Y-67621190D02*
X123425390Y-67583095D01*
X123425390Y-67583095D02*
X123387295Y-67506905D01*
X123387295Y-67506905D02*
X123387295Y-67316428D01*
X123387295Y-67316428D02*
X123425390Y-67202143D01*
X123387295Y-66973571D02*
X123387295Y-66516428D01*
X124187295Y-66745000D02*
X123387295Y-66745000D01*
X125283318Y-69983094D02*
X125930937Y-69983094D01*
X125930937Y-69983094D02*
X126007127Y-69944999D01*
X126007127Y-69944999D02*
X126045223Y-69906904D01*
X126045223Y-69906904D02*
X126083318Y-69830713D01*
X126083318Y-69830713D02*
X126083318Y-69678332D01*
X126083318Y-69678332D02*
X126045223Y-69602142D01*
X126045223Y-69602142D02*
X126007127Y-69564047D01*
X126007127Y-69564047D02*
X125930937Y-69525951D01*
X125930937Y-69525951D02*
X125283318Y-69525951D01*
X126045223Y-69183095D02*
X126083318Y-69068809D01*
X126083318Y-69068809D02*
X126083318Y-68878333D01*
X126083318Y-68878333D02*
X126045223Y-68802142D01*
X126045223Y-68802142D02*
X126007127Y-68764047D01*
X126007127Y-68764047D02*
X125930937Y-68725952D01*
X125930937Y-68725952D02*
X125854746Y-68725952D01*
X125854746Y-68725952D02*
X125778556Y-68764047D01*
X125778556Y-68764047D02*
X125740461Y-68802142D01*
X125740461Y-68802142D02*
X125702365Y-68878333D01*
X125702365Y-68878333D02*
X125664270Y-69030714D01*
X125664270Y-69030714D02*
X125626175Y-69106904D01*
X125626175Y-69106904D02*
X125588080Y-69144999D01*
X125588080Y-69144999D02*
X125511889Y-69183095D01*
X125511889Y-69183095D02*
X125435699Y-69183095D01*
X125435699Y-69183095D02*
X125359508Y-69144999D01*
X125359508Y-69144999D02*
X125321413Y-69106904D01*
X125321413Y-69106904D02*
X125283318Y-69030714D01*
X125283318Y-69030714D02*
X125283318Y-68840237D01*
X125283318Y-68840237D02*
X125321413Y-68725952D01*
X125854746Y-68421190D02*
X125854746Y-68040237D01*
X126083318Y-68497380D02*
X125283318Y-68230713D01*
X125283318Y-68230713D02*
X126083318Y-67964047D01*
X126083318Y-67240237D02*
X125702365Y-67506904D01*
X126083318Y-67697380D02*
X125283318Y-67697380D01*
X125283318Y-67697380D02*
X125283318Y-67392618D01*
X125283318Y-67392618D02*
X125321413Y-67316428D01*
X125321413Y-67316428D02*
X125359508Y-67278333D01*
X125359508Y-67278333D02*
X125435699Y-67240237D01*
X125435699Y-67240237D02*
X125549984Y-67240237D01*
X125549984Y-67240237D02*
X125626175Y-67278333D01*
X125626175Y-67278333D02*
X125664270Y-67316428D01*
X125664270Y-67316428D02*
X125702365Y-67392618D01*
X125702365Y-67392618D02*
X125702365Y-67697380D01*
X125283318Y-67011666D02*
X125283318Y-66554523D01*
X126083318Y-66783095D02*
X125283318Y-66783095D01*
X126083318Y-65868809D02*
X126083318Y-66325952D01*
X126083318Y-66097380D02*
X125283318Y-66097380D01*
X125283318Y-66097380D02*
X125397603Y-66173571D01*
X125397603Y-66173571D02*
X125473794Y-66249761D01*
X125473794Y-66249761D02*
X125511889Y-66325952D01*
X127371273Y-68078332D02*
X126990320Y-68344999D01*
X127371273Y-68535475D02*
X126571273Y-68535475D01*
X126571273Y-68535475D02*
X126571273Y-68230713D01*
X126571273Y-68230713D02*
X126609368Y-68154523D01*
X126609368Y-68154523D02*
X126647463Y-68116428D01*
X126647463Y-68116428D02*
X126723654Y-68078332D01*
X126723654Y-68078332D02*
X126837939Y-68078332D01*
X126837939Y-68078332D02*
X126914130Y-68116428D01*
X126914130Y-68116428D02*
X126952225Y-68154523D01*
X126952225Y-68154523D02*
X126990320Y-68230713D01*
X126990320Y-68230713D02*
X126990320Y-68535475D01*
X126571273Y-67811666D02*
X127371273Y-67278332D01*
X126571273Y-67278332D02*
X127371273Y-67811666D01*
X127823318Y-69983094D02*
X128470937Y-69983094D01*
X128470937Y-69983094D02*
X128547127Y-69944999D01*
X128547127Y-69944999D02*
X128585223Y-69906904D01*
X128585223Y-69906904D02*
X128623318Y-69830713D01*
X128623318Y-69830713D02*
X128623318Y-69678332D01*
X128623318Y-69678332D02*
X128585223Y-69602142D01*
X128585223Y-69602142D02*
X128547127Y-69564047D01*
X128547127Y-69564047D02*
X128470937Y-69525951D01*
X128470937Y-69525951D02*
X127823318Y-69525951D01*
X128585223Y-69183095D02*
X128623318Y-69068809D01*
X128623318Y-69068809D02*
X128623318Y-68878333D01*
X128623318Y-68878333D02*
X128585223Y-68802142D01*
X128585223Y-68802142D02*
X128547127Y-68764047D01*
X128547127Y-68764047D02*
X128470937Y-68725952D01*
X128470937Y-68725952D02*
X128394746Y-68725952D01*
X128394746Y-68725952D02*
X128318556Y-68764047D01*
X128318556Y-68764047D02*
X128280461Y-68802142D01*
X128280461Y-68802142D02*
X128242365Y-68878333D01*
X128242365Y-68878333D02*
X128204270Y-69030714D01*
X128204270Y-69030714D02*
X128166175Y-69106904D01*
X128166175Y-69106904D02*
X128128080Y-69144999D01*
X128128080Y-69144999D02*
X128051889Y-69183095D01*
X128051889Y-69183095D02*
X127975699Y-69183095D01*
X127975699Y-69183095D02*
X127899508Y-69144999D01*
X127899508Y-69144999D02*
X127861413Y-69106904D01*
X127861413Y-69106904D02*
X127823318Y-69030714D01*
X127823318Y-69030714D02*
X127823318Y-68840237D01*
X127823318Y-68840237D02*
X127861413Y-68725952D01*
X128394746Y-68421190D02*
X128394746Y-68040237D01*
X128623318Y-68497380D02*
X127823318Y-68230713D01*
X127823318Y-68230713D02*
X128623318Y-67964047D01*
X128623318Y-67240237D02*
X128242365Y-67506904D01*
X128623318Y-67697380D02*
X127823318Y-67697380D01*
X127823318Y-67697380D02*
X127823318Y-67392618D01*
X127823318Y-67392618D02*
X127861413Y-67316428D01*
X127861413Y-67316428D02*
X127899508Y-67278333D01*
X127899508Y-67278333D02*
X127975699Y-67240237D01*
X127975699Y-67240237D02*
X128089984Y-67240237D01*
X128089984Y-67240237D02*
X128166175Y-67278333D01*
X128166175Y-67278333D02*
X128204270Y-67316428D01*
X128204270Y-67316428D02*
X128242365Y-67392618D01*
X128242365Y-67392618D02*
X128242365Y-67697380D01*
X127823318Y-67011666D02*
X127823318Y-66554523D01*
X128623318Y-66783095D02*
X127823318Y-66783095D01*
X128623318Y-65868809D02*
X128623318Y-66325952D01*
X128623318Y-66097380D02*
X127823318Y-66097380D01*
X127823318Y-66097380D02*
X127937603Y-66173571D01*
X127937603Y-66173571D02*
X128013794Y-66249761D01*
X128013794Y-66249761D02*
X128051889Y-66325952D01*
X129111273Y-68554523D02*
X129111273Y-68097380D01*
X129911273Y-68325952D02*
X129111273Y-68325952D01*
X129111273Y-67906904D02*
X129911273Y-67373570D01*
X129111273Y-67373570D02*
X129911273Y-67906904D01*
X131502533Y-69544999D02*
X131502533Y-68935476D01*
X131807295Y-69240237D02*
X131197771Y-69240237D01*
X131007295Y-68630714D02*
X131007295Y-68135476D01*
X131007295Y-68135476D02*
X131312057Y-68402142D01*
X131312057Y-68402142D02*
X131312057Y-68287857D01*
X131312057Y-68287857D02*
X131350152Y-68211666D01*
X131350152Y-68211666D02*
X131388247Y-68173571D01*
X131388247Y-68173571D02*
X131464438Y-68135476D01*
X131464438Y-68135476D02*
X131654914Y-68135476D01*
X131654914Y-68135476D02*
X131731104Y-68173571D01*
X131731104Y-68173571D02*
X131769200Y-68211666D01*
X131769200Y-68211666D02*
X131807295Y-68287857D01*
X131807295Y-68287857D02*
X131807295Y-68516428D01*
X131807295Y-68516428D02*
X131769200Y-68592619D01*
X131769200Y-68592619D02*
X131731104Y-68630714D01*
X131731104Y-67792618D02*
X131769200Y-67754523D01*
X131769200Y-67754523D02*
X131807295Y-67792618D01*
X131807295Y-67792618D02*
X131769200Y-67830714D01*
X131769200Y-67830714D02*
X131731104Y-67792618D01*
X131731104Y-67792618D02*
X131807295Y-67792618D01*
X131007295Y-67487857D02*
X131007295Y-66992619D01*
X131007295Y-66992619D02*
X131312057Y-67259285D01*
X131312057Y-67259285D02*
X131312057Y-67145000D01*
X131312057Y-67145000D02*
X131350152Y-67068809D01*
X131350152Y-67068809D02*
X131388247Y-67030714D01*
X131388247Y-67030714D02*
X131464438Y-66992619D01*
X131464438Y-66992619D02*
X131654914Y-66992619D01*
X131654914Y-66992619D02*
X131731104Y-67030714D01*
X131731104Y-67030714D02*
X131769200Y-67068809D01*
X131769200Y-67068809D02*
X131807295Y-67145000D01*
X131807295Y-67145000D02*
X131807295Y-67373571D01*
X131807295Y-67373571D02*
X131769200Y-67449762D01*
X131769200Y-67449762D02*
X131731104Y-67487857D01*
X131007295Y-66764047D02*
X131807295Y-66497380D01*
X131807295Y-66497380D02*
X131007295Y-66230714D01*
X133928247Y-70146228D02*
X133966342Y-70031942D01*
X133966342Y-70031942D02*
X134004438Y-69993847D01*
X134004438Y-69993847D02*
X134080628Y-69955751D01*
X134080628Y-69955751D02*
X134194914Y-69955751D01*
X134194914Y-69955751D02*
X134271104Y-69993847D01*
X134271104Y-69993847D02*
X134309200Y-70031942D01*
X134309200Y-70031942D02*
X134347295Y-70108132D01*
X134347295Y-70108132D02*
X134347295Y-70412894D01*
X134347295Y-70412894D02*
X133547295Y-70412894D01*
X133547295Y-70412894D02*
X133547295Y-70146228D01*
X133547295Y-70146228D02*
X133585390Y-70070037D01*
X133585390Y-70070037D02*
X133623485Y-70031942D01*
X133623485Y-70031942D02*
X133699676Y-69993847D01*
X133699676Y-69993847D02*
X133775866Y-69993847D01*
X133775866Y-69993847D02*
X133852057Y-70031942D01*
X133852057Y-70031942D02*
X133890152Y-70070037D01*
X133890152Y-70070037D02*
X133928247Y-70146228D01*
X133928247Y-70146228D02*
X133928247Y-70412894D01*
X133547295Y-69460513D02*
X133547295Y-69308132D01*
X133547295Y-69308132D02*
X133585390Y-69231942D01*
X133585390Y-69231942D02*
X133661580Y-69155751D01*
X133661580Y-69155751D02*
X133813961Y-69117656D01*
X133813961Y-69117656D02*
X134080628Y-69117656D01*
X134080628Y-69117656D02*
X134233009Y-69155751D01*
X134233009Y-69155751D02*
X134309200Y-69231942D01*
X134309200Y-69231942D02*
X134347295Y-69308132D01*
X134347295Y-69308132D02*
X134347295Y-69460513D01*
X134347295Y-69460513D02*
X134309200Y-69536704D01*
X134309200Y-69536704D02*
X134233009Y-69612894D01*
X134233009Y-69612894D02*
X134080628Y-69650990D01*
X134080628Y-69650990D02*
X133813961Y-69650990D01*
X133813961Y-69650990D02*
X133661580Y-69612894D01*
X133661580Y-69612894D02*
X133585390Y-69536704D01*
X133585390Y-69536704D02*
X133547295Y-69460513D01*
X133547295Y-68622418D02*
X133547295Y-68470037D01*
X133547295Y-68470037D02*
X133585390Y-68393847D01*
X133585390Y-68393847D02*
X133661580Y-68317656D01*
X133661580Y-68317656D02*
X133813961Y-68279561D01*
X133813961Y-68279561D02*
X134080628Y-68279561D01*
X134080628Y-68279561D02*
X134233009Y-68317656D01*
X134233009Y-68317656D02*
X134309200Y-68393847D01*
X134309200Y-68393847D02*
X134347295Y-68470037D01*
X134347295Y-68470037D02*
X134347295Y-68622418D01*
X134347295Y-68622418D02*
X134309200Y-68698609D01*
X134309200Y-68698609D02*
X134233009Y-68774799D01*
X134233009Y-68774799D02*
X134080628Y-68812895D01*
X134080628Y-68812895D02*
X133813961Y-68812895D01*
X133813961Y-68812895D02*
X133661580Y-68774799D01*
X133661580Y-68774799D02*
X133585390Y-68698609D01*
X133585390Y-68698609D02*
X133547295Y-68622418D01*
X133547295Y-68050990D02*
X133547295Y-67593847D01*
X134347295Y-67822419D02*
X133547295Y-67822419D01*
X134423485Y-67517657D02*
X134423485Y-66908133D01*
X133547295Y-66565275D02*
X133547295Y-66489085D01*
X133547295Y-66489085D02*
X133585390Y-66412894D01*
X133585390Y-66412894D02*
X133623485Y-66374799D01*
X133623485Y-66374799D02*
X133699676Y-66336704D01*
X133699676Y-66336704D02*
X133852057Y-66298609D01*
X133852057Y-66298609D02*
X134042533Y-66298609D01*
X134042533Y-66298609D02*
X134194914Y-66336704D01*
X134194914Y-66336704D02*
X134271104Y-66374799D01*
X134271104Y-66374799D02*
X134309200Y-66412894D01*
X134309200Y-66412894D02*
X134347295Y-66489085D01*
X134347295Y-66489085D02*
X134347295Y-66565275D01*
X134347295Y-66565275D02*
X134309200Y-66641466D01*
X134309200Y-66641466D02*
X134271104Y-66679561D01*
X134271104Y-66679561D02*
X134194914Y-66717656D01*
X134194914Y-66717656D02*
X134042533Y-66755752D01*
X134042533Y-66755752D02*
X133852057Y-66755752D01*
X133852057Y-66755752D02*
X133699676Y-66717656D01*
X133699676Y-66717656D02*
X133623485Y-66679561D01*
X133623485Y-66679561D02*
X133585390Y-66641466D01*
X133585390Y-66641466D02*
X133547295Y-66565275D01*
X116871905Y-88084819D02*
X116871905Y-87084819D01*
X116871905Y-87084819D02*
X117110000Y-87084819D01*
X117110000Y-87084819D02*
X117252857Y-87132438D01*
X117252857Y-87132438D02*
X117348095Y-87227676D01*
X117348095Y-87227676D02*
X117395714Y-87322914D01*
X117395714Y-87322914D02*
X117443333Y-87513390D01*
X117443333Y-87513390D02*
X117443333Y-87656247D01*
X117443333Y-87656247D02*
X117395714Y-87846723D01*
X117395714Y-87846723D02*
X117348095Y-87941961D01*
X117348095Y-87941961D02*
X117252857Y-88037200D01*
X117252857Y-88037200D02*
X117110000Y-88084819D01*
X117110000Y-88084819D02*
X116871905Y-88084819D01*
X118443333Y-87989580D02*
X118395714Y-88037200D01*
X118395714Y-88037200D02*
X118252857Y-88084819D01*
X118252857Y-88084819D02*
X118157619Y-88084819D01*
X118157619Y-88084819D02*
X118014762Y-88037200D01*
X118014762Y-88037200D02*
X117919524Y-87941961D01*
X117919524Y-87941961D02*
X117871905Y-87846723D01*
X117871905Y-87846723D02*
X117824286Y-87656247D01*
X117824286Y-87656247D02*
X117824286Y-87513390D01*
X117824286Y-87513390D02*
X117871905Y-87322914D01*
X117871905Y-87322914D02*
X117919524Y-87227676D01*
X117919524Y-87227676D02*
X118014762Y-87132438D01*
X118014762Y-87132438D02*
X118157619Y-87084819D01*
X118157619Y-87084819D02*
X118252857Y-87084819D01*
X118252857Y-87084819D02*
X118395714Y-87132438D01*
X118395714Y-87132438D02*
X118443333Y-87180057D01*
X118824286Y-87180057D02*
X118871905Y-87132438D01*
X118871905Y-87132438D02*
X118967143Y-87084819D01*
X118967143Y-87084819D02*
X119205238Y-87084819D01*
X119205238Y-87084819D02*
X119300476Y-87132438D01*
X119300476Y-87132438D02*
X119348095Y-87180057D01*
X119348095Y-87180057D02*
X119395714Y-87275295D01*
X119395714Y-87275295D02*
X119395714Y-87370533D01*
X119395714Y-87370533D02*
X119348095Y-87513390D01*
X119348095Y-87513390D02*
X118776667Y-88084819D01*
X118776667Y-88084819D02*
X119395714Y-88084819D01*
X117776666Y-84544819D02*
X117776666Y-85259104D01*
X117776666Y-85259104D02*
X117729047Y-85401961D01*
X117729047Y-85401961D02*
X117633809Y-85497200D01*
X117633809Y-85497200D02*
X117490952Y-85544819D01*
X117490952Y-85544819D02*
X117395714Y-85544819D01*
X118729047Y-84544819D02*
X118252857Y-84544819D01*
X118252857Y-84544819D02*
X118205238Y-85021009D01*
X118205238Y-85021009D02*
X118252857Y-84973390D01*
X118252857Y-84973390D02*
X118348095Y-84925771D01*
X118348095Y-84925771D02*
X118586190Y-84925771D01*
X118586190Y-84925771D02*
X118681428Y-84973390D01*
X118681428Y-84973390D02*
X118729047Y-85021009D01*
X118729047Y-85021009D02*
X118776666Y-85116247D01*
X118776666Y-85116247D02*
X118776666Y-85354342D01*
X118776666Y-85354342D02*
X118729047Y-85449580D01*
X118729047Y-85449580D02*
X118681428Y-85497200D01*
X118681428Y-85497200D02*
X118586190Y-85544819D01*
X118586190Y-85544819D02*
X118348095Y-85544819D01*
X118348095Y-85544819D02*
X118252857Y-85497200D01*
X118252857Y-85497200D02*
X118205238Y-85449580D01*
X117752857Y-82004819D02*
X117752857Y-82719104D01*
X117752857Y-82719104D02*
X117705238Y-82861961D01*
X117705238Y-82861961D02*
X117610000Y-82957200D01*
X117610000Y-82957200D02*
X117467143Y-83004819D01*
X117467143Y-83004819D02*
X117371905Y-83004819D01*
X118800476Y-82909580D02*
X118752857Y-82957200D01*
X118752857Y-82957200D02*
X118610000Y-83004819D01*
X118610000Y-83004819D02*
X118514762Y-83004819D01*
X118514762Y-83004819D02*
X118371905Y-82957200D01*
X118371905Y-82957200D02*
X118276667Y-82861961D01*
X118276667Y-82861961D02*
X118229048Y-82766723D01*
X118229048Y-82766723D02*
X118181429Y-82576247D01*
X118181429Y-82576247D02*
X118181429Y-82433390D01*
X118181429Y-82433390D02*
X118229048Y-82242914D01*
X118229048Y-82242914D02*
X118276667Y-82147676D01*
X118276667Y-82147676D02*
X118371905Y-82052438D01*
X118371905Y-82052438D02*
X118514762Y-82004819D01*
X118514762Y-82004819D02*
X118610000Y-82004819D01*
X118610000Y-82004819D02*
X118752857Y-82052438D01*
X118752857Y-82052438D02*
X118800476Y-82100057D01*
X114482857Y-80417200D02*
X114625714Y-80464819D01*
X114625714Y-80464819D02*
X114863809Y-80464819D01*
X114863809Y-80464819D02*
X114959047Y-80417200D01*
X114959047Y-80417200D02*
X115006666Y-80369580D01*
X115006666Y-80369580D02*
X115054285Y-80274342D01*
X115054285Y-80274342D02*
X115054285Y-80179104D01*
X115054285Y-80179104D02*
X115006666Y-80083866D01*
X115006666Y-80083866D02*
X114959047Y-80036247D01*
X114959047Y-80036247D02*
X114863809Y-79988628D01*
X114863809Y-79988628D02*
X114673333Y-79941009D01*
X114673333Y-79941009D02*
X114578095Y-79893390D01*
X114578095Y-79893390D02*
X114530476Y-79845771D01*
X114530476Y-79845771D02*
X114482857Y-79750533D01*
X114482857Y-79750533D02*
X114482857Y-79655295D01*
X114482857Y-79655295D02*
X114530476Y-79560057D01*
X114530476Y-79560057D02*
X114578095Y-79512438D01*
X114578095Y-79512438D02*
X114673333Y-79464819D01*
X114673333Y-79464819D02*
X114911428Y-79464819D01*
X114911428Y-79464819D02*
X115054285Y-79512438D01*
X115673333Y-79464819D02*
X115863809Y-79464819D01*
X115863809Y-79464819D02*
X115959047Y-79512438D01*
X115959047Y-79512438D02*
X116054285Y-79607676D01*
X116054285Y-79607676D02*
X116101904Y-79798152D01*
X116101904Y-79798152D02*
X116101904Y-80131485D01*
X116101904Y-80131485D02*
X116054285Y-80321961D01*
X116054285Y-80321961D02*
X115959047Y-80417200D01*
X115959047Y-80417200D02*
X115863809Y-80464819D01*
X115863809Y-80464819D02*
X115673333Y-80464819D01*
X115673333Y-80464819D02*
X115578095Y-80417200D01*
X115578095Y-80417200D02*
X115482857Y-80321961D01*
X115482857Y-80321961D02*
X115435238Y-80131485D01*
X115435238Y-80131485D02*
X115435238Y-79798152D01*
X115435238Y-79798152D02*
X115482857Y-79607676D01*
X115482857Y-79607676D02*
X115578095Y-79512438D01*
X115578095Y-79512438D02*
X115673333Y-79464819D01*
X116530476Y-79464819D02*
X116530476Y-80274342D01*
X116530476Y-80274342D02*
X116578095Y-80369580D01*
X116578095Y-80369580D02*
X116625714Y-80417200D01*
X116625714Y-80417200D02*
X116720952Y-80464819D01*
X116720952Y-80464819D02*
X116911428Y-80464819D01*
X116911428Y-80464819D02*
X117006666Y-80417200D01*
X117006666Y-80417200D02*
X117054285Y-80369580D01*
X117054285Y-80369580D02*
X117101904Y-80274342D01*
X117101904Y-80274342D02*
X117101904Y-79464819D01*
X117578095Y-80464819D02*
X117578095Y-79464819D01*
X117578095Y-79464819D02*
X118149523Y-80464819D01*
X118149523Y-80464819D02*
X118149523Y-79464819D01*
X118625714Y-80464819D02*
X118625714Y-79464819D01*
X118625714Y-79464819D02*
X118863809Y-79464819D01*
X118863809Y-79464819D02*
X119006666Y-79512438D01*
X119006666Y-79512438D02*
X119101904Y-79607676D01*
X119101904Y-79607676D02*
X119149523Y-79702914D01*
X119149523Y-79702914D02*
X119197142Y-79893390D01*
X119197142Y-79893390D02*
X119197142Y-80036247D01*
X119197142Y-80036247D02*
X119149523Y-80226723D01*
X119149523Y-80226723D02*
X119101904Y-80321961D01*
X119101904Y-80321961D02*
X119006666Y-80417200D01*
X119006666Y-80417200D02*
X118863809Y-80464819D01*
X118863809Y-80464819D02*
X118625714Y-80464819D01*
X117348095Y-77877200D02*
X117490952Y-77924819D01*
X117490952Y-77924819D02*
X117729047Y-77924819D01*
X117729047Y-77924819D02*
X117824285Y-77877200D01*
X117824285Y-77877200D02*
X117871904Y-77829580D01*
X117871904Y-77829580D02*
X117919523Y-77734342D01*
X117919523Y-77734342D02*
X117919523Y-77639104D01*
X117919523Y-77639104D02*
X117871904Y-77543866D01*
X117871904Y-77543866D02*
X117824285Y-77496247D01*
X117824285Y-77496247D02*
X117729047Y-77448628D01*
X117729047Y-77448628D02*
X117538571Y-77401009D01*
X117538571Y-77401009D02*
X117443333Y-77353390D01*
X117443333Y-77353390D02*
X117395714Y-77305771D01*
X117395714Y-77305771D02*
X117348095Y-77210533D01*
X117348095Y-77210533D02*
X117348095Y-77115295D01*
X117348095Y-77115295D02*
X117395714Y-77020057D01*
X117395714Y-77020057D02*
X117443333Y-76972438D01*
X117443333Y-76972438D02*
X117538571Y-76924819D01*
X117538571Y-76924819D02*
X117776666Y-76924819D01*
X117776666Y-76924819D02*
X117919523Y-76972438D01*
X118538571Y-76924819D02*
X118633809Y-76924819D01*
X118633809Y-76924819D02*
X118729047Y-76972438D01*
X118729047Y-76972438D02*
X118776666Y-77020057D01*
X118776666Y-77020057D02*
X118824285Y-77115295D01*
X118824285Y-77115295D02*
X118871904Y-77305771D01*
X118871904Y-77305771D02*
X118871904Y-77543866D01*
X118871904Y-77543866D02*
X118824285Y-77734342D01*
X118824285Y-77734342D02*
X118776666Y-77829580D01*
X118776666Y-77829580D02*
X118729047Y-77877200D01*
X118729047Y-77877200D02*
X118633809Y-77924819D01*
X118633809Y-77924819D02*
X118538571Y-77924819D01*
X118538571Y-77924819D02*
X118443333Y-77877200D01*
X118443333Y-77877200D02*
X118395714Y-77829580D01*
X118395714Y-77829580D02*
X118348095Y-77734342D01*
X118348095Y-77734342D02*
X118300476Y-77543866D01*
X118300476Y-77543866D02*
X118300476Y-77305771D01*
X118300476Y-77305771D02*
X118348095Y-77115295D01*
X118348095Y-77115295D02*
X118395714Y-77020057D01*
X118395714Y-77020057D02*
X118443333Y-76972438D01*
X118443333Y-76972438D02*
X118538571Y-76924819D01*
X117348095Y-75337200D02*
X117490952Y-75384819D01*
X117490952Y-75384819D02*
X117729047Y-75384819D01*
X117729047Y-75384819D02*
X117824285Y-75337200D01*
X117824285Y-75337200D02*
X117871904Y-75289580D01*
X117871904Y-75289580D02*
X117919523Y-75194342D01*
X117919523Y-75194342D02*
X117919523Y-75099104D01*
X117919523Y-75099104D02*
X117871904Y-75003866D01*
X117871904Y-75003866D02*
X117824285Y-74956247D01*
X117824285Y-74956247D02*
X117729047Y-74908628D01*
X117729047Y-74908628D02*
X117538571Y-74861009D01*
X117538571Y-74861009D02*
X117443333Y-74813390D01*
X117443333Y-74813390D02*
X117395714Y-74765771D01*
X117395714Y-74765771D02*
X117348095Y-74670533D01*
X117348095Y-74670533D02*
X117348095Y-74575295D01*
X117348095Y-74575295D02*
X117395714Y-74480057D01*
X117395714Y-74480057D02*
X117443333Y-74432438D01*
X117443333Y-74432438D02*
X117538571Y-74384819D01*
X117538571Y-74384819D02*
X117776666Y-74384819D01*
X117776666Y-74384819D02*
X117919523Y-74432438D01*
X118871904Y-75384819D02*
X118300476Y-75384819D01*
X118586190Y-75384819D02*
X118586190Y-74384819D01*
X118586190Y-74384819D02*
X118490952Y-74527676D01*
X118490952Y-74527676D02*
X118395714Y-74622914D01*
X118395714Y-74622914D02*
X118300476Y-74670533D01*
X123425390Y-58394523D02*
X123387295Y-58470713D01*
X123387295Y-58470713D02*
X123387295Y-58584999D01*
X123387295Y-58584999D02*
X123425390Y-58699285D01*
X123425390Y-58699285D02*
X123501580Y-58775475D01*
X123501580Y-58775475D02*
X123577771Y-58813570D01*
X123577771Y-58813570D02*
X123730152Y-58851666D01*
X123730152Y-58851666D02*
X123844438Y-58851666D01*
X123844438Y-58851666D02*
X123996819Y-58813570D01*
X123996819Y-58813570D02*
X124073009Y-58775475D01*
X124073009Y-58775475D02*
X124149200Y-58699285D01*
X124149200Y-58699285D02*
X124187295Y-58584999D01*
X124187295Y-58584999D02*
X124187295Y-58508808D01*
X124187295Y-58508808D02*
X124149200Y-58394523D01*
X124149200Y-58394523D02*
X124111104Y-58356427D01*
X124111104Y-58356427D02*
X123844438Y-58356427D01*
X123844438Y-58356427D02*
X123844438Y-58508808D01*
X124187295Y-58013570D02*
X123387295Y-58013570D01*
X123387295Y-58013570D02*
X124187295Y-57556427D01*
X124187295Y-57556427D02*
X123387295Y-57556427D01*
X124187295Y-57175475D02*
X123387295Y-57175475D01*
X123387295Y-57175475D02*
X123387295Y-56984999D01*
X123387295Y-56984999D02*
X123425390Y-56870713D01*
X123425390Y-56870713D02*
X123501580Y-56794523D01*
X123501580Y-56794523D02*
X123577771Y-56756428D01*
X123577771Y-56756428D02*
X123730152Y-56718332D01*
X123730152Y-56718332D02*
X123844438Y-56718332D01*
X123844438Y-56718332D02*
X123996819Y-56756428D01*
X123996819Y-56756428D02*
X124073009Y-56794523D01*
X124073009Y-56794523D02*
X124149200Y-56870713D01*
X124149200Y-56870713D02*
X124187295Y-56984999D01*
X124187295Y-56984999D02*
X124187295Y-57175475D01*
X167539719Y-91752306D02*
X168254004Y-91752306D01*
X168254004Y-91752306D02*
X168396861Y-91799925D01*
X168396861Y-91799925D02*
X168492100Y-91895163D01*
X168492100Y-91895163D02*
X168539719Y-92038020D01*
X168539719Y-92038020D02*
X168539719Y-92133258D01*
X168539719Y-90799925D02*
X168539719Y-91276115D01*
X168539719Y-91276115D02*
X167539719Y-91276115D01*
X168444480Y-89895163D02*
X168492100Y-89942782D01*
X168492100Y-89942782D02*
X168539719Y-90085639D01*
X168539719Y-90085639D02*
X168539719Y-90180877D01*
X168539719Y-90180877D02*
X168492100Y-90323734D01*
X168492100Y-90323734D02*
X168396861Y-90418972D01*
X168396861Y-90418972D02*
X168301623Y-90466591D01*
X168301623Y-90466591D02*
X168111147Y-90514210D01*
X168111147Y-90514210D02*
X167968290Y-90514210D01*
X167968290Y-90514210D02*
X167777814Y-90466591D01*
X167777814Y-90466591D02*
X167682576Y-90418972D01*
X167682576Y-90418972D02*
X167587338Y-90323734D01*
X167587338Y-90323734D02*
X167539719Y-90180877D01*
X167539719Y-90180877D02*
X167539719Y-90085639D01*
X167539719Y-90085639D02*
X167587338Y-89942782D01*
X167587338Y-89942782D02*
X167634957Y-89895163D01*
X167539719Y-89180877D02*
X168254004Y-89180877D01*
X168254004Y-89180877D02*
X168396861Y-89228496D01*
X168396861Y-89228496D02*
X168492100Y-89323734D01*
X168492100Y-89323734D02*
X168539719Y-89466591D01*
X168539719Y-89466591D02*
X168539719Y-89561829D01*
X168539719Y-88228496D02*
X168539719Y-88704686D01*
X168539719Y-88704686D02*
X167539719Y-88704686D01*
X168444480Y-87323734D02*
X168492100Y-87371353D01*
X168492100Y-87371353D02*
X168539719Y-87514210D01*
X168539719Y-87514210D02*
X168539719Y-87609448D01*
X168539719Y-87609448D02*
X168492100Y-87752305D01*
X168492100Y-87752305D02*
X168396861Y-87847543D01*
X168396861Y-87847543D02*
X168301623Y-87895162D01*
X168301623Y-87895162D02*
X168111147Y-87942781D01*
X168111147Y-87942781D02*
X167968290Y-87942781D01*
X167968290Y-87942781D02*
X167777814Y-87895162D01*
X167777814Y-87895162D02*
X167682576Y-87847543D01*
X167682576Y-87847543D02*
X167587338Y-87752305D01*
X167587338Y-87752305D02*
X167539719Y-87609448D01*
X167539719Y-87609448D02*
X167539719Y-87514210D01*
X167539719Y-87514210D02*
X167587338Y-87371353D01*
X167587338Y-87371353D02*
X167634957Y-87323734D01*
X167539719Y-86609448D02*
X168254004Y-86609448D01*
X168254004Y-86609448D02*
X168396861Y-86657067D01*
X168396861Y-86657067D02*
X168492100Y-86752305D01*
X168492100Y-86752305D02*
X168539719Y-86895162D01*
X168539719Y-86895162D02*
X168539719Y-86990400D01*
X168539719Y-85657067D02*
X168539719Y-86133257D01*
X168539719Y-86133257D02*
X167539719Y-86133257D01*
X168444480Y-84752305D02*
X168492100Y-84799924D01*
X168492100Y-84799924D02*
X168539719Y-84942781D01*
X168539719Y-84942781D02*
X168539719Y-85038019D01*
X168539719Y-85038019D02*
X168492100Y-85180876D01*
X168492100Y-85180876D02*
X168396861Y-85276114D01*
X168396861Y-85276114D02*
X168301623Y-85323733D01*
X168301623Y-85323733D02*
X168111147Y-85371352D01*
X168111147Y-85371352D02*
X167968290Y-85371352D01*
X167968290Y-85371352D02*
X167777814Y-85323733D01*
X167777814Y-85323733D02*
X167682576Y-85276114D01*
X167682576Y-85276114D02*
X167587338Y-85180876D01*
X167587338Y-85180876D02*
X167539719Y-85038019D01*
X167539719Y-85038019D02*
X167539719Y-84942781D01*
X167539719Y-84942781D02*
X167587338Y-84799924D01*
X167587338Y-84799924D02*
X167634957Y-84752305D01*
X167539719Y-84038019D02*
X168254004Y-84038019D01*
X168254004Y-84038019D02*
X168396861Y-84085638D01*
X168396861Y-84085638D02*
X168492100Y-84180876D01*
X168492100Y-84180876D02*
X168539719Y-84323733D01*
X168539719Y-84323733D02*
X168539719Y-84418971D01*
X168539719Y-83085638D02*
X168539719Y-83561828D01*
X168539719Y-83561828D02*
X167539719Y-83561828D01*
X168444480Y-82180876D02*
X168492100Y-82228495D01*
X168492100Y-82228495D02*
X168539719Y-82371352D01*
X168539719Y-82371352D02*
X168539719Y-82466590D01*
X168539719Y-82466590D02*
X168492100Y-82609447D01*
X168492100Y-82609447D02*
X168396861Y-82704685D01*
X168396861Y-82704685D02*
X168301623Y-82752304D01*
X168301623Y-82752304D02*
X168111147Y-82799923D01*
X168111147Y-82799923D02*
X167968290Y-82799923D01*
X167968290Y-82799923D02*
X167777814Y-82752304D01*
X167777814Y-82752304D02*
X167682576Y-82704685D01*
X167682576Y-82704685D02*
X167587338Y-82609447D01*
X167587338Y-82609447D02*
X167539719Y-82466590D01*
X167539719Y-82466590D02*
X167539719Y-82371352D01*
X167539719Y-82371352D02*
X167587338Y-82228495D01*
X167587338Y-82228495D02*
X167634957Y-82180876D01*
X116871905Y-90624819D02*
X116871905Y-89624819D01*
X116871905Y-89624819D02*
X117110000Y-89624819D01*
X117110000Y-89624819D02*
X117252857Y-89672438D01*
X117252857Y-89672438D02*
X117348095Y-89767676D01*
X117348095Y-89767676D02*
X117395714Y-89862914D01*
X117395714Y-89862914D02*
X117443333Y-90053390D01*
X117443333Y-90053390D02*
X117443333Y-90196247D01*
X117443333Y-90196247D02*
X117395714Y-90386723D01*
X117395714Y-90386723D02*
X117348095Y-90481961D01*
X117348095Y-90481961D02*
X117252857Y-90577200D01*
X117252857Y-90577200D02*
X117110000Y-90624819D01*
X117110000Y-90624819D02*
X116871905Y-90624819D01*
X118443333Y-90529580D02*
X118395714Y-90577200D01*
X118395714Y-90577200D02*
X118252857Y-90624819D01*
X118252857Y-90624819D02*
X118157619Y-90624819D01*
X118157619Y-90624819D02*
X118014762Y-90577200D01*
X118014762Y-90577200D02*
X117919524Y-90481961D01*
X117919524Y-90481961D02*
X117871905Y-90386723D01*
X117871905Y-90386723D02*
X117824286Y-90196247D01*
X117824286Y-90196247D02*
X117824286Y-90053390D01*
X117824286Y-90053390D02*
X117871905Y-89862914D01*
X117871905Y-89862914D02*
X117919524Y-89767676D01*
X117919524Y-89767676D02*
X118014762Y-89672438D01*
X118014762Y-89672438D02*
X118157619Y-89624819D01*
X118157619Y-89624819D02*
X118252857Y-89624819D01*
X118252857Y-89624819D02*
X118395714Y-89672438D01*
X118395714Y-89672438D02*
X118443333Y-89720057D01*
X119395714Y-90624819D02*
X118824286Y-90624819D01*
X119110000Y-90624819D02*
X119110000Y-89624819D01*
X119110000Y-89624819D02*
X119014762Y-89767676D01*
X119014762Y-89767676D02*
X118919524Y-89862914D01*
X118919524Y-89862914D02*
X118824286Y-89910533D01*
X147265137Y-108634675D02*
X147455613Y-108634675D01*
X147455613Y-108634675D02*
X147550851Y-108682294D01*
X147550851Y-108682294D02*
X147646089Y-108777532D01*
X147646089Y-108777532D02*
X147693708Y-108968008D01*
X147693708Y-108968008D02*
X147693708Y-109301341D01*
X147693708Y-109301341D02*
X147646089Y-109491817D01*
X147646089Y-109491817D02*
X147550851Y-109587056D01*
X147550851Y-109587056D02*
X147455613Y-109634675D01*
X147455613Y-109634675D02*
X147265137Y-109634675D01*
X147265137Y-109634675D02*
X147169899Y-109587056D01*
X147169899Y-109587056D02*
X147074661Y-109491817D01*
X147074661Y-109491817D02*
X147027042Y-109301341D01*
X147027042Y-109301341D02*
X147027042Y-108968008D01*
X147027042Y-108968008D02*
X147074661Y-108777532D01*
X147074661Y-108777532D02*
X147169899Y-108682294D01*
X147169899Y-108682294D02*
X147265137Y-108634675D01*
X148598470Y-109634675D02*
X148122280Y-109634675D01*
X148122280Y-109634675D02*
X148122280Y-108634675D01*
X148931804Y-109110865D02*
X149265137Y-109110865D01*
X149407994Y-109634675D02*
X148931804Y-109634675D01*
X148931804Y-109634675D02*
X148931804Y-108634675D01*
X148931804Y-108634675D02*
X149407994Y-108634675D01*
X149836566Y-109634675D02*
X149836566Y-108634675D01*
X149836566Y-108634675D02*
X150074661Y-108634675D01*
X150074661Y-108634675D02*
X150217518Y-108682294D01*
X150217518Y-108682294D02*
X150312756Y-108777532D01*
X150312756Y-108777532D02*
X150360375Y-108872770D01*
X150360375Y-108872770D02*
X150407994Y-109063246D01*
X150407994Y-109063246D02*
X150407994Y-109206103D01*
X150407994Y-109206103D02*
X150360375Y-109396579D01*
X150360375Y-109396579D02*
X150312756Y-109491817D01*
X150312756Y-109491817D02*
X150217518Y-109587056D01*
X150217518Y-109587056D02*
X150074661Y-109634675D01*
X150074661Y-109634675D02*
X149836566Y-109634675D01*
X151598471Y-109634675D02*
X151598471Y-108634675D01*
X151598471Y-108634675D02*
X151836566Y-108634675D01*
X151836566Y-108634675D02*
X151979423Y-108682294D01*
X151979423Y-108682294D02*
X152074661Y-108777532D01*
X152074661Y-108777532D02*
X152122280Y-108872770D01*
X152122280Y-108872770D02*
X152169899Y-109063246D01*
X152169899Y-109063246D02*
X152169899Y-109206103D01*
X152169899Y-109206103D02*
X152122280Y-109396579D01*
X152122280Y-109396579D02*
X152074661Y-109491817D01*
X152074661Y-109491817D02*
X151979423Y-109587056D01*
X151979423Y-109587056D02*
X151836566Y-109634675D01*
X151836566Y-109634675D02*
X151598471Y-109634675D01*
X152598471Y-109634675D02*
X152598471Y-108968008D01*
X152598471Y-108634675D02*
X152550852Y-108682294D01*
X152550852Y-108682294D02*
X152598471Y-108729913D01*
X152598471Y-108729913D02*
X152646090Y-108682294D01*
X152646090Y-108682294D02*
X152598471Y-108634675D01*
X152598471Y-108634675D02*
X152598471Y-108729913D01*
X153027042Y-109587056D02*
X153122280Y-109634675D01*
X153122280Y-109634675D02*
X153312756Y-109634675D01*
X153312756Y-109634675D02*
X153407994Y-109587056D01*
X153407994Y-109587056D02*
X153455613Y-109491817D01*
X153455613Y-109491817D02*
X153455613Y-109444198D01*
X153455613Y-109444198D02*
X153407994Y-109348960D01*
X153407994Y-109348960D02*
X153312756Y-109301341D01*
X153312756Y-109301341D02*
X153169899Y-109301341D01*
X153169899Y-109301341D02*
X153074661Y-109253722D01*
X153074661Y-109253722D02*
X153027042Y-109158484D01*
X153027042Y-109158484D02*
X153027042Y-109110865D01*
X153027042Y-109110865D02*
X153074661Y-109015627D01*
X153074661Y-109015627D02*
X153169899Y-108968008D01*
X153169899Y-108968008D02*
X153312756Y-108968008D01*
X153312756Y-108968008D02*
X153407994Y-109015627D01*
X153884185Y-108968008D02*
X153884185Y-109968008D01*
X153884185Y-109015627D02*
X153979423Y-108968008D01*
X153979423Y-108968008D02*
X154169899Y-108968008D01*
X154169899Y-108968008D02*
X154265137Y-109015627D01*
X154265137Y-109015627D02*
X154312756Y-109063246D01*
X154312756Y-109063246D02*
X154360375Y-109158484D01*
X154360375Y-109158484D02*
X154360375Y-109444198D01*
X154360375Y-109444198D02*
X154312756Y-109539436D01*
X154312756Y-109539436D02*
X154265137Y-109587056D01*
X154265137Y-109587056D02*
X154169899Y-109634675D01*
X154169899Y-109634675D02*
X153979423Y-109634675D01*
X153979423Y-109634675D02*
X153884185Y-109587056D01*
X154931804Y-109634675D02*
X154836566Y-109587056D01*
X154836566Y-109587056D02*
X154788947Y-109491817D01*
X154788947Y-109491817D02*
X154788947Y-108634675D01*
X155741328Y-109634675D02*
X155741328Y-109110865D01*
X155741328Y-109110865D02*
X155693709Y-109015627D01*
X155693709Y-109015627D02*
X155598471Y-108968008D01*
X155598471Y-108968008D02*
X155407995Y-108968008D01*
X155407995Y-108968008D02*
X155312757Y-109015627D01*
X155741328Y-109587056D02*
X155646090Y-109634675D01*
X155646090Y-109634675D02*
X155407995Y-109634675D01*
X155407995Y-109634675D02*
X155312757Y-109587056D01*
X155312757Y-109587056D02*
X155265138Y-109491817D01*
X155265138Y-109491817D02*
X155265138Y-109396579D01*
X155265138Y-109396579D02*
X155312757Y-109301341D01*
X155312757Y-109301341D02*
X155407995Y-109253722D01*
X155407995Y-109253722D02*
X155646090Y-109253722D01*
X155646090Y-109253722D02*
X155741328Y-109206103D01*
X156122281Y-108968008D02*
X156360376Y-109634675D01*
X156598471Y-108968008D02*
X156360376Y-109634675D01*
X156360376Y-109634675D02*
X156265138Y-109872770D01*
X156265138Y-109872770D02*
X156217519Y-109920389D01*
X156217519Y-109920389D02*
X156122281Y-109968008D01*
X147550852Y-110244619D02*
X147646090Y-110244619D01*
X147646090Y-110244619D02*
X147741328Y-110292238D01*
X147741328Y-110292238D02*
X147788947Y-110339857D01*
X147788947Y-110339857D02*
X147836566Y-110435095D01*
X147836566Y-110435095D02*
X147884185Y-110625571D01*
X147884185Y-110625571D02*
X147884185Y-110863666D01*
X147884185Y-110863666D02*
X147836566Y-111054142D01*
X147836566Y-111054142D02*
X147788947Y-111149380D01*
X147788947Y-111149380D02*
X147741328Y-111197000D01*
X147741328Y-111197000D02*
X147646090Y-111244619D01*
X147646090Y-111244619D02*
X147550852Y-111244619D01*
X147550852Y-111244619D02*
X147455614Y-111197000D01*
X147455614Y-111197000D02*
X147407995Y-111149380D01*
X147407995Y-111149380D02*
X147360376Y-111054142D01*
X147360376Y-111054142D02*
X147312757Y-110863666D01*
X147312757Y-110863666D02*
X147312757Y-110625571D01*
X147312757Y-110625571D02*
X147360376Y-110435095D01*
X147360376Y-110435095D02*
X147407995Y-110339857D01*
X147407995Y-110339857D02*
X147455614Y-110292238D01*
X147455614Y-110292238D02*
X147550852Y-110244619D01*
X148312757Y-111149380D02*
X148360376Y-111197000D01*
X148360376Y-111197000D02*
X148312757Y-111244619D01*
X148312757Y-111244619D02*
X148265138Y-111197000D01*
X148265138Y-111197000D02*
X148312757Y-111149380D01*
X148312757Y-111149380D02*
X148312757Y-111244619D01*
X148836566Y-111244619D02*
X149027042Y-111244619D01*
X149027042Y-111244619D02*
X149122280Y-111197000D01*
X149122280Y-111197000D02*
X149169899Y-111149380D01*
X149169899Y-111149380D02*
X149265137Y-111006523D01*
X149265137Y-111006523D02*
X149312756Y-110816047D01*
X149312756Y-110816047D02*
X149312756Y-110435095D01*
X149312756Y-110435095D02*
X149265137Y-110339857D01*
X149265137Y-110339857D02*
X149217518Y-110292238D01*
X149217518Y-110292238D02*
X149122280Y-110244619D01*
X149122280Y-110244619D02*
X148931804Y-110244619D01*
X148931804Y-110244619D02*
X148836566Y-110292238D01*
X148836566Y-110292238D02*
X148788947Y-110339857D01*
X148788947Y-110339857D02*
X148741328Y-110435095D01*
X148741328Y-110435095D02*
X148741328Y-110673190D01*
X148741328Y-110673190D02*
X148788947Y-110768428D01*
X148788947Y-110768428D02*
X148836566Y-110816047D01*
X148836566Y-110816047D02*
X148931804Y-110863666D01*
X148931804Y-110863666D02*
X149122280Y-110863666D01*
X149122280Y-110863666D02*
X149217518Y-110816047D01*
X149217518Y-110816047D02*
X149265137Y-110768428D01*
X149265137Y-110768428D02*
X149312756Y-110673190D01*
X150265137Y-111244619D02*
X149693709Y-111244619D01*
X149979423Y-111244619D02*
X149979423Y-110244619D01*
X149979423Y-110244619D02*
X149884185Y-110387476D01*
X149884185Y-110387476D02*
X149788947Y-110482714D01*
X149788947Y-110482714D02*
X149693709Y-110530333D01*
X150646090Y-110244619D02*
X150646090Y-110435095D01*
X151027042Y-110244619D02*
X151027042Y-110435095D01*
X152217519Y-111244619D02*
X152217519Y-110244619D01*
X152217519Y-110244619D02*
X152550852Y-110958904D01*
X152550852Y-110958904D02*
X152884185Y-110244619D01*
X152884185Y-110244619D02*
X152884185Y-111244619D01*
X153503233Y-111244619D02*
X153407995Y-111197000D01*
X153407995Y-111197000D02*
X153360376Y-111149380D01*
X153360376Y-111149380D02*
X153312757Y-111054142D01*
X153312757Y-111054142D02*
X153312757Y-110768428D01*
X153312757Y-110768428D02*
X153360376Y-110673190D01*
X153360376Y-110673190D02*
X153407995Y-110625571D01*
X153407995Y-110625571D02*
X153503233Y-110577952D01*
X153503233Y-110577952D02*
X153646090Y-110577952D01*
X153646090Y-110577952D02*
X153741328Y-110625571D01*
X153741328Y-110625571D02*
X153788947Y-110673190D01*
X153788947Y-110673190D02*
X153836566Y-110768428D01*
X153836566Y-110768428D02*
X153836566Y-111054142D01*
X153836566Y-111054142D02*
X153788947Y-111149380D01*
X153788947Y-111149380D02*
X153741328Y-111197000D01*
X153741328Y-111197000D02*
X153646090Y-111244619D01*
X153646090Y-111244619D02*
X153503233Y-111244619D01*
X154693709Y-111244619D02*
X154693709Y-110244619D01*
X154693709Y-111197000D02*
X154598471Y-111244619D01*
X154598471Y-111244619D02*
X154407995Y-111244619D01*
X154407995Y-111244619D02*
X154312757Y-111197000D01*
X154312757Y-111197000D02*
X154265138Y-111149380D01*
X154265138Y-111149380D02*
X154217519Y-111054142D01*
X154217519Y-111054142D02*
X154217519Y-110768428D01*
X154217519Y-110768428D02*
X154265138Y-110673190D01*
X154265138Y-110673190D02*
X154312757Y-110625571D01*
X154312757Y-110625571D02*
X154407995Y-110577952D01*
X154407995Y-110577952D02*
X154598471Y-110577952D01*
X154598471Y-110577952D02*
X154693709Y-110625571D01*
X155598471Y-110577952D02*
X155598471Y-111244619D01*
X155169900Y-110577952D02*
X155169900Y-111101761D01*
X155169900Y-111101761D02*
X155217519Y-111197000D01*
X155217519Y-111197000D02*
X155312757Y-111244619D01*
X155312757Y-111244619D02*
X155455614Y-111244619D01*
X155455614Y-111244619D02*
X155550852Y-111197000D01*
X155550852Y-111197000D02*
X155598471Y-111149380D01*
X156217519Y-111244619D02*
X156122281Y-111197000D01*
X156122281Y-111197000D02*
X156074662Y-111101761D01*
X156074662Y-111101761D02*
X156074662Y-110244619D01*
X156979424Y-111197000D02*
X156884186Y-111244619D01*
X156884186Y-111244619D02*
X156693710Y-111244619D01*
X156693710Y-111244619D02*
X156598472Y-111197000D01*
X156598472Y-111197000D02*
X156550853Y-111101761D01*
X156550853Y-111101761D02*
X156550853Y-110720809D01*
X156550853Y-110720809D02*
X156598472Y-110625571D01*
X156598472Y-110625571D02*
X156693710Y-110577952D01*
X156693710Y-110577952D02*
X156884186Y-110577952D01*
X156884186Y-110577952D02*
X156979424Y-110625571D01*
X156979424Y-110625571D02*
X157027043Y-110720809D01*
X157027043Y-110720809D02*
X157027043Y-110816047D01*
X157027043Y-110816047D02*
X156550853Y-110911285D01*
X136788947Y-100055809D02*
X136931804Y-100103428D01*
X136931804Y-100103428D02*
X136979423Y-100151047D01*
X136979423Y-100151047D02*
X137027042Y-100246285D01*
X137027042Y-100246285D02*
X137027042Y-100389142D01*
X137027042Y-100389142D02*
X136979423Y-100484380D01*
X136979423Y-100484380D02*
X136931804Y-100532000D01*
X136931804Y-100532000D02*
X136836566Y-100579619D01*
X136836566Y-100579619D02*
X136455614Y-100579619D01*
X136455614Y-100579619D02*
X136455614Y-99579619D01*
X136455614Y-99579619D02*
X136788947Y-99579619D01*
X136788947Y-99579619D02*
X136884185Y-99627238D01*
X136884185Y-99627238D02*
X136931804Y-99674857D01*
X136931804Y-99674857D02*
X136979423Y-99770095D01*
X136979423Y-99770095D02*
X136979423Y-99865333D01*
X136979423Y-99865333D02*
X136931804Y-99960571D01*
X136931804Y-99960571D02*
X136884185Y-100008190D01*
X136884185Y-100008190D02*
X136788947Y-100055809D01*
X136788947Y-100055809D02*
X136455614Y-100055809D01*
X137360376Y-99579619D02*
X138027042Y-99579619D01*
X138027042Y-99579619D02*
X137360376Y-100579619D01*
X137360376Y-100579619D02*
X138027042Y-100579619D01*
X138931804Y-100579619D02*
X138360376Y-100579619D01*
X138646090Y-100579619D02*
X138646090Y-99579619D01*
X138646090Y-99579619D02*
X138550852Y-99722476D01*
X138550852Y-99722476D02*
X138455614Y-99817714D01*
X138455614Y-99817714D02*
X138360376Y-99865333D01*
X140548948Y-109738666D02*
X141310853Y-109738666D01*
X140929900Y-110119619D02*
X140929900Y-109357714D01*
X140548948Y-109738666D02*
X141310853Y-109738666D01*
X140929900Y-110119619D02*
X140929900Y-109357714D01*
X152029480Y-87541466D02*
X152077100Y-87589085D01*
X152077100Y-87589085D02*
X152124719Y-87731942D01*
X152124719Y-87731942D02*
X152124719Y-87827180D01*
X152124719Y-87827180D02*
X152077100Y-87970037D01*
X152077100Y-87970037D02*
X151981861Y-88065275D01*
X151981861Y-88065275D02*
X151886623Y-88112894D01*
X151886623Y-88112894D02*
X151696147Y-88160513D01*
X151696147Y-88160513D02*
X151553290Y-88160513D01*
X151553290Y-88160513D02*
X151362814Y-88112894D01*
X151362814Y-88112894D02*
X151267576Y-88065275D01*
X151267576Y-88065275D02*
X151172338Y-87970037D01*
X151172338Y-87970037D02*
X151124719Y-87827180D01*
X151124719Y-87827180D02*
X151124719Y-87731942D01*
X151124719Y-87731942D02*
X151172338Y-87589085D01*
X151172338Y-87589085D02*
X151219957Y-87541466D01*
X152124719Y-86589085D02*
X152124719Y-87160513D01*
X152124719Y-86874799D02*
X151124719Y-86874799D01*
X151124719Y-86874799D02*
X151267576Y-86970037D01*
X151267576Y-86970037D02*
X151362814Y-87065275D01*
X151362814Y-87065275D02*
X151410433Y-87160513D01*
X137779480Y-92291466D02*
X137827100Y-92339085D01*
X137827100Y-92339085D02*
X137874719Y-92481942D01*
X137874719Y-92481942D02*
X137874719Y-92577180D01*
X137874719Y-92577180D02*
X137827100Y-92720037D01*
X137827100Y-92720037D02*
X137731861Y-92815275D01*
X137731861Y-92815275D02*
X137636623Y-92862894D01*
X137636623Y-92862894D02*
X137446147Y-92910513D01*
X137446147Y-92910513D02*
X137303290Y-92910513D01*
X137303290Y-92910513D02*
X137112814Y-92862894D01*
X137112814Y-92862894D02*
X137017576Y-92815275D01*
X137017576Y-92815275D02*
X136922338Y-92720037D01*
X136922338Y-92720037D02*
X136874719Y-92577180D01*
X136874719Y-92577180D02*
X136874719Y-92481942D01*
X136874719Y-92481942D02*
X136922338Y-92339085D01*
X136922338Y-92339085D02*
X136969957Y-92291466D01*
X136969957Y-91910513D02*
X136922338Y-91862894D01*
X136922338Y-91862894D02*
X136874719Y-91767656D01*
X136874719Y-91767656D02*
X136874719Y-91529561D01*
X136874719Y-91529561D02*
X136922338Y-91434323D01*
X136922338Y-91434323D02*
X136969957Y-91386704D01*
X136969957Y-91386704D02*
X137065195Y-91339085D01*
X137065195Y-91339085D02*
X137160433Y-91339085D01*
X137160433Y-91339085D02*
X137303290Y-91386704D01*
X137303290Y-91386704D02*
X137874719Y-91958132D01*
X137874719Y-91958132D02*
X137874719Y-91339085D01*
X137278233Y-71484380D02*
X137230614Y-71532000D01*
X137230614Y-71532000D02*
X137087757Y-71579619D01*
X137087757Y-71579619D02*
X136992519Y-71579619D01*
X136992519Y-71579619D02*
X136849662Y-71532000D01*
X136849662Y-71532000D02*
X136754424Y-71436761D01*
X136754424Y-71436761D02*
X136706805Y-71341523D01*
X136706805Y-71341523D02*
X136659186Y-71151047D01*
X136659186Y-71151047D02*
X136659186Y-71008190D01*
X136659186Y-71008190D02*
X136706805Y-70817714D01*
X136706805Y-70817714D02*
X136754424Y-70722476D01*
X136754424Y-70722476D02*
X136849662Y-70627238D01*
X136849662Y-70627238D02*
X136992519Y-70579619D01*
X136992519Y-70579619D02*
X137087757Y-70579619D01*
X137087757Y-70579619D02*
X137230614Y-70627238D01*
X137230614Y-70627238D02*
X137278233Y-70674857D01*
X138135376Y-70912952D02*
X138135376Y-71579619D01*
X137897281Y-70532000D02*
X137659186Y-71246285D01*
X137659186Y-71246285D02*
X138278233Y-71246285D01*
X143556380Y-90336666D02*
X143604000Y-90384285D01*
X143604000Y-90384285D02*
X143651619Y-90527142D01*
X143651619Y-90527142D02*
X143651619Y-90622380D01*
X143651619Y-90622380D02*
X143604000Y-90765237D01*
X143604000Y-90765237D02*
X143508761Y-90860475D01*
X143508761Y-90860475D02*
X143413523Y-90908094D01*
X143413523Y-90908094D02*
X143223047Y-90955713D01*
X143223047Y-90955713D02*
X143080190Y-90955713D01*
X143080190Y-90955713D02*
X142889714Y-90908094D01*
X142889714Y-90908094D02*
X142794476Y-90860475D01*
X142794476Y-90860475D02*
X142699238Y-90765237D01*
X142699238Y-90765237D02*
X142651619Y-90622380D01*
X142651619Y-90622380D02*
X142651619Y-90527142D01*
X142651619Y-90527142D02*
X142699238Y-90384285D01*
X142699238Y-90384285D02*
X142746857Y-90336666D01*
X142651619Y-89431904D02*
X142651619Y-89908094D01*
X142651619Y-89908094D02*
X143127809Y-89955713D01*
X143127809Y-89955713D02*
X143080190Y-89908094D01*
X143080190Y-89908094D02*
X143032571Y-89812856D01*
X143032571Y-89812856D02*
X143032571Y-89574761D01*
X143032571Y-89574761D02*
X143080190Y-89479523D01*
X143080190Y-89479523D02*
X143127809Y-89431904D01*
X143127809Y-89431904D02*
X143223047Y-89384285D01*
X143223047Y-89384285D02*
X143461142Y-89384285D01*
X143461142Y-89384285D02*
X143556380Y-89431904D01*
X143556380Y-89431904D02*
X143604000Y-89479523D01*
X143604000Y-89479523D02*
X143651619Y-89574761D01*
X143651619Y-89574761D02*
X143651619Y-89812856D01*
X143651619Y-89812856D02*
X143604000Y-89908094D01*
X143604000Y-89908094D02*
X143556380Y-89955713D01*
X147315580Y-90336666D02*
X147363200Y-90384285D01*
X147363200Y-90384285D02*
X147410819Y-90527142D01*
X147410819Y-90527142D02*
X147410819Y-90622380D01*
X147410819Y-90622380D02*
X147363200Y-90765237D01*
X147363200Y-90765237D02*
X147267961Y-90860475D01*
X147267961Y-90860475D02*
X147172723Y-90908094D01*
X147172723Y-90908094D02*
X146982247Y-90955713D01*
X146982247Y-90955713D02*
X146839390Y-90955713D01*
X146839390Y-90955713D02*
X146648914Y-90908094D01*
X146648914Y-90908094D02*
X146553676Y-90860475D01*
X146553676Y-90860475D02*
X146458438Y-90765237D01*
X146458438Y-90765237D02*
X146410819Y-90622380D01*
X146410819Y-90622380D02*
X146410819Y-90527142D01*
X146410819Y-90527142D02*
X146458438Y-90384285D01*
X146458438Y-90384285D02*
X146506057Y-90336666D01*
X146410819Y-89479523D02*
X146410819Y-89669999D01*
X146410819Y-89669999D02*
X146458438Y-89765237D01*
X146458438Y-89765237D02*
X146506057Y-89812856D01*
X146506057Y-89812856D02*
X146648914Y-89908094D01*
X146648914Y-89908094D02*
X146839390Y-89955713D01*
X146839390Y-89955713D02*
X147220342Y-89955713D01*
X147220342Y-89955713D02*
X147315580Y-89908094D01*
X147315580Y-89908094D02*
X147363200Y-89860475D01*
X147363200Y-89860475D02*
X147410819Y-89765237D01*
X147410819Y-89765237D02*
X147410819Y-89574761D01*
X147410819Y-89574761D02*
X147363200Y-89479523D01*
X147363200Y-89479523D02*
X147315580Y-89431904D01*
X147315580Y-89431904D02*
X147220342Y-89384285D01*
X147220342Y-89384285D02*
X146982247Y-89384285D01*
X146982247Y-89384285D02*
X146887009Y-89431904D01*
X146887009Y-89431904D02*
X146839390Y-89479523D01*
X146839390Y-89479523D02*
X146791771Y-89574761D01*
X146791771Y-89574761D02*
X146791771Y-89765237D01*
X146791771Y-89765237D02*
X146839390Y-89860475D01*
X146839390Y-89860475D02*
X146887009Y-89908094D01*
X146887009Y-89908094D02*
X146982247Y-89955713D01*
X99029480Y-64541466D02*
X99077100Y-64589085D01*
X99077100Y-64589085D02*
X99124719Y-64731942D01*
X99124719Y-64731942D02*
X99124719Y-64827180D01*
X99124719Y-64827180D02*
X99077100Y-64970037D01*
X99077100Y-64970037D02*
X98981861Y-65065275D01*
X98981861Y-65065275D02*
X98886623Y-65112894D01*
X98886623Y-65112894D02*
X98696147Y-65160513D01*
X98696147Y-65160513D02*
X98553290Y-65160513D01*
X98553290Y-65160513D02*
X98362814Y-65112894D01*
X98362814Y-65112894D02*
X98267576Y-65065275D01*
X98267576Y-65065275D02*
X98172338Y-64970037D01*
X98172338Y-64970037D02*
X98124719Y-64827180D01*
X98124719Y-64827180D02*
X98124719Y-64731942D01*
X98124719Y-64731942D02*
X98172338Y-64589085D01*
X98172338Y-64589085D02*
X98219957Y-64541466D01*
X98124719Y-64208132D02*
X98124719Y-63541466D01*
X98124719Y-63541466D02*
X99124719Y-63970037D01*
X137529480Y-84041466D02*
X137577100Y-84089085D01*
X137577100Y-84089085D02*
X137624719Y-84231942D01*
X137624719Y-84231942D02*
X137624719Y-84327180D01*
X137624719Y-84327180D02*
X137577100Y-84470037D01*
X137577100Y-84470037D02*
X137481861Y-84565275D01*
X137481861Y-84565275D02*
X137386623Y-84612894D01*
X137386623Y-84612894D02*
X137196147Y-84660513D01*
X137196147Y-84660513D02*
X137053290Y-84660513D01*
X137053290Y-84660513D02*
X136862814Y-84612894D01*
X136862814Y-84612894D02*
X136767576Y-84565275D01*
X136767576Y-84565275D02*
X136672338Y-84470037D01*
X136672338Y-84470037D02*
X136624719Y-84327180D01*
X136624719Y-84327180D02*
X136624719Y-84231942D01*
X136624719Y-84231942D02*
X136672338Y-84089085D01*
X136672338Y-84089085D02*
X136719957Y-84041466D01*
X137053290Y-83470037D02*
X137005671Y-83565275D01*
X137005671Y-83565275D02*
X136958052Y-83612894D01*
X136958052Y-83612894D02*
X136862814Y-83660513D01*
X136862814Y-83660513D02*
X136815195Y-83660513D01*
X136815195Y-83660513D02*
X136719957Y-83612894D01*
X136719957Y-83612894D02*
X136672338Y-83565275D01*
X136672338Y-83565275D02*
X136624719Y-83470037D01*
X136624719Y-83470037D02*
X136624719Y-83279561D01*
X136624719Y-83279561D02*
X136672338Y-83184323D01*
X136672338Y-83184323D02*
X136719957Y-83136704D01*
X136719957Y-83136704D02*
X136815195Y-83089085D01*
X136815195Y-83089085D02*
X136862814Y-83089085D01*
X136862814Y-83089085D02*
X136958052Y-83136704D01*
X136958052Y-83136704D02*
X137005671Y-83184323D01*
X137005671Y-83184323D02*
X137053290Y-83279561D01*
X137053290Y-83279561D02*
X137053290Y-83470037D01*
X137053290Y-83470037D02*
X137100909Y-83565275D01*
X137100909Y-83565275D02*
X137148528Y-83612894D01*
X137148528Y-83612894D02*
X137243766Y-83660513D01*
X137243766Y-83660513D02*
X137434242Y-83660513D01*
X137434242Y-83660513D02*
X137529480Y-83612894D01*
X137529480Y-83612894D02*
X137577100Y-83565275D01*
X137577100Y-83565275D02*
X137624719Y-83470037D01*
X137624719Y-83470037D02*
X137624719Y-83279561D01*
X137624719Y-83279561D02*
X137577100Y-83184323D01*
X137577100Y-83184323D02*
X137529480Y-83136704D01*
X137529480Y-83136704D02*
X137434242Y-83089085D01*
X137434242Y-83089085D02*
X137243766Y-83089085D01*
X137243766Y-83089085D02*
X137148528Y-83136704D01*
X137148528Y-83136704D02*
X137100909Y-83184323D01*
X137100909Y-83184323D02*
X137053290Y-83279561D01*
X153529480Y-65541466D02*
X153577100Y-65589085D01*
X153577100Y-65589085D02*
X153624719Y-65731942D01*
X153624719Y-65731942D02*
X153624719Y-65827180D01*
X153624719Y-65827180D02*
X153577100Y-65970037D01*
X153577100Y-65970037D02*
X153481861Y-66065275D01*
X153481861Y-66065275D02*
X153386623Y-66112894D01*
X153386623Y-66112894D02*
X153196147Y-66160513D01*
X153196147Y-66160513D02*
X153053290Y-66160513D01*
X153053290Y-66160513D02*
X152862814Y-66112894D01*
X152862814Y-66112894D02*
X152767576Y-66065275D01*
X152767576Y-66065275D02*
X152672338Y-65970037D01*
X152672338Y-65970037D02*
X152624719Y-65827180D01*
X152624719Y-65827180D02*
X152624719Y-65731942D01*
X152624719Y-65731942D02*
X152672338Y-65589085D01*
X152672338Y-65589085D02*
X152719957Y-65541466D01*
X153624719Y-65065275D02*
X153624719Y-64874799D01*
X153624719Y-64874799D02*
X153577100Y-64779561D01*
X153577100Y-64779561D02*
X153529480Y-64731942D01*
X153529480Y-64731942D02*
X153386623Y-64636704D01*
X153386623Y-64636704D02*
X153196147Y-64589085D01*
X153196147Y-64589085D02*
X152815195Y-64589085D01*
X152815195Y-64589085D02*
X152719957Y-64636704D01*
X152719957Y-64636704D02*
X152672338Y-64684323D01*
X152672338Y-64684323D02*
X152624719Y-64779561D01*
X152624719Y-64779561D02*
X152624719Y-64970037D01*
X152624719Y-64970037D02*
X152672338Y-65065275D01*
X152672338Y-65065275D02*
X152719957Y-65112894D01*
X152719957Y-65112894D02*
X152815195Y-65160513D01*
X152815195Y-65160513D02*
X153053290Y-65160513D01*
X153053290Y-65160513D02*
X153148528Y-65112894D01*
X153148528Y-65112894D02*
X153196147Y-65065275D01*
X153196147Y-65065275D02*
X153243766Y-64970037D01*
X153243766Y-64970037D02*
X153243766Y-64779561D01*
X153243766Y-64779561D02*
X153196147Y-64684323D01*
X153196147Y-64684323D02*
X153148528Y-64636704D01*
X153148528Y-64636704D02*
X153053290Y-64589085D01*
X103279480Y-70267657D02*
X103327100Y-70315276D01*
X103327100Y-70315276D02*
X103374719Y-70458133D01*
X103374719Y-70458133D02*
X103374719Y-70553371D01*
X103374719Y-70553371D02*
X103327100Y-70696228D01*
X103327100Y-70696228D02*
X103231861Y-70791466D01*
X103231861Y-70791466D02*
X103136623Y-70839085D01*
X103136623Y-70839085D02*
X102946147Y-70886704D01*
X102946147Y-70886704D02*
X102803290Y-70886704D01*
X102803290Y-70886704D02*
X102612814Y-70839085D01*
X102612814Y-70839085D02*
X102517576Y-70791466D01*
X102517576Y-70791466D02*
X102422338Y-70696228D01*
X102422338Y-70696228D02*
X102374719Y-70553371D01*
X102374719Y-70553371D02*
X102374719Y-70458133D01*
X102374719Y-70458133D02*
X102422338Y-70315276D01*
X102422338Y-70315276D02*
X102469957Y-70267657D01*
X103374719Y-69315276D02*
X103374719Y-69886704D01*
X103374719Y-69600990D02*
X102374719Y-69600990D01*
X102374719Y-69600990D02*
X102517576Y-69696228D01*
X102517576Y-69696228D02*
X102612814Y-69791466D01*
X102612814Y-69791466D02*
X102660433Y-69886704D01*
X102374719Y-68696228D02*
X102374719Y-68600990D01*
X102374719Y-68600990D02*
X102422338Y-68505752D01*
X102422338Y-68505752D02*
X102469957Y-68458133D01*
X102469957Y-68458133D02*
X102565195Y-68410514D01*
X102565195Y-68410514D02*
X102755671Y-68362895D01*
X102755671Y-68362895D02*
X102993766Y-68362895D01*
X102993766Y-68362895D02*
X103184242Y-68410514D01*
X103184242Y-68410514D02*
X103279480Y-68458133D01*
X103279480Y-68458133D02*
X103327100Y-68505752D01*
X103327100Y-68505752D02*
X103374719Y-68600990D01*
X103374719Y-68600990D02*
X103374719Y-68696228D01*
X103374719Y-68696228D02*
X103327100Y-68791466D01*
X103327100Y-68791466D02*
X103279480Y-68839085D01*
X103279480Y-68839085D02*
X103184242Y-68886704D01*
X103184242Y-68886704D02*
X102993766Y-68934323D01*
X102993766Y-68934323D02*
X102755671Y-68934323D01*
X102755671Y-68934323D02*
X102565195Y-68886704D01*
X102565195Y-68886704D02*
X102469957Y-68839085D01*
X102469957Y-68839085D02*
X102422338Y-68791466D01*
X102422338Y-68791466D02*
X102374719Y-68696228D01*
X109779480Y-70517657D02*
X109827100Y-70565276D01*
X109827100Y-70565276D02*
X109874719Y-70708133D01*
X109874719Y-70708133D02*
X109874719Y-70803371D01*
X109874719Y-70803371D02*
X109827100Y-70946228D01*
X109827100Y-70946228D02*
X109731861Y-71041466D01*
X109731861Y-71041466D02*
X109636623Y-71089085D01*
X109636623Y-71089085D02*
X109446147Y-71136704D01*
X109446147Y-71136704D02*
X109303290Y-71136704D01*
X109303290Y-71136704D02*
X109112814Y-71089085D01*
X109112814Y-71089085D02*
X109017576Y-71041466D01*
X109017576Y-71041466D02*
X108922338Y-70946228D01*
X108922338Y-70946228D02*
X108874719Y-70803371D01*
X108874719Y-70803371D02*
X108874719Y-70708133D01*
X108874719Y-70708133D02*
X108922338Y-70565276D01*
X108922338Y-70565276D02*
X108969957Y-70517657D01*
X109874719Y-69565276D02*
X109874719Y-70136704D01*
X109874719Y-69850990D02*
X108874719Y-69850990D01*
X108874719Y-69850990D02*
X109017576Y-69946228D01*
X109017576Y-69946228D02*
X109112814Y-70041466D01*
X109112814Y-70041466D02*
X109160433Y-70136704D01*
X109874719Y-68612895D02*
X109874719Y-69184323D01*
X109874719Y-68898609D02*
X108874719Y-68898609D01*
X108874719Y-68898609D02*
X109017576Y-68993847D01*
X109017576Y-68993847D02*
X109112814Y-69089085D01*
X109112814Y-69089085D02*
X109160433Y-69184323D01*
X134529480Y-100017657D02*
X134577100Y-100065276D01*
X134577100Y-100065276D02*
X134624719Y-100208133D01*
X134624719Y-100208133D02*
X134624719Y-100303371D01*
X134624719Y-100303371D02*
X134577100Y-100446228D01*
X134577100Y-100446228D02*
X134481861Y-100541466D01*
X134481861Y-100541466D02*
X134386623Y-100589085D01*
X134386623Y-100589085D02*
X134196147Y-100636704D01*
X134196147Y-100636704D02*
X134053290Y-100636704D01*
X134053290Y-100636704D02*
X133862814Y-100589085D01*
X133862814Y-100589085D02*
X133767576Y-100541466D01*
X133767576Y-100541466D02*
X133672338Y-100446228D01*
X133672338Y-100446228D02*
X133624719Y-100303371D01*
X133624719Y-100303371D02*
X133624719Y-100208133D01*
X133624719Y-100208133D02*
X133672338Y-100065276D01*
X133672338Y-100065276D02*
X133719957Y-100017657D01*
X134624719Y-99065276D02*
X134624719Y-99636704D01*
X134624719Y-99350990D02*
X133624719Y-99350990D01*
X133624719Y-99350990D02*
X133767576Y-99446228D01*
X133767576Y-99446228D02*
X133862814Y-99541466D01*
X133862814Y-99541466D02*
X133910433Y-99636704D01*
X133719957Y-98684323D02*
X133672338Y-98636704D01*
X133672338Y-98636704D02*
X133624719Y-98541466D01*
X133624719Y-98541466D02*
X133624719Y-98303371D01*
X133624719Y-98303371D02*
X133672338Y-98208133D01*
X133672338Y-98208133D02*
X133719957Y-98160514D01*
X133719957Y-98160514D02*
X133815195Y-98112895D01*
X133815195Y-98112895D02*
X133910433Y-98112895D01*
X133910433Y-98112895D02*
X134053290Y-98160514D01*
X134053290Y-98160514D02*
X134624719Y-98731942D01*
X134624719Y-98731942D02*
X134624719Y-98112895D01*
X159752042Y-100034380D02*
X159704423Y-100082000D01*
X159704423Y-100082000D02*
X159561566Y-100129619D01*
X159561566Y-100129619D02*
X159466328Y-100129619D01*
X159466328Y-100129619D02*
X159323471Y-100082000D01*
X159323471Y-100082000D02*
X159228233Y-99986761D01*
X159228233Y-99986761D02*
X159180614Y-99891523D01*
X159180614Y-99891523D02*
X159132995Y-99701047D01*
X159132995Y-99701047D02*
X159132995Y-99558190D01*
X159132995Y-99558190D02*
X159180614Y-99367714D01*
X159180614Y-99367714D02*
X159228233Y-99272476D01*
X159228233Y-99272476D02*
X159323471Y-99177238D01*
X159323471Y-99177238D02*
X159466328Y-99129619D01*
X159466328Y-99129619D02*
X159561566Y-99129619D01*
X159561566Y-99129619D02*
X159704423Y-99177238D01*
X159704423Y-99177238D02*
X159752042Y-99224857D01*
X160704423Y-100129619D02*
X160132995Y-100129619D01*
X160418709Y-100129619D02*
X160418709Y-99129619D01*
X160418709Y-99129619D02*
X160323471Y-99272476D01*
X160323471Y-99272476D02*
X160228233Y-99367714D01*
X160228233Y-99367714D02*
X160132995Y-99415333D01*
X161037757Y-99129619D02*
X161656804Y-99129619D01*
X161656804Y-99129619D02*
X161323471Y-99510571D01*
X161323471Y-99510571D02*
X161466328Y-99510571D01*
X161466328Y-99510571D02*
X161561566Y-99558190D01*
X161561566Y-99558190D02*
X161609185Y-99605809D01*
X161609185Y-99605809D02*
X161656804Y-99701047D01*
X161656804Y-99701047D02*
X161656804Y-99939142D01*
X161656804Y-99939142D02*
X161609185Y-100034380D01*
X161609185Y-100034380D02*
X161561566Y-100082000D01*
X161561566Y-100082000D02*
X161466328Y-100129619D01*
X161466328Y-100129619D02*
X161180614Y-100129619D01*
X161180614Y-100129619D02*
X161085376Y-100082000D01*
X161085376Y-100082000D02*
X161037757Y-100034380D01*
X112931805Y-99579619D02*
X112931805Y-98579619D01*
X112931805Y-98579619D02*
X113169900Y-98579619D01*
X113169900Y-98579619D02*
X113312757Y-98627238D01*
X113312757Y-98627238D02*
X113407995Y-98722476D01*
X113407995Y-98722476D02*
X113455614Y-98817714D01*
X113455614Y-98817714D02*
X113503233Y-99008190D01*
X113503233Y-99008190D02*
X113503233Y-99151047D01*
X113503233Y-99151047D02*
X113455614Y-99341523D01*
X113455614Y-99341523D02*
X113407995Y-99436761D01*
X113407995Y-99436761D02*
X113312757Y-99532000D01*
X113312757Y-99532000D02*
X113169900Y-99579619D01*
X113169900Y-99579619D02*
X112931805Y-99579619D01*
X113884186Y-98674857D02*
X113931805Y-98627238D01*
X113931805Y-98627238D02*
X114027043Y-98579619D01*
X114027043Y-98579619D02*
X114265138Y-98579619D01*
X114265138Y-98579619D02*
X114360376Y-98627238D01*
X114360376Y-98627238D02*
X114407995Y-98674857D01*
X114407995Y-98674857D02*
X114455614Y-98770095D01*
X114455614Y-98770095D02*
X114455614Y-98865333D01*
X114455614Y-98865333D02*
X114407995Y-99008190D01*
X114407995Y-99008190D02*
X113836567Y-99579619D01*
X113836567Y-99579619D02*
X114455614Y-99579619D01*
X165336566Y-79079619D02*
X165336566Y-79793904D01*
X165336566Y-79793904D02*
X165288947Y-79936761D01*
X165288947Y-79936761D02*
X165193709Y-80032000D01*
X165193709Y-80032000D02*
X165050852Y-80079619D01*
X165050852Y-80079619D02*
X164955614Y-80079619D01*
X165717519Y-79079619D02*
X166336566Y-79079619D01*
X166336566Y-79079619D02*
X166003233Y-79460571D01*
X166003233Y-79460571D02*
X166146090Y-79460571D01*
X166146090Y-79460571D02*
X166241328Y-79508190D01*
X166241328Y-79508190D02*
X166288947Y-79555809D01*
X166288947Y-79555809D02*
X166336566Y-79651047D01*
X166336566Y-79651047D02*
X166336566Y-79889142D01*
X166336566Y-79889142D02*
X166288947Y-79984380D01*
X166288947Y-79984380D02*
X166241328Y-80032000D01*
X166241328Y-80032000D02*
X166146090Y-80079619D01*
X166146090Y-80079619D02*
X165860376Y-80079619D01*
X165860376Y-80079619D02*
X165765138Y-80032000D01*
X165765138Y-80032000D02*
X165717519Y-79984380D01*
X120949819Y-63198333D02*
X121664104Y-63198333D01*
X121664104Y-63198333D02*
X121806961Y-63245952D01*
X121806961Y-63245952D02*
X121902200Y-63341190D01*
X121902200Y-63341190D02*
X121949819Y-63484047D01*
X121949819Y-63484047D02*
X121949819Y-63579285D01*
X120949819Y-62245952D02*
X120949819Y-62722142D01*
X120949819Y-62722142D02*
X121426009Y-62769761D01*
X121426009Y-62769761D02*
X121378390Y-62722142D01*
X121378390Y-62722142D02*
X121330771Y-62626904D01*
X121330771Y-62626904D02*
X121330771Y-62388809D01*
X121330771Y-62388809D02*
X121378390Y-62293571D01*
X121378390Y-62293571D02*
X121426009Y-62245952D01*
X121426009Y-62245952D02*
X121521247Y-62198333D01*
X121521247Y-62198333D02*
X121759342Y-62198333D01*
X121759342Y-62198333D02*
X121854580Y-62245952D01*
X121854580Y-62245952D02*
X121902200Y-62293571D01*
X121902200Y-62293571D02*
X121949819Y-62388809D01*
X121949819Y-62388809D02*
X121949819Y-62626904D01*
X121949819Y-62626904D02*
X121902200Y-62722142D01*
X121902200Y-62722142D02*
X121854580Y-62769761D01*
X128809761Y-108005057D02*
X128714523Y-107957438D01*
X128714523Y-107957438D02*
X128619285Y-107862200D01*
X128619285Y-107862200D02*
X128476428Y-107719342D01*
X128476428Y-107719342D02*
X128381190Y-107671723D01*
X128381190Y-107671723D02*
X128285952Y-107671723D01*
X128333571Y-107909819D02*
X128238333Y-107862200D01*
X128238333Y-107862200D02*
X128143095Y-107766961D01*
X128143095Y-107766961D02*
X128095476Y-107576485D01*
X128095476Y-107576485D02*
X128095476Y-107243152D01*
X128095476Y-107243152D02*
X128143095Y-107052676D01*
X128143095Y-107052676D02*
X128238333Y-106957438D01*
X128238333Y-106957438D02*
X128333571Y-106909819D01*
X128333571Y-106909819D02*
X128524047Y-106909819D01*
X128524047Y-106909819D02*
X128619285Y-106957438D01*
X128619285Y-106957438D02*
X128714523Y-107052676D01*
X128714523Y-107052676D02*
X128762142Y-107243152D01*
X128762142Y-107243152D02*
X128762142Y-107576485D01*
X128762142Y-107576485D02*
X128714523Y-107766961D01*
X128714523Y-107766961D02*
X128619285Y-107862200D01*
X128619285Y-107862200D02*
X128524047Y-107909819D01*
X128524047Y-107909819D02*
X128333571Y-107909819D01*
X129714523Y-107909819D02*
X129143095Y-107909819D01*
X129428809Y-107909819D02*
X129428809Y-106909819D01*
X129428809Y-106909819D02*
X129333571Y-107052676D01*
X129333571Y-107052676D02*
X129238333Y-107147914D01*
X129238333Y-107147914D02*
X129143095Y-107195533D01*
X107854761Y-73674857D02*
X107759523Y-73627238D01*
X107759523Y-73627238D02*
X107664285Y-73532000D01*
X107664285Y-73532000D02*
X107521428Y-73389142D01*
X107521428Y-73389142D02*
X107426190Y-73341523D01*
X107426190Y-73341523D02*
X107330952Y-73341523D01*
X107378571Y-73579619D02*
X107283333Y-73532000D01*
X107283333Y-73532000D02*
X107188095Y-73436761D01*
X107188095Y-73436761D02*
X107140476Y-73246285D01*
X107140476Y-73246285D02*
X107140476Y-72912952D01*
X107140476Y-72912952D02*
X107188095Y-72722476D01*
X107188095Y-72722476D02*
X107283333Y-72627238D01*
X107283333Y-72627238D02*
X107378571Y-72579619D01*
X107378571Y-72579619D02*
X107569047Y-72579619D01*
X107569047Y-72579619D02*
X107664285Y-72627238D01*
X107664285Y-72627238D02*
X107759523Y-72722476D01*
X107759523Y-72722476D02*
X107807142Y-72912952D01*
X107807142Y-72912952D02*
X107807142Y-73246285D01*
X107807142Y-73246285D02*
X107759523Y-73436761D01*
X107759523Y-73436761D02*
X107664285Y-73532000D01*
X107664285Y-73532000D02*
X107569047Y-73579619D01*
X107569047Y-73579619D02*
X107378571Y-73579619D01*
X108188095Y-72674857D02*
X108235714Y-72627238D01*
X108235714Y-72627238D02*
X108330952Y-72579619D01*
X108330952Y-72579619D02*
X108569047Y-72579619D01*
X108569047Y-72579619D02*
X108664285Y-72627238D01*
X108664285Y-72627238D02*
X108711904Y-72674857D01*
X108711904Y-72674857D02*
X108759523Y-72770095D01*
X108759523Y-72770095D02*
X108759523Y-72865333D01*
X108759523Y-72865333D02*
X108711904Y-73008190D01*
X108711904Y-73008190D02*
X108140476Y-73579619D01*
X108140476Y-73579619D02*
X108759523Y-73579619D01*
X107854761Y-79424857D02*
X107759523Y-79377238D01*
X107759523Y-79377238D02*
X107664285Y-79282000D01*
X107664285Y-79282000D02*
X107521428Y-79139142D01*
X107521428Y-79139142D02*
X107426190Y-79091523D01*
X107426190Y-79091523D02*
X107330952Y-79091523D01*
X107378571Y-79329619D02*
X107283333Y-79282000D01*
X107283333Y-79282000D02*
X107188095Y-79186761D01*
X107188095Y-79186761D02*
X107140476Y-78996285D01*
X107140476Y-78996285D02*
X107140476Y-78662952D01*
X107140476Y-78662952D02*
X107188095Y-78472476D01*
X107188095Y-78472476D02*
X107283333Y-78377238D01*
X107283333Y-78377238D02*
X107378571Y-78329619D01*
X107378571Y-78329619D02*
X107569047Y-78329619D01*
X107569047Y-78329619D02*
X107664285Y-78377238D01*
X107664285Y-78377238D02*
X107759523Y-78472476D01*
X107759523Y-78472476D02*
X107807142Y-78662952D01*
X107807142Y-78662952D02*
X107807142Y-78996285D01*
X107807142Y-78996285D02*
X107759523Y-79186761D01*
X107759523Y-79186761D02*
X107664285Y-79282000D01*
X107664285Y-79282000D02*
X107569047Y-79329619D01*
X107569047Y-79329619D02*
X107378571Y-79329619D01*
X108140476Y-78329619D02*
X108759523Y-78329619D01*
X108759523Y-78329619D02*
X108426190Y-78710571D01*
X108426190Y-78710571D02*
X108569047Y-78710571D01*
X108569047Y-78710571D02*
X108664285Y-78758190D01*
X108664285Y-78758190D02*
X108711904Y-78805809D01*
X108711904Y-78805809D02*
X108759523Y-78901047D01*
X108759523Y-78901047D02*
X108759523Y-79139142D01*
X108759523Y-79139142D02*
X108711904Y-79234380D01*
X108711904Y-79234380D02*
X108664285Y-79282000D01*
X108664285Y-79282000D02*
X108569047Y-79329619D01*
X108569047Y-79329619D02*
X108283333Y-79329619D01*
X108283333Y-79329619D02*
X108188095Y-79282000D01*
X108188095Y-79282000D02*
X108140476Y-79234380D01*
X107824661Y-85174857D02*
X107729423Y-85127238D01*
X107729423Y-85127238D02*
X107634185Y-85032000D01*
X107634185Y-85032000D02*
X107491328Y-84889142D01*
X107491328Y-84889142D02*
X107396090Y-84841523D01*
X107396090Y-84841523D02*
X107300852Y-84841523D01*
X107348471Y-85079619D02*
X107253233Y-85032000D01*
X107253233Y-85032000D02*
X107157995Y-84936761D01*
X107157995Y-84936761D02*
X107110376Y-84746285D01*
X107110376Y-84746285D02*
X107110376Y-84412952D01*
X107110376Y-84412952D02*
X107157995Y-84222476D01*
X107157995Y-84222476D02*
X107253233Y-84127238D01*
X107253233Y-84127238D02*
X107348471Y-84079619D01*
X107348471Y-84079619D02*
X107538947Y-84079619D01*
X107538947Y-84079619D02*
X107634185Y-84127238D01*
X107634185Y-84127238D02*
X107729423Y-84222476D01*
X107729423Y-84222476D02*
X107777042Y-84412952D01*
X107777042Y-84412952D02*
X107777042Y-84746285D01*
X107777042Y-84746285D02*
X107729423Y-84936761D01*
X107729423Y-84936761D02*
X107634185Y-85032000D01*
X107634185Y-85032000D02*
X107538947Y-85079619D01*
X107538947Y-85079619D02*
X107348471Y-85079619D01*
X108634185Y-84412952D02*
X108634185Y-85079619D01*
X108396090Y-84032000D02*
X108157995Y-84746285D01*
X108157995Y-84746285D02*
X108777042Y-84746285D01*
X107854761Y-90924857D02*
X107759523Y-90877238D01*
X107759523Y-90877238D02*
X107664285Y-90782000D01*
X107664285Y-90782000D02*
X107521428Y-90639142D01*
X107521428Y-90639142D02*
X107426190Y-90591523D01*
X107426190Y-90591523D02*
X107330952Y-90591523D01*
X107378571Y-90829619D02*
X107283333Y-90782000D01*
X107283333Y-90782000D02*
X107188095Y-90686761D01*
X107188095Y-90686761D02*
X107140476Y-90496285D01*
X107140476Y-90496285D02*
X107140476Y-90162952D01*
X107140476Y-90162952D02*
X107188095Y-89972476D01*
X107188095Y-89972476D02*
X107283333Y-89877238D01*
X107283333Y-89877238D02*
X107378571Y-89829619D01*
X107378571Y-89829619D02*
X107569047Y-89829619D01*
X107569047Y-89829619D02*
X107664285Y-89877238D01*
X107664285Y-89877238D02*
X107759523Y-89972476D01*
X107759523Y-89972476D02*
X107807142Y-90162952D01*
X107807142Y-90162952D02*
X107807142Y-90496285D01*
X107807142Y-90496285D02*
X107759523Y-90686761D01*
X107759523Y-90686761D02*
X107664285Y-90782000D01*
X107664285Y-90782000D02*
X107569047Y-90829619D01*
X107569047Y-90829619D02*
X107378571Y-90829619D01*
X108711904Y-89829619D02*
X108235714Y-89829619D01*
X108235714Y-89829619D02*
X108188095Y-90305809D01*
X108188095Y-90305809D02*
X108235714Y-90258190D01*
X108235714Y-90258190D02*
X108330952Y-90210571D01*
X108330952Y-90210571D02*
X108569047Y-90210571D01*
X108569047Y-90210571D02*
X108664285Y-90258190D01*
X108664285Y-90258190D02*
X108711904Y-90305809D01*
X108711904Y-90305809D02*
X108759523Y-90401047D01*
X108759523Y-90401047D02*
X108759523Y-90639142D01*
X108759523Y-90639142D02*
X108711904Y-90734380D01*
X108711904Y-90734380D02*
X108664285Y-90782000D01*
X108664285Y-90782000D02*
X108569047Y-90829619D01*
X108569047Y-90829619D02*
X108330952Y-90829619D01*
X108330952Y-90829619D02*
X108235714Y-90782000D01*
X108235714Y-90782000D02*
X108188095Y-90734380D01*
X107824661Y-96674857D02*
X107729423Y-96627238D01*
X107729423Y-96627238D02*
X107634185Y-96532000D01*
X107634185Y-96532000D02*
X107491328Y-96389142D01*
X107491328Y-96389142D02*
X107396090Y-96341523D01*
X107396090Y-96341523D02*
X107300852Y-96341523D01*
X107348471Y-96579619D02*
X107253233Y-96532000D01*
X107253233Y-96532000D02*
X107157995Y-96436761D01*
X107157995Y-96436761D02*
X107110376Y-96246285D01*
X107110376Y-96246285D02*
X107110376Y-95912952D01*
X107110376Y-95912952D02*
X107157995Y-95722476D01*
X107157995Y-95722476D02*
X107253233Y-95627238D01*
X107253233Y-95627238D02*
X107348471Y-95579619D01*
X107348471Y-95579619D02*
X107538947Y-95579619D01*
X107538947Y-95579619D02*
X107634185Y-95627238D01*
X107634185Y-95627238D02*
X107729423Y-95722476D01*
X107729423Y-95722476D02*
X107777042Y-95912952D01*
X107777042Y-95912952D02*
X107777042Y-96246285D01*
X107777042Y-96246285D02*
X107729423Y-96436761D01*
X107729423Y-96436761D02*
X107634185Y-96532000D01*
X107634185Y-96532000D02*
X107538947Y-96579619D01*
X107538947Y-96579619D02*
X107348471Y-96579619D01*
X108634185Y-95579619D02*
X108443709Y-95579619D01*
X108443709Y-95579619D02*
X108348471Y-95627238D01*
X108348471Y-95627238D02*
X108300852Y-95674857D01*
X108300852Y-95674857D02*
X108205614Y-95817714D01*
X108205614Y-95817714D02*
X108157995Y-96008190D01*
X108157995Y-96008190D02*
X108157995Y-96389142D01*
X108157995Y-96389142D02*
X108205614Y-96484380D01*
X108205614Y-96484380D02*
X108253233Y-96532000D01*
X108253233Y-96532000D02*
X108348471Y-96579619D01*
X108348471Y-96579619D02*
X108538947Y-96579619D01*
X108538947Y-96579619D02*
X108634185Y-96532000D01*
X108634185Y-96532000D02*
X108681804Y-96484380D01*
X108681804Y-96484380D02*
X108729423Y-96389142D01*
X108729423Y-96389142D02*
X108729423Y-96151047D01*
X108729423Y-96151047D02*
X108681804Y-96055809D01*
X108681804Y-96055809D02*
X108634185Y-96008190D01*
X108634185Y-96008190D02*
X108538947Y-95960571D01*
X108538947Y-95960571D02*
X108348471Y-95960571D01*
X108348471Y-95960571D02*
X108253233Y-96008190D01*
X108253233Y-96008190D02*
X108205614Y-96055809D01*
X108205614Y-96055809D02*
X108157995Y-96151047D01*
X107824661Y-102174857D02*
X107729423Y-102127238D01*
X107729423Y-102127238D02*
X107634185Y-102032000D01*
X107634185Y-102032000D02*
X107491328Y-101889142D01*
X107491328Y-101889142D02*
X107396090Y-101841523D01*
X107396090Y-101841523D02*
X107300852Y-101841523D01*
X107348471Y-102079619D02*
X107253233Y-102032000D01*
X107253233Y-102032000D02*
X107157995Y-101936761D01*
X107157995Y-101936761D02*
X107110376Y-101746285D01*
X107110376Y-101746285D02*
X107110376Y-101412952D01*
X107110376Y-101412952D02*
X107157995Y-101222476D01*
X107157995Y-101222476D02*
X107253233Y-101127238D01*
X107253233Y-101127238D02*
X107348471Y-101079619D01*
X107348471Y-101079619D02*
X107538947Y-101079619D01*
X107538947Y-101079619D02*
X107634185Y-101127238D01*
X107634185Y-101127238D02*
X107729423Y-101222476D01*
X107729423Y-101222476D02*
X107777042Y-101412952D01*
X107777042Y-101412952D02*
X107777042Y-101746285D01*
X107777042Y-101746285D02*
X107729423Y-101936761D01*
X107729423Y-101936761D02*
X107634185Y-102032000D01*
X107634185Y-102032000D02*
X107538947Y-102079619D01*
X107538947Y-102079619D02*
X107348471Y-102079619D01*
X108110376Y-101079619D02*
X108777042Y-101079619D01*
X108777042Y-101079619D02*
X108348471Y-102079619D01*
X134874719Y-92291466D02*
X134398528Y-92624799D01*
X134874719Y-92862894D02*
X133874719Y-92862894D01*
X133874719Y-92862894D02*
X133874719Y-92481942D01*
X133874719Y-92481942D02*
X133922338Y-92386704D01*
X133922338Y-92386704D02*
X133969957Y-92339085D01*
X133969957Y-92339085D02*
X134065195Y-92291466D01*
X134065195Y-92291466D02*
X134208052Y-92291466D01*
X134208052Y-92291466D02*
X134303290Y-92339085D01*
X134303290Y-92339085D02*
X134350909Y-92386704D01*
X134350909Y-92386704D02*
X134398528Y-92481942D01*
X134398528Y-92481942D02*
X134398528Y-92862894D01*
X134874719Y-91339085D02*
X134874719Y-91910513D01*
X134874719Y-91624799D02*
X133874719Y-91624799D01*
X133874719Y-91624799D02*
X134017576Y-91720037D01*
X134017576Y-91720037D02*
X134112814Y-91815275D01*
X134112814Y-91815275D02*
X134160433Y-91910513D01*
X122388333Y-108489819D02*
X122055000Y-108013628D01*
X121816905Y-108489819D02*
X121816905Y-107489819D01*
X121816905Y-107489819D02*
X122197857Y-107489819D01*
X122197857Y-107489819D02*
X122293095Y-107537438D01*
X122293095Y-107537438D02*
X122340714Y-107585057D01*
X122340714Y-107585057D02*
X122388333Y-107680295D01*
X122388333Y-107680295D02*
X122388333Y-107823152D01*
X122388333Y-107823152D02*
X122340714Y-107918390D01*
X122340714Y-107918390D02*
X122293095Y-107966009D01*
X122293095Y-107966009D02*
X122197857Y-108013628D01*
X122197857Y-108013628D02*
X121816905Y-108013628D01*
X122769286Y-107585057D02*
X122816905Y-107537438D01*
X122816905Y-107537438D02*
X122912143Y-107489819D01*
X122912143Y-107489819D02*
X123150238Y-107489819D01*
X123150238Y-107489819D02*
X123245476Y-107537438D01*
X123245476Y-107537438D02*
X123293095Y-107585057D01*
X123293095Y-107585057D02*
X123340714Y-107680295D01*
X123340714Y-107680295D02*
X123340714Y-107775533D01*
X123340714Y-107775533D02*
X123293095Y-107918390D01*
X123293095Y-107918390D02*
X122721667Y-108489819D01*
X122721667Y-108489819D02*
X123340714Y-108489819D01*
X159374719Y-72341466D02*
X158898528Y-72674799D01*
X159374719Y-72912894D02*
X158374719Y-72912894D01*
X158374719Y-72912894D02*
X158374719Y-72531942D01*
X158374719Y-72531942D02*
X158422338Y-72436704D01*
X158422338Y-72436704D02*
X158469957Y-72389085D01*
X158469957Y-72389085D02*
X158565195Y-72341466D01*
X158565195Y-72341466D02*
X158708052Y-72341466D01*
X158708052Y-72341466D02*
X158803290Y-72389085D01*
X158803290Y-72389085D02*
X158850909Y-72436704D01*
X158850909Y-72436704D02*
X158898528Y-72531942D01*
X158898528Y-72531942D02*
X158898528Y-72912894D01*
X158374719Y-72008132D02*
X158374719Y-71389085D01*
X158374719Y-71389085D02*
X158755671Y-71722418D01*
X158755671Y-71722418D02*
X158755671Y-71579561D01*
X158755671Y-71579561D02*
X158803290Y-71484323D01*
X158803290Y-71484323D02*
X158850909Y-71436704D01*
X158850909Y-71436704D02*
X158946147Y-71389085D01*
X158946147Y-71389085D02*
X159184242Y-71389085D01*
X159184242Y-71389085D02*
X159279480Y-71436704D01*
X159279480Y-71436704D02*
X159327100Y-71484323D01*
X159327100Y-71484323D02*
X159374719Y-71579561D01*
X159374719Y-71579561D02*
X159374719Y-71865275D01*
X159374719Y-71865275D02*
X159327100Y-71960513D01*
X159327100Y-71960513D02*
X159279480Y-72008132D01*
X156174719Y-72341466D02*
X155698528Y-72674799D01*
X156174719Y-72912894D02*
X155174719Y-72912894D01*
X155174719Y-72912894D02*
X155174719Y-72531942D01*
X155174719Y-72531942D02*
X155222338Y-72436704D01*
X155222338Y-72436704D02*
X155269957Y-72389085D01*
X155269957Y-72389085D02*
X155365195Y-72341466D01*
X155365195Y-72341466D02*
X155508052Y-72341466D01*
X155508052Y-72341466D02*
X155603290Y-72389085D01*
X155603290Y-72389085D02*
X155650909Y-72436704D01*
X155650909Y-72436704D02*
X155698528Y-72531942D01*
X155698528Y-72531942D02*
X155698528Y-72912894D01*
X155508052Y-71484323D02*
X156174719Y-71484323D01*
X155127100Y-71722418D02*
X155841385Y-71960513D01*
X155841385Y-71960513D02*
X155841385Y-71341466D01*
X152868333Y-96424819D02*
X152535000Y-95948628D01*
X152296905Y-96424819D02*
X152296905Y-95424819D01*
X152296905Y-95424819D02*
X152677857Y-95424819D01*
X152677857Y-95424819D02*
X152773095Y-95472438D01*
X152773095Y-95472438D02*
X152820714Y-95520057D01*
X152820714Y-95520057D02*
X152868333Y-95615295D01*
X152868333Y-95615295D02*
X152868333Y-95758152D01*
X152868333Y-95758152D02*
X152820714Y-95853390D01*
X152820714Y-95853390D02*
X152773095Y-95901009D01*
X152773095Y-95901009D02*
X152677857Y-95948628D01*
X152677857Y-95948628D02*
X152296905Y-95948628D01*
X153773095Y-95424819D02*
X153296905Y-95424819D01*
X153296905Y-95424819D02*
X153249286Y-95901009D01*
X153249286Y-95901009D02*
X153296905Y-95853390D01*
X153296905Y-95853390D02*
X153392143Y-95805771D01*
X153392143Y-95805771D02*
X153630238Y-95805771D01*
X153630238Y-95805771D02*
X153725476Y-95853390D01*
X153725476Y-95853390D02*
X153773095Y-95901009D01*
X153773095Y-95901009D02*
X153820714Y-95996247D01*
X153820714Y-95996247D02*
X153820714Y-96234342D01*
X153820714Y-96234342D02*
X153773095Y-96329580D01*
X153773095Y-96329580D02*
X153725476Y-96377200D01*
X153725476Y-96377200D02*
X153630238Y-96424819D01*
X153630238Y-96424819D02*
X153392143Y-96424819D01*
X153392143Y-96424819D02*
X153296905Y-96377200D01*
X153296905Y-96377200D02*
X153249286Y-96329580D01*
X152868333Y-92614819D02*
X152535000Y-92138628D01*
X152296905Y-92614819D02*
X152296905Y-91614819D01*
X152296905Y-91614819D02*
X152677857Y-91614819D01*
X152677857Y-91614819D02*
X152773095Y-91662438D01*
X152773095Y-91662438D02*
X152820714Y-91710057D01*
X152820714Y-91710057D02*
X152868333Y-91805295D01*
X152868333Y-91805295D02*
X152868333Y-91948152D01*
X152868333Y-91948152D02*
X152820714Y-92043390D01*
X152820714Y-92043390D02*
X152773095Y-92091009D01*
X152773095Y-92091009D02*
X152677857Y-92138628D01*
X152677857Y-92138628D02*
X152296905Y-92138628D01*
X153725476Y-91614819D02*
X153535000Y-91614819D01*
X153535000Y-91614819D02*
X153439762Y-91662438D01*
X153439762Y-91662438D02*
X153392143Y-91710057D01*
X153392143Y-91710057D02*
X153296905Y-91852914D01*
X153296905Y-91852914D02*
X153249286Y-92043390D01*
X153249286Y-92043390D02*
X153249286Y-92424342D01*
X153249286Y-92424342D02*
X153296905Y-92519580D01*
X153296905Y-92519580D02*
X153344524Y-92567200D01*
X153344524Y-92567200D02*
X153439762Y-92614819D01*
X153439762Y-92614819D02*
X153630238Y-92614819D01*
X153630238Y-92614819D02*
X153725476Y-92567200D01*
X153725476Y-92567200D02*
X153773095Y-92519580D01*
X153773095Y-92519580D02*
X153820714Y-92424342D01*
X153820714Y-92424342D02*
X153820714Y-92186247D01*
X153820714Y-92186247D02*
X153773095Y-92091009D01*
X153773095Y-92091009D02*
X153725476Y-92043390D01*
X153725476Y-92043390D02*
X153630238Y-91995771D01*
X153630238Y-91995771D02*
X153439762Y-91995771D01*
X153439762Y-91995771D02*
X153344524Y-92043390D01*
X153344524Y-92043390D02*
X153296905Y-92091009D01*
X153296905Y-92091009D02*
X153249286Y-92186247D01*
X156694719Y-87796666D02*
X156218528Y-88129999D01*
X156694719Y-88368094D02*
X155694719Y-88368094D01*
X155694719Y-88368094D02*
X155694719Y-87987142D01*
X155694719Y-87987142D02*
X155742338Y-87891904D01*
X155742338Y-87891904D02*
X155789957Y-87844285D01*
X155789957Y-87844285D02*
X155885195Y-87796666D01*
X155885195Y-87796666D02*
X156028052Y-87796666D01*
X156028052Y-87796666D02*
X156123290Y-87844285D01*
X156123290Y-87844285D02*
X156170909Y-87891904D01*
X156170909Y-87891904D02*
X156218528Y-87987142D01*
X156218528Y-87987142D02*
X156218528Y-88368094D01*
X155694719Y-87463332D02*
X155694719Y-86796666D01*
X155694719Y-86796666D02*
X156694719Y-87225237D01*
X113498333Y-75579619D02*
X113165000Y-75103428D01*
X112926905Y-75579619D02*
X112926905Y-74579619D01*
X112926905Y-74579619D02*
X113307857Y-74579619D01*
X113307857Y-74579619D02*
X113403095Y-74627238D01*
X113403095Y-74627238D02*
X113450714Y-74674857D01*
X113450714Y-74674857D02*
X113498333Y-74770095D01*
X113498333Y-74770095D02*
X113498333Y-74912952D01*
X113498333Y-74912952D02*
X113450714Y-75008190D01*
X113450714Y-75008190D02*
X113403095Y-75055809D01*
X113403095Y-75055809D02*
X113307857Y-75103428D01*
X113307857Y-75103428D02*
X112926905Y-75103428D01*
X114069762Y-75008190D02*
X113974524Y-74960571D01*
X113974524Y-74960571D02*
X113926905Y-74912952D01*
X113926905Y-74912952D02*
X113879286Y-74817714D01*
X113879286Y-74817714D02*
X113879286Y-74770095D01*
X113879286Y-74770095D02*
X113926905Y-74674857D01*
X113926905Y-74674857D02*
X113974524Y-74627238D01*
X113974524Y-74627238D02*
X114069762Y-74579619D01*
X114069762Y-74579619D02*
X114260238Y-74579619D01*
X114260238Y-74579619D02*
X114355476Y-74627238D01*
X114355476Y-74627238D02*
X114403095Y-74674857D01*
X114403095Y-74674857D02*
X114450714Y-74770095D01*
X114450714Y-74770095D02*
X114450714Y-74817714D01*
X114450714Y-74817714D02*
X114403095Y-74912952D01*
X114403095Y-74912952D02*
X114355476Y-74960571D01*
X114355476Y-74960571D02*
X114260238Y-75008190D01*
X114260238Y-75008190D02*
X114069762Y-75008190D01*
X114069762Y-75008190D02*
X113974524Y-75055809D01*
X113974524Y-75055809D02*
X113926905Y-75103428D01*
X113926905Y-75103428D02*
X113879286Y-75198666D01*
X113879286Y-75198666D02*
X113879286Y-75389142D01*
X113879286Y-75389142D02*
X113926905Y-75484380D01*
X113926905Y-75484380D02*
X113974524Y-75532000D01*
X113974524Y-75532000D02*
X114069762Y-75579619D01*
X114069762Y-75579619D02*
X114260238Y-75579619D01*
X114260238Y-75579619D02*
X114355476Y-75532000D01*
X114355476Y-75532000D02*
X114403095Y-75484380D01*
X114403095Y-75484380D02*
X114450714Y-75389142D01*
X114450714Y-75389142D02*
X114450714Y-75198666D01*
X114450714Y-75198666D02*
X114403095Y-75103428D01*
X114403095Y-75103428D02*
X114355476Y-75055809D01*
X114355476Y-75055809D02*
X114260238Y-75008190D01*
X112003233Y-81079619D02*
X111669900Y-80603428D01*
X111431805Y-81079619D02*
X111431805Y-80079619D01*
X111431805Y-80079619D02*
X111812757Y-80079619D01*
X111812757Y-80079619D02*
X111907995Y-80127238D01*
X111907995Y-80127238D02*
X111955614Y-80174857D01*
X111955614Y-80174857D02*
X112003233Y-80270095D01*
X112003233Y-80270095D02*
X112003233Y-80412952D01*
X112003233Y-80412952D02*
X111955614Y-80508190D01*
X111955614Y-80508190D02*
X111907995Y-80555809D01*
X111907995Y-80555809D02*
X111812757Y-80603428D01*
X111812757Y-80603428D02*
X111431805Y-80603428D01*
X112479424Y-81079619D02*
X112669900Y-81079619D01*
X112669900Y-81079619D02*
X112765138Y-81032000D01*
X112765138Y-81032000D02*
X112812757Y-80984380D01*
X112812757Y-80984380D02*
X112907995Y-80841523D01*
X112907995Y-80841523D02*
X112955614Y-80651047D01*
X112955614Y-80651047D02*
X112955614Y-80270095D01*
X112955614Y-80270095D02*
X112907995Y-80174857D01*
X112907995Y-80174857D02*
X112860376Y-80127238D01*
X112860376Y-80127238D02*
X112765138Y-80079619D01*
X112765138Y-80079619D02*
X112574662Y-80079619D01*
X112574662Y-80079619D02*
X112479424Y-80127238D01*
X112479424Y-80127238D02*
X112431805Y-80174857D01*
X112431805Y-80174857D02*
X112384186Y-80270095D01*
X112384186Y-80270095D02*
X112384186Y-80508190D01*
X112384186Y-80508190D02*
X112431805Y-80603428D01*
X112431805Y-80603428D02*
X112479424Y-80651047D01*
X112479424Y-80651047D02*
X112574662Y-80698666D01*
X112574662Y-80698666D02*
X112765138Y-80698666D01*
X112765138Y-80698666D02*
X112860376Y-80651047D01*
X112860376Y-80651047D02*
X112907995Y-80603428D01*
X112907995Y-80603428D02*
X112955614Y-80508190D01*
X113022142Y-91829619D02*
X112688809Y-91353428D01*
X112450714Y-91829619D02*
X112450714Y-90829619D01*
X112450714Y-90829619D02*
X112831666Y-90829619D01*
X112831666Y-90829619D02*
X112926904Y-90877238D01*
X112926904Y-90877238D02*
X112974523Y-90924857D01*
X112974523Y-90924857D02*
X113022142Y-91020095D01*
X113022142Y-91020095D02*
X113022142Y-91162952D01*
X113022142Y-91162952D02*
X112974523Y-91258190D01*
X112974523Y-91258190D02*
X112926904Y-91305809D01*
X112926904Y-91305809D02*
X112831666Y-91353428D01*
X112831666Y-91353428D02*
X112450714Y-91353428D01*
X113974523Y-91829619D02*
X113403095Y-91829619D01*
X113688809Y-91829619D02*
X113688809Y-90829619D01*
X113688809Y-90829619D02*
X113593571Y-90972476D01*
X113593571Y-90972476D02*
X113498333Y-91067714D01*
X113498333Y-91067714D02*
X113403095Y-91115333D01*
X114926904Y-91829619D02*
X114355476Y-91829619D01*
X114641190Y-91829619D02*
X114641190Y-90829619D01*
X114641190Y-90829619D02*
X114545952Y-90972476D01*
X114545952Y-90972476D02*
X114450714Y-91067714D01*
X114450714Y-91067714D02*
X114355476Y-91115333D01*
X113022142Y-95829619D02*
X112688809Y-95353428D01*
X112450714Y-95829619D02*
X112450714Y-94829619D01*
X112450714Y-94829619D02*
X112831666Y-94829619D01*
X112831666Y-94829619D02*
X112926904Y-94877238D01*
X112926904Y-94877238D02*
X112974523Y-94924857D01*
X112974523Y-94924857D02*
X113022142Y-95020095D01*
X113022142Y-95020095D02*
X113022142Y-95162952D01*
X113022142Y-95162952D02*
X112974523Y-95258190D01*
X112974523Y-95258190D02*
X112926904Y-95305809D01*
X112926904Y-95305809D02*
X112831666Y-95353428D01*
X112831666Y-95353428D02*
X112450714Y-95353428D01*
X113974523Y-95829619D02*
X113403095Y-95829619D01*
X113688809Y-95829619D02*
X113688809Y-94829619D01*
X113688809Y-94829619D02*
X113593571Y-94972476D01*
X113593571Y-94972476D02*
X113498333Y-95067714D01*
X113498333Y-95067714D02*
X113403095Y-95115333D01*
X114355476Y-94924857D02*
X114403095Y-94877238D01*
X114403095Y-94877238D02*
X114498333Y-94829619D01*
X114498333Y-94829619D02*
X114736428Y-94829619D01*
X114736428Y-94829619D02*
X114831666Y-94877238D01*
X114831666Y-94877238D02*
X114879285Y-94924857D01*
X114879285Y-94924857D02*
X114926904Y-95020095D01*
X114926904Y-95020095D02*
X114926904Y-95115333D01*
X114926904Y-95115333D02*
X114879285Y-95258190D01*
X114879285Y-95258190D02*
X114307857Y-95829619D01*
X114307857Y-95829619D02*
X114926904Y-95829619D01*
X113022142Y-103329619D02*
X112688809Y-102853428D01*
X112450714Y-103329619D02*
X112450714Y-102329619D01*
X112450714Y-102329619D02*
X112831666Y-102329619D01*
X112831666Y-102329619D02*
X112926904Y-102377238D01*
X112926904Y-102377238D02*
X112974523Y-102424857D01*
X112974523Y-102424857D02*
X113022142Y-102520095D01*
X113022142Y-102520095D02*
X113022142Y-102662952D01*
X113022142Y-102662952D02*
X112974523Y-102758190D01*
X112974523Y-102758190D02*
X112926904Y-102805809D01*
X112926904Y-102805809D02*
X112831666Y-102853428D01*
X112831666Y-102853428D02*
X112450714Y-102853428D01*
X113974523Y-103329619D02*
X113403095Y-103329619D01*
X113688809Y-103329619D02*
X113688809Y-102329619D01*
X113688809Y-102329619D02*
X113593571Y-102472476D01*
X113593571Y-102472476D02*
X113498333Y-102567714D01*
X113498333Y-102567714D02*
X113403095Y-102615333D01*
X114307857Y-102329619D02*
X114926904Y-102329619D01*
X114926904Y-102329619D02*
X114593571Y-102710571D01*
X114593571Y-102710571D02*
X114736428Y-102710571D01*
X114736428Y-102710571D02*
X114831666Y-102758190D01*
X114831666Y-102758190D02*
X114879285Y-102805809D01*
X114879285Y-102805809D02*
X114926904Y-102901047D01*
X114926904Y-102901047D02*
X114926904Y-103139142D01*
X114926904Y-103139142D02*
X114879285Y-103234380D01*
X114879285Y-103234380D02*
X114831666Y-103282000D01*
X114831666Y-103282000D02*
X114736428Y-103329619D01*
X114736428Y-103329619D02*
X114450714Y-103329619D01*
X114450714Y-103329619D02*
X114355476Y-103282000D01*
X114355476Y-103282000D02*
X114307857Y-103234380D01*
X98124719Y-73017657D02*
X97648528Y-73350990D01*
X98124719Y-73589085D02*
X97124719Y-73589085D01*
X97124719Y-73589085D02*
X97124719Y-73208133D01*
X97124719Y-73208133D02*
X97172338Y-73112895D01*
X97172338Y-73112895D02*
X97219957Y-73065276D01*
X97219957Y-73065276D02*
X97315195Y-73017657D01*
X97315195Y-73017657D02*
X97458052Y-73017657D01*
X97458052Y-73017657D02*
X97553290Y-73065276D01*
X97553290Y-73065276D02*
X97600909Y-73112895D01*
X97600909Y-73112895D02*
X97648528Y-73208133D01*
X97648528Y-73208133D02*
X97648528Y-73589085D01*
X98124719Y-72065276D02*
X98124719Y-72636704D01*
X98124719Y-72350990D02*
X97124719Y-72350990D01*
X97124719Y-72350990D02*
X97267576Y-72446228D01*
X97267576Y-72446228D02*
X97362814Y-72541466D01*
X97362814Y-72541466D02*
X97410433Y-72636704D01*
X97458052Y-71208133D02*
X98124719Y-71208133D01*
X97077100Y-71446228D02*
X97791385Y-71684323D01*
X97791385Y-71684323D02*
X97791385Y-71065276D01*
X104624719Y-75517657D02*
X104148528Y-75850990D01*
X104624719Y-76089085D02*
X103624719Y-76089085D01*
X103624719Y-76089085D02*
X103624719Y-75708133D01*
X103624719Y-75708133D02*
X103672338Y-75612895D01*
X103672338Y-75612895D02*
X103719957Y-75565276D01*
X103719957Y-75565276D02*
X103815195Y-75517657D01*
X103815195Y-75517657D02*
X103958052Y-75517657D01*
X103958052Y-75517657D02*
X104053290Y-75565276D01*
X104053290Y-75565276D02*
X104100909Y-75612895D01*
X104100909Y-75612895D02*
X104148528Y-75708133D01*
X104148528Y-75708133D02*
X104148528Y-76089085D01*
X104624719Y-74565276D02*
X104624719Y-75136704D01*
X104624719Y-74850990D02*
X103624719Y-74850990D01*
X103624719Y-74850990D02*
X103767576Y-74946228D01*
X103767576Y-74946228D02*
X103862814Y-75041466D01*
X103862814Y-75041466D02*
X103910433Y-75136704D01*
X103624719Y-73660514D02*
X103624719Y-74136704D01*
X103624719Y-74136704D02*
X104100909Y-74184323D01*
X104100909Y-74184323D02*
X104053290Y-74136704D01*
X104053290Y-74136704D02*
X104005671Y-74041466D01*
X104005671Y-74041466D02*
X104005671Y-73803371D01*
X104005671Y-73803371D02*
X104053290Y-73708133D01*
X104053290Y-73708133D02*
X104100909Y-73660514D01*
X104100909Y-73660514D02*
X104196147Y-73612895D01*
X104196147Y-73612895D02*
X104434242Y-73612895D01*
X104434242Y-73612895D02*
X104529480Y-73660514D01*
X104529480Y-73660514D02*
X104577100Y-73708133D01*
X104577100Y-73708133D02*
X104624719Y-73803371D01*
X104624719Y-73803371D02*
X104624719Y-74041466D01*
X104624719Y-74041466D02*
X104577100Y-74136704D01*
X104577100Y-74136704D02*
X104529480Y-74184323D01*
X98374719Y-80767657D02*
X97898528Y-81100990D01*
X98374719Y-81339085D02*
X97374719Y-81339085D01*
X97374719Y-81339085D02*
X97374719Y-80958133D01*
X97374719Y-80958133D02*
X97422338Y-80862895D01*
X97422338Y-80862895D02*
X97469957Y-80815276D01*
X97469957Y-80815276D02*
X97565195Y-80767657D01*
X97565195Y-80767657D02*
X97708052Y-80767657D01*
X97708052Y-80767657D02*
X97803290Y-80815276D01*
X97803290Y-80815276D02*
X97850909Y-80862895D01*
X97850909Y-80862895D02*
X97898528Y-80958133D01*
X97898528Y-80958133D02*
X97898528Y-81339085D01*
X98374719Y-79815276D02*
X98374719Y-80386704D01*
X98374719Y-80100990D02*
X97374719Y-80100990D01*
X97374719Y-80100990D02*
X97517576Y-80196228D01*
X97517576Y-80196228D02*
X97612814Y-80291466D01*
X97612814Y-80291466D02*
X97660433Y-80386704D01*
X97374719Y-78958133D02*
X97374719Y-79148609D01*
X97374719Y-79148609D02*
X97422338Y-79243847D01*
X97422338Y-79243847D02*
X97469957Y-79291466D01*
X97469957Y-79291466D02*
X97612814Y-79386704D01*
X97612814Y-79386704D02*
X97803290Y-79434323D01*
X97803290Y-79434323D02*
X98184242Y-79434323D01*
X98184242Y-79434323D02*
X98279480Y-79386704D01*
X98279480Y-79386704D02*
X98327100Y-79339085D01*
X98327100Y-79339085D02*
X98374719Y-79243847D01*
X98374719Y-79243847D02*
X98374719Y-79053371D01*
X98374719Y-79053371D02*
X98327100Y-78958133D01*
X98327100Y-78958133D02*
X98279480Y-78910514D01*
X98279480Y-78910514D02*
X98184242Y-78862895D01*
X98184242Y-78862895D02*
X97946147Y-78862895D01*
X97946147Y-78862895D02*
X97850909Y-78910514D01*
X97850909Y-78910514D02*
X97803290Y-78958133D01*
X97803290Y-78958133D02*
X97755671Y-79053371D01*
X97755671Y-79053371D02*
X97755671Y-79243847D01*
X97755671Y-79243847D02*
X97803290Y-79339085D01*
X97803290Y-79339085D02*
X97850909Y-79386704D01*
X97850909Y-79386704D02*
X97946147Y-79434323D01*
X104624719Y-85017657D02*
X104148528Y-85350990D01*
X104624719Y-85589085D02*
X103624719Y-85589085D01*
X103624719Y-85589085D02*
X103624719Y-85208133D01*
X103624719Y-85208133D02*
X103672338Y-85112895D01*
X103672338Y-85112895D02*
X103719957Y-85065276D01*
X103719957Y-85065276D02*
X103815195Y-85017657D01*
X103815195Y-85017657D02*
X103958052Y-85017657D01*
X103958052Y-85017657D02*
X104053290Y-85065276D01*
X104053290Y-85065276D02*
X104100909Y-85112895D01*
X104100909Y-85112895D02*
X104148528Y-85208133D01*
X104148528Y-85208133D02*
X104148528Y-85589085D01*
X104624719Y-84065276D02*
X104624719Y-84636704D01*
X104624719Y-84350990D02*
X103624719Y-84350990D01*
X103624719Y-84350990D02*
X103767576Y-84446228D01*
X103767576Y-84446228D02*
X103862814Y-84541466D01*
X103862814Y-84541466D02*
X103910433Y-84636704D01*
X103624719Y-83731942D02*
X103624719Y-83065276D01*
X103624719Y-83065276D02*
X104624719Y-83493847D01*
X98374719Y-88267657D02*
X97898528Y-88600990D01*
X98374719Y-88839085D02*
X97374719Y-88839085D01*
X97374719Y-88839085D02*
X97374719Y-88458133D01*
X97374719Y-88458133D02*
X97422338Y-88362895D01*
X97422338Y-88362895D02*
X97469957Y-88315276D01*
X97469957Y-88315276D02*
X97565195Y-88267657D01*
X97565195Y-88267657D02*
X97708052Y-88267657D01*
X97708052Y-88267657D02*
X97803290Y-88315276D01*
X97803290Y-88315276D02*
X97850909Y-88362895D01*
X97850909Y-88362895D02*
X97898528Y-88458133D01*
X97898528Y-88458133D02*
X97898528Y-88839085D01*
X98374719Y-87315276D02*
X98374719Y-87886704D01*
X98374719Y-87600990D02*
X97374719Y-87600990D01*
X97374719Y-87600990D02*
X97517576Y-87696228D01*
X97517576Y-87696228D02*
X97612814Y-87791466D01*
X97612814Y-87791466D02*
X97660433Y-87886704D01*
X97803290Y-86743847D02*
X97755671Y-86839085D01*
X97755671Y-86839085D02*
X97708052Y-86886704D01*
X97708052Y-86886704D02*
X97612814Y-86934323D01*
X97612814Y-86934323D02*
X97565195Y-86934323D01*
X97565195Y-86934323D02*
X97469957Y-86886704D01*
X97469957Y-86886704D02*
X97422338Y-86839085D01*
X97422338Y-86839085D02*
X97374719Y-86743847D01*
X97374719Y-86743847D02*
X97374719Y-86553371D01*
X97374719Y-86553371D02*
X97422338Y-86458133D01*
X97422338Y-86458133D02*
X97469957Y-86410514D01*
X97469957Y-86410514D02*
X97565195Y-86362895D01*
X97565195Y-86362895D02*
X97612814Y-86362895D01*
X97612814Y-86362895D02*
X97708052Y-86410514D01*
X97708052Y-86410514D02*
X97755671Y-86458133D01*
X97755671Y-86458133D02*
X97803290Y-86553371D01*
X97803290Y-86553371D02*
X97803290Y-86743847D01*
X97803290Y-86743847D02*
X97850909Y-86839085D01*
X97850909Y-86839085D02*
X97898528Y-86886704D01*
X97898528Y-86886704D02*
X97993766Y-86934323D01*
X97993766Y-86934323D02*
X98184242Y-86934323D01*
X98184242Y-86934323D02*
X98279480Y-86886704D01*
X98279480Y-86886704D02*
X98327100Y-86839085D01*
X98327100Y-86839085D02*
X98374719Y-86743847D01*
X98374719Y-86743847D02*
X98374719Y-86553371D01*
X98374719Y-86553371D02*
X98327100Y-86458133D01*
X98327100Y-86458133D02*
X98279480Y-86410514D01*
X98279480Y-86410514D02*
X98184242Y-86362895D01*
X98184242Y-86362895D02*
X97993766Y-86362895D01*
X97993766Y-86362895D02*
X97898528Y-86410514D01*
X97898528Y-86410514D02*
X97850909Y-86458133D01*
X97850909Y-86458133D02*
X97803290Y-86553371D01*
X104624719Y-91517657D02*
X104148528Y-91850990D01*
X104624719Y-92089085D02*
X103624719Y-92089085D01*
X103624719Y-92089085D02*
X103624719Y-91708133D01*
X103624719Y-91708133D02*
X103672338Y-91612895D01*
X103672338Y-91612895D02*
X103719957Y-91565276D01*
X103719957Y-91565276D02*
X103815195Y-91517657D01*
X103815195Y-91517657D02*
X103958052Y-91517657D01*
X103958052Y-91517657D02*
X104053290Y-91565276D01*
X104053290Y-91565276D02*
X104100909Y-91612895D01*
X104100909Y-91612895D02*
X104148528Y-91708133D01*
X104148528Y-91708133D02*
X104148528Y-92089085D01*
X104624719Y-90565276D02*
X104624719Y-91136704D01*
X104624719Y-90850990D02*
X103624719Y-90850990D01*
X103624719Y-90850990D02*
X103767576Y-90946228D01*
X103767576Y-90946228D02*
X103862814Y-91041466D01*
X103862814Y-91041466D02*
X103910433Y-91136704D01*
X104624719Y-90089085D02*
X104624719Y-89898609D01*
X104624719Y-89898609D02*
X104577100Y-89803371D01*
X104577100Y-89803371D02*
X104529480Y-89755752D01*
X104529480Y-89755752D02*
X104386623Y-89660514D01*
X104386623Y-89660514D02*
X104196147Y-89612895D01*
X104196147Y-89612895D02*
X103815195Y-89612895D01*
X103815195Y-89612895D02*
X103719957Y-89660514D01*
X103719957Y-89660514D02*
X103672338Y-89708133D01*
X103672338Y-89708133D02*
X103624719Y-89803371D01*
X103624719Y-89803371D02*
X103624719Y-89993847D01*
X103624719Y-89993847D02*
X103672338Y-90089085D01*
X103672338Y-90089085D02*
X103719957Y-90136704D01*
X103719957Y-90136704D02*
X103815195Y-90184323D01*
X103815195Y-90184323D02*
X104053290Y-90184323D01*
X104053290Y-90184323D02*
X104148528Y-90136704D01*
X104148528Y-90136704D02*
X104196147Y-90089085D01*
X104196147Y-90089085D02*
X104243766Y-89993847D01*
X104243766Y-89993847D02*
X104243766Y-89803371D01*
X104243766Y-89803371D02*
X104196147Y-89708133D01*
X104196147Y-89708133D02*
X104148528Y-89660514D01*
X104148528Y-89660514D02*
X104053290Y-89612895D01*
X98374719Y-94517657D02*
X97898528Y-94850990D01*
X98374719Y-95089085D02*
X97374719Y-95089085D01*
X97374719Y-95089085D02*
X97374719Y-94708133D01*
X97374719Y-94708133D02*
X97422338Y-94612895D01*
X97422338Y-94612895D02*
X97469957Y-94565276D01*
X97469957Y-94565276D02*
X97565195Y-94517657D01*
X97565195Y-94517657D02*
X97708052Y-94517657D01*
X97708052Y-94517657D02*
X97803290Y-94565276D01*
X97803290Y-94565276D02*
X97850909Y-94612895D01*
X97850909Y-94612895D02*
X97898528Y-94708133D01*
X97898528Y-94708133D02*
X97898528Y-95089085D01*
X97469957Y-94136704D02*
X97422338Y-94089085D01*
X97422338Y-94089085D02*
X97374719Y-93993847D01*
X97374719Y-93993847D02*
X97374719Y-93755752D01*
X97374719Y-93755752D02*
X97422338Y-93660514D01*
X97422338Y-93660514D02*
X97469957Y-93612895D01*
X97469957Y-93612895D02*
X97565195Y-93565276D01*
X97565195Y-93565276D02*
X97660433Y-93565276D01*
X97660433Y-93565276D02*
X97803290Y-93612895D01*
X97803290Y-93612895D02*
X98374719Y-94184323D01*
X98374719Y-94184323D02*
X98374719Y-93565276D01*
X97374719Y-92946228D02*
X97374719Y-92850990D01*
X97374719Y-92850990D02*
X97422338Y-92755752D01*
X97422338Y-92755752D02*
X97469957Y-92708133D01*
X97469957Y-92708133D02*
X97565195Y-92660514D01*
X97565195Y-92660514D02*
X97755671Y-92612895D01*
X97755671Y-92612895D02*
X97993766Y-92612895D01*
X97993766Y-92612895D02*
X98184242Y-92660514D01*
X98184242Y-92660514D02*
X98279480Y-92708133D01*
X98279480Y-92708133D02*
X98327100Y-92755752D01*
X98327100Y-92755752D02*
X98374719Y-92850990D01*
X98374719Y-92850990D02*
X98374719Y-92946228D01*
X98374719Y-92946228D02*
X98327100Y-93041466D01*
X98327100Y-93041466D02*
X98279480Y-93089085D01*
X98279480Y-93089085D02*
X98184242Y-93136704D01*
X98184242Y-93136704D02*
X97993766Y-93184323D01*
X97993766Y-93184323D02*
X97755671Y-93184323D01*
X97755671Y-93184323D02*
X97565195Y-93136704D01*
X97565195Y-93136704D02*
X97469957Y-93089085D01*
X97469957Y-93089085D02*
X97422338Y-93041466D01*
X97422338Y-93041466D02*
X97374719Y-92946228D01*
X104624719Y-97767657D02*
X104148528Y-98100990D01*
X104624719Y-98339085D02*
X103624719Y-98339085D01*
X103624719Y-98339085D02*
X103624719Y-97958133D01*
X103624719Y-97958133D02*
X103672338Y-97862895D01*
X103672338Y-97862895D02*
X103719957Y-97815276D01*
X103719957Y-97815276D02*
X103815195Y-97767657D01*
X103815195Y-97767657D02*
X103958052Y-97767657D01*
X103958052Y-97767657D02*
X104053290Y-97815276D01*
X104053290Y-97815276D02*
X104100909Y-97862895D01*
X104100909Y-97862895D02*
X104148528Y-97958133D01*
X104148528Y-97958133D02*
X104148528Y-98339085D01*
X103719957Y-97386704D02*
X103672338Y-97339085D01*
X103672338Y-97339085D02*
X103624719Y-97243847D01*
X103624719Y-97243847D02*
X103624719Y-97005752D01*
X103624719Y-97005752D02*
X103672338Y-96910514D01*
X103672338Y-96910514D02*
X103719957Y-96862895D01*
X103719957Y-96862895D02*
X103815195Y-96815276D01*
X103815195Y-96815276D02*
X103910433Y-96815276D01*
X103910433Y-96815276D02*
X104053290Y-96862895D01*
X104053290Y-96862895D02*
X104624719Y-97434323D01*
X104624719Y-97434323D02*
X104624719Y-96815276D01*
X104624719Y-95862895D02*
X104624719Y-96434323D01*
X104624719Y-96148609D02*
X103624719Y-96148609D01*
X103624719Y-96148609D02*
X103767576Y-96243847D01*
X103767576Y-96243847D02*
X103862814Y-96339085D01*
X103862814Y-96339085D02*
X103910433Y-96434323D01*
X98374719Y-101017657D02*
X97898528Y-101350990D01*
X98374719Y-101589085D02*
X97374719Y-101589085D01*
X97374719Y-101589085D02*
X97374719Y-101208133D01*
X97374719Y-101208133D02*
X97422338Y-101112895D01*
X97422338Y-101112895D02*
X97469957Y-101065276D01*
X97469957Y-101065276D02*
X97565195Y-101017657D01*
X97565195Y-101017657D02*
X97708052Y-101017657D01*
X97708052Y-101017657D02*
X97803290Y-101065276D01*
X97803290Y-101065276D02*
X97850909Y-101112895D01*
X97850909Y-101112895D02*
X97898528Y-101208133D01*
X97898528Y-101208133D02*
X97898528Y-101589085D01*
X97469957Y-100636704D02*
X97422338Y-100589085D01*
X97422338Y-100589085D02*
X97374719Y-100493847D01*
X97374719Y-100493847D02*
X97374719Y-100255752D01*
X97374719Y-100255752D02*
X97422338Y-100160514D01*
X97422338Y-100160514D02*
X97469957Y-100112895D01*
X97469957Y-100112895D02*
X97565195Y-100065276D01*
X97565195Y-100065276D02*
X97660433Y-100065276D01*
X97660433Y-100065276D02*
X97803290Y-100112895D01*
X97803290Y-100112895D02*
X98374719Y-100684323D01*
X98374719Y-100684323D02*
X98374719Y-100065276D01*
X97469957Y-99684323D02*
X97422338Y-99636704D01*
X97422338Y-99636704D02*
X97374719Y-99541466D01*
X97374719Y-99541466D02*
X97374719Y-99303371D01*
X97374719Y-99303371D02*
X97422338Y-99208133D01*
X97422338Y-99208133D02*
X97469957Y-99160514D01*
X97469957Y-99160514D02*
X97565195Y-99112895D01*
X97565195Y-99112895D02*
X97660433Y-99112895D01*
X97660433Y-99112895D02*
X97803290Y-99160514D01*
X97803290Y-99160514D02*
X98374719Y-99731942D01*
X98374719Y-99731942D02*
X98374719Y-99112895D01*
X104624719Y-104267657D02*
X104148528Y-104600990D01*
X104624719Y-104839085D02*
X103624719Y-104839085D01*
X103624719Y-104839085D02*
X103624719Y-104458133D01*
X103624719Y-104458133D02*
X103672338Y-104362895D01*
X103672338Y-104362895D02*
X103719957Y-104315276D01*
X103719957Y-104315276D02*
X103815195Y-104267657D01*
X103815195Y-104267657D02*
X103958052Y-104267657D01*
X103958052Y-104267657D02*
X104053290Y-104315276D01*
X104053290Y-104315276D02*
X104100909Y-104362895D01*
X104100909Y-104362895D02*
X104148528Y-104458133D01*
X104148528Y-104458133D02*
X104148528Y-104839085D01*
X103719957Y-103886704D02*
X103672338Y-103839085D01*
X103672338Y-103839085D02*
X103624719Y-103743847D01*
X103624719Y-103743847D02*
X103624719Y-103505752D01*
X103624719Y-103505752D02*
X103672338Y-103410514D01*
X103672338Y-103410514D02*
X103719957Y-103362895D01*
X103719957Y-103362895D02*
X103815195Y-103315276D01*
X103815195Y-103315276D02*
X103910433Y-103315276D01*
X103910433Y-103315276D02*
X104053290Y-103362895D01*
X104053290Y-103362895D02*
X104624719Y-103934323D01*
X104624719Y-103934323D02*
X104624719Y-103315276D01*
X103624719Y-102981942D02*
X103624719Y-102362895D01*
X103624719Y-102362895D02*
X104005671Y-102696228D01*
X104005671Y-102696228D02*
X104005671Y-102553371D01*
X104005671Y-102553371D02*
X104053290Y-102458133D01*
X104053290Y-102458133D02*
X104100909Y-102410514D01*
X104100909Y-102410514D02*
X104196147Y-102362895D01*
X104196147Y-102362895D02*
X104434242Y-102362895D01*
X104434242Y-102362895D02*
X104529480Y-102410514D01*
X104529480Y-102410514D02*
X104577100Y-102458133D01*
X104577100Y-102458133D02*
X104624719Y-102553371D01*
X104624719Y-102553371D02*
X104624719Y-102839085D01*
X104624719Y-102839085D02*
X104577100Y-102934323D01*
X104577100Y-102934323D02*
X104529480Y-102981942D01*
X98374719Y-107267657D02*
X97898528Y-107600990D01*
X98374719Y-107839085D02*
X97374719Y-107839085D01*
X97374719Y-107839085D02*
X97374719Y-107458133D01*
X97374719Y-107458133D02*
X97422338Y-107362895D01*
X97422338Y-107362895D02*
X97469957Y-107315276D01*
X97469957Y-107315276D02*
X97565195Y-107267657D01*
X97565195Y-107267657D02*
X97708052Y-107267657D01*
X97708052Y-107267657D02*
X97803290Y-107315276D01*
X97803290Y-107315276D02*
X97850909Y-107362895D01*
X97850909Y-107362895D02*
X97898528Y-107458133D01*
X97898528Y-107458133D02*
X97898528Y-107839085D01*
X97469957Y-106886704D02*
X97422338Y-106839085D01*
X97422338Y-106839085D02*
X97374719Y-106743847D01*
X97374719Y-106743847D02*
X97374719Y-106505752D01*
X97374719Y-106505752D02*
X97422338Y-106410514D01*
X97422338Y-106410514D02*
X97469957Y-106362895D01*
X97469957Y-106362895D02*
X97565195Y-106315276D01*
X97565195Y-106315276D02*
X97660433Y-106315276D01*
X97660433Y-106315276D02*
X97803290Y-106362895D01*
X97803290Y-106362895D02*
X98374719Y-106934323D01*
X98374719Y-106934323D02*
X98374719Y-106315276D01*
X97708052Y-105458133D02*
X98374719Y-105458133D01*
X97327100Y-105696228D02*
X98041385Y-105934323D01*
X98041385Y-105934323D02*
X98041385Y-105315276D01*
X104624719Y-110517657D02*
X104148528Y-110850990D01*
X104624719Y-111089085D02*
X103624719Y-111089085D01*
X103624719Y-111089085D02*
X103624719Y-110708133D01*
X103624719Y-110708133D02*
X103672338Y-110612895D01*
X103672338Y-110612895D02*
X103719957Y-110565276D01*
X103719957Y-110565276D02*
X103815195Y-110517657D01*
X103815195Y-110517657D02*
X103958052Y-110517657D01*
X103958052Y-110517657D02*
X104053290Y-110565276D01*
X104053290Y-110565276D02*
X104100909Y-110612895D01*
X104100909Y-110612895D02*
X104148528Y-110708133D01*
X104148528Y-110708133D02*
X104148528Y-111089085D01*
X103719957Y-110136704D02*
X103672338Y-110089085D01*
X103672338Y-110089085D02*
X103624719Y-109993847D01*
X103624719Y-109993847D02*
X103624719Y-109755752D01*
X103624719Y-109755752D02*
X103672338Y-109660514D01*
X103672338Y-109660514D02*
X103719957Y-109612895D01*
X103719957Y-109612895D02*
X103815195Y-109565276D01*
X103815195Y-109565276D02*
X103910433Y-109565276D01*
X103910433Y-109565276D02*
X104053290Y-109612895D01*
X104053290Y-109612895D02*
X104624719Y-110184323D01*
X104624719Y-110184323D02*
X104624719Y-109565276D01*
X103624719Y-108660514D02*
X103624719Y-109136704D01*
X103624719Y-109136704D02*
X104100909Y-109184323D01*
X104100909Y-109184323D02*
X104053290Y-109136704D01*
X104053290Y-109136704D02*
X104005671Y-109041466D01*
X104005671Y-109041466D02*
X104005671Y-108803371D01*
X104005671Y-108803371D02*
X104053290Y-108708133D01*
X104053290Y-108708133D02*
X104100909Y-108660514D01*
X104100909Y-108660514D02*
X104196147Y-108612895D01*
X104196147Y-108612895D02*
X104434242Y-108612895D01*
X104434242Y-108612895D02*
X104529480Y-108660514D01*
X104529480Y-108660514D02*
X104577100Y-108708133D01*
X104577100Y-108708133D02*
X104624719Y-108803371D01*
X104624719Y-108803371D02*
X104624719Y-109041466D01*
X104624719Y-109041466D02*
X104577100Y-109136704D01*
X104577100Y-109136704D02*
X104529480Y-109184323D01*
X98374719Y-113517657D02*
X97898528Y-113850990D01*
X98374719Y-114089085D02*
X97374719Y-114089085D01*
X97374719Y-114089085D02*
X97374719Y-113708133D01*
X97374719Y-113708133D02*
X97422338Y-113612895D01*
X97422338Y-113612895D02*
X97469957Y-113565276D01*
X97469957Y-113565276D02*
X97565195Y-113517657D01*
X97565195Y-113517657D02*
X97708052Y-113517657D01*
X97708052Y-113517657D02*
X97803290Y-113565276D01*
X97803290Y-113565276D02*
X97850909Y-113612895D01*
X97850909Y-113612895D02*
X97898528Y-113708133D01*
X97898528Y-113708133D02*
X97898528Y-114089085D01*
X97469957Y-113136704D02*
X97422338Y-113089085D01*
X97422338Y-113089085D02*
X97374719Y-112993847D01*
X97374719Y-112993847D02*
X97374719Y-112755752D01*
X97374719Y-112755752D02*
X97422338Y-112660514D01*
X97422338Y-112660514D02*
X97469957Y-112612895D01*
X97469957Y-112612895D02*
X97565195Y-112565276D01*
X97565195Y-112565276D02*
X97660433Y-112565276D01*
X97660433Y-112565276D02*
X97803290Y-112612895D01*
X97803290Y-112612895D02*
X98374719Y-113184323D01*
X98374719Y-113184323D02*
X98374719Y-112565276D01*
X97374719Y-111708133D02*
X97374719Y-111898609D01*
X97374719Y-111898609D02*
X97422338Y-111993847D01*
X97422338Y-111993847D02*
X97469957Y-112041466D01*
X97469957Y-112041466D02*
X97612814Y-112136704D01*
X97612814Y-112136704D02*
X97803290Y-112184323D01*
X97803290Y-112184323D02*
X98184242Y-112184323D01*
X98184242Y-112184323D02*
X98279480Y-112136704D01*
X98279480Y-112136704D02*
X98327100Y-112089085D01*
X98327100Y-112089085D02*
X98374719Y-111993847D01*
X98374719Y-111993847D02*
X98374719Y-111803371D01*
X98374719Y-111803371D02*
X98327100Y-111708133D01*
X98327100Y-111708133D02*
X98279480Y-111660514D01*
X98279480Y-111660514D02*
X98184242Y-111612895D01*
X98184242Y-111612895D02*
X97946147Y-111612895D01*
X97946147Y-111612895D02*
X97850909Y-111660514D01*
X97850909Y-111660514D02*
X97803290Y-111708133D01*
X97803290Y-111708133D02*
X97755671Y-111803371D01*
X97755671Y-111803371D02*
X97755671Y-111993847D01*
X97755671Y-111993847D02*
X97803290Y-112089085D01*
X97803290Y-112089085D02*
X97850909Y-112136704D01*
X97850909Y-112136704D02*
X97946147Y-112184323D01*
X124396667Y-93687200D02*
X124539524Y-93734819D01*
X124539524Y-93734819D02*
X124777619Y-93734819D01*
X124777619Y-93734819D02*
X124872857Y-93687200D01*
X124872857Y-93687200D02*
X124920476Y-93639580D01*
X124920476Y-93639580D02*
X124968095Y-93544342D01*
X124968095Y-93544342D02*
X124968095Y-93449104D01*
X124968095Y-93449104D02*
X124920476Y-93353866D01*
X124920476Y-93353866D02*
X124872857Y-93306247D01*
X124872857Y-93306247D02*
X124777619Y-93258628D01*
X124777619Y-93258628D02*
X124587143Y-93211009D01*
X124587143Y-93211009D02*
X124491905Y-93163390D01*
X124491905Y-93163390D02*
X124444286Y-93115771D01*
X124444286Y-93115771D02*
X124396667Y-93020533D01*
X124396667Y-93020533D02*
X124396667Y-92925295D01*
X124396667Y-92925295D02*
X124444286Y-92830057D01*
X124444286Y-92830057D02*
X124491905Y-92782438D01*
X124491905Y-92782438D02*
X124587143Y-92734819D01*
X124587143Y-92734819D02*
X124825238Y-92734819D01*
X124825238Y-92734819D02*
X124968095Y-92782438D01*
X125301429Y-92734819D02*
X125539524Y-93734819D01*
X125539524Y-93734819D02*
X125730000Y-93020533D01*
X125730000Y-93020533D02*
X125920476Y-93734819D01*
X125920476Y-93734819D02*
X126158572Y-92734819D01*
X126491905Y-92830057D02*
X126539524Y-92782438D01*
X126539524Y-92782438D02*
X126634762Y-92734819D01*
X126634762Y-92734819D02*
X126872857Y-92734819D01*
X126872857Y-92734819D02*
X126968095Y-92782438D01*
X126968095Y-92782438D02*
X127015714Y-92830057D01*
X127015714Y-92830057D02*
X127063333Y-92925295D01*
X127063333Y-92925295D02*
X127063333Y-93020533D01*
X127063333Y-93020533D02*
X127015714Y-93163390D01*
X127015714Y-93163390D02*
X126444286Y-93734819D01*
X126444286Y-93734819D02*
X127063333Y-93734819D01*
X102907995Y-57329619D02*
X102907995Y-58139142D01*
X102907995Y-58139142D02*
X102955614Y-58234380D01*
X102955614Y-58234380D02*
X103003233Y-58282000D01*
X103003233Y-58282000D02*
X103098471Y-58329619D01*
X103098471Y-58329619D02*
X103288947Y-58329619D01*
X103288947Y-58329619D02*
X103384185Y-58282000D01*
X103384185Y-58282000D02*
X103431804Y-58234380D01*
X103431804Y-58234380D02*
X103479423Y-58139142D01*
X103479423Y-58139142D02*
X103479423Y-57329619D01*
X104479423Y-58329619D02*
X103907995Y-58329619D01*
X104193709Y-58329619D02*
X104193709Y-57329619D01*
X104193709Y-57329619D02*
X104098471Y-57472476D01*
X104098471Y-57472476D02*
X104003233Y-57567714D01*
X104003233Y-57567714D02*
X103907995Y-57615333D01*
X137469819Y-76326904D02*
X138279342Y-76326904D01*
X138279342Y-76326904D02*
X138374580Y-76279285D01*
X138374580Y-76279285D02*
X138422200Y-76231666D01*
X138422200Y-76231666D02*
X138469819Y-76136428D01*
X138469819Y-76136428D02*
X138469819Y-75945952D01*
X138469819Y-75945952D02*
X138422200Y-75850714D01*
X138422200Y-75850714D02*
X138374580Y-75803095D01*
X138374580Y-75803095D02*
X138279342Y-75755476D01*
X138279342Y-75755476D02*
X137469819Y-75755476D01*
X137565057Y-75326904D02*
X137517438Y-75279285D01*
X137517438Y-75279285D02*
X137469819Y-75184047D01*
X137469819Y-75184047D02*
X137469819Y-74945952D01*
X137469819Y-74945952D02*
X137517438Y-74850714D01*
X137517438Y-74850714D02*
X137565057Y-74803095D01*
X137565057Y-74803095D02*
X137660295Y-74755476D01*
X137660295Y-74755476D02*
X137755533Y-74755476D01*
X137755533Y-74755476D02*
X137898390Y-74803095D01*
X137898390Y-74803095D02*
X138469819Y-75374523D01*
X138469819Y-75374523D02*
X138469819Y-74755476D01*
X146907995Y-98579619D02*
X146907995Y-99389142D01*
X146907995Y-99389142D02*
X146955614Y-99484380D01*
X146955614Y-99484380D02*
X147003233Y-99532000D01*
X147003233Y-99532000D02*
X147098471Y-99579619D01*
X147098471Y-99579619D02*
X147288947Y-99579619D01*
X147288947Y-99579619D02*
X147384185Y-99532000D01*
X147384185Y-99532000D02*
X147431804Y-99484380D01*
X147431804Y-99484380D02*
X147479423Y-99389142D01*
X147479423Y-99389142D02*
X147479423Y-98579619D01*
X147860376Y-98579619D02*
X148479423Y-98579619D01*
X148479423Y-98579619D02*
X148146090Y-98960571D01*
X148146090Y-98960571D02*
X148288947Y-98960571D01*
X148288947Y-98960571D02*
X148384185Y-99008190D01*
X148384185Y-99008190D02*
X148431804Y-99055809D01*
X148431804Y-99055809D02*
X148479423Y-99151047D01*
X148479423Y-99151047D02*
X148479423Y-99389142D01*
X148479423Y-99389142D02*
X148431804Y-99484380D01*
X148431804Y-99484380D02*
X148384185Y-99532000D01*
X148384185Y-99532000D02*
X148288947Y-99579619D01*
X148288947Y-99579619D02*
X148003233Y-99579619D01*
X148003233Y-99579619D02*
X147907995Y-99532000D01*
X147907995Y-99532000D02*
X147860376Y-99484380D01*
X124333095Y-95774819D02*
X124333095Y-96584342D01*
X124333095Y-96584342D02*
X124380714Y-96679580D01*
X124380714Y-96679580D02*
X124428333Y-96727200D01*
X124428333Y-96727200D02*
X124523571Y-96774819D01*
X124523571Y-96774819D02*
X124714047Y-96774819D01*
X124714047Y-96774819D02*
X124809285Y-96727200D01*
X124809285Y-96727200D02*
X124856904Y-96679580D01*
X124856904Y-96679580D02*
X124904523Y-96584342D01*
X124904523Y-96584342D02*
X124904523Y-95774819D01*
X125809285Y-96108152D02*
X125809285Y-96774819D01*
X125571190Y-95727200D02*
X125333095Y-96441485D01*
X125333095Y-96441485D02*
X125952142Y-96441485D01*
X89086566Y-68079619D02*
X89086566Y-68793904D01*
X89086566Y-68793904D02*
X89038947Y-68936761D01*
X89038947Y-68936761D02*
X88943709Y-69032000D01*
X88943709Y-69032000D02*
X88800852Y-69079619D01*
X88800852Y-69079619D02*
X88705614Y-69079619D01*
X90086566Y-69079619D02*
X89515138Y-69079619D01*
X89800852Y-69079619D02*
X89800852Y-68079619D01*
X89800852Y-68079619D02*
X89705614Y-68222476D01*
X89705614Y-68222476D02*
X89610376Y-68317714D01*
X89610376Y-68317714D02*
X89515138Y-68365333D01*
X93336566Y-69329619D02*
X93336566Y-70043904D01*
X93336566Y-70043904D02*
X93288947Y-70186761D01*
X93288947Y-70186761D02*
X93193709Y-70282000D01*
X93193709Y-70282000D02*
X93050852Y-70329619D01*
X93050852Y-70329619D02*
X92955614Y-70329619D01*
X94241328Y-69329619D02*
X94050852Y-69329619D01*
X94050852Y-69329619D02*
X93955614Y-69377238D01*
X93955614Y-69377238D02*
X93907995Y-69424857D01*
X93907995Y-69424857D02*
X93812757Y-69567714D01*
X93812757Y-69567714D02*
X93765138Y-69758190D01*
X93765138Y-69758190D02*
X93765138Y-70139142D01*
X93765138Y-70139142D02*
X93812757Y-70234380D01*
X93812757Y-70234380D02*
X93860376Y-70282000D01*
X93860376Y-70282000D02*
X93955614Y-70329619D01*
X93955614Y-70329619D02*
X94146090Y-70329619D01*
X94146090Y-70329619D02*
X94241328Y-70282000D01*
X94241328Y-70282000D02*
X94288947Y-70234380D01*
X94288947Y-70234380D02*
X94336566Y-70139142D01*
X94336566Y-70139142D02*
X94336566Y-69901047D01*
X94336566Y-69901047D02*
X94288947Y-69805809D01*
X94288947Y-69805809D02*
X94241328Y-69758190D01*
X94241328Y-69758190D02*
X94146090Y-69710571D01*
X94146090Y-69710571D02*
X93955614Y-69710571D01*
X93955614Y-69710571D02*
X93860376Y-69758190D01*
X93860376Y-69758190D02*
X93812757Y-69805809D01*
X93812757Y-69805809D02*
X93765138Y-69901047D01*
X163414719Y-76867894D02*
X162414719Y-76867894D01*
X162414719Y-76867894D02*
X162414719Y-76629799D01*
X162414719Y-76629799D02*
X162462338Y-76486942D01*
X162462338Y-76486942D02*
X162557576Y-76391704D01*
X162557576Y-76391704D02*
X162652814Y-76344085D01*
X162652814Y-76344085D02*
X162843290Y-76296466D01*
X162843290Y-76296466D02*
X162986147Y-76296466D01*
X162986147Y-76296466D02*
X163176623Y-76344085D01*
X163176623Y-76344085D02*
X163271861Y-76391704D01*
X163271861Y-76391704D02*
X163367100Y-76486942D01*
X163367100Y-76486942D02*
X163414719Y-76629799D01*
X163414719Y-76629799D02*
X163414719Y-76867894D01*
X163414719Y-75344085D02*
X163414719Y-75915513D01*
X163414719Y-75629799D02*
X162414719Y-75629799D01*
X162414719Y-75629799D02*
X162557576Y-75725037D01*
X162557576Y-75725037D02*
X162652814Y-75820275D01*
X162652814Y-75820275D02*
X162700433Y-75915513D01*
X145494719Y-113833333D02*
X146209004Y-113833333D01*
X146209004Y-113833333D02*
X146351861Y-113880952D01*
X146351861Y-113880952D02*
X146447100Y-113976190D01*
X146447100Y-113976190D02*
X146494719Y-114119047D01*
X146494719Y-114119047D02*
X146494719Y-114214285D01*
X145589957Y-113404761D02*
X145542338Y-113357142D01*
X145542338Y-113357142D02*
X145494719Y-113261904D01*
X145494719Y-113261904D02*
X145494719Y-113023809D01*
X145494719Y-113023809D02*
X145542338Y-112928571D01*
X145542338Y-112928571D02*
X145589957Y-112880952D01*
X145589957Y-112880952D02*
X145685195Y-112833333D01*
X145685195Y-112833333D02*
X145780433Y-112833333D01*
X145780433Y-112833333D02*
X145923290Y-112880952D01*
X145923290Y-112880952D02*
X146494719Y-113452380D01*
X146494719Y-113452380D02*
X146494719Y-112833333D01*
X96529480Y-64541466D02*
X96577100Y-64589085D01*
X96577100Y-64589085D02*
X96624719Y-64731942D01*
X96624719Y-64731942D02*
X96624719Y-64827180D01*
X96624719Y-64827180D02*
X96577100Y-64970037D01*
X96577100Y-64970037D02*
X96481861Y-65065275D01*
X96481861Y-65065275D02*
X96386623Y-65112894D01*
X96386623Y-65112894D02*
X96196147Y-65160513D01*
X96196147Y-65160513D02*
X96053290Y-65160513D01*
X96053290Y-65160513D02*
X95862814Y-65112894D01*
X95862814Y-65112894D02*
X95767576Y-65065275D01*
X95767576Y-65065275D02*
X95672338Y-64970037D01*
X95672338Y-64970037D02*
X95624719Y-64827180D01*
X95624719Y-64827180D02*
X95624719Y-64731942D01*
X95624719Y-64731942D02*
X95672338Y-64589085D01*
X95672338Y-64589085D02*
X95719957Y-64541466D01*
X95624719Y-64208132D02*
X95624719Y-63589085D01*
X95624719Y-63589085D02*
X96005671Y-63922418D01*
X96005671Y-63922418D02*
X96005671Y-63779561D01*
X96005671Y-63779561D02*
X96053290Y-63684323D01*
X96053290Y-63684323D02*
X96100909Y-63636704D01*
X96100909Y-63636704D02*
X96196147Y-63589085D01*
X96196147Y-63589085D02*
X96434242Y-63589085D01*
X96434242Y-63589085D02*
X96529480Y-63636704D01*
X96529480Y-63636704D02*
X96577100Y-63684323D01*
X96577100Y-63684323D02*
X96624719Y-63779561D01*
X96624719Y-63779561D02*
X96624719Y-64065275D01*
X96624719Y-64065275D02*
X96577100Y-64160513D01*
X96577100Y-64160513D02*
X96529480Y-64208132D01*
X143440209Y-84199028D02*
X143440209Y-84675219D01*
X143106876Y-83675219D02*
X143440209Y-84199028D01*
X143440209Y-84199028D02*
X143773542Y-83675219D01*
X144630685Y-84675219D02*
X144059257Y-84675219D01*
X144344971Y-84675219D02*
X144344971Y-83675219D01*
X144344971Y-83675219D02*
X144249733Y-83818076D01*
X144249733Y-83818076D02*
X144154495Y-83913314D01*
X144154495Y-83913314D02*
X144059257Y-83960933D01*
X113027042Y-86829619D02*
X112693709Y-86353428D01*
X112455614Y-86829619D02*
X112455614Y-85829619D01*
X112455614Y-85829619D02*
X112836566Y-85829619D01*
X112836566Y-85829619D02*
X112931804Y-85877238D01*
X112931804Y-85877238D02*
X112979423Y-85924857D01*
X112979423Y-85924857D02*
X113027042Y-86020095D01*
X113027042Y-86020095D02*
X113027042Y-86162952D01*
X113027042Y-86162952D02*
X112979423Y-86258190D01*
X112979423Y-86258190D02*
X112931804Y-86305809D01*
X112931804Y-86305809D02*
X112836566Y-86353428D01*
X112836566Y-86353428D02*
X112455614Y-86353428D01*
X113979423Y-86829619D02*
X113407995Y-86829619D01*
X113693709Y-86829619D02*
X113693709Y-85829619D01*
X113693709Y-85829619D02*
X113598471Y-85972476D01*
X113598471Y-85972476D02*
X113503233Y-86067714D01*
X113503233Y-86067714D02*
X113407995Y-86115333D01*
X114598471Y-85829619D02*
X114693709Y-85829619D01*
X114693709Y-85829619D02*
X114788947Y-85877238D01*
X114788947Y-85877238D02*
X114836566Y-85924857D01*
X114836566Y-85924857D02*
X114884185Y-86020095D01*
X114884185Y-86020095D02*
X114931804Y-86210571D01*
X114931804Y-86210571D02*
X114931804Y-86448666D01*
X114931804Y-86448666D02*
X114884185Y-86639142D01*
X114884185Y-86639142D02*
X114836566Y-86734380D01*
X114836566Y-86734380D02*
X114788947Y-86782000D01*
X114788947Y-86782000D02*
X114693709Y-86829619D01*
X114693709Y-86829619D02*
X114598471Y-86829619D01*
X114598471Y-86829619D02*
X114503233Y-86782000D01*
X114503233Y-86782000D02*
X114455614Y-86734380D01*
X114455614Y-86734380D02*
X114407995Y-86639142D01*
X114407995Y-86639142D02*
X114360376Y-86448666D01*
X114360376Y-86448666D02*
X114360376Y-86210571D01*
X114360376Y-86210571D02*
X114407995Y-86020095D01*
X114407995Y-86020095D02*
X114455614Y-85924857D01*
X114455614Y-85924857D02*
X114503233Y-85877238D01*
X114503233Y-85877238D02*
X114598471Y-85829619D01*
X168770467Y-58021200D02*
X168913324Y-58068819D01*
X168913324Y-58068819D02*
X169151419Y-58068819D01*
X169151419Y-58068819D02*
X169246657Y-58021200D01*
X169246657Y-58021200D02*
X169294276Y-57973580D01*
X169294276Y-57973580D02*
X169341895Y-57878342D01*
X169341895Y-57878342D02*
X169341895Y-57783104D01*
X169341895Y-57783104D02*
X169294276Y-57687866D01*
X169294276Y-57687866D02*
X169246657Y-57640247D01*
X169246657Y-57640247D02*
X169151419Y-57592628D01*
X169151419Y-57592628D02*
X168960943Y-57545009D01*
X168960943Y-57545009D02*
X168865705Y-57497390D01*
X168865705Y-57497390D02*
X168818086Y-57449771D01*
X168818086Y-57449771D02*
X168770467Y-57354533D01*
X168770467Y-57354533D02*
X168770467Y-57259295D01*
X168770467Y-57259295D02*
X168818086Y-57164057D01*
X168818086Y-57164057D02*
X168865705Y-57116438D01*
X168865705Y-57116438D02*
X168960943Y-57068819D01*
X168960943Y-57068819D02*
X169199038Y-57068819D01*
X169199038Y-57068819D02*
X169341895Y-57116438D01*
X169675229Y-57068819D02*
X169913324Y-58068819D01*
X169913324Y-58068819D02*
X170103800Y-57354533D01*
X170103800Y-57354533D02*
X170294276Y-58068819D01*
X170294276Y-58068819D02*
X170532372Y-57068819D01*
X171437133Y-58068819D02*
X170865705Y-58068819D01*
X171151419Y-58068819D02*
X171151419Y-57068819D01*
X171151419Y-57068819D02*
X171056181Y-57211676D01*
X171056181Y-57211676D02*
X170960943Y-57306914D01*
X170960943Y-57306914D02*
X170865705Y-57354533D01*
X168124719Y-73362896D02*
X167124719Y-73362896D01*
X168124719Y-72791468D02*
X167553290Y-73220039D01*
X167124719Y-72791468D02*
X167696147Y-73362896D01*
X167648528Y-72172420D02*
X168124719Y-72172420D01*
X167124719Y-72505753D02*
X167648528Y-72172420D01*
X167648528Y-72172420D02*
X167124719Y-71839087D01*
X167124719Y-71315277D02*
X167124719Y-71220039D01*
X167124719Y-71220039D02*
X167172338Y-71124801D01*
X167172338Y-71124801D02*
X167219957Y-71077182D01*
X167219957Y-71077182D02*
X167315195Y-71029563D01*
X167315195Y-71029563D02*
X167505671Y-70981944D01*
X167505671Y-70981944D02*
X167743766Y-70981944D01*
X167743766Y-70981944D02*
X167934242Y-71029563D01*
X167934242Y-71029563D02*
X168029480Y-71077182D01*
X168029480Y-71077182D02*
X168077100Y-71124801D01*
X168077100Y-71124801D02*
X168124719Y-71220039D01*
X168124719Y-71220039D02*
X168124719Y-71315277D01*
X168124719Y-71315277D02*
X168077100Y-71410515D01*
X168077100Y-71410515D02*
X168029480Y-71458134D01*
X168029480Y-71458134D02*
X167934242Y-71505753D01*
X167934242Y-71505753D02*
X167743766Y-71553372D01*
X167743766Y-71553372D02*
X167505671Y-71553372D01*
X167505671Y-71553372D02*
X167315195Y-71505753D01*
X167315195Y-71505753D02*
X167219957Y-71458134D01*
X167219957Y-71458134D02*
X167172338Y-71410515D01*
X167172338Y-71410515D02*
X167124719Y-71315277D01*
X167458052Y-70124801D02*
X168124719Y-70124801D01*
X167077100Y-70362896D02*
X167791385Y-70600991D01*
X167791385Y-70600991D02*
X167791385Y-69981944D01*
X167124719Y-69410515D02*
X167124719Y-69315277D01*
X167124719Y-69315277D02*
X167172338Y-69220039D01*
X167172338Y-69220039D02*
X167219957Y-69172420D01*
X167219957Y-69172420D02*
X167315195Y-69124801D01*
X167315195Y-69124801D02*
X167505671Y-69077182D01*
X167505671Y-69077182D02*
X167743766Y-69077182D01*
X167743766Y-69077182D02*
X167934242Y-69124801D01*
X167934242Y-69124801D02*
X168029480Y-69172420D01*
X168029480Y-69172420D02*
X168077100Y-69220039D01*
X168077100Y-69220039D02*
X168124719Y-69315277D01*
X168124719Y-69315277D02*
X168124719Y-69410515D01*
X168124719Y-69410515D02*
X168077100Y-69505753D01*
X168077100Y-69505753D02*
X168029480Y-69553372D01*
X168029480Y-69553372D02*
X167934242Y-69600991D01*
X167934242Y-69600991D02*
X167743766Y-69648610D01*
X167743766Y-69648610D02*
X167505671Y-69648610D01*
X167505671Y-69648610D02*
X167315195Y-69600991D01*
X167315195Y-69600991D02*
X167219957Y-69553372D01*
X167219957Y-69553372D02*
X167172338Y-69505753D01*
X167172338Y-69505753D02*
X167124719Y-69410515D01*
X168124719Y-67315277D02*
X167648528Y-67648610D01*
X168124719Y-67886705D02*
X167124719Y-67886705D01*
X167124719Y-67886705D02*
X167124719Y-67505753D01*
X167124719Y-67505753D02*
X167172338Y-67410515D01*
X167172338Y-67410515D02*
X167219957Y-67362896D01*
X167219957Y-67362896D02*
X167315195Y-67315277D01*
X167315195Y-67315277D02*
X167458052Y-67315277D01*
X167458052Y-67315277D02*
X167553290Y-67362896D01*
X167553290Y-67362896D02*
X167600909Y-67410515D01*
X167600909Y-67410515D02*
X167648528Y-67505753D01*
X167648528Y-67505753D02*
X167648528Y-67886705D01*
X168124719Y-66743848D02*
X168077100Y-66839086D01*
X168077100Y-66839086D02*
X168029480Y-66886705D01*
X168029480Y-66886705D02*
X167934242Y-66934324D01*
X167934242Y-66934324D02*
X167648528Y-66934324D01*
X167648528Y-66934324D02*
X167553290Y-66886705D01*
X167553290Y-66886705D02*
X167505671Y-66839086D01*
X167505671Y-66839086D02*
X167458052Y-66743848D01*
X167458052Y-66743848D02*
X167458052Y-66600991D01*
X167458052Y-66600991D02*
X167505671Y-66505753D01*
X167505671Y-66505753D02*
X167553290Y-66458134D01*
X167553290Y-66458134D02*
X167648528Y-66410515D01*
X167648528Y-66410515D02*
X167934242Y-66410515D01*
X167934242Y-66410515D02*
X168029480Y-66458134D01*
X168029480Y-66458134D02*
X168077100Y-66505753D01*
X168077100Y-66505753D02*
X168124719Y-66600991D01*
X168124719Y-66600991D02*
X168124719Y-66743848D01*
X167458052Y-66124800D02*
X167458052Y-65743848D01*
X167124719Y-65981943D02*
X167981861Y-65981943D01*
X167981861Y-65981943D02*
X168077100Y-65934324D01*
X168077100Y-65934324D02*
X168124719Y-65839086D01*
X168124719Y-65839086D02*
X168124719Y-65743848D01*
X168124719Y-64981943D02*
X167600909Y-64981943D01*
X167600909Y-64981943D02*
X167505671Y-65029562D01*
X167505671Y-65029562D02*
X167458052Y-65124800D01*
X167458052Y-65124800D02*
X167458052Y-65315276D01*
X167458052Y-65315276D02*
X167505671Y-65410514D01*
X168077100Y-64981943D02*
X168124719Y-65077181D01*
X168124719Y-65077181D02*
X168124719Y-65315276D01*
X168124719Y-65315276D02*
X168077100Y-65410514D01*
X168077100Y-65410514D02*
X167981861Y-65458133D01*
X167981861Y-65458133D02*
X167886623Y-65458133D01*
X167886623Y-65458133D02*
X167791385Y-65410514D01*
X167791385Y-65410514D02*
X167743766Y-65315276D01*
X167743766Y-65315276D02*
X167743766Y-65077181D01*
X167743766Y-65077181D02*
X167696147Y-64981943D01*
X168124719Y-64505752D02*
X167458052Y-64505752D01*
X167648528Y-64505752D02*
X167553290Y-64458133D01*
X167553290Y-64458133D02*
X167505671Y-64410514D01*
X167505671Y-64410514D02*
X167458052Y-64315276D01*
X167458052Y-64315276D02*
X167458052Y-64220038D01*
X167458052Y-63981942D02*
X168124719Y-63743847D01*
X167458052Y-63505752D02*
X168124719Y-63743847D01*
X168124719Y-63743847D02*
X168362814Y-63839085D01*
X168362814Y-63839085D02*
X168410433Y-63886704D01*
X168410433Y-63886704D02*
X168458052Y-63981942D01*
X167600909Y-62362894D02*
X167600909Y-62029561D01*
X168124719Y-61886704D02*
X168124719Y-62362894D01*
X168124719Y-62362894D02*
X167124719Y-62362894D01*
X167124719Y-62362894D02*
X167124719Y-61886704D01*
X167458052Y-61458132D02*
X168124719Y-61458132D01*
X167553290Y-61458132D02*
X167505671Y-61410513D01*
X167505671Y-61410513D02*
X167458052Y-61315275D01*
X167458052Y-61315275D02*
X167458052Y-61172418D01*
X167458052Y-61172418D02*
X167505671Y-61077180D01*
X167505671Y-61077180D02*
X167600909Y-61029561D01*
X167600909Y-61029561D02*
X168124719Y-61029561D01*
X168077100Y-60124799D02*
X168124719Y-60220037D01*
X168124719Y-60220037D02*
X168124719Y-60410513D01*
X168124719Y-60410513D02*
X168077100Y-60505751D01*
X168077100Y-60505751D02*
X168029480Y-60553370D01*
X168029480Y-60553370D02*
X167934242Y-60600989D01*
X167934242Y-60600989D02*
X167648528Y-60600989D01*
X167648528Y-60600989D02*
X167553290Y-60553370D01*
X167553290Y-60553370D02*
X167505671Y-60505751D01*
X167505671Y-60505751D02*
X167458052Y-60410513D01*
X167458052Y-60410513D02*
X167458052Y-60220037D01*
X167458052Y-60220037D02*
X167505671Y-60124799D01*
X168124719Y-59553370D02*
X168077100Y-59648608D01*
X168077100Y-59648608D02*
X168029480Y-59696227D01*
X168029480Y-59696227D02*
X167934242Y-59743846D01*
X167934242Y-59743846D02*
X167648528Y-59743846D01*
X167648528Y-59743846D02*
X167553290Y-59696227D01*
X167553290Y-59696227D02*
X167505671Y-59648608D01*
X167505671Y-59648608D02*
X167458052Y-59553370D01*
X167458052Y-59553370D02*
X167458052Y-59410513D01*
X167458052Y-59410513D02*
X167505671Y-59315275D01*
X167505671Y-59315275D02*
X167553290Y-59267656D01*
X167553290Y-59267656D02*
X167648528Y-59220037D01*
X167648528Y-59220037D02*
X167934242Y-59220037D01*
X167934242Y-59220037D02*
X168029480Y-59267656D01*
X168029480Y-59267656D02*
X168077100Y-59315275D01*
X168077100Y-59315275D02*
X168124719Y-59410513D01*
X168124719Y-59410513D02*
X168124719Y-59553370D01*
X168124719Y-58362894D02*
X167124719Y-58362894D01*
X168077100Y-58362894D02*
X168124719Y-58458132D01*
X168124719Y-58458132D02*
X168124719Y-58648608D01*
X168124719Y-58648608D02*
X168077100Y-58743846D01*
X168077100Y-58743846D02*
X168029480Y-58791465D01*
X168029480Y-58791465D02*
X167934242Y-58839084D01*
X167934242Y-58839084D02*
X167648528Y-58839084D01*
X167648528Y-58839084D02*
X167553290Y-58791465D01*
X167553290Y-58791465D02*
X167505671Y-58743846D01*
X167505671Y-58743846D02*
X167458052Y-58648608D01*
X167458052Y-58648608D02*
X167458052Y-58458132D01*
X167458052Y-58458132D02*
X167505671Y-58362894D01*
X168077100Y-57505751D02*
X168124719Y-57600989D01*
X168124719Y-57600989D02*
X168124719Y-57791465D01*
X168124719Y-57791465D02*
X168077100Y-57886703D01*
X168077100Y-57886703D02*
X167981861Y-57934322D01*
X167981861Y-57934322D02*
X167600909Y-57934322D01*
X167600909Y-57934322D02*
X167505671Y-57886703D01*
X167505671Y-57886703D02*
X167458052Y-57791465D01*
X167458052Y-57791465D02*
X167458052Y-57600989D01*
X167458052Y-57600989D02*
X167505671Y-57505751D01*
X167505671Y-57505751D02*
X167600909Y-57458132D01*
X167600909Y-57458132D02*
X167696147Y-57458132D01*
X167696147Y-57458132D02*
X167791385Y-57934322D01*
X168124719Y-57029560D02*
X167458052Y-57029560D01*
X167648528Y-57029560D02*
X167553290Y-56981941D01*
X167553290Y-56981941D02*
X167505671Y-56934322D01*
X167505671Y-56934322D02*
X167458052Y-56839084D01*
X167458052Y-56839084D02*
X167458052Y-56743846D01*
X140874719Y-63767657D02*
X140398528Y-64100990D01*
X140874719Y-64339085D02*
X139874719Y-64339085D01*
X139874719Y-64339085D02*
X139874719Y-63958133D01*
X139874719Y-63958133D02*
X139922338Y-63862895D01*
X139922338Y-63862895D02*
X139969957Y-63815276D01*
X139969957Y-63815276D02*
X140065195Y-63767657D01*
X140065195Y-63767657D02*
X140208052Y-63767657D01*
X140208052Y-63767657D02*
X140303290Y-63815276D01*
X140303290Y-63815276D02*
X140350909Y-63862895D01*
X140350909Y-63862895D02*
X140398528Y-63958133D01*
X140398528Y-63958133D02*
X140398528Y-64339085D01*
X139969957Y-63386704D02*
X139922338Y-63339085D01*
X139922338Y-63339085D02*
X139874719Y-63243847D01*
X139874719Y-63243847D02*
X139874719Y-63005752D01*
X139874719Y-63005752D02*
X139922338Y-62910514D01*
X139922338Y-62910514D02*
X139969957Y-62862895D01*
X139969957Y-62862895D02*
X140065195Y-62815276D01*
X140065195Y-62815276D02*
X140160433Y-62815276D01*
X140160433Y-62815276D02*
X140303290Y-62862895D01*
X140303290Y-62862895D02*
X140874719Y-63434323D01*
X140874719Y-63434323D02*
X140874719Y-62815276D01*
X139874719Y-62481942D02*
X139874719Y-61815276D01*
X139874719Y-61815276D02*
X140874719Y-62243847D01*
X161774719Y-74043847D02*
X161298528Y-74377180D01*
X161774719Y-74615275D02*
X160774719Y-74615275D01*
X160774719Y-74615275D02*
X160774719Y-74234323D01*
X160774719Y-74234323D02*
X160822338Y-74139085D01*
X160822338Y-74139085D02*
X160869957Y-74091466D01*
X160869957Y-74091466D02*
X160965195Y-74043847D01*
X160965195Y-74043847D02*
X161108052Y-74043847D01*
X161108052Y-74043847D02*
X161203290Y-74091466D01*
X161203290Y-74091466D02*
X161250909Y-74139085D01*
X161250909Y-74139085D02*
X161298528Y-74234323D01*
X161298528Y-74234323D02*
X161298528Y-74615275D01*
X161774719Y-73091466D02*
X161774719Y-73662894D01*
X161774719Y-73377180D02*
X160774719Y-73377180D01*
X160774719Y-73377180D02*
X160917576Y-73472418D01*
X160917576Y-73472418D02*
X161012814Y-73567656D01*
X161012814Y-73567656D02*
X161060433Y-73662894D01*
X160774719Y-72472418D02*
X160774719Y-72377180D01*
X160774719Y-72377180D02*
X160822338Y-72281942D01*
X160822338Y-72281942D02*
X160869957Y-72234323D01*
X160869957Y-72234323D02*
X160965195Y-72186704D01*
X160965195Y-72186704D02*
X161155671Y-72139085D01*
X161155671Y-72139085D02*
X161393766Y-72139085D01*
X161393766Y-72139085D02*
X161584242Y-72186704D01*
X161584242Y-72186704D02*
X161679480Y-72234323D01*
X161679480Y-72234323D02*
X161727100Y-72281942D01*
X161727100Y-72281942D02*
X161774719Y-72377180D01*
X161774719Y-72377180D02*
X161774719Y-72472418D01*
X161774719Y-72472418D02*
X161727100Y-72567656D01*
X161727100Y-72567656D02*
X161679480Y-72615275D01*
X161679480Y-72615275D02*
X161584242Y-72662894D01*
X161584242Y-72662894D02*
X161393766Y-72710513D01*
X161393766Y-72710513D02*
X161155671Y-72710513D01*
X161155671Y-72710513D02*
X160965195Y-72662894D01*
X160965195Y-72662894D02*
X160869957Y-72615275D01*
X160869957Y-72615275D02*
X160822338Y-72567656D01*
X160822338Y-72567656D02*
X160774719Y-72472418D01*
X160869957Y-71758132D02*
X160822338Y-71710513D01*
X160822338Y-71710513D02*
X160774719Y-71615275D01*
X160774719Y-71615275D02*
X160774719Y-71377180D01*
X160774719Y-71377180D02*
X160822338Y-71281942D01*
X160822338Y-71281942D02*
X160869957Y-71234323D01*
X160869957Y-71234323D02*
X160965195Y-71186704D01*
X160965195Y-71186704D02*
X161060433Y-71186704D01*
X161060433Y-71186704D02*
X161203290Y-71234323D01*
X161203290Y-71234323D02*
X161774719Y-71805751D01*
X161774719Y-71805751D02*
X161774719Y-71186704D01*
X168229424Y-79079619D02*
X168229424Y-78079619D01*
X168229424Y-78079619D02*
X168467519Y-78079619D01*
X168467519Y-78079619D02*
X168610376Y-78127238D01*
X168610376Y-78127238D02*
X168705614Y-78222476D01*
X168705614Y-78222476D02*
X168753233Y-78317714D01*
X168753233Y-78317714D02*
X168800852Y-78508190D01*
X168800852Y-78508190D02*
X168800852Y-78651047D01*
X168800852Y-78651047D02*
X168753233Y-78841523D01*
X168753233Y-78841523D02*
X168705614Y-78936761D01*
X168705614Y-78936761D02*
X168610376Y-79032000D01*
X168610376Y-79032000D02*
X168467519Y-79079619D01*
X168467519Y-79079619D02*
X168229424Y-79079619D01*
X169753233Y-79079619D02*
X169181805Y-79079619D01*
X169467519Y-79079619D02*
X169467519Y-78079619D01*
X169467519Y-78079619D02*
X169372281Y-78222476D01*
X169372281Y-78222476D02*
X169277043Y-78317714D01*
X169277043Y-78317714D02*
X169181805Y-78365333D01*
X170372281Y-78079619D02*
X170467519Y-78079619D01*
X170467519Y-78079619D02*
X170562757Y-78127238D01*
X170562757Y-78127238D02*
X170610376Y-78174857D01*
X170610376Y-78174857D02*
X170657995Y-78270095D01*
X170657995Y-78270095D02*
X170705614Y-78460571D01*
X170705614Y-78460571D02*
X170705614Y-78698666D01*
X170705614Y-78698666D02*
X170657995Y-78889142D01*
X170657995Y-78889142D02*
X170610376Y-78984380D01*
X170610376Y-78984380D02*
X170562757Y-79032000D01*
X170562757Y-79032000D02*
X170467519Y-79079619D01*
X170467519Y-79079619D02*
X170372281Y-79079619D01*
X170372281Y-79079619D02*
X170277043Y-79032000D01*
X170277043Y-79032000D02*
X170229424Y-78984380D01*
X170229424Y-78984380D02*
X170181805Y-78889142D01*
X170181805Y-78889142D02*
X170134186Y-78698666D01*
X170134186Y-78698666D02*
X170134186Y-78460571D01*
X170134186Y-78460571D02*
X170181805Y-78270095D01*
X170181805Y-78270095D02*
X170229424Y-78174857D01*
X170229424Y-78174857D02*
X170277043Y-78127238D01*
X170277043Y-78127238D02*
X170372281Y-78079619D01*
X171657995Y-79079619D02*
X171086567Y-79079619D01*
X171372281Y-79079619D02*
X171372281Y-78079619D01*
X171372281Y-78079619D02*
X171277043Y-78222476D01*
X171277043Y-78222476D02*
X171181805Y-78317714D01*
X171181805Y-78317714D02*
X171086567Y-78365333D01*
X163374719Y-73956347D02*
X162898528Y-74289680D01*
X163374719Y-74527775D02*
X162374719Y-74527775D01*
X162374719Y-74527775D02*
X162374719Y-74146823D01*
X162374719Y-74146823D02*
X162422338Y-74051585D01*
X162422338Y-74051585D02*
X162469957Y-74003966D01*
X162469957Y-74003966D02*
X162565195Y-73956347D01*
X162565195Y-73956347D02*
X162708052Y-73956347D01*
X162708052Y-73956347D02*
X162803290Y-74003966D01*
X162803290Y-74003966D02*
X162850909Y-74051585D01*
X162850909Y-74051585D02*
X162898528Y-74146823D01*
X162898528Y-74146823D02*
X162898528Y-74527775D01*
X163374719Y-73003966D02*
X163374719Y-73575394D01*
X163374719Y-73289680D02*
X162374719Y-73289680D01*
X162374719Y-73289680D02*
X162517576Y-73384918D01*
X162517576Y-73384918D02*
X162612814Y-73480156D01*
X162612814Y-73480156D02*
X162660433Y-73575394D01*
X162374719Y-72384918D02*
X162374719Y-72289680D01*
X162374719Y-72289680D02*
X162422338Y-72194442D01*
X162422338Y-72194442D02*
X162469957Y-72146823D01*
X162469957Y-72146823D02*
X162565195Y-72099204D01*
X162565195Y-72099204D02*
X162755671Y-72051585D01*
X162755671Y-72051585D02*
X162993766Y-72051585D01*
X162993766Y-72051585D02*
X163184242Y-72099204D01*
X163184242Y-72099204D02*
X163279480Y-72146823D01*
X163279480Y-72146823D02*
X163327100Y-72194442D01*
X163327100Y-72194442D02*
X163374719Y-72289680D01*
X163374719Y-72289680D02*
X163374719Y-72384918D01*
X163374719Y-72384918D02*
X163327100Y-72480156D01*
X163327100Y-72480156D02*
X163279480Y-72527775D01*
X163279480Y-72527775D02*
X163184242Y-72575394D01*
X163184242Y-72575394D02*
X162993766Y-72623013D01*
X162993766Y-72623013D02*
X162755671Y-72623013D01*
X162755671Y-72623013D02*
X162565195Y-72575394D01*
X162565195Y-72575394D02*
X162469957Y-72527775D01*
X162469957Y-72527775D02*
X162422338Y-72480156D01*
X162422338Y-72480156D02*
X162374719Y-72384918D01*
X163374719Y-71099204D02*
X163374719Y-71670632D01*
X163374719Y-71384918D02*
X162374719Y-71384918D01*
X162374719Y-71384918D02*
X162517576Y-71480156D01*
X162517576Y-71480156D02*
X162612814Y-71575394D01*
X162612814Y-71575394D02*
X162660433Y-71670632D01*
D11*
%TO.C,BZ1*%
X143769900Y-107124800D02*
G75*
G02*
X131569900Y-107124800I-6100000J0D01*
G01*
X131569900Y-107124800D02*
G75*
G02*
X143769900Y-107124800I6100000J0D01*
G01*
%TO.C,C1*%
X150759900Y-83413548D02*
X150759900Y-84836052D01*
X152579900Y-83413548D02*
X152579900Y-84836052D01*
%TO.C,C2*%
X136509900Y-89586052D02*
X136509900Y-88163548D01*
X138329900Y-89586052D02*
X138329900Y-88163548D01*
%TO.C,C4*%
X138156152Y-68214800D02*
X136733648Y-68214800D01*
X138156152Y-70034800D02*
X136733648Y-70034800D01*
%TO.C,C5*%
X141676800Y-90062164D02*
X141676800Y-90277836D01*
X142396800Y-90062164D02*
X142396800Y-90277836D01*
%TO.C,C6*%
X145436000Y-90062164D02*
X145436000Y-90277836D01*
X146156000Y-90062164D02*
X146156000Y-90277836D01*
%TO.C,C7*%
X97759900Y-60413548D02*
X97759900Y-61836052D01*
X99579900Y-60413548D02*
X99579900Y-61836052D01*
%TO.C,C8*%
X138009900Y-83163548D02*
X138009900Y-84586052D01*
X139829900Y-83163548D02*
X139829900Y-84586052D01*
%TO.C,C9*%
X152259900Y-69361052D02*
X152259900Y-67938548D01*
X154079900Y-69361052D02*
X154079900Y-67938548D01*
%TO.C,C10*%
X104009900Y-69163548D02*
X104009900Y-70586052D01*
X105829900Y-69163548D02*
X105829900Y-70586052D01*
%TO.C,C11*%
X106509900Y-69163548D02*
X106509900Y-70586052D01*
X108329900Y-69163548D02*
X108329900Y-70586052D01*
%TO.C,C12*%
X131259900Y-98663548D02*
X131259900Y-100086052D01*
X133079900Y-98663548D02*
X133079900Y-100086052D01*
%TO.C,C13*%
X159683648Y-98384800D02*
X161106152Y-98384800D01*
X159683648Y-96564800D02*
X161106152Y-96564800D01*
%TO.C,D2*%
X116025000Y-99965000D02*
X112015000Y-99965000D01*
X116025000Y-101965000D02*
X112015000Y-101965000D01*
X116025000Y-101965000D02*
X116025000Y-99965000D01*
%TO.C,J3*%
X157490000Y-91124800D02*
X157490000Y-90124800D01*
X157740000Y-80874800D02*
X157740000Y-93374800D01*
X157740000Y-93374800D02*
X159740000Y-93374800D01*
X159740000Y-80874800D02*
X157740000Y-80874800D01*
X163240000Y-93374800D02*
X171240000Y-93374800D01*
X171240000Y-79874800D02*
X171240000Y-80874800D01*
X171240000Y-80874800D02*
X163240000Y-80874800D01*
X171240000Y-93374800D02*
X171240000Y-94374800D01*
X171240000Y-94374800D02*
X171740000Y-94374800D01*
X171740000Y-79874800D02*
X171240000Y-79874800D01*
X171740000Y-94374800D02*
X171740000Y-79874800D01*
%TO.C,J5*%
X122495000Y-60265000D02*
X135315000Y-60265000D01*
X122495000Y-62865000D02*
X122495000Y-60265000D01*
X122495000Y-65465000D02*
X122495000Y-64135000D01*
X123825000Y-65465000D02*
X122495000Y-65465000D01*
X125095000Y-62865000D02*
X122495000Y-62865000D01*
X125095000Y-65465000D02*
X125095000Y-62865000D01*
X125095000Y-65465000D02*
X135315000Y-65465000D01*
X135315000Y-65465000D02*
X135315000Y-60265000D01*
%TO.C,Q1*%
X128905000Y-108295000D02*
X128255000Y-108295000D01*
X128905000Y-108295000D02*
X129555000Y-108295000D01*
X128905000Y-111415000D02*
X128255000Y-111415000D01*
X128905000Y-111415000D02*
X129555000Y-111415000D01*
X127742500Y-108345000D02*
X127502500Y-108015000D01*
X127982500Y-108015000D01*
X127742500Y-108345000D01*
G36*
X127742500Y-108345000D02*
G01*
X127502500Y-108015000D01*
X127982500Y-108015000D01*
X127742500Y-108345000D01*
G37*
%TO.C,Q2*%
X107950000Y-74005000D02*
X107300000Y-74005000D01*
X107950000Y-74005000D02*
X108600000Y-74005000D01*
X107950000Y-77125000D02*
X107300000Y-77125000D01*
X107950000Y-77125000D02*
X108600000Y-77125000D01*
X109352500Y-77405000D02*
X108872500Y-77405000D01*
X109112500Y-77075000D01*
X109352500Y-77405000D01*
G36*
X109352500Y-77405000D02*
G01*
X108872500Y-77405000D01*
X109112500Y-77075000D01*
X109352500Y-77405000D01*
G37*
%TO.C,Q3*%
X107950000Y-79720000D02*
X107300000Y-79720000D01*
X107950000Y-79720000D02*
X108600000Y-79720000D01*
X107950000Y-82840000D02*
X107300000Y-82840000D01*
X107950000Y-82840000D02*
X108600000Y-82840000D01*
X109352500Y-83120000D02*
X108872500Y-83120000D01*
X109112500Y-82790000D01*
X109352500Y-83120000D01*
G36*
X109352500Y-83120000D02*
G01*
X108872500Y-83120000D01*
X109112500Y-82790000D01*
X109352500Y-83120000D01*
G37*
%TO.C,Q4*%
X107950000Y-85435000D02*
X107300000Y-85435000D01*
X107950000Y-85435000D02*
X108600000Y-85435000D01*
X107950000Y-88555000D02*
X107300000Y-88555000D01*
X107950000Y-88555000D02*
X108600000Y-88555000D01*
X109352500Y-88835000D02*
X108872500Y-88835000D01*
X109112500Y-88505000D01*
X109352500Y-88835000D01*
G36*
X109352500Y-88835000D02*
G01*
X108872500Y-88835000D01*
X109112500Y-88505000D01*
X109352500Y-88835000D01*
G37*
%TO.C,Q5*%
X107950000Y-91150000D02*
X107300000Y-91150000D01*
X107950000Y-91150000D02*
X108600000Y-91150000D01*
X107950000Y-94270000D02*
X107300000Y-94270000D01*
X107950000Y-94270000D02*
X108600000Y-94270000D01*
X109352500Y-94550000D02*
X108872500Y-94550000D01*
X109112500Y-94220000D01*
X109352500Y-94550000D01*
G36*
X109352500Y-94550000D02*
G01*
X108872500Y-94550000D01*
X109112500Y-94220000D01*
X109352500Y-94550000D01*
G37*
%TO.C,Q6*%
X107950000Y-96865000D02*
X107300000Y-96865000D01*
X107950000Y-96865000D02*
X108600000Y-96865000D01*
X107950000Y-99985000D02*
X107300000Y-99985000D01*
X107950000Y-99985000D02*
X108600000Y-99985000D01*
X109352500Y-100265000D02*
X108872500Y-100265000D01*
X109112500Y-99935000D01*
X109352500Y-100265000D01*
G36*
X109352500Y-100265000D02*
G01*
X108872500Y-100265000D01*
X109112500Y-99935000D01*
X109352500Y-100265000D01*
G37*
%TO.C,Q7*%
X107950000Y-102580000D02*
X107300000Y-102580000D01*
X107950000Y-102580000D02*
X108600000Y-102580000D01*
X107950000Y-105700000D02*
X107300000Y-105700000D01*
X107950000Y-105700000D02*
X108600000Y-105700000D01*
X109352500Y-105980000D02*
X108872500Y-105980000D01*
X109112500Y-105650000D01*
X109352500Y-105980000D01*
G36*
X109352500Y-105980000D02*
G01*
X108872500Y-105980000D01*
X109112500Y-105650000D01*
X109352500Y-105980000D01*
G37*
%TO.C,R1*%
X133509900Y-88147736D02*
X133509900Y-89601864D01*
X135329900Y-88147736D02*
X135329900Y-89601864D01*
%TO.C,R2*%
X121827936Y-108945000D02*
X123282064Y-108945000D01*
X121827936Y-110765000D02*
X123282064Y-110765000D01*
%TO.C,R3*%
X158009900Y-69401864D02*
X158009900Y-67947736D01*
X159829900Y-69401864D02*
X159829900Y-67947736D01*
%TO.C,R4*%
X154809900Y-69401864D02*
X154809900Y-67947736D01*
X156629900Y-69401864D02*
X156629900Y-67947736D01*
%TO.C,R5*%
X152307936Y-96880000D02*
X153762064Y-96880000D01*
X152307936Y-98700000D02*
X153762064Y-98700000D01*
%TO.C,R6*%
X152307936Y-93070000D02*
X153762064Y-93070000D01*
X152307936Y-94890000D02*
X153762064Y-94890000D01*
%TO.C,R7*%
X153509900Y-86902936D02*
X153509900Y-88357064D01*
X155329900Y-86902936D02*
X155329900Y-88357064D01*
%TO.C,R8*%
X114392064Y-75925000D02*
X112937936Y-75925000D01*
X114392064Y-77745000D02*
X112937936Y-77745000D01*
%TO.C,R9*%
X114392064Y-81640000D02*
X112937936Y-81640000D01*
X114392064Y-83460000D02*
X112937936Y-83460000D01*
%TO.C,R11*%
X114392064Y-92435000D02*
X112937936Y-92435000D01*
X114392064Y-94255000D02*
X112937936Y-94255000D01*
%TO.C,R12*%
X114392064Y-96245000D02*
X112937936Y-96245000D01*
X114392064Y-98065000D02*
X112937936Y-98065000D01*
%TO.C,R13*%
X114392064Y-103865000D02*
X112937936Y-103865000D01*
X114392064Y-105685000D02*
X112937936Y-105685000D01*
%TO.C,R14*%
X100237936Y-71480000D02*
X101692064Y-71480000D01*
X100237936Y-73300000D02*
X101692064Y-73300000D01*
%TO.C,R15*%
X100237936Y-74020000D02*
X101692064Y-74020000D01*
X100237936Y-75840000D02*
X101692064Y-75840000D01*
%TO.C,R16*%
X100237936Y-79100000D02*
X101692064Y-79100000D01*
X100237936Y-80920000D02*
X101692064Y-80920000D01*
%TO.C,R17*%
X100237936Y-83545000D02*
X101692064Y-83545000D01*
X100237936Y-85365000D02*
X101692064Y-85365000D01*
%TO.C,R18*%
X100237936Y-86720000D02*
X101692064Y-86720000D01*
X100237936Y-88540000D02*
X101692064Y-88540000D01*
%TO.C,R19*%
X100237936Y-89895000D02*
X101692064Y-89895000D01*
X100237936Y-91715000D02*
X101692064Y-91715000D01*
%TO.C,R20*%
X100237936Y-93070000D02*
X101692064Y-93070000D01*
X100237936Y-94890000D02*
X101692064Y-94890000D01*
%TO.C,R21*%
X100237936Y-96245000D02*
X101692064Y-96245000D01*
X100237936Y-98065000D02*
X101692064Y-98065000D01*
%TO.C,R22*%
X100237936Y-99420000D02*
X101692064Y-99420000D01*
X100237936Y-101240000D02*
X101692064Y-101240000D01*
%TO.C,R23*%
X100237936Y-102595000D02*
X101692064Y-102595000D01*
X100237936Y-104415000D02*
X101692064Y-104415000D01*
%TO.C,R24*%
X100237936Y-105770000D02*
X101692064Y-105770000D01*
X100237936Y-107590000D02*
X101692064Y-107590000D01*
%TO.C,R25*%
X100237936Y-108945000D02*
X101692064Y-108945000D01*
X100237936Y-110765000D02*
X101692064Y-110765000D01*
%TO.C,R26*%
X100237936Y-112120000D02*
X101692064Y-112120000D01*
X100237936Y-113940000D02*
X101692064Y-113940000D01*
%TO.C,SW2*%
X122320000Y-71590000D02*
X122320000Y-70279000D01*
X122320000Y-74129000D02*
X122320000Y-73190000D01*
X122320000Y-76669000D02*
X122320000Y-75729000D01*
X122320000Y-79209000D02*
X122320000Y-78269000D01*
X122320000Y-81749000D02*
X122320000Y-80809000D01*
X122320000Y-84289000D02*
X122320000Y-83349000D01*
X122320000Y-86829000D02*
X122320000Y-85889000D01*
X122320000Y-89369000D02*
X122320000Y-88429000D01*
X122320000Y-92280000D02*
X122320000Y-90970000D01*
X123920000Y-71755000D02*
X123920000Y-73025000D01*
X123920000Y-73025000D02*
X127540000Y-73025000D01*
X123920000Y-74295000D02*
X123920000Y-75565000D01*
X123920000Y-75565000D02*
X127540000Y-75565000D01*
X123920000Y-76835000D02*
X123920000Y-78105000D01*
X123920000Y-78105000D02*
X127540000Y-78105000D01*
X123920000Y-79375000D02*
X123920000Y-80645000D01*
X123920000Y-80645000D02*
X127540000Y-80645000D01*
X123920000Y-81915000D02*
X123920000Y-83185000D01*
X123920000Y-83185000D02*
X127540000Y-83185000D01*
X123920000Y-84455000D02*
X123920000Y-85725000D01*
X123920000Y-85725000D02*
X127540000Y-85725000D01*
X123920000Y-86995000D02*
X123920000Y-88265000D01*
X123920000Y-88265000D02*
X127540000Y-88265000D01*
X123920000Y-89535000D02*
X123920000Y-90805000D01*
X123920000Y-90805000D02*
X127540000Y-90805000D01*
X126333333Y-73025000D02*
X126333333Y-71755000D01*
X126333333Y-75565000D02*
X126333333Y-74295000D01*
X126333333Y-78105000D02*
X126333333Y-76835000D01*
X126333333Y-80645000D02*
X126333333Y-79375000D01*
X126333333Y-83185000D02*
X126333333Y-81915000D01*
X126333333Y-85725000D02*
X126333333Y-84455000D01*
X126333333Y-88265000D02*
X126333333Y-86995000D01*
X126333333Y-90805000D02*
X126333333Y-89535000D01*
X127540000Y-71755000D02*
X123920000Y-71755000D01*
X127540000Y-71825000D02*
X126333333Y-71825000D01*
X127540000Y-71945000D02*
X126333333Y-71945000D01*
X127540000Y-72065000D02*
X126333333Y-72065000D01*
X127540000Y-72185000D02*
X126333333Y-72185000D01*
X127540000Y-72305000D02*
X126333333Y-72305000D01*
X127540000Y-72425000D02*
X126333333Y-72425000D01*
X127540000Y-72545000D02*
X126333333Y-72545000D01*
X127540000Y-72665000D02*
X126333333Y-72665000D01*
X127540000Y-72785000D02*
X126333333Y-72785000D01*
X127540000Y-72905000D02*
X126333333Y-72905000D01*
X127540000Y-73025000D02*
X127540000Y-71755000D01*
X127540000Y-74295000D02*
X123920000Y-74295000D01*
X127540000Y-74365000D02*
X126333333Y-74365000D01*
X127540000Y-74485000D02*
X126333333Y-74485000D01*
X127540000Y-74605000D02*
X126333333Y-74605000D01*
X127540000Y-74725000D02*
X126333333Y-74725000D01*
X127540000Y-74845000D02*
X126333333Y-74845000D01*
X127540000Y-74965000D02*
X126333333Y-74965000D01*
X127540000Y-75085000D02*
X126333333Y-75085000D01*
X127540000Y-75205000D02*
X126333333Y-75205000D01*
X127540000Y-75325000D02*
X126333333Y-75325000D01*
X127540000Y-75445000D02*
X126333333Y-75445000D01*
X127540000Y-75565000D02*
X127540000Y-74295000D01*
X127540000Y-76835000D02*
X123920000Y-76835000D01*
X127540000Y-76905000D02*
X126333333Y-76905000D01*
X127540000Y-77025000D02*
X126333333Y-77025000D01*
X127540000Y-77145000D02*
X126333333Y-77145000D01*
X127540000Y-77265000D02*
X126333333Y-77265000D01*
X127540000Y-77385000D02*
X126333333Y-77385000D01*
X127540000Y-77505000D02*
X126333333Y-77505000D01*
X127540000Y-77625000D02*
X126333333Y-77625000D01*
X127540000Y-77745000D02*
X126333333Y-77745000D01*
X127540000Y-77865000D02*
X126333333Y-77865000D01*
X127540000Y-77985000D02*
X126333333Y-77985000D01*
X127540000Y-78105000D02*
X127540000Y-76835000D01*
X127540000Y-79375000D02*
X123920000Y-79375000D01*
X127540000Y-79445000D02*
X126333333Y-79445000D01*
X127540000Y-79565000D02*
X126333333Y-79565000D01*
X127540000Y-79685000D02*
X126333333Y-79685000D01*
X127540000Y-79805000D02*
X126333333Y-79805000D01*
X127540000Y-79925000D02*
X126333333Y-79925000D01*
X127540000Y-80045000D02*
X126333333Y-80045000D01*
X127540000Y-80165000D02*
X126333333Y-80165000D01*
X127540000Y-80285000D02*
X126333333Y-80285000D01*
X127540000Y-80405000D02*
X126333333Y-80405000D01*
X127540000Y-80525000D02*
X126333333Y-80525000D01*
X127540000Y-80645000D02*
X127540000Y-79375000D01*
X127540000Y-81915000D02*
X123920000Y-81915000D01*
X127540000Y-81985000D02*
X126333333Y-81985000D01*
X127540000Y-82105000D02*
X126333333Y-82105000D01*
X127540000Y-82225000D02*
X126333333Y-82225000D01*
X127540000Y-82345000D02*
X126333333Y-82345000D01*
X127540000Y-82465000D02*
X126333333Y-82465000D01*
X127540000Y-82585000D02*
X126333333Y-82585000D01*
X127540000Y-82705000D02*
X126333333Y-82705000D01*
X127540000Y-82825000D02*
X126333333Y-82825000D01*
X127540000Y-82945000D02*
X126333333Y-82945000D01*
X127540000Y-83065000D02*
X126333333Y-83065000D01*
X127540000Y-83185000D02*
X127540000Y-81915000D01*
X127540000Y-84455000D02*
X123920000Y-84455000D01*
X127540000Y-84525000D02*
X126333333Y-84525000D01*
X127540000Y-84645000D02*
X126333333Y-84645000D01*
X127540000Y-84765000D02*
X126333333Y-84765000D01*
X127540000Y-84885000D02*
X126333333Y-84885000D01*
X127540000Y-85005000D02*
X126333333Y-85005000D01*
X127540000Y-85125000D02*
X126333333Y-85125000D01*
X127540000Y-85245000D02*
X126333333Y-85245000D01*
X127540000Y-85365000D02*
X126333333Y-85365000D01*
X127540000Y-85485000D02*
X126333333Y-85485000D01*
X127540000Y-85605000D02*
X126333333Y-85605000D01*
X127540000Y-85725000D02*
X127540000Y-84455000D01*
X127540000Y-86995000D02*
X123920000Y-86995000D01*
X127540000Y-87065000D02*
X126333333Y-87065000D01*
X127540000Y-87185000D02*
X126333333Y-87185000D01*
X127540000Y-87305000D02*
X126333333Y-87305000D01*
X127540000Y-87425000D02*
X126333333Y-87425000D01*
X127540000Y-87545000D02*
X126333333Y-87545000D01*
X127540000Y-87665000D02*
X126333333Y-87665000D01*
X127540000Y-87785000D02*
X126333333Y-87785000D01*
X127540000Y-87905000D02*
X126333333Y-87905000D01*
X127540000Y-88025000D02*
X126333333Y-88025000D01*
X127540000Y-88145000D02*
X126333333Y-88145000D01*
X127540000Y-88265000D02*
X127540000Y-86995000D01*
X127540000Y-89535000D02*
X123920000Y-89535000D01*
X127540000Y-89605000D02*
X126333333Y-89605000D01*
X127540000Y-89725000D02*
X126333333Y-89725000D01*
X127540000Y-89845000D02*
X126333333Y-89845000D01*
X127540000Y-89965000D02*
X126333333Y-89965000D01*
X127540000Y-90085000D02*
X126333333Y-90085000D01*
X127540000Y-90205000D02*
X126333333Y-90205000D01*
X127540000Y-90325000D02*
X126333333Y-90325000D01*
X127540000Y-90445000D02*
X126333333Y-90445000D01*
X127540000Y-90565000D02*
X126333333Y-90565000D01*
X127540000Y-90685000D02*
X126333333Y-90685000D01*
X127540000Y-90805000D02*
X127540000Y-89535000D01*
X129140000Y-70279000D02*
X122320000Y-70279000D01*
X129140000Y-71590000D02*
X129140000Y-70279000D01*
X129140000Y-74130000D02*
X129140000Y-73190000D01*
X129140000Y-76670000D02*
X129140000Y-75730000D01*
X129140000Y-79210000D02*
X129140000Y-78270000D01*
X129140000Y-81750000D02*
X129140000Y-80810000D01*
X129140000Y-84290000D02*
X129140000Y-83350000D01*
X129140000Y-86830000D02*
X129140000Y-85890000D01*
X129140000Y-89370000D02*
X129140000Y-88430000D01*
X129140000Y-92280000D02*
X122320000Y-92280000D01*
X129140000Y-92280000D02*
X129140000Y-90970000D01*
X129380000Y-92520000D02*
X127997000Y-92520000D01*
X129380000Y-92520000D02*
X129380000Y-91137000D01*
%TO.C,U1*%
X100259900Y-61015000D02*
X100259900Y-64775000D01*
X100259900Y-64775000D02*
X101519900Y-64775000D01*
X107079900Y-61015000D02*
X107079900Y-64775000D01*
X107079900Y-64775000D02*
X105819900Y-64775000D01*
X107309900Y-59975000D02*
X106979900Y-59735000D01*
X107309900Y-59495000D01*
X107309900Y-59975000D01*
G36*
X107309900Y-59975000D02*
G01*
X106979900Y-59735000D01*
X107309900Y-59495000D01*
X107309900Y-59975000D01*
G37*
%TO.C,U2*%
X140305000Y-70455000D02*
X141255000Y-70455000D01*
X140305000Y-71405000D02*
X140305000Y-70455000D01*
X140305000Y-79725000D02*
X140305000Y-80675000D01*
X140305000Y-80675000D02*
X141255000Y-80675000D01*
X141255000Y-80675000D02*
X141255000Y-82015000D01*
X150525000Y-70455000D02*
X149575000Y-70455000D01*
X150525000Y-71405000D02*
X150525000Y-70455000D01*
X150525000Y-79725000D02*
X150525000Y-80675000D01*
X150525000Y-80675000D02*
X149575000Y-80675000D01*
%TO.C,U3*%
X147320000Y-100040000D02*
X146520000Y-100040000D01*
X147320000Y-100040000D02*
X148120000Y-100040000D01*
X147320000Y-103160000D02*
X146520000Y-103160000D01*
X147320000Y-103160000D02*
X148120000Y-103160000D01*
X148860000Y-103440000D02*
X148380000Y-103440000D01*
X148620000Y-103110000D01*
X148860000Y-103440000D01*
G36*
X148860000Y-103440000D02*
G01*
X148380000Y-103440000D01*
X148620000Y-103110000D01*
X148860000Y-103440000D01*
G37*
%TO.C,U4*%
X125095000Y-97165000D02*
X123145000Y-97165000D01*
X125095000Y-97165000D02*
X127045000Y-97165000D01*
X125095000Y-106035000D02*
X123145000Y-106035000D01*
X125095000Y-106035000D02*
X127045000Y-106035000D01*
X122395000Y-97230000D02*
X122155000Y-96900000D01*
X122635000Y-96900000D01*
X122395000Y-97230000D01*
G36*
X122395000Y-97230000D02*
G01*
X122155000Y-96900000D01*
X122635000Y-96900000D01*
X122395000Y-97230000D01*
G37*
%TO.C,J1*%
X81975000Y-58040000D02*
X81975000Y-58800000D01*
X81975000Y-58800000D02*
X87975000Y-58800000D01*
X81975000Y-60580000D02*
X81975000Y-61340000D01*
X81975000Y-61340000D02*
X87975000Y-61340000D01*
X81975000Y-63120000D02*
X81975000Y-63880000D01*
X81975000Y-63880000D02*
X87975000Y-63880000D01*
X81975000Y-65660000D02*
X81975000Y-66420000D01*
X81975000Y-66420000D02*
X87975000Y-66420000D01*
X87975000Y-57090000D02*
X90635000Y-57090000D01*
X87975000Y-58040000D02*
X81975000Y-58040000D01*
X87975000Y-58100000D02*
X81975000Y-58100000D01*
X87975000Y-58220000D02*
X81975000Y-58220000D01*
X87975000Y-58340000D02*
X81975000Y-58340000D01*
X87975000Y-58460000D02*
X81975000Y-58460000D01*
X87975000Y-58580000D02*
X81975000Y-58580000D01*
X87975000Y-58700000D02*
X81975000Y-58700000D01*
X87975000Y-60580000D02*
X81975000Y-60580000D01*
X87975000Y-63120000D02*
X81975000Y-63120000D01*
X87975000Y-65660000D02*
X81975000Y-65660000D01*
X87975000Y-67370000D02*
X87975000Y-57090000D01*
X90635000Y-57090000D02*
X90635000Y-67370000D01*
X90635000Y-59690000D02*
X87975000Y-59690000D01*
X90635000Y-62230000D02*
X87975000Y-62230000D01*
X90635000Y-64770000D02*
X87975000Y-64770000D01*
X90635000Y-67370000D02*
X87975000Y-67370000D01*
X90965000Y-58040000D02*
X90635000Y-58040000D01*
X90965000Y-58800000D02*
X90635000Y-58800000D01*
X91032071Y-60580000D02*
X90635000Y-60580000D01*
X91032071Y-61340000D02*
X90635000Y-61340000D01*
X91032071Y-63120000D02*
X90635000Y-63120000D01*
X91032071Y-63880000D02*
X90635000Y-63880000D01*
X91032071Y-65660000D02*
X90635000Y-65660000D01*
X91032071Y-66420000D02*
X90635000Y-66420000D01*
X93345000Y-57150000D02*
X92075000Y-57150000D01*
X93345000Y-58420000D02*
X93345000Y-57150000D01*
%TO.C,J6*%
X81848000Y-72010000D02*
X81848000Y-72770000D01*
X81848000Y-72770000D02*
X87848000Y-72770000D01*
X81848000Y-74550000D02*
X81848000Y-75310000D01*
X81848000Y-75310000D02*
X87848000Y-75310000D01*
X81848000Y-77090000D02*
X81848000Y-77850000D01*
X81848000Y-77850000D02*
X87848000Y-77850000D01*
X81848000Y-79630000D02*
X81848000Y-80390000D01*
X81848000Y-80390000D02*
X87848000Y-80390000D01*
X81848000Y-82170000D02*
X81848000Y-82930000D01*
X81848000Y-82930000D02*
X87848000Y-82930000D01*
X81848000Y-84710000D02*
X81848000Y-85470000D01*
X81848000Y-85470000D02*
X87848000Y-85470000D01*
X81848000Y-87250000D02*
X81848000Y-88010000D01*
X81848000Y-88010000D02*
X87848000Y-88010000D01*
X81848000Y-89790000D02*
X81848000Y-90550000D01*
X81848000Y-90550000D02*
X87848000Y-90550000D01*
X81848000Y-92330000D02*
X81848000Y-93090000D01*
X81848000Y-93090000D02*
X87848000Y-93090000D01*
X81848000Y-94870000D02*
X81848000Y-95630000D01*
X81848000Y-95630000D02*
X87848000Y-95630000D01*
X81848000Y-97410000D02*
X81848000Y-98170000D01*
X81848000Y-98170000D02*
X87848000Y-98170000D01*
X81848000Y-99950000D02*
X81848000Y-100710000D01*
X81848000Y-100710000D02*
X87848000Y-100710000D01*
X81848000Y-102490000D02*
X81848000Y-103250000D01*
X81848000Y-103250000D02*
X87848000Y-103250000D01*
X81848000Y-105030000D02*
X81848000Y-105790000D01*
X81848000Y-105790000D02*
X87848000Y-105790000D01*
X81848000Y-107570000D02*
X81848000Y-108330000D01*
X81848000Y-108330000D02*
X87848000Y-108330000D01*
X81848000Y-110110000D02*
X81848000Y-110870000D01*
X81848000Y-110870000D02*
X87848000Y-110870000D01*
X81848000Y-112650000D02*
X81848000Y-113410000D01*
X81848000Y-113410000D02*
X87848000Y-113410000D01*
X87848000Y-71060000D02*
X90508000Y-71060000D01*
X87848000Y-72010000D02*
X81848000Y-72010000D01*
X87848000Y-72070000D02*
X81848000Y-72070000D01*
X87848000Y-72190000D02*
X81848000Y-72190000D01*
X87848000Y-72310000D02*
X81848000Y-72310000D01*
X87848000Y-72430000D02*
X81848000Y-72430000D01*
X87848000Y-72550000D02*
X81848000Y-72550000D01*
X87848000Y-72670000D02*
X81848000Y-72670000D01*
X87848000Y-74550000D02*
X81848000Y-74550000D01*
X87848000Y-77090000D02*
X81848000Y-77090000D01*
X87848000Y-79630000D02*
X81848000Y-79630000D01*
X87848000Y-82170000D02*
X81848000Y-82170000D01*
X87848000Y-84710000D02*
X81848000Y-84710000D01*
X87848000Y-87250000D02*
X81848000Y-87250000D01*
X87848000Y-89790000D02*
X81848000Y-89790000D01*
X87848000Y-92330000D02*
X81848000Y-92330000D01*
X87848000Y-94870000D02*
X81848000Y-94870000D01*
X87848000Y-97410000D02*
X81848000Y-97410000D01*
X87848000Y-99950000D02*
X81848000Y-99950000D01*
X87848000Y-102490000D02*
X81848000Y-102490000D01*
X87848000Y-105030000D02*
X81848000Y-105030000D01*
X87848000Y-107570000D02*
X81848000Y-107570000D01*
X87848000Y-110110000D02*
X81848000Y-110110000D01*
X87848000Y-112650000D02*
X81848000Y-112650000D01*
X87848000Y-114360000D02*
X87848000Y-71060000D01*
X90508000Y-71060000D02*
X90508000Y-114360000D01*
X90508000Y-73660000D02*
X87848000Y-73660000D01*
X90508000Y-76200000D02*
X87848000Y-76200000D01*
X90508000Y-78740000D02*
X87848000Y-78740000D01*
X90508000Y-81280000D02*
X87848000Y-81280000D01*
X90508000Y-83820000D02*
X87848000Y-83820000D01*
X90508000Y-86360000D02*
X87848000Y-86360000D01*
X90508000Y-88900000D02*
X87848000Y-88900000D01*
X90508000Y-91440000D02*
X87848000Y-91440000D01*
X90508000Y-93980000D02*
X87848000Y-93980000D01*
X90508000Y-96520000D02*
X87848000Y-96520000D01*
X90508000Y-99060000D02*
X87848000Y-99060000D01*
X90508000Y-101600000D02*
X87848000Y-101600000D01*
X90508000Y-104140000D02*
X87848000Y-104140000D01*
X90508000Y-106680000D02*
X87848000Y-106680000D01*
X90508000Y-109220000D02*
X87848000Y-109220000D01*
X90508000Y-111760000D02*
X87848000Y-111760000D01*
X90508000Y-114360000D02*
X87848000Y-114360000D01*
X90905071Y-72010000D02*
X90508000Y-72010000D01*
X90905071Y-72770000D02*
X90508000Y-72770000D01*
X90905071Y-74550000D02*
X90508000Y-74550000D01*
X90905071Y-75310000D02*
X90508000Y-75310000D01*
X90905071Y-77090000D02*
X90508000Y-77090000D01*
X90905071Y-77850000D02*
X90508000Y-77850000D01*
X90905071Y-79630000D02*
X90508000Y-79630000D01*
X90905071Y-80390000D02*
X90508000Y-80390000D01*
X90905071Y-82170000D02*
X90508000Y-82170000D01*
X90905071Y-82930000D02*
X90508000Y-82930000D01*
X90905071Y-84710000D02*
X90508000Y-84710000D01*
X90905071Y-85470000D02*
X90508000Y-85470000D01*
X90905071Y-87250000D02*
X90508000Y-87250000D01*
X90905071Y-88010000D02*
X90508000Y-88010000D01*
X90905071Y-89790000D02*
X90508000Y-89790000D01*
X90905071Y-90550000D02*
X90508000Y-90550000D01*
X90905071Y-92330000D02*
X90508000Y-92330000D01*
X90905071Y-93090000D02*
X90508000Y-93090000D01*
X90905071Y-94870000D02*
X90508000Y-94870000D01*
X90905071Y-95630000D02*
X90508000Y-95630000D01*
X90905071Y-97410000D02*
X90508000Y-97410000D01*
X90905071Y-98170000D02*
X90508000Y-98170000D01*
X90905071Y-99950000D02*
X90508000Y-99950000D01*
X90905071Y-100710000D02*
X90508000Y-100710000D01*
X90905071Y-102490000D02*
X90508000Y-102490000D01*
X90905071Y-103250000D02*
X90508000Y-103250000D01*
X90905071Y-105030000D02*
X90508000Y-105030000D01*
X90905071Y-105790000D02*
X90508000Y-105790000D01*
X90905071Y-107570000D02*
X90508000Y-107570000D01*
X90905071Y-108330000D02*
X90508000Y-108330000D01*
X90905071Y-110110000D02*
X90508000Y-110110000D01*
X90905071Y-110870000D02*
X90508000Y-110870000D01*
X90905071Y-112650000D02*
X90508000Y-112650000D01*
X90905071Y-113410000D02*
X90508000Y-113410000D01*
X93378000Y-72010000D02*
X92990929Y-72010000D01*
X93378000Y-72770000D02*
X92990929Y-72770000D01*
X93445071Y-74550000D02*
X92990929Y-74550000D01*
X93445071Y-75310000D02*
X92990929Y-75310000D01*
X93445071Y-77090000D02*
X92990929Y-77090000D01*
X93445071Y-77850000D02*
X92990929Y-77850000D01*
X93445071Y-79630000D02*
X92990929Y-79630000D01*
X93445071Y-80390000D02*
X92990929Y-80390000D01*
X93445071Y-82170000D02*
X92990929Y-82170000D01*
X93445071Y-82930000D02*
X92990929Y-82930000D01*
X93445071Y-84710000D02*
X92990929Y-84710000D01*
X93445071Y-85470000D02*
X92990929Y-85470000D01*
X93445071Y-87250000D02*
X92990929Y-87250000D01*
X93445071Y-88010000D02*
X92990929Y-88010000D01*
X93445071Y-89790000D02*
X92990929Y-89790000D01*
X93445071Y-90550000D02*
X92990929Y-90550000D01*
X93445071Y-92330000D02*
X92990929Y-92330000D01*
X93445071Y-93090000D02*
X92990929Y-93090000D01*
X93445071Y-94870000D02*
X92990929Y-94870000D01*
X93445071Y-95630000D02*
X92990929Y-95630000D01*
X93445071Y-97410000D02*
X92990929Y-97410000D01*
X93445071Y-98170000D02*
X92990929Y-98170000D01*
X93445071Y-99950000D02*
X92990929Y-99950000D01*
X93445071Y-100710000D02*
X92990929Y-100710000D01*
X93445071Y-102490000D02*
X92990929Y-102490000D01*
X93445071Y-103250000D02*
X92990929Y-103250000D01*
X93445071Y-105030000D02*
X92990929Y-105030000D01*
X93445071Y-105790000D02*
X92990929Y-105790000D01*
X93445071Y-107570000D02*
X92990929Y-107570000D01*
X93445071Y-108330000D02*
X92990929Y-108330000D01*
X93445071Y-110110000D02*
X92990929Y-110110000D01*
X93445071Y-110870000D02*
X92990929Y-110870000D01*
X93445071Y-112650000D02*
X92990929Y-112650000D01*
X93445071Y-113410000D02*
X92990929Y-113410000D01*
X95758000Y-71120000D02*
X94488000Y-71120000D01*
X95758000Y-72390000D02*
X95758000Y-71120000D01*
%TO.C,D1*%
X164683900Y-77689800D02*
X164839900Y-77689800D01*
X166999900Y-77689800D02*
X167155900Y-77689800D01*
X164684385Y-77689799D02*
G75*
G02*
X164841292Y-74457466I1235515J1559999D01*
G01*
X164839901Y-77170760D02*
G75*
G02*
X164840064Y-75088671I1079999J1040960D01*
G01*
X166998508Y-74457466D02*
G75*
G02*
X167155415Y-77689799I-1078608J-1672334D01*
G01*
X166999736Y-75088671D02*
G75*
G02*
X166999899Y-77170760I-1079836J-1041129D01*
G01*
%TO.C,J2*%
X147039900Y-114830000D02*
X147039900Y-113500000D01*
X148369900Y-114830000D02*
X147039900Y-114830000D01*
X149639900Y-112170000D02*
X157319900Y-112170000D01*
X149639900Y-114830000D02*
X149639900Y-112170000D01*
X149639900Y-114830000D02*
X157319900Y-114830000D01*
X157319900Y-114830000D02*
X157319900Y-112170000D01*
%TO.C,C3*%
X95259900Y-60413548D02*
X95259900Y-61836052D01*
X97079900Y-60413548D02*
X97079900Y-61836052D01*
%TO.C,Y1*%
X140866400Y-85220400D02*
X140866400Y-88820400D01*
X140866400Y-88820400D02*
X146616400Y-88820400D01*
X146616400Y-85220400D02*
X140866400Y-85220400D01*
%TO.C,R10*%
X114392064Y-87355000D02*
X112937936Y-87355000D01*
X114392064Y-89175000D02*
X112937936Y-89175000D01*
%TO.C,SW1*%
X168773800Y-58614000D02*
X170103800Y-58614000D01*
X168773800Y-59944000D02*
X168773800Y-58614000D01*
X168773800Y-61214000D02*
X168773800Y-71434000D01*
X168773800Y-61214000D02*
X171433800Y-61214000D01*
X168773800Y-71434000D02*
X171433800Y-71434000D01*
X171433800Y-61214000D02*
X171433800Y-71434000D01*
%TO.C,R27*%
X137520000Y-62137936D02*
X137520000Y-63592064D01*
X139340000Y-62137936D02*
X139340000Y-63592064D01*
%TO.C,R102*%
X160409900Y-67947736D02*
X160409900Y-69401864D01*
X162229900Y-67947736D02*
X162229900Y-69401864D01*
%TO.C,D101*%
X169209900Y-74874800D02*
X169209900Y-77559800D01*
X169209900Y-77559800D02*
X171129900Y-77559800D01*
X171129900Y-77559800D02*
X171129900Y-74874800D01*
%TO.C,R101*%
X162809900Y-69401864D02*
X162809900Y-67947736D01*
X164629900Y-69401864D02*
X164629900Y-67947736D01*
%TD*%
%LPC*%
D12*
%TO.C,BZ1*%
X140919900Y-107124800D03*
D13*
X134419900Y-107124800D03*
%TD*%
D14*
%TO.C,C1*%
X151669900Y-82649800D03*
X151669900Y-85599800D03*
%TD*%
D15*
%TO.C,C2*%
X137419900Y-90349800D03*
X137419900Y-87399800D03*
%TD*%
D16*
%TO.C,C4*%
X138919900Y-69124800D03*
X135969900Y-69124800D03*
%TD*%
D17*
%TO.C,C5*%
X142036800Y-89690000D03*
X142036800Y-90650000D03*
%TD*%
%TO.C,C6*%
X145796000Y-89690000D03*
X145796000Y-90650000D03*
%TD*%
D14*
%TO.C,C7*%
X98669900Y-59649800D03*
X98669900Y-62599800D03*
%TD*%
%TO.C,C8*%
X138919900Y-82399800D03*
X138919900Y-85349800D03*
%TD*%
D15*
%TO.C,C9*%
X153169900Y-70124800D03*
X153169900Y-67174800D03*
%TD*%
D14*
%TO.C,C10*%
X104919900Y-68399800D03*
X104919900Y-71349800D03*
%TD*%
%TO.C,C11*%
X107419900Y-68399800D03*
X107419900Y-71349800D03*
%TD*%
%TO.C,C12*%
X132169900Y-97899800D03*
X132169900Y-100849800D03*
%TD*%
D18*
%TO.C,C13*%
X158919900Y-97474800D03*
X161869900Y-97474800D03*
%TD*%
D19*
%TO.C,D2*%
X115315000Y-100965000D03*
X112015000Y-100965000D03*
%TD*%
D20*
%TO.C,J3*%
X158750000Y-90624800D03*
D21*
X158750000Y-88124800D03*
X158750000Y-86124800D03*
X158750000Y-83624800D03*
D22*
X161460000Y-93694800D03*
X161460000Y-80554800D03*
%TD*%
D23*
%TO.C,J5*%
X123825000Y-64135000D03*
D24*
X123825000Y-61595000D03*
X126365000Y-64135000D03*
X126365000Y-61595000D03*
X128905000Y-64135000D03*
X128905000Y-61595000D03*
X131445000Y-64135000D03*
X131445000Y-61595000D03*
X133985000Y-64135000D03*
X133985000Y-61595000D03*
%TD*%
D25*
%TO.C,Q1*%
X127967500Y-108905000D03*
X127967500Y-110805000D03*
X129842500Y-109855000D03*
%TD*%
D26*
%TO.C,Q2*%
X108887500Y-76515000D03*
X108887500Y-74615000D03*
X107012500Y-75565000D03*
%TD*%
%TO.C,Q3*%
X108887500Y-82230000D03*
X108887500Y-80330000D03*
X107012500Y-81280000D03*
%TD*%
%TO.C,Q4*%
X108887500Y-87945000D03*
X108887500Y-86045000D03*
X107012500Y-86995000D03*
%TD*%
%TO.C,Q5*%
X108887500Y-93660000D03*
X108887500Y-91760000D03*
X107012500Y-92710000D03*
%TD*%
%TO.C,Q6*%
X108887500Y-99375000D03*
X108887500Y-97475000D03*
X107012500Y-98425000D03*
%TD*%
%TO.C,Q7*%
X108887500Y-105090000D03*
X108887500Y-103190000D03*
X107012500Y-104140000D03*
%TD*%
D27*
%TO.C,R1*%
X134419900Y-87412300D03*
X134419900Y-90337300D03*
%TD*%
D28*
%TO.C,R2*%
X121092500Y-109855000D03*
X124017500Y-109855000D03*
%TD*%
D29*
%TO.C,R3*%
X158919900Y-70137300D03*
X158919900Y-67212300D03*
%TD*%
%TO.C,R4*%
X155719900Y-70137300D03*
X155719900Y-67212300D03*
%TD*%
D28*
%TO.C,R5*%
X151572500Y-97790000D03*
X154497500Y-97790000D03*
%TD*%
%TO.C,R6*%
X151572500Y-93980000D03*
X154497500Y-93980000D03*
%TD*%
D27*
%TO.C,R7*%
X154419900Y-86167500D03*
X154419900Y-89092500D03*
%TD*%
D30*
%TO.C,R8*%
X115127500Y-76835000D03*
X112202500Y-76835000D03*
%TD*%
%TO.C,R9*%
X115127500Y-82550000D03*
X112202500Y-82550000D03*
%TD*%
%TO.C,R11*%
X115127500Y-93345000D03*
X112202500Y-93345000D03*
%TD*%
%TO.C,R12*%
X115127500Y-97155000D03*
X112202500Y-97155000D03*
%TD*%
%TO.C,R13*%
X115127500Y-104775000D03*
X112202500Y-104775000D03*
%TD*%
D28*
%TO.C,R14*%
X99502500Y-72390000D03*
X102427500Y-72390000D03*
%TD*%
%TO.C,R15*%
X99502500Y-74930000D03*
X102427500Y-74930000D03*
%TD*%
%TO.C,R16*%
X99502500Y-80010000D03*
X102427500Y-80010000D03*
%TD*%
%TO.C,R17*%
X99502500Y-84455000D03*
X102427500Y-84455000D03*
%TD*%
%TO.C,R18*%
X99502500Y-87630000D03*
X102427500Y-87630000D03*
%TD*%
%TO.C,R19*%
X99502500Y-90805000D03*
X102427500Y-90805000D03*
%TD*%
%TO.C,R20*%
X99502500Y-93980000D03*
X102427500Y-93980000D03*
%TD*%
%TO.C,R21*%
X99502500Y-97155000D03*
X102427500Y-97155000D03*
%TD*%
%TO.C,R22*%
X99502500Y-100330000D03*
X102427500Y-100330000D03*
%TD*%
%TO.C,R23*%
X99502500Y-103505000D03*
X102427500Y-103505000D03*
%TD*%
%TO.C,R24*%
X99502500Y-106680000D03*
X102427500Y-106680000D03*
%TD*%
%TO.C,R25*%
X99502500Y-109855000D03*
X102427500Y-109855000D03*
%TD*%
%TO.C,R26*%
X99502500Y-113030000D03*
X102427500Y-113030000D03*
%TD*%
D31*
%TO.C,SW2*%
X130035000Y-90170000D03*
X130035000Y-87630000D03*
X130035000Y-85090000D03*
X130035000Y-82550000D03*
X130035000Y-80010000D03*
X130035000Y-77470000D03*
X130035000Y-74930000D03*
X130035000Y-72390000D03*
X121425000Y-72390000D03*
X121425000Y-74930000D03*
X121425000Y-77470000D03*
X121425000Y-80010000D03*
X121425000Y-82550000D03*
X121425000Y-85090000D03*
X121425000Y-87630000D03*
X121425000Y-90170000D03*
%TD*%
D32*
%TO.C,U1*%
X105969900Y-59715000D03*
X103669900Y-59715000D03*
D33*
X103669900Y-66015000D03*
D32*
X101369900Y-59715000D03*
%TD*%
D34*
%TO.C,U2*%
X141665000Y-81240000D03*
X142165000Y-81240000D03*
X142665000Y-81240000D03*
X143165000Y-81240000D03*
X143665000Y-81240000D03*
X144165000Y-81240000D03*
X144665000Y-81240000D03*
X145165000Y-81240000D03*
X145665000Y-81240000D03*
X146165000Y-81240000D03*
X146665000Y-81240000D03*
X147165000Y-81240000D03*
X147665000Y-81240000D03*
X148165000Y-81240000D03*
X148665000Y-81240000D03*
X149165000Y-81240000D03*
D35*
X151090000Y-79315000D03*
X151090000Y-78815000D03*
X151090000Y-78315000D03*
X151090000Y-77815000D03*
X151090000Y-77315000D03*
X151090000Y-76815000D03*
X151090000Y-76315000D03*
X151090000Y-75815000D03*
X151090000Y-75315000D03*
X151090000Y-74815000D03*
X151090000Y-74315000D03*
X151090000Y-73815000D03*
X151090000Y-73315000D03*
X151090000Y-72815000D03*
X151090000Y-72315000D03*
X151090000Y-71815000D03*
D34*
X149165000Y-69890000D03*
X148665000Y-69890000D03*
X148165000Y-69890000D03*
X147665000Y-69890000D03*
X147165000Y-69890000D03*
X146665000Y-69890000D03*
X146165000Y-69890000D03*
X145665000Y-69890000D03*
X145165000Y-69890000D03*
X144665000Y-69890000D03*
X144165000Y-69890000D03*
X143665000Y-69890000D03*
X143165000Y-69890000D03*
X142665000Y-69890000D03*
X142165000Y-69890000D03*
X141665000Y-69890000D03*
D35*
X139740000Y-71815000D03*
X139740000Y-72315000D03*
X139740000Y-72815000D03*
X139740000Y-73315000D03*
X139740000Y-73815000D03*
X139740000Y-74315000D03*
X139740000Y-74815000D03*
X139740000Y-75315000D03*
X139740000Y-75815000D03*
X139740000Y-76315000D03*
X139740000Y-76815000D03*
X139740000Y-77315000D03*
X139740000Y-77815000D03*
X139740000Y-78315000D03*
X139740000Y-78815000D03*
X139740000Y-79315000D03*
%TD*%
D36*
%TO.C,U3*%
X148457500Y-102550000D03*
X148457500Y-101600000D03*
X148457500Y-100650000D03*
X146182500Y-100650000D03*
X146182500Y-102550000D03*
%TD*%
D37*
%TO.C,U4*%
X122620000Y-97790000D03*
X122620000Y-99060000D03*
X122620000Y-100330000D03*
X122620000Y-101600000D03*
X122620000Y-102870000D03*
X122620000Y-104140000D03*
X122620000Y-105410000D03*
X127570000Y-105410000D03*
X127570000Y-104140000D03*
X127570000Y-102870000D03*
X127570000Y-101600000D03*
X127570000Y-100330000D03*
X127570000Y-99060000D03*
X127570000Y-97790000D03*
%TD*%
D38*
%TO.C,J1*%
X92075000Y-58420000D03*
D24*
X92075000Y-60960000D03*
X92075000Y-63500000D03*
X92075000Y-66040000D03*
%TD*%
D38*
%TO.C,J6*%
X91948000Y-72390000D03*
D39*
X94488000Y-72390000D03*
D24*
X91948000Y-74930000D03*
X94488000Y-74930000D03*
X91948000Y-77470000D03*
X94488000Y-77470000D03*
X91948000Y-80010000D03*
X94488000Y-80010000D03*
X91948000Y-82550000D03*
X94488000Y-82550000D03*
X91948000Y-85090000D03*
X94488000Y-85090000D03*
X91948000Y-87630000D03*
X94488000Y-87630000D03*
X91948000Y-90170000D03*
X94488000Y-90170000D03*
X91948000Y-92710000D03*
X94488000Y-92710000D03*
X91948000Y-95250000D03*
X94488000Y-95250000D03*
X91948000Y-97790000D03*
X94488000Y-97790000D03*
X91948000Y-100330000D03*
X94488000Y-100330000D03*
X91948000Y-102870000D03*
X94488000Y-102870000D03*
X91948000Y-105410000D03*
X94488000Y-105410000D03*
X91948000Y-107950000D03*
X94488000Y-107950000D03*
X91948000Y-110490000D03*
X94488000Y-110490000D03*
X91948000Y-113030000D03*
X94488000Y-113030000D03*
%TD*%
D40*
%TO.C,D1*%
X165919900Y-77399800D03*
D41*
X165919900Y-74859800D03*
%TD*%
D23*
%TO.C,J2*%
X148369900Y-113500000D03*
D24*
X150909900Y-113500000D03*
X153449900Y-113500000D03*
X155989900Y-113500000D03*
%TD*%
D14*
%TO.C,C3*%
X96169900Y-59649800D03*
X96169900Y-62599800D03*
%TD*%
D42*
%TO.C,Y1*%
X142066400Y-87020400D03*
X145766400Y-87020400D03*
%TD*%
D30*
%TO.C,R10*%
X115127500Y-88265000D03*
X112202500Y-88265000D03*
%TD*%
D38*
%TO.C,SW1*%
X170103800Y-59944000D03*
D24*
X170103800Y-62484000D03*
X170103800Y-65024000D03*
X170103800Y-67564000D03*
X170103800Y-70104000D03*
%TD*%
D27*
%TO.C,R27*%
X138430000Y-61402500D03*
X138430000Y-64327500D03*
%TD*%
%TO.C,R102*%
X161319900Y-67212300D03*
X161319900Y-70137300D03*
%TD*%
D43*
%TO.C,H3*%
X109519900Y-60874800D03*
X110222844Y-59177744D03*
X110222844Y-62571856D03*
X111919900Y-58474800D03*
D44*
X111919900Y-60874800D03*
D43*
X111919900Y-63274800D03*
X113616956Y-59177744D03*
X113616956Y-62571856D03*
X114319900Y-60874800D03*
%TD*%
D45*
%TO.C,D101*%
X170169900Y-76812300D03*
X170169900Y-74937300D03*
%TD*%
D43*
%TO.C,H1*%
X159519900Y-60874800D03*
X160222844Y-59177744D03*
X160222844Y-62571856D03*
X161919900Y-58474800D03*
D44*
X161919900Y-60874800D03*
D43*
X161919900Y-63274800D03*
X163616956Y-59177744D03*
X163616956Y-62571856D03*
X164319900Y-60874800D03*
%TD*%
D29*
%TO.C,R101*%
X163719900Y-70137300D03*
X163719900Y-67212300D03*
%TD*%
D43*
%TO.C,H2*%
X159519900Y-110874800D03*
X160222844Y-109177744D03*
X160222844Y-112571856D03*
X161919900Y-108474800D03*
D44*
X161919900Y-110874800D03*
D43*
X161919900Y-113274800D03*
X163616956Y-109177744D03*
X163616956Y-112571856D03*
X164319900Y-110874800D03*
%TD*%
%TO.C,H4*%
X109519900Y-110874800D03*
X110222844Y-109177744D03*
X110222844Y-112571856D03*
X111919900Y-108474800D03*
D44*
X111919900Y-110874800D03*
D43*
X111919900Y-113274800D03*
X113616956Y-109177744D03*
X113616956Y-112571856D03*
X114319900Y-110874800D03*
%TD*%
%LPD*%
M02*
