%TF.GenerationSoftware,KiCad,Pcbnew,8.0.1*%
%TF.CreationDate,2024-04-20T00:47:07+02:00*%
%TF.ProjectId,Gotek_Floppy_Disk_Emulator_V2,476f7465-6b5f-4466-9c6f-7070795f4469,rev?*%
%TF.SameCoordinates,Original*%
%TF.FileFunction,Legend,Top*%
%TF.FilePolarity,Positive*%
%FSLAX46Y46*%
G04 Gerber Fmt 4.6, Leading zero omitted, Abs format (unit mm)*
G04 Created by KiCad (PCBNEW 8.0.1) date 2024-04-20 00:47:07*
%MOMM*%
%LPD*%
G01*
G04 APERTURE LIST*
G04 Aperture macros list*
%AMRoundRect*
0 Rectangle with rounded corners*
0 $1 Rounding radius*
0 $2 $3 $4 $5 $6 $7 $8 $9 X,Y pos of 4 corners*
0 Add a 4 corners polygon primitive as box body*
4,1,4,$2,$3,$4,$5,$6,$7,$8,$9,$2,$3,0*
0 Add four circle primitives for the rounded corners*
1,1,$1+$1,$2,$3*
1,1,$1+$1,$4,$5*
1,1,$1+$1,$6,$7*
1,1,$1+$1,$8,$9*
0 Add four rect primitives between the rounded corners*
20,1,$1+$1,$2,$3,$4,$5,0*
20,1,$1+$1,$4,$5,$6,$7,0*
20,1,$1+$1,$6,$7,$8,$9,0*
20,1,$1+$1,$8,$9,$2,$3,0*%
G04 Aperture macros list end*
%ADD10C,0.150000*%
%ADD11C,0.120000*%
%ADD12RoundRect,0.051000X1.000000X1.000000X-1.000000X1.000000X-1.000000X-1.000000X1.000000X-1.000000X0*%
%ADD13C,2.102000*%
%ADD14RoundRect,0.272174X-0.678826X0.353826X-0.678826X-0.353826X0.678826X-0.353826X0.678826X0.353826X0*%
%ADD15RoundRect,0.165500X-0.195500X0.165500X-0.195500X-0.165500X0.195500X-0.165500X0.195500X0.165500X0*%
%ADD16RoundRect,0.272174X0.678826X-0.353826X0.678826X0.353826X-0.678826X0.353826X-0.678826X-0.353826X0*%
%ADD17RoundRect,0.272174X-0.353826X-0.678826X0.353826X-0.678826X0.353826X0.678826X-0.353826X0.678826X0*%
%ADD18RoundRect,0.051000X0.450000X0.600000X-0.450000X0.600000X-0.450000X-0.600000X0.450000X-0.600000X0*%
%ADD19RoundRect,0.051000X0.800000X-0.800000X0.800000X0.800000X-0.800000X0.800000X-0.800000X-0.800000X0*%
%ADD20C,1.702000*%
%ADD21C,3.102000*%
%ADD22RoundRect,0.051000X0.850000X-0.850000X0.850000X0.850000X-0.850000X0.850000X-0.850000X-0.850000X0*%
%ADD23O,1.802000X1.802000*%
%ADD24RoundRect,0.175500X-0.613000X-0.175500X0.613000X-0.175500X0.613000X0.175500X-0.613000X0.175500X0*%
%ADD25RoundRect,0.175500X0.613000X0.175500X-0.613000X0.175500X-0.613000X-0.175500X0.613000X-0.175500X0*%
%ADD26RoundRect,0.272666X-0.653334X0.340834X-0.653334X-0.340834X0.653334X-0.340834X0.653334X0.340834X0*%
%ADD27RoundRect,0.272666X-0.340834X-0.653334X0.340834X-0.653334X0.340834X0.653334X-0.340834X0.653334X0*%
%ADD28RoundRect,0.272666X0.340834X0.653334X-0.340834X0.653334X-0.340834X-0.653334X0.340834X-0.653334X0*%
%ADD29RoundRect,0.051000X1.220000X0.560000X-1.220000X0.560000X-1.220000X-0.560000X1.220000X-0.560000X0*%
%ADD30RoundRect,0.400500X0.400500X-0.650500X0.400500X0.650500X-0.400500X0.650500X-0.400500X-0.650500X0*%
%ADD31RoundRect,0.525500X1.425500X-0.525500X1.425500X0.525500X-1.425500X0.525500X-1.425500X-0.525500X0*%
%ADD32RoundRect,0.100500X0.100500X-0.725500X0.100500X0.725500X-0.100500X0.725500X-0.100500X-0.725500X0*%
%ADD33RoundRect,0.100500X0.725500X-0.100500X0.725500X0.100500X-0.725500X0.100500X-0.725500X-0.100500X0*%
%ADD34RoundRect,0.175500X0.538000X0.175500X-0.538000X0.175500X-0.538000X-0.175500X0.538000X-0.175500X0*%
%ADD35RoundRect,0.175500X-0.850500X-0.175500X0.850500X-0.175500X0.850500X0.175500X-0.850500X0.175500X0*%
%ADD36RoundRect,0.051000X-0.850000X-0.850000X0.850000X-0.850000X0.850000X0.850000X-0.850000X0.850000X0*%
%ADD37C,1.802000*%
%ADD38RoundRect,0.051000X0.900000X-0.900000X0.900000X0.900000X-0.900000X0.900000X-0.900000X-0.900000X0*%
%ADD39C,1.902000*%
%ADD40RoundRect,0.051000X-1.000000X-1.200000X1.000000X-1.200000X1.000000X1.200000X-1.000000X1.200000X0*%
G04 APERTURE END LIST*
D10*
X126422533Y-58813570D02*
X126422533Y-58204047D01*
X126727295Y-58508808D02*
X126117771Y-58508808D01*
X125927295Y-57442142D02*
X125927295Y-57823094D01*
X125927295Y-57823094D02*
X126308247Y-57861190D01*
X126308247Y-57861190D02*
X126270152Y-57823094D01*
X126270152Y-57823094D02*
X126232057Y-57746904D01*
X126232057Y-57746904D02*
X126232057Y-57556428D01*
X126232057Y-57556428D02*
X126270152Y-57480237D01*
X126270152Y-57480237D02*
X126308247Y-57442142D01*
X126308247Y-57442142D02*
X126384438Y-57404047D01*
X126384438Y-57404047D02*
X126574914Y-57404047D01*
X126574914Y-57404047D02*
X126651104Y-57442142D01*
X126651104Y-57442142D02*
X126689200Y-57480237D01*
X126689200Y-57480237D02*
X126727295Y-57556428D01*
X126727295Y-57556428D02*
X126727295Y-57746904D01*
X126727295Y-57746904D02*
X126689200Y-57823094D01*
X126689200Y-57823094D02*
X126651104Y-57861190D01*
X125927295Y-57175475D02*
X126727295Y-56908808D01*
X126727295Y-56908808D02*
X125927295Y-56642142D01*
X127823318Y-58775476D02*
X128394746Y-58775476D01*
X128394746Y-58775476D02*
X128509032Y-58813571D01*
X128509032Y-58813571D02*
X128585223Y-58889762D01*
X128585223Y-58889762D02*
X128623318Y-59004047D01*
X128623318Y-59004047D02*
X128623318Y-59080238D01*
X127823318Y-58508809D02*
X127823318Y-58051666D01*
X128623318Y-58280238D02*
X127823318Y-58280238D01*
X128547127Y-57327856D02*
X128585223Y-57365952D01*
X128585223Y-57365952D02*
X128623318Y-57480237D01*
X128623318Y-57480237D02*
X128623318Y-57556428D01*
X128623318Y-57556428D02*
X128585223Y-57670714D01*
X128585223Y-57670714D02*
X128509032Y-57746904D01*
X128509032Y-57746904D02*
X128432842Y-57784999D01*
X128432842Y-57784999D02*
X128280461Y-57823095D01*
X128280461Y-57823095D02*
X128166175Y-57823095D01*
X128166175Y-57823095D02*
X128013794Y-57784999D01*
X128013794Y-57784999D02*
X127937603Y-57746904D01*
X127937603Y-57746904D02*
X127861413Y-57670714D01*
X127861413Y-57670714D02*
X127823318Y-57556428D01*
X127823318Y-57556428D02*
X127823318Y-57480237D01*
X127823318Y-57480237D02*
X127861413Y-57365952D01*
X127861413Y-57365952D02*
X127899508Y-57327856D01*
X128623318Y-56984999D02*
X127823318Y-56984999D01*
X128623318Y-56527856D02*
X128166175Y-56870714D01*
X127823318Y-56527856D02*
X128280461Y-56984999D01*
X129873178Y-59594524D02*
X129911273Y-59480238D01*
X129911273Y-59480238D02*
X129911273Y-59289762D01*
X129911273Y-59289762D02*
X129873178Y-59213571D01*
X129873178Y-59213571D02*
X129835082Y-59175476D01*
X129835082Y-59175476D02*
X129758892Y-59137381D01*
X129758892Y-59137381D02*
X129682701Y-59137381D01*
X129682701Y-59137381D02*
X129606511Y-59175476D01*
X129606511Y-59175476D02*
X129568416Y-59213571D01*
X129568416Y-59213571D02*
X129530320Y-59289762D01*
X129530320Y-59289762D02*
X129492225Y-59442143D01*
X129492225Y-59442143D02*
X129454130Y-59518333D01*
X129454130Y-59518333D02*
X129416035Y-59556428D01*
X129416035Y-59556428D02*
X129339844Y-59594524D01*
X129339844Y-59594524D02*
X129263654Y-59594524D01*
X129263654Y-59594524D02*
X129187463Y-59556428D01*
X129187463Y-59556428D02*
X129149368Y-59518333D01*
X129149368Y-59518333D02*
X129111273Y-59442143D01*
X129111273Y-59442143D02*
X129111273Y-59251666D01*
X129111273Y-59251666D02*
X129149368Y-59137381D01*
X129111273Y-58870714D02*
X129911273Y-58680238D01*
X129911273Y-58680238D02*
X129339844Y-58527857D01*
X129339844Y-58527857D02*
X129911273Y-58375476D01*
X129911273Y-58375476D02*
X129111273Y-58185000D01*
X129835082Y-57423094D02*
X129873178Y-57461190D01*
X129873178Y-57461190D02*
X129911273Y-57575475D01*
X129911273Y-57575475D02*
X129911273Y-57651666D01*
X129911273Y-57651666D02*
X129873178Y-57765952D01*
X129873178Y-57765952D02*
X129796987Y-57842142D01*
X129796987Y-57842142D02*
X129720797Y-57880237D01*
X129720797Y-57880237D02*
X129568416Y-57918333D01*
X129568416Y-57918333D02*
X129454130Y-57918333D01*
X129454130Y-57918333D02*
X129301749Y-57880237D01*
X129301749Y-57880237D02*
X129225558Y-57842142D01*
X129225558Y-57842142D02*
X129149368Y-57765952D01*
X129149368Y-57765952D02*
X129111273Y-57651666D01*
X129111273Y-57651666D02*
X129111273Y-57575475D01*
X129111273Y-57575475D02*
X129149368Y-57461190D01*
X129149368Y-57461190D02*
X129187463Y-57423094D01*
X129911273Y-56699285D02*
X129911273Y-57080237D01*
X129911273Y-57080237D02*
X129111273Y-57080237D01*
X129911273Y-56432618D02*
X129111273Y-56432618D01*
X129911273Y-55975475D02*
X129454130Y-56318333D01*
X129111273Y-55975475D02*
X129568416Y-56432618D01*
X130363318Y-58813571D02*
X130934746Y-58813571D01*
X130934746Y-58813571D02*
X131049032Y-58851666D01*
X131049032Y-58851666D02*
X131125223Y-58927857D01*
X131125223Y-58927857D02*
X131163318Y-59042142D01*
X131163318Y-59042142D02*
X131163318Y-59118333D01*
X130363318Y-58546904D02*
X130363318Y-58089761D01*
X131163318Y-58318333D02*
X130363318Y-58318333D01*
X131163318Y-57823094D02*
X130363318Y-57823094D01*
X130363318Y-57823094D02*
X130934746Y-57556428D01*
X130934746Y-57556428D02*
X130363318Y-57289761D01*
X130363318Y-57289761D02*
X131163318Y-57289761D01*
X131125223Y-56946904D02*
X131163318Y-56832618D01*
X131163318Y-56832618D02*
X131163318Y-56642142D01*
X131163318Y-56642142D02*
X131125223Y-56565951D01*
X131125223Y-56565951D02*
X131087127Y-56527856D01*
X131087127Y-56527856D02*
X131010937Y-56489761D01*
X131010937Y-56489761D02*
X130934746Y-56489761D01*
X130934746Y-56489761D02*
X130858556Y-56527856D01*
X130858556Y-56527856D02*
X130820461Y-56565951D01*
X130820461Y-56565951D02*
X130782365Y-56642142D01*
X130782365Y-56642142D02*
X130744270Y-56794523D01*
X130744270Y-56794523D02*
X130706175Y-56870713D01*
X130706175Y-56870713D02*
X130668080Y-56908808D01*
X130668080Y-56908808D02*
X130591889Y-56946904D01*
X130591889Y-56946904D02*
X130515699Y-56946904D01*
X130515699Y-56946904D02*
X130439508Y-56908808D01*
X130439508Y-56908808D02*
X130401413Y-56870713D01*
X130401413Y-56870713D02*
X130363318Y-56794523D01*
X130363318Y-56794523D02*
X130363318Y-56604046D01*
X130363318Y-56604046D02*
X130401413Y-56489761D01*
X132413178Y-59480238D02*
X132451273Y-59365952D01*
X132451273Y-59365952D02*
X132451273Y-59175476D01*
X132451273Y-59175476D02*
X132413178Y-59099285D01*
X132413178Y-59099285D02*
X132375082Y-59061190D01*
X132375082Y-59061190D02*
X132298892Y-59023095D01*
X132298892Y-59023095D02*
X132222701Y-59023095D01*
X132222701Y-59023095D02*
X132146511Y-59061190D01*
X132146511Y-59061190D02*
X132108416Y-59099285D01*
X132108416Y-59099285D02*
X132070320Y-59175476D01*
X132070320Y-59175476D02*
X132032225Y-59327857D01*
X132032225Y-59327857D02*
X131994130Y-59404047D01*
X131994130Y-59404047D02*
X131956035Y-59442142D01*
X131956035Y-59442142D02*
X131879844Y-59480238D01*
X131879844Y-59480238D02*
X131803654Y-59480238D01*
X131803654Y-59480238D02*
X131727463Y-59442142D01*
X131727463Y-59442142D02*
X131689368Y-59404047D01*
X131689368Y-59404047D02*
X131651273Y-59327857D01*
X131651273Y-59327857D02*
X131651273Y-59137380D01*
X131651273Y-59137380D02*
X131689368Y-59023095D01*
X131651273Y-58756428D02*
X132451273Y-58565952D01*
X132451273Y-58565952D02*
X131879844Y-58413571D01*
X131879844Y-58413571D02*
X132451273Y-58261190D01*
X132451273Y-58261190D02*
X131651273Y-58070714D01*
X132451273Y-57765951D02*
X131651273Y-57765951D01*
X131651273Y-57765951D02*
X131651273Y-57575475D01*
X131651273Y-57575475D02*
X131689368Y-57461189D01*
X131689368Y-57461189D02*
X131765558Y-57384999D01*
X131765558Y-57384999D02*
X131841749Y-57346904D01*
X131841749Y-57346904D02*
X131994130Y-57308808D01*
X131994130Y-57308808D02*
X132108416Y-57308808D01*
X132108416Y-57308808D02*
X132260797Y-57346904D01*
X132260797Y-57346904D02*
X132336987Y-57384999D01*
X132336987Y-57384999D02*
X132413178Y-57461189D01*
X132413178Y-57461189D02*
X132451273Y-57575475D01*
X132451273Y-57575475D02*
X132451273Y-57765951D01*
X132451273Y-56965951D02*
X131651273Y-56965951D01*
X131651273Y-56432618D02*
X131651273Y-56280237D01*
X131651273Y-56280237D02*
X131689368Y-56204047D01*
X131689368Y-56204047D02*
X131765558Y-56127856D01*
X131765558Y-56127856D02*
X131917939Y-56089761D01*
X131917939Y-56089761D02*
X132184606Y-56089761D01*
X132184606Y-56089761D02*
X132336987Y-56127856D01*
X132336987Y-56127856D02*
X132413178Y-56204047D01*
X132413178Y-56204047D02*
X132451273Y-56280237D01*
X132451273Y-56280237D02*
X132451273Y-56432618D01*
X132451273Y-56432618D02*
X132413178Y-56508809D01*
X132413178Y-56508809D02*
X132336987Y-56584999D01*
X132336987Y-56584999D02*
X132184606Y-56623095D01*
X132184606Y-56623095D02*
X131917939Y-56623095D01*
X131917939Y-56623095D02*
X131765558Y-56584999D01*
X131765558Y-56584999D02*
X131689368Y-56508809D01*
X131689368Y-56508809D02*
X131651273Y-56432618D01*
X124187295Y-69259285D02*
X123387295Y-69259285D01*
X123387295Y-69259285D02*
X124187295Y-68802142D01*
X124187295Y-68802142D02*
X123387295Y-68802142D01*
X124187295Y-67964047D02*
X123806342Y-68230714D01*
X124187295Y-68421190D02*
X123387295Y-68421190D01*
X123387295Y-68421190D02*
X123387295Y-68116428D01*
X123387295Y-68116428D02*
X123425390Y-68040238D01*
X123425390Y-68040238D02*
X123463485Y-68002143D01*
X123463485Y-68002143D02*
X123539676Y-67964047D01*
X123539676Y-67964047D02*
X123653961Y-67964047D01*
X123653961Y-67964047D02*
X123730152Y-68002143D01*
X123730152Y-68002143D02*
X123768247Y-68040238D01*
X123768247Y-68040238D02*
X123806342Y-68116428D01*
X123806342Y-68116428D02*
X123806342Y-68421190D01*
X124149200Y-67659286D02*
X124187295Y-67545000D01*
X124187295Y-67545000D02*
X124187295Y-67354524D01*
X124187295Y-67354524D02*
X124149200Y-67278333D01*
X124149200Y-67278333D02*
X124111104Y-67240238D01*
X124111104Y-67240238D02*
X124034914Y-67202143D01*
X124034914Y-67202143D02*
X123958723Y-67202143D01*
X123958723Y-67202143D02*
X123882533Y-67240238D01*
X123882533Y-67240238D02*
X123844438Y-67278333D01*
X123844438Y-67278333D02*
X123806342Y-67354524D01*
X123806342Y-67354524D02*
X123768247Y-67506905D01*
X123768247Y-67506905D02*
X123730152Y-67583095D01*
X123730152Y-67583095D02*
X123692057Y-67621190D01*
X123692057Y-67621190D02*
X123615866Y-67659286D01*
X123615866Y-67659286D02*
X123539676Y-67659286D01*
X123539676Y-67659286D02*
X123463485Y-67621190D01*
X123463485Y-67621190D02*
X123425390Y-67583095D01*
X123425390Y-67583095D02*
X123387295Y-67506905D01*
X123387295Y-67506905D02*
X123387295Y-67316428D01*
X123387295Y-67316428D02*
X123425390Y-67202143D01*
X123387295Y-66973571D02*
X123387295Y-66516428D01*
X124187295Y-66745000D02*
X123387295Y-66745000D01*
X125283318Y-69983094D02*
X125930937Y-69983094D01*
X125930937Y-69983094D02*
X126007127Y-69944999D01*
X126007127Y-69944999D02*
X126045223Y-69906904D01*
X126045223Y-69906904D02*
X126083318Y-69830713D01*
X126083318Y-69830713D02*
X126083318Y-69678332D01*
X126083318Y-69678332D02*
X126045223Y-69602142D01*
X126045223Y-69602142D02*
X126007127Y-69564047D01*
X126007127Y-69564047D02*
X125930937Y-69525951D01*
X125930937Y-69525951D02*
X125283318Y-69525951D01*
X126045223Y-69183095D02*
X126083318Y-69068809D01*
X126083318Y-69068809D02*
X126083318Y-68878333D01*
X126083318Y-68878333D02*
X126045223Y-68802142D01*
X126045223Y-68802142D02*
X126007127Y-68764047D01*
X126007127Y-68764047D02*
X125930937Y-68725952D01*
X125930937Y-68725952D02*
X125854746Y-68725952D01*
X125854746Y-68725952D02*
X125778556Y-68764047D01*
X125778556Y-68764047D02*
X125740461Y-68802142D01*
X125740461Y-68802142D02*
X125702365Y-68878333D01*
X125702365Y-68878333D02*
X125664270Y-69030714D01*
X125664270Y-69030714D02*
X125626175Y-69106904D01*
X125626175Y-69106904D02*
X125588080Y-69144999D01*
X125588080Y-69144999D02*
X125511889Y-69183095D01*
X125511889Y-69183095D02*
X125435699Y-69183095D01*
X125435699Y-69183095D02*
X125359508Y-69144999D01*
X125359508Y-69144999D02*
X125321413Y-69106904D01*
X125321413Y-69106904D02*
X125283318Y-69030714D01*
X125283318Y-69030714D02*
X125283318Y-68840237D01*
X125283318Y-68840237D02*
X125321413Y-68725952D01*
X125854746Y-68421190D02*
X125854746Y-68040237D01*
X126083318Y-68497380D02*
X125283318Y-68230713D01*
X125283318Y-68230713D02*
X126083318Y-67964047D01*
X126083318Y-67240237D02*
X125702365Y-67506904D01*
X126083318Y-67697380D02*
X125283318Y-67697380D01*
X125283318Y-67697380D02*
X125283318Y-67392618D01*
X125283318Y-67392618D02*
X125321413Y-67316428D01*
X125321413Y-67316428D02*
X125359508Y-67278333D01*
X125359508Y-67278333D02*
X125435699Y-67240237D01*
X125435699Y-67240237D02*
X125549984Y-67240237D01*
X125549984Y-67240237D02*
X125626175Y-67278333D01*
X125626175Y-67278333D02*
X125664270Y-67316428D01*
X125664270Y-67316428D02*
X125702365Y-67392618D01*
X125702365Y-67392618D02*
X125702365Y-67697380D01*
X125283318Y-67011666D02*
X125283318Y-66554523D01*
X126083318Y-66783095D02*
X125283318Y-66783095D01*
X126083318Y-65868809D02*
X126083318Y-66325952D01*
X126083318Y-66097380D02*
X125283318Y-66097380D01*
X125283318Y-66097380D02*
X125397603Y-66173571D01*
X125397603Y-66173571D02*
X125473794Y-66249761D01*
X125473794Y-66249761D02*
X125511889Y-66325952D01*
X127371273Y-68078332D02*
X126990320Y-68344999D01*
X127371273Y-68535475D02*
X126571273Y-68535475D01*
X126571273Y-68535475D02*
X126571273Y-68230713D01*
X126571273Y-68230713D02*
X126609368Y-68154523D01*
X126609368Y-68154523D02*
X126647463Y-68116428D01*
X126647463Y-68116428D02*
X126723654Y-68078332D01*
X126723654Y-68078332D02*
X126837939Y-68078332D01*
X126837939Y-68078332D02*
X126914130Y-68116428D01*
X126914130Y-68116428D02*
X126952225Y-68154523D01*
X126952225Y-68154523D02*
X126990320Y-68230713D01*
X126990320Y-68230713D02*
X126990320Y-68535475D01*
X126571273Y-67811666D02*
X127371273Y-67278332D01*
X126571273Y-67278332D02*
X127371273Y-67811666D01*
X127823318Y-69983094D02*
X128470937Y-69983094D01*
X128470937Y-69983094D02*
X128547127Y-69944999D01*
X128547127Y-69944999D02*
X128585223Y-69906904D01*
X128585223Y-69906904D02*
X128623318Y-69830713D01*
X128623318Y-69830713D02*
X128623318Y-69678332D01*
X128623318Y-69678332D02*
X128585223Y-69602142D01*
X128585223Y-69602142D02*
X128547127Y-69564047D01*
X128547127Y-69564047D02*
X128470937Y-69525951D01*
X128470937Y-69525951D02*
X127823318Y-69525951D01*
X128585223Y-69183095D02*
X128623318Y-69068809D01*
X128623318Y-69068809D02*
X128623318Y-68878333D01*
X128623318Y-68878333D02*
X128585223Y-68802142D01*
X128585223Y-68802142D02*
X128547127Y-68764047D01*
X128547127Y-68764047D02*
X128470937Y-68725952D01*
X128470937Y-68725952D02*
X128394746Y-68725952D01*
X128394746Y-68725952D02*
X128318556Y-68764047D01*
X128318556Y-68764047D02*
X128280461Y-68802142D01*
X128280461Y-68802142D02*
X128242365Y-68878333D01*
X128242365Y-68878333D02*
X128204270Y-69030714D01*
X128204270Y-69030714D02*
X128166175Y-69106904D01*
X128166175Y-69106904D02*
X128128080Y-69144999D01*
X128128080Y-69144999D02*
X128051889Y-69183095D01*
X128051889Y-69183095D02*
X127975699Y-69183095D01*
X127975699Y-69183095D02*
X127899508Y-69144999D01*
X127899508Y-69144999D02*
X127861413Y-69106904D01*
X127861413Y-69106904D02*
X127823318Y-69030714D01*
X127823318Y-69030714D02*
X127823318Y-68840237D01*
X127823318Y-68840237D02*
X127861413Y-68725952D01*
X128394746Y-68421190D02*
X128394746Y-68040237D01*
X128623318Y-68497380D02*
X127823318Y-68230713D01*
X127823318Y-68230713D02*
X128623318Y-67964047D01*
X128623318Y-67240237D02*
X128242365Y-67506904D01*
X128623318Y-67697380D02*
X127823318Y-67697380D01*
X127823318Y-67697380D02*
X127823318Y-67392618D01*
X127823318Y-67392618D02*
X127861413Y-67316428D01*
X127861413Y-67316428D02*
X127899508Y-67278333D01*
X127899508Y-67278333D02*
X127975699Y-67240237D01*
X127975699Y-67240237D02*
X128089984Y-67240237D01*
X128089984Y-67240237D02*
X128166175Y-67278333D01*
X128166175Y-67278333D02*
X128204270Y-67316428D01*
X128204270Y-67316428D02*
X128242365Y-67392618D01*
X128242365Y-67392618D02*
X128242365Y-67697380D01*
X127823318Y-67011666D02*
X127823318Y-66554523D01*
X128623318Y-66783095D02*
X127823318Y-66783095D01*
X128623318Y-65868809D02*
X128623318Y-66325952D01*
X128623318Y-66097380D02*
X127823318Y-66097380D01*
X127823318Y-66097380D02*
X127937603Y-66173571D01*
X127937603Y-66173571D02*
X128013794Y-66249761D01*
X128013794Y-66249761D02*
X128051889Y-66325952D01*
X129111273Y-68554523D02*
X129111273Y-68097380D01*
X129911273Y-68325952D02*
X129111273Y-68325952D01*
X129111273Y-67906904D02*
X129911273Y-67373570D01*
X129111273Y-67373570D02*
X129911273Y-67906904D01*
X131502533Y-69544999D02*
X131502533Y-68935476D01*
X131807295Y-69240237D02*
X131197771Y-69240237D01*
X131007295Y-68630714D02*
X131007295Y-68135476D01*
X131007295Y-68135476D02*
X131312057Y-68402142D01*
X131312057Y-68402142D02*
X131312057Y-68287857D01*
X131312057Y-68287857D02*
X131350152Y-68211666D01*
X131350152Y-68211666D02*
X131388247Y-68173571D01*
X131388247Y-68173571D02*
X131464438Y-68135476D01*
X131464438Y-68135476D02*
X131654914Y-68135476D01*
X131654914Y-68135476D02*
X131731104Y-68173571D01*
X131731104Y-68173571D02*
X131769200Y-68211666D01*
X131769200Y-68211666D02*
X131807295Y-68287857D01*
X131807295Y-68287857D02*
X131807295Y-68516428D01*
X131807295Y-68516428D02*
X131769200Y-68592619D01*
X131769200Y-68592619D02*
X131731104Y-68630714D01*
X131731104Y-67792618D02*
X131769200Y-67754523D01*
X131769200Y-67754523D02*
X131807295Y-67792618D01*
X131807295Y-67792618D02*
X131769200Y-67830714D01*
X131769200Y-67830714D02*
X131731104Y-67792618D01*
X131731104Y-67792618D02*
X131807295Y-67792618D01*
X131007295Y-67487857D02*
X131007295Y-66992619D01*
X131007295Y-66992619D02*
X131312057Y-67259285D01*
X131312057Y-67259285D02*
X131312057Y-67145000D01*
X131312057Y-67145000D02*
X131350152Y-67068809D01*
X131350152Y-67068809D02*
X131388247Y-67030714D01*
X131388247Y-67030714D02*
X131464438Y-66992619D01*
X131464438Y-66992619D02*
X131654914Y-66992619D01*
X131654914Y-66992619D02*
X131731104Y-67030714D01*
X131731104Y-67030714D02*
X131769200Y-67068809D01*
X131769200Y-67068809D02*
X131807295Y-67145000D01*
X131807295Y-67145000D02*
X131807295Y-67373571D01*
X131807295Y-67373571D02*
X131769200Y-67449762D01*
X131769200Y-67449762D02*
X131731104Y-67487857D01*
X131007295Y-66764047D02*
X131807295Y-66497380D01*
X131807295Y-66497380D02*
X131007295Y-66230714D01*
X133928247Y-69716428D02*
X133966342Y-69602142D01*
X133966342Y-69602142D02*
X134004438Y-69564047D01*
X134004438Y-69564047D02*
X134080628Y-69525951D01*
X134080628Y-69525951D02*
X134194914Y-69525951D01*
X134194914Y-69525951D02*
X134271104Y-69564047D01*
X134271104Y-69564047D02*
X134309200Y-69602142D01*
X134309200Y-69602142D02*
X134347295Y-69678332D01*
X134347295Y-69678332D02*
X134347295Y-69983094D01*
X134347295Y-69983094D02*
X133547295Y-69983094D01*
X133547295Y-69983094D02*
X133547295Y-69716428D01*
X133547295Y-69716428D02*
X133585390Y-69640237D01*
X133585390Y-69640237D02*
X133623485Y-69602142D01*
X133623485Y-69602142D02*
X133699676Y-69564047D01*
X133699676Y-69564047D02*
X133775866Y-69564047D01*
X133775866Y-69564047D02*
X133852057Y-69602142D01*
X133852057Y-69602142D02*
X133890152Y-69640237D01*
X133890152Y-69640237D02*
X133928247Y-69716428D01*
X133928247Y-69716428D02*
X133928247Y-69983094D01*
X133547295Y-69030713D02*
X133547295Y-68878332D01*
X133547295Y-68878332D02*
X133585390Y-68802142D01*
X133585390Y-68802142D02*
X133661580Y-68725951D01*
X133661580Y-68725951D02*
X133813961Y-68687856D01*
X133813961Y-68687856D02*
X134080628Y-68687856D01*
X134080628Y-68687856D02*
X134233009Y-68725951D01*
X134233009Y-68725951D02*
X134309200Y-68802142D01*
X134309200Y-68802142D02*
X134347295Y-68878332D01*
X134347295Y-68878332D02*
X134347295Y-69030713D01*
X134347295Y-69030713D02*
X134309200Y-69106904D01*
X134309200Y-69106904D02*
X134233009Y-69183094D01*
X134233009Y-69183094D02*
X134080628Y-69221190D01*
X134080628Y-69221190D02*
X133813961Y-69221190D01*
X133813961Y-69221190D02*
X133661580Y-69183094D01*
X133661580Y-69183094D02*
X133585390Y-69106904D01*
X133585390Y-69106904D02*
X133547295Y-69030713D01*
X133547295Y-68192618D02*
X133547295Y-68040237D01*
X133547295Y-68040237D02*
X133585390Y-67964047D01*
X133585390Y-67964047D02*
X133661580Y-67887856D01*
X133661580Y-67887856D02*
X133813961Y-67849761D01*
X133813961Y-67849761D02*
X134080628Y-67849761D01*
X134080628Y-67849761D02*
X134233009Y-67887856D01*
X134233009Y-67887856D02*
X134309200Y-67964047D01*
X134309200Y-67964047D02*
X134347295Y-68040237D01*
X134347295Y-68040237D02*
X134347295Y-68192618D01*
X134347295Y-68192618D02*
X134309200Y-68268809D01*
X134309200Y-68268809D02*
X134233009Y-68344999D01*
X134233009Y-68344999D02*
X134080628Y-68383095D01*
X134080628Y-68383095D02*
X133813961Y-68383095D01*
X133813961Y-68383095D02*
X133661580Y-68344999D01*
X133661580Y-68344999D02*
X133585390Y-68268809D01*
X133585390Y-68268809D02*
X133547295Y-68192618D01*
X133547295Y-67621190D02*
X133547295Y-67164047D01*
X134347295Y-67392619D02*
X133547295Y-67392619D01*
X134423485Y-67087857D02*
X134423485Y-66478333D01*
X133547295Y-66135475D02*
X133547295Y-66059285D01*
X133547295Y-66059285D02*
X133585390Y-65983094D01*
X133585390Y-65983094D02*
X133623485Y-65944999D01*
X133623485Y-65944999D02*
X133699676Y-65906904D01*
X133699676Y-65906904D02*
X133852057Y-65868809D01*
X133852057Y-65868809D02*
X134042533Y-65868809D01*
X134042533Y-65868809D02*
X134194914Y-65906904D01*
X134194914Y-65906904D02*
X134271104Y-65944999D01*
X134271104Y-65944999D02*
X134309200Y-65983094D01*
X134309200Y-65983094D02*
X134347295Y-66059285D01*
X134347295Y-66059285D02*
X134347295Y-66135475D01*
X134347295Y-66135475D02*
X134309200Y-66211666D01*
X134309200Y-66211666D02*
X134271104Y-66249761D01*
X134271104Y-66249761D02*
X134194914Y-66287856D01*
X134194914Y-66287856D02*
X134042533Y-66325952D01*
X134042533Y-66325952D02*
X133852057Y-66325952D01*
X133852057Y-66325952D02*
X133699676Y-66287856D01*
X133699676Y-66287856D02*
X133623485Y-66249761D01*
X133623485Y-66249761D02*
X133585390Y-66211666D01*
X133585390Y-66211666D02*
X133547295Y-66135475D01*
X116871905Y-88084819D02*
X116871905Y-87084819D01*
X116871905Y-87084819D02*
X117110000Y-87084819D01*
X117110000Y-87084819D02*
X117252857Y-87132438D01*
X117252857Y-87132438D02*
X117348095Y-87227676D01*
X117348095Y-87227676D02*
X117395714Y-87322914D01*
X117395714Y-87322914D02*
X117443333Y-87513390D01*
X117443333Y-87513390D02*
X117443333Y-87656247D01*
X117443333Y-87656247D02*
X117395714Y-87846723D01*
X117395714Y-87846723D02*
X117348095Y-87941961D01*
X117348095Y-87941961D02*
X117252857Y-88037200D01*
X117252857Y-88037200D02*
X117110000Y-88084819D01*
X117110000Y-88084819D02*
X116871905Y-88084819D01*
X118443333Y-87989580D02*
X118395714Y-88037200D01*
X118395714Y-88037200D02*
X118252857Y-88084819D01*
X118252857Y-88084819D02*
X118157619Y-88084819D01*
X118157619Y-88084819D02*
X118014762Y-88037200D01*
X118014762Y-88037200D02*
X117919524Y-87941961D01*
X117919524Y-87941961D02*
X117871905Y-87846723D01*
X117871905Y-87846723D02*
X117824286Y-87656247D01*
X117824286Y-87656247D02*
X117824286Y-87513390D01*
X117824286Y-87513390D02*
X117871905Y-87322914D01*
X117871905Y-87322914D02*
X117919524Y-87227676D01*
X117919524Y-87227676D02*
X118014762Y-87132438D01*
X118014762Y-87132438D02*
X118157619Y-87084819D01*
X118157619Y-87084819D02*
X118252857Y-87084819D01*
X118252857Y-87084819D02*
X118395714Y-87132438D01*
X118395714Y-87132438D02*
X118443333Y-87180057D01*
X118824286Y-87180057D02*
X118871905Y-87132438D01*
X118871905Y-87132438D02*
X118967143Y-87084819D01*
X118967143Y-87084819D02*
X119205238Y-87084819D01*
X119205238Y-87084819D02*
X119300476Y-87132438D01*
X119300476Y-87132438D02*
X119348095Y-87180057D01*
X119348095Y-87180057D02*
X119395714Y-87275295D01*
X119395714Y-87275295D02*
X119395714Y-87370533D01*
X119395714Y-87370533D02*
X119348095Y-87513390D01*
X119348095Y-87513390D02*
X118776667Y-88084819D01*
X118776667Y-88084819D02*
X119395714Y-88084819D01*
X117776666Y-84544819D02*
X117776666Y-85259104D01*
X117776666Y-85259104D02*
X117729047Y-85401961D01*
X117729047Y-85401961D02*
X117633809Y-85497200D01*
X117633809Y-85497200D02*
X117490952Y-85544819D01*
X117490952Y-85544819D02*
X117395714Y-85544819D01*
X118729047Y-84544819D02*
X118252857Y-84544819D01*
X118252857Y-84544819D02*
X118205238Y-85021009D01*
X118205238Y-85021009D02*
X118252857Y-84973390D01*
X118252857Y-84973390D02*
X118348095Y-84925771D01*
X118348095Y-84925771D02*
X118586190Y-84925771D01*
X118586190Y-84925771D02*
X118681428Y-84973390D01*
X118681428Y-84973390D02*
X118729047Y-85021009D01*
X118729047Y-85021009D02*
X118776666Y-85116247D01*
X118776666Y-85116247D02*
X118776666Y-85354342D01*
X118776666Y-85354342D02*
X118729047Y-85449580D01*
X118729047Y-85449580D02*
X118681428Y-85497200D01*
X118681428Y-85497200D02*
X118586190Y-85544819D01*
X118586190Y-85544819D02*
X118348095Y-85544819D01*
X118348095Y-85544819D02*
X118252857Y-85497200D01*
X118252857Y-85497200D02*
X118205238Y-85449580D01*
X117752857Y-82004819D02*
X117752857Y-82719104D01*
X117752857Y-82719104D02*
X117705238Y-82861961D01*
X117705238Y-82861961D02*
X117610000Y-82957200D01*
X117610000Y-82957200D02*
X117467143Y-83004819D01*
X117467143Y-83004819D02*
X117371905Y-83004819D01*
X118800476Y-82909580D02*
X118752857Y-82957200D01*
X118752857Y-82957200D02*
X118610000Y-83004819D01*
X118610000Y-83004819D02*
X118514762Y-83004819D01*
X118514762Y-83004819D02*
X118371905Y-82957200D01*
X118371905Y-82957200D02*
X118276667Y-82861961D01*
X118276667Y-82861961D02*
X118229048Y-82766723D01*
X118229048Y-82766723D02*
X118181429Y-82576247D01*
X118181429Y-82576247D02*
X118181429Y-82433390D01*
X118181429Y-82433390D02*
X118229048Y-82242914D01*
X118229048Y-82242914D02*
X118276667Y-82147676D01*
X118276667Y-82147676D02*
X118371905Y-82052438D01*
X118371905Y-82052438D02*
X118514762Y-82004819D01*
X118514762Y-82004819D02*
X118610000Y-82004819D01*
X118610000Y-82004819D02*
X118752857Y-82052438D01*
X118752857Y-82052438D02*
X118800476Y-82100057D01*
X114482857Y-80417200D02*
X114625714Y-80464819D01*
X114625714Y-80464819D02*
X114863809Y-80464819D01*
X114863809Y-80464819D02*
X114959047Y-80417200D01*
X114959047Y-80417200D02*
X115006666Y-80369580D01*
X115006666Y-80369580D02*
X115054285Y-80274342D01*
X115054285Y-80274342D02*
X115054285Y-80179104D01*
X115054285Y-80179104D02*
X115006666Y-80083866D01*
X115006666Y-80083866D02*
X114959047Y-80036247D01*
X114959047Y-80036247D02*
X114863809Y-79988628D01*
X114863809Y-79988628D02*
X114673333Y-79941009D01*
X114673333Y-79941009D02*
X114578095Y-79893390D01*
X114578095Y-79893390D02*
X114530476Y-79845771D01*
X114530476Y-79845771D02*
X114482857Y-79750533D01*
X114482857Y-79750533D02*
X114482857Y-79655295D01*
X114482857Y-79655295D02*
X114530476Y-79560057D01*
X114530476Y-79560057D02*
X114578095Y-79512438D01*
X114578095Y-79512438D02*
X114673333Y-79464819D01*
X114673333Y-79464819D02*
X114911428Y-79464819D01*
X114911428Y-79464819D02*
X115054285Y-79512438D01*
X115673333Y-79464819D02*
X115863809Y-79464819D01*
X115863809Y-79464819D02*
X115959047Y-79512438D01*
X115959047Y-79512438D02*
X116054285Y-79607676D01*
X116054285Y-79607676D02*
X116101904Y-79798152D01*
X116101904Y-79798152D02*
X116101904Y-80131485D01*
X116101904Y-80131485D02*
X116054285Y-80321961D01*
X116054285Y-80321961D02*
X115959047Y-80417200D01*
X115959047Y-80417200D02*
X115863809Y-80464819D01*
X115863809Y-80464819D02*
X115673333Y-80464819D01*
X115673333Y-80464819D02*
X115578095Y-80417200D01*
X115578095Y-80417200D02*
X115482857Y-80321961D01*
X115482857Y-80321961D02*
X115435238Y-80131485D01*
X115435238Y-80131485D02*
X115435238Y-79798152D01*
X115435238Y-79798152D02*
X115482857Y-79607676D01*
X115482857Y-79607676D02*
X115578095Y-79512438D01*
X115578095Y-79512438D02*
X115673333Y-79464819D01*
X116530476Y-79464819D02*
X116530476Y-80274342D01*
X116530476Y-80274342D02*
X116578095Y-80369580D01*
X116578095Y-80369580D02*
X116625714Y-80417200D01*
X116625714Y-80417200D02*
X116720952Y-80464819D01*
X116720952Y-80464819D02*
X116911428Y-80464819D01*
X116911428Y-80464819D02*
X117006666Y-80417200D01*
X117006666Y-80417200D02*
X117054285Y-80369580D01*
X117054285Y-80369580D02*
X117101904Y-80274342D01*
X117101904Y-80274342D02*
X117101904Y-79464819D01*
X117578095Y-80464819D02*
X117578095Y-79464819D01*
X117578095Y-79464819D02*
X118149523Y-80464819D01*
X118149523Y-80464819D02*
X118149523Y-79464819D01*
X118625714Y-80464819D02*
X118625714Y-79464819D01*
X118625714Y-79464819D02*
X118863809Y-79464819D01*
X118863809Y-79464819D02*
X119006666Y-79512438D01*
X119006666Y-79512438D02*
X119101904Y-79607676D01*
X119101904Y-79607676D02*
X119149523Y-79702914D01*
X119149523Y-79702914D02*
X119197142Y-79893390D01*
X119197142Y-79893390D02*
X119197142Y-80036247D01*
X119197142Y-80036247D02*
X119149523Y-80226723D01*
X119149523Y-80226723D02*
X119101904Y-80321961D01*
X119101904Y-80321961D02*
X119006666Y-80417200D01*
X119006666Y-80417200D02*
X118863809Y-80464819D01*
X118863809Y-80464819D02*
X118625714Y-80464819D01*
X117348095Y-77877200D02*
X117490952Y-77924819D01*
X117490952Y-77924819D02*
X117729047Y-77924819D01*
X117729047Y-77924819D02*
X117824285Y-77877200D01*
X117824285Y-77877200D02*
X117871904Y-77829580D01*
X117871904Y-77829580D02*
X117919523Y-77734342D01*
X117919523Y-77734342D02*
X117919523Y-77639104D01*
X117919523Y-77639104D02*
X117871904Y-77543866D01*
X117871904Y-77543866D02*
X117824285Y-77496247D01*
X117824285Y-77496247D02*
X117729047Y-77448628D01*
X117729047Y-77448628D02*
X117538571Y-77401009D01*
X117538571Y-77401009D02*
X117443333Y-77353390D01*
X117443333Y-77353390D02*
X117395714Y-77305771D01*
X117395714Y-77305771D02*
X117348095Y-77210533D01*
X117348095Y-77210533D02*
X117348095Y-77115295D01*
X117348095Y-77115295D02*
X117395714Y-77020057D01*
X117395714Y-77020057D02*
X117443333Y-76972438D01*
X117443333Y-76972438D02*
X117538571Y-76924819D01*
X117538571Y-76924819D02*
X117776666Y-76924819D01*
X117776666Y-76924819D02*
X117919523Y-76972438D01*
X118538571Y-76924819D02*
X118633809Y-76924819D01*
X118633809Y-76924819D02*
X118729047Y-76972438D01*
X118729047Y-76972438D02*
X118776666Y-77020057D01*
X118776666Y-77020057D02*
X118824285Y-77115295D01*
X118824285Y-77115295D02*
X118871904Y-77305771D01*
X118871904Y-77305771D02*
X118871904Y-77543866D01*
X118871904Y-77543866D02*
X118824285Y-77734342D01*
X118824285Y-77734342D02*
X118776666Y-77829580D01*
X118776666Y-77829580D02*
X118729047Y-77877200D01*
X118729047Y-77877200D02*
X118633809Y-77924819D01*
X118633809Y-77924819D02*
X118538571Y-77924819D01*
X118538571Y-77924819D02*
X118443333Y-77877200D01*
X118443333Y-77877200D02*
X118395714Y-77829580D01*
X118395714Y-77829580D02*
X118348095Y-77734342D01*
X118348095Y-77734342D02*
X118300476Y-77543866D01*
X118300476Y-77543866D02*
X118300476Y-77305771D01*
X118300476Y-77305771D02*
X118348095Y-77115295D01*
X118348095Y-77115295D02*
X118395714Y-77020057D01*
X118395714Y-77020057D02*
X118443333Y-76972438D01*
X118443333Y-76972438D02*
X118538571Y-76924819D01*
X117348095Y-75337200D02*
X117490952Y-75384819D01*
X117490952Y-75384819D02*
X117729047Y-75384819D01*
X117729047Y-75384819D02*
X117824285Y-75337200D01*
X117824285Y-75337200D02*
X117871904Y-75289580D01*
X117871904Y-75289580D02*
X117919523Y-75194342D01*
X117919523Y-75194342D02*
X117919523Y-75099104D01*
X117919523Y-75099104D02*
X117871904Y-75003866D01*
X117871904Y-75003866D02*
X117824285Y-74956247D01*
X117824285Y-74956247D02*
X117729047Y-74908628D01*
X117729047Y-74908628D02*
X117538571Y-74861009D01*
X117538571Y-74861009D02*
X117443333Y-74813390D01*
X117443333Y-74813390D02*
X117395714Y-74765771D01*
X117395714Y-74765771D02*
X117348095Y-74670533D01*
X117348095Y-74670533D02*
X117348095Y-74575295D01*
X117348095Y-74575295D02*
X117395714Y-74480057D01*
X117395714Y-74480057D02*
X117443333Y-74432438D01*
X117443333Y-74432438D02*
X117538571Y-74384819D01*
X117538571Y-74384819D02*
X117776666Y-74384819D01*
X117776666Y-74384819D02*
X117919523Y-74432438D01*
X118871904Y-75384819D02*
X118300476Y-75384819D01*
X118586190Y-75384819D02*
X118586190Y-74384819D01*
X118586190Y-74384819D02*
X118490952Y-74527676D01*
X118490952Y-74527676D02*
X118395714Y-74622914D01*
X118395714Y-74622914D02*
X118300476Y-74670533D01*
X123425390Y-58394523D02*
X123387295Y-58470713D01*
X123387295Y-58470713D02*
X123387295Y-58584999D01*
X123387295Y-58584999D02*
X123425390Y-58699285D01*
X123425390Y-58699285D02*
X123501580Y-58775475D01*
X123501580Y-58775475D02*
X123577771Y-58813570D01*
X123577771Y-58813570D02*
X123730152Y-58851666D01*
X123730152Y-58851666D02*
X123844438Y-58851666D01*
X123844438Y-58851666D02*
X123996819Y-58813570D01*
X123996819Y-58813570D02*
X124073009Y-58775475D01*
X124073009Y-58775475D02*
X124149200Y-58699285D01*
X124149200Y-58699285D02*
X124187295Y-58584999D01*
X124187295Y-58584999D02*
X124187295Y-58508808D01*
X124187295Y-58508808D02*
X124149200Y-58394523D01*
X124149200Y-58394523D02*
X124111104Y-58356427D01*
X124111104Y-58356427D02*
X123844438Y-58356427D01*
X123844438Y-58356427D02*
X123844438Y-58508808D01*
X124187295Y-58013570D02*
X123387295Y-58013570D01*
X123387295Y-58013570D02*
X124187295Y-57556427D01*
X124187295Y-57556427D02*
X123387295Y-57556427D01*
X124187295Y-57175475D02*
X123387295Y-57175475D01*
X123387295Y-57175475D02*
X123387295Y-56984999D01*
X123387295Y-56984999D02*
X123425390Y-56870713D01*
X123425390Y-56870713D02*
X123501580Y-56794523D01*
X123501580Y-56794523D02*
X123577771Y-56756428D01*
X123577771Y-56756428D02*
X123730152Y-56718332D01*
X123730152Y-56718332D02*
X123844438Y-56718332D01*
X123844438Y-56718332D02*
X123996819Y-56756428D01*
X123996819Y-56756428D02*
X124073009Y-56794523D01*
X124073009Y-56794523D02*
X124149200Y-56870713D01*
X124149200Y-56870713D02*
X124187295Y-56984999D01*
X124187295Y-56984999D02*
X124187295Y-57175475D01*
X116871905Y-90624819D02*
X116871905Y-89624819D01*
X116871905Y-89624819D02*
X117110000Y-89624819D01*
X117110000Y-89624819D02*
X117252857Y-89672438D01*
X117252857Y-89672438D02*
X117348095Y-89767676D01*
X117348095Y-89767676D02*
X117395714Y-89862914D01*
X117395714Y-89862914D02*
X117443333Y-90053390D01*
X117443333Y-90053390D02*
X117443333Y-90196247D01*
X117443333Y-90196247D02*
X117395714Y-90386723D01*
X117395714Y-90386723D02*
X117348095Y-90481961D01*
X117348095Y-90481961D02*
X117252857Y-90577200D01*
X117252857Y-90577200D02*
X117110000Y-90624819D01*
X117110000Y-90624819D02*
X116871905Y-90624819D01*
X118443333Y-90529580D02*
X118395714Y-90577200D01*
X118395714Y-90577200D02*
X118252857Y-90624819D01*
X118252857Y-90624819D02*
X118157619Y-90624819D01*
X118157619Y-90624819D02*
X118014762Y-90577200D01*
X118014762Y-90577200D02*
X117919524Y-90481961D01*
X117919524Y-90481961D02*
X117871905Y-90386723D01*
X117871905Y-90386723D02*
X117824286Y-90196247D01*
X117824286Y-90196247D02*
X117824286Y-90053390D01*
X117824286Y-90053390D02*
X117871905Y-89862914D01*
X117871905Y-89862914D02*
X117919524Y-89767676D01*
X117919524Y-89767676D02*
X118014762Y-89672438D01*
X118014762Y-89672438D02*
X118157619Y-89624819D01*
X118157619Y-89624819D02*
X118252857Y-89624819D01*
X118252857Y-89624819D02*
X118395714Y-89672438D01*
X118395714Y-89672438D02*
X118443333Y-89720057D01*
X119395714Y-90624819D02*
X118824286Y-90624819D01*
X119110000Y-90624819D02*
X119110000Y-89624819D01*
X119110000Y-89624819D02*
X119014762Y-89767676D01*
X119014762Y-89767676D02*
X118919524Y-89862914D01*
X118919524Y-89862914D02*
X118824286Y-89910533D01*
X131919047Y-104071009D02*
X132061904Y-104118628D01*
X132061904Y-104118628D02*
X132109523Y-104166247D01*
X132109523Y-104166247D02*
X132157142Y-104261485D01*
X132157142Y-104261485D02*
X132157142Y-104404342D01*
X132157142Y-104404342D02*
X132109523Y-104499580D01*
X132109523Y-104499580D02*
X132061904Y-104547200D01*
X132061904Y-104547200D02*
X131966666Y-104594819D01*
X131966666Y-104594819D02*
X131585714Y-104594819D01*
X131585714Y-104594819D02*
X131585714Y-103594819D01*
X131585714Y-103594819D02*
X131919047Y-103594819D01*
X131919047Y-103594819D02*
X132014285Y-103642438D01*
X132014285Y-103642438D02*
X132061904Y-103690057D01*
X132061904Y-103690057D02*
X132109523Y-103785295D01*
X132109523Y-103785295D02*
X132109523Y-103880533D01*
X132109523Y-103880533D02*
X132061904Y-103975771D01*
X132061904Y-103975771D02*
X132014285Y-104023390D01*
X132014285Y-104023390D02*
X131919047Y-104071009D01*
X131919047Y-104071009D02*
X131585714Y-104071009D01*
X132490476Y-103594819D02*
X133157142Y-103594819D01*
X133157142Y-103594819D02*
X132490476Y-104594819D01*
X132490476Y-104594819D02*
X133157142Y-104594819D01*
X134061904Y-104594819D02*
X133490476Y-104594819D01*
X133776190Y-104594819D02*
X133776190Y-103594819D01*
X133776190Y-103594819D02*
X133680952Y-103737676D01*
X133680952Y-103737676D02*
X133585714Y-103832914D01*
X133585714Y-103832914D02*
X133490476Y-103880533D01*
X141954048Y-111833866D02*
X142715953Y-111833866D01*
X142335000Y-112214819D02*
X142335000Y-111452914D01*
X141954048Y-111833866D02*
X142715953Y-111833866D01*
X142335000Y-112214819D02*
X142335000Y-111452914D01*
X146989580Y-63031666D02*
X147037200Y-63079285D01*
X147037200Y-63079285D02*
X147084819Y-63222142D01*
X147084819Y-63222142D02*
X147084819Y-63317380D01*
X147084819Y-63317380D02*
X147037200Y-63460237D01*
X147037200Y-63460237D02*
X146941961Y-63555475D01*
X146941961Y-63555475D02*
X146846723Y-63603094D01*
X146846723Y-63603094D02*
X146656247Y-63650713D01*
X146656247Y-63650713D02*
X146513390Y-63650713D01*
X146513390Y-63650713D02*
X146322914Y-63603094D01*
X146322914Y-63603094D02*
X146227676Y-63555475D01*
X146227676Y-63555475D02*
X146132438Y-63460237D01*
X146132438Y-63460237D02*
X146084819Y-63317380D01*
X146084819Y-63317380D02*
X146084819Y-63222142D01*
X146084819Y-63222142D02*
X146132438Y-63079285D01*
X146132438Y-63079285D02*
X146180057Y-63031666D01*
X147084819Y-62079285D02*
X147084819Y-62650713D01*
X147084819Y-62364999D02*
X146084819Y-62364999D01*
X146084819Y-62364999D02*
X146227676Y-62460237D01*
X146227676Y-62460237D02*
X146322914Y-62555475D01*
X146322914Y-62555475D02*
X146370533Y-62650713D01*
X139369580Y-94146666D02*
X139417200Y-94194285D01*
X139417200Y-94194285D02*
X139464819Y-94337142D01*
X139464819Y-94337142D02*
X139464819Y-94432380D01*
X139464819Y-94432380D02*
X139417200Y-94575237D01*
X139417200Y-94575237D02*
X139321961Y-94670475D01*
X139321961Y-94670475D02*
X139226723Y-94718094D01*
X139226723Y-94718094D02*
X139036247Y-94765713D01*
X139036247Y-94765713D02*
X138893390Y-94765713D01*
X138893390Y-94765713D02*
X138702914Y-94718094D01*
X138702914Y-94718094D02*
X138607676Y-94670475D01*
X138607676Y-94670475D02*
X138512438Y-94575237D01*
X138512438Y-94575237D02*
X138464819Y-94432380D01*
X138464819Y-94432380D02*
X138464819Y-94337142D01*
X138464819Y-94337142D02*
X138512438Y-94194285D01*
X138512438Y-94194285D02*
X138560057Y-94146666D01*
X138560057Y-93765713D02*
X138512438Y-93718094D01*
X138512438Y-93718094D02*
X138464819Y-93622856D01*
X138464819Y-93622856D02*
X138464819Y-93384761D01*
X138464819Y-93384761D02*
X138512438Y-93289523D01*
X138512438Y-93289523D02*
X138560057Y-93241904D01*
X138560057Y-93241904D02*
X138655295Y-93194285D01*
X138655295Y-93194285D02*
X138750533Y-93194285D01*
X138750533Y-93194285D02*
X138893390Y-93241904D01*
X138893390Y-93241904D02*
X139464819Y-93813332D01*
X139464819Y-93813332D02*
X139464819Y-93194285D01*
X143814580Y-63031666D02*
X143862200Y-63079285D01*
X143862200Y-63079285D02*
X143909819Y-63222142D01*
X143909819Y-63222142D02*
X143909819Y-63317380D01*
X143909819Y-63317380D02*
X143862200Y-63460237D01*
X143862200Y-63460237D02*
X143766961Y-63555475D01*
X143766961Y-63555475D02*
X143671723Y-63603094D01*
X143671723Y-63603094D02*
X143481247Y-63650713D01*
X143481247Y-63650713D02*
X143338390Y-63650713D01*
X143338390Y-63650713D02*
X143147914Y-63603094D01*
X143147914Y-63603094D02*
X143052676Y-63555475D01*
X143052676Y-63555475D02*
X142957438Y-63460237D01*
X142957438Y-63460237D02*
X142909819Y-63317380D01*
X142909819Y-63317380D02*
X142909819Y-63222142D01*
X142909819Y-63222142D02*
X142957438Y-63079285D01*
X142957438Y-63079285D02*
X143005057Y-63031666D01*
X143243152Y-62174523D02*
X143909819Y-62174523D01*
X142862200Y-62412618D02*
X143576485Y-62650713D01*
X143576485Y-62650713D02*
X143576485Y-62031666D01*
X143556380Y-90336666D02*
X143604000Y-90384285D01*
X143604000Y-90384285D02*
X143651619Y-90527142D01*
X143651619Y-90527142D02*
X143651619Y-90622380D01*
X143651619Y-90622380D02*
X143604000Y-90765237D01*
X143604000Y-90765237D02*
X143508761Y-90860475D01*
X143508761Y-90860475D02*
X143413523Y-90908094D01*
X143413523Y-90908094D02*
X143223047Y-90955713D01*
X143223047Y-90955713D02*
X143080190Y-90955713D01*
X143080190Y-90955713D02*
X142889714Y-90908094D01*
X142889714Y-90908094D02*
X142794476Y-90860475D01*
X142794476Y-90860475D02*
X142699238Y-90765237D01*
X142699238Y-90765237D02*
X142651619Y-90622380D01*
X142651619Y-90622380D02*
X142651619Y-90527142D01*
X142651619Y-90527142D02*
X142699238Y-90384285D01*
X142699238Y-90384285D02*
X142746857Y-90336666D01*
X142651619Y-89431904D02*
X142651619Y-89908094D01*
X142651619Y-89908094D02*
X143127809Y-89955713D01*
X143127809Y-89955713D02*
X143080190Y-89908094D01*
X143080190Y-89908094D02*
X143032571Y-89812856D01*
X143032571Y-89812856D02*
X143032571Y-89574761D01*
X143032571Y-89574761D02*
X143080190Y-89479523D01*
X143080190Y-89479523D02*
X143127809Y-89431904D01*
X143127809Y-89431904D02*
X143223047Y-89384285D01*
X143223047Y-89384285D02*
X143461142Y-89384285D01*
X143461142Y-89384285D02*
X143556380Y-89431904D01*
X143556380Y-89431904D02*
X143604000Y-89479523D01*
X143604000Y-89479523D02*
X143651619Y-89574761D01*
X143651619Y-89574761D02*
X143651619Y-89812856D01*
X143651619Y-89812856D02*
X143604000Y-89908094D01*
X143604000Y-89908094D02*
X143556380Y-89955713D01*
X147315580Y-90336666D02*
X147363200Y-90384285D01*
X147363200Y-90384285D02*
X147410819Y-90527142D01*
X147410819Y-90527142D02*
X147410819Y-90622380D01*
X147410819Y-90622380D02*
X147363200Y-90765237D01*
X147363200Y-90765237D02*
X147267961Y-90860475D01*
X147267961Y-90860475D02*
X147172723Y-90908094D01*
X147172723Y-90908094D02*
X146982247Y-90955713D01*
X146982247Y-90955713D02*
X146839390Y-90955713D01*
X146839390Y-90955713D02*
X146648914Y-90908094D01*
X146648914Y-90908094D02*
X146553676Y-90860475D01*
X146553676Y-90860475D02*
X146458438Y-90765237D01*
X146458438Y-90765237D02*
X146410819Y-90622380D01*
X146410819Y-90622380D02*
X146410819Y-90527142D01*
X146410819Y-90527142D02*
X146458438Y-90384285D01*
X146458438Y-90384285D02*
X146506057Y-90336666D01*
X146410819Y-89479523D02*
X146410819Y-89669999D01*
X146410819Y-89669999D02*
X146458438Y-89765237D01*
X146458438Y-89765237D02*
X146506057Y-89812856D01*
X146506057Y-89812856D02*
X146648914Y-89908094D01*
X146648914Y-89908094D02*
X146839390Y-89955713D01*
X146839390Y-89955713D02*
X147220342Y-89955713D01*
X147220342Y-89955713D02*
X147315580Y-89908094D01*
X147315580Y-89908094D02*
X147363200Y-89860475D01*
X147363200Y-89860475D02*
X147410819Y-89765237D01*
X147410819Y-89765237D02*
X147410819Y-89574761D01*
X147410819Y-89574761D02*
X147363200Y-89479523D01*
X147363200Y-89479523D02*
X147315580Y-89431904D01*
X147315580Y-89431904D02*
X147220342Y-89384285D01*
X147220342Y-89384285D02*
X146982247Y-89384285D01*
X146982247Y-89384285D02*
X146887009Y-89431904D01*
X146887009Y-89431904D02*
X146839390Y-89479523D01*
X146839390Y-89479523D02*
X146791771Y-89574761D01*
X146791771Y-89574761D02*
X146791771Y-89765237D01*
X146791771Y-89765237D02*
X146839390Y-89860475D01*
X146839390Y-89860475D02*
X146887009Y-89908094D01*
X146887009Y-89908094D02*
X146982247Y-89955713D01*
X95664580Y-60491666D02*
X95712200Y-60539285D01*
X95712200Y-60539285D02*
X95759819Y-60682142D01*
X95759819Y-60682142D02*
X95759819Y-60777380D01*
X95759819Y-60777380D02*
X95712200Y-60920237D01*
X95712200Y-60920237D02*
X95616961Y-61015475D01*
X95616961Y-61015475D02*
X95521723Y-61063094D01*
X95521723Y-61063094D02*
X95331247Y-61110713D01*
X95331247Y-61110713D02*
X95188390Y-61110713D01*
X95188390Y-61110713D02*
X94997914Y-61063094D01*
X94997914Y-61063094D02*
X94902676Y-61015475D01*
X94902676Y-61015475D02*
X94807438Y-60920237D01*
X94807438Y-60920237D02*
X94759819Y-60777380D01*
X94759819Y-60777380D02*
X94759819Y-60682142D01*
X94759819Y-60682142D02*
X94807438Y-60539285D01*
X94807438Y-60539285D02*
X94855057Y-60491666D01*
X94759819Y-60158332D02*
X94759819Y-59491666D01*
X94759819Y-59491666D02*
X95759819Y-59920237D01*
X150164580Y-63031666D02*
X150212200Y-63079285D01*
X150212200Y-63079285D02*
X150259819Y-63222142D01*
X150259819Y-63222142D02*
X150259819Y-63317380D01*
X150259819Y-63317380D02*
X150212200Y-63460237D01*
X150212200Y-63460237D02*
X150116961Y-63555475D01*
X150116961Y-63555475D02*
X150021723Y-63603094D01*
X150021723Y-63603094D02*
X149831247Y-63650713D01*
X149831247Y-63650713D02*
X149688390Y-63650713D01*
X149688390Y-63650713D02*
X149497914Y-63603094D01*
X149497914Y-63603094D02*
X149402676Y-63555475D01*
X149402676Y-63555475D02*
X149307438Y-63460237D01*
X149307438Y-63460237D02*
X149259819Y-63317380D01*
X149259819Y-63317380D02*
X149259819Y-63222142D01*
X149259819Y-63222142D02*
X149307438Y-63079285D01*
X149307438Y-63079285D02*
X149355057Y-63031666D01*
X149688390Y-62460237D02*
X149640771Y-62555475D01*
X149640771Y-62555475D02*
X149593152Y-62603094D01*
X149593152Y-62603094D02*
X149497914Y-62650713D01*
X149497914Y-62650713D02*
X149450295Y-62650713D01*
X149450295Y-62650713D02*
X149355057Y-62603094D01*
X149355057Y-62603094D02*
X149307438Y-62555475D01*
X149307438Y-62555475D02*
X149259819Y-62460237D01*
X149259819Y-62460237D02*
X149259819Y-62269761D01*
X149259819Y-62269761D02*
X149307438Y-62174523D01*
X149307438Y-62174523D02*
X149355057Y-62126904D01*
X149355057Y-62126904D02*
X149450295Y-62079285D01*
X149450295Y-62079285D02*
X149497914Y-62079285D01*
X149497914Y-62079285D02*
X149593152Y-62126904D01*
X149593152Y-62126904D02*
X149640771Y-62174523D01*
X149640771Y-62174523D02*
X149688390Y-62269761D01*
X149688390Y-62269761D02*
X149688390Y-62460237D01*
X149688390Y-62460237D02*
X149736009Y-62555475D01*
X149736009Y-62555475D02*
X149783628Y-62603094D01*
X149783628Y-62603094D02*
X149878866Y-62650713D01*
X149878866Y-62650713D02*
X150069342Y-62650713D01*
X150069342Y-62650713D02*
X150164580Y-62603094D01*
X150164580Y-62603094D02*
X150212200Y-62555475D01*
X150212200Y-62555475D02*
X150259819Y-62460237D01*
X150259819Y-62460237D02*
X150259819Y-62269761D01*
X150259819Y-62269761D02*
X150212200Y-62174523D01*
X150212200Y-62174523D02*
X150164580Y-62126904D01*
X150164580Y-62126904D02*
X150069342Y-62079285D01*
X150069342Y-62079285D02*
X149878866Y-62079285D01*
X149878866Y-62079285D02*
X149783628Y-62126904D01*
X149783628Y-62126904D02*
X149736009Y-62174523D01*
X149736009Y-62174523D02*
X149688390Y-62269761D01*
X153339580Y-63031666D02*
X153387200Y-63079285D01*
X153387200Y-63079285D02*
X153434819Y-63222142D01*
X153434819Y-63222142D02*
X153434819Y-63317380D01*
X153434819Y-63317380D02*
X153387200Y-63460237D01*
X153387200Y-63460237D02*
X153291961Y-63555475D01*
X153291961Y-63555475D02*
X153196723Y-63603094D01*
X153196723Y-63603094D02*
X153006247Y-63650713D01*
X153006247Y-63650713D02*
X152863390Y-63650713D01*
X152863390Y-63650713D02*
X152672914Y-63603094D01*
X152672914Y-63603094D02*
X152577676Y-63555475D01*
X152577676Y-63555475D02*
X152482438Y-63460237D01*
X152482438Y-63460237D02*
X152434819Y-63317380D01*
X152434819Y-63317380D02*
X152434819Y-63222142D01*
X152434819Y-63222142D02*
X152482438Y-63079285D01*
X152482438Y-63079285D02*
X152530057Y-63031666D01*
X153434819Y-62555475D02*
X153434819Y-62364999D01*
X153434819Y-62364999D02*
X153387200Y-62269761D01*
X153387200Y-62269761D02*
X153339580Y-62222142D01*
X153339580Y-62222142D02*
X153196723Y-62126904D01*
X153196723Y-62126904D02*
X153006247Y-62079285D01*
X153006247Y-62079285D02*
X152625295Y-62079285D01*
X152625295Y-62079285D02*
X152530057Y-62126904D01*
X152530057Y-62126904D02*
X152482438Y-62174523D01*
X152482438Y-62174523D02*
X152434819Y-62269761D01*
X152434819Y-62269761D02*
X152434819Y-62460237D01*
X152434819Y-62460237D02*
X152482438Y-62555475D01*
X152482438Y-62555475D02*
X152530057Y-62603094D01*
X152530057Y-62603094D02*
X152625295Y-62650713D01*
X152625295Y-62650713D02*
X152863390Y-62650713D01*
X152863390Y-62650713D02*
X152958628Y-62603094D01*
X152958628Y-62603094D02*
X153006247Y-62555475D01*
X153006247Y-62555475D02*
X153053866Y-62460237D01*
X153053866Y-62460237D02*
X153053866Y-62269761D01*
X153053866Y-62269761D02*
X153006247Y-62174523D01*
X153006247Y-62174523D02*
X152958628Y-62126904D01*
X152958628Y-62126904D02*
X152863390Y-62079285D01*
X112699580Y-67952857D02*
X112747200Y-68000476D01*
X112747200Y-68000476D02*
X112794819Y-68143333D01*
X112794819Y-68143333D02*
X112794819Y-68238571D01*
X112794819Y-68238571D02*
X112747200Y-68381428D01*
X112747200Y-68381428D02*
X112651961Y-68476666D01*
X112651961Y-68476666D02*
X112556723Y-68524285D01*
X112556723Y-68524285D02*
X112366247Y-68571904D01*
X112366247Y-68571904D02*
X112223390Y-68571904D01*
X112223390Y-68571904D02*
X112032914Y-68524285D01*
X112032914Y-68524285D02*
X111937676Y-68476666D01*
X111937676Y-68476666D02*
X111842438Y-68381428D01*
X111842438Y-68381428D02*
X111794819Y-68238571D01*
X111794819Y-68238571D02*
X111794819Y-68143333D01*
X111794819Y-68143333D02*
X111842438Y-68000476D01*
X111842438Y-68000476D02*
X111890057Y-67952857D01*
X112794819Y-67000476D02*
X112794819Y-67571904D01*
X112794819Y-67286190D02*
X111794819Y-67286190D01*
X111794819Y-67286190D02*
X111937676Y-67381428D01*
X111937676Y-67381428D02*
X112032914Y-67476666D01*
X112032914Y-67476666D02*
X112080533Y-67571904D01*
X111794819Y-66381428D02*
X111794819Y-66286190D01*
X111794819Y-66286190D02*
X111842438Y-66190952D01*
X111842438Y-66190952D02*
X111890057Y-66143333D01*
X111890057Y-66143333D02*
X111985295Y-66095714D01*
X111985295Y-66095714D02*
X112175771Y-66048095D01*
X112175771Y-66048095D02*
X112413866Y-66048095D01*
X112413866Y-66048095D02*
X112604342Y-66095714D01*
X112604342Y-66095714D02*
X112699580Y-66143333D01*
X112699580Y-66143333D02*
X112747200Y-66190952D01*
X112747200Y-66190952D02*
X112794819Y-66286190D01*
X112794819Y-66286190D02*
X112794819Y-66381428D01*
X112794819Y-66381428D02*
X112747200Y-66476666D01*
X112747200Y-66476666D02*
X112699580Y-66524285D01*
X112699580Y-66524285D02*
X112604342Y-66571904D01*
X112604342Y-66571904D02*
X112413866Y-66619523D01*
X112413866Y-66619523D02*
X112175771Y-66619523D01*
X112175771Y-66619523D02*
X111985295Y-66571904D01*
X111985295Y-66571904D02*
X111890057Y-66524285D01*
X111890057Y-66524285D02*
X111842438Y-66476666D01*
X111842438Y-66476666D02*
X111794819Y-66381428D01*
X116509580Y-67952857D02*
X116557200Y-68000476D01*
X116557200Y-68000476D02*
X116604819Y-68143333D01*
X116604819Y-68143333D02*
X116604819Y-68238571D01*
X116604819Y-68238571D02*
X116557200Y-68381428D01*
X116557200Y-68381428D02*
X116461961Y-68476666D01*
X116461961Y-68476666D02*
X116366723Y-68524285D01*
X116366723Y-68524285D02*
X116176247Y-68571904D01*
X116176247Y-68571904D02*
X116033390Y-68571904D01*
X116033390Y-68571904D02*
X115842914Y-68524285D01*
X115842914Y-68524285D02*
X115747676Y-68476666D01*
X115747676Y-68476666D02*
X115652438Y-68381428D01*
X115652438Y-68381428D02*
X115604819Y-68238571D01*
X115604819Y-68238571D02*
X115604819Y-68143333D01*
X115604819Y-68143333D02*
X115652438Y-68000476D01*
X115652438Y-68000476D02*
X115700057Y-67952857D01*
X116604819Y-67000476D02*
X116604819Y-67571904D01*
X116604819Y-67286190D02*
X115604819Y-67286190D01*
X115604819Y-67286190D02*
X115747676Y-67381428D01*
X115747676Y-67381428D02*
X115842914Y-67476666D01*
X115842914Y-67476666D02*
X115890533Y-67571904D01*
X116604819Y-66048095D02*
X116604819Y-66619523D01*
X116604819Y-66333809D02*
X115604819Y-66333809D01*
X115604819Y-66333809D02*
X115747676Y-66429047D01*
X115747676Y-66429047D02*
X115842914Y-66524285D01*
X115842914Y-66524285D02*
X115890533Y-66619523D01*
X134924580Y-99702857D02*
X134972200Y-99750476D01*
X134972200Y-99750476D02*
X135019819Y-99893333D01*
X135019819Y-99893333D02*
X135019819Y-99988571D01*
X135019819Y-99988571D02*
X134972200Y-100131428D01*
X134972200Y-100131428D02*
X134876961Y-100226666D01*
X134876961Y-100226666D02*
X134781723Y-100274285D01*
X134781723Y-100274285D02*
X134591247Y-100321904D01*
X134591247Y-100321904D02*
X134448390Y-100321904D01*
X134448390Y-100321904D02*
X134257914Y-100274285D01*
X134257914Y-100274285D02*
X134162676Y-100226666D01*
X134162676Y-100226666D02*
X134067438Y-100131428D01*
X134067438Y-100131428D02*
X134019819Y-99988571D01*
X134019819Y-99988571D02*
X134019819Y-99893333D01*
X134019819Y-99893333D02*
X134067438Y-99750476D01*
X134067438Y-99750476D02*
X134115057Y-99702857D01*
X135019819Y-98750476D02*
X135019819Y-99321904D01*
X135019819Y-99036190D02*
X134019819Y-99036190D01*
X134019819Y-99036190D02*
X134162676Y-99131428D01*
X134162676Y-99131428D02*
X134257914Y-99226666D01*
X134257914Y-99226666D02*
X134305533Y-99321904D01*
X134115057Y-98369523D02*
X134067438Y-98321904D01*
X134067438Y-98321904D02*
X134019819Y-98226666D01*
X134019819Y-98226666D02*
X134019819Y-97988571D01*
X134019819Y-97988571D02*
X134067438Y-97893333D01*
X134067438Y-97893333D02*
X134115057Y-97845714D01*
X134115057Y-97845714D02*
X134210295Y-97798095D01*
X134210295Y-97798095D02*
X134305533Y-97798095D01*
X134305533Y-97798095D02*
X134448390Y-97845714D01*
X134448390Y-97845714D02*
X135019819Y-98417142D01*
X135019819Y-98417142D02*
X135019819Y-97798095D01*
X155567142Y-103284580D02*
X155519523Y-103332200D01*
X155519523Y-103332200D02*
X155376666Y-103379819D01*
X155376666Y-103379819D02*
X155281428Y-103379819D01*
X155281428Y-103379819D02*
X155138571Y-103332200D01*
X155138571Y-103332200D02*
X155043333Y-103236961D01*
X155043333Y-103236961D02*
X154995714Y-103141723D01*
X154995714Y-103141723D02*
X154948095Y-102951247D01*
X154948095Y-102951247D02*
X154948095Y-102808390D01*
X154948095Y-102808390D02*
X154995714Y-102617914D01*
X154995714Y-102617914D02*
X155043333Y-102522676D01*
X155043333Y-102522676D02*
X155138571Y-102427438D01*
X155138571Y-102427438D02*
X155281428Y-102379819D01*
X155281428Y-102379819D02*
X155376666Y-102379819D01*
X155376666Y-102379819D02*
X155519523Y-102427438D01*
X155519523Y-102427438D02*
X155567142Y-102475057D01*
X156519523Y-103379819D02*
X155948095Y-103379819D01*
X156233809Y-103379819D02*
X156233809Y-102379819D01*
X156233809Y-102379819D02*
X156138571Y-102522676D01*
X156138571Y-102522676D02*
X156043333Y-102617914D01*
X156043333Y-102617914D02*
X155948095Y-102665533D01*
X156852857Y-102379819D02*
X157471904Y-102379819D01*
X157471904Y-102379819D02*
X157138571Y-102760771D01*
X157138571Y-102760771D02*
X157281428Y-102760771D01*
X157281428Y-102760771D02*
X157376666Y-102808390D01*
X157376666Y-102808390D02*
X157424285Y-102856009D01*
X157424285Y-102856009D02*
X157471904Y-102951247D01*
X157471904Y-102951247D02*
X157471904Y-103189342D01*
X157471904Y-103189342D02*
X157424285Y-103284580D01*
X157424285Y-103284580D02*
X157376666Y-103332200D01*
X157376666Y-103332200D02*
X157281428Y-103379819D01*
X157281428Y-103379819D02*
X156995714Y-103379819D01*
X156995714Y-103379819D02*
X156900476Y-103332200D01*
X156900476Y-103332200D02*
X156852857Y-103284580D01*
X112926905Y-103419819D02*
X112926905Y-102419819D01*
X112926905Y-102419819D02*
X113165000Y-102419819D01*
X113165000Y-102419819D02*
X113307857Y-102467438D01*
X113307857Y-102467438D02*
X113403095Y-102562676D01*
X113403095Y-102562676D02*
X113450714Y-102657914D01*
X113450714Y-102657914D02*
X113498333Y-102848390D01*
X113498333Y-102848390D02*
X113498333Y-102991247D01*
X113498333Y-102991247D02*
X113450714Y-103181723D01*
X113450714Y-103181723D02*
X113403095Y-103276961D01*
X113403095Y-103276961D02*
X113307857Y-103372200D01*
X113307857Y-103372200D02*
X113165000Y-103419819D01*
X113165000Y-103419819D02*
X112926905Y-103419819D01*
X113879286Y-102515057D02*
X113926905Y-102467438D01*
X113926905Y-102467438D02*
X114022143Y-102419819D01*
X114022143Y-102419819D02*
X114260238Y-102419819D01*
X114260238Y-102419819D02*
X114355476Y-102467438D01*
X114355476Y-102467438D02*
X114403095Y-102515057D01*
X114403095Y-102515057D02*
X114450714Y-102610295D01*
X114450714Y-102610295D02*
X114450714Y-102705533D01*
X114450714Y-102705533D02*
X114403095Y-102848390D01*
X114403095Y-102848390D02*
X113831667Y-103419819D01*
X113831667Y-103419819D02*
X114450714Y-103419819D01*
X155944819Y-95893333D02*
X156659104Y-95893333D01*
X156659104Y-95893333D02*
X156801961Y-95940952D01*
X156801961Y-95940952D02*
X156897200Y-96036190D01*
X156897200Y-96036190D02*
X156944819Y-96179047D01*
X156944819Y-96179047D02*
X156944819Y-96274285D01*
X155944819Y-95512380D02*
X155944819Y-94893333D01*
X155944819Y-94893333D02*
X156325771Y-95226666D01*
X156325771Y-95226666D02*
X156325771Y-95083809D01*
X156325771Y-95083809D02*
X156373390Y-94988571D01*
X156373390Y-94988571D02*
X156421009Y-94940952D01*
X156421009Y-94940952D02*
X156516247Y-94893333D01*
X156516247Y-94893333D02*
X156754342Y-94893333D01*
X156754342Y-94893333D02*
X156849580Y-94940952D01*
X156849580Y-94940952D02*
X156897200Y-94988571D01*
X156897200Y-94988571D02*
X156944819Y-95083809D01*
X156944819Y-95083809D02*
X156944819Y-95369523D01*
X156944819Y-95369523D02*
X156897200Y-95464761D01*
X156897200Y-95464761D02*
X156849580Y-95512380D01*
X120949819Y-63198333D02*
X121664104Y-63198333D01*
X121664104Y-63198333D02*
X121806961Y-63245952D01*
X121806961Y-63245952D02*
X121902200Y-63341190D01*
X121902200Y-63341190D02*
X121949819Y-63484047D01*
X121949819Y-63484047D02*
X121949819Y-63579285D01*
X120949819Y-62245952D02*
X120949819Y-62722142D01*
X120949819Y-62722142D02*
X121426009Y-62769761D01*
X121426009Y-62769761D02*
X121378390Y-62722142D01*
X121378390Y-62722142D02*
X121330771Y-62626904D01*
X121330771Y-62626904D02*
X121330771Y-62388809D01*
X121330771Y-62388809D02*
X121378390Y-62293571D01*
X121378390Y-62293571D02*
X121426009Y-62245952D01*
X121426009Y-62245952D02*
X121521247Y-62198333D01*
X121521247Y-62198333D02*
X121759342Y-62198333D01*
X121759342Y-62198333D02*
X121854580Y-62245952D01*
X121854580Y-62245952D02*
X121902200Y-62293571D01*
X121902200Y-62293571D02*
X121949819Y-62388809D01*
X121949819Y-62388809D02*
X121949819Y-62626904D01*
X121949819Y-62626904D02*
X121902200Y-62722142D01*
X121902200Y-62722142D02*
X121854580Y-62769761D01*
X128809761Y-108005057D02*
X128714523Y-107957438D01*
X128714523Y-107957438D02*
X128619285Y-107862200D01*
X128619285Y-107862200D02*
X128476428Y-107719342D01*
X128476428Y-107719342D02*
X128381190Y-107671723D01*
X128381190Y-107671723D02*
X128285952Y-107671723D01*
X128333571Y-107909819D02*
X128238333Y-107862200D01*
X128238333Y-107862200D02*
X128143095Y-107766961D01*
X128143095Y-107766961D02*
X128095476Y-107576485D01*
X128095476Y-107576485D02*
X128095476Y-107243152D01*
X128095476Y-107243152D02*
X128143095Y-107052676D01*
X128143095Y-107052676D02*
X128238333Y-106957438D01*
X128238333Y-106957438D02*
X128333571Y-106909819D01*
X128333571Y-106909819D02*
X128524047Y-106909819D01*
X128524047Y-106909819D02*
X128619285Y-106957438D01*
X128619285Y-106957438D02*
X128714523Y-107052676D01*
X128714523Y-107052676D02*
X128762142Y-107243152D01*
X128762142Y-107243152D02*
X128762142Y-107576485D01*
X128762142Y-107576485D02*
X128714523Y-107766961D01*
X128714523Y-107766961D02*
X128619285Y-107862200D01*
X128619285Y-107862200D02*
X128524047Y-107909819D01*
X128524047Y-107909819D02*
X128333571Y-107909819D01*
X129714523Y-107909819D02*
X129143095Y-107909819D01*
X129428809Y-107909819D02*
X129428809Y-106909819D01*
X129428809Y-106909819D02*
X129333571Y-107052676D01*
X129333571Y-107052676D02*
X129238333Y-107147914D01*
X129238333Y-107147914D02*
X129143095Y-107195533D01*
X107854761Y-78515057D02*
X107759523Y-78467438D01*
X107759523Y-78467438D02*
X107664285Y-78372200D01*
X107664285Y-78372200D02*
X107521428Y-78229342D01*
X107521428Y-78229342D02*
X107426190Y-78181723D01*
X107426190Y-78181723D02*
X107330952Y-78181723D01*
X107378571Y-78419819D02*
X107283333Y-78372200D01*
X107283333Y-78372200D02*
X107188095Y-78276961D01*
X107188095Y-78276961D02*
X107140476Y-78086485D01*
X107140476Y-78086485D02*
X107140476Y-77753152D01*
X107140476Y-77753152D02*
X107188095Y-77562676D01*
X107188095Y-77562676D02*
X107283333Y-77467438D01*
X107283333Y-77467438D02*
X107378571Y-77419819D01*
X107378571Y-77419819D02*
X107569047Y-77419819D01*
X107569047Y-77419819D02*
X107664285Y-77467438D01*
X107664285Y-77467438D02*
X107759523Y-77562676D01*
X107759523Y-77562676D02*
X107807142Y-77753152D01*
X107807142Y-77753152D02*
X107807142Y-78086485D01*
X107807142Y-78086485D02*
X107759523Y-78276961D01*
X107759523Y-78276961D02*
X107664285Y-78372200D01*
X107664285Y-78372200D02*
X107569047Y-78419819D01*
X107569047Y-78419819D02*
X107378571Y-78419819D01*
X108188095Y-77515057D02*
X108235714Y-77467438D01*
X108235714Y-77467438D02*
X108330952Y-77419819D01*
X108330952Y-77419819D02*
X108569047Y-77419819D01*
X108569047Y-77419819D02*
X108664285Y-77467438D01*
X108664285Y-77467438D02*
X108711904Y-77515057D01*
X108711904Y-77515057D02*
X108759523Y-77610295D01*
X108759523Y-77610295D02*
X108759523Y-77705533D01*
X108759523Y-77705533D02*
X108711904Y-77848390D01*
X108711904Y-77848390D02*
X108140476Y-78419819D01*
X108140476Y-78419819D02*
X108759523Y-78419819D01*
X107854761Y-84230057D02*
X107759523Y-84182438D01*
X107759523Y-84182438D02*
X107664285Y-84087200D01*
X107664285Y-84087200D02*
X107521428Y-83944342D01*
X107521428Y-83944342D02*
X107426190Y-83896723D01*
X107426190Y-83896723D02*
X107330952Y-83896723D01*
X107378571Y-84134819D02*
X107283333Y-84087200D01*
X107283333Y-84087200D02*
X107188095Y-83991961D01*
X107188095Y-83991961D02*
X107140476Y-83801485D01*
X107140476Y-83801485D02*
X107140476Y-83468152D01*
X107140476Y-83468152D02*
X107188095Y-83277676D01*
X107188095Y-83277676D02*
X107283333Y-83182438D01*
X107283333Y-83182438D02*
X107378571Y-83134819D01*
X107378571Y-83134819D02*
X107569047Y-83134819D01*
X107569047Y-83134819D02*
X107664285Y-83182438D01*
X107664285Y-83182438D02*
X107759523Y-83277676D01*
X107759523Y-83277676D02*
X107807142Y-83468152D01*
X107807142Y-83468152D02*
X107807142Y-83801485D01*
X107807142Y-83801485D02*
X107759523Y-83991961D01*
X107759523Y-83991961D02*
X107664285Y-84087200D01*
X107664285Y-84087200D02*
X107569047Y-84134819D01*
X107569047Y-84134819D02*
X107378571Y-84134819D01*
X108140476Y-83134819D02*
X108759523Y-83134819D01*
X108759523Y-83134819D02*
X108426190Y-83515771D01*
X108426190Y-83515771D02*
X108569047Y-83515771D01*
X108569047Y-83515771D02*
X108664285Y-83563390D01*
X108664285Y-83563390D02*
X108711904Y-83611009D01*
X108711904Y-83611009D02*
X108759523Y-83706247D01*
X108759523Y-83706247D02*
X108759523Y-83944342D01*
X108759523Y-83944342D02*
X108711904Y-84039580D01*
X108711904Y-84039580D02*
X108664285Y-84087200D01*
X108664285Y-84087200D02*
X108569047Y-84134819D01*
X108569047Y-84134819D02*
X108283333Y-84134819D01*
X108283333Y-84134819D02*
X108188095Y-84087200D01*
X108188095Y-84087200D02*
X108140476Y-84039580D01*
X107854761Y-89945057D02*
X107759523Y-89897438D01*
X107759523Y-89897438D02*
X107664285Y-89802200D01*
X107664285Y-89802200D02*
X107521428Y-89659342D01*
X107521428Y-89659342D02*
X107426190Y-89611723D01*
X107426190Y-89611723D02*
X107330952Y-89611723D01*
X107378571Y-89849819D02*
X107283333Y-89802200D01*
X107283333Y-89802200D02*
X107188095Y-89706961D01*
X107188095Y-89706961D02*
X107140476Y-89516485D01*
X107140476Y-89516485D02*
X107140476Y-89183152D01*
X107140476Y-89183152D02*
X107188095Y-88992676D01*
X107188095Y-88992676D02*
X107283333Y-88897438D01*
X107283333Y-88897438D02*
X107378571Y-88849819D01*
X107378571Y-88849819D02*
X107569047Y-88849819D01*
X107569047Y-88849819D02*
X107664285Y-88897438D01*
X107664285Y-88897438D02*
X107759523Y-88992676D01*
X107759523Y-88992676D02*
X107807142Y-89183152D01*
X107807142Y-89183152D02*
X107807142Y-89516485D01*
X107807142Y-89516485D02*
X107759523Y-89706961D01*
X107759523Y-89706961D02*
X107664285Y-89802200D01*
X107664285Y-89802200D02*
X107569047Y-89849819D01*
X107569047Y-89849819D02*
X107378571Y-89849819D01*
X108664285Y-89183152D02*
X108664285Y-89849819D01*
X108426190Y-88802200D02*
X108188095Y-89516485D01*
X108188095Y-89516485D02*
X108807142Y-89516485D01*
X107854761Y-95660057D02*
X107759523Y-95612438D01*
X107759523Y-95612438D02*
X107664285Y-95517200D01*
X107664285Y-95517200D02*
X107521428Y-95374342D01*
X107521428Y-95374342D02*
X107426190Y-95326723D01*
X107426190Y-95326723D02*
X107330952Y-95326723D01*
X107378571Y-95564819D02*
X107283333Y-95517200D01*
X107283333Y-95517200D02*
X107188095Y-95421961D01*
X107188095Y-95421961D02*
X107140476Y-95231485D01*
X107140476Y-95231485D02*
X107140476Y-94898152D01*
X107140476Y-94898152D02*
X107188095Y-94707676D01*
X107188095Y-94707676D02*
X107283333Y-94612438D01*
X107283333Y-94612438D02*
X107378571Y-94564819D01*
X107378571Y-94564819D02*
X107569047Y-94564819D01*
X107569047Y-94564819D02*
X107664285Y-94612438D01*
X107664285Y-94612438D02*
X107759523Y-94707676D01*
X107759523Y-94707676D02*
X107807142Y-94898152D01*
X107807142Y-94898152D02*
X107807142Y-95231485D01*
X107807142Y-95231485D02*
X107759523Y-95421961D01*
X107759523Y-95421961D02*
X107664285Y-95517200D01*
X107664285Y-95517200D02*
X107569047Y-95564819D01*
X107569047Y-95564819D02*
X107378571Y-95564819D01*
X108711904Y-94564819D02*
X108235714Y-94564819D01*
X108235714Y-94564819D02*
X108188095Y-95041009D01*
X108188095Y-95041009D02*
X108235714Y-94993390D01*
X108235714Y-94993390D02*
X108330952Y-94945771D01*
X108330952Y-94945771D02*
X108569047Y-94945771D01*
X108569047Y-94945771D02*
X108664285Y-94993390D01*
X108664285Y-94993390D02*
X108711904Y-95041009D01*
X108711904Y-95041009D02*
X108759523Y-95136247D01*
X108759523Y-95136247D02*
X108759523Y-95374342D01*
X108759523Y-95374342D02*
X108711904Y-95469580D01*
X108711904Y-95469580D02*
X108664285Y-95517200D01*
X108664285Y-95517200D02*
X108569047Y-95564819D01*
X108569047Y-95564819D02*
X108330952Y-95564819D01*
X108330952Y-95564819D02*
X108235714Y-95517200D01*
X108235714Y-95517200D02*
X108188095Y-95469580D01*
X107854761Y-101375057D02*
X107759523Y-101327438D01*
X107759523Y-101327438D02*
X107664285Y-101232200D01*
X107664285Y-101232200D02*
X107521428Y-101089342D01*
X107521428Y-101089342D02*
X107426190Y-101041723D01*
X107426190Y-101041723D02*
X107330952Y-101041723D01*
X107378571Y-101279819D02*
X107283333Y-101232200D01*
X107283333Y-101232200D02*
X107188095Y-101136961D01*
X107188095Y-101136961D02*
X107140476Y-100946485D01*
X107140476Y-100946485D02*
X107140476Y-100613152D01*
X107140476Y-100613152D02*
X107188095Y-100422676D01*
X107188095Y-100422676D02*
X107283333Y-100327438D01*
X107283333Y-100327438D02*
X107378571Y-100279819D01*
X107378571Y-100279819D02*
X107569047Y-100279819D01*
X107569047Y-100279819D02*
X107664285Y-100327438D01*
X107664285Y-100327438D02*
X107759523Y-100422676D01*
X107759523Y-100422676D02*
X107807142Y-100613152D01*
X107807142Y-100613152D02*
X107807142Y-100946485D01*
X107807142Y-100946485D02*
X107759523Y-101136961D01*
X107759523Y-101136961D02*
X107664285Y-101232200D01*
X107664285Y-101232200D02*
X107569047Y-101279819D01*
X107569047Y-101279819D02*
X107378571Y-101279819D01*
X108664285Y-100279819D02*
X108473809Y-100279819D01*
X108473809Y-100279819D02*
X108378571Y-100327438D01*
X108378571Y-100327438D02*
X108330952Y-100375057D01*
X108330952Y-100375057D02*
X108235714Y-100517914D01*
X108235714Y-100517914D02*
X108188095Y-100708390D01*
X108188095Y-100708390D02*
X108188095Y-101089342D01*
X108188095Y-101089342D02*
X108235714Y-101184580D01*
X108235714Y-101184580D02*
X108283333Y-101232200D01*
X108283333Y-101232200D02*
X108378571Y-101279819D01*
X108378571Y-101279819D02*
X108569047Y-101279819D01*
X108569047Y-101279819D02*
X108664285Y-101232200D01*
X108664285Y-101232200D02*
X108711904Y-101184580D01*
X108711904Y-101184580D02*
X108759523Y-101089342D01*
X108759523Y-101089342D02*
X108759523Y-100851247D01*
X108759523Y-100851247D02*
X108711904Y-100756009D01*
X108711904Y-100756009D02*
X108664285Y-100708390D01*
X108664285Y-100708390D02*
X108569047Y-100660771D01*
X108569047Y-100660771D02*
X108378571Y-100660771D01*
X108378571Y-100660771D02*
X108283333Y-100708390D01*
X108283333Y-100708390D02*
X108235714Y-100756009D01*
X108235714Y-100756009D02*
X108188095Y-100851247D01*
X107854761Y-107090057D02*
X107759523Y-107042438D01*
X107759523Y-107042438D02*
X107664285Y-106947200D01*
X107664285Y-106947200D02*
X107521428Y-106804342D01*
X107521428Y-106804342D02*
X107426190Y-106756723D01*
X107426190Y-106756723D02*
X107330952Y-106756723D01*
X107378571Y-106994819D02*
X107283333Y-106947200D01*
X107283333Y-106947200D02*
X107188095Y-106851961D01*
X107188095Y-106851961D02*
X107140476Y-106661485D01*
X107140476Y-106661485D02*
X107140476Y-106328152D01*
X107140476Y-106328152D02*
X107188095Y-106137676D01*
X107188095Y-106137676D02*
X107283333Y-106042438D01*
X107283333Y-106042438D02*
X107378571Y-105994819D01*
X107378571Y-105994819D02*
X107569047Y-105994819D01*
X107569047Y-105994819D02*
X107664285Y-106042438D01*
X107664285Y-106042438D02*
X107759523Y-106137676D01*
X107759523Y-106137676D02*
X107807142Y-106328152D01*
X107807142Y-106328152D02*
X107807142Y-106661485D01*
X107807142Y-106661485D02*
X107759523Y-106851961D01*
X107759523Y-106851961D02*
X107664285Y-106947200D01*
X107664285Y-106947200D02*
X107569047Y-106994819D01*
X107569047Y-106994819D02*
X107378571Y-106994819D01*
X108140476Y-105994819D02*
X108807142Y-105994819D01*
X108807142Y-105994819D02*
X108378571Y-106994819D01*
X136894819Y-87796666D02*
X136418628Y-88129999D01*
X136894819Y-88368094D02*
X135894819Y-88368094D01*
X135894819Y-88368094D02*
X135894819Y-87987142D01*
X135894819Y-87987142D02*
X135942438Y-87891904D01*
X135942438Y-87891904D02*
X135990057Y-87844285D01*
X135990057Y-87844285D02*
X136085295Y-87796666D01*
X136085295Y-87796666D02*
X136228152Y-87796666D01*
X136228152Y-87796666D02*
X136323390Y-87844285D01*
X136323390Y-87844285D02*
X136371009Y-87891904D01*
X136371009Y-87891904D02*
X136418628Y-87987142D01*
X136418628Y-87987142D02*
X136418628Y-88368094D01*
X136894819Y-86844285D02*
X136894819Y-87415713D01*
X136894819Y-87129999D02*
X135894819Y-87129999D01*
X135894819Y-87129999D02*
X136037676Y-87225237D01*
X136037676Y-87225237D02*
X136132914Y-87320475D01*
X136132914Y-87320475D02*
X136180533Y-87415713D01*
X122388333Y-108489819D02*
X122055000Y-108013628D01*
X121816905Y-108489819D02*
X121816905Y-107489819D01*
X121816905Y-107489819D02*
X122197857Y-107489819D01*
X122197857Y-107489819D02*
X122293095Y-107537438D01*
X122293095Y-107537438D02*
X122340714Y-107585057D01*
X122340714Y-107585057D02*
X122388333Y-107680295D01*
X122388333Y-107680295D02*
X122388333Y-107823152D01*
X122388333Y-107823152D02*
X122340714Y-107918390D01*
X122340714Y-107918390D02*
X122293095Y-107966009D01*
X122293095Y-107966009D02*
X122197857Y-108013628D01*
X122197857Y-108013628D02*
X121816905Y-108013628D01*
X122769286Y-107585057D02*
X122816905Y-107537438D01*
X122816905Y-107537438D02*
X122912143Y-107489819D01*
X122912143Y-107489819D02*
X123150238Y-107489819D01*
X123150238Y-107489819D02*
X123245476Y-107537438D01*
X123245476Y-107537438D02*
X123293095Y-107585057D01*
X123293095Y-107585057D02*
X123340714Y-107680295D01*
X123340714Y-107680295D02*
X123340714Y-107775533D01*
X123340714Y-107775533D02*
X123293095Y-107918390D01*
X123293095Y-107918390D02*
X122721667Y-108489819D01*
X122721667Y-108489819D02*
X123340714Y-108489819D01*
X159218333Y-79109819D02*
X158885000Y-78633628D01*
X158646905Y-79109819D02*
X158646905Y-78109819D01*
X158646905Y-78109819D02*
X159027857Y-78109819D01*
X159027857Y-78109819D02*
X159123095Y-78157438D01*
X159123095Y-78157438D02*
X159170714Y-78205057D01*
X159170714Y-78205057D02*
X159218333Y-78300295D01*
X159218333Y-78300295D02*
X159218333Y-78443152D01*
X159218333Y-78443152D02*
X159170714Y-78538390D01*
X159170714Y-78538390D02*
X159123095Y-78586009D01*
X159123095Y-78586009D02*
X159027857Y-78633628D01*
X159027857Y-78633628D02*
X158646905Y-78633628D01*
X159551667Y-78109819D02*
X160170714Y-78109819D01*
X160170714Y-78109819D02*
X159837381Y-78490771D01*
X159837381Y-78490771D02*
X159980238Y-78490771D01*
X159980238Y-78490771D02*
X160075476Y-78538390D01*
X160075476Y-78538390D02*
X160123095Y-78586009D01*
X160123095Y-78586009D02*
X160170714Y-78681247D01*
X160170714Y-78681247D02*
X160170714Y-78919342D01*
X160170714Y-78919342D02*
X160123095Y-79014580D01*
X160123095Y-79014580D02*
X160075476Y-79062200D01*
X160075476Y-79062200D02*
X159980238Y-79109819D01*
X159980238Y-79109819D02*
X159694524Y-79109819D01*
X159694524Y-79109819D02*
X159599286Y-79062200D01*
X159599286Y-79062200D02*
X159551667Y-79014580D01*
X159218333Y-79279819D02*
X158885000Y-78803628D01*
X158646905Y-79279819D02*
X158646905Y-78279819D01*
X158646905Y-78279819D02*
X159027857Y-78279819D01*
X159027857Y-78279819D02*
X159123095Y-78327438D01*
X159123095Y-78327438D02*
X159170714Y-78375057D01*
X159170714Y-78375057D02*
X159218333Y-78470295D01*
X159218333Y-78470295D02*
X159218333Y-78613152D01*
X159218333Y-78613152D02*
X159170714Y-78708390D01*
X159170714Y-78708390D02*
X159123095Y-78756009D01*
X159123095Y-78756009D02*
X159027857Y-78803628D01*
X159027857Y-78803628D02*
X158646905Y-78803628D01*
X160075476Y-78613152D02*
X160075476Y-79279819D01*
X159837381Y-78232200D02*
X159599286Y-78946485D01*
X159599286Y-78946485D02*
X160218333Y-78946485D01*
X152868333Y-96424819D02*
X152535000Y-95948628D01*
X152296905Y-96424819D02*
X152296905Y-95424819D01*
X152296905Y-95424819D02*
X152677857Y-95424819D01*
X152677857Y-95424819D02*
X152773095Y-95472438D01*
X152773095Y-95472438D02*
X152820714Y-95520057D01*
X152820714Y-95520057D02*
X152868333Y-95615295D01*
X152868333Y-95615295D02*
X152868333Y-95758152D01*
X152868333Y-95758152D02*
X152820714Y-95853390D01*
X152820714Y-95853390D02*
X152773095Y-95901009D01*
X152773095Y-95901009D02*
X152677857Y-95948628D01*
X152677857Y-95948628D02*
X152296905Y-95948628D01*
X153773095Y-95424819D02*
X153296905Y-95424819D01*
X153296905Y-95424819D02*
X153249286Y-95901009D01*
X153249286Y-95901009D02*
X153296905Y-95853390D01*
X153296905Y-95853390D02*
X153392143Y-95805771D01*
X153392143Y-95805771D02*
X153630238Y-95805771D01*
X153630238Y-95805771D02*
X153725476Y-95853390D01*
X153725476Y-95853390D02*
X153773095Y-95901009D01*
X153773095Y-95901009D02*
X153820714Y-95996247D01*
X153820714Y-95996247D02*
X153820714Y-96234342D01*
X153820714Y-96234342D02*
X153773095Y-96329580D01*
X153773095Y-96329580D02*
X153725476Y-96377200D01*
X153725476Y-96377200D02*
X153630238Y-96424819D01*
X153630238Y-96424819D02*
X153392143Y-96424819D01*
X153392143Y-96424819D02*
X153296905Y-96377200D01*
X153296905Y-96377200D02*
X153249286Y-96329580D01*
X152868333Y-92614819D02*
X152535000Y-92138628D01*
X152296905Y-92614819D02*
X152296905Y-91614819D01*
X152296905Y-91614819D02*
X152677857Y-91614819D01*
X152677857Y-91614819D02*
X152773095Y-91662438D01*
X152773095Y-91662438D02*
X152820714Y-91710057D01*
X152820714Y-91710057D02*
X152868333Y-91805295D01*
X152868333Y-91805295D02*
X152868333Y-91948152D01*
X152868333Y-91948152D02*
X152820714Y-92043390D01*
X152820714Y-92043390D02*
X152773095Y-92091009D01*
X152773095Y-92091009D02*
X152677857Y-92138628D01*
X152677857Y-92138628D02*
X152296905Y-92138628D01*
X153725476Y-91614819D02*
X153535000Y-91614819D01*
X153535000Y-91614819D02*
X153439762Y-91662438D01*
X153439762Y-91662438D02*
X153392143Y-91710057D01*
X153392143Y-91710057D02*
X153296905Y-91852914D01*
X153296905Y-91852914D02*
X153249286Y-92043390D01*
X153249286Y-92043390D02*
X153249286Y-92424342D01*
X153249286Y-92424342D02*
X153296905Y-92519580D01*
X153296905Y-92519580D02*
X153344524Y-92567200D01*
X153344524Y-92567200D02*
X153439762Y-92614819D01*
X153439762Y-92614819D02*
X153630238Y-92614819D01*
X153630238Y-92614819D02*
X153725476Y-92567200D01*
X153725476Y-92567200D02*
X153773095Y-92519580D01*
X153773095Y-92519580D02*
X153820714Y-92424342D01*
X153820714Y-92424342D02*
X153820714Y-92186247D01*
X153820714Y-92186247D02*
X153773095Y-92091009D01*
X153773095Y-92091009D02*
X153725476Y-92043390D01*
X153725476Y-92043390D02*
X153630238Y-91995771D01*
X153630238Y-91995771D02*
X153439762Y-91995771D01*
X153439762Y-91995771D02*
X153344524Y-92043390D01*
X153344524Y-92043390D02*
X153296905Y-92091009D01*
X153296905Y-92091009D02*
X153249286Y-92186247D01*
X155309819Y-87796666D02*
X154833628Y-88129999D01*
X155309819Y-88368094D02*
X154309819Y-88368094D01*
X154309819Y-88368094D02*
X154309819Y-87987142D01*
X154309819Y-87987142D02*
X154357438Y-87891904D01*
X154357438Y-87891904D02*
X154405057Y-87844285D01*
X154405057Y-87844285D02*
X154500295Y-87796666D01*
X154500295Y-87796666D02*
X154643152Y-87796666D01*
X154643152Y-87796666D02*
X154738390Y-87844285D01*
X154738390Y-87844285D02*
X154786009Y-87891904D01*
X154786009Y-87891904D02*
X154833628Y-87987142D01*
X154833628Y-87987142D02*
X154833628Y-88368094D01*
X154309819Y-87463332D02*
X154309819Y-86796666D01*
X154309819Y-86796666D02*
X155309819Y-87225237D01*
X113498333Y-79109819D02*
X113165000Y-78633628D01*
X112926905Y-79109819D02*
X112926905Y-78109819D01*
X112926905Y-78109819D02*
X113307857Y-78109819D01*
X113307857Y-78109819D02*
X113403095Y-78157438D01*
X113403095Y-78157438D02*
X113450714Y-78205057D01*
X113450714Y-78205057D02*
X113498333Y-78300295D01*
X113498333Y-78300295D02*
X113498333Y-78443152D01*
X113498333Y-78443152D02*
X113450714Y-78538390D01*
X113450714Y-78538390D02*
X113403095Y-78586009D01*
X113403095Y-78586009D02*
X113307857Y-78633628D01*
X113307857Y-78633628D02*
X112926905Y-78633628D01*
X114069762Y-78538390D02*
X113974524Y-78490771D01*
X113974524Y-78490771D02*
X113926905Y-78443152D01*
X113926905Y-78443152D02*
X113879286Y-78347914D01*
X113879286Y-78347914D02*
X113879286Y-78300295D01*
X113879286Y-78300295D02*
X113926905Y-78205057D01*
X113926905Y-78205057D02*
X113974524Y-78157438D01*
X113974524Y-78157438D02*
X114069762Y-78109819D01*
X114069762Y-78109819D02*
X114260238Y-78109819D01*
X114260238Y-78109819D02*
X114355476Y-78157438D01*
X114355476Y-78157438D02*
X114403095Y-78205057D01*
X114403095Y-78205057D02*
X114450714Y-78300295D01*
X114450714Y-78300295D02*
X114450714Y-78347914D01*
X114450714Y-78347914D02*
X114403095Y-78443152D01*
X114403095Y-78443152D02*
X114355476Y-78490771D01*
X114355476Y-78490771D02*
X114260238Y-78538390D01*
X114260238Y-78538390D02*
X114069762Y-78538390D01*
X114069762Y-78538390D02*
X113974524Y-78586009D01*
X113974524Y-78586009D02*
X113926905Y-78633628D01*
X113926905Y-78633628D02*
X113879286Y-78728866D01*
X113879286Y-78728866D02*
X113879286Y-78919342D01*
X113879286Y-78919342D02*
X113926905Y-79014580D01*
X113926905Y-79014580D02*
X113974524Y-79062200D01*
X113974524Y-79062200D02*
X114069762Y-79109819D01*
X114069762Y-79109819D02*
X114260238Y-79109819D01*
X114260238Y-79109819D02*
X114355476Y-79062200D01*
X114355476Y-79062200D02*
X114403095Y-79014580D01*
X114403095Y-79014580D02*
X114450714Y-78919342D01*
X114450714Y-78919342D02*
X114450714Y-78728866D01*
X114450714Y-78728866D02*
X114403095Y-78633628D01*
X114403095Y-78633628D02*
X114355476Y-78586009D01*
X114355476Y-78586009D02*
X114260238Y-78538390D01*
X113498333Y-84824819D02*
X113165000Y-84348628D01*
X112926905Y-84824819D02*
X112926905Y-83824819D01*
X112926905Y-83824819D02*
X113307857Y-83824819D01*
X113307857Y-83824819D02*
X113403095Y-83872438D01*
X113403095Y-83872438D02*
X113450714Y-83920057D01*
X113450714Y-83920057D02*
X113498333Y-84015295D01*
X113498333Y-84015295D02*
X113498333Y-84158152D01*
X113498333Y-84158152D02*
X113450714Y-84253390D01*
X113450714Y-84253390D02*
X113403095Y-84301009D01*
X113403095Y-84301009D02*
X113307857Y-84348628D01*
X113307857Y-84348628D02*
X112926905Y-84348628D01*
X113974524Y-84824819D02*
X114165000Y-84824819D01*
X114165000Y-84824819D02*
X114260238Y-84777200D01*
X114260238Y-84777200D02*
X114307857Y-84729580D01*
X114307857Y-84729580D02*
X114403095Y-84586723D01*
X114403095Y-84586723D02*
X114450714Y-84396247D01*
X114450714Y-84396247D02*
X114450714Y-84015295D01*
X114450714Y-84015295D02*
X114403095Y-83920057D01*
X114403095Y-83920057D02*
X114355476Y-83872438D01*
X114355476Y-83872438D02*
X114260238Y-83824819D01*
X114260238Y-83824819D02*
X114069762Y-83824819D01*
X114069762Y-83824819D02*
X113974524Y-83872438D01*
X113974524Y-83872438D02*
X113926905Y-83920057D01*
X113926905Y-83920057D02*
X113879286Y-84015295D01*
X113879286Y-84015295D02*
X113879286Y-84253390D01*
X113879286Y-84253390D02*
X113926905Y-84348628D01*
X113926905Y-84348628D02*
X113974524Y-84396247D01*
X113974524Y-84396247D02*
X114069762Y-84443866D01*
X114069762Y-84443866D02*
X114260238Y-84443866D01*
X114260238Y-84443866D02*
X114355476Y-84396247D01*
X114355476Y-84396247D02*
X114403095Y-84348628D01*
X114403095Y-84348628D02*
X114450714Y-84253390D01*
X113022142Y-95619819D02*
X112688809Y-95143628D01*
X112450714Y-95619819D02*
X112450714Y-94619819D01*
X112450714Y-94619819D02*
X112831666Y-94619819D01*
X112831666Y-94619819D02*
X112926904Y-94667438D01*
X112926904Y-94667438D02*
X112974523Y-94715057D01*
X112974523Y-94715057D02*
X113022142Y-94810295D01*
X113022142Y-94810295D02*
X113022142Y-94953152D01*
X113022142Y-94953152D02*
X112974523Y-95048390D01*
X112974523Y-95048390D02*
X112926904Y-95096009D01*
X112926904Y-95096009D02*
X112831666Y-95143628D01*
X112831666Y-95143628D02*
X112450714Y-95143628D01*
X113974523Y-95619819D02*
X113403095Y-95619819D01*
X113688809Y-95619819D02*
X113688809Y-94619819D01*
X113688809Y-94619819D02*
X113593571Y-94762676D01*
X113593571Y-94762676D02*
X113498333Y-94857914D01*
X113498333Y-94857914D02*
X113403095Y-94905533D01*
X114926904Y-95619819D02*
X114355476Y-95619819D01*
X114641190Y-95619819D02*
X114641190Y-94619819D01*
X114641190Y-94619819D02*
X114545952Y-94762676D01*
X114545952Y-94762676D02*
X114450714Y-94857914D01*
X114450714Y-94857914D02*
X114355476Y-94905533D01*
X113022142Y-99429819D02*
X112688809Y-98953628D01*
X112450714Y-99429819D02*
X112450714Y-98429819D01*
X112450714Y-98429819D02*
X112831666Y-98429819D01*
X112831666Y-98429819D02*
X112926904Y-98477438D01*
X112926904Y-98477438D02*
X112974523Y-98525057D01*
X112974523Y-98525057D02*
X113022142Y-98620295D01*
X113022142Y-98620295D02*
X113022142Y-98763152D01*
X113022142Y-98763152D02*
X112974523Y-98858390D01*
X112974523Y-98858390D02*
X112926904Y-98906009D01*
X112926904Y-98906009D02*
X112831666Y-98953628D01*
X112831666Y-98953628D02*
X112450714Y-98953628D01*
X113974523Y-99429819D02*
X113403095Y-99429819D01*
X113688809Y-99429819D02*
X113688809Y-98429819D01*
X113688809Y-98429819D02*
X113593571Y-98572676D01*
X113593571Y-98572676D02*
X113498333Y-98667914D01*
X113498333Y-98667914D02*
X113403095Y-98715533D01*
X114355476Y-98525057D02*
X114403095Y-98477438D01*
X114403095Y-98477438D02*
X114498333Y-98429819D01*
X114498333Y-98429819D02*
X114736428Y-98429819D01*
X114736428Y-98429819D02*
X114831666Y-98477438D01*
X114831666Y-98477438D02*
X114879285Y-98525057D01*
X114879285Y-98525057D02*
X114926904Y-98620295D01*
X114926904Y-98620295D02*
X114926904Y-98715533D01*
X114926904Y-98715533D02*
X114879285Y-98858390D01*
X114879285Y-98858390D02*
X114307857Y-99429819D01*
X114307857Y-99429819D02*
X114926904Y-99429819D01*
X113022142Y-107049819D02*
X112688809Y-106573628D01*
X112450714Y-107049819D02*
X112450714Y-106049819D01*
X112450714Y-106049819D02*
X112831666Y-106049819D01*
X112831666Y-106049819D02*
X112926904Y-106097438D01*
X112926904Y-106097438D02*
X112974523Y-106145057D01*
X112974523Y-106145057D02*
X113022142Y-106240295D01*
X113022142Y-106240295D02*
X113022142Y-106383152D01*
X113022142Y-106383152D02*
X112974523Y-106478390D01*
X112974523Y-106478390D02*
X112926904Y-106526009D01*
X112926904Y-106526009D02*
X112831666Y-106573628D01*
X112831666Y-106573628D02*
X112450714Y-106573628D01*
X113974523Y-107049819D02*
X113403095Y-107049819D01*
X113688809Y-107049819D02*
X113688809Y-106049819D01*
X113688809Y-106049819D02*
X113593571Y-106192676D01*
X113593571Y-106192676D02*
X113498333Y-106287914D01*
X113498333Y-106287914D02*
X113403095Y-106335533D01*
X114307857Y-106049819D02*
X114926904Y-106049819D01*
X114926904Y-106049819D02*
X114593571Y-106430771D01*
X114593571Y-106430771D02*
X114736428Y-106430771D01*
X114736428Y-106430771D02*
X114831666Y-106478390D01*
X114831666Y-106478390D02*
X114879285Y-106526009D01*
X114879285Y-106526009D02*
X114926904Y-106621247D01*
X114926904Y-106621247D02*
X114926904Y-106859342D01*
X114926904Y-106859342D02*
X114879285Y-106954580D01*
X114879285Y-106954580D02*
X114831666Y-107002200D01*
X114831666Y-107002200D02*
X114736428Y-107049819D01*
X114736428Y-107049819D02*
X114450714Y-107049819D01*
X114450714Y-107049819D02*
X114355476Y-107002200D01*
X114355476Y-107002200D02*
X114307857Y-106954580D01*
X100322142Y-71024819D02*
X99988809Y-70548628D01*
X99750714Y-71024819D02*
X99750714Y-70024819D01*
X99750714Y-70024819D02*
X100131666Y-70024819D01*
X100131666Y-70024819D02*
X100226904Y-70072438D01*
X100226904Y-70072438D02*
X100274523Y-70120057D01*
X100274523Y-70120057D02*
X100322142Y-70215295D01*
X100322142Y-70215295D02*
X100322142Y-70358152D01*
X100322142Y-70358152D02*
X100274523Y-70453390D01*
X100274523Y-70453390D02*
X100226904Y-70501009D01*
X100226904Y-70501009D02*
X100131666Y-70548628D01*
X100131666Y-70548628D02*
X99750714Y-70548628D01*
X101274523Y-71024819D02*
X100703095Y-71024819D01*
X100988809Y-71024819D02*
X100988809Y-70024819D01*
X100988809Y-70024819D02*
X100893571Y-70167676D01*
X100893571Y-70167676D02*
X100798333Y-70262914D01*
X100798333Y-70262914D02*
X100703095Y-70310533D01*
X102131666Y-70358152D02*
X102131666Y-71024819D01*
X101893571Y-69977200D02*
X101655476Y-70691485D01*
X101655476Y-70691485D02*
X102274523Y-70691485D01*
X100322142Y-73564819D02*
X99988809Y-73088628D01*
X99750714Y-73564819D02*
X99750714Y-72564819D01*
X99750714Y-72564819D02*
X100131666Y-72564819D01*
X100131666Y-72564819D02*
X100226904Y-72612438D01*
X100226904Y-72612438D02*
X100274523Y-72660057D01*
X100274523Y-72660057D02*
X100322142Y-72755295D01*
X100322142Y-72755295D02*
X100322142Y-72898152D01*
X100322142Y-72898152D02*
X100274523Y-72993390D01*
X100274523Y-72993390D02*
X100226904Y-73041009D01*
X100226904Y-73041009D02*
X100131666Y-73088628D01*
X100131666Y-73088628D02*
X99750714Y-73088628D01*
X101274523Y-73564819D02*
X100703095Y-73564819D01*
X100988809Y-73564819D02*
X100988809Y-72564819D01*
X100988809Y-72564819D02*
X100893571Y-72707676D01*
X100893571Y-72707676D02*
X100798333Y-72802914D01*
X100798333Y-72802914D02*
X100703095Y-72850533D01*
X102179285Y-72564819D02*
X101703095Y-72564819D01*
X101703095Y-72564819D02*
X101655476Y-73041009D01*
X101655476Y-73041009D02*
X101703095Y-72993390D01*
X101703095Y-72993390D02*
X101798333Y-72945771D01*
X101798333Y-72945771D02*
X102036428Y-72945771D01*
X102036428Y-72945771D02*
X102131666Y-72993390D01*
X102131666Y-72993390D02*
X102179285Y-73041009D01*
X102179285Y-73041009D02*
X102226904Y-73136247D01*
X102226904Y-73136247D02*
X102226904Y-73374342D01*
X102226904Y-73374342D02*
X102179285Y-73469580D01*
X102179285Y-73469580D02*
X102131666Y-73517200D01*
X102131666Y-73517200D02*
X102036428Y-73564819D01*
X102036428Y-73564819D02*
X101798333Y-73564819D01*
X101798333Y-73564819D02*
X101703095Y-73517200D01*
X101703095Y-73517200D02*
X101655476Y-73469580D01*
X100322142Y-78644819D02*
X99988809Y-78168628D01*
X99750714Y-78644819D02*
X99750714Y-77644819D01*
X99750714Y-77644819D02*
X100131666Y-77644819D01*
X100131666Y-77644819D02*
X100226904Y-77692438D01*
X100226904Y-77692438D02*
X100274523Y-77740057D01*
X100274523Y-77740057D02*
X100322142Y-77835295D01*
X100322142Y-77835295D02*
X100322142Y-77978152D01*
X100322142Y-77978152D02*
X100274523Y-78073390D01*
X100274523Y-78073390D02*
X100226904Y-78121009D01*
X100226904Y-78121009D02*
X100131666Y-78168628D01*
X100131666Y-78168628D02*
X99750714Y-78168628D01*
X101274523Y-78644819D02*
X100703095Y-78644819D01*
X100988809Y-78644819D02*
X100988809Y-77644819D01*
X100988809Y-77644819D02*
X100893571Y-77787676D01*
X100893571Y-77787676D02*
X100798333Y-77882914D01*
X100798333Y-77882914D02*
X100703095Y-77930533D01*
X102131666Y-77644819D02*
X101941190Y-77644819D01*
X101941190Y-77644819D02*
X101845952Y-77692438D01*
X101845952Y-77692438D02*
X101798333Y-77740057D01*
X101798333Y-77740057D02*
X101703095Y-77882914D01*
X101703095Y-77882914D02*
X101655476Y-78073390D01*
X101655476Y-78073390D02*
X101655476Y-78454342D01*
X101655476Y-78454342D02*
X101703095Y-78549580D01*
X101703095Y-78549580D02*
X101750714Y-78597200D01*
X101750714Y-78597200D02*
X101845952Y-78644819D01*
X101845952Y-78644819D02*
X102036428Y-78644819D01*
X102036428Y-78644819D02*
X102131666Y-78597200D01*
X102131666Y-78597200D02*
X102179285Y-78549580D01*
X102179285Y-78549580D02*
X102226904Y-78454342D01*
X102226904Y-78454342D02*
X102226904Y-78216247D01*
X102226904Y-78216247D02*
X102179285Y-78121009D01*
X102179285Y-78121009D02*
X102131666Y-78073390D01*
X102131666Y-78073390D02*
X102036428Y-78025771D01*
X102036428Y-78025771D02*
X101845952Y-78025771D01*
X101845952Y-78025771D02*
X101750714Y-78073390D01*
X101750714Y-78073390D02*
X101703095Y-78121009D01*
X101703095Y-78121009D02*
X101655476Y-78216247D01*
X100322142Y-83089819D02*
X99988809Y-82613628D01*
X99750714Y-83089819D02*
X99750714Y-82089819D01*
X99750714Y-82089819D02*
X100131666Y-82089819D01*
X100131666Y-82089819D02*
X100226904Y-82137438D01*
X100226904Y-82137438D02*
X100274523Y-82185057D01*
X100274523Y-82185057D02*
X100322142Y-82280295D01*
X100322142Y-82280295D02*
X100322142Y-82423152D01*
X100322142Y-82423152D02*
X100274523Y-82518390D01*
X100274523Y-82518390D02*
X100226904Y-82566009D01*
X100226904Y-82566009D02*
X100131666Y-82613628D01*
X100131666Y-82613628D02*
X99750714Y-82613628D01*
X101274523Y-83089819D02*
X100703095Y-83089819D01*
X100988809Y-83089819D02*
X100988809Y-82089819D01*
X100988809Y-82089819D02*
X100893571Y-82232676D01*
X100893571Y-82232676D02*
X100798333Y-82327914D01*
X100798333Y-82327914D02*
X100703095Y-82375533D01*
X101607857Y-82089819D02*
X102274523Y-82089819D01*
X102274523Y-82089819D02*
X101845952Y-83089819D01*
X100322142Y-86264819D02*
X99988809Y-85788628D01*
X99750714Y-86264819D02*
X99750714Y-85264819D01*
X99750714Y-85264819D02*
X100131666Y-85264819D01*
X100131666Y-85264819D02*
X100226904Y-85312438D01*
X100226904Y-85312438D02*
X100274523Y-85360057D01*
X100274523Y-85360057D02*
X100322142Y-85455295D01*
X100322142Y-85455295D02*
X100322142Y-85598152D01*
X100322142Y-85598152D02*
X100274523Y-85693390D01*
X100274523Y-85693390D02*
X100226904Y-85741009D01*
X100226904Y-85741009D02*
X100131666Y-85788628D01*
X100131666Y-85788628D02*
X99750714Y-85788628D01*
X101274523Y-86264819D02*
X100703095Y-86264819D01*
X100988809Y-86264819D02*
X100988809Y-85264819D01*
X100988809Y-85264819D02*
X100893571Y-85407676D01*
X100893571Y-85407676D02*
X100798333Y-85502914D01*
X100798333Y-85502914D02*
X100703095Y-85550533D01*
X101845952Y-85693390D02*
X101750714Y-85645771D01*
X101750714Y-85645771D02*
X101703095Y-85598152D01*
X101703095Y-85598152D02*
X101655476Y-85502914D01*
X101655476Y-85502914D02*
X101655476Y-85455295D01*
X101655476Y-85455295D02*
X101703095Y-85360057D01*
X101703095Y-85360057D02*
X101750714Y-85312438D01*
X101750714Y-85312438D02*
X101845952Y-85264819D01*
X101845952Y-85264819D02*
X102036428Y-85264819D01*
X102036428Y-85264819D02*
X102131666Y-85312438D01*
X102131666Y-85312438D02*
X102179285Y-85360057D01*
X102179285Y-85360057D02*
X102226904Y-85455295D01*
X102226904Y-85455295D02*
X102226904Y-85502914D01*
X102226904Y-85502914D02*
X102179285Y-85598152D01*
X102179285Y-85598152D02*
X102131666Y-85645771D01*
X102131666Y-85645771D02*
X102036428Y-85693390D01*
X102036428Y-85693390D02*
X101845952Y-85693390D01*
X101845952Y-85693390D02*
X101750714Y-85741009D01*
X101750714Y-85741009D02*
X101703095Y-85788628D01*
X101703095Y-85788628D02*
X101655476Y-85883866D01*
X101655476Y-85883866D02*
X101655476Y-86074342D01*
X101655476Y-86074342D02*
X101703095Y-86169580D01*
X101703095Y-86169580D02*
X101750714Y-86217200D01*
X101750714Y-86217200D02*
X101845952Y-86264819D01*
X101845952Y-86264819D02*
X102036428Y-86264819D01*
X102036428Y-86264819D02*
X102131666Y-86217200D01*
X102131666Y-86217200D02*
X102179285Y-86169580D01*
X102179285Y-86169580D02*
X102226904Y-86074342D01*
X102226904Y-86074342D02*
X102226904Y-85883866D01*
X102226904Y-85883866D02*
X102179285Y-85788628D01*
X102179285Y-85788628D02*
X102131666Y-85741009D01*
X102131666Y-85741009D02*
X102036428Y-85693390D01*
X100322142Y-89439819D02*
X99988809Y-88963628D01*
X99750714Y-89439819D02*
X99750714Y-88439819D01*
X99750714Y-88439819D02*
X100131666Y-88439819D01*
X100131666Y-88439819D02*
X100226904Y-88487438D01*
X100226904Y-88487438D02*
X100274523Y-88535057D01*
X100274523Y-88535057D02*
X100322142Y-88630295D01*
X100322142Y-88630295D02*
X100322142Y-88773152D01*
X100322142Y-88773152D02*
X100274523Y-88868390D01*
X100274523Y-88868390D02*
X100226904Y-88916009D01*
X100226904Y-88916009D02*
X100131666Y-88963628D01*
X100131666Y-88963628D02*
X99750714Y-88963628D01*
X101274523Y-89439819D02*
X100703095Y-89439819D01*
X100988809Y-89439819D02*
X100988809Y-88439819D01*
X100988809Y-88439819D02*
X100893571Y-88582676D01*
X100893571Y-88582676D02*
X100798333Y-88677914D01*
X100798333Y-88677914D02*
X100703095Y-88725533D01*
X101750714Y-89439819D02*
X101941190Y-89439819D01*
X101941190Y-89439819D02*
X102036428Y-89392200D01*
X102036428Y-89392200D02*
X102084047Y-89344580D01*
X102084047Y-89344580D02*
X102179285Y-89201723D01*
X102179285Y-89201723D02*
X102226904Y-89011247D01*
X102226904Y-89011247D02*
X102226904Y-88630295D01*
X102226904Y-88630295D02*
X102179285Y-88535057D01*
X102179285Y-88535057D02*
X102131666Y-88487438D01*
X102131666Y-88487438D02*
X102036428Y-88439819D01*
X102036428Y-88439819D02*
X101845952Y-88439819D01*
X101845952Y-88439819D02*
X101750714Y-88487438D01*
X101750714Y-88487438D02*
X101703095Y-88535057D01*
X101703095Y-88535057D02*
X101655476Y-88630295D01*
X101655476Y-88630295D02*
X101655476Y-88868390D01*
X101655476Y-88868390D02*
X101703095Y-88963628D01*
X101703095Y-88963628D02*
X101750714Y-89011247D01*
X101750714Y-89011247D02*
X101845952Y-89058866D01*
X101845952Y-89058866D02*
X102036428Y-89058866D01*
X102036428Y-89058866D02*
X102131666Y-89011247D01*
X102131666Y-89011247D02*
X102179285Y-88963628D01*
X102179285Y-88963628D02*
X102226904Y-88868390D01*
X100322142Y-92614819D02*
X99988809Y-92138628D01*
X99750714Y-92614819D02*
X99750714Y-91614819D01*
X99750714Y-91614819D02*
X100131666Y-91614819D01*
X100131666Y-91614819D02*
X100226904Y-91662438D01*
X100226904Y-91662438D02*
X100274523Y-91710057D01*
X100274523Y-91710057D02*
X100322142Y-91805295D01*
X100322142Y-91805295D02*
X100322142Y-91948152D01*
X100322142Y-91948152D02*
X100274523Y-92043390D01*
X100274523Y-92043390D02*
X100226904Y-92091009D01*
X100226904Y-92091009D02*
X100131666Y-92138628D01*
X100131666Y-92138628D02*
X99750714Y-92138628D01*
X100703095Y-91710057D02*
X100750714Y-91662438D01*
X100750714Y-91662438D02*
X100845952Y-91614819D01*
X100845952Y-91614819D02*
X101084047Y-91614819D01*
X101084047Y-91614819D02*
X101179285Y-91662438D01*
X101179285Y-91662438D02*
X101226904Y-91710057D01*
X101226904Y-91710057D02*
X101274523Y-91805295D01*
X101274523Y-91805295D02*
X101274523Y-91900533D01*
X101274523Y-91900533D02*
X101226904Y-92043390D01*
X101226904Y-92043390D02*
X100655476Y-92614819D01*
X100655476Y-92614819D02*
X101274523Y-92614819D01*
X101893571Y-91614819D02*
X101988809Y-91614819D01*
X101988809Y-91614819D02*
X102084047Y-91662438D01*
X102084047Y-91662438D02*
X102131666Y-91710057D01*
X102131666Y-91710057D02*
X102179285Y-91805295D01*
X102179285Y-91805295D02*
X102226904Y-91995771D01*
X102226904Y-91995771D02*
X102226904Y-92233866D01*
X102226904Y-92233866D02*
X102179285Y-92424342D01*
X102179285Y-92424342D02*
X102131666Y-92519580D01*
X102131666Y-92519580D02*
X102084047Y-92567200D01*
X102084047Y-92567200D02*
X101988809Y-92614819D01*
X101988809Y-92614819D02*
X101893571Y-92614819D01*
X101893571Y-92614819D02*
X101798333Y-92567200D01*
X101798333Y-92567200D02*
X101750714Y-92519580D01*
X101750714Y-92519580D02*
X101703095Y-92424342D01*
X101703095Y-92424342D02*
X101655476Y-92233866D01*
X101655476Y-92233866D02*
X101655476Y-91995771D01*
X101655476Y-91995771D02*
X101703095Y-91805295D01*
X101703095Y-91805295D02*
X101750714Y-91710057D01*
X101750714Y-91710057D02*
X101798333Y-91662438D01*
X101798333Y-91662438D02*
X101893571Y-91614819D01*
X100322142Y-95789819D02*
X99988809Y-95313628D01*
X99750714Y-95789819D02*
X99750714Y-94789819D01*
X99750714Y-94789819D02*
X100131666Y-94789819D01*
X100131666Y-94789819D02*
X100226904Y-94837438D01*
X100226904Y-94837438D02*
X100274523Y-94885057D01*
X100274523Y-94885057D02*
X100322142Y-94980295D01*
X100322142Y-94980295D02*
X100322142Y-95123152D01*
X100322142Y-95123152D02*
X100274523Y-95218390D01*
X100274523Y-95218390D02*
X100226904Y-95266009D01*
X100226904Y-95266009D02*
X100131666Y-95313628D01*
X100131666Y-95313628D02*
X99750714Y-95313628D01*
X100703095Y-94885057D02*
X100750714Y-94837438D01*
X100750714Y-94837438D02*
X100845952Y-94789819D01*
X100845952Y-94789819D02*
X101084047Y-94789819D01*
X101084047Y-94789819D02*
X101179285Y-94837438D01*
X101179285Y-94837438D02*
X101226904Y-94885057D01*
X101226904Y-94885057D02*
X101274523Y-94980295D01*
X101274523Y-94980295D02*
X101274523Y-95075533D01*
X101274523Y-95075533D02*
X101226904Y-95218390D01*
X101226904Y-95218390D02*
X100655476Y-95789819D01*
X100655476Y-95789819D02*
X101274523Y-95789819D01*
X102226904Y-95789819D02*
X101655476Y-95789819D01*
X101941190Y-95789819D02*
X101941190Y-94789819D01*
X101941190Y-94789819D02*
X101845952Y-94932676D01*
X101845952Y-94932676D02*
X101750714Y-95027914D01*
X101750714Y-95027914D02*
X101655476Y-95075533D01*
X100322142Y-98964819D02*
X99988809Y-98488628D01*
X99750714Y-98964819D02*
X99750714Y-97964819D01*
X99750714Y-97964819D02*
X100131666Y-97964819D01*
X100131666Y-97964819D02*
X100226904Y-98012438D01*
X100226904Y-98012438D02*
X100274523Y-98060057D01*
X100274523Y-98060057D02*
X100322142Y-98155295D01*
X100322142Y-98155295D02*
X100322142Y-98298152D01*
X100322142Y-98298152D02*
X100274523Y-98393390D01*
X100274523Y-98393390D02*
X100226904Y-98441009D01*
X100226904Y-98441009D02*
X100131666Y-98488628D01*
X100131666Y-98488628D02*
X99750714Y-98488628D01*
X100703095Y-98060057D02*
X100750714Y-98012438D01*
X100750714Y-98012438D02*
X100845952Y-97964819D01*
X100845952Y-97964819D02*
X101084047Y-97964819D01*
X101084047Y-97964819D02*
X101179285Y-98012438D01*
X101179285Y-98012438D02*
X101226904Y-98060057D01*
X101226904Y-98060057D02*
X101274523Y-98155295D01*
X101274523Y-98155295D02*
X101274523Y-98250533D01*
X101274523Y-98250533D02*
X101226904Y-98393390D01*
X101226904Y-98393390D02*
X100655476Y-98964819D01*
X100655476Y-98964819D02*
X101274523Y-98964819D01*
X101655476Y-98060057D02*
X101703095Y-98012438D01*
X101703095Y-98012438D02*
X101798333Y-97964819D01*
X101798333Y-97964819D02*
X102036428Y-97964819D01*
X102036428Y-97964819D02*
X102131666Y-98012438D01*
X102131666Y-98012438D02*
X102179285Y-98060057D01*
X102179285Y-98060057D02*
X102226904Y-98155295D01*
X102226904Y-98155295D02*
X102226904Y-98250533D01*
X102226904Y-98250533D02*
X102179285Y-98393390D01*
X102179285Y-98393390D02*
X101607857Y-98964819D01*
X101607857Y-98964819D02*
X102226904Y-98964819D01*
X100322142Y-102139819D02*
X99988809Y-101663628D01*
X99750714Y-102139819D02*
X99750714Y-101139819D01*
X99750714Y-101139819D02*
X100131666Y-101139819D01*
X100131666Y-101139819D02*
X100226904Y-101187438D01*
X100226904Y-101187438D02*
X100274523Y-101235057D01*
X100274523Y-101235057D02*
X100322142Y-101330295D01*
X100322142Y-101330295D02*
X100322142Y-101473152D01*
X100322142Y-101473152D02*
X100274523Y-101568390D01*
X100274523Y-101568390D02*
X100226904Y-101616009D01*
X100226904Y-101616009D02*
X100131666Y-101663628D01*
X100131666Y-101663628D02*
X99750714Y-101663628D01*
X100703095Y-101235057D02*
X100750714Y-101187438D01*
X100750714Y-101187438D02*
X100845952Y-101139819D01*
X100845952Y-101139819D02*
X101084047Y-101139819D01*
X101084047Y-101139819D02*
X101179285Y-101187438D01*
X101179285Y-101187438D02*
X101226904Y-101235057D01*
X101226904Y-101235057D02*
X101274523Y-101330295D01*
X101274523Y-101330295D02*
X101274523Y-101425533D01*
X101274523Y-101425533D02*
X101226904Y-101568390D01*
X101226904Y-101568390D02*
X100655476Y-102139819D01*
X100655476Y-102139819D02*
X101274523Y-102139819D01*
X101607857Y-101139819D02*
X102226904Y-101139819D01*
X102226904Y-101139819D02*
X101893571Y-101520771D01*
X101893571Y-101520771D02*
X102036428Y-101520771D01*
X102036428Y-101520771D02*
X102131666Y-101568390D01*
X102131666Y-101568390D02*
X102179285Y-101616009D01*
X102179285Y-101616009D02*
X102226904Y-101711247D01*
X102226904Y-101711247D02*
X102226904Y-101949342D01*
X102226904Y-101949342D02*
X102179285Y-102044580D01*
X102179285Y-102044580D02*
X102131666Y-102092200D01*
X102131666Y-102092200D02*
X102036428Y-102139819D01*
X102036428Y-102139819D02*
X101750714Y-102139819D01*
X101750714Y-102139819D02*
X101655476Y-102092200D01*
X101655476Y-102092200D02*
X101607857Y-102044580D01*
X100322142Y-105314819D02*
X99988809Y-104838628D01*
X99750714Y-105314819D02*
X99750714Y-104314819D01*
X99750714Y-104314819D02*
X100131666Y-104314819D01*
X100131666Y-104314819D02*
X100226904Y-104362438D01*
X100226904Y-104362438D02*
X100274523Y-104410057D01*
X100274523Y-104410057D02*
X100322142Y-104505295D01*
X100322142Y-104505295D02*
X100322142Y-104648152D01*
X100322142Y-104648152D02*
X100274523Y-104743390D01*
X100274523Y-104743390D02*
X100226904Y-104791009D01*
X100226904Y-104791009D02*
X100131666Y-104838628D01*
X100131666Y-104838628D02*
X99750714Y-104838628D01*
X100703095Y-104410057D02*
X100750714Y-104362438D01*
X100750714Y-104362438D02*
X100845952Y-104314819D01*
X100845952Y-104314819D02*
X101084047Y-104314819D01*
X101084047Y-104314819D02*
X101179285Y-104362438D01*
X101179285Y-104362438D02*
X101226904Y-104410057D01*
X101226904Y-104410057D02*
X101274523Y-104505295D01*
X101274523Y-104505295D02*
X101274523Y-104600533D01*
X101274523Y-104600533D02*
X101226904Y-104743390D01*
X101226904Y-104743390D02*
X100655476Y-105314819D01*
X100655476Y-105314819D02*
X101274523Y-105314819D01*
X102131666Y-104648152D02*
X102131666Y-105314819D01*
X101893571Y-104267200D02*
X101655476Y-104981485D01*
X101655476Y-104981485D02*
X102274523Y-104981485D01*
X100322142Y-108489819D02*
X99988809Y-108013628D01*
X99750714Y-108489819D02*
X99750714Y-107489819D01*
X99750714Y-107489819D02*
X100131666Y-107489819D01*
X100131666Y-107489819D02*
X100226904Y-107537438D01*
X100226904Y-107537438D02*
X100274523Y-107585057D01*
X100274523Y-107585057D02*
X100322142Y-107680295D01*
X100322142Y-107680295D02*
X100322142Y-107823152D01*
X100322142Y-107823152D02*
X100274523Y-107918390D01*
X100274523Y-107918390D02*
X100226904Y-107966009D01*
X100226904Y-107966009D02*
X100131666Y-108013628D01*
X100131666Y-108013628D02*
X99750714Y-108013628D01*
X100703095Y-107585057D02*
X100750714Y-107537438D01*
X100750714Y-107537438D02*
X100845952Y-107489819D01*
X100845952Y-107489819D02*
X101084047Y-107489819D01*
X101084047Y-107489819D02*
X101179285Y-107537438D01*
X101179285Y-107537438D02*
X101226904Y-107585057D01*
X101226904Y-107585057D02*
X101274523Y-107680295D01*
X101274523Y-107680295D02*
X101274523Y-107775533D01*
X101274523Y-107775533D02*
X101226904Y-107918390D01*
X101226904Y-107918390D02*
X100655476Y-108489819D01*
X100655476Y-108489819D02*
X101274523Y-108489819D01*
X102179285Y-107489819D02*
X101703095Y-107489819D01*
X101703095Y-107489819D02*
X101655476Y-107966009D01*
X101655476Y-107966009D02*
X101703095Y-107918390D01*
X101703095Y-107918390D02*
X101798333Y-107870771D01*
X101798333Y-107870771D02*
X102036428Y-107870771D01*
X102036428Y-107870771D02*
X102131666Y-107918390D01*
X102131666Y-107918390D02*
X102179285Y-107966009D01*
X102179285Y-107966009D02*
X102226904Y-108061247D01*
X102226904Y-108061247D02*
X102226904Y-108299342D01*
X102226904Y-108299342D02*
X102179285Y-108394580D01*
X102179285Y-108394580D02*
X102131666Y-108442200D01*
X102131666Y-108442200D02*
X102036428Y-108489819D01*
X102036428Y-108489819D02*
X101798333Y-108489819D01*
X101798333Y-108489819D02*
X101703095Y-108442200D01*
X101703095Y-108442200D02*
X101655476Y-108394580D01*
X100322142Y-111664819D02*
X99988809Y-111188628D01*
X99750714Y-111664819D02*
X99750714Y-110664819D01*
X99750714Y-110664819D02*
X100131666Y-110664819D01*
X100131666Y-110664819D02*
X100226904Y-110712438D01*
X100226904Y-110712438D02*
X100274523Y-110760057D01*
X100274523Y-110760057D02*
X100322142Y-110855295D01*
X100322142Y-110855295D02*
X100322142Y-110998152D01*
X100322142Y-110998152D02*
X100274523Y-111093390D01*
X100274523Y-111093390D02*
X100226904Y-111141009D01*
X100226904Y-111141009D02*
X100131666Y-111188628D01*
X100131666Y-111188628D02*
X99750714Y-111188628D01*
X100703095Y-110760057D02*
X100750714Y-110712438D01*
X100750714Y-110712438D02*
X100845952Y-110664819D01*
X100845952Y-110664819D02*
X101084047Y-110664819D01*
X101084047Y-110664819D02*
X101179285Y-110712438D01*
X101179285Y-110712438D02*
X101226904Y-110760057D01*
X101226904Y-110760057D02*
X101274523Y-110855295D01*
X101274523Y-110855295D02*
X101274523Y-110950533D01*
X101274523Y-110950533D02*
X101226904Y-111093390D01*
X101226904Y-111093390D02*
X100655476Y-111664819D01*
X100655476Y-111664819D02*
X101274523Y-111664819D01*
X102131666Y-110664819D02*
X101941190Y-110664819D01*
X101941190Y-110664819D02*
X101845952Y-110712438D01*
X101845952Y-110712438D02*
X101798333Y-110760057D01*
X101798333Y-110760057D02*
X101703095Y-110902914D01*
X101703095Y-110902914D02*
X101655476Y-111093390D01*
X101655476Y-111093390D02*
X101655476Y-111474342D01*
X101655476Y-111474342D02*
X101703095Y-111569580D01*
X101703095Y-111569580D02*
X101750714Y-111617200D01*
X101750714Y-111617200D02*
X101845952Y-111664819D01*
X101845952Y-111664819D02*
X102036428Y-111664819D01*
X102036428Y-111664819D02*
X102131666Y-111617200D01*
X102131666Y-111617200D02*
X102179285Y-111569580D01*
X102179285Y-111569580D02*
X102226904Y-111474342D01*
X102226904Y-111474342D02*
X102226904Y-111236247D01*
X102226904Y-111236247D02*
X102179285Y-111141009D01*
X102179285Y-111141009D02*
X102131666Y-111093390D01*
X102131666Y-111093390D02*
X102036428Y-111045771D01*
X102036428Y-111045771D02*
X101845952Y-111045771D01*
X101845952Y-111045771D02*
X101750714Y-111093390D01*
X101750714Y-111093390D02*
X101703095Y-111141009D01*
X101703095Y-111141009D02*
X101655476Y-111236247D01*
X124396667Y-93687200D02*
X124539524Y-93734819D01*
X124539524Y-93734819D02*
X124777619Y-93734819D01*
X124777619Y-93734819D02*
X124872857Y-93687200D01*
X124872857Y-93687200D02*
X124920476Y-93639580D01*
X124920476Y-93639580D02*
X124968095Y-93544342D01*
X124968095Y-93544342D02*
X124968095Y-93449104D01*
X124968095Y-93449104D02*
X124920476Y-93353866D01*
X124920476Y-93353866D02*
X124872857Y-93306247D01*
X124872857Y-93306247D02*
X124777619Y-93258628D01*
X124777619Y-93258628D02*
X124587143Y-93211009D01*
X124587143Y-93211009D02*
X124491905Y-93163390D01*
X124491905Y-93163390D02*
X124444286Y-93115771D01*
X124444286Y-93115771D02*
X124396667Y-93020533D01*
X124396667Y-93020533D02*
X124396667Y-92925295D01*
X124396667Y-92925295D02*
X124444286Y-92830057D01*
X124444286Y-92830057D02*
X124491905Y-92782438D01*
X124491905Y-92782438D02*
X124587143Y-92734819D01*
X124587143Y-92734819D02*
X124825238Y-92734819D01*
X124825238Y-92734819D02*
X124968095Y-92782438D01*
X125301429Y-92734819D02*
X125539524Y-93734819D01*
X125539524Y-93734819D02*
X125730000Y-93020533D01*
X125730000Y-93020533D02*
X125920476Y-93734819D01*
X125920476Y-93734819D02*
X126158572Y-92734819D01*
X126491905Y-92830057D02*
X126539524Y-92782438D01*
X126539524Y-92782438D02*
X126634762Y-92734819D01*
X126634762Y-92734819D02*
X126872857Y-92734819D01*
X126872857Y-92734819D02*
X126968095Y-92782438D01*
X126968095Y-92782438D02*
X127015714Y-92830057D01*
X127015714Y-92830057D02*
X127063333Y-92925295D01*
X127063333Y-92925295D02*
X127063333Y-93020533D01*
X127063333Y-93020533D02*
X127015714Y-93163390D01*
X127015714Y-93163390D02*
X126444286Y-93734819D01*
X126444286Y-93734819D02*
X127063333Y-93734819D01*
X99094819Y-63626904D02*
X99904342Y-63626904D01*
X99904342Y-63626904D02*
X99999580Y-63579285D01*
X99999580Y-63579285D02*
X100047200Y-63531666D01*
X100047200Y-63531666D02*
X100094819Y-63436428D01*
X100094819Y-63436428D02*
X100094819Y-63245952D01*
X100094819Y-63245952D02*
X100047200Y-63150714D01*
X100047200Y-63150714D02*
X99999580Y-63103095D01*
X99999580Y-63103095D02*
X99904342Y-63055476D01*
X99904342Y-63055476D02*
X99094819Y-63055476D01*
X100094819Y-62055476D02*
X100094819Y-62626904D01*
X100094819Y-62341190D02*
X99094819Y-62341190D01*
X99094819Y-62341190D02*
X99237676Y-62436428D01*
X99237676Y-62436428D02*
X99332914Y-62531666D01*
X99332914Y-62531666D02*
X99380533Y-62626904D01*
X137469819Y-76326904D02*
X138279342Y-76326904D01*
X138279342Y-76326904D02*
X138374580Y-76279285D01*
X138374580Y-76279285D02*
X138422200Y-76231666D01*
X138422200Y-76231666D02*
X138469819Y-76136428D01*
X138469819Y-76136428D02*
X138469819Y-75945952D01*
X138469819Y-75945952D02*
X138422200Y-75850714D01*
X138422200Y-75850714D02*
X138374580Y-75803095D01*
X138374580Y-75803095D02*
X138279342Y-75755476D01*
X138279342Y-75755476D02*
X137469819Y-75755476D01*
X137565057Y-75326904D02*
X137517438Y-75279285D01*
X137517438Y-75279285D02*
X137469819Y-75184047D01*
X137469819Y-75184047D02*
X137469819Y-74945952D01*
X137469819Y-74945952D02*
X137517438Y-74850714D01*
X137517438Y-74850714D02*
X137565057Y-74803095D01*
X137565057Y-74803095D02*
X137660295Y-74755476D01*
X137660295Y-74755476D02*
X137755533Y-74755476D01*
X137755533Y-74755476D02*
X137898390Y-74803095D01*
X137898390Y-74803095D02*
X138469819Y-75374523D01*
X138469819Y-75374523D02*
X138469819Y-74755476D01*
X146558095Y-103454819D02*
X146558095Y-104264342D01*
X146558095Y-104264342D02*
X146605714Y-104359580D01*
X146605714Y-104359580D02*
X146653333Y-104407200D01*
X146653333Y-104407200D02*
X146748571Y-104454819D01*
X146748571Y-104454819D02*
X146939047Y-104454819D01*
X146939047Y-104454819D02*
X147034285Y-104407200D01*
X147034285Y-104407200D02*
X147081904Y-104359580D01*
X147081904Y-104359580D02*
X147129523Y-104264342D01*
X147129523Y-104264342D02*
X147129523Y-103454819D01*
X147510476Y-103454819D02*
X148129523Y-103454819D01*
X148129523Y-103454819D02*
X147796190Y-103835771D01*
X147796190Y-103835771D02*
X147939047Y-103835771D01*
X147939047Y-103835771D02*
X148034285Y-103883390D01*
X148034285Y-103883390D02*
X148081904Y-103931009D01*
X148081904Y-103931009D02*
X148129523Y-104026247D01*
X148129523Y-104026247D02*
X148129523Y-104264342D01*
X148129523Y-104264342D02*
X148081904Y-104359580D01*
X148081904Y-104359580D02*
X148034285Y-104407200D01*
X148034285Y-104407200D02*
X147939047Y-104454819D01*
X147939047Y-104454819D02*
X147653333Y-104454819D01*
X147653333Y-104454819D02*
X147558095Y-104407200D01*
X147558095Y-104407200D02*
X147510476Y-104359580D01*
X124333095Y-95774819D02*
X124333095Y-96584342D01*
X124333095Y-96584342D02*
X124380714Y-96679580D01*
X124380714Y-96679580D02*
X124428333Y-96727200D01*
X124428333Y-96727200D02*
X124523571Y-96774819D01*
X124523571Y-96774819D02*
X124714047Y-96774819D01*
X124714047Y-96774819D02*
X124809285Y-96727200D01*
X124809285Y-96727200D02*
X124856904Y-96679580D01*
X124856904Y-96679580D02*
X124904523Y-96584342D01*
X124904523Y-96584342D02*
X124904523Y-95774819D01*
X125809285Y-96108152D02*
X125809285Y-96774819D01*
X125571190Y-95727200D02*
X125333095Y-96441485D01*
X125333095Y-96441485D02*
X125952142Y-96441485D01*
X94281666Y-56604819D02*
X94281666Y-57319104D01*
X94281666Y-57319104D02*
X94234047Y-57461961D01*
X94234047Y-57461961D02*
X94138809Y-57557200D01*
X94138809Y-57557200D02*
X93995952Y-57604819D01*
X93995952Y-57604819D02*
X93900714Y-57604819D01*
X95281666Y-57604819D02*
X94710238Y-57604819D01*
X94995952Y-57604819D02*
X94995952Y-56604819D01*
X94995952Y-56604819D02*
X94900714Y-56747676D01*
X94900714Y-56747676D02*
X94805476Y-56842914D01*
X94805476Y-56842914D02*
X94710238Y-56890533D01*
X94281666Y-69304819D02*
X94281666Y-70019104D01*
X94281666Y-70019104D02*
X94234047Y-70161961D01*
X94234047Y-70161961D02*
X94138809Y-70257200D01*
X94138809Y-70257200D02*
X93995952Y-70304819D01*
X93995952Y-70304819D02*
X93900714Y-70304819D01*
X95186428Y-69304819D02*
X94995952Y-69304819D01*
X94995952Y-69304819D02*
X94900714Y-69352438D01*
X94900714Y-69352438D02*
X94853095Y-69400057D01*
X94853095Y-69400057D02*
X94757857Y-69542914D01*
X94757857Y-69542914D02*
X94710238Y-69733390D01*
X94710238Y-69733390D02*
X94710238Y-70114342D01*
X94710238Y-70114342D02*
X94757857Y-70209580D01*
X94757857Y-70209580D02*
X94805476Y-70257200D01*
X94805476Y-70257200D02*
X94900714Y-70304819D01*
X94900714Y-70304819D02*
X95091190Y-70304819D01*
X95091190Y-70304819D02*
X95186428Y-70257200D01*
X95186428Y-70257200D02*
X95234047Y-70209580D01*
X95234047Y-70209580D02*
X95281666Y-70114342D01*
X95281666Y-70114342D02*
X95281666Y-69876247D01*
X95281666Y-69876247D02*
X95234047Y-69781009D01*
X95234047Y-69781009D02*
X95186428Y-69733390D01*
X95186428Y-69733390D02*
X95091190Y-69685771D01*
X95091190Y-69685771D02*
X94900714Y-69685771D01*
X94900714Y-69685771D02*
X94805476Y-69733390D01*
X94805476Y-69733390D02*
X94757857Y-69781009D01*
X94757857Y-69781009D02*
X94710238Y-69876247D01*
X165769819Y-81383094D02*
X164769819Y-81383094D01*
X164769819Y-81383094D02*
X164769819Y-81144999D01*
X164769819Y-81144999D02*
X164817438Y-81002142D01*
X164817438Y-81002142D02*
X164912676Y-80906904D01*
X164912676Y-80906904D02*
X165007914Y-80859285D01*
X165007914Y-80859285D02*
X165198390Y-80811666D01*
X165198390Y-80811666D02*
X165341247Y-80811666D01*
X165341247Y-80811666D02*
X165531723Y-80859285D01*
X165531723Y-80859285D02*
X165626961Y-80906904D01*
X165626961Y-80906904D02*
X165722200Y-81002142D01*
X165722200Y-81002142D02*
X165769819Y-81144999D01*
X165769819Y-81144999D02*
X165769819Y-81383094D01*
X165769819Y-79859285D02*
X165769819Y-80430713D01*
X165769819Y-80144999D02*
X164769819Y-80144999D01*
X164769819Y-80144999D02*
X164912676Y-80240237D01*
X164912676Y-80240237D02*
X165007914Y-80335475D01*
X165007914Y-80335475D02*
X165055533Y-80430713D01*
X151429819Y-113698333D02*
X152144104Y-113698333D01*
X152144104Y-113698333D02*
X152286961Y-113745952D01*
X152286961Y-113745952D02*
X152382200Y-113841190D01*
X152382200Y-113841190D02*
X152429819Y-113984047D01*
X152429819Y-113984047D02*
X152429819Y-114079285D01*
X151525057Y-113269761D02*
X151477438Y-113222142D01*
X151477438Y-113222142D02*
X151429819Y-113126904D01*
X151429819Y-113126904D02*
X151429819Y-112888809D01*
X151429819Y-112888809D02*
X151477438Y-112793571D01*
X151477438Y-112793571D02*
X151525057Y-112745952D01*
X151525057Y-112745952D02*
X151620295Y-112698333D01*
X151620295Y-112698333D02*
X151715533Y-112698333D01*
X151715533Y-112698333D02*
X151858390Y-112745952D01*
X151858390Y-112745952D02*
X152429819Y-113317380D01*
X152429819Y-113317380D02*
X152429819Y-112698333D01*
X99364580Y-66206666D02*
X99412200Y-66254285D01*
X99412200Y-66254285D02*
X99459819Y-66397142D01*
X99459819Y-66397142D02*
X99459819Y-66492380D01*
X99459819Y-66492380D02*
X99412200Y-66635237D01*
X99412200Y-66635237D02*
X99316961Y-66730475D01*
X99316961Y-66730475D02*
X99221723Y-66778094D01*
X99221723Y-66778094D02*
X99031247Y-66825713D01*
X99031247Y-66825713D02*
X98888390Y-66825713D01*
X98888390Y-66825713D02*
X98697914Y-66778094D01*
X98697914Y-66778094D02*
X98602676Y-66730475D01*
X98602676Y-66730475D02*
X98507438Y-66635237D01*
X98507438Y-66635237D02*
X98459819Y-66492380D01*
X98459819Y-66492380D02*
X98459819Y-66397142D01*
X98459819Y-66397142D02*
X98507438Y-66254285D01*
X98507438Y-66254285D02*
X98555057Y-66206666D01*
X98459819Y-65873332D02*
X98459819Y-65254285D01*
X98459819Y-65254285D02*
X98840771Y-65587618D01*
X98840771Y-65587618D02*
X98840771Y-65444761D01*
X98840771Y-65444761D02*
X98888390Y-65349523D01*
X98888390Y-65349523D02*
X98936009Y-65301904D01*
X98936009Y-65301904D02*
X99031247Y-65254285D01*
X99031247Y-65254285D02*
X99269342Y-65254285D01*
X99269342Y-65254285D02*
X99364580Y-65301904D01*
X99364580Y-65301904D02*
X99412200Y-65349523D01*
X99412200Y-65349523D02*
X99459819Y-65444761D01*
X99459819Y-65444761D02*
X99459819Y-65730475D01*
X99459819Y-65730475D02*
X99412200Y-65825713D01*
X99412200Y-65825713D02*
X99364580Y-65873332D01*
X143440209Y-84199028D02*
X143440209Y-84675219D01*
X143106876Y-83675219D02*
X143440209Y-84199028D01*
X143440209Y-84199028D02*
X143773542Y-83675219D01*
X144630685Y-84675219D02*
X144059257Y-84675219D01*
X144344971Y-84675219D02*
X144344971Y-83675219D01*
X144344971Y-83675219D02*
X144249733Y-83818076D01*
X144249733Y-83818076D02*
X144154495Y-83913314D01*
X144154495Y-83913314D02*
X144059257Y-83960933D01*
X113022142Y-90539819D02*
X112688809Y-90063628D01*
X112450714Y-90539819D02*
X112450714Y-89539819D01*
X112450714Y-89539819D02*
X112831666Y-89539819D01*
X112831666Y-89539819D02*
X112926904Y-89587438D01*
X112926904Y-89587438D02*
X112974523Y-89635057D01*
X112974523Y-89635057D02*
X113022142Y-89730295D01*
X113022142Y-89730295D02*
X113022142Y-89873152D01*
X113022142Y-89873152D02*
X112974523Y-89968390D01*
X112974523Y-89968390D02*
X112926904Y-90016009D01*
X112926904Y-90016009D02*
X112831666Y-90063628D01*
X112831666Y-90063628D02*
X112450714Y-90063628D01*
X113974523Y-90539819D02*
X113403095Y-90539819D01*
X113688809Y-90539819D02*
X113688809Y-89539819D01*
X113688809Y-89539819D02*
X113593571Y-89682676D01*
X113593571Y-89682676D02*
X113498333Y-89777914D01*
X113498333Y-89777914D02*
X113403095Y-89825533D01*
X114593571Y-89539819D02*
X114688809Y-89539819D01*
X114688809Y-89539819D02*
X114784047Y-89587438D01*
X114784047Y-89587438D02*
X114831666Y-89635057D01*
X114831666Y-89635057D02*
X114879285Y-89730295D01*
X114879285Y-89730295D02*
X114926904Y-89920771D01*
X114926904Y-89920771D02*
X114926904Y-90158866D01*
X114926904Y-90158866D02*
X114879285Y-90349342D01*
X114879285Y-90349342D02*
X114831666Y-90444580D01*
X114831666Y-90444580D02*
X114784047Y-90492200D01*
X114784047Y-90492200D02*
X114688809Y-90539819D01*
X114688809Y-90539819D02*
X114593571Y-90539819D01*
X114593571Y-90539819D02*
X114498333Y-90492200D01*
X114498333Y-90492200D02*
X114450714Y-90444580D01*
X114450714Y-90444580D02*
X114403095Y-90349342D01*
X114403095Y-90349342D02*
X114355476Y-90158866D01*
X114355476Y-90158866D02*
X114355476Y-89920771D01*
X114355476Y-89920771D02*
X114403095Y-89730295D01*
X114403095Y-89730295D02*
X114450714Y-89635057D01*
X114450714Y-89635057D02*
X114498333Y-89587438D01*
X114498333Y-89587438D02*
X114593571Y-89539819D01*
X168770467Y-58021200D02*
X168913324Y-58068819D01*
X168913324Y-58068819D02*
X169151419Y-58068819D01*
X169151419Y-58068819D02*
X169246657Y-58021200D01*
X169246657Y-58021200D02*
X169294276Y-57973580D01*
X169294276Y-57973580D02*
X169341895Y-57878342D01*
X169341895Y-57878342D02*
X169341895Y-57783104D01*
X169341895Y-57783104D02*
X169294276Y-57687866D01*
X169294276Y-57687866D02*
X169246657Y-57640247D01*
X169246657Y-57640247D02*
X169151419Y-57592628D01*
X169151419Y-57592628D02*
X168960943Y-57545009D01*
X168960943Y-57545009D02*
X168865705Y-57497390D01*
X168865705Y-57497390D02*
X168818086Y-57449771D01*
X168818086Y-57449771D02*
X168770467Y-57354533D01*
X168770467Y-57354533D02*
X168770467Y-57259295D01*
X168770467Y-57259295D02*
X168818086Y-57164057D01*
X168818086Y-57164057D02*
X168865705Y-57116438D01*
X168865705Y-57116438D02*
X168960943Y-57068819D01*
X168960943Y-57068819D02*
X169199038Y-57068819D01*
X169199038Y-57068819D02*
X169341895Y-57116438D01*
X169675229Y-57068819D02*
X169913324Y-58068819D01*
X169913324Y-58068819D02*
X170103800Y-57354533D01*
X170103800Y-57354533D02*
X170294276Y-58068819D01*
X170294276Y-58068819D02*
X170532372Y-57068819D01*
X171437133Y-58068819D02*
X170865705Y-58068819D01*
X171151419Y-58068819D02*
X171151419Y-57068819D01*
X171151419Y-57068819D02*
X171056181Y-57211676D01*
X171056181Y-57211676D02*
X170960943Y-57306914D01*
X170960943Y-57306914D02*
X170865705Y-57354533D01*
X140704819Y-63507857D02*
X140228628Y-63841190D01*
X140704819Y-64079285D02*
X139704819Y-64079285D01*
X139704819Y-64079285D02*
X139704819Y-63698333D01*
X139704819Y-63698333D02*
X139752438Y-63603095D01*
X139752438Y-63603095D02*
X139800057Y-63555476D01*
X139800057Y-63555476D02*
X139895295Y-63507857D01*
X139895295Y-63507857D02*
X140038152Y-63507857D01*
X140038152Y-63507857D02*
X140133390Y-63555476D01*
X140133390Y-63555476D02*
X140181009Y-63603095D01*
X140181009Y-63603095D02*
X140228628Y-63698333D01*
X140228628Y-63698333D02*
X140228628Y-64079285D01*
X139800057Y-63126904D02*
X139752438Y-63079285D01*
X139752438Y-63079285D02*
X139704819Y-62984047D01*
X139704819Y-62984047D02*
X139704819Y-62745952D01*
X139704819Y-62745952D02*
X139752438Y-62650714D01*
X139752438Y-62650714D02*
X139800057Y-62603095D01*
X139800057Y-62603095D02*
X139895295Y-62555476D01*
X139895295Y-62555476D02*
X139990533Y-62555476D01*
X139990533Y-62555476D02*
X140133390Y-62603095D01*
X140133390Y-62603095D02*
X140704819Y-63174523D01*
X140704819Y-63174523D02*
X140704819Y-62555476D01*
X139704819Y-62222142D02*
X139704819Y-61555476D01*
X139704819Y-61555476D02*
X140704819Y-61984047D01*
D11*
%TO.C,BZ1*%
X145175000Y-109220000D02*
G75*
G02*
X132975000Y-109220000I-6100000J0D01*
G01*
X132975000Y-109220000D02*
G75*
G02*
X145175000Y-109220000I6100000J0D01*
G01*
%TO.C,C1*%
X143870000Y-62153748D02*
X143870000Y-63576252D01*
X145690000Y-62153748D02*
X145690000Y-63576252D01*
%TO.C,C2*%
X136250000Y-93268748D02*
X136250000Y-94691252D01*
X138070000Y-93268748D02*
X138070000Y-94691252D01*
%TO.C,C4*%
X140695000Y-62153748D02*
X140695000Y-63576252D01*
X142515000Y-62153748D02*
X142515000Y-63576252D01*
%TO.C,C5*%
X141676800Y-90062164D02*
X141676800Y-90277836D01*
X142396800Y-90062164D02*
X142396800Y-90277836D01*
%TO.C,C6*%
X145436000Y-90062164D02*
X145436000Y-90277836D01*
X146156000Y-90062164D02*
X146156000Y-90277836D01*
%TO.C,C7*%
X96245000Y-61036252D02*
X96245000Y-59613748D01*
X98065000Y-61036252D02*
X98065000Y-59613748D01*
%TO.C,C8*%
X147045000Y-62153748D02*
X147045000Y-63576252D01*
X148865000Y-62153748D02*
X148865000Y-63576252D01*
%TO.C,C9*%
X150220000Y-62153748D02*
X150220000Y-63576252D01*
X152040000Y-62153748D02*
X152040000Y-63576252D01*
%TO.C,C10*%
X109580000Y-66598748D02*
X109580000Y-68021252D01*
X111400000Y-66598748D02*
X111400000Y-68021252D01*
%TO.C,C11*%
X113390000Y-66598748D02*
X113390000Y-68021252D01*
X115210000Y-66598748D02*
X115210000Y-68021252D01*
%TO.C,C12*%
X131805000Y-98348748D02*
X131805000Y-99771252D01*
X133625000Y-98348748D02*
X133625000Y-99771252D01*
%TO.C,C13*%
X155498748Y-103865000D02*
X156921252Y-103865000D01*
X155498748Y-105685000D02*
X156921252Y-105685000D01*
%TO.C,D2*%
X115915000Y-99965000D02*
X112015000Y-99965000D01*
X115915000Y-101965000D02*
X112015000Y-101965000D01*
X115915000Y-101965000D02*
X115915000Y-99965000D01*
%TO.C,J3*%
X157490000Y-99560000D02*
X157490000Y-98560000D01*
X157740000Y-89310000D02*
X157740000Y-101810000D01*
X157740000Y-101810000D02*
X159740000Y-101810000D01*
X159740000Y-89310000D02*
X157740000Y-89310000D01*
X163240000Y-101810000D02*
X171240000Y-101810000D01*
X171240000Y-88310000D02*
X171240000Y-89310000D01*
X171240000Y-89310000D02*
X163240000Y-89310000D01*
X171240000Y-101810000D02*
X171240000Y-102810000D01*
X171240000Y-102810000D02*
X171740000Y-102810000D01*
X171740000Y-88310000D02*
X171240000Y-88310000D01*
X171740000Y-102810000D02*
X171740000Y-88310000D01*
%TO.C,J5*%
X122495000Y-60265000D02*
X135315000Y-60265000D01*
X122495000Y-62865000D02*
X122495000Y-60265000D01*
X122495000Y-65465000D02*
X122495000Y-64135000D01*
X123825000Y-65465000D02*
X122495000Y-65465000D01*
X125095000Y-62865000D02*
X122495000Y-62865000D01*
X125095000Y-65465000D02*
X125095000Y-62865000D01*
X125095000Y-65465000D02*
X135315000Y-65465000D01*
X135315000Y-65465000D02*
X135315000Y-60265000D01*
%TO.C,Q1*%
X128905000Y-108295000D02*
X128255000Y-108295000D01*
X128905000Y-108295000D02*
X129555000Y-108295000D01*
X128905000Y-111415000D02*
X128255000Y-111415000D01*
X128905000Y-111415000D02*
X129555000Y-111415000D01*
X127742500Y-108345000D02*
X127502500Y-108015000D01*
X127982500Y-108015000D01*
X127742500Y-108345000D01*
G36*
X127742500Y-108345000D02*
G01*
X127502500Y-108015000D01*
X127982500Y-108015000D01*
X127742500Y-108345000D01*
G37*
%TO.C,Q2*%
X107950000Y-74005000D02*
X107300000Y-74005000D01*
X107950000Y-74005000D02*
X108600000Y-74005000D01*
X107950000Y-77125000D02*
X107300000Y-77125000D01*
X107950000Y-77125000D02*
X108600000Y-77125000D01*
X109352500Y-77405000D02*
X108872500Y-77405000D01*
X109112500Y-77075000D01*
X109352500Y-77405000D01*
G36*
X109352500Y-77405000D02*
G01*
X108872500Y-77405000D01*
X109112500Y-77075000D01*
X109352500Y-77405000D01*
G37*
%TO.C,Q3*%
X107950000Y-79720000D02*
X107300000Y-79720000D01*
X107950000Y-79720000D02*
X108600000Y-79720000D01*
X107950000Y-82840000D02*
X107300000Y-82840000D01*
X107950000Y-82840000D02*
X108600000Y-82840000D01*
X109352500Y-83120000D02*
X108872500Y-83120000D01*
X109112500Y-82790000D01*
X109352500Y-83120000D01*
G36*
X109352500Y-83120000D02*
G01*
X108872500Y-83120000D01*
X109112500Y-82790000D01*
X109352500Y-83120000D01*
G37*
%TO.C,Q4*%
X107950000Y-85435000D02*
X107300000Y-85435000D01*
X107950000Y-85435000D02*
X108600000Y-85435000D01*
X107950000Y-88555000D02*
X107300000Y-88555000D01*
X107950000Y-88555000D02*
X108600000Y-88555000D01*
X109352500Y-88835000D02*
X108872500Y-88835000D01*
X109112500Y-88505000D01*
X109352500Y-88835000D01*
G36*
X109352500Y-88835000D02*
G01*
X108872500Y-88835000D01*
X109112500Y-88505000D01*
X109352500Y-88835000D01*
G37*
%TO.C,Q5*%
X107950000Y-91150000D02*
X107300000Y-91150000D01*
X107950000Y-91150000D02*
X108600000Y-91150000D01*
X107950000Y-94270000D02*
X107300000Y-94270000D01*
X107950000Y-94270000D02*
X108600000Y-94270000D01*
X109352500Y-94550000D02*
X108872500Y-94550000D01*
X109112500Y-94220000D01*
X109352500Y-94550000D01*
G36*
X109352500Y-94550000D02*
G01*
X108872500Y-94550000D01*
X109112500Y-94220000D01*
X109352500Y-94550000D01*
G37*
%TO.C,Q6*%
X107950000Y-96865000D02*
X107300000Y-96865000D01*
X107950000Y-96865000D02*
X108600000Y-96865000D01*
X107950000Y-99985000D02*
X107300000Y-99985000D01*
X107950000Y-99985000D02*
X108600000Y-99985000D01*
X109352500Y-100265000D02*
X108872500Y-100265000D01*
X109112500Y-99935000D01*
X109352500Y-100265000D01*
G36*
X109352500Y-100265000D02*
G01*
X108872500Y-100265000D01*
X109112500Y-99935000D01*
X109352500Y-100265000D01*
G37*
%TO.C,Q7*%
X107950000Y-102580000D02*
X107300000Y-102580000D01*
X107950000Y-102580000D02*
X108600000Y-102580000D01*
X107950000Y-105700000D02*
X107300000Y-105700000D01*
X107950000Y-105700000D02*
X108600000Y-105700000D01*
X109352500Y-105980000D02*
X108872500Y-105980000D01*
X109112500Y-105650000D01*
X109352500Y-105980000D01*
G36*
X109352500Y-105980000D02*
G01*
X108872500Y-105980000D01*
X109112500Y-105650000D01*
X109352500Y-105980000D01*
G37*
%TO.C,R1*%
X133710000Y-86902936D02*
X133710000Y-88357064D01*
X135530000Y-86902936D02*
X135530000Y-88357064D01*
%TO.C,R2*%
X121827936Y-108945000D02*
X123282064Y-108945000D01*
X121827936Y-110765000D02*
X123282064Y-110765000D01*
%TO.C,R3*%
X160112064Y-75925000D02*
X158657936Y-75925000D01*
X160112064Y-77745000D02*
X158657936Y-77745000D01*
%TO.C,R4*%
X158657936Y-79735000D02*
X160112064Y-79735000D01*
X158657936Y-81555000D02*
X160112064Y-81555000D01*
%TO.C,R5*%
X152307936Y-96880000D02*
X153762064Y-96880000D01*
X152307936Y-98700000D02*
X153762064Y-98700000D01*
%TO.C,R6*%
X152307936Y-93070000D02*
X153762064Y-93070000D01*
X152307936Y-94890000D02*
X153762064Y-94890000D01*
%TO.C,R7*%
X152125000Y-86902936D02*
X152125000Y-88357064D01*
X153945000Y-86902936D02*
X153945000Y-88357064D01*
%TO.C,R8*%
X114392064Y-75925000D02*
X112937936Y-75925000D01*
X114392064Y-77745000D02*
X112937936Y-77745000D01*
%TO.C,R9*%
X114392064Y-81640000D02*
X112937936Y-81640000D01*
X114392064Y-83460000D02*
X112937936Y-83460000D01*
%TO.C,R11*%
X114392064Y-92435000D02*
X112937936Y-92435000D01*
X114392064Y-94255000D02*
X112937936Y-94255000D01*
%TO.C,R12*%
X114392064Y-96245000D02*
X112937936Y-96245000D01*
X114392064Y-98065000D02*
X112937936Y-98065000D01*
%TO.C,R13*%
X114392064Y-103865000D02*
X112937936Y-103865000D01*
X114392064Y-105685000D02*
X112937936Y-105685000D01*
%TO.C,R14*%
X100237936Y-71480000D02*
X101692064Y-71480000D01*
X100237936Y-73300000D02*
X101692064Y-73300000D01*
%TO.C,R15*%
X100237936Y-74020000D02*
X101692064Y-74020000D01*
X100237936Y-75840000D02*
X101692064Y-75840000D01*
%TO.C,R16*%
X100237936Y-79100000D02*
X101692064Y-79100000D01*
X100237936Y-80920000D02*
X101692064Y-80920000D01*
%TO.C,R17*%
X100237936Y-83545000D02*
X101692064Y-83545000D01*
X100237936Y-85365000D02*
X101692064Y-85365000D01*
%TO.C,R18*%
X100237936Y-86720000D02*
X101692064Y-86720000D01*
X100237936Y-88540000D02*
X101692064Y-88540000D01*
%TO.C,R19*%
X100237936Y-89895000D02*
X101692064Y-89895000D01*
X100237936Y-91715000D02*
X101692064Y-91715000D01*
%TO.C,R20*%
X100237936Y-93070000D02*
X101692064Y-93070000D01*
X100237936Y-94890000D02*
X101692064Y-94890000D01*
%TO.C,R21*%
X100237936Y-96245000D02*
X101692064Y-96245000D01*
X100237936Y-98065000D02*
X101692064Y-98065000D01*
%TO.C,R22*%
X100237936Y-99420000D02*
X101692064Y-99420000D01*
X100237936Y-101240000D02*
X101692064Y-101240000D01*
%TO.C,R23*%
X100237936Y-102595000D02*
X101692064Y-102595000D01*
X100237936Y-104415000D02*
X101692064Y-104415000D01*
%TO.C,R24*%
X100237936Y-105770000D02*
X101692064Y-105770000D01*
X100237936Y-107590000D02*
X101692064Y-107590000D01*
%TO.C,R25*%
X100237936Y-108945000D02*
X101692064Y-108945000D01*
X100237936Y-110765000D02*
X101692064Y-110765000D01*
%TO.C,R26*%
X100237936Y-112120000D02*
X101692064Y-112120000D01*
X100237936Y-113940000D02*
X101692064Y-113940000D01*
%TO.C,SW2*%
X122320000Y-71590000D02*
X122320000Y-70279000D01*
X122320000Y-74129000D02*
X122320000Y-73190000D01*
X122320000Y-76669000D02*
X122320000Y-75729000D01*
X122320000Y-79209000D02*
X122320000Y-78269000D01*
X122320000Y-81749000D02*
X122320000Y-80809000D01*
X122320000Y-84289000D02*
X122320000Y-83349000D01*
X122320000Y-86829000D02*
X122320000Y-85889000D01*
X122320000Y-89369000D02*
X122320000Y-88429000D01*
X122320000Y-92280000D02*
X122320000Y-90970000D01*
X123920000Y-71755000D02*
X123920000Y-73025000D01*
X123920000Y-73025000D02*
X127540000Y-73025000D01*
X123920000Y-74295000D02*
X123920000Y-75565000D01*
X123920000Y-75565000D02*
X127540000Y-75565000D01*
X123920000Y-76835000D02*
X123920000Y-78105000D01*
X123920000Y-78105000D02*
X127540000Y-78105000D01*
X123920000Y-79375000D02*
X123920000Y-80645000D01*
X123920000Y-80645000D02*
X127540000Y-80645000D01*
X123920000Y-81915000D02*
X123920000Y-83185000D01*
X123920000Y-83185000D02*
X127540000Y-83185000D01*
X123920000Y-84455000D02*
X123920000Y-85725000D01*
X123920000Y-85725000D02*
X127540000Y-85725000D01*
X123920000Y-86995000D02*
X123920000Y-88265000D01*
X123920000Y-88265000D02*
X127540000Y-88265000D01*
X123920000Y-89535000D02*
X123920000Y-90805000D01*
X123920000Y-90805000D02*
X127540000Y-90805000D01*
X126333333Y-73025000D02*
X126333333Y-71755000D01*
X126333333Y-75565000D02*
X126333333Y-74295000D01*
X126333333Y-78105000D02*
X126333333Y-76835000D01*
X126333333Y-80645000D02*
X126333333Y-79375000D01*
X126333333Y-83185000D02*
X126333333Y-81915000D01*
X126333333Y-85725000D02*
X126333333Y-84455000D01*
X126333333Y-88265000D02*
X126333333Y-86995000D01*
X126333333Y-90805000D02*
X126333333Y-89535000D01*
X127540000Y-71755000D02*
X123920000Y-71755000D01*
X127540000Y-71825000D02*
X126333333Y-71825000D01*
X127540000Y-71945000D02*
X126333333Y-71945000D01*
X127540000Y-72065000D02*
X126333333Y-72065000D01*
X127540000Y-72185000D02*
X126333333Y-72185000D01*
X127540000Y-72305000D02*
X126333333Y-72305000D01*
X127540000Y-72425000D02*
X126333333Y-72425000D01*
X127540000Y-72545000D02*
X126333333Y-72545000D01*
X127540000Y-72665000D02*
X126333333Y-72665000D01*
X127540000Y-72785000D02*
X126333333Y-72785000D01*
X127540000Y-72905000D02*
X126333333Y-72905000D01*
X127540000Y-73025000D02*
X127540000Y-71755000D01*
X127540000Y-74295000D02*
X123920000Y-74295000D01*
X127540000Y-74365000D02*
X126333333Y-74365000D01*
X127540000Y-74485000D02*
X126333333Y-74485000D01*
X127540000Y-74605000D02*
X126333333Y-74605000D01*
X127540000Y-74725000D02*
X126333333Y-74725000D01*
X127540000Y-74845000D02*
X126333333Y-74845000D01*
X127540000Y-74965000D02*
X126333333Y-74965000D01*
X127540000Y-75085000D02*
X126333333Y-75085000D01*
X127540000Y-75205000D02*
X126333333Y-75205000D01*
X127540000Y-75325000D02*
X126333333Y-75325000D01*
X127540000Y-75445000D02*
X126333333Y-75445000D01*
X127540000Y-75565000D02*
X127540000Y-74295000D01*
X127540000Y-76835000D02*
X123920000Y-76835000D01*
X127540000Y-76905000D02*
X126333333Y-76905000D01*
X127540000Y-77025000D02*
X126333333Y-77025000D01*
X127540000Y-77145000D02*
X126333333Y-77145000D01*
X127540000Y-77265000D02*
X126333333Y-77265000D01*
X127540000Y-77385000D02*
X126333333Y-77385000D01*
X127540000Y-77505000D02*
X126333333Y-77505000D01*
X127540000Y-77625000D02*
X126333333Y-77625000D01*
X127540000Y-77745000D02*
X126333333Y-77745000D01*
X127540000Y-77865000D02*
X126333333Y-77865000D01*
X127540000Y-77985000D02*
X126333333Y-77985000D01*
X127540000Y-78105000D02*
X127540000Y-76835000D01*
X127540000Y-79375000D02*
X123920000Y-79375000D01*
X127540000Y-79445000D02*
X126333333Y-79445000D01*
X127540000Y-79565000D02*
X126333333Y-79565000D01*
X127540000Y-79685000D02*
X126333333Y-79685000D01*
X127540000Y-79805000D02*
X126333333Y-79805000D01*
X127540000Y-79925000D02*
X126333333Y-79925000D01*
X127540000Y-80045000D02*
X126333333Y-80045000D01*
X127540000Y-80165000D02*
X126333333Y-80165000D01*
X127540000Y-80285000D02*
X126333333Y-80285000D01*
X127540000Y-80405000D02*
X126333333Y-80405000D01*
X127540000Y-80525000D02*
X126333333Y-80525000D01*
X127540000Y-80645000D02*
X127540000Y-79375000D01*
X127540000Y-81915000D02*
X123920000Y-81915000D01*
X127540000Y-81985000D02*
X126333333Y-81985000D01*
X127540000Y-82105000D02*
X126333333Y-82105000D01*
X127540000Y-82225000D02*
X126333333Y-82225000D01*
X127540000Y-82345000D02*
X126333333Y-82345000D01*
X127540000Y-82465000D02*
X126333333Y-82465000D01*
X127540000Y-82585000D02*
X126333333Y-82585000D01*
X127540000Y-82705000D02*
X126333333Y-82705000D01*
X127540000Y-82825000D02*
X126333333Y-82825000D01*
X127540000Y-82945000D02*
X126333333Y-82945000D01*
X127540000Y-83065000D02*
X126333333Y-83065000D01*
X127540000Y-83185000D02*
X127540000Y-81915000D01*
X127540000Y-84455000D02*
X123920000Y-84455000D01*
X127540000Y-84525000D02*
X126333333Y-84525000D01*
X127540000Y-84645000D02*
X126333333Y-84645000D01*
X127540000Y-84765000D02*
X126333333Y-84765000D01*
X127540000Y-84885000D02*
X126333333Y-84885000D01*
X127540000Y-85005000D02*
X126333333Y-85005000D01*
X127540000Y-85125000D02*
X126333333Y-85125000D01*
X127540000Y-85245000D02*
X126333333Y-85245000D01*
X127540000Y-85365000D02*
X126333333Y-85365000D01*
X127540000Y-85485000D02*
X126333333Y-85485000D01*
X127540000Y-85605000D02*
X126333333Y-85605000D01*
X127540000Y-85725000D02*
X127540000Y-84455000D01*
X127540000Y-86995000D02*
X123920000Y-86995000D01*
X127540000Y-87065000D02*
X126333333Y-87065000D01*
X127540000Y-87185000D02*
X126333333Y-87185000D01*
X127540000Y-87305000D02*
X126333333Y-87305000D01*
X127540000Y-87425000D02*
X126333333Y-87425000D01*
X127540000Y-87545000D02*
X126333333Y-87545000D01*
X127540000Y-87665000D02*
X126333333Y-87665000D01*
X127540000Y-87785000D02*
X126333333Y-87785000D01*
X127540000Y-87905000D02*
X126333333Y-87905000D01*
X127540000Y-88025000D02*
X126333333Y-88025000D01*
X127540000Y-88145000D02*
X126333333Y-88145000D01*
X127540000Y-88265000D02*
X127540000Y-86995000D01*
X127540000Y-89535000D02*
X123920000Y-89535000D01*
X127540000Y-89605000D02*
X126333333Y-89605000D01*
X127540000Y-89725000D02*
X126333333Y-89725000D01*
X127540000Y-89845000D02*
X126333333Y-89845000D01*
X127540000Y-89965000D02*
X126333333Y-89965000D01*
X127540000Y-90085000D02*
X126333333Y-90085000D01*
X127540000Y-90205000D02*
X126333333Y-90205000D01*
X127540000Y-90325000D02*
X126333333Y-90325000D01*
X127540000Y-90445000D02*
X126333333Y-90445000D01*
X127540000Y-90565000D02*
X126333333Y-90565000D01*
X127540000Y-90685000D02*
X126333333Y-90685000D01*
X127540000Y-90805000D02*
X127540000Y-89535000D01*
X129140000Y-70279000D02*
X122320000Y-70279000D01*
X129140000Y-71590000D02*
X129140000Y-70279000D01*
X129140000Y-74130000D02*
X129140000Y-73190000D01*
X129140000Y-76670000D02*
X129140000Y-75730000D01*
X129140000Y-79210000D02*
X129140000Y-78270000D01*
X129140000Y-81750000D02*
X129140000Y-80810000D01*
X129140000Y-84290000D02*
X129140000Y-83350000D01*
X129140000Y-86830000D02*
X129140000Y-85890000D01*
X129140000Y-89370000D02*
X129140000Y-88430000D01*
X129140000Y-92280000D02*
X122320000Y-92280000D01*
X129140000Y-92280000D02*
X129140000Y-90970000D01*
X129380000Y-92520000D02*
X127997000Y-92520000D01*
X129380000Y-92520000D02*
X129380000Y-91137000D01*
%TO.C,U1*%
X100730000Y-60955000D02*
X101990000Y-60955000D01*
X100730000Y-64715000D02*
X100730000Y-60955000D01*
X107550000Y-60955000D02*
X106290000Y-60955000D01*
X107550000Y-64715000D02*
X107550000Y-60955000D01*
X100830000Y-65995000D02*
X100500000Y-66235000D01*
X100500000Y-65755000D01*
X100830000Y-65995000D01*
G36*
X100830000Y-65995000D02*
G01*
X100500000Y-66235000D01*
X100500000Y-65755000D01*
X100830000Y-65995000D01*
G37*
%TO.C,U2*%
X140305000Y-70455000D02*
X141255000Y-70455000D01*
X140305000Y-71405000D02*
X140305000Y-70455000D01*
X140305000Y-79725000D02*
X140305000Y-80675000D01*
X140305000Y-80675000D02*
X141255000Y-80675000D01*
X141255000Y-80675000D02*
X141255000Y-82015000D01*
X150525000Y-70455000D02*
X149575000Y-70455000D01*
X150525000Y-71405000D02*
X150525000Y-70455000D01*
X150525000Y-79725000D02*
X150525000Y-80675000D01*
X150525000Y-80675000D02*
X149575000Y-80675000D01*
%TO.C,U3*%
X147320000Y-100040000D02*
X146520000Y-100040000D01*
X147320000Y-100040000D02*
X148120000Y-100040000D01*
X147320000Y-103160000D02*
X146520000Y-103160000D01*
X147320000Y-103160000D02*
X148120000Y-103160000D01*
X148860000Y-103440000D02*
X148380000Y-103440000D01*
X148620000Y-103110000D01*
X148860000Y-103440000D01*
G36*
X148860000Y-103440000D02*
G01*
X148380000Y-103440000D01*
X148620000Y-103110000D01*
X148860000Y-103440000D01*
G37*
%TO.C,U4*%
X125095000Y-97165000D02*
X123145000Y-97165000D01*
X125095000Y-97165000D02*
X127045000Y-97165000D01*
X125095000Y-106035000D02*
X123145000Y-106035000D01*
X125095000Y-106035000D02*
X127045000Y-106035000D01*
X122395000Y-97230000D02*
X122155000Y-96900000D01*
X122635000Y-96900000D01*
X122395000Y-97230000D01*
G36*
X122395000Y-97230000D02*
G01*
X122155000Y-96900000D01*
X122635000Y-96900000D01*
X122395000Y-97230000D01*
G37*
%TO.C,J1*%
X81975000Y-58040000D02*
X81975000Y-58800000D01*
X81975000Y-58800000D02*
X87975000Y-58800000D01*
X81975000Y-60580000D02*
X81975000Y-61340000D01*
X81975000Y-61340000D02*
X87975000Y-61340000D01*
X81975000Y-63120000D02*
X81975000Y-63880000D01*
X81975000Y-63880000D02*
X87975000Y-63880000D01*
X81975000Y-65660000D02*
X81975000Y-66420000D01*
X81975000Y-66420000D02*
X87975000Y-66420000D01*
X87975000Y-57090000D02*
X90635000Y-57090000D01*
X87975000Y-58040000D02*
X81975000Y-58040000D01*
X87975000Y-58100000D02*
X81975000Y-58100000D01*
X87975000Y-58220000D02*
X81975000Y-58220000D01*
X87975000Y-58340000D02*
X81975000Y-58340000D01*
X87975000Y-58460000D02*
X81975000Y-58460000D01*
X87975000Y-58580000D02*
X81975000Y-58580000D01*
X87975000Y-58700000D02*
X81975000Y-58700000D01*
X87975000Y-60580000D02*
X81975000Y-60580000D01*
X87975000Y-63120000D02*
X81975000Y-63120000D01*
X87975000Y-65660000D02*
X81975000Y-65660000D01*
X87975000Y-67370000D02*
X87975000Y-57090000D01*
X90635000Y-57090000D02*
X90635000Y-67370000D01*
X90635000Y-59690000D02*
X87975000Y-59690000D01*
X90635000Y-62230000D02*
X87975000Y-62230000D01*
X90635000Y-64770000D02*
X87975000Y-64770000D01*
X90635000Y-67370000D02*
X87975000Y-67370000D01*
X90965000Y-58040000D02*
X90635000Y-58040000D01*
X90965000Y-58800000D02*
X90635000Y-58800000D01*
X91032071Y-60580000D02*
X90635000Y-60580000D01*
X91032071Y-61340000D02*
X90635000Y-61340000D01*
X91032071Y-63120000D02*
X90635000Y-63120000D01*
X91032071Y-63880000D02*
X90635000Y-63880000D01*
X91032071Y-65660000D02*
X90635000Y-65660000D01*
X91032071Y-66420000D02*
X90635000Y-66420000D01*
X93345000Y-57150000D02*
X92075000Y-57150000D01*
X93345000Y-58420000D02*
X93345000Y-57150000D01*
%TO.C,J6*%
X81848000Y-72010000D02*
X81848000Y-72770000D01*
X81848000Y-72770000D02*
X87848000Y-72770000D01*
X81848000Y-74550000D02*
X81848000Y-75310000D01*
X81848000Y-75310000D02*
X87848000Y-75310000D01*
X81848000Y-77090000D02*
X81848000Y-77850000D01*
X81848000Y-77850000D02*
X87848000Y-77850000D01*
X81848000Y-79630000D02*
X81848000Y-80390000D01*
X81848000Y-80390000D02*
X87848000Y-80390000D01*
X81848000Y-82170000D02*
X81848000Y-82930000D01*
X81848000Y-82930000D02*
X87848000Y-82930000D01*
X81848000Y-84710000D02*
X81848000Y-85470000D01*
X81848000Y-85470000D02*
X87848000Y-85470000D01*
X81848000Y-87250000D02*
X81848000Y-88010000D01*
X81848000Y-88010000D02*
X87848000Y-88010000D01*
X81848000Y-89790000D02*
X81848000Y-90550000D01*
X81848000Y-90550000D02*
X87848000Y-90550000D01*
X81848000Y-92330000D02*
X81848000Y-93090000D01*
X81848000Y-93090000D02*
X87848000Y-93090000D01*
X81848000Y-94870000D02*
X81848000Y-95630000D01*
X81848000Y-95630000D02*
X87848000Y-95630000D01*
X81848000Y-97410000D02*
X81848000Y-98170000D01*
X81848000Y-98170000D02*
X87848000Y-98170000D01*
X81848000Y-99950000D02*
X81848000Y-100710000D01*
X81848000Y-100710000D02*
X87848000Y-100710000D01*
X81848000Y-102490000D02*
X81848000Y-103250000D01*
X81848000Y-103250000D02*
X87848000Y-103250000D01*
X81848000Y-105030000D02*
X81848000Y-105790000D01*
X81848000Y-105790000D02*
X87848000Y-105790000D01*
X81848000Y-107570000D02*
X81848000Y-108330000D01*
X81848000Y-108330000D02*
X87848000Y-108330000D01*
X81848000Y-110110000D02*
X81848000Y-110870000D01*
X81848000Y-110870000D02*
X87848000Y-110870000D01*
X81848000Y-112650000D02*
X81848000Y-113410000D01*
X81848000Y-113410000D02*
X87848000Y-113410000D01*
X87848000Y-71060000D02*
X90508000Y-71060000D01*
X87848000Y-72010000D02*
X81848000Y-72010000D01*
X87848000Y-72070000D02*
X81848000Y-72070000D01*
X87848000Y-72190000D02*
X81848000Y-72190000D01*
X87848000Y-72310000D02*
X81848000Y-72310000D01*
X87848000Y-72430000D02*
X81848000Y-72430000D01*
X87848000Y-72550000D02*
X81848000Y-72550000D01*
X87848000Y-72670000D02*
X81848000Y-72670000D01*
X87848000Y-74550000D02*
X81848000Y-74550000D01*
X87848000Y-77090000D02*
X81848000Y-77090000D01*
X87848000Y-79630000D02*
X81848000Y-79630000D01*
X87848000Y-82170000D02*
X81848000Y-82170000D01*
X87848000Y-84710000D02*
X81848000Y-84710000D01*
X87848000Y-87250000D02*
X81848000Y-87250000D01*
X87848000Y-89790000D02*
X81848000Y-89790000D01*
X87848000Y-92330000D02*
X81848000Y-92330000D01*
X87848000Y-94870000D02*
X81848000Y-94870000D01*
X87848000Y-97410000D02*
X81848000Y-97410000D01*
X87848000Y-99950000D02*
X81848000Y-99950000D01*
X87848000Y-102490000D02*
X81848000Y-102490000D01*
X87848000Y-105030000D02*
X81848000Y-105030000D01*
X87848000Y-107570000D02*
X81848000Y-107570000D01*
X87848000Y-110110000D02*
X81848000Y-110110000D01*
X87848000Y-112650000D02*
X81848000Y-112650000D01*
X87848000Y-114360000D02*
X87848000Y-71060000D01*
X90508000Y-71060000D02*
X90508000Y-114360000D01*
X90508000Y-73660000D02*
X87848000Y-73660000D01*
X90508000Y-76200000D02*
X87848000Y-76200000D01*
X90508000Y-78740000D02*
X87848000Y-78740000D01*
X90508000Y-81280000D02*
X87848000Y-81280000D01*
X90508000Y-83820000D02*
X87848000Y-83820000D01*
X90508000Y-86360000D02*
X87848000Y-86360000D01*
X90508000Y-88900000D02*
X87848000Y-88900000D01*
X90508000Y-91440000D02*
X87848000Y-91440000D01*
X90508000Y-93980000D02*
X87848000Y-93980000D01*
X90508000Y-96520000D02*
X87848000Y-96520000D01*
X90508000Y-99060000D02*
X87848000Y-99060000D01*
X90508000Y-101600000D02*
X87848000Y-101600000D01*
X90508000Y-104140000D02*
X87848000Y-104140000D01*
X90508000Y-106680000D02*
X87848000Y-106680000D01*
X90508000Y-109220000D02*
X87848000Y-109220000D01*
X90508000Y-111760000D02*
X87848000Y-111760000D01*
X90508000Y-114360000D02*
X87848000Y-114360000D01*
X90905071Y-72010000D02*
X90508000Y-72010000D01*
X90905071Y-72770000D02*
X90508000Y-72770000D01*
X90905071Y-74550000D02*
X90508000Y-74550000D01*
X90905071Y-75310000D02*
X90508000Y-75310000D01*
X90905071Y-77090000D02*
X90508000Y-77090000D01*
X90905071Y-77850000D02*
X90508000Y-77850000D01*
X90905071Y-79630000D02*
X90508000Y-79630000D01*
X90905071Y-80390000D02*
X90508000Y-80390000D01*
X90905071Y-82170000D02*
X90508000Y-82170000D01*
X90905071Y-82930000D02*
X90508000Y-82930000D01*
X90905071Y-84710000D02*
X90508000Y-84710000D01*
X90905071Y-85470000D02*
X90508000Y-85470000D01*
X90905071Y-87250000D02*
X90508000Y-87250000D01*
X90905071Y-88010000D02*
X90508000Y-88010000D01*
X90905071Y-89790000D02*
X90508000Y-89790000D01*
X90905071Y-90550000D02*
X90508000Y-90550000D01*
X90905071Y-92330000D02*
X90508000Y-92330000D01*
X90905071Y-93090000D02*
X90508000Y-93090000D01*
X90905071Y-94870000D02*
X90508000Y-94870000D01*
X90905071Y-95630000D02*
X90508000Y-95630000D01*
X90905071Y-97410000D02*
X90508000Y-97410000D01*
X90905071Y-98170000D02*
X90508000Y-98170000D01*
X90905071Y-99950000D02*
X90508000Y-99950000D01*
X90905071Y-100710000D02*
X90508000Y-100710000D01*
X90905071Y-102490000D02*
X90508000Y-102490000D01*
X90905071Y-103250000D02*
X90508000Y-103250000D01*
X90905071Y-105030000D02*
X90508000Y-105030000D01*
X90905071Y-105790000D02*
X90508000Y-105790000D01*
X90905071Y-107570000D02*
X90508000Y-107570000D01*
X90905071Y-108330000D02*
X90508000Y-108330000D01*
X90905071Y-110110000D02*
X90508000Y-110110000D01*
X90905071Y-110870000D02*
X90508000Y-110870000D01*
X90905071Y-112650000D02*
X90508000Y-112650000D01*
X90905071Y-113410000D02*
X90508000Y-113410000D01*
X93378000Y-72010000D02*
X92990929Y-72010000D01*
X93378000Y-72770000D02*
X92990929Y-72770000D01*
X93445071Y-74550000D02*
X92990929Y-74550000D01*
X93445071Y-75310000D02*
X92990929Y-75310000D01*
X93445071Y-77090000D02*
X92990929Y-77090000D01*
X93445071Y-77850000D02*
X92990929Y-77850000D01*
X93445071Y-79630000D02*
X92990929Y-79630000D01*
X93445071Y-80390000D02*
X92990929Y-80390000D01*
X93445071Y-82170000D02*
X92990929Y-82170000D01*
X93445071Y-82930000D02*
X92990929Y-82930000D01*
X93445071Y-84710000D02*
X92990929Y-84710000D01*
X93445071Y-85470000D02*
X92990929Y-85470000D01*
X93445071Y-87250000D02*
X92990929Y-87250000D01*
X93445071Y-88010000D02*
X92990929Y-88010000D01*
X93445071Y-89790000D02*
X92990929Y-89790000D01*
X93445071Y-90550000D02*
X92990929Y-90550000D01*
X93445071Y-92330000D02*
X92990929Y-92330000D01*
X93445071Y-93090000D02*
X92990929Y-93090000D01*
X93445071Y-94870000D02*
X92990929Y-94870000D01*
X93445071Y-95630000D02*
X92990929Y-95630000D01*
X93445071Y-97410000D02*
X92990929Y-97410000D01*
X93445071Y-98170000D02*
X92990929Y-98170000D01*
X93445071Y-99950000D02*
X92990929Y-99950000D01*
X93445071Y-100710000D02*
X92990929Y-100710000D01*
X93445071Y-102490000D02*
X92990929Y-102490000D01*
X93445071Y-103250000D02*
X92990929Y-103250000D01*
X93445071Y-105030000D02*
X92990929Y-105030000D01*
X93445071Y-105790000D02*
X92990929Y-105790000D01*
X93445071Y-107570000D02*
X92990929Y-107570000D01*
X93445071Y-108330000D02*
X92990929Y-108330000D01*
X93445071Y-110110000D02*
X92990929Y-110110000D01*
X93445071Y-110870000D02*
X92990929Y-110870000D01*
X93445071Y-112650000D02*
X92990929Y-112650000D01*
X93445071Y-113410000D02*
X92990929Y-113410000D01*
X95758000Y-71120000D02*
X94488000Y-71120000D01*
X95758000Y-72390000D02*
X95758000Y-71120000D01*
%TO.C,D1*%
X167039000Y-82205000D02*
X167195000Y-82205000D01*
X169355000Y-82205000D02*
X169511000Y-82205000D01*
X167039485Y-82204999D02*
G75*
G02*
X167196392Y-78972666I1235515J1559999D01*
G01*
X167195001Y-81685960D02*
G75*
G02*
X167195164Y-79603871I1079999J1040960D01*
G01*
X169353608Y-78972666D02*
G75*
G02*
X169510515Y-82204999I-1078608J-1672334D01*
G01*
X169354836Y-79603871D02*
G75*
G02*
X169354999Y-81685960I-1079836J-1041129D01*
G01*
%TO.C,J2*%
X152975000Y-114695000D02*
X152975000Y-113365000D01*
X154305000Y-114695000D02*
X152975000Y-114695000D01*
X155575000Y-112035000D02*
X163255000Y-112035000D01*
X155575000Y-114695000D02*
X155575000Y-112035000D01*
X155575000Y-114695000D02*
X163255000Y-114695000D01*
X163255000Y-114695000D02*
X163255000Y-112035000D01*
%TO.C,C3*%
X96245000Y-65328748D02*
X96245000Y-66751252D01*
X98065000Y-65328748D02*
X98065000Y-66751252D01*
%TO.C,Y1*%
X140866400Y-85220400D02*
X140866400Y-88820400D01*
X140866400Y-88820400D02*
X146616400Y-88820400D01*
X146616400Y-85220400D02*
X140866400Y-85220400D01*
%TO.C,R10*%
X114392064Y-87355000D02*
X112937936Y-87355000D01*
X114392064Y-89175000D02*
X112937936Y-89175000D01*
%TO.C,SW1*%
X168773800Y-58614000D02*
X170103800Y-58614000D01*
X168773800Y-59944000D02*
X168773800Y-58614000D01*
X168773800Y-61214000D02*
X168773800Y-71434000D01*
X168773800Y-61214000D02*
X171433800Y-61214000D01*
X168773800Y-71434000D02*
X171433800Y-71434000D01*
X171433800Y-61214000D02*
X171433800Y-71434000D01*
%TO.C,R27*%
X137520000Y-62137936D02*
X137520000Y-63592064D01*
X139340000Y-62137936D02*
X139340000Y-63592064D01*
%TD*%
%LPC*%
D12*
%TO.C,BZ1*%
X142325000Y-109220000D03*
D13*
X135825000Y-109220000D03*
%TD*%
D14*
%TO.C,C1*%
X144780000Y-61390000D03*
X144780000Y-64340000D03*
%TD*%
%TO.C,C2*%
X137160000Y-92505000D03*
X137160000Y-95455000D03*
%TD*%
%TO.C,C4*%
X141605000Y-61390000D03*
X141605000Y-64340000D03*
%TD*%
D15*
%TO.C,C5*%
X142036800Y-89690000D03*
X142036800Y-90650000D03*
%TD*%
%TO.C,C6*%
X145796000Y-89690000D03*
X145796000Y-90650000D03*
%TD*%
D16*
%TO.C,C7*%
X97155000Y-61800000D03*
X97155000Y-58850000D03*
%TD*%
D14*
%TO.C,C8*%
X147955000Y-61390000D03*
X147955000Y-64340000D03*
%TD*%
%TO.C,C9*%
X151130000Y-61390000D03*
X151130000Y-64340000D03*
%TD*%
%TO.C,C10*%
X110490000Y-65835000D03*
X110490000Y-68785000D03*
%TD*%
%TO.C,C11*%
X114300000Y-65835000D03*
X114300000Y-68785000D03*
%TD*%
%TO.C,C12*%
X132715000Y-97585000D03*
X132715000Y-100535000D03*
%TD*%
D17*
%TO.C,C13*%
X154735000Y-104775000D03*
X157685000Y-104775000D03*
%TD*%
D18*
%TO.C,D2*%
X115315000Y-100965000D03*
X112015000Y-100965000D03*
%TD*%
D19*
%TO.C,J3*%
X158750000Y-99060000D03*
D20*
X158750000Y-96560000D03*
X158750000Y-94560000D03*
X158750000Y-92060000D03*
D21*
X161460000Y-102130000D03*
X161460000Y-88990000D03*
%TD*%
D22*
%TO.C,J5*%
X123825000Y-64135000D03*
D23*
X123825000Y-61595000D03*
X126365000Y-64135000D03*
X126365000Y-61595000D03*
X128905000Y-64135000D03*
X128905000Y-61595000D03*
X131445000Y-64135000D03*
X131445000Y-61595000D03*
X133985000Y-64135000D03*
X133985000Y-61595000D03*
%TD*%
D24*
%TO.C,Q1*%
X127967500Y-108905000D03*
X127967500Y-110805000D03*
X129842500Y-109855000D03*
%TD*%
D25*
%TO.C,Q2*%
X108887500Y-76515000D03*
X108887500Y-74615000D03*
X107012500Y-75565000D03*
%TD*%
%TO.C,Q3*%
X108887500Y-82230000D03*
X108887500Y-80330000D03*
X107012500Y-81280000D03*
%TD*%
%TO.C,Q4*%
X108887500Y-87945000D03*
X108887500Y-86045000D03*
X107012500Y-86995000D03*
%TD*%
%TO.C,Q5*%
X108887500Y-93660000D03*
X108887500Y-91760000D03*
X107012500Y-92710000D03*
%TD*%
%TO.C,Q6*%
X108887500Y-99375000D03*
X108887500Y-97475000D03*
X107012500Y-98425000D03*
%TD*%
%TO.C,Q7*%
X108887500Y-105090000D03*
X108887500Y-103190000D03*
X107012500Y-104140000D03*
%TD*%
D26*
%TO.C,R1*%
X134620000Y-86167500D03*
X134620000Y-89092500D03*
%TD*%
D27*
%TO.C,R2*%
X121092500Y-109855000D03*
X124017500Y-109855000D03*
%TD*%
D28*
%TO.C,R3*%
X160847500Y-76835000D03*
X157922500Y-76835000D03*
%TD*%
D27*
%TO.C,R4*%
X157922500Y-80645000D03*
X160847500Y-80645000D03*
%TD*%
%TO.C,R5*%
X151572500Y-97790000D03*
X154497500Y-97790000D03*
%TD*%
%TO.C,R6*%
X151572500Y-93980000D03*
X154497500Y-93980000D03*
%TD*%
D26*
%TO.C,R7*%
X153035000Y-86167500D03*
X153035000Y-89092500D03*
%TD*%
D28*
%TO.C,R8*%
X115127500Y-76835000D03*
X112202500Y-76835000D03*
%TD*%
%TO.C,R9*%
X115127500Y-82550000D03*
X112202500Y-82550000D03*
%TD*%
%TO.C,R11*%
X115127500Y-93345000D03*
X112202500Y-93345000D03*
%TD*%
%TO.C,R12*%
X115127500Y-97155000D03*
X112202500Y-97155000D03*
%TD*%
%TO.C,R13*%
X115127500Y-104775000D03*
X112202500Y-104775000D03*
%TD*%
D27*
%TO.C,R14*%
X99502500Y-72390000D03*
X102427500Y-72390000D03*
%TD*%
%TO.C,R15*%
X99502500Y-74930000D03*
X102427500Y-74930000D03*
%TD*%
%TO.C,R16*%
X99502500Y-80010000D03*
X102427500Y-80010000D03*
%TD*%
%TO.C,R17*%
X99502500Y-84455000D03*
X102427500Y-84455000D03*
%TD*%
%TO.C,R18*%
X99502500Y-87630000D03*
X102427500Y-87630000D03*
%TD*%
%TO.C,R19*%
X99502500Y-90805000D03*
X102427500Y-90805000D03*
%TD*%
%TO.C,R20*%
X99502500Y-93980000D03*
X102427500Y-93980000D03*
%TD*%
%TO.C,R21*%
X99502500Y-97155000D03*
X102427500Y-97155000D03*
%TD*%
%TO.C,R22*%
X99502500Y-100330000D03*
X102427500Y-100330000D03*
%TD*%
%TO.C,R23*%
X99502500Y-103505000D03*
X102427500Y-103505000D03*
%TD*%
%TO.C,R24*%
X99502500Y-106680000D03*
X102427500Y-106680000D03*
%TD*%
%TO.C,R25*%
X99502500Y-109855000D03*
X102427500Y-109855000D03*
%TD*%
%TO.C,R26*%
X99502500Y-113030000D03*
X102427500Y-113030000D03*
%TD*%
D29*
%TO.C,SW2*%
X130035000Y-90170000D03*
X130035000Y-87630000D03*
X130035000Y-85090000D03*
X130035000Y-82550000D03*
X130035000Y-80010000D03*
X130035000Y-77470000D03*
X130035000Y-74930000D03*
X130035000Y-72390000D03*
X121425000Y-72390000D03*
X121425000Y-74930000D03*
X121425000Y-77470000D03*
X121425000Y-80010000D03*
X121425000Y-82550000D03*
X121425000Y-85090000D03*
X121425000Y-87630000D03*
X121425000Y-90170000D03*
%TD*%
D30*
%TO.C,U1*%
X101840000Y-66015000D03*
X104140000Y-66015000D03*
D31*
X104140000Y-59715000D03*
D30*
X106440000Y-66015000D03*
%TD*%
D32*
%TO.C,U2*%
X141665000Y-81240000D03*
X142165000Y-81240000D03*
X142665000Y-81240000D03*
X143165000Y-81240000D03*
X143665000Y-81240000D03*
X144165000Y-81240000D03*
X144665000Y-81240000D03*
X145165000Y-81240000D03*
X145665000Y-81240000D03*
X146165000Y-81240000D03*
X146665000Y-81240000D03*
X147165000Y-81240000D03*
X147665000Y-81240000D03*
X148165000Y-81240000D03*
X148665000Y-81240000D03*
X149165000Y-81240000D03*
D33*
X151090000Y-79315000D03*
X151090000Y-78815000D03*
X151090000Y-78315000D03*
X151090000Y-77815000D03*
X151090000Y-77315000D03*
X151090000Y-76815000D03*
X151090000Y-76315000D03*
X151090000Y-75815000D03*
X151090000Y-75315000D03*
X151090000Y-74815000D03*
X151090000Y-74315000D03*
X151090000Y-73815000D03*
X151090000Y-73315000D03*
X151090000Y-72815000D03*
X151090000Y-72315000D03*
X151090000Y-71815000D03*
D32*
X149165000Y-69890000D03*
X148665000Y-69890000D03*
X148165000Y-69890000D03*
X147665000Y-69890000D03*
X147165000Y-69890000D03*
X146665000Y-69890000D03*
X146165000Y-69890000D03*
X145665000Y-69890000D03*
X145165000Y-69890000D03*
X144665000Y-69890000D03*
X144165000Y-69890000D03*
X143665000Y-69890000D03*
X143165000Y-69890000D03*
X142665000Y-69890000D03*
X142165000Y-69890000D03*
X141665000Y-69890000D03*
D33*
X139740000Y-71815000D03*
X139740000Y-72315000D03*
X139740000Y-72815000D03*
X139740000Y-73315000D03*
X139740000Y-73815000D03*
X139740000Y-74315000D03*
X139740000Y-74815000D03*
X139740000Y-75315000D03*
X139740000Y-75815000D03*
X139740000Y-76315000D03*
X139740000Y-76815000D03*
X139740000Y-77315000D03*
X139740000Y-77815000D03*
X139740000Y-78315000D03*
X139740000Y-78815000D03*
X139740000Y-79315000D03*
%TD*%
D34*
%TO.C,U3*%
X148457500Y-102550000D03*
X148457500Y-101600000D03*
X148457500Y-100650000D03*
X146182500Y-100650000D03*
X146182500Y-102550000D03*
%TD*%
D35*
%TO.C,U4*%
X122620000Y-97790000D03*
X122620000Y-99060000D03*
X122620000Y-100330000D03*
X122620000Y-101600000D03*
X122620000Y-102870000D03*
X122620000Y-104140000D03*
X122620000Y-105410000D03*
X127570000Y-105410000D03*
X127570000Y-104140000D03*
X127570000Y-102870000D03*
X127570000Y-101600000D03*
X127570000Y-100330000D03*
X127570000Y-99060000D03*
X127570000Y-97790000D03*
%TD*%
D36*
%TO.C,J1*%
X92075000Y-58420000D03*
D23*
X92075000Y-60960000D03*
X92075000Y-63500000D03*
X92075000Y-66040000D03*
%TD*%
D36*
%TO.C,J6*%
X91948000Y-72390000D03*
D37*
X94488000Y-72390000D03*
D23*
X91948000Y-74930000D03*
X94488000Y-74930000D03*
X91948000Y-77470000D03*
X94488000Y-77470000D03*
X91948000Y-80010000D03*
X94488000Y-80010000D03*
X91948000Y-82550000D03*
X94488000Y-82550000D03*
X91948000Y-85090000D03*
X94488000Y-85090000D03*
X91948000Y-87630000D03*
X94488000Y-87630000D03*
X91948000Y-90170000D03*
X94488000Y-90170000D03*
X91948000Y-92710000D03*
X94488000Y-92710000D03*
X91948000Y-95250000D03*
X94488000Y-95250000D03*
X91948000Y-97790000D03*
X94488000Y-97790000D03*
X91948000Y-100330000D03*
X94488000Y-100330000D03*
X91948000Y-102870000D03*
X94488000Y-102870000D03*
X91948000Y-105410000D03*
X94488000Y-105410000D03*
X91948000Y-107950000D03*
X94488000Y-107950000D03*
X91948000Y-110490000D03*
X94488000Y-110490000D03*
X91948000Y-113030000D03*
X94488000Y-113030000D03*
%TD*%
D38*
%TO.C,D1*%
X168275000Y-81915000D03*
D39*
X168275000Y-79375000D03*
%TD*%
D22*
%TO.C,J2*%
X154305000Y-113365000D03*
D23*
X156845000Y-113365000D03*
X159385000Y-113365000D03*
X161925000Y-113365000D03*
%TD*%
D14*
%TO.C,C3*%
X97155000Y-64565000D03*
X97155000Y-67515000D03*
%TD*%
D40*
%TO.C,Y1*%
X142066400Y-87020400D03*
X145766400Y-87020400D03*
%TD*%
D28*
%TO.C,R10*%
X115127500Y-88265000D03*
X112202500Y-88265000D03*
%TD*%
D36*
%TO.C,SW1*%
X170103800Y-59944000D03*
D23*
X170103800Y-62484000D03*
X170103800Y-65024000D03*
X170103800Y-67564000D03*
X170103800Y-70104000D03*
%TD*%
D26*
%TO.C,R27*%
X138430000Y-61402500D03*
X138430000Y-64327500D03*
%TD*%
%LPD*%
M02*
