%TF.GenerationSoftware,KiCad,Pcbnew,8.0.1*%
%TF.CreationDate,2024-04-21T19:34:11+02:00*%
%TF.ProjectId,Gotek_Floppy_Disk_Emulator_V2,476f7465-6b5f-4466-9c6f-7070795f4469,rev?*%
%TF.SameCoordinates,Original*%
%TF.FileFunction,Soldermask,Bot*%
%TF.FilePolarity,Negative*%
%FSLAX46Y46*%
G04 Gerber Fmt 4.6, Leading zero omitted, Abs format (unit mm)*
G04 Created by KiCad (PCBNEW 8.0.1) date 2024-04-21 19:34:11*
%MOMM*%
%LPD*%
G01*
G04 APERTURE LIST*
G04 APERTURE END LIST*
G36*
X149239417Y-112602882D02*
G01*
X149255962Y-112613938D01*
X149267018Y-112630483D01*
X149270900Y-112650000D01*
X149270900Y-114350000D01*
X149267018Y-114369517D01*
X149255962Y-114386062D01*
X149239417Y-114397118D01*
X149219900Y-114401000D01*
X147519900Y-114401000D01*
X147500383Y-114397118D01*
X147483838Y-114386062D01*
X147472782Y-114369517D01*
X147468900Y-114350000D01*
X147468900Y-112650000D01*
X147472782Y-112630483D01*
X147483838Y-112613938D01*
X147500383Y-112602882D01*
X147519900Y-112599000D01*
X149219900Y-112599000D01*
X149239417Y-112602882D01*
G37*
G36*
X150953883Y-112603936D02*
G01*
X151004080Y-112603936D01*
X151047424Y-112613149D01*
X151085559Y-112616905D01*
X151133466Y-112631437D01*
X151188324Y-112643098D01*
X151223430Y-112658728D01*
X151254466Y-112668143D01*
X151303784Y-112694504D01*
X151360400Y-112719711D01*
X151386722Y-112738835D01*
X151410132Y-112751348D01*
X151457888Y-112790540D01*
X151512787Y-112830427D01*
X151530611Y-112850223D01*
X151546575Y-112863324D01*
X151589472Y-112915594D01*
X151638824Y-112970405D01*
X151649192Y-112988363D01*
X151658551Y-112999767D01*
X151693173Y-113064542D01*
X151733004Y-113133530D01*
X151737585Y-113147630D01*
X151741756Y-113155433D01*
X151764752Y-113231242D01*
X151791211Y-113312672D01*
X151792142Y-113321532D01*
X151792994Y-113324340D01*
X151801284Y-113408513D01*
X151810900Y-113500000D01*
X151801283Y-113591494D01*
X151792994Y-113675659D01*
X151792142Y-113678466D01*
X151791211Y-113687328D01*
X151764748Y-113768771D01*
X151741756Y-113844566D01*
X151737586Y-113852366D01*
X151733004Y-113866470D01*
X151693166Y-113935470D01*
X151658551Y-114000232D01*
X151649194Y-114011633D01*
X151638824Y-114029595D01*
X151589463Y-114084415D01*
X151546575Y-114136675D01*
X151530614Y-114149773D01*
X151512787Y-114169573D01*
X151457877Y-114209467D01*
X151410132Y-114248651D01*
X151386727Y-114261161D01*
X151360400Y-114280289D01*
X151303773Y-114305500D01*
X151254466Y-114331856D01*
X151223437Y-114341268D01*
X151188324Y-114356902D01*
X151133455Y-114368564D01*
X151085559Y-114383094D01*
X151047432Y-114386849D01*
X151004080Y-114396064D01*
X150953873Y-114396064D01*
X150909900Y-114400395D01*
X150865927Y-114396064D01*
X150815720Y-114396064D01*
X150772367Y-114386849D01*
X150734240Y-114383094D01*
X150686341Y-114368563D01*
X150631476Y-114356902D01*
X150596364Y-114341269D01*
X150565333Y-114331856D01*
X150516020Y-114305498D01*
X150459400Y-114280289D01*
X150433075Y-114261163D01*
X150409667Y-114248651D01*
X150361913Y-114209460D01*
X150307013Y-114169573D01*
X150289187Y-114149776D01*
X150273224Y-114136675D01*
X150230325Y-114084402D01*
X150180976Y-114029595D01*
X150170608Y-114011637D01*
X150161248Y-114000232D01*
X150126619Y-113935447D01*
X150086796Y-113866470D01*
X150082215Y-113852371D01*
X150078043Y-113844566D01*
X150055036Y-113768725D01*
X150028589Y-113687328D01*
X150027658Y-113678471D01*
X150026805Y-113675659D01*
X150018500Y-113591342D01*
X150008900Y-113500000D01*
X150018499Y-113408664D01*
X150026805Y-113324340D01*
X150027658Y-113321527D01*
X150028589Y-113312672D01*
X150055032Y-113231288D01*
X150078043Y-113155433D01*
X150082215Y-113147626D01*
X150086796Y-113133530D01*
X150126612Y-113064565D01*
X150161248Y-112999767D01*
X150170610Y-112988359D01*
X150180976Y-112970405D01*
X150230316Y-112915607D01*
X150273224Y-112863324D01*
X150289191Y-112850219D01*
X150307013Y-112830427D01*
X150361902Y-112790546D01*
X150409667Y-112751348D01*
X150433080Y-112738833D01*
X150459400Y-112719711D01*
X150516009Y-112694506D01*
X150565333Y-112668143D01*
X150596371Y-112658727D01*
X150631476Y-112643098D01*
X150686330Y-112631438D01*
X150734240Y-112616905D01*
X150772376Y-112613148D01*
X150815720Y-112603936D01*
X150865916Y-112603936D01*
X150909900Y-112599604D01*
X150953883Y-112603936D01*
G37*
G36*
X153493883Y-112603936D02*
G01*
X153544080Y-112603936D01*
X153587424Y-112613149D01*
X153625559Y-112616905D01*
X153673466Y-112631437D01*
X153728324Y-112643098D01*
X153763430Y-112658728D01*
X153794466Y-112668143D01*
X153843784Y-112694504D01*
X153900400Y-112719711D01*
X153926722Y-112738835D01*
X153950132Y-112751348D01*
X153997888Y-112790540D01*
X154052787Y-112830427D01*
X154070611Y-112850223D01*
X154086575Y-112863324D01*
X154129472Y-112915594D01*
X154178824Y-112970405D01*
X154189192Y-112988363D01*
X154198551Y-112999767D01*
X154233173Y-113064542D01*
X154273004Y-113133530D01*
X154277585Y-113147630D01*
X154281756Y-113155433D01*
X154304752Y-113231242D01*
X154331211Y-113312672D01*
X154332142Y-113321532D01*
X154332994Y-113324340D01*
X154341284Y-113408513D01*
X154350900Y-113500000D01*
X154341283Y-113591494D01*
X154332994Y-113675659D01*
X154332142Y-113678466D01*
X154331211Y-113687328D01*
X154304748Y-113768771D01*
X154281756Y-113844566D01*
X154277586Y-113852366D01*
X154273004Y-113866470D01*
X154233166Y-113935470D01*
X154198551Y-114000232D01*
X154189194Y-114011633D01*
X154178824Y-114029595D01*
X154129463Y-114084415D01*
X154086575Y-114136675D01*
X154070614Y-114149773D01*
X154052787Y-114169573D01*
X153997877Y-114209467D01*
X153950132Y-114248651D01*
X153926727Y-114261161D01*
X153900400Y-114280289D01*
X153843773Y-114305500D01*
X153794466Y-114331856D01*
X153763437Y-114341268D01*
X153728324Y-114356902D01*
X153673455Y-114368564D01*
X153625559Y-114383094D01*
X153587432Y-114386849D01*
X153544080Y-114396064D01*
X153493873Y-114396064D01*
X153449900Y-114400395D01*
X153405927Y-114396064D01*
X153355720Y-114396064D01*
X153312367Y-114386849D01*
X153274240Y-114383094D01*
X153226341Y-114368563D01*
X153171476Y-114356902D01*
X153136364Y-114341269D01*
X153105333Y-114331856D01*
X153056020Y-114305498D01*
X152999400Y-114280289D01*
X152973075Y-114261163D01*
X152949667Y-114248651D01*
X152901913Y-114209460D01*
X152847013Y-114169573D01*
X152829187Y-114149776D01*
X152813224Y-114136675D01*
X152770325Y-114084402D01*
X152720976Y-114029595D01*
X152710608Y-114011637D01*
X152701248Y-114000232D01*
X152666619Y-113935447D01*
X152626796Y-113866470D01*
X152622215Y-113852371D01*
X152618043Y-113844566D01*
X152595036Y-113768725D01*
X152568589Y-113687328D01*
X152567658Y-113678471D01*
X152566805Y-113675659D01*
X152558500Y-113591342D01*
X152548900Y-113500000D01*
X152558499Y-113408664D01*
X152566805Y-113324340D01*
X152567658Y-113321527D01*
X152568589Y-113312672D01*
X152595032Y-113231288D01*
X152618043Y-113155433D01*
X152622215Y-113147626D01*
X152626796Y-113133530D01*
X152666612Y-113064565D01*
X152701248Y-112999767D01*
X152710610Y-112988359D01*
X152720976Y-112970405D01*
X152770316Y-112915607D01*
X152813224Y-112863324D01*
X152829191Y-112850219D01*
X152847013Y-112830427D01*
X152901902Y-112790546D01*
X152949667Y-112751348D01*
X152973080Y-112738833D01*
X152999400Y-112719711D01*
X153056009Y-112694506D01*
X153105333Y-112668143D01*
X153136371Y-112658727D01*
X153171476Y-112643098D01*
X153226330Y-112631438D01*
X153274240Y-112616905D01*
X153312376Y-112613148D01*
X153355720Y-112603936D01*
X153405916Y-112603936D01*
X153449900Y-112599604D01*
X153493883Y-112603936D01*
G37*
G36*
X156033883Y-112603936D02*
G01*
X156084080Y-112603936D01*
X156127424Y-112613149D01*
X156165559Y-112616905D01*
X156213466Y-112631437D01*
X156268324Y-112643098D01*
X156303430Y-112658728D01*
X156334466Y-112668143D01*
X156383784Y-112694504D01*
X156440400Y-112719711D01*
X156466722Y-112738835D01*
X156490132Y-112751348D01*
X156537888Y-112790540D01*
X156592787Y-112830427D01*
X156610611Y-112850223D01*
X156626575Y-112863324D01*
X156669472Y-112915594D01*
X156718824Y-112970405D01*
X156729192Y-112988363D01*
X156738551Y-112999767D01*
X156773173Y-113064542D01*
X156813004Y-113133530D01*
X156817585Y-113147630D01*
X156821756Y-113155433D01*
X156844752Y-113231242D01*
X156871211Y-113312672D01*
X156872142Y-113321532D01*
X156872994Y-113324340D01*
X156881284Y-113408513D01*
X156890900Y-113500000D01*
X156881283Y-113591494D01*
X156872994Y-113675659D01*
X156872142Y-113678466D01*
X156871211Y-113687328D01*
X156844748Y-113768771D01*
X156821756Y-113844566D01*
X156817586Y-113852366D01*
X156813004Y-113866470D01*
X156773166Y-113935470D01*
X156738551Y-114000232D01*
X156729194Y-114011633D01*
X156718824Y-114029595D01*
X156669463Y-114084415D01*
X156626575Y-114136675D01*
X156610614Y-114149773D01*
X156592787Y-114169573D01*
X156537877Y-114209467D01*
X156490132Y-114248651D01*
X156466727Y-114261161D01*
X156440400Y-114280289D01*
X156383773Y-114305500D01*
X156334466Y-114331856D01*
X156303437Y-114341268D01*
X156268324Y-114356902D01*
X156213455Y-114368564D01*
X156165559Y-114383094D01*
X156127432Y-114386849D01*
X156084080Y-114396064D01*
X156033873Y-114396064D01*
X155989900Y-114400395D01*
X155945927Y-114396064D01*
X155895720Y-114396064D01*
X155852367Y-114386849D01*
X155814240Y-114383094D01*
X155766341Y-114368563D01*
X155711476Y-114356902D01*
X155676364Y-114341269D01*
X155645333Y-114331856D01*
X155596020Y-114305498D01*
X155539400Y-114280289D01*
X155513075Y-114261163D01*
X155489667Y-114248651D01*
X155441913Y-114209460D01*
X155387013Y-114169573D01*
X155369187Y-114149776D01*
X155353224Y-114136675D01*
X155310325Y-114084402D01*
X155260976Y-114029595D01*
X155250608Y-114011637D01*
X155241248Y-114000232D01*
X155206619Y-113935447D01*
X155166796Y-113866470D01*
X155162215Y-113852371D01*
X155158043Y-113844566D01*
X155135036Y-113768725D01*
X155108589Y-113687328D01*
X155107658Y-113678471D01*
X155106805Y-113675659D01*
X155098500Y-113591342D01*
X155088900Y-113500000D01*
X155098499Y-113408664D01*
X155106805Y-113324340D01*
X155107658Y-113321527D01*
X155108589Y-113312672D01*
X155135032Y-113231288D01*
X155158043Y-113155433D01*
X155162215Y-113147626D01*
X155166796Y-113133530D01*
X155206612Y-113064565D01*
X155241248Y-112999767D01*
X155250610Y-112988359D01*
X155260976Y-112970405D01*
X155310316Y-112915607D01*
X155353224Y-112863324D01*
X155369191Y-112850219D01*
X155387013Y-112830427D01*
X155441902Y-112790546D01*
X155489667Y-112751348D01*
X155513080Y-112738833D01*
X155539400Y-112719711D01*
X155596009Y-112694506D01*
X155645333Y-112668143D01*
X155676371Y-112658727D01*
X155711476Y-112643098D01*
X155766330Y-112631438D01*
X155814240Y-112616905D01*
X155852376Y-112613148D01*
X155895720Y-112603936D01*
X155945916Y-112603936D01*
X155989900Y-112599604D01*
X156033883Y-112603936D01*
G37*
G36*
X112445853Y-107666627D02*
G01*
X112789635Y-107742299D01*
X113123219Y-107854697D01*
X113442696Y-108002502D01*
X113744319Y-108183983D01*
X114024553Y-108397011D01*
X114280111Y-108639089D01*
X114507999Y-108907379D01*
X114705543Y-109198734D01*
X114870428Y-109509741D01*
X115000720Y-109836751D01*
X115094893Y-110175931D01*
X115151842Y-110523305D01*
X115170900Y-110874800D01*
X115151842Y-111226295D01*
X115094893Y-111573669D01*
X115000720Y-111912849D01*
X114870428Y-112239859D01*
X114705543Y-112550866D01*
X114507999Y-112842221D01*
X114280111Y-113110511D01*
X114024553Y-113352589D01*
X113744319Y-113565617D01*
X113442696Y-113747098D01*
X113123219Y-113894903D01*
X112789635Y-114007301D01*
X112445853Y-114082973D01*
X112095906Y-114121032D01*
X111743894Y-114121032D01*
X111393947Y-114082973D01*
X111050165Y-114007301D01*
X110716581Y-113894903D01*
X110397104Y-113747098D01*
X110095481Y-113565617D01*
X109815247Y-113352589D01*
X109559689Y-113110511D01*
X109331801Y-112842221D01*
X109134257Y-112550866D01*
X108969372Y-112239859D01*
X108839080Y-111912849D01*
X108744907Y-111573669D01*
X108687958Y-111226295D01*
X108668900Y-110874800D01*
X108687958Y-110523305D01*
X108744907Y-110175931D01*
X108839080Y-109836751D01*
X108969372Y-109509741D01*
X109134257Y-109198734D01*
X109331801Y-108907379D01*
X109559689Y-108639089D01*
X109815247Y-108397011D01*
X110095481Y-108183983D01*
X110397104Y-108002502D01*
X110716581Y-107854697D01*
X111050165Y-107742299D01*
X111393947Y-107666627D01*
X111743894Y-107628568D01*
X112095906Y-107628568D01*
X112445853Y-107666627D01*
G37*
G36*
X162445853Y-107666627D02*
G01*
X162789635Y-107742299D01*
X163123219Y-107854697D01*
X163442696Y-108002502D01*
X163744319Y-108183983D01*
X164024553Y-108397011D01*
X164280111Y-108639089D01*
X164507999Y-108907379D01*
X164705543Y-109198734D01*
X164870428Y-109509741D01*
X165000720Y-109836751D01*
X165094893Y-110175931D01*
X165151842Y-110523305D01*
X165170900Y-110874800D01*
X165151842Y-111226295D01*
X165094893Y-111573669D01*
X165000720Y-111912849D01*
X164870428Y-112239859D01*
X164705543Y-112550866D01*
X164507999Y-112842221D01*
X164280111Y-113110511D01*
X164024553Y-113352589D01*
X163744319Y-113565617D01*
X163442696Y-113747098D01*
X163123219Y-113894903D01*
X162789635Y-114007301D01*
X162445853Y-114082973D01*
X162095906Y-114121032D01*
X161743894Y-114121032D01*
X161393947Y-114082973D01*
X161050165Y-114007301D01*
X160716581Y-113894903D01*
X160397104Y-113747098D01*
X160095481Y-113565617D01*
X159815247Y-113352589D01*
X159559689Y-113110511D01*
X159331801Y-112842221D01*
X159134257Y-112550866D01*
X158969372Y-112239859D01*
X158839080Y-111912849D01*
X158744907Y-111573669D01*
X158687958Y-111226295D01*
X158668900Y-110874800D01*
X158687958Y-110523305D01*
X158744907Y-110175931D01*
X158839080Y-109836751D01*
X158969372Y-109509741D01*
X159134257Y-109198734D01*
X159331801Y-108907379D01*
X159559689Y-108639089D01*
X159815247Y-108397011D01*
X160095481Y-108183983D01*
X160397104Y-108002502D01*
X160716581Y-107854697D01*
X161050165Y-107742299D01*
X161393947Y-107666627D01*
X161743894Y-107628568D01*
X162095906Y-107628568D01*
X162445853Y-107666627D01*
G37*
G36*
X91991983Y-112133936D02*
G01*
X92042180Y-112133936D01*
X92085524Y-112143149D01*
X92123659Y-112146905D01*
X92171566Y-112161437D01*
X92226424Y-112173098D01*
X92261530Y-112188728D01*
X92292566Y-112198143D01*
X92341884Y-112224504D01*
X92398500Y-112249711D01*
X92424822Y-112268835D01*
X92448232Y-112281348D01*
X92495988Y-112320540D01*
X92550887Y-112360427D01*
X92568711Y-112380223D01*
X92584675Y-112393324D01*
X92627572Y-112445594D01*
X92676924Y-112500405D01*
X92687292Y-112518363D01*
X92696651Y-112529767D01*
X92731273Y-112594542D01*
X92771104Y-112663530D01*
X92775685Y-112677630D01*
X92779856Y-112685433D01*
X92802852Y-112761242D01*
X92829311Y-112842672D01*
X92830242Y-112851532D01*
X92831094Y-112854340D01*
X92839384Y-112938513D01*
X92849000Y-113030000D01*
X92839383Y-113121494D01*
X92831094Y-113205659D01*
X92830242Y-113208466D01*
X92829311Y-113217328D01*
X92802848Y-113298771D01*
X92779856Y-113374566D01*
X92775686Y-113382366D01*
X92771104Y-113396470D01*
X92731266Y-113465470D01*
X92696651Y-113530232D01*
X92687294Y-113541633D01*
X92676924Y-113559595D01*
X92627563Y-113614415D01*
X92584675Y-113666675D01*
X92568714Y-113679773D01*
X92550887Y-113699573D01*
X92495977Y-113739467D01*
X92448232Y-113778651D01*
X92424827Y-113791161D01*
X92398500Y-113810289D01*
X92341873Y-113835500D01*
X92292566Y-113861856D01*
X92261537Y-113871268D01*
X92226424Y-113886902D01*
X92171555Y-113898564D01*
X92123659Y-113913094D01*
X92085532Y-113916849D01*
X92042180Y-113926064D01*
X91991973Y-113926064D01*
X91948000Y-113930395D01*
X91904027Y-113926064D01*
X91853820Y-113926064D01*
X91810467Y-113916849D01*
X91772340Y-113913094D01*
X91724441Y-113898563D01*
X91669576Y-113886902D01*
X91634464Y-113871269D01*
X91603433Y-113861856D01*
X91554120Y-113835498D01*
X91497500Y-113810289D01*
X91471175Y-113791163D01*
X91447767Y-113778651D01*
X91400013Y-113739460D01*
X91345113Y-113699573D01*
X91327287Y-113679776D01*
X91311324Y-113666675D01*
X91268425Y-113614402D01*
X91219076Y-113559595D01*
X91208708Y-113541637D01*
X91199348Y-113530232D01*
X91164719Y-113465447D01*
X91124896Y-113396470D01*
X91120315Y-113382371D01*
X91116143Y-113374566D01*
X91093136Y-113298725D01*
X91066689Y-113217328D01*
X91065758Y-113208471D01*
X91064905Y-113205659D01*
X91056600Y-113121342D01*
X91047000Y-113030000D01*
X91056599Y-112938664D01*
X91064905Y-112854340D01*
X91065758Y-112851527D01*
X91066689Y-112842672D01*
X91093132Y-112761288D01*
X91116143Y-112685433D01*
X91120315Y-112677626D01*
X91124896Y-112663530D01*
X91164712Y-112594565D01*
X91199348Y-112529767D01*
X91208710Y-112518359D01*
X91219076Y-112500405D01*
X91268416Y-112445607D01*
X91311324Y-112393324D01*
X91327291Y-112380219D01*
X91345113Y-112360427D01*
X91400002Y-112320546D01*
X91447767Y-112281348D01*
X91471180Y-112268833D01*
X91497500Y-112249711D01*
X91554109Y-112224506D01*
X91603433Y-112198143D01*
X91634471Y-112188727D01*
X91669576Y-112173098D01*
X91724430Y-112161438D01*
X91772340Y-112146905D01*
X91810476Y-112143148D01*
X91853820Y-112133936D01*
X91904016Y-112133936D01*
X91948000Y-112129604D01*
X91991983Y-112133936D01*
G37*
G36*
X94531983Y-112133936D02*
G01*
X94582180Y-112133936D01*
X94625524Y-112143149D01*
X94663659Y-112146905D01*
X94711566Y-112161437D01*
X94766424Y-112173098D01*
X94801530Y-112188728D01*
X94832566Y-112198143D01*
X94881884Y-112224504D01*
X94938500Y-112249711D01*
X94964822Y-112268835D01*
X94988232Y-112281348D01*
X95035988Y-112320540D01*
X95090887Y-112360427D01*
X95108711Y-112380223D01*
X95124675Y-112393324D01*
X95167572Y-112445594D01*
X95216924Y-112500405D01*
X95227292Y-112518363D01*
X95236651Y-112529767D01*
X95271273Y-112594542D01*
X95311104Y-112663530D01*
X95315685Y-112677630D01*
X95319856Y-112685433D01*
X95342852Y-112761242D01*
X95369311Y-112842672D01*
X95370242Y-112851532D01*
X95371094Y-112854340D01*
X95379384Y-112938513D01*
X95389000Y-113030000D01*
X95379383Y-113121494D01*
X95371094Y-113205659D01*
X95370242Y-113208466D01*
X95369311Y-113217328D01*
X95342848Y-113298771D01*
X95319856Y-113374566D01*
X95315686Y-113382366D01*
X95311104Y-113396470D01*
X95271266Y-113465470D01*
X95236651Y-113530232D01*
X95227294Y-113541633D01*
X95216924Y-113559595D01*
X95167563Y-113614415D01*
X95124675Y-113666675D01*
X95108714Y-113679773D01*
X95090887Y-113699573D01*
X95035977Y-113739467D01*
X94988232Y-113778651D01*
X94964827Y-113791161D01*
X94938500Y-113810289D01*
X94881873Y-113835500D01*
X94832566Y-113861856D01*
X94801537Y-113871268D01*
X94766424Y-113886902D01*
X94711555Y-113898564D01*
X94663659Y-113913094D01*
X94625532Y-113916849D01*
X94582180Y-113926064D01*
X94531973Y-113926064D01*
X94488000Y-113930395D01*
X94444027Y-113926064D01*
X94393820Y-113926064D01*
X94350467Y-113916849D01*
X94312340Y-113913094D01*
X94264441Y-113898563D01*
X94209576Y-113886902D01*
X94174464Y-113871269D01*
X94143433Y-113861856D01*
X94094120Y-113835498D01*
X94037500Y-113810289D01*
X94011175Y-113791163D01*
X93987767Y-113778651D01*
X93940013Y-113739460D01*
X93885113Y-113699573D01*
X93867287Y-113679776D01*
X93851324Y-113666675D01*
X93808425Y-113614402D01*
X93759076Y-113559595D01*
X93748708Y-113541637D01*
X93739348Y-113530232D01*
X93704719Y-113465447D01*
X93664896Y-113396470D01*
X93660315Y-113382371D01*
X93656143Y-113374566D01*
X93633136Y-113298725D01*
X93606689Y-113217328D01*
X93605758Y-113208471D01*
X93604905Y-113205659D01*
X93596600Y-113121342D01*
X93587000Y-113030000D01*
X93596599Y-112938664D01*
X93604905Y-112854340D01*
X93605758Y-112851527D01*
X93606689Y-112842672D01*
X93633132Y-112761288D01*
X93656143Y-112685433D01*
X93660315Y-112677626D01*
X93664896Y-112663530D01*
X93704712Y-112594565D01*
X93739348Y-112529767D01*
X93748710Y-112518359D01*
X93759076Y-112500405D01*
X93808416Y-112445607D01*
X93851324Y-112393324D01*
X93867291Y-112380219D01*
X93885113Y-112360427D01*
X93940002Y-112320546D01*
X93987767Y-112281348D01*
X94011180Y-112268833D01*
X94037500Y-112249711D01*
X94094109Y-112224506D01*
X94143433Y-112198143D01*
X94174471Y-112188727D01*
X94209576Y-112173098D01*
X94264430Y-112161438D01*
X94312340Y-112146905D01*
X94350476Y-112143148D01*
X94393820Y-112133936D01*
X94444016Y-112133936D01*
X94488000Y-112129604D01*
X94531983Y-112133936D01*
G37*
G36*
X91991983Y-109593936D02*
G01*
X92042180Y-109593936D01*
X92085524Y-109603149D01*
X92123659Y-109606905D01*
X92171566Y-109621437D01*
X92226424Y-109633098D01*
X92261530Y-109648728D01*
X92292566Y-109658143D01*
X92341884Y-109684504D01*
X92398500Y-109709711D01*
X92424822Y-109728835D01*
X92448232Y-109741348D01*
X92495988Y-109780540D01*
X92550887Y-109820427D01*
X92568711Y-109840223D01*
X92584675Y-109853324D01*
X92627572Y-109905594D01*
X92676924Y-109960405D01*
X92687292Y-109978363D01*
X92696651Y-109989767D01*
X92731273Y-110054542D01*
X92771104Y-110123530D01*
X92775685Y-110137630D01*
X92779856Y-110145433D01*
X92802852Y-110221242D01*
X92829311Y-110302672D01*
X92830242Y-110311532D01*
X92831094Y-110314340D01*
X92839384Y-110398513D01*
X92849000Y-110490000D01*
X92839383Y-110581494D01*
X92831094Y-110665659D01*
X92830242Y-110668466D01*
X92829311Y-110677328D01*
X92802848Y-110758771D01*
X92779856Y-110834566D01*
X92775686Y-110842366D01*
X92771104Y-110856470D01*
X92731266Y-110925470D01*
X92696651Y-110990232D01*
X92687294Y-111001633D01*
X92676924Y-111019595D01*
X92627563Y-111074415D01*
X92584675Y-111126675D01*
X92568714Y-111139773D01*
X92550887Y-111159573D01*
X92495977Y-111199467D01*
X92448232Y-111238651D01*
X92424827Y-111251161D01*
X92398500Y-111270289D01*
X92341873Y-111295500D01*
X92292566Y-111321856D01*
X92261537Y-111331268D01*
X92226424Y-111346902D01*
X92171555Y-111358564D01*
X92123659Y-111373094D01*
X92085532Y-111376849D01*
X92042180Y-111386064D01*
X91991973Y-111386064D01*
X91948000Y-111390395D01*
X91904027Y-111386064D01*
X91853820Y-111386064D01*
X91810467Y-111376849D01*
X91772340Y-111373094D01*
X91724441Y-111358563D01*
X91669576Y-111346902D01*
X91634464Y-111331269D01*
X91603433Y-111321856D01*
X91554120Y-111295498D01*
X91497500Y-111270289D01*
X91471175Y-111251163D01*
X91447767Y-111238651D01*
X91400013Y-111199460D01*
X91345113Y-111159573D01*
X91327287Y-111139776D01*
X91311324Y-111126675D01*
X91268425Y-111074402D01*
X91219076Y-111019595D01*
X91208708Y-111001637D01*
X91199348Y-110990232D01*
X91164719Y-110925447D01*
X91124896Y-110856470D01*
X91120315Y-110842371D01*
X91116143Y-110834566D01*
X91093136Y-110758725D01*
X91066689Y-110677328D01*
X91065758Y-110668471D01*
X91064905Y-110665659D01*
X91056600Y-110581342D01*
X91047000Y-110490000D01*
X91056599Y-110398664D01*
X91064905Y-110314340D01*
X91065758Y-110311527D01*
X91066689Y-110302672D01*
X91093132Y-110221288D01*
X91116143Y-110145433D01*
X91120315Y-110137626D01*
X91124896Y-110123530D01*
X91164712Y-110054565D01*
X91199348Y-109989767D01*
X91208710Y-109978359D01*
X91219076Y-109960405D01*
X91268416Y-109905607D01*
X91311324Y-109853324D01*
X91327291Y-109840219D01*
X91345113Y-109820427D01*
X91400002Y-109780546D01*
X91447767Y-109741348D01*
X91471180Y-109728833D01*
X91497500Y-109709711D01*
X91554109Y-109684506D01*
X91603433Y-109658143D01*
X91634471Y-109648727D01*
X91669576Y-109633098D01*
X91724430Y-109621438D01*
X91772340Y-109606905D01*
X91810476Y-109603148D01*
X91853820Y-109593936D01*
X91904016Y-109593936D01*
X91948000Y-109589604D01*
X91991983Y-109593936D01*
G37*
G36*
X94531983Y-109593936D02*
G01*
X94582180Y-109593936D01*
X94625524Y-109603149D01*
X94663659Y-109606905D01*
X94711566Y-109621437D01*
X94766424Y-109633098D01*
X94801530Y-109648728D01*
X94832566Y-109658143D01*
X94881884Y-109684504D01*
X94938500Y-109709711D01*
X94964822Y-109728835D01*
X94988232Y-109741348D01*
X95035988Y-109780540D01*
X95090887Y-109820427D01*
X95108711Y-109840223D01*
X95124675Y-109853324D01*
X95167572Y-109905594D01*
X95216924Y-109960405D01*
X95227292Y-109978363D01*
X95236651Y-109989767D01*
X95271273Y-110054542D01*
X95311104Y-110123530D01*
X95315685Y-110137630D01*
X95319856Y-110145433D01*
X95342852Y-110221242D01*
X95369311Y-110302672D01*
X95370242Y-110311532D01*
X95371094Y-110314340D01*
X95379384Y-110398513D01*
X95389000Y-110490000D01*
X95379383Y-110581494D01*
X95371094Y-110665659D01*
X95370242Y-110668466D01*
X95369311Y-110677328D01*
X95342848Y-110758771D01*
X95319856Y-110834566D01*
X95315686Y-110842366D01*
X95311104Y-110856470D01*
X95271266Y-110925470D01*
X95236651Y-110990232D01*
X95227294Y-111001633D01*
X95216924Y-111019595D01*
X95167563Y-111074415D01*
X95124675Y-111126675D01*
X95108714Y-111139773D01*
X95090887Y-111159573D01*
X95035977Y-111199467D01*
X94988232Y-111238651D01*
X94964827Y-111251161D01*
X94938500Y-111270289D01*
X94881873Y-111295500D01*
X94832566Y-111321856D01*
X94801537Y-111331268D01*
X94766424Y-111346902D01*
X94711555Y-111358564D01*
X94663659Y-111373094D01*
X94625532Y-111376849D01*
X94582180Y-111386064D01*
X94531973Y-111386064D01*
X94488000Y-111390395D01*
X94444027Y-111386064D01*
X94393820Y-111386064D01*
X94350467Y-111376849D01*
X94312340Y-111373094D01*
X94264441Y-111358563D01*
X94209576Y-111346902D01*
X94174464Y-111331269D01*
X94143433Y-111321856D01*
X94094120Y-111295498D01*
X94037500Y-111270289D01*
X94011175Y-111251163D01*
X93987767Y-111238651D01*
X93940013Y-111199460D01*
X93885113Y-111159573D01*
X93867287Y-111139776D01*
X93851324Y-111126675D01*
X93808425Y-111074402D01*
X93759076Y-111019595D01*
X93748708Y-111001637D01*
X93739348Y-110990232D01*
X93704719Y-110925447D01*
X93664896Y-110856470D01*
X93660315Y-110842371D01*
X93656143Y-110834566D01*
X93633136Y-110758725D01*
X93606689Y-110677328D01*
X93605758Y-110668471D01*
X93604905Y-110665659D01*
X93596600Y-110581342D01*
X93587000Y-110490000D01*
X93596599Y-110398664D01*
X93604905Y-110314340D01*
X93605758Y-110311527D01*
X93606689Y-110302672D01*
X93633132Y-110221288D01*
X93656143Y-110145433D01*
X93660315Y-110137626D01*
X93664896Y-110123530D01*
X93704712Y-110054565D01*
X93739348Y-109989767D01*
X93748710Y-109978359D01*
X93759076Y-109960405D01*
X93808416Y-109905607D01*
X93851324Y-109853324D01*
X93867291Y-109840219D01*
X93885113Y-109820427D01*
X93940002Y-109780546D01*
X93987767Y-109741348D01*
X94011180Y-109728833D01*
X94037500Y-109709711D01*
X94094109Y-109684506D01*
X94143433Y-109658143D01*
X94174471Y-109648727D01*
X94209576Y-109633098D01*
X94264430Y-109621438D01*
X94312340Y-109606905D01*
X94350476Y-109603148D01*
X94393820Y-109593936D01*
X94444016Y-109593936D01*
X94488000Y-109589604D01*
X94531983Y-109593936D01*
G37*
G36*
X91991983Y-107053936D02*
G01*
X92042180Y-107053936D01*
X92085524Y-107063149D01*
X92123659Y-107066905D01*
X92171566Y-107081437D01*
X92226424Y-107093098D01*
X92261530Y-107108728D01*
X92292566Y-107118143D01*
X92341884Y-107144504D01*
X92398500Y-107169711D01*
X92424822Y-107188835D01*
X92448232Y-107201348D01*
X92495988Y-107240540D01*
X92550887Y-107280427D01*
X92568711Y-107300223D01*
X92584675Y-107313324D01*
X92627572Y-107365594D01*
X92676924Y-107420405D01*
X92687292Y-107438363D01*
X92696651Y-107449767D01*
X92731273Y-107514542D01*
X92771104Y-107583530D01*
X92775685Y-107597630D01*
X92779856Y-107605433D01*
X92802852Y-107681242D01*
X92829311Y-107762672D01*
X92830242Y-107771532D01*
X92831094Y-107774340D01*
X92839384Y-107858513D01*
X92849000Y-107950000D01*
X92839383Y-108041494D01*
X92831094Y-108125659D01*
X92830242Y-108128466D01*
X92829311Y-108137328D01*
X92802848Y-108218771D01*
X92779856Y-108294566D01*
X92775686Y-108302366D01*
X92771104Y-108316470D01*
X92731266Y-108385470D01*
X92696651Y-108450232D01*
X92687294Y-108461633D01*
X92676924Y-108479595D01*
X92627563Y-108534415D01*
X92584675Y-108586675D01*
X92568714Y-108599773D01*
X92550887Y-108619573D01*
X92495977Y-108659467D01*
X92448232Y-108698651D01*
X92424827Y-108711161D01*
X92398500Y-108730289D01*
X92341873Y-108755500D01*
X92292566Y-108781856D01*
X92261537Y-108791268D01*
X92226424Y-108806902D01*
X92171555Y-108818564D01*
X92123659Y-108833094D01*
X92085532Y-108836849D01*
X92042180Y-108846064D01*
X91991973Y-108846064D01*
X91948000Y-108850395D01*
X91904027Y-108846064D01*
X91853820Y-108846064D01*
X91810467Y-108836849D01*
X91772340Y-108833094D01*
X91724441Y-108818563D01*
X91669576Y-108806902D01*
X91634464Y-108791269D01*
X91603433Y-108781856D01*
X91554120Y-108755498D01*
X91497500Y-108730289D01*
X91471175Y-108711163D01*
X91447767Y-108698651D01*
X91400013Y-108659460D01*
X91345113Y-108619573D01*
X91327287Y-108599776D01*
X91311324Y-108586675D01*
X91268425Y-108534402D01*
X91219076Y-108479595D01*
X91208708Y-108461637D01*
X91199348Y-108450232D01*
X91164719Y-108385447D01*
X91124896Y-108316470D01*
X91120315Y-108302371D01*
X91116143Y-108294566D01*
X91093136Y-108218725D01*
X91066689Y-108137328D01*
X91065758Y-108128471D01*
X91064905Y-108125659D01*
X91056600Y-108041342D01*
X91047000Y-107950000D01*
X91056599Y-107858664D01*
X91064905Y-107774340D01*
X91065758Y-107771527D01*
X91066689Y-107762672D01*
X91093132Y-107681288D01*
X91116143Y-107605433D01*
X91120315Y-107597626D01*
X91124896Y-107583530D01*
X91164712Y-107514565D01*
X91199348Y-107449767D01*
X91208710Y-107438359D01*
X91219076Y-107420405D01*
X91268416Y-107365607D01*
X91311324Y-107313324D01*
X91327291Y-107300219D01*
X91345113Y-107280427D01*
X91400002Y-107240546D01*
X91447767Y-107201348D01*
X91471180Y-107188833D01*
X91497500Y-107169711D01*
X91554109Y-107144506D01*
X91603433Y-107118143D01*
X91634471Y-107108727D01*
X91669576Y-107093098D01*
X91724430Y-107081438D01*
X91772340Y-107066905D01*
X91810476Y-107063148D01*
X91853820Y-107053936D01*
X91904016Y-107053936D01*
X91948000Y-107049604D01*
X91991983Y-107053936D01*
G37*
G36*
X94531983Y-107053936D02*
G01*
X94582180Y-107053936D01*
X94625524Y-107063149D01*
X94663659Y-107066905D01*
X94711566Y-107081437D01*
X94766424Y-107093098D01*
X94801530Y-107108728D01*
X94832566Y-107118143D01*
X94881884Y-107144504D01*
X94938500Y-107169711D01*
X94964822Y-107188835D01*
X94988232Y-107201348D01*
X95035988Y-107240540D01*
X95090887Y-107280427D01*
X95108711Y-107300223D01*
X95124675Y-107313324D01*
X95167572Y-107365594D01*
X95216924Y-107420405D01*
X95227292Y-107438363D01*
X95236651Y-107449767D01*
X95271273Y-107514542D01*
X95311104Y-107583530D01*
X95315685Y-107597630D01*
X95319856Y-107605433D01*
X95342852Y-107681242D01*
X95369311Y-107762672D01*
X95370242Y-107771532D01*
X95371094Y-107774340D01*
X95379384Y-107858513D01*
X95389000Y-107950000D01*
X95379383Y-108041494D01*
X95371094Y-108125659D01*
X95370242Y-108128466D01*
X95369311Y-108137328D01*
X95342848Y-108218771D01*
X95319856Y-108294566D01*
X95315686Y-108302366D01*
X95311104Y-108316470D01*
X95271266Y-108385470D01*
X95236651Y-108450232D01*
X95227294Y-108461633D01*
X95216924Y-108479595D01*
X95167563Y-108534415D01*
X95124675Y-108586675D01*
X95108714Y-108599773D01*
X95090887Y-108619573D01*
X95035977Y-108659467D01*
X94988232Y-108698651D01*
X94964827Y-108711161D01*
X94938500Y-108730289D01*
X94881873Y-108755500D01*
X94832566Y-108781856D01*
X94801537Y-108791268D01*
X94766424Y-108806902D01*
X94711555Y-108818564D01*
X94663659Y-108833094D01*
X94625532Y-108836849D01*
X94582180Y-108846064D01*
X94531973Y-108846064D01*
X94488000Y-108850395D01*
X94444027Y-108846064D01*
X94393820Y-108846064D01*
X94350467Y-108836849D01*
X94312340Y-108833094D01*
X94264441Y-108818563D01*
X94209576Y-108806902D01*
X94174464Y-108791269D01*
X94143433Y-108781856D01*
X94094120Y-108755498D01*
X94037500Y-108730289D01*
X94011175Y-108711163D01*
X93987767Y-108698651D01*
X93940013Y-108659460D01*
X93885113Y-108619573D01*
X93867287Y-108599776D01*
X93851324Y-108586675D01*
X93808425Y-108534402D01*
X93759076Y-108479595D01*
X93748708Y-108461637D01*
X93739348Y-108450232D01*
X93704719Y-108385447D01*
X93664896Y-108316470D01*
X93660315Y-108302371D01*
X93656143Y-108294566D01*
X93633136Y-108218725D01*
X93606689Y-108137328D01*
X93605758Y-108128471D01*
X93604905Y-108125659D01*
X93596600Y-108041342D01*
X93587000Y-107950000D01*
X93596599Y-107858664D01*
X93604905Y-107774340D01*
X93605758Y-107771527D01*
X93606689Y-107762672D01*
X93633132Y-107681288D01*
X93656143Y-107605433D01*
X93660315Y-107597626D01*
X93664896Y-107583530D01*
X93704712Y-107514565D01*
X93739348Y-107449767D01*
X93748710Y-107438359D01*
X93759076Y-107420405D01*
X93808416Y-107365607D01*
X93851324Y-107313324D01*
X93867291Y-107300219D01*
X93885113Y-107280427D01*
X93940002Y-107240546D01*
X93987767Y-107201348D01*
X94011180Y-107188833D01*
X94037500Y-107169711D01*
X94094109Y-107144506D01*
X94143433Y-107118143D01*
X94174471Y-107108727D01*
X94209576Y-107093098D01*
X94264430Y-107081438D01*
X94312340Y-107066905D01*
X94350476Y-107063148D01*
X94393820Y-107053936D01*
X94444016Y-107053936D01*
X94488000Y-107049604D01*
X94531983Y-107053936D01*
G37*
G36*
X134470838Y-106078817D02*
G01*
X134516823Y-106078817D01*
X134568039Y-106088390D01*
X134624940Y-106093995D01*
X134668161Y-106107106D01*
X134707374Y-106114436D01*
X134761685Y-106135476D01*
X134822100Y-106153803D01*
X134856620Y-106172254D01*
X134888132Y-106184462D01*
X134942877Y-106218359D01*
X135003804Y-106250925D01*
X135029406Y-106271936D01*
X135052948Y-106286513D01*
X135105112Y-106334067D01*
X135163069Y-106381631D01*
X135180242Y-106402557D01*
X135196201Y-106417105D01*
X135242529Y-106478453D01*
X135293775Y-106540896D01*
X135303683Y-106559434D01*
X135313022Y-106571800D01*
X135350174Y-106646413D01*
X135390897Y-106722600D01*
X135395240Y-106736917D01*
X135399428Y-106745328D01*
X135424167Y-106832276D01*
X135450705Y-106919760D01*
X135451576Y-106928611D01*
X135452477Y-106931775D01*
X135461838Y-107032802D01*
X135470900Y-107124800D01*
X135461838Y-107216805D01*
X135452477Y-107317824D01*
X135451576Y-107320987D01*
X135450705Y-107329840D01*
X135424162Y-107417338D01*
X135399428Y-107504271D01*
X135395241Y-107512679D01*
X135390897Y-107527000D01*
X135350167Y-107603199D01*
X135313022Y-107677799D01*
X135303685Y-107690162D01*
X135293775Y-107708704D01*
X135242520Y-107771157D01*
X135196201Y-107832494D01*
X135180245Y-107847038D01*
X135163069Y-107867969D01*
X135105101Y-107915541D01*
X135052948Y-107963086D01*
X135029411Y-107977659D01*
X135003804Y-107998675D01*
X134942865Y-108031247D01*
X134888132Y-108065137D01*
X134856626Y-108077342D01*
X134822100Y-108095797D01*
X134761673Y-108114127D01*
X134707374Y-108135163D01*
X134668168Y-108142491D01*
X134624940Y-108155605D01*
X134568036Y-108161209D01*
X134516823Y-108170783D01*
X134470838Y-108170783D01*
X134419900Y-108175800D01*
X134368962Y-108170783D01*
X134322977Y-108170783D01*
X134271763Y-108161209D01*
X134214860Y-108155605D01*
X134171632Y-108142492D01*
X134132425Y-108135163D01*
X134078121Y-108114125D01*
X134017700Y-108095797D01*
X133983175Y-108077343D01*
X133951667Y-108065137D01*
X133896927Y-108031243D01*
X133835996Y-107998675D01*
X133810391Y-107977661D01*
X133786851Y-107963086D01*
X133734688Y-107915533D01*
X133676731Y-107867969D01*
X133659556Y-107847042D01*
X133643598Y-107832494D01*
X133597267Y-107771142D01*
X133546025Y-107708704D01*
X133536116Y-107690166D01*
X133526777Y-107677799D01*
X133489617Y-107603172D01*
X133448903Y-107527000D01*
X133444560Y-107512684D01*
X133440371Y-107504271D01*
X133415621Y-107417285D01*
X133389095Y-107329840D01*
X133388223Y-107320992D01*
X133387322Y-107317824D01*
X133377944Y-107216633D01*
X133368900Y-107124800D01*
X133377944Y-107032973D01*
X133387322Y-106931775D01*
X133388223Y-106928605D01*
X133389095Y-106919760D01*
X133415616Y-106832329D01*
X133440371Y-106745328D01*
X133444561Y-106736912D01*
X133448903Y-106722600D01*
X133489610Y-106646441D01*
X133526777Y-106571800D01*
X133536118Y-106559429D01*
X133546025Y-106540896D01*
X133597257Y-106478468D01*
X133643598Y-106417105D01*
X133659560Y-106402553D01*
X133676731Y-106381631D01*
X133734677Y-106334075D01*
X133786851Y-106286513D01*
X133810396Y-106271934D01*
X133835996Y-106250925D01*
X133896915Y-106218363D01*
X133951667Y-106184462D01*
X133983182Y-106172252D01*
X134017700Y-106153803D01*
X134078109Y-106135477D01*
X134132425Y-106114436D01*
X134171639Y-106107105D01*
X134214860Y-106093995D01*
X134271760Y-106088390D01*
X134322977Y-106078817D01*
X134368962Y-106078817D01*
X134419900Y-106073800D01*
X134470838Y-106078817D01*
G37*
G36*
X141939417Y-106077682D02*
G01*
X141955962Y-106088738D01*
X141967018Y-106105283D01*
X141970900Y-106124800D01*
X141970900Y-108124800D01*
X141967018Y-108144317D01*
X141955962Y-108160862D01*
X141939417Y-108171918D01*
X141919900Y-108175800D01*
X139919900Y-108175800D01*
X139900383Y-108171918D01*
X139883838Y-108160862D01*
X139872782Y-108144317D01*
X139868900Y-108124800D01*
X139868900Y-106124800D01*
X139872782Y-106105283D01*
X139883838Y-106088738D01*
X139900383Y-106077682D01*
X139919900Y-106073800D01*
X141919900Y-106073800D01*
X141939417Y-106077682D01*
G37*
G36*
X91991983Y-104513936D02*
G01*
X92042180Y-104513936D01*
X92085524Y-104523149D01*
X92123659Y-104526905D01*
X92171566Y-104541437D01*
X92226424Y-104553098D01*
X92261530Y-104568728D01*
X92292566Y-104578143D01*
X92341884Y-104604504D01*
X92398500Y-104629711D01*
X92424822Y-104648835D01*
X92448232Y-104661348D01*
X92495988Y-104700540D01*
X92550887Y-104740427D01*
X92568711Y-104760223D01*
X92584675Y-104773324D01*
X92627572Y-104825594D01*
X92676924Y-104880405D01*
X92687292Y-104898363D01*
X92696651Y-104909767D01*
X92731273Y-104974542D01*
X92771104Y-105043530D01*
X92775685Y-105057630D01*
X92779856Y-105065433D01*
X92802852Y-105141242D01*
X92829311Y-105222672D01*
X92830242Y-105231532D01*
X92831094Y-105234340D01*
X92839384Y-105318513D01*
X92849000Y-105410000D01*
X92839383Y-105501494D01*
X92831094Y-105585659D01*
X92830242Y-105588466D01*
X92829311Y-105597328D01*
X92802848Y-105678771D01*
X92779856Y-105754566D01*
X92775686Y-105762366D01*
X92771104Y-105776470D01*
X92731266Y-105845470D01*
X92696651Y-105910232D01*
X92687294Y-105921633D01*
X92676924Y-105939595D01*
X92627563Y-105994415D01*
X92584675Y-106046675D01*
X92568714Y-106059773D01*
X92550887Y-106079573D01*
X92495977Y-106119467D01*
X92448232Y-106158651D01*
X92424827Y-106171161D01*
X92398500Y-106190289D01*
X92341873Y-106215500D01*
X92292566Y-106241856D01*
X92261537Y-106251268D01*
X92226424Y-106266902D01*
X92171555Y-106278564D01*
X92123659Y-106293094D01*
X92085532Y-106296849D01*
X92042180Y-106306064D01*
X91991973Y-106306064D01*
X91948000Y-106310395D01*
X91904027Y-106306064D01*
X91853820Y-106306064D01*
X91810467Y-106296849D01*
X91772340Y-106293094D01*
X91724441Y-106278563D01*
X91669576Y-106266902D01*
X91634464Y-106251269D01*
X91603433Y-106241856D01*
X91554120Y-106215498D01*
X91497500Y-106190289D01*
X91471175Y-106171163D01*
X91447767Y-106158651D01*
X91400013Y-106119460D01*
X91345113Y-106079573D01*
X91327287Y-106059776D01*
X91311324Y-106046675D01*
X91268425Y-105994402D01*
X91219076Y-105939595D01*
X91208708Y-105921637D01*
X91199348Y-105910232D01*
X91164719Y-105845447D01*
X91124896Y-105776470D01*
X91120315Y-105762371D01*
X91116143Y-105754566D01*
X91093136Y-105678725D01*
X91066689Y-105597328D01*
X91065758Y-105588471D01*
X91064905Y-105585659D01*
X91056600Y-105501342D01*
X91047000Y-105410000D01*
X91056599Y-105318664D01*
X91064905Y-105234340D01*
X91065758Y-105231527D01*
X91066689Y-105222672D01*
X91093132Y-105141288D01*
X91116143Y-105065433D01*
X91120315Y-105057626D01*
X91124896Y-105043530D01*
X91164712Y-104974565D01*
X91199348Y-104909767D01*
X91208710Y-104898359D01*
X91219076Y-104880405D01*
X91268416Y-104825607D01*
X91311324Y-104773324D01*
X91327291Y-104760219D01*
X91345113Y-104740427D01*
X91400002Y-104700546D01*
X91447767Y-104661348D01*
X91471180Y-104648833D01*
X91497500Y-104629711D01*
X91554109Y-104604506D01*
X91603433Y-104578143D01*
X91634471Y-104568727D01*
X91669576Y-104553098D01*
X91724430Y-104541438D01*
X91772340Y-104526905D01*
X91810476Y-104523148D01*
X91853820Y-104513936D01*
X91904016Y-104513936D01*
X91948000Y-104509604D01*
X91991983Y-104513936D01*
G37*
G36*
X94531983Y-104513936D02*
G01*
X94582180Y-104513936D01*
X94625524Y-104523149D01*
X94663659Y-104526905D01*
X94711566Y-104541437D01*
X94766424Y-104553098D01*
X94801530Y-104568728D01*
X94832566Y-104578143D01*
X94881884Y-104604504D01*
X94938500Y-104629711D01*
X94964822Y-104648835D01*
X94988232Y-104661348D01*
X95035988Y-104700540D01*
X95090887Y-104740427D01*
X95108711Y-104760223D01*
X95124675Y-104773324D01*
X95167572Y-104825594D01*
X95216924Y-104880405D01*
X95227292Y-104898363D01*
X95236651Y-104909767D01*
X95271273Y-104974542D01*
X95311104Y-105043530D01*
X95315685Y-105057630D01*
X95319856Y-105065433D01*
X95342852Y-105141242D01*
X95369311Y-105222672D01*
X95370242Y-105231532D01*
X95371094Y-105234340D01*
X95379384Y-105318513D01*
X95389000Y-105410000D01*
X95379383Y-105501494D01*
X95371094Y-105585659D01*
X95370242Y-105588466D01*
X95369311Y-105597328D01*
X95342848Y-105678771D01*
X95319856Y-105754566D01*
X95315686Y-105762366D01*
X95311104Y-105776470D01*
X95271266Y-105845470D01*
X95236651Y-105910232D01*
X95227294Y-105921633D01*
X95216924Y-105939595D01*
X95167563Y-105994415D01*
X95124675Y-106046675D01*
X95108714Y-106059773D01*
X95090887Y-106079573D01*
X95035977Y-106119467D01*
X94988232Y-106158651D01*
X94964827Y-106171161D01*
X94938500Y-106190289D01*
X94881873Y-106215500D01*
X94832566Y-106241856D01*
X94801537Y-106251268D01*
X94766424Y-106266902D01*
X94711555Y-106278564D01*
X94663659Y-106293094D01*
X94625532Y-106296849D01*
X94582180Y-106306064D01*
X94531973Y-106306064D01*
X94488000Y-106310395D01*
X94444027Y-106306064D01*
X94393820Y-106306064D01*
X94350467Y-106296849D01*
X94312340Y-106293094D01*
X94264441Y-106278563D01*
X94209576Y-106266902D01*
X94174464Y-106251269D01*
X94143433Y-106241856D01*
X94094120Y-106215498D01*
X94037500Y-106190289D01*
X94011175Y-106171163D01*
X93987767Y-106158651D01*
X93940013Y-106119460D01*
X93885113Y-106079573D01*
X93867287Y-106059776D01*
X93851324Y-106046675D01*
X93808425Y-105994402D01*
X93759076Y-105939595D01*
X93748708Y-105921637D01*
X93739348Y-105910232D01*
X93704719Y-105845447D01*
X93664896Y-105776470D01*
X93660315Y-105762371D01*
X93656143Y-105754566D01*
X93633136Y-105678725D01*
X93606689Y-105597328D01*
X93605758Y-105588471D01*
X93604905Y-105585659D01*
X93596600Y-105501342D01*
X93587000Y-105410000D01*
X93596599Y-105318664D01*
X93604905Y-105234340D01*
X93605758Y-105231527D01*
X93606689Y-105222672D01*
X93633132Y-105141288D01*
X93656143Y-105065433D01*
X93660315Y-105057626D01*
X93664896Y-105043530D01*
X93704712Y-104974565D01*
X93739348Y-104909767D01*
X93748710Y-104898359D01*
X93759076Y-104880405D01*
X93808416Y-104825607D01*
X93851324Y-104773324D01*
X93867291Y-104760219D01*
X93885113Y-104740427D01*
X93940002Y-104700546D01*
X93987767Y-104661348D01*
X94011180Y-104648833D01*
X94037500Y-104629711D01*
X94094109Y-104604506D01*
X94143433Y-104578143D01*
X94174471Y-104568727D01*
X94209576Y-104553098D01*
X94264430Y-104541438D01*
X94312340Y-104526905D01*
X94350476Y-104523148D01*
X94393820Y-104513936D01*
X94444016Y-104513936D01*
X94488000Y-104509604D01*
X94531983Y-104513936D01*
G37*
G36*
X91991983Y-101973936D02*
G01*
X92042180Y-101973936D01*
X92085524Y-101983149D01*
X92123659Y-101986905D01*
X92171566Y-102001437D01*
X92226424Y-102013098D01*
X92261530Y-102028728D01*
X92292566Y-102038143D01*
X92341884Y-102064504D01*
X92398500Y-102089711D01*
X92424822Y-102108835D01*
X92448232Y-102121348D01*
X92495988Y-102160540D01*
X92550887Y-102200427D01*
X92568711Y-102220223D01*
X92584675Y-102233324D01*
X92627572Y-102285594D01*
X92676924Y-102340405D01*
X92687292Y-102358363D01*
X92696651Y-102369767D01*
X92731273Y-102434542D01*
X92771104Y-102503530D01*
X92775685Y-102517630D01*
X92779856Y-102525433D01*
X92802852Y-102601242D01*
X92829311Y-102682672D01*
X92830242Y-102691532D01*
X92831094Y-102694340D01*
X92839384Y-102778513D01*
X92849000Y-102870000D01*
X92839383Y-102961494D01*
X92831094Y-103045659D01*
X92830242Y-103048466D01*
X92829311Y-103057328D01*
X92802848Y-103138771D01*
X92779856Y-103214566D01*
X92775686Y-103222366D01*
X92771104Y-103236470D01*
X92731266Y-103305470D01*
X92696651Y-103370232D01*
X92687294Y-103381633D01*
X92676924Y-103399595D01*
X92627563Y-103454415D01*
X92584675Y-103506675D01*
X92568714Y-103519773D01*
X92550887Y-103539573D01*
X92495977Y-103579467D01*
X92448232Y-103618651D01*
X92424827Y-103631161D01*
X92398500Y-103650289D01*
X92341873Y-103675500D01*
X92292566Y-103701856D01*
X92261537Y-103711268D01*
X92226424Y-103726902D01*
X92171555Y-103738564D01*
X92123659Y-103753094D01*
X92085532Y-103756849D01*
X92042180Y-103766064D01*
X91991973Y-103766064D01*
X91948000Y-103770395D01*
X91904027Y-103766064D01*
X91853820Y-103766064D01*
X91810467Y-103756849D01*
X91772340Y-103753094D01*
X91724441Y-103738563D01*
X91669576Y-103726902D01*
X91634464Y-103711269D01*
X91603433Y-103701856D01*
X91554120Y-103675498D01*
X91497500Y-103650289D01*
X91471175Y-103631163D01*
X91447767Y-103618651D01*
X91400013Y-103579460D01*
X91345113Y-103539573D01*
X91327287Y-103519776D01*
X91311324Y-103506675D01*
X91268425Y-103454402D01*
X91219076Y-103399595D01*
X91208708Y-103381637D01*
X91199348Y-103370232D01*
X91164719Y-103305447D01*
X91124896Y-103236470D01*
X91120315Y-103222371D01*
X91116143Y-103214566D01*
X91093136Y-103138725D01*
X91066689Y-103057328D01*
X91065758Y-103048471D01*
X91064905Y-103045659D01*
X91056600Y-102961342D01*
X91047000Y-102870000D01*
X91056599Y-102778664D01*
X91064905Y-102694340D01*
X91065758Y-102691527D01*
X91066689Y-102682672D01*
X91093132Y-102601288D01*
X91116143Y-102525433D01*
X91120315Y-102517626D01*
X91124896Y-102503530D01*
X91164712Y-102434565D01*
X91199348Y-102369767D01*
X91208710Y-102358359D01*
X91219076Y-102340405D01*
X91268416Y-102285607D01*
X91311324Y-102233324D01*
X91327291Y-102220219D01*
X91345113Y-102200427D01*
X91400002Y-102160546D01*
X91447767Y-102121348D01*
X91471180Y-102108833D01*
X91497500Y-102089711D01*
X91554109Y-102064506D01*
X91603433Y-102038143D01*
X91634471Y-102028727D01*
X91669576Y-102013098D01*
X91724430Y-102001438D01*
X91772340Y-101986905D01*
X91810476Y-101983148D01*
X91853820Y-101973936D01*
X91904016Y-101973936D01*
X91948000Y-101969604D01*
X91991983Y-101973936D01*
G37*
G36*
X94531983Y-101973936D02*
G01*
X94582180Y-101973936D01*
X94625524Y-101983149D01*
X94663659Y-101986905D01*
X94711566Y-102001437D01*
X94766424Y-102013098D01*
X94801530Y-102028728D01*
X94832566Y-102038143D01*
X94881884Y-102064504D01*
X94938500Y-102089711D01*
X94964822Y-102108835D01*
X94988232Y-102121348D01*
X95035988Y-102160540D01*
X95090887Y-102200427D01*
X95108711Y-102220223D01*
X95124675Y-102233324D01*
X95167572Y-102285594D01*
X95216924Y-102340405D01*
X95227292Y-102358363D01*
X95236651Y-102369767D01*
X95271273Y-102434542D01*
X95311104Y-102503530D01*
X95315685Y-102517630D01*
X95319856Y-102525433D01*
X95342852Y-102601242D01*
X95369311Y-102682672D01*
X95370242Y-102691532D01*
X95371094Y-102694340D01*
X95379384Y-102778513D01*
X95389000Y-102870000D01*
X95379383Y-102961494D01*
X95371094Y-103045659D01*
X95370242Y-103048466D01*
X95369311Y-103057328D01*
X95342848Y-103138771D01*
X95319856Y-103214566D01*
X95315686Y-103222366D01*
X95311104Y-103236470D01*
X95271266Y-103305470D01*
X95236651Y-103370232D01*
X95227294Y-103381633D01*
X95216924Y-103399595D01*
X95167563Y-103454415D01*
X95124675Y-103506675D01*
X95108714Y-103519773D01*
X95090887Y-103539573D01*
X95035977Y-103579467D01*
X94988232Y-103618651D01*
X94964827Y-103631161D01*
X94938500Y-103650289D01*
X94881873Y-103675500D01*
X94832566Y-103701856D01*
X94801537Y-103711268D01*
X94766424Y-103726902D01*
X94711555Y-103738564D01*
X94663659Y-103753094D01*
X94625532Y-103756849D01*
X94582180Y-103766064D01*
X94531973Y-103766064D01*
X94488000Y-103770395D01*
X94444027Y-103766064D01*
X94393820Y-103766064D01*
X94350467Y-103756849D01*
X94312340Y-103753094D01*
X94264441Y-103738563D01*
X94209576Y-103726902D01*
X94174464Y-103711269D01*
X94143433Y-103701856D01*
X94094120Y-103675498D01*
X94037500Y-103650289D01*
X94011175Y-103631163D01*
X93987767Y-103618651D01*
X93940013Y-103579460D01*
X93885113Y-103539573D01*
X93867287Y-103519776D01*
X93851324Y-103506675D01*
X93808425Y-103454402D01*
X93759076Y-103399595D01*
X93748708Y-103381637D01*
X93739348Y-103370232D01*
X93704719Y-103305447D01*
X93664896Y-103236470D01*
X93660315Y-103222371D01*
X93656143Y-103214566D01*
X93633136Y-103138725D01*
X93606689Y-103057328D01*
X93605758Y-103048471D01*
X93604905Y-103045659D01*
X93596600Y-102961342D01*
X93587000Y-102870000D01*
X93596599Y-102778664D01*
X93604905Y-102694340D01*
X93605758Y-102691527D01*
X93606689Y-102682672D01*
X93633132Y-102601288D01*
X93656143Y-102525433D01*
X93660315Y-102517626D01*
X93664896Y-102503530D01*
X93704712Y-102434565D01*
X93739348Y-102369767D01*
X93748710Y-102358359D01*
X93759076Y-102340405D01*
X93808416Y-102285607D01*
X93851324Y-102233324D01*
X93867291Y-102220219D01*
X93885113Y-102200427D01*
X93940002Y-102160546D01*
X93987767Y-102121348D01*
X94011180Y-102108833D01*
X94037500Y-102089711D01*
X94094109Y-102064506D01*
X94143433Y-102038143D01*
X94174471Y-102028727D01*
X94209576Y-102013098D01*
X94264430Y-102001438D01*
X94312340Y-101986905D01*
X94350476Y-101983148D01*
X94393820Y-101973936D01*
X94444016Y-101973936D01*
X94488000Y-101969604D01*
X94531983Y-101973936D01*
G37*
G36*
X91991983Y-99433936D02*
G01*
X92042180Y-99433936D01*
X92085524Y-99443149D01*
X92123659Y-99446905D01*
X92171566Y-99461437D01*
X92226424Y-99473098D01*
X92261530Y-99488728D01*
X92292566Y-99498143D01*
X92341884Y-99524504D01*
X92398500Y-99549711D01*
X92424822Y-99568835D01*
X92448232Y-99581348D01*
X92495988Y-99620540D01*
X92550887Y-99660427D01*
X92568711Y-99680223D01*
X92584675Y-99693324D01*
X92627572Y-99745594D01*
X92676924Y-99800405D01*
X92687292Y-99818363D01*
X92696651Y-99829767D01*
X92731273Y-99894542D01*
X92771104Y-99963530D01*
X92775685Y-99977630D01*
X92779856Y-99985433D01*
X92802852Y-100061242D01*
X92829311Y-100142672D01*
X92830242Y-100151532D01*
X92831094Y-100154340D01*
X92839384Y-100238513D01*
X92849000Y-100330000D01*
X92839383Y-100421494D01*
X92831094Y-100505659D01*
X92830242Y-100508466D01*
X92829311Y-100517328D01*
X92802848Y-100598771D01*
X92779856Y-100674566D01*
X92775686Y-100682366D01*
X92771104Y-100696470D01*
X92731266Y-100765470D01*
X92696651Y-100830232D01*
X92687294Y-100841633D01*
X92676924Y-100859595D01*
X92627563Y-100914415D01*
X92584675Y-100966675D01*
X92568714Y-100979773D01*
X92550887Y-100999573D01*
X92495977Y-101039467D01*
X92448232Y-101078651D01*
X92424827Y-101091161D01*
X92398500Y-101110289D01*
X92341873Y-101135500D01*
X92292566Y-101161856D01*
X92261537Y-101171268D01*
X92226424Y-101186902D01*
X92171555Y-101198564D01*
X92123659Y-101213094D01*
X92085532Y-101216849D01*
X92042180Y-101226064D01*
X91991973Y-101226064D01*
X91948000Y-101230395D01*
X91904027Y-101226064D01*
X91853820Y-101226064D01*
X91810467Y-101216849D01*
X91772340Y-101213094D01*
X91724441Y-101198563D01*
X91669576Y-101186902D01*
X91634464Y-101171269D01*
X91603433Y-101161856D01*
X91554120Y-101135498D01*
X91497500Y-101110289D01*
X91471175Y-101091163D01*
X91447767Y-101078651D01*
X91400013Y-101039460D01*
X91345113Y-100999573D01*
X91327287Y-100979776D01*
X91311324Y-100966675D01*
X91268425Y-100914402D01*
X91219076Y-100859595D01*
X91208708Y-100841637D01*
X91199348Y-100830232D01*
X91164719Y-100765447D01*
X91124896Y-100696470D01*
X91120315Y-100682371D01*
X91116143Y-100674566D01*
X91093136Y-100598725D01*
X91066689Y-100517328D01*
X91065758Y-100508471D01*
X91064905Y-100505659D01*
X91056600Y-100421342D01*
X91047000Y-100330000D01*
X91056599Y-100238664D01*
X91064905Y-100154340D01*
X91065758Y-100151527D01*
X91066689Y-100142672D01*
X91093132Y-100061288D01*
X91116143Y-99985433D01*
X91120315Y-99977626D01*
X91124896Y-99963530D01*
X91164712Y-99894565D01*
X91199348Y-99829767D01*
X91208710Y-99818359D01*
X91219076Y-99800405D01*
X91268416Y-99745607D01*
X91311324Y-99693324D01*
X91327291Y-99680219D01*
X91345113Y-99660427D01*
X91400002Y-99620546D01*
X91447767Y-99581348D01*
X91471180Y-99568833D01*
X91497500Y-99549711D01*
X91554109Y-99524506D01*
X91603433Y-99498143D01*
X91634471Y-99488727D01*
X91669576Y-99473098D01*
X91724430Y-99461438D01*
X91772340Y-99446905D01*
X91810476Y-99443148D01*
X91853820Y-99433936D01*
X91904016Y-99433936D01*
X91948000Y-99429604D01*
X91991983Y-99433936D01*
G37*
G36*
X94531983Y-99433936D02*
G01*
X94582180Y-99433936D01*
X94625524Y-99443149D01*
X94663659Y-99446905D01*
X94711566Y-99461437D01*
X94766424Y-99473098D01*
X94801530Y-99488728D01*
X94832566Y-99498143D01*
X94881884Y-99524504D01*
X94938500Y-99549711D01*
X94964822Y-99568835D01*
X94988232Y-99581348D01*
X95035988Y-99620540D01*
X95090887Y-99660427D01*
X95108711Y-99680223D01*
X95124675Y-99693324D01*
X95167572Y-99745594D01*
X95216924Y-99800405D01*
X95227292Y-99818363D01*
X95236651Y-99829767D01*
X95271273Y-99894542D01*
X95311104Y-99963530D01*
X95315685Y-99977630D01*
X95319856Y-99985433D01*
X95342852Y-100061242D01*
X95369311Y-100142672D01*
X95370242Y-100151532D01*
X95371094Y-100154340D01*
X95379384Y-100238513D01*
X95389000Y-100330000D01*
X95379383Y-100421494D01*
X95371094Y-100505659D01*
X95370242Y-100508466D01*
X95369311Y-100517328D01*
X95342848Y-100598771D01*
X95319856Y-100674566D01*
X95315686Y-100682366D01*
X95311104Y-100696470D01*
X95271266Y-100765470D01*
X95236651Y-100830232D01*
X95227294Y-100841633D01*
X95216924Y-100859595D01*
X95167563Y-100914415D01*
X95124675Y-100966675D01*
X95108714Y-100979773D01*
X95090887Y-100999573D01*
X95035977Y-101039467D01*
X94988232Y-101078651D01*
X94964827Y-101091161D01*
X94938500Y-101110289D01*
X94881873Y-101135500D01*
X94832566Y-101161856D01*
X94801537Y-101171268D01*
X94766424Y-101186902D01*
X94711555Y-101198564D01*
X94663659Y-101213094D01*
X94625532Y-101216849D01*
X94582180Y-101226064D01*
X94531973Y-101226064D01*
X94488000Y-101230395D01*
X94444027Y-101226064D01*
X94393820Y-101226064D01*
X94350467Y-101216849D01*
X94312340Y-101213094D01*
X94264441Y-101198563D01*
X94209576Y-101186902D01*
X94174464Y-101171269D01*
X94143433Y-101161856D01*
X94094120Y-101135498D01*
X94037500Y-101110289D01*
X94011175Y-101091163D01*
X93987767Y-101078651D01*
X93940013Y-101039460D01*
X93885113Y-100999573D01*
X93867287Y-100979776D01*
X93851324Y-100966675D01*
X93808425Y-100914402D01*
X93759076Y-100859595D01*
X93748708Y-100841637D01*
X93739348Y-100830232D01*
X93704719Y-100765447D01*
X93664896Y-100696470D01*
X93660315Y-100682371D01*
X93656143Y-100674566D01*
X93633136Y-100598725D01*
X93606689Y-100517328D01*
X93605758Y-100508471D01*
X93604905Y-100505659D01*
X93596600Y-100421342D01*
X93587000Y-100330000D01*
X93596599Y-100238664D01*
X93604905Y-100154340D01*
X93605758Y-100151527D01*
X93606689Y-100142672D01*
X93633132Y-100061288D01*
X93656143Y-99985433D01*
X93660315Y-99977626D01*
X93664896Y-99963530D01*
X93704712Y-99894565D01*
X93739348Y-99829767D01*
X93748710Y-99818359D01*
X93759076Y-99800405D01*
X93808416Y-99745607D01*
X93851324Y-99693324D01*
X93867291Y-99680219D01*
X93885113Y-99660427D01*
X93940002Y-99620546D01*
X93987767Y-99581348D01*
X94011180Y-99568833D01*
X94037500Y-99549711D01*
X94094109Y-99524506D01*
X94143433Y-99498143D01*
X94174471Y-99488727D01*
X94209576Y-99473098D01*
X94264430Y-99461438D01*
X94312340Y-99446905D01*
X94350476Y-99443148D01*
X94393820Y-99433936D01*
X94444016Y-99433936D01*
X94488000Y-99429604D01*
X94531983Y-99433936D01*
G37*
G36*
X91991983Y-96893936D02*
G01*
X92042180Y-96893936D01*
X92085524Y-96903149D01*
X92123659Y-96906905D01*
X92171566Y-96921437D01*
X92226424Y-96933098D01*
X92261530Y-96948728D01*
X92292566Y-96958143D01*
X92341884Y-96984504D01*
X92398500Y-97009711D01*
X92424822Y-97028835D01*
X92448232Y-97041348D01*
X92495988Y-97080540D01*
X92550887Y-97120427D01*
X92568711Y-97140223D01*
X92584675Y-97153324D01*
X92627572Y-97205594D01*
X92676924Y-97260405D01*
X92687292Y-97278363D01*
X92696651Y-97289767D01*
X92731273Y-97354542D01*
X92771104Y-97423530D01*
X92775685Y-97437630D01*
X92779856Y-97445433D01*
X92802852Y-97521242D01*
X92829311Y-97602672D01*
X92830242Y-97611532D01*
X92831094Y-97614340D01*
X92839384Y-97698513D01*
X92849000Y-97790000D01*
X92839383Y-97881494D01*
X92831094Y-97965659D01*
X92830242Y-97968466D01*
X92829311Y-97977328D01*
X92802848Y-98058771D01*
X92779856Y-98134566D01*
X92775686Y-98142366D01*
X92771104Y-98156470D01*
X92731266Y-98225470D01*
X92696651Y-98290232D01*
X92687294Y-98301633D01*
X92676924Y-98319595D01*
X92627563Y-98374415D01*
X92584675Y-98426675D01*
X92568714Y-98439773D01*
X92550887Y-98459573D01*
X92495977Y-98499467D01*
X92448232Y-98538651D01*
X92424827Y-98551161D01*
X92398500Y-98570289D01*
X92341873Y-98595500D01*
X92292566Y-98621856D01*
X92261537Y-98631268D01*
X92226424Y-98646902D01*
X92171555Y-98658564D01*
X92123659Y-98673094D01*
X92085532Y-98676849D01*
X92042180Y-98686064D01*
X91991973Y-98686064D01*
X91948000Y-98690395D01*
X91904027Y-98686064D01*
X91853820Y-98686064D01*
X91810467Y-98676849D01*
X91772340Y-98673094D01*
X91724441Y-98658563D01*
X91669576Y-98646902D01*
X91634464Y-98631269D01*
X91603433Y-98621856D01*
X91554120Y-98595498D01*
X91497500Y-98570289D01*
X91471175Y-98551163D01*
X91447767Y-98538651D01*
X91400013Y-98499460D01*
X91345113Y-98459573D01*
X91327287Y-98439776D01*
X91311324Y-98426675D01*
X91268425Y-98374402D01*
X91219076Y-98319595D01*
X91208708Y-98301637D01*
X91199348Y-98290232D01*
X91164719Y-98225447D01*
X91124896Y-98156470D01*
X91120315Y-98142371D01*
X91116143Y-98134566D01*
X91093136Y-98058725D01*
X91066689Y-97977328D01*
X91065758Y-97968471D01*
X91064905Y-97965659D01*
X91056600Y-97881342D01*
X91047000Y-97790000D01*
X91056599Y-97698664D01*
X91064905Y-97614340D01*
X91065758Y-97611527D01*
X91066689Y-97602672D01*
X91093132Y-97521288D01*
X91116143Y-97445433D01*
X91120315Y-97437626D01*
X91124896Y-97423530D01*
X91164712Y-97354565D01*
X91199348Y-97289767D01*
X91208710Y-97278359D01*
X91219076Y-97260405D01*
X91268416Y-97205607D01*
X91311324Y-97153324D01*
X91327291Y-97140219D01*
X91345113Y-97120427D01*
X91400002Y-97080546D01*
X91447767Y-97041348D01*
X91471180Y-97028833D01*
X91497500Y-97009711D01*
X91554109Y-96984506D01*
X91603433Y-96958143D01*
X91634471Y-96948727D01*
X91669576Y-96933098D01*
X91724430Y-96921438D01*
X91772340Y-96906905D01*
X91810476Y-96903148D01*
X91853820Y-96893936D01*
X91904016Y-96893936D01*
X91948000Y-96889604D01*
X91991983Y-96893936D01*
G37*
G36*
X94531983Y-96893936D02*
G01*
X94582180Y-96893936D01*
X94625524Y-96903149D01*
X94663659Y-96906905D01*
X94711566Y-96921437D01*
X94766424Y-96933098D01*
X94801530Y-96948728D01*
X94832566Y-96958143D01*
X94881884Y-96984504D01*
X94938500Y-97009711D01*
X94964822Y-97028835D01*
X94988232Y-97041348D01*
X95035988Y-97080540D01*
X95090887Y-97120427D01*
X95108711Y-97140223D01*
X95124675Y-97153324D01*
X95167572Y-97205594D01*
X95216924Y-97260405D01*
X95227292Y-97278363D01*
X95236651Y-97289767D01*
X95271273Y-97354542D01*
X95311104Y-97423530D01*
X95315685Y-97437630D01*
X95319856Y-97445433D01*
X95342852Y-97521242D01*
X95369311Y-97602672D01*
X95370242Y-97611532D01*
X95371094Y-97614340D01*
X95379384Y-97698513D01*
X95389000Y-97790000D01*
X95379383Y-97881494D01*
X95371094Y-97965659D01*
X95370242Y-97968466D01*
X95369311Y-97977328D01*
X95342848Y-98058771D01*
X95319856Y-98134566D01*
X95315686Y-98142366D01*
X95311104Y-98156470D01*
X95271266Y-98225470D01*
X95236651Y-98290232D01*
X95227294Y-98301633D01*
X95216924Y-98319595D01*
X95167563Y-98374415D01*
X95124675Y-98426675D01*
X95108714Y-98439773D01*
X95090887Y-98459573D01*
X95035977Y-98499467D01*
X94988232Y-98538651D01*
X94964827Y-98551161D01*
X94938500Y-98570289D01*
X94881873Y-98595500D01*
X94832566Y-98621856D01*
X94801537Y-98631268D01*
X94766424Y-98646902D01*
X94711555Y-98658564D01*
X94663659Y-98673094D01*
X94625532Y-98676849D01*
X94582180Y-98686064D01*
X94531973Y-98686064D01*
X94488000Y-98690395D01*
X94444027Y-98686064D01*
X94393820Y-98686064D01*
X94350467Y-98676849D01*
X94312340Y-98673094D01*
X94264441Y-98658563D01*
X94209576Y-98646902D01*
X94174464Y-98631269D01*
X94143433Y-98621856D01*
X94094120Y-98595498D01*
X94037500Y-98570289D01*
X94011175Y-98551163D01*
X93987767Y-98538651D01*
X93940013Y-98499460D01*
X93885113Y-98459573D01*
X93867287Y-98439776D01*
X93851324Y-98426675D01*
X93808425Y-98374402D01*
X93759076Y-98319595D01*
X93748708Y-98301637D01*
X93739348Y-98290232D01*
X93704719Y-98225447D01*
X93664896Y-98156470D01*
X93660315Y-98142371D01*
X93656143Y-98134566D01*
X93633136Y-98058725D01*
X93606689Y-97977328D01*
X93605758Y-97968471D01*
X93604905Y-97965659D01*
X93596600Y-97881342D01*
X93587000Y-97790000D01*
X93596599Y-97698664D01*
X93604905Y-97614340D01*
X93605758Y-97611527D01*
X93606689Y-97602672D01*
X93633132Y-97521288D01*
X93656143Y-97445433D01*
X93660315Y-97437626D01*
X93664896Y-97423530D01*
X93704712Y-97354565D01*
X93739348Y-97289767D01*
X93748710Y-97278359D01*
X93759076Y-97260405D01*
X93808416Y-97205607D01*
X93851324Y-97153324D01*
X93867291Y-97140219D01*
X93885113Y-97120427D01*
X93940002Y-97080546D01*
X93987767Y-97041348D01*
X94011180Y-97028833D01*
X94037500Y-97009711D01*
X94094109Y-96984506D01*
X94143433Y-96958143D01*
X94174471Y-96948727D01*
X94209576Y-96933098D01*
X94264430Y-96921438D01*
X94312340Y-96906905D01*
X94350476Y-96903148D01*
X94393820Y-96893936D01*
X94444016Y-96893936D01*
X94488000Y-96889604D01*
X94531983Y-96893936D01*
G37*
G36*
X91991983Y-94353936D02*
G01*
X92042180Y-94353936D01*
X92085524Y-94363149D01*
X92123659Y-94366905D01*
X92171566Y-94381437D01*
X92226424Y-94393098D01*
X92261530Y-94408728D01*
X92292566Y-94418143D01*
X92341884Y-94444504D01*
X92398500Y-94469711D01*
X92424822Y-94488835D01*
X92448232Y-94501348D01*
X92495988Y-94540540D01*
X92550887Y-94580427D01*
X92568711Y-94600223D01*
X92584675Y-94613324D01*
X92627572Y-94665594D01*
X92676924Y-94720405D01*
X92687292Y-94738363D01*
X92696651Y-94749767D01*
X92731273Y-94814542D01*
X92771104Y-94883530D01*
X92775685Y-94897630D01*
X92779856Y-94905433D01*
X92802852Y-94981242D01*
X92829311Y-95062672D01*
X92830242Y-95071532D01*
X92831094Y-95074340D01*
X92839384Y-95158513D01*
X92849000Y-95250000D01*
X92839383Y-95341494D01*
X92831094Y-95425659D01*
X92830242Y-95428466D01*
X92829311Y-95437328D01*
X92802848Y-95518771D01*
X92779856Y-95594566D01*
X92775686Y-95602366D01*
X92771104Y-95616470D01*
X92731266Y-95685470D01*
X92696651Y-95750232D01*
X92687294Y-95761633D01*
X92676924Y-95779595D01*
X92627563Y-95834415D01*
X92584675Y-95886675D01*
X92568714Y-95899773D01*
X92550887Y-95919573D01*
X92495977Y-95959467D01*
X92448232Y-95998651D01*
X92424827Y-96011161D01*
X92398500Y-96030289D01*
X92341873Y-96055500D01*
X92292566Y-96081856D01*
X92261537Y-96091268D01*
X92226424Y-96106902D01*
X92171555Y-96118564D01*
X92123659Y-96133094D01*
X92085532Y-96136849D01*
X92042180Y-96146064D01*
X91991973Y-96146064D01*
X91948000Y-96150395D01*
X91904027Y-96146064D01*
X91853820Y-96146064D01*
X91810467Y-96136849D01*
X91772340Y-96133094D01*
X91724441Y-96118563D01*
X91669576Y-96106902D01*
X91634464Y-96091269D01*
X91603433Y-96081856D01*
X91554120Y-96055498D01*
X91497500Y-96030289D01*
X91471175Y-96011163D01*
X91447767Y-95998651D01*
X91400013Y-95959460D01*
X91345113Y-95919573D01*
X91327287Y-95899776D01*
X91311324Y-95886675D01*
X91268425Y-95834402D01*
X91219076Y-95779595D01*
X91208708Y-95761637D01*
X91199348Y-95750232D01*
X91164719Y-95685447D01*
X91124896Y-95616470D01*
X91120315Y-95602371D01*
X91116143Y-95594566D01*
X91093136Y-95518725D01*
X91066689Y-95437328D01*
X91065758Y-95428471D01*
X91064905Y-95425659D01*
X91056600Y-95341342D01*
X91047000Y-95250000D01*
X91056599Y-95158664D01*
X91064905Y-95074340D01*
X91065758Y-95071527D01*
X91066689Y-95062672D01*
X91093132Y-94981288D01*
X91116143Y-94905433D01*
X91120315Y-94897626D01*
X91124896Y-94883530D01*
X91164712Y-94814565D01*
X91199348Y-94749767D01*
X91208710Y-94738359D01*
X91219076Y-94720405D01*
X91268416Y-94665607D01*
X91311324Y-94613324D01*
X91327291Y-94600219D01*
X91345113Y-94580427D01*
X91400002Y-94540546D01*
X91447767Y-94501348D01*
X91471180Y-94488833D01*
X91497500Y-94469711D01*
X91554109Y-94444506D01*
X91603433Y-94418143D01*
X91634471Y-94408727D01*
X91669576Y-94393098D01*
X91724430Y-94381438D01*
X91772340Y-94366905D01*
X91810476Y-94363148D01*
X91853820Y-94353936D01*
X91904016Y-94353936D01*
X91948000Y-94349604D01*
X91991983Y-94353936D01*
G37*
G36*
X94531983Y-94353936D02*
G01*
X94582180Y-94353936D01*
X94625524Y-94363149D01*
X94663659Y-94366905D01*
X94711566Y-94381437D01*
X94766424Y-94393098D01*
X94801530Y-94408728D01*
X94832566Y-94418143D01*
X94881884Y-94444504D01*
X94938500Y-94469711D01*
X94964822Y-94488835D01*
X94988232Y-94501348D01*
X95035988Y-94540540D01*
X95090887Y-94580427D01*
X95108711Y-94600223D01*
X95124675Y-94613324D01*
X95167572Y-94665594D01*
X95216924Y-94720405D01*
X95227292Y-94738363D01*
X95236651Y-94749767D01*
X95271273Y-94814542D01*
X95311104Y-94883530D01*
X95315685Y-94897630D01*
X95319856Y-94905433D01*
X95342852Y-94981242D01*
X95369311Y-95062672D01*
X95370242Y-95071532D01*
X95371094Y-95074340D01*
X95379384Y-95158513D01*
X95389000Y-95250000D01*
X95379383Y-95341494D01*
X95371094Y-95425659D01*
X95370242Y-95428466D01*
X95369311Y-95437328D01*
X95342848Y-95518771D01*
X95319856Y-95594566D01*
X95315686Y-95602366D01*
X95311104Y-95616470D01*
X95271266Y-95685470D01*
X95236651Y-95750232D01*
X95227294Y-95761633D01*
X95216924Y-95779595D01*
X95167563Y-95834415D01*
X95124675Y-95886675D01*
X95108714Y-95899773D01*
X95090887Y-95919573D01*
X95035977Y-95959467D01*
X94988232Y-95998651D01*
X94964827Y-96011161D01*
X94938500Y-96030289D01*
X94881873Y-96055500D01*
X94832566Y-96081856D01*
X94801537Y-96091268D01*
X94766424Y-96106902D01*
X94711555Y-96118564D01*
X94663659Y-96133094D01*
X94625532Y-96136849D01*
X94582180Y-96146064D01*
X94531973Y-96146064D01*
X94488000Y-96150395D01*
X94444027Y-96146064D01*
X94393820Y-96146064D01*
X94350467Y-96136849D01*
X94312340Y-96133094D01*
X94264441Y-96118563D01*
X94209576Y-96106902D01*
X94174464Y-96091269D01*
X94143433Y-96081856D01*
X94094120Y-96055498D01*
X94037500Y-96030289D01*
X94011175Y-96011163D01*
X93987767Y-95998651D01*
X93940013Y-95959460D01*
X93885113Y-95919573D01*
X93867287Y-95899776D01*
X93851324Y-95886675D01*
X93808425Y-95834402D01*
X93759076Y-95779595D01*
X93748708Y-95761637D01*
X93739348Y-95750232D01*
X93704719Y-95685447D01*
X93664896Y-95616470D01*
X93660315Y-95602371D01*
X93656143Y-95594566D01*
X93633136Y-95518725D01*
X93606689Y-95437328D01*
X93605758Y-95428471D01*
X93604905Y-95425659D01*
X93596600Y-95341342D01*
X93587000Y-95250000D01*
X93596599Y-95158664D01*
X93604905Y-95074340D01*
X93605758Y-95071527D01*
X93606689Y-95062672D01*
X93633132Y-94981288D01*
X93656143Y-94905433D01*
X93660315Y-94897626D01*
X93664896Y-94883530D01*
X93704712Y-94814565D01*
X93739348Y-94749767D01*
X93748710Y-94738359D01*
X93759076Y-94720405D01*
X93808416Y-94665607D01*
X93851324Y-94613324D01*
X93867291Y-94600219D01*
X93885113Y-94580427D01*
X93940002Y-94540546D01*
X93987767Y-94501348D01*
X94011180Y-94488833D01*
X94037500Y-94469711D01*
X94094109Y-94444506D01*
X94143433Y-94418143D01*
X94174471Y-94408727D01*
X94209576Y-94393098D01*
X94264430Y-94381438D01*
X94312340Y-94366905D01*
X94350476Y-94363148D01*
X94393820Y-94353936D01*
X94444016Y-94353936D01*
X94488000Y-94349604D01*
X94531983Y-94353936D01*
G37*
G36*
X161519543Y-92148486D02*
G01*
X161575880Y-92148486D01*
X161637437Y-92157764D01*
X161702630Y-92162895D01*
X161755181Y-92175511D01*
X161805050Y-92183028D01*
X161870215Y-92203128D01*
X161939285Y-92219711D01*
X161983943Y-92238209D01*
X162026519Y-92251342D01*
X162093365Y-92283533D01*
X162164139Y-92312849D01*
X162200466Y-92335110D01*
X162235322Y-92351896D01*
X162301620Y-92397097D01*
X162371655Y-92440015D01*
X162399700Y-92463967D01*
X162426813Y-92482453D01*
X162490119Y-92541192D01*
X162556723Y-92598077D01*
X162576946Y-92621756D01*
X162596706Y-92640090D01*
X162654478Y-92712534D01*
X162714785Y-92783145D01*
X162728048Y-92804788D01*
X162741206Y-92821288D01*
X162790834Y-92907247D01*
X162841951Y-92990661D01*
X162849458Y-93008784D01*
X162857088Y-93022000D01*
X162895994Y-93121131D01*
X162935089Y-93215515D01*
X162938322Y-93228984D01*
X162941757Y-93237735D01*
X162967473Y-93350404D01*
X162991905Y-93452170D01*
X162992538Y-93460223D01*
X162993330Y-93463690D01*
X163003656Y-93601492D01*
X163011000Y-93694800D01*
X163003656Y-93788115D01*
X162993330Y-93925909D01*
X162992538Y-93929374D01*
X162991905Y-93937430D01*
X162967468Y-94039214D01*
X162941757Y-94151864D01*
X162938323Y-94160612D01*
X162935089Y-94174085D01*
X162895986Y-94268486D01*
X162857088Y-94367599D01*
X162849459Y-94380811D01*
X162841951Y-94398939D01*
X162790824Y-94482369D01*
X162741206Y-94568311D01*
X162728050Y-94584807D01*
X162714785Y-94606455D01*
X162654466Y-94677079D01*
X162596706Y-94749509D01*
X162576951Y-94767838D01*
X162556723Y-94791523D01*
X162490105Y-94848418D01*
X162426813Y-94907146D01*
X162399706Y-94925627D01*
X162371655Y-94949585D01*
X162301606Y-94992510D01*
X162235322Y-95037703D01*
X162200474Y-95054484D01*
X162164139Y-95076751D01*
X162093350Y-95106072D01*
X162026519Y-95138257D01*
X161983952Y-95151386D01*
X161939285Y-95169889D01*
X161870200Y-95186474D01*
X161805050Y-95206571D01*
X161755189Y-95214086D01*
X161702630Y-95226705D01*
X161637433Y-95231835D01*
X161575880Y-95241114D01*
X161519543Y-95241114D01*
X161460000Y-95245800D01*
X161400457Y-95241114D01*
X161344120Y-95241114D01*
X161282565Y-95231835D01*
X161217370Y-95226705D01*
X161164811Y-95214086D01*
X161114949Y-95206571D01*
X161049796Y-95186473D01*
X160980715Y-95169889D01*
X160936047Y-95151387D01*
X160893481Y-95138257D01*
X160826646Y-95106071D01*
X160755861Y-95076751D01*
X160719528Y-95054486D01*
X160684675Y-95037702D01*
X160618377Y-94992500D01*
X160548345Y-94949585D01*
X160520301Y-94925633D01*
X160493188Y-94907148D01*
X160429880Y-94848407D01*
X160363277Y-94791523D01*
X160343052Y-94767843D01*
X160323293Y-94749509D01*
X160265518Y-94677061D01*
X160205215Y-94606455D01*
X160191952Y-94584812D01*
X160178793Y-94568311D01*
X160129157Y-94482340D01*
X160078049Y-94398939D01*
X160070542Y-94380817D01*
X160062911Y-94367599D01*
X160023994Y-94268440D01*
X159984911Y-94174085D01*
X159981678Y-94160619D01*
X159978242Y-94151864D01*
X159952511Y-94039129D01*
X159928095Y-93937430D01*
X159927461Y-93929381D01*
X159926669Y-93925909D01*
X159916323Y-93787850D01*
X159909000Y-93694800D01*
X159916322Y-93601757D01*
X159926669Y-93463690D01*
X159927461Y-93460216D01*
X159928095Y-93452170D01*
X159952506Y-93350489D01*
X159978242Y-93237735D01*
X159981678Y-93228978D01*
X159984911Y-93215515D01*
X160023986Y-93121177D01*
X160062911Y-93022000D01*
X160070544Y-93008778D01*
X160078049Y-92990661D01*
X160129147Y-92907275D01*
X160178793Y-92821288D01*
X160191955Y-92804783D01*
X160205215Y-92783145D01*
X160265506Y-92712552D01*
X160323293Y-92640090D01*
X160343056Y-92621751D01*
X160363277Y-92598077D01*
X160429866Y-92541204D01*
X160493188Y-92482451D01*
X160520307Y-92463961D01*
X160548345Y-92440015D01*
X160618362Y-92397108D01*
X160684675Y-92351897D01*
X160719536Y-92335108D01*
X160755861Y-92312849D01*
X160826632Y-92283534D01*
X160893481Y-92251342D01*
X160936057Y-92238208D01*
X160980715Y-92219711D01*
X161049781Y-92203129D01*
X161114949Y-92183028D01*
X161164820Y-92175511D01*
X161217370Y-92162895D01*
X161282561Y-92157764D01*
X161344120Y-92148486D01*
X161400457Y-92148486D01*
X161460000Y-92143800D01*
X161519543Y-92148486D01*
G37*
G36*
X91991983Y-91813936D02*
G01*
X92042180Y-91813936D01*
X92085524Y-91823149D01*
X92123659Y-91826905D01*
X92171566Y-91841437D01*
X92226424Y-91853098D01*
X92261530Y-91868728D01*
X92292566Y-91878143D01*
X92341884Y-91904504D01*
X92398500Y-91929711D01*
X92424822Y-91948835D01*
X92448232Y-91961348D01*
X92495988Y-92000540D01*
X92550887Y-92040427D01*
X92568711Y-92060223D01*
X92584675Y-92073324D01*
X92627572Y-92125594D01*
X92676924Y-92180405D01*
X92687292Y-92198363D01*
X92696651Y-92209767D01*
X92731273Y-92274542D01*
X92771104Y-92343530D01*
X92775685Y-92357630D01*
X92779856Y-92365433D01*
X92802852Y-92441242D01*
X92829311Y-92522672D01*
X92830242Y-92531532D01*
X92831094Y-92534340D01*
X92839384Y-92618513D01*
X92849000Y-92710000D01*
X92839383Y-92801494D01*
X92831094Y-92885659D01*
X92830242Y-92888466D01*
X92829311Y-92897328D01*
X92802848Y-92978771D01*
X92779856Y-93054566D01*
X92775686Y-93062366D01*
X92771104Y-93076470D01*
X92731266Y-93145470D01*
X92696651Y-93210232D01*
X92687294Y-93221633D01*
X92676924Y-93239595D01*
X92627563Y-93294415D01*
X92584675Y-93346675D01*
X92568714Y-93359773D01*
X92550887Y-93379573D01*
X92495977Y-93419467D01*
X92448232Y-93458651D01*
X92424827Y-93471161D01*
X92398500Y-93490289D01*
X92341873Y-93515500D01*
X92292566Y-93541856D01*
X92261537Y-93551268D01*
X92226424Y-93566902D01*
X92171555Y-93578564D01*
X92123659Y-93593094D01*
X92085532Y-93596849D01*
X92042180Y-93606064D01*
X91991973Y-93606064D01*
X91948000Y-93610395D01*
X91904027Y-93606064D01*
X91853820Y-93606064D01*
X91810467Y-93596849D01*
X91772340Y-93593094D01*
X91724441Y-93578563D01*
X91669576Y-93566902D01*
X91634464Y-93551269D01*
X91603433Y-93541856D01*
X91554120Y-93515498D01*
X91497500Y-93490289D01*
X91471175Y-93471163D01*
X91447767Y-93458651D01*
X91400013Y-93419460D01*
X91345113Y-93379573D01*
X91327287Y-93359776D01*
X91311324Y-93346675D01*
X91268425Y-93294402D01*
X91219076Y-93239595D01*
X91208708Y-93221637D01*
X91199348Y-93210232D01*
X91164719Y-93145447D01*
X91124896Y-93076470D01*
X91120315Y-93062371D01*
X91116143Y-93054566D01*
X91093136Y-92978725D01*
X91066689Y-92897328D01*
X91065758Y-92888471D01*
X91064905Y-92885659D01*
X91056600Y-92801342D01*
X91047000Y-92710000D01*
X91056599Y-92618664D01*
X91064905Y-92534340D01*
X91065758Y-92531527D01*
X91066689Y-92522672D01*
X91093132Y-92441288D01*
X91116143Y-92365433D01*
X91120315Y-92357626D01*
X91124896Y-92343530D01*
X91164712Y-92274565D01*
X91199348Y-92209767D01*
X91208710Y-92198359D01*
X91219076Y-92180405D01*
X91268416Y-92125607D01*
X91311324Y-92073324D01*
X91327291Y-92060219D01*
X91345113Y-92040427D01*
X91400002Y-92000546D01*
X91447767Y-91961348D01*
X91471180Y-91948833D01*
X91497500Y-91929711D01*
X91554109Y-91904506D01*
X91603433Y-91878143D01*
X91634471Y-91868727D01*
X91669576Y-91853098D01*
X91724430Y-91841438D01*
X91772340Y-91826905D01*
X91810476Y-91823148D01*
X91853820Y-91813936D01*
X91904016Y-91813936D01*
X91948000Y-91809604D01*
X91991983Y-91813936D01*
G37*
G36*
X94531983Y-91813936D02*
G01*
X94582180Y-91813936D01*
X94625524Y-91823149D01*
X94663659Y-91826905D01*
X94711566Y-91841437D01*
X94766424Y-91853098D01*
X94801530Y-91868728D01*
X94832566Y-91878143D01*
X94881884Y-91904504D01*
X94938500Y-91929711D01*
X94964822Y-91948835D01*
X94988232Y-91961348D01*
X95035988Y-92000540D01*
X95090887Y-92040427D01*
X95108711Y-92060223D01*
X95124675Y-92073324D01*
X95167572Y-92125594D01*
X95216924Y-92180405D01*
X95227292Y-92198363D01*
X95236651Y-92209767D01*
X95271273Y-92274542D01*
X95311104Y-92343530D01*
X95315685Y-92357630D01*
X95319856Y-92365433D01*
X95342852Y-92441242D01*
X95369311Y-92522672D01*
X95370242Y-92531532D01*
X95371094Y-92534340D01*
X95379384Y-92618513D01*
X95389000Y-92710000D01*
X95379383Y-92801494D01*
X95371094Y-92885659D01*
X95370242Y-92888466D01*
X95369311Y-92897328D01*
X95342848Y-92978771D01*
X95319856Y-93054566D01*
X95315686Y-93062366D01*
X95311104Y-93076470D01*
X95271266Y-93145470D01*
X95236651Y-93210232D01*
X95227294Y-93221633D01*
X95216924Y-93239595D01*
X95167563Y-93294415D01*
X95124675Y-93346675D01*
X95108714Y-93359773D01*
X95090887Y-93379573D01*
X95035977Y-93419467D01*
X94988232Y-93458651D01*
X94964827Y-93471161D01*
X94938500Y-93490289D01*
X94881873Y-93515500D01*
X94832566Y-93541856D01*
X94801537Y-93551268D01*
X94766424Y-93566902D01*
X94711555Y-93578564D01*
X94663659Y-93593094D01*
X94625532Y-93596849D01*
X94582180Y-93606064D01*
X94531973Y-93606064D01*
X94488000Y-93610395D01*
X94444027Y-93606064D01*
X94393820Y-93606064D01*
X94350467Y-93596849D01*
X94312340Y-93593094D01*
X94264441Y-93578563D01*
X94209576Y-93566902D01*
X94174464Y-93551269D01*
X94143433Y-93541856D01*
X94094120Y-93515498D01*
X94037500Y-93490289D01*
X94011175Y-93471163D01*
X93987767Y-93458651D01*
X93940013Y-93419460D01*
X93885113Y-93379573D01*
X93867287Y-93359776D01*
X93851324Y-93346675D01*
X93808425Y-93294402D01*
X93759076Y-93239595D01*
X93748708Y-93221637D01*
X93739348Y-93210232D01*
X93704719Y-93145447D01*
X93664896Y-93076470D01*
X93660315Y-93062371D01*
X93656143Y-93054566D01*
X93633136Y-92978725D01*
X93606689Y-92897328D01*
X93605758Y-92888471D01*
X93604905Y-92885659D01*
X93596600Y-92801342D01*
X93587000Y-92710000D01*
X93596599Y-92618664D01*
X93604905Y-92534340D01*
X93605758Y-92531527D01*
X93606689Y-92522672D01*
X93633132Y-92441288D01*
X93656143Y-92365433D01*
X93660315Y-92357626D01*
X93664896Y-92343530D01*
X93704712Y-92274565D01*
X93739348Y-92209767D01*
X93748710Y-92198359D01*
X93759076Y-92180405D01*
X93808416Y-92125607D01*
X93851324Y-92073324D01*
X93867291Y-92060219D01*
X93885113Y-92040427D01*
X93940002Y-92000546D01*
X93987767Y-91961348D01*
X94011180Y-91948833D01*
X94037500Y-91929711D01*
X94094109Y-91904506D01*
X94143433Y-91878143D01*
X94174471Y-91868727D01*
X94209576Y-91853098D01*
X94264430Y-91841438D01*
X94312340Y-91826905D01*
X94350476Y-91823148D01*
X94393820Y-91813936D01*
X94444016Y-91813936D01*
X94488000Y-91809604D01*
X94531983Y-91813936D01*
G37*
G36*
X159569517Y-89777682D02*
G01*
X159586062Y-89788738D01*
X159597118Y-89805283D01*
X159601000Y-89824800D01*
X159601000Y-91424800D01*
X159597118Y-91444317D01*
X159586062Y-91460862D01*
X159569517Y-91471918D01*
X159550000Y-91475800D01*
X157950000Y-91475800D01*
X157930483Y-91471918D01*
X157913938Y-91460862D01*
X157902882Y-91444317D01*
X157899000Y-91424800D01*
X157899000Y-89824800D01*
X157902882Y-89805283D01*
X157913938Y-89788738D01*
X157930483Y-89777682D01*
X157950000Y-89773800D01*
X159550000Y-89773800D01*
X159569517Y-89777682D01*
G37*
G36*
X91991983Y-89273936D02*
G01*
X92042180Y-89273936D01*
X92085524Y-89283149D01*
X92123659Y-89286905D01*
X92171566Y-89301437D01*
X92226424Y-89313098D01*
X92261530Y-89328728D01*
X92292566Y-89338143D01*
X92341884Y-89364504D01*
X92398500Y-89389711D01*
X92424822Y-89408835D01*
X92448232Y-89421348D01*
X92495988Y-89460540D01*
X92550887Y-89500427D01*
X92568711Y-89520223D01*
X92584675Y-89533324D01*
X92627572Y-89585594D01*
X92676924Y-89640405D01*
X92687292Y-89658363D01*
X92696651Y-89669767D01*
X92731273Y-89734542D01*
X92771104Y-89803530D01*
X92775685Y-89817630D01*
X92779856Y-89825433D01*
X92802852Y-89901242D01*
X92829311Y-89982672D01*
X92830242Y-89991532D01*
X92831094Y-89994340D01*
X92839384Y-90078513D01*
X92849000Y-90170000D01*
X92839383Y-90261494D01*
X92831094Y-90345659D01*
X92830242Y-90348466D01*
X92829311Y-90357328D01*
X92802848Y-90438771D01*
X92779856Y-90514566D01*
X92775686Y-90522366D01*
X92771104Y-90536470D01*
X92731266Y-90605470D01*
X92696651Y-90670232D01*
X92687294Y-90681633D01*
X92676924Y-90699595D01*
X92627563Y-90754415D01*
X92584675Y-90806675D01*
X92568714Y-90819773D01*
X92550887Y-90839573D01*
X92495977Y-90879467D01*
X92448232Y-90918651D01*
X92424827Y-90931161D01*
X92398500Y-90950289D01*
X92341873Y-90975500D01*
X92292566Y-91001856D01*
X92261537Y-91011268D01*
X92226424Y-91026902D01*
X92171555Y-91038564D01*
X92123659Y-91053094D01*
X92085532Y-91056849D01*
X92042180Y-91066064D01*
X91991973Y-91066064D01*
X91948000Y-91070395D01*
X91904027Y-91066064D01*
X91853820Y-91066064D01*
X91810467Y-91056849D01*
X91772340Y-91053094D01*
X91724441Y-91038563D01*
X91669576Y-91026902D01*
X91634464Y-91011269D01*
X91603433Y-91001856D01*
X91554120Y-90975498D01*
X91497500Y-90950289D01*
X91471175Y-90931163D01*
X91447767Y-90918651D01*
X91400013Y-90879460D01*
X91345113Y-90839573D01*
X91327287Y-90819776D01*
X91311324Y-90806675D01*
X91268425Y-90754402D01*
X91219076Y-90699595D01*
X91208708Y-90681637D01*
X91199348Y-90670232D01*
X91164719Y-90605447D01*
X91124896Y-90536470D01*
X91120315Y-90522371D01*
X91116143Y-90514566D01*
X91093136Y-90438725D01*
X91066689Y-90357328D01*
X91065758Y-90348471D01*
X91064905Y-90345659D01*
X91056600Y-90261342D01*
X91047000Y-90170000D01*
X91056599Y-90078664D01*
X91064905Y-89994340D01*
X91065758Y-89991527D01*
X91066689Y-89982672D01*
X91093132Y-89901288D01*
X91116143Y-89825433D01*
X91120315Y-89817626D01*
X91124896Y-89803530D01*
X91164712Y-89734565D01*
X91199348Y-89669767D01*
X91208710Y-89658359D01*
X91219076Y-89640405D01*
X91268416Y-89585607D01*
X91311324Y-89533324D01*
X91327291Y-89520219D01*
X91345113Y-89500427D01*
X91400002Y-89460546D01*
X91447767Y-89421348D01*
X91471180Y-89408833D01*
X91497500Y-89389711D01*
X91554109Y-89364506D01*
X91603433Y-89338143D01*
X91634471Y-89328727D01*
X91669576Y-89313098D01*
X91724430Y-89301438D01*
X91772340Y-89286905D01*
X91810476Y-89283148D01*
X91853820Y-89273936D01*
X91904016Y-89273936D01*
X91948000Y-89269604D01*
X91991983Y-89273936D01*
G37*
G36*
X94531983Y-89273936D02*
G01*
X94582180Y-89273936D01*
X94625524Y-89283149D01*
X94663659Y-89286905D01*
X94711566Y-89301437D01*
X94766424Y-89313098D01*
X94801530Y-89328728D01*
X94832566Y-89338143D01*
X94881884Y-89364504D01*
X94938500Y-89389711D01*
X94964822Y-89408835D01*
X94988232Y-89421348D01*
X95035988Y-89460540D01*
X95090887Y-89500427D01*
X95108711Y-89520223D01*
X95124675Y-89533324D01*
X95167572Y-89585594D01*
X95216924Y-89640405D01*
X95227292Y-89658363D01*
X95236651Y-89669767D01*
X95271273Y-89734542D01*
X95311104Y-89803530D01*
X95315685Y-89817630D01*
X95319856Y-89825433D01*
X95342852Y-89901242D01*
X95369311Y-89982672D01*
X95370242Y-89991532D01*
X95371094Y-89994340D01*
X95379384Y-90078513D01*
X95389000Y-90170000D01*
X95379383Y-90261494D01*
X95371094Y-90345659D01*
X95370242Y-90348466D01*
X95369311Y-90357328D01*
X95342848Y-90438771D01*
X95319856Y-90514566D01*
X95315686Y-90522366D01*
X95311104Y-90536470D01*
X95271266Y-90605470D01*
X95236651Y-90670232D01*
X95227294Y-90681633D01*
X95216924Y-90699595D01*
X95167563Y-90754415D01*
X95124675Y-90806675D01*
X95108714Y-90819773D01*
X95090887Y-90839573D01*
X95035977Y-90879467D01*
X94988232Y-90918651D01*
X94964827Y-90931161D01*
X94938500Y-90950289D01*
X94881873Y-90975500D01*
X94832566Y-91001856D01*
X94801537Y-91011268D01*
X94766424Y-91026902D01*
X94711555Y-91038564D01*
X94663659Y-91053094D01*
X94625532Y-91056849D01*
X94582180Y-91066064D01*
X94531973Y-91066064D01*
X94488000Y-91070395D01*
X94444027Y-91066064D01*
X94393820Y-91066064D01*
X94350467Y-91056849D01*
X94312340Y-91053094D01*
X94264441Y-91038563D01*
X94209576Y-91026902D01*
X94174464Y-91011269D01*
X94143433Y-91001856D01*
X94094120Y-90975498D01*
X94037500Y-90950289D01*
X94011175Y-90931163D01*
X93987767Y-90918651D01*
X93940013Y-90879460D01*
X93885113Y-90839573D01*
X93867287Y-90819776D01*
X93851324Y-90806675D01*
X93808425Y-90754402D01*
X93759076Y-90699595D01*
X93748708Y-90681637D01*
X93739348Y-90670232D01*
X93704719Y-90605447D01*
X93664896Y-90536470D01*
X93660315Y-90522371D01*
X93656143Y-90514566D01*
X93633136Y-90438725D01*
X93606689Y-90357328D01*
X93605758Y-90348471D01*
X93604905Y-90345659D01*
X93596600Y-90261342D01*
X93587000Y-90170000D01*
X93596599Y-90078664D01*
X93604905Y-89994340D01*
X93605758Y-89991527D01*
X93606689Y-89982672D01*
X93633132Y-89901288D01*
X93656143Y-89825433D01*
X93660315Y-89817626D01*
X93664896Y-89803530D01*
X93704712Y-89734565D01*
X93739348Y-89669767D01*
X93748710Y-89658359D01*
X93759076Y-89640405D01*
X93808416Y-89585607D01*
X93851324Y-89533324D01*
X93867291Y-89520219D01*
X93885113Y-89500427D01*
X93940002Y-89460546D01*
X93987767Y-89421348D01*
X94011180Y-89408833D01*
X94037500Y-89389711D01*
X94094109Y-89364506D01*
X94143433Y-89338143D01*
X94174471Y-89328727D01*
X94209576Y-89313098D01*
X94264430Y-89301438D01*
X94312340Y-89286905D01*
X94350476Y-89283148D01*
X94393820Y-89273936D01*
X94444016Y-89273936D01*
X94488000Y-89269604D01*
X94531983Y-89273936D01*
G37*
G36*
X158791199Y-87278462D02*
G01*
X158838954Y-87278462D01*
X158880194Y-87287227D01*
X158915901Y-87290745D01*
X158960759Y-87304352D01*
X159012973Y-87315451D01*
X159046384Y-87330326D01*
X159075435Y-87339139D01*
X159121602Y-87363815D01*
X159175500Y-87387812D01*
X159200554Y-87406015D01*
X159222453Y-87417720D01*
X159267128Y-87454384D01*
X159319430Y-87492384D01*
X159336411Y-87511243D01*
X159351320Y-87523479D01*
X159391387Y-87572301D01*
X159438473Y-87624595D01*
X159448364Y-87641727D01*
X159457079Y-87652346D01*
X159489306Y-87712640D01*
X159527427Y-87778667D01*
X159531813Y-87792168D01*
X159535660Y-87799364D01*
X159556861Y-87869255D01*
X159582404Y-87947867D01*
X159583303Y-87956423D01*
X159584054Y-87958898D01*
X159591371Y-88033189D01*
X159601000Y-88124800D01*
X159591370Y-88216419D01*
X159584054Y-88290701D01*
X159583303Y-88293175D01*
X159582404Y-88301733D01*
X159556856Y-88380358D01*
X159535660Y-88450235D01*
X159531814Y-88457429D01*
X159527427Y-88470933D01*
X159489299Y-88536972D01*
X159457079Y-88597253D01*
X159448366Y-88607869D01*
X159438473Y-88625005D01*
X159391378Y-88677309D01*
X159351320Y-88726120D01*
X159336414Y-88738352D01*
X159319430Y-88757216D01*
X159267118Y-88795223D01*
X159222453Y-88831879D01*
X159200559Y-88843580D01*
X159175500Y-88861788D01*
X159121591Y-88885789D01*
X159075435Y-88910460D01*
X159046391Y-88919270D01*
X159012973Y-88934149D01*
X158960748Y-88945249D01*
X158915901Y-88958854D01*
X158880203Y-88962370D01*
X158838954Y-88971138D01*
X158791188Y-88971138D01*
X158750000Y-88975195D01*
X158708811Y-88971138D01*
X158661046Y-88971138D01*
X158619797Y-88962370D01*
X158584098Y-88958854D01*
X158539248Y-88945248D01*
X158487027Y-88934149D01*
X158453610Y-88919271D01*
X158424564Y-88910460D01*
X158378402Y-88885786D01*
X158324500Y-88861788D01*
X158299443Y-88843583D01*
X158277546Y-88831879D01*
X158232873Y-88795216D01*
X158180570Y-88757216D01*
X158163588Y-88738355D01*
X158148679Y-88726120D01*
X158108610Y-88677296D01*
X158061527Y-88625005D01*
X158051636Y-88607873D01*
X158042920Y-88597253D01*
X158010687Y-88536948D01*
X157972573Y-88470933D01*
X157968186Y-88457434D01*
X157964339Y-88450235D01*
X157943128Y-88380312D01*
X157917596Y-88301733D01*
X157916697Y-88293180D01*
X157915945Y-88290701D01*
X157908613Y-88216267D01*
X157899000Y-88124800D01*
X157908612Y-88033340D01*
X157915945Y-87958898D01*
X157916697Y-87956418D01*
X157917596Y-87947867D01*
X157943123Y-87869302D01*
X157964339Y-87799364D01*
X157968187Y-87792163D01*
X157972573Y-87778667D01*
X158010680Y-87712663D01*
X158042920Y-87652346D01*
X158051638Y-87641723D01*
X158061527Y-87624595D01*
X158108601Y-87572313D01*
X158148679Y-87523479D01*
X158163591Y-87511240D01*
X158180570Y-87492384D01*
X158232862Y-87454391D01*
X158277546Y-87417720D01*
X158299448Y-87406013D01*
X158324500Y-87387812D01*
X158378391Y-87363818D01*
X158424564Y-87339139D01*
X158453617Y-87330325D01*
X158487027Y-87315451D01*
X158539237Y-87304353D01*
X158584098Y-87290745D01*
X158619806Y-87287227D01*
X158661046Y-87278462D01*
X158708801Y-87278462D01*
X158750000Y-87274404D01*
X158791199Y-87278462D01*
G37*
G36*
X91991983Y-86733936D02*
G01*
X92042180Y-86733936D01*
X92085524Y-86743149D01*
X92123659Y-86746905D01*
X92171566Y-86761437D01*
X92226424Y-86773098D01*
X92261530Y-86788728D01*
X92292566Y-86798143D01*
X92341884Y-86824504D01*
X92398500Y-86849711D01*
X92424822Y-86868835D01*
X92448232Y-86881348D01*
X92495988Y-86920540D01*
X92550887Y-86960427D01*
X92568711Y-86980223D01*
X92584675Y-86993324D01*
X92627572Y-87045594D01*
X92676924Y-87100405D01*
X92687292Y-87118363D01*
X92696651Y-87129767D01*
X92731273Y-87194542D01*
X92771104Y-87263530D01*
X92775685Y-87277630D01*
X92779856Y-87285433D01*
X92802852Y-87361242D01*
X92829311Y-87442672D01*
X92830242Y-87451532D01*
X92831094Y-87454340D01*
X92839384Y-87538513D01*
X92849000Y-87630000D01*
X92839383Y-87721494D01*
X92831094Y-87805659D01*
X92830242Y-87808466D01*
X92829311Y-87817328D01*
X92802848Y-87898771D01*
X92779856Y-87974566D01*
X92775686Y-87982366D01*
X92771104Y-87996470D01*
X92731266Y-88065470D01*
X92696651Y-88130232D01*
X92687294Y-88141633D01*
X92676924Y-88159595D01*
X92627563Y-88214415D01*
X92584675Y-88266675D01*
X92568714Y-88279773D01*
X92550887Y-88299573D01*
X92495977Y-88339467D01*
X92448232Y-88378651D01*
X92424827Y-88391161D01*
X92398500Y-88410289D01*
X92341873Y-88435500D01*
X92292566Y-88461856D01*
X92261537Y-88471268D01*
X92226424Y-88486902D01*
X92171555Y-88498564D01*
X92123659Y-88513094D01*
X92085532Y-88516849D01*
X92042180Y-88526064D01*
X91991973Y-88526064D01*
X91948000Y-88530395D01*
X91904027Y-88526064D01*
X91853820Y-88526064D01*
X91810467Y-88516849D01*
X91772340Y-88513094D01*
X91724441Y-88498563D01*
X91669576Y-88486902D01*
X91634464Y-88471269D01*
X91603433Y-88461856D01*
X91554120Y-88435498D01*
X91497500Y-88410289D01*
X91471175Y-88391163D01*
X91447767Y-88378651D01*
X91400013Y-88339460D01*
X91345113Y-88299573D01*
X91327287Y-88279776D01*
X91311324Y-88266675D01*
X91268425Y-88214402D01*
X91219076Y-88159595D01*
X91208708Y-88141637D01*
X91199348Y-88130232D01*
X91164719Y-88065447D01*
X91124896Y-87996470D01*
X91120315Y-87982371D01*
X91116143Y-87974566D01*
X91093136Y-87898725D01*
X91066689Y-87817328D01*
X91065758Y-87808471D01*
X91064905Y-87805659D01*
X91056600Y-87721342D01*
X91047000Y-87630000D01*
X91056599Y-87538664D01*
X91064905Y-87454340D01*
X91065758Y-87451527D01*
X91066689Y-87442672D01*
X91093132Y-87361288D01*
X91116143Y-87285433D01*
X91120315Y-87277626D01*
X91124896Y-87263530D01*
X91164712Y-87194565D01*
X91199348Y-87129767D01*
X91208710Y-87118359D01*
X91219076Y-87100405D01*
X91268416Y-87045607D01*
X91311324Y-86993324D01*
X91327291Y-86980219D01*
X91345113Y-86960427D01*
X91400002Y-86920546D01*
X91447767Y-86881348D01*
X91471180Y-86868833D01*
X91497500Y-86849711D01*
X91554109Y-86824506D01*
X91603433Y-86798143D01*
X91634471Y-86788727D01*
X91669576Y-86773098D01*
X91724430Y-86761438D01*
X91772340Y-86746905D01*
X91810476Y-86743148D01*
X91853820Y-86733936D01*
X91904016Y-86733936D01*
X91948000Y-86729604D01*
X91991983Y-86733936D01*
G37*
G36*
X94531983Y-86733936D02*
G01*
X94582180Y-86733936D01*
X94625524Y-86743149D01*
X94663659Y-86746905D01*
X94711566Y-86761437D01*
X94766424Y-86773098D01*
X94801530Y-86788728D01*
X94832566Y-86798143D01*
X94881884Y-86824504D01*
X94938500Y-86849711D01*
X94964822Y-86868835D01*
X94988232Y-86881348D01*
X95035988Y-86920540D01*
X95090887Y-86960427D01*
X95108711Y-86980223D01*
X95124675Y-86993324D01*
X95167572Y-87045594D01*
X95216924Y-87100405D01*
X95227292Y-87118363D01*
X95236651Y-87129767D01*
X95271273Y-87194542D01*
X95311104Y-87263530D01*
X95315685Y-87277630D01*
X95319856Y-87285433D01*
X95342852Y-87361242D01*
X95369311Y-87442672D01*
X95370242Y-87451532D01*
X95371094Y-87454340D01*
X95379384Y-87538513D01*
X95389000Y-87630000D01*
X95379383Y-87721494D01*
X95371094Y-87805659D01*
X95370242Y-87808466D01*
X95369311Y-87817328D01*
X95342848Y-87898771D01*
X95319856Y-87974566D01*
X95315686Y-87982366D01*
X95311104Y-87996470D01*
X95271266Y-88065470D01*
X95236651Y-88130232D01*
X95227294Y-88141633D01*
X95216924Y-88159595D01*
X95167563Y-88214415D01*
X95124675Y-88266675D01*
X95108714Y-88279773D01*
X95090887Y-88299573D01*
X95035977Y-88339467D01*
X94988232Y-88378651D01*
X94964827Y-88391161D01*
X94938500Y-88410289D01*
X94881873Y-88435500D01*
X94832566Y-88461856D01*
X94801537Y-88471268D01*
X94766424Y-88486902D01*
X94711555Y-88498564D01*
X94663659Y-88513094D01*
X94625532Y-88516849D01*
X94582180Y-88526064D01*
X94531973Y-88526064D01*
X94488000Y-88530395D01*
X94444027Y-88526064D01*
X94393820Y-88526064D01*
X94350467Y-88516849D01*
X94312340Y-88513094D01*
X94264441Y-88498563D01*
X94209576Y-88486902D01*
X94174464Y-88471269D01*
X94143433Y-88461856D01*
X94094120Y-88435498D01*
X94037500Y-88410289D01*
X94011175Y-88391163D01*
X93987767Y-88378651D01*
X93940013Y-88339460D01*
X93885113Y-88299573D01*
X93867287Y-88279776D01*
X93851324Y-88266675D01*
X93808425Y-88214402D01*
X93759076Y-88159595D01*
X93748708Y-88141637D01*
X93739348Y-88130232D01*
X93704719Y-88065447D01*
X93664896Y-87996470D01*
X93660315Y-87982371D01*
X93656143Y-87974566D01*
X93633136Y-87898725D01*
X93606689Y-87817328D01*
X93605758Y-87808471D01*
X93604905Y-87805659D01*
X93596600Y-87721342D01*
X93587000Y-87630000D01*
X93596599Y-87538664D01*
X93604905Y-87454340D01*
X93605758Y-87451527D01*
X93606689Y-87442672D01*
X93633132Y-87361288D01*
X93656143Y-87285433D01*
X93660315Y-87277626D01*
X93664896Y-87263530D01*
X93704712Y-87194565D01*
X93739348Y-87129767D01*
X93748710Y-87118359D01*
X93759076Y-87100405D01*
X93808416Y-87045607D01*
X93851324Y-86993324D01*
X93867291Y-86980219D01*
X93885113Y-86960427D01*
X93940002Y-86920546D01*
X93987767Y-86881348D01*
X94011180Y-86868833D01*
X94037500Y-86849711D01*
X94094109Y-86824506D01*
X94143433Y-86798143D01*
X94174471Y-86788727D01*
X94209576Y-86773098D01*
X94264430Y-86761438D01*
X94312340Y-86746905D01*
X94350476Y-86743148D01*
X94393820Y-86733936D01*
X94444016Y-86733936D01*
X94488000Y-86729604D01*
X94531983Y-86733936D01*
G37*
G36*
X158791199Y-85278462D02*
G01*
X158838954Y-85278462D01*
X158880194Y-85287227D01*
X158915901Y-85290745D01*
X158960759Y-85304352D01*
X159012973Y-85315451D01*
X159046384Y-85330326D01*
X159075435Y-85339139D01*
X159121602Y-85363815D01*
X159175500Y-85387812D01*
X159200554Y-85406015D01*
X159222453Y-85417720D01*
X159267128Y-85454384D01*
X159319430Y-85492384D01*
X159336411Y-85511243D01*
X159351320Y-85523479D01*
X159391387Y-85572301D01*
X159438473Y-85624595D01*
X159448364Y-85641727D01*
X159457079Y-85652346D01*
X159489306Y-85712640D01*
X159527427Y-85778667D01*
X159531813Y-85792168D01*
X159535660Y-85799364D01*
X159556861Y-85869255D01*
X159582404Y-85947867D01*
X159583303Y-85956423D01*
X159584054Y-85958898D01*
X159591371Y-86033189D01*
X159601000Y-86124800D01*
X159591370Y-86216419D01*
X159584054Y-86290701D01*
X159583303Y-86293175D01*
X159582404Y-86301733D01*
X159556856Y-86380358D01*
X159535660Y-86450235D01*
X159531814Y-86457429D01*
X159527427Y-86470933D01*
X159489299Y-86536972D01*
X159457079Y-86597253D01*
X159448366Y-86607869D01*
X159438473Y-86625005D01*
X159391378Y-86677309D01*
X159351320Y-86726120D01*
X159336414Y-86738352D01*
X159319430Y-86757216D01*
X159267118Y-86795223D01*
X159222453Y-86831879D01*
X159200559Y-86843580D01*
X159175500Y-86861788D01*
X159121591Y-86885789D01*
X159075435Y-86910460D01*
X159046391Y-86919270D01*
X159012973Y-86934149D01*
X158960748Y-86945249D01*
X158915901Y-86958854D01*
X158880203Y-86962370D01*
X158838954Y-86971138D01*
X158791188Y-86971138D01*
X158750000Y-86975195D01*
X158708811Y-86971138D01*
X158661046Y-86971138D01*
X158619797Y-86962370D01*
X158584098Y-86958854D01*
X158539248Y-86945248D01*
X158487027Y-86934149D01*
X158453610Y-86919271D01*
X158424564Y-86910460D01*
X158378402Y-86885786D01*
X158324500Y-86861788D01*
X158299443Y-86843583D01*
X158277546Y-86831879D01*
X158232873Y-86795216D01*
X158180570Y-86757216D01*
X158163588Y-86738355D01*
X158148679Y-86726120D01*
X158108610Y-86677296D01*
X158061527Y-86625005D01*
X158051636Y-86607873D01*
X158042920Y-86597253D01*
X158010687Y-86536948D01*
X157972573Y-86470933D01*
X157968186Y-86457434D01*
X157964339Y-86450235D01*
X157943128Y-86380312D01*
X157917596Y-86301733D01*
X157916697Y-86293180D01*
X157915945Y-86290701D01*
X157908613Y-86216267D01*
X157899000Y-86124800D01*
X157908612Y-86033340D01*
X157915945Y-85958898D01*
X157916697Y-85956418D01*
X157917596Y-85947867D01*
X157943123Y-85869302D01*
X157964339Y-85799364D01*
X157968187Y-85792163D01*
X157972573Y-85778667D01*
X158010680Y-85712663D01*
X158042920Y-85652346D01*
X158051638Y-85641723D01*
X158061527Y-85624595D01*
X158108601Y-85572313D01*
X158148679Y-85523479D01*
X158163591Y-85511240D01*
X158180570Y-85492384D01*
X158232862Y-85454391D01*
X158277546Y-85417720D01*
X158299448Y-85406013D01*
X158324500Y-85387812D01*
X158378391Y-85363818D01*
X158424564Y-85339139D01*
X158453617Y-85330325D01*
X158487027Y-85315451D01*
X158539237Y-85304353D01*
X158584098Y-85290745D01*
X158619806Y-85287227D01*
X158661046Y-85278462D01*
X158708801Y-85278462D01*
X158750000Y-85274404D01*
X158791199Y-85278462D01*
G37*
G36*
X91991983Y-84193936D02*
G01*
X92042180Y-84193936D01*
X92085524Y-84203149D01*
X92123659Y-84206905D01*
X92171566Y-84221437D01*
X92226424Y-84233098D01*
X92261530Y-84248728D01*
X92292566Y-84258143D01*
X92341884Y-84284504D01*
X92398500Y-84309711D01*
X92424822Y-84328835D01*
X92448232Y-84341348D01*
X92495988Y-84380540D01*
X92550887Y-84420427D01*
X92568711Y-84440223D01*
X92584675Y-84453324D01*
X92627572Y-84505594D01*
X92676924Y-84560405D01*
X92687292Y-84578363D01*
X92696651Y-84589767D01*
X92731273Y-84654542D01*
X92771104Y-84723530D01*
X92775685Y-84737630D01*
X92779856Y-84745433D01*
X92802852Y-84821242D01*
X92829311Y-84902672D01*
X92830242Y-84911532D01*
X92831094Y-84914340D01*
X92839384Y-84998513D01*
X92849000Y-85090000D01*
X92839383Y-85181494D01*
X92831094Y-85265659D01*
X92830242Y-85268466D01*
X92829311Y-85277328D01*
X92802848Y-85358771D01*
X92779856Y-85434566D01*
X92775686Y-85442366D01*
X92771104Y-85456470D01*
X92731266Y-85525470D01*
X92696651Y-85590232D01*
X92687294Y-85601633D01*
X92676924Y-85619595D01*
X92627563Y-85674415D01*
X92584675Y-85726675D01*
X92568714Y-85739773D01*
X92550887Y-85759573D01*
X92495977Y-85799467D01*
X92448232Y-85838651D01*
X92424827Y-85851161D01*
X92398500Y-85870289D01*
X92341873Y-85895500D01*
X92292566Y-85921856D01*
X92261537Y-85931268D01*
X92226424Y-85946902D01*
X92171555Y-85958564D01*
X92123659Y-85973094D01*
X92085532Y-85976849D01*
X92042180Y-85986064D01*
X91991973Y-85986064D01*
X91948000Y-85990395D01*
X91904027Y-85986064D01*
X91853820Y-85986064D01*
X91810467Y-85976849D01*
X91772340Y-85973094D01*
X91724441Y-85958563D01*
X91669576Y-85946902D01*
X91634464Y-85931269D01*
X91603433Y-85921856D01*
X91554120Y-85895498D01*
X91497500Y-85870289D01*
X91471175Y-85851163D01*
X91447767Y-85838651D01*
X91400013Y-85799460D01*
X91345113Y-85759573D01*
X91327287Y-85739776D01*
X91311324Y-85726675D01*
X91268425Y-85674402D01*
X91219076Y-85619595D01*
X91208708Y-85601637D01*
X91199348Y-85590232D01*
X91164719Y-85525447D01*
X91124896Y-85456470D01*
X91120315Y-85442371D01*
X91116143Y-85434566D01*
X91093136Y-85358725D01*
X91066689Y-85277328D01*
X91065758Y-85268471D01*
X91064905Y-85265659D01*
X91056600Y-85181342D01*
X91047000Y-85090000D01*
X91056599Y-84998664D01*
X91064905Y-84914340D01*
X91065758Y-84911527D01*
X91066689Y-84902672D01*
X91093132Y-84821288D01*
X91116143Y-84745433D01*
X91120315Y-84737626D01*
X91124896Y-84723530D01*
X91164712Y-84654565D01*
X91199348Y-84589767D01*
X91208710Y-84578359D01*
X91219076Y-84560405D01*
X91268416Y-84505607D01*
X91311324Y-84453324D01*
X91327291Y-84440219D01*
X91345113Y-84420427D01*
X91400002Y-84380546D01*
X91447767Y-84341348D01*
X91471180Y-84328833D01*
X91497500Y-84309711D01*
X91554109Y-84284506D01*
X91603433Y-84258143D01*
X91634471Y-84248727D01*
X91669576Y-84233098D01*
X91724430Y-84221438D01*
X91772340Y-84206905D01*
X91810476Y-84203148D01*
X91853820Y-84193936D01*
X91904016Y-84193936D01*
X91948000Y-84189604D01*
X91991983Y-84193936D01*
G37*
G36*
X94531983Y-84193936D02*
G01*
X94582180Y-84193936D01*
X94625524Y-84203149D01*
X94663659Y-84206905D01*
X94711566Y-84221437D01*
X94766424Y-84233098D01*
X94801530Y-84248728D01*
X94832566Y-84258143D01*
X94881884Y-84284504D01*
X94938500Y-84309711D01*
X94964822Y-84328835D01*
X94988232Y-84341348D01*
X95035988Y-84380540D01*
X95090887Y-84420427D01*
X95108711Y-84440223D01*
X95124675Y-84453324D01*
X95167572Y-84505594D01*
X95216924Y-84560405D01*
X95227292Y-84578363D01*
X95236651Y-84589767D01*
X95271273Y-84654542D01*
X95311104Y-84723530D01*
X95315685Y-84737630D01*
X95319856Y-84745433D01*
X95342852Y-84821242D01*
X95369311Y-84902672D01*
X95370242Y-84911532D01*
X95371094Y-84914340D01*
X95379384Y-84998513D01*
X95389000Y-85090000D01*
X95379383Y-85181494D01*
X95371094Y-85265659D01*
X95370242Y-85268466D01*
X95369311Y-85277328D01*
X95342848Y-85358771D01*
X95319856Y-85434566D01*
X95315686Y-85442366D01*
X95311104Y-85456470D01*
X95271266Y-85525470D01*
X95236651Y-85590232D01*
X95227294Y-85601633D01*
X95216924Y-85619595D01*
X95167563Y-85674415D01*
X95124675Y-85726675D01*
X95108714Y-85739773D01*
X95090887Y-85759573D01*
X95035977Y-85799467D01*
X94988232Y-85838651D01*
X94964827Y-85851161D01*
X94938500Y-85870289D01*
X94881873Y-85895500D01*
X94832566Y-85921856D01*
X94801537Y-85931268D01*
X94766424Y-85946902D01*
X94711555Y-85958564D01*
X94663659Y-85973094D01*
X94625532Y-85976849D01*
X94582180Y-85986064D01*
X94531973Y-85986064D01*
X94488000Y-85990395D01*
X94444027Y-85986064D01*
X94393820Y-85986064D01*
X94350467Y-85976849D01*
X94312340Y-85973094D01*
X94264441Y-85958563D01*
X94209576Y-85946902D01*
X94174464Y-85931269D01*
X94143433Y-85921856D01*
X94094120Y-85895498D01*
X94037500Y-85870289D01*
X94011175Y-85851163D01*
X93987767Y-85838651D01*
X93940013Y-85799460D01*
X93885113Y-85759573D01*
X93867287Y-85739776D01*
X93851324Y-85726675D01*
X93808425Y-85674402D01*
X93759076Y-85619595D01*
X93748708Y-85601637D01*
X93739348Y-85590232D01*
X93704719Y-85525447D01*
X93664896Y-85456470D01*
X93660315Y-85442371D01*
X93656143Y-85434566D01*
X93633136Y-85358725D01*
X93606689Y-85277328D01*
X93605758Y-85268471D01*
X93604905Y-85265659D01*
X93596600Y-85181342D01*
X93587000Y-85090000D01*
X93596599Y-84998664D01*
X93604905Y-84914340D01*
X93605758Y-84911527D01*
X93606689Y-84902672D01*
X93633132Y-84821288D01*
X93656143Y-84745433D01*
X93660315Y-84737626D01*
X93664896Y-84723530D01*
X93704712Y-84654565D01*
X93739348Y-84589767D01*
X93748710Y-84578359D01*
X93759076Y-84560405D01*
X93808416Y-84505607D01*
X93851324Y-84453324D01*
X93867291Y-84440219D01*
X93885113Y-84420427D01*
X93940002Y-84380546D01*
X93987767Y-84341348D01*
X94011180Y-84328833D01*
X94037500Y-84309711D01*
X94094109Y-84284506D01*
X94143433Y-84258143D01*
X94174471Y-84248727D01*
X94209576Y-84233098D01*
X94264430Y-84221438D01*
X94312340Y-84206905D01*
X94350476Y-84203148D01*
X94393820Y-84193936D01*
X94444016Y-84193936D01*
X94488000Y-84189604D01*
X94531983Y-84193936D01*
G37*
G36*
X158791199Y-82778462D02*
G01*
X158838954Y-82778462D01*
X158880194Y-82787227D01*
X158915901Y-82790745D01*
X158960759Y-82804352D01*
X159012973Y-82815451D01*
X159046384Y-82830326D01*
X159075435Y-82839139D01*
X159121602Y-82863815D01*
X159175500Y-82887812D01*
X159200554Y-82906015D01*
X159222453Y-82917720D01*
X159267128Y-82954384D01*
X159319430Y-82992384D01*
X159336411Y-83011243D01*
X159351320Y-83023479D01*
X159391387Y-83072301D01*
X159438473Y-83124595D01*
X159448364Y-83141727D01*
X159457079Y-83152346D01*
X159489306Y-83212640D01*
X159527427Y-83278667D01*
X159531813Y-83292168D01*
X159535660Y-83299364D01*
X159556861Y-83369255D01*
X159582404Y-83447867D01*
X159583303Y-83456423D01*
X159584054Y-83458898D01*
X159591371Y-83533189D01*
X159601000Y-83624800D01*
X159591370Y-83716419D01*
X159584054Y-83790701D01*
X159583303Y-83793175D01*
X159582404Y-83801733D01*
X159556856Y-83880358D01*
X159535660Y-83950235D01*
X159531814Y-83957429D01*
X159527427Y-83970933D01*
X159489299Y-84036972D01*
X159457079Y-84097253D01*
X159448366Y-84107869D01*
X159438473Y-84125005D01*
X159391378Y-84177309D01*
X159351320Y-84226120D01*
X159336414Y-84238352D01*
X159319430Y-84257216D01*
X159267118Y-84295223D01*
X159222453Y-84331879D01*
X159200559Y-84343580D01*
X159175500Y-84361788D01*
X159121591Y-84385789D01*
X159075435Y-84410460D01*
X159046391Y-84419270D01*
X159012973Y-84434149D01*
X158960748Y-84445249D01*
X158915901Y-84458854D01*
X158880203Y-84462370D01*
X158838954Y-84471138D01*
X158791188Y-84471138D01*
X158750000Y-84475195D01*
X158708811Y-84471138D01*
X158661046Y-84471138D01*
X158619797Y-84462370D01*
X158584098Y-84458854D01*
X158539248Y-84445248D01*
X158487027Y-84434149D01*
X158453610Y-84419271D01*
X158424564Y-84410460D01*
X158378402Y-84385786D01*
X158324500Y-84361788D01*
X158299443Y-84343583D01*
X158277546Y-84331879D01*
X158232873Y-84295216D01*
X158180570Y-84257216D01*
X158163588Y-84238355D01*
X158148679Y-84226120D01*
X158108610Y-84177296D01*
X158061527Y-84125005D01*
X158051636Y-84107873D01*
X158042920Y-84097253D01*
X158010687Y-84036948D01*
X157972573Y-83970933D01*
X157968186Y-83957434D01*
X157964339Y-83950235D01*
X157943128Y-83880312D01*
X157917596Y-83801733D01*
X157916697Y-83793180D01*
X157915945Y-83790701D01*
X157908613Y-83716267D01*
X157899000Y-83624800D01*
X157908612Y-83533340D01*
X157915945Y-83458898D01*
X157916697Y-83456418D01*
X157917596Y-83447867D01*
X157943123Y-83369302D01*
X157964339Y-83299364D01*
X157968187Y-83292163D01*
X157972573Y-83278667D01*
X158010680Y-83212663D01*
X158042920Y-83152346D01*
X158051638Y-83141723D01*
X158061527Y-83124595D01*
X158108601Y-83072313D01*
X158148679Y-83023479D01*
X158163591Y-83011240D01*
X158180570Y-82992384D01*
X158232862Y-82954391D01*
X158277546Y-82917720D01*
X158299448Y-82906013D01*
X158324500Y-82887812D01*
X158378391Y-82863818D01*
X158424564Y-82839139D01*
X158453617Y-82830325D01*
X158487027Y-82815451D01*
X158539237Y-82804353D01*
X158584098Y-82790745D01*
X158619806Y-82787227D01*
X158661046Y-82778462D01*
X158708801Y-82778462D01*
X158750000Y-82774404D01*
X158791199Y-82778462D01*
G37*
G36*
X91991983Y-81653936D02*
G01*
X92042180Y-81653936D01*
X92085524Y-81663149D01*
X92123659Y-81666905D01*
X92171566Y-81681437D01*
X92226424Y-81693098D01*
X92261530Y-81708728D01*
X92292566Y-81718143D01*
X92341884Y-81744504D01*
X92398500Y-81769711D01*
X92424822Y-81788835D01*
X92448232Y-81801348D01*
X92495988Y-81840540D01*
X92550887Y-81880427D01*
X92568711Y-81900223D01*
X92584675Y-81913324D01*
X92627572Y-81965594D01*
X92676924Y-82020405D01*
X92687292Y-82038363D01*
X92696651Y-82049767D01*
X92731273Y-82114542D01*
X92771104Y-82183530D01*
X92775685Y-82197630D01*
X92779856Y-82205433D01*
X92802852Y-82281242D01*
X92829311Y-82362672D01*
X92830242Y-82371532D01*
X92831094Y-82374340D01*
X92839384Y-82458513D01*
X92849000Y-82550000D01*
X92839383Y-82641494D01*
X92831094Y-82725659D01*
X92830242Y-82728466D01*
X92829311Y-82737328D01*
X92802848Y-82818771D01*
X92779856Y-82894566D01*
X92775686Y-82902366D01*
X92771104Y-82916470D01*
X92731266Y-82985470D01*
X92696651Y-83050232D01*
X92687294Y-83061633D01*
X92676924Y-83079595D01*
X92627563Y-83134415D01*
X92584675Y-83186675D01*
X92568714Y-83199773D01*
X92550887Y-83219573D01*
X92495977Y-83259467D01*
X92448232Y-83298651D01*
X92424827Y-83311161D01*
X92398500Y-83330289D01*
X92341873Y-83355500D01*
X92292566Y-83381856D01*
X92261537Y-83391268D01*
X92226424Y-83406902D01*
X92171555Y-83418564D01*
X92123659Y-83433094D01*
X92085532Y-83436849D01*
X92042180Y-83446064D01*
X91991973Y-83446064D01*
X91948000Y-83450395D01*
X91904027Y-83446064D01*
X91853820Y-83446064D01*
X91810467Y-83436849D01*
X91772340Y-83433094D01*
X91724441Y-83418563D01*
X91669576Y-83406902D01*
X91634464Y-83391269D01*
X91603433Y-83381856D01*
X91554120Y-83355498D01*
X91497500Y-83330289D01*
X91471175Y-83311163D01*
X91447767Y-83298651D01*
X91400013Y-83259460D01*
X91345113Y-83219573D01*
X91327287Y-83199776D01*
X91311324Y-83186675D01*
X91268425Y-83134402D01*
X91219076Y-83079595D01*
X91208708Y-83061637D01*
X91199348Y-83050232D01*
X91164719Y-82985447D01*
X91124896Y-82916470D01*
X91120315Y-82902371D01*
X91116143Y-82894566D01*
X91093136Y-82818725D01*
X91066689Y-82737328D01*
X91065758Y-82728471D01*
X91064905Y-82725659D01*
X91056600Y-82641342D01*
X91047000Y-82550000D01*
X91056599Y-82458664D01*
X91064905Y-82374340D01*
X91065758Y-82371527D01*
X91066689Y-82362672D01*
X91093132Y-82281288D01*
X91116143Y-82205433D01*
X91120315Y-82197626D01*
X91124896Y-82183530D01*
X91164712Y-82114565D01*
X91199348Y-82049767D01*
X91208710Y-82038359D01*
X91219076Y-82020405D01*
X91268416Y-81965607D01*
X91311324Y-81913324D01*
X91327291Y-81900219D01*
X91345113Y-81880427D01*
X91400002Y-81840546D01*
X91447767Y-81801348D01*
X91471180Y-81788833D01*
X91497500Y-81769711D01*
X91554109Y-81744506D01*
X91603433Y-81718143D01*
X91634471Y-81708727D01*
X91669576Y-81693098D01*
X91724430Y-81681438D01*
X91772340Y-81666905D01*
X91810476Y-81663148D01*
X91853820Y-81653936D01*
X91904016Y-81653936D01*
X91948000Y-81649604D01*
X91991983Y-81653936D01*
G37*
G36*
X94531983Y-81653936D02*
G01*
X94582180Y-81653936D01*
X94625524Y-81663149D01*
X94663659Y-81666905D01*
X94711566Y-81681437D01*
X94766424Y-81693098D01*
X94801530Y-81708728D01*
X94832566Y-81718143D01*
X94881884Y-81744504D01*
X94938500Y-81769711D01*
X94964822Y-81788835D01*
X94988232Y-81801348D01*
X95035988Y-81840540D01*
X95090887Y-81880427D01*
X95108711Y-81900223D01*
X95124675Y-81913324D01*
X95167572Y-81965594D01*
X95216924Y-82020405D01*
X95227292Y-82038363D01*
X95236651Y-82049767D01*
X95271273Y-82114542D01*
X95311104Y-82183530D01*
X95315685Y-82197630D01*
X95319856Y-82205433D01*
X95342852Y-82281242D01*
X95369311Y-82362672D01*
X95370242Y-82371532D01*
X95371094Y-82374340D01*
X95379384Y-82458513D01*
X95389000Y-82550000D01*
X95379383Y-82641494D01*
X95371094Y-82725659D01*
X95370242Y-82728466D01*
X95369311Y-82737328D01*
X95342848Y-82818771D01*
X95319856Y-82894566D01*
X95315686Y-82902366D01*
X95311104Y-82916470D01*
X95271266Y-82985470D01*
X95236651Y-83050232D01*
X95227294Y-83061633D01*
X95216924Y-83079595D01*
X95167563Y-83134415D01*
X95124675Y-83186675D01*
X95108714Y-83199773D01*
X95090887Y-83219573D01*
X95035977Y-83259467D01*
X94988232Y-83298651D01*
X94964827Y-83311161D01*
X94938500Y-83330289D01*
X94881873Y-83355500D01*
X94832566Y-83381856D01*
X94801537Y-83391268D01*
X94766424Y-83406902D01*
X94711555Y-83418564D01*
X94663659Y-83433094D01*
X94625532Y-83436849D01*
X94582180Y-83446064D01*
X94531973Y-83446064D01*
X94488000Y-83450395D01*
X94444027Y-83446064D01*
X94393820Y-83446064D01*
X94350467Y-83436849D01*
X94312340Y-83433094D01*
X94264441Y-83418563D01*
X94209576Y-83406902D01*
X94174464Y-83391269D01*
X94143433Y-83381856D01*
X94094120Y-83355498D01*
X94037500Y-83330289D01*
X94011175Y-83311163D01*
X93987767Y-83298651D01*
X93940013Y-83259460D01*
X93885113Y-83219573D01*
X93867287Y-83199776D01*
X93851324Y-83186675D01*
X93808425Y-83134402D01*
X93759076Y-83079595D01*
X93748708Y-83061637D01*
X93739348Y-83050232D01*
X93704719Y-82985447D01*
X93664896Y-82916470D01*
X93660315Y-82902371D01*
X93656143Y-82894566D01*
X93633136Y-82818725D01*
X93606689Y-82737328D01*
X93605758Y-82728471D01*
X93604905Y-82725659D01*
X93596600Y-82641342D01*
X93587000Y-82550000D01*
X93596599Y-82458664D01*
X93604905Y-82374340D01*
X93605758Y-82371527D01*
X93606689Y-82362672D01*
X93633132Y-82281288D01*
X93656143Y-82205433D01*
X93660315Y-82197626D01*
X93664896Y-82183530D01*
X93704712Y-82114565D01*
X93739348Y-82049767D01*
X93748710Y-82038359D01*
X93759076Y-82020405D01*
X93808416Y-81965607D01*
X93851324Y-81913324D01*
X93867291Y-81900219D01*
X93885113Y-81880427D01*
X93940002Y-81840546D01*
X93987767Y-81801348D01*
X94011180Y-81788833D01*
X94037500Y-81769711D01*
X94094109Y-81744506D01*
X94143433Y-81718143D01*
X94174471Y-81708727D01*
X94209576Y-81693098D01*
X94264430Y-81681438D01*
X94312340Y-81666905D01*
X94350476Y-81663148D01*
X94393820Y-81653936D01*
X94444016Y-81653936D01*
X94488000Y-81649604D01*
X94531983Y-81653936D01*
G37*
G36*
X161519543Y-79008486D02*
G01*
X161575880Y-79008486D01*
X161637437Y-79017764D01*
X161702630Y-79022895D01*
X161755181Y-79035511D01*
X161805050Y-79043028D01*
X161870215Y-79063128D01*
X161939285Y-79079711D01*
X161983943Y-79098209D01*
X162026519Y-79111342D01*
X162093365Y-79143533D01*
X162164139Y-79172849D01*
X162200466Y-79195110D01*
X162235322Y-79211896D01*
X162301620Y-79257097D01*
X162371655Y-79300015D01*
X162399700Y-79323967D01*
X162426813Y-79342453D01*
X162490119Y-79401192D01*
X162556723Y-79458077D01*
X162576946Y-79481756D01*
X162596706Y-79500090D01*
X162654478Y-79572534D01*
X162714785Y-79643145D01*
X162728048Y-79664788D01*
X162741206Y-79681288D01*
X162790834Y-79767247D01*
X162841951Y-79850661D01*
X162849458Y-79868784D01*
X162857088Y-79882000D01*
X162895994Y-79981131D01*
X162935089Y-80075515D01*
X162938322Y-80088984D01*
X162941757Y-80097735D01*
X162967473Y-80210404D01*
X162991905Y-80312170D01*
X162992538Y-80320223D01*
X162993330Y-80323690D01*
X163003656Y-80461492D01*
X163011000Y-80554800D01*
X163003656Y-80648115D01*
X162993330Y-80785909D01*
X162992538Y-80789374D01*
X162991905Y-80797430D01*
X162967468Y-80899214D01*
X162941757Y-81011864D01*
X162938323Y-81020612D01*
X162935089Y-81034085D01*
X162895986Y-81128486D01*
X162857088Y-81227599D01*
X162849459Y-81240811D01*
X162841951Y-81258939D01*
X162790824Y-81342369D01*
X162741206Y-81428311D01*
X162728050Y-81444807D01*
X162714785Y-81466455D01*
X162654466Y-81537079D01*
X162596706Y-81609509D01*
X162576951Y-81627838D01*
X162556723Y-81651523D01*
X162490105Y-81708418D01*
X162426813Y-81767146D01*
X162399706Y-81785627D01*
X162371655Y-81809585D01*
X162301606Y-81852510D01*
X162235322Y-81897703D01*
X162200474Y-81914484D01*
X162164139Y-81936751D01*
X162093350Y-81966072D01*
X162026519Y-81998257D01*
X161983952Y-82011386D01*
X161939285Y-82029889D01*
X161870200Y-82046474D01*
X161805050Y-82066571D01*
X161755189Y-82074086D01*
X161702630Y-82086705D01*
X161637433Y-82091835D01*
X161575880Y-82101114D01*
X161519543Y-82101114D01*
X161460000Y-82105800D01*
X161400457Y-82101114D01*
X161344120Y-82101114D01*
X161282565Y-82091835D01*
X161217370Y-82086705D01*
X161164811Y-82074086D01*
X161114949Y-82066571D01*
X161049796Y-82046473D01*
X160980715Y-82029889D01*
X160936047Y-82011387D01*
X160893481Y-81998257D01*
X160826646Y-81966071D01*
X160755861Y-81936751D01*
X160719528Y-81914486D01*
X160684675Y-81897702D01*
X160618377Y-81852500D01*
X160548345Y-81809585D01*
X160520301Y-81785633D01*
X160493188Y-81767148D01*
X160429880Y-81708407D01*
X160363277Y-81651523D01*
X160343052Y-81627843D01*
X160323293Y-81609509D01*
X160265518Y-81537061D01*
X160205215Y-81466455D01*
X160191952Y-81444812D01*
X160178793Y-81428311D01*
X160129157Y-81342340D01*
X160078049Y-81258939D01*
X160070542Y-81240817D01*
X160062911Y-81227599D01*
X160023994Y-81128440D01*
X159984911Y-81034085D01*
X159981678Y-81020619D01*
X159978242Y-81011864D01*
X159952511Y-80899129D01*
X159928095Y-80797430D01*
X159927461Y-80789381D01*
X159926669Y-80785909D01*
X159916323Y-80647850D01*
X159909000Y-80554800D01*
X159916322Y-80461757D01*
X159926669Y-80323690D01*
X159927461Y-80320216D01*
X159928095Y-80312170D01*
X159952506Y-80210489D01*
X159978242Y-80097735D01*
X159981678Y-80088978D01*
X159984911Y-80075515D01*
X160023986Y-79981177D01*
X160062911Y-79882000D01*
X160070544Y-79868778D01*
X160078049Y-79850661D01*
X160129147Y-79767275D01*
X160178793Y-79681288D01*
X160191955Y-79664783D01*
X160205215Y-79643145D01*
X160265506Y-79572552D01*
X160323293Y-79500090D01*
X160343056Y-79481751D01*
X160363277Y-79458077D01*
X160429866Y-79401204D01*
X160493188Y-79342451D01*
X160520307Y-79323961D01*
X160548345Y-79300015D01*
X160618362Y-79257108D01*
X160684675Y-79211897D01*
X160719536Y-79195108D01*
X160755861Y-79172849D01*
X160826632Y-79143534D01*
X160893481Y-79111342D01*
X160936057Y-79098208D01*
X160980715Y-79079711D01*
X161049781Y-79063129D01*
X161114949Y-79043028D01*
X161164820Y-79035511D01*
X161217370Y-79022895D01*
X161282561Y-79017764D01*
X161344120Y-79008486D01*
X161400457Y-79008486D01*
X161460000Y-79003800D01*
X161519543Y-79008486D01*
G37*
G36*
X91991983Y-79113936D02*
G01*
X92042180Y-79113936D01*
X92085524Y-79123149D01*
X92123659Y-79126905D01*
X92171566Y-79141437D01*
X92226424Y-79153098D01*
X92261530Y-79168728D01*
X92292566Y-79178143D01*
X92341884Y-79204504D01*
X92398500Y-79229711D01*
X92424822Y-79248835D01*
X92448232Y-79261348D01*
X92495988Y-79300540D01*
X92550887Y-79340427D01*
X92568711Y-79360223D01*
X92584675Y-79373324D01*
X92627572Y-79425594D01*
X92676924Y-79480405D01*
X92687292Y-79498363D01*
X92696651Y-79509767D01*
X92731273Y-79574542D01*
X92771104Y-79643530D01*
X92775685Y-79657630D01*
X92779856Y-79665433D01*
X92802852Y-79741242D01*
X92829311Y-79822672D01*
X92830242Y-79831532D01*
X92831094Y-79834340D01*
X92839384Y-79918513D01*
X92849000Y-80010000D01*
X92839383Y-80101494D01*
X92831094Y-80185659D01*
X92830242Y-80188466D01*
X92829311Y-80197328D01*
X92802848Y-80278771D01*
X92779856Y-80354566D01*
X92775686Y-80362366D01*
X92771104Y-80376470D01*
X92731266Y-80445470D01*
X92696651Y-80510232D01*
X92687294Y-80521633D01*
X92676924Y-80539595D01*
X92627563Y-80594415D01*
X92584675Y-80646675D01*
X92568714Y-80659773D01*
X92550887Y-80679573D01*
X92495977Y-80719467D01*
X92448232Y-80758651D01*
X92424827Y-80771161D01*
X92398500Y-80790289D01*
X92341873Y-80815500D01*
X92292566Y-80841856D01*
X92261537Y-80851268D01*
X92226424Y-80866902D01*
X92171555Y-80878564D01*
X92123659Y-80893094D01*
X92085532Y-80896849D01*
X92042180Y-80906064D01*
X91991973Y-80906064D01*
X91948000Y-80910395D01*
X91904027Y-80906064D01*
X91853820Y-80906064D01*
X91810467Y-80896849D01*
X91772340Y-80893094D01*
X91724441Y-80878563D01*
X91669576Y-80866902D01*
X91634464Y-80851269D01*
X91603433Y-80841856D01*
X91554120Y-80815498D01*
X91497500Y-80790289D01*
X91471175Y-80771163D01*
X91447767Y-80758651D01*
X91400013Y-80719460D01*
X91345113Y-80679573D01*
X91327287Y-80659776D01*
X91311324Y-80646675D01*
X91268425Y-80594402D01*
X91219076Y-80539595D01*
X91208708Y-80521637D01*
X91199348Y-80510232D01*
X91164719Y-80445447D01*
X91124896Y-80376470D01*
X91120315Y-80362371D01*
X91116143Y-80354566D01*
X91093136Y-80278725D01*
X91066689Y-80197328D01*
X91065758Y-80188471D01*
X91064905Y-80185659D01*
X91056600Y-80101342D01*
X91047000Y-80010000D01*
X91056599Y-79918664D01*
X91064905Y-79834340D01*
X91065758Y-79831527D01*
X91066689Y-79822672D01*
X91093132Y-79741288D01*
X91116143Y-79665433D01*
X91120315Y-79657626D01*
X91124896Y-79643530D01*
X91164712Y-79574565D01*
X91199348Y-79509767D01*
X91208710Y-79498359D01*
X91219076Y-79480405D01*
X91268416Y-79425607D01*
X91311324Y-79373324D01*
X91327291Y-79360219D01*
X91345113Y-79340427D01*
X91400002Y-79300546D01*
X91447767Y-79261348D01*
X91471180Y-79248833D01*
X91497500Y-79229711D01*
X91554109Y-79204506D01*
X91603433Y-79178143D01*
X91634471Y-79168727D01*
X91669576Y-79153098D01*
X91724430Y-79141438D01*
X91772340Y-79126905D01*
X91810476Y-79123148D01*
X91853820Y-79113936D01*
X91904016Y-79113936D01*
X91948000Y-79109604D01*
X91991983Y-79113936D01*
G37*
G36*
X94531983Y-79113936D02*
G01*
X94582180Y-79113936D01*
X94625524Y-79123149D01*
X94663659Y-79126905D01*
X94711566Y-79141437D01*
X94766424Y-79153098D01*
X94801530Y-79168728D01*
X94832566Y-79178143D01*
X94881884Y-79204504D01*
X94938500Y-79229711D01*
X94964822Y-79248835D01*
X94988232Y-79261348D01*
X95035988Y-79300540D01*
X95090887Y-79340427D01*
X95108711Y-79360223D01*
X95124675Y-79373324D01*
X95167572Y-79425594D01*
X95216924Y-79480405D01*
X95227292Y-79498363D01*
X95236651Y-79509767D01*
X95271273Y-79574542D01*
X95311104Y-79643530D01*
X95315685Y-79657630D01*
X95319856Y-79665433D01*
X95342852Y-79741242D01*
X95369311Y-79822672D01*
X95370242Y-79831532D01*
X95371094Y-79834340D01*
X95379384Y-79918513D01*
X95389000Y-80010000D01*
X95379383Y-80101494D01*
X95371094Y-80185659D01*
X95370242Y-80188466D01*
X95369311Y-80197328D01*
X95342848Y-80278771D01*
X95319856Y-80354566D01*
X95315686Y-80362366D01*
X95311104Y-80376470D01*
X95271266Y-80445470D01*
X95236651Y-80510232D01*
X95227294Y-80521633D01*
X95216924Y-80539595D01*
X95167563Y-80594415D01*
X95124675Y-80646675D01*
X95108714Y-80659773D01*
X95090887Y-80679573D01*
X95035977Y-80719467D01*
X94988232Y-80758651D01*
X94964827Y-80771161D01*
X94938500Y-80790289D01*
X94881873Y-80815500D01*
X94832566Y-80841856D01*
X94801537Y-80851268D01*
X94766424Y-80866902D01*
X94711555Y-80878564D01*
X94663659Y-80893094D01*
X94625532Y-80896849D01*
X94582180Y-80906064D01*
X94531973Y-80906064D01*
X94488000Y-80910395D01*
X94444027Y-80906064D01*
X94393820Y-80906064D01*
X94350467Y-80896849D01*
X94312340Y-80893094D01*
X94264441Y-80878563D01*
X94209576Y-80866902D01*
X94174464Y-80851269D01*
X94143433Y-80841856D01*
X94094120Y-80815498D01*
X94037500Y-80790289D01*
X94011175Y-80771163D01*
X93987767Y-80758651D01*
X93940013Y-80719460D01*
X93885113Y-80679573D01*
X93867287Y-80659776D01*
X93851324Y-80646675D01*
X93808425Y-80594402D01*
X93759076Y-80539595D01*
X93748708Y-80521637D01*
X93739348Y-80510232D01*
X93704719Y-80445447D01*
X93664896Y-80376470D01*
X93660315Y-80362371D01*
X93656143Y-80354566D01*
X93633136Y-80278725D01*
X93606689Y-80197328D01*
X93605758Y-80188471D01*
X93604905Y-80185659D01*
X93596600Y-80101342D01*
X93587000Y-80010000D01*
X93596599Y-79918664D01*
X93604905Y-79834340D01*
X93605758Y-79831527D01*
X93606689Y-79822672D01*
X93633132Y-79741288D01*
X93656143Y-79665433D01*
X93660315Y-79657626D01*
X93664896Y-79643530D01*
X93704712Y-79574565D01*
X93739348Y-79509767D01*
X93748710Y-79498359D01*
X93759076Y-79480405D01*
X93808416Y-79425607D01*
X93851324Y-79373324D01*
X93867291Y-79360219D01*
X93885113Y-79340427D01*
X93940002Y-79300546D01*
X93987767Y-79261348D01*
X94011180Y-79248833D01*
X94037500Y-79229711D01*
X94094109Y-79204506D01*
X94143433Y-79178143D01*
X94174471Y-79168727D01*
X94209576Y-79153098D01*
X94264430Y-79141438D01*
X94312340Y-79126905D01*
X94350476Y-79123148D01*
X94393820Y-79113936D01*
X94444016Y-79113936D01*
X94488000Y-79109604D01*
X94531983Y-79113936D01*
G37*
G36*
X91991983Y-76573936D02*
G01*
X92042180Y-76573936D01*
X92085524Y-76583149D01*
X92123659Y-76586905D01*
X92171566Y-76601437D01*
X92226424Y-76613098D01*
X92261530Y-76628728D01*
X92292566Y-76638143D01*
X92341884Y-76664504D01*
X92398500Y-76689711D01*
X92424822Y-76708835D01*
X92448232Y-76721348D01*
X92495988Y-76760540D01*
X92550887Y-76800427D01*
X92568711Y-76820223D01*
X92584675Y-76833324D01*
X92627572Y-76885594D01*
X92676924Y-76940405D01*
X92687292Y-76958363D01*
X92696651Y-76969767D01*
X92731273Y-77034542D01*
X92771104Y-77103530D01*
X92775685Y-77117630D01*
X92779856Y-77125433D01*
X92802852Y-77201242D01*
X92829311Y-77282672D01*
X92830242Y-77291532D01*
X92831094Y-77294340D01*
X92839384Y-77378513D01*
X92849000Y-77470000D01*
X92839383Y-77561494D01*
X92831094Y-77645659D01*
X92830242Y-77648466D01*
X92829311Y-77657328D01*
X92802848Y-77738771D01*
X92779856Y-77814566D01*
X92775686Y-77822366D01*
X92771104Y-77836470D01*
X92731266Y-77905470D01*
X92696651Y-77970232D01*
X92687294Y-77981633D01*
X92676924Y-77999595D01*
X92627563Y-78054415D01*
X92584675Y-78106675D01*
X92568714Y-78119773D01*
X92550887Y-78139573D01*
X92495977Y-78179467D01*
X92448232Y-78218651D01*
X92424827Y-78231161D01*
X92398500Y-78250289D01*
X92341873Y-78275500D01*
X92292566Y-78301856D01*
X92261537Y-78311268D01*
X92226424Y-78326902D01*
X92171555Y-78338564D01*
X92123659Y-78353094D01*
X92085532Y-78356849D01*
X92042180Y-78366064D01*
X91991973Y-78366064D01*
X91948000Y-78370395D01*
X91904027Y-78366064D01*
X91853820Y-78366064D01*
X91810467Y-78356849D01*
X91772340Y-78353094D01*
X91724441Y-78338563D01*
X91669576Y-78326902D01*
X91634464Y-78311269D01*
X91603433Y-78301856D01*
X91554120Y-78275498D01*
X91497500Y-78250289D01*
X91471175Y-78231163D01*
X91447767Y-78218651D01*
X91400013Y-78179460D01*
X91345113Y-78139573D01*
X91327287Y-78119776D01*
X91311324Y-78106675D01*
X91268425Y-78054402D01*
X91219076Y-77999595D01*
X91208708Y-77981637D01*
X91199348Y-77970232D01*
X91164719Y-77905447D01*
X91124896Y-77836470D01*
X91120315Y-77822371D01*
X91116143Y-77814566D01*
X91093136Y-77738725D01*
X91066689Y-77657328D01*
X91065758Y-77648471D01*
X91064905Y-77645659D01*
X91056600Y-77561342D01*
X91047000Y-77470000D01*
X91056599Y-77378664D01*
X91064905Y-77294340D01*
X91065758Y-77291527D01*
X91066689Y-77282672D01*
X91093132Y-77201288D01*
X91116143Y-77125433D01*
X91120315Y-77117626D01*
X91124896Y-77103530D01*
X91164712Y-77034565D01*
X91199348Y-76969767D01*
X91208710Y-76958359D01*
X91219076Y-76940405D01*
X91268416Y-76885607D01*
X91311324Y-76833324D01*
X91327291Y-76820219D01*
X91345113Y-76800427D01*
X91400002Y-76760546D01*
X91447767Y-76721348D01*
X91471180Y-76708833D01*
X91497500Y-76689711D01*
X91554109Y-76664506D01*
X91603433Y-76638143D01*
X91634471Y-76628727D01*
X91669576Y-76613098D01*
X91724430Y-76601438D01*
X91772340Y-76586905D01*
X91810476Y-76583148D01*
X91853820Y-76573936D01*
X91904016Y-76573936D01*
X91948000Y-76569604D01*
X91991983Y-76573936D01*
G37*
G36*
X94531983Y-76573936D02*
G01*
X94582180Y-76573936D01*
X94625524Y-76583149D01*
X94663659Y-76586905D01*
X94711566Y-76601437D01*
X94766424Y-76613098D01*
X94801530Y-76628728D01*
X94832566Y-76638143D01*
X94881884Y-76664504D01*
X94938500Y-76689711D01*
X94964822Y-76708835D01*
X94988232Y-76721348D01*
X95035988Y-76760540D01*
X95090887Y-76800427D01*
X95108711Y-76820223D01*
X95124675Y-76833324D01*
X95167572Y-76885594D01*
X95216924Y-76940405D01*
X95227292Y-76958363D01*
X95236651Y-76969767D01*
X95271273Y-77034542D01*
X95311104Y-77103530D01*
X95315685Y-77117630D01*
X95319856Y-77125433D01*
X95342852Y-77201242D01*
X95369311Y-77282672D01*
X95370242Y-77291532D01*
X95371094Y-77294340D01*
X95379384Y-77378513D01*
X95389000Y-77470000D01*
X95379383Y-77561494D01*
X95371094Y-77645659D01*
X95370242Y-77648466D01*
X95369311Y-77657328D01*
X95342848Y-77738771D01*
X95319856Y-77814566D01*
X95315686Y-77822366D01*
X95311104Y-77836470D01*
X95271266Y-77905470D01*
X95236651Y-77970232D01*
X95227294Y-77981633D01*
X95216924Y-77999595D01*
X95167563Y-78054415D01*
X95124675Y-78106675D01*
X95108714Y-78119773D01*
X95090887Y-78139573D01*
X95035977Y-78179467D01*
X94988232Y-78218651D01*
X94964827Y-78231161D01*
X94938500Y-78250289D01*
X94881873Y-78275500D01*
X94832566Y-78301856D01*
X94801537Y-78311268D01*
X94766424Y-78326902D01*
X94711555Y-78338564D01*
X94663659Y-78353094D01*
X94625532Y-78356849D01*
X94582180Y-78366064D01*
X94531973Y-78366064D01*
X94488000Y-78370395D01*
X94444027Y-78366064D01*
X94393820Y-78366064D01*
X94350467Y-78356849D01*
X94312340Y-78353094D01*
X94264441Y-78338563D01*
X94209576Y-78326902D01*
X94174464Y-78311269D01*
X94143433Y-78301856D01*
X94094120Y-78275498D01*
X94037500Y-78250289D01*
X94011175Y-78231163D01*
X93987767Y-78218651D01*
X93940013Y-78179460D01*
X93885113Y-78139573D01*
X93867287Y-78119776D01*
X93851324Y-78106675D01*
X93808425Y-78054402D01*
X93759076Y-77999595D01*
X93748708Y-77981637D01*
X93739348Y-77970232D01*
X93704719Y-77905447D01*
X93664896Y-77836470D01*
X93660315Y-77822371D01*
X93656143Y-77814566D01*
X93633136Y-77738725D01*
X93606689Y-77657328D01*
X93605758Y-77648471D01*
X93604905Y-77645659D01*
X93596600Y-77561342D01*
X93587000Y-77470000D01*
X93596599Y-77378664D01*
X93604905Y-77294340D01*
X93605758Y-77291527D01*
X93606689Y-77282672D01*
X93633132Y-77201288D01*
X93656143Y-77125433D01*
X93660315Y-77117626D01*
X93664896Y-77103530D01*
X93704712Y-77034565D01*
X93739348Y-76969767D01*
X93748710Y-76958359D01*
X93759076Y-76940405D01*
X93808416Y-76885607D01*
X93851324Y-76833324D01*
X93867291Y-76820219D01*
X93885113Y-76800427D01*
X93940002Y-76760546D01*
X93987767Y-76721348D01*
X94011180Y-76708833D01*
X94037500Y-76689711D01*
X94094109Y-76664506D01*
X94143433Y-76638143D01*
X94174471Y-76628727D01*
X94209576Y-76613098D01*
X94264430Y-76601438D01*
X94312340Y-76586905D01*
X94350476Y-76583148D01*
X94393820Y-76573936D01*
X94444016Y-76573936D01*
X94488000Y-76569604D01*
X94531983Y-76573936D01*
G37*
G36*
X166839417Y-76452682D02*
G01*
X166855962Y-76463738D01*
X166867018Y-76480283D01*
X166870900Y-76499800D01*
X166870900Y-78299800D01*
X166867018Y-78319317D01*
X166855962Y-78335862D01*
X166839417Y-78346918D01*
X166819900Y-78350800D01*
X165019900Y-78350800D01*
X165000383Y-78346918D01*
X164983838Y-78335862D01*
X164972782Y-78319317D01*
X164968900Y-78299800D01*
X164968900Y-76499800D01*
X164972782Y-76480283D01*
X164983838Y-76463738D01*
X165000383Y-76452682D01*
X165019900Y-76448800D01*
X166819900Y-76448800D01*
X166839417Y-76452682D01*
G37*
G36*
X91991983Y-74033936D02*
G01*
X92042180Y-74033936D01*
X92085524Y-74043149D01*
X92123659Y-74046905D01*
X92171566Y-74061437D01*
X92226424Y-74073098D01*
X92261530Y-74088728D01*
X92292566Y-74098143D01*
X92341884Y-74124504D01*
X92398500Y-74149711D01*
X92424822Y-74168835D01*
X92448232Y-74181348D01*
X92495988Y-74220540D01*
X92550887Y-74260427D01*
X92568711Y-74280223D01*
X92584675Y-74293324D01*
X92627572Y-74345594D01*
X92676924Y-74400405D01*
X92687292Y-74418363D01*
X92696651Y-74429767D01*
X92731273Y-74494542D01*
X92771104Y-74563530D01*
X92775685Y-74577630D01*
X92779856Y-74585433D01*
X92802852Y-74661242D01*
X92829311Y-74742672D01*
X92830242Y-74751532D01*
X92831094Y-74754340D01*
X92839384Y-74838513D01*
X92849000Y-74930000D01*
X92839383Y-75021494D01*
X92831094Y-75105659D01*
X92830242Y-75108466D01*
X92829311Y-75117328D01*
X92802848Y-75198771D01*
X92779856Y-75274566D01*
X92775686Y-75282366D01*
X92771104Y-75296470D01*
X92731266Y-75365470D01*
X92696651Y-75430232D01*
X92687294Y-75441633D01*
X92676924Y-75459595D01*
X92627563Y-75514415D01*
X92584675Y-75566675D01*
X92568714Y-75579773D01*
X92550887Y-75599573D01*
X92495977Y-75639467D01*
X92448232Y-75678651D01*
X92424827Y-75691161D01*
X92398500Y-75710289D01*
X92341873Y-75735500D01*
X92292566Y-75761856D01*
X92261537Y-75771268D01*
X92226424Y-75786902D01*
X92171555Y-75798564D01*
X92123659Y-75813094D01*
X92085532Y-75816849D01*
X92042180Y-75826064D01*
X91991973Y-75826064D01*
X91948000Y-75830395D01*
X91904027Y-75826064D01*
X91853820Y-75826064D01*
X91810467Y-75816849D01*
X91772340Y-75813094D01*
X91724441Y-75798563D01*
X91669576Y-75786902D01*
X91634464Y-75771269D01*
X91603433Y-75761856D01*
X91554120Y-75735498D01*
X91497500Y-75710289D01*
X91471175Y-75691163D01*
X91447767Y-75678651D01*
X91400013Y-75639460D01*
X91345113Y-75599573D01*
X91327287Y-75579776D01*
X91311324Y-75566675D01*
X91268425Y-75514402D01*
X91219076Y-75459595D01*
X91208708Y-75441637D01*
X91199348Y-75430232D01*
X91164719Y-75365447D01*
X91124896Y-75296470D01*
X91120315Y-75282371D01*
X91116143Y-75274566D01*
X91093136Y-75198725D01*
X91066689Y-75117328D01*
X91065758Y-75108471D01*
X91064905Y-75105659D01*
X91056600Y-75021342D01*
X91047000Y-74930000D01*
X91056599Y-74838664D01*
X91064905Y-74754340D01*
X91065758Y-74751527D01*
X91066689Y-74742672D01*
X91093132Y-74661288D01*
X91116143Y-74585433D01*
X91120315Y-74577626D01*
X91124896Y-74563530D01*
X91164712Y-74494565D01*
X91199348Y-74429767D01*
X91208710Y-74418359D01*
X91219076Y-74400405D01*
X91268416Y-74345607D01*
X91311324Y-74293324D01*
X91327291Y-74280219D01*
X91345113Y-74260427D01*
X91400002Y-74220546D01*
X91447767Y-74181348D01*
X91471180Y-74168833D01*
X91497500Y-74149711D01*
X91554109Y-74124506D01*
X91603433Y-74098143D01*
X91634471Y-74088727D01*
X91669576Y-74073098D01*
X91724430Y-74061438D01*
X91772340Y-74046905D01*
X91810476Y-74043148D01*
X91853820Y-74033936D01*
X91904016Y-74033936D01*
X91948000Y-74029604D01*
X91991983Y-74033936D01*
G37*
G36*
X94531983Y-74033936D02*
G01*
X94582180Y-74033936D01*
X94625524Y-74043149D01*
X94663659Y-74046905D01*
X94711566Y-74061437D01*
X94766424Y-74073098D01*
X94801530Y-74088728D01*
X94832566Y-74098143D01*
X94881884Y-74124504D01*
X94938500Y-74149711D01*
X94964822Y-74168835D01*
X94988232Y-74181348D01*
X95035988Y-74220540D01*
X95090887Y-74260427D01*
X95108711Y-74280223D01*
X95124675Y-74293324D01*
X95167572Y-74345594D01*
X95216924Y-74400405D01*
X95227292Y-74418363D01*
X95236651Y-74429767D01*
X95271273Y-74494542D01*
X95311104Y-74563530D01*
X95315685Y-74577630D01*
X95319856Y-74585433D01*
X95342852Y-74661242D01*
X95369311Y-74742672D01*
X95370242Y-74751532D01*
X95371094Y-74754340D01*
X95379384Y-74838513D01*
X95389000Y-74930000D01*
X95379383Y-75021494D01*
X95371094Y-75105659D01*
X95370242Y-75108466D01*
X95369311Y-75117328D01*
X95342848Y-75198771D01*
X95319856Y-75274566D01*
X95315686Y-75282366D01*
X95311104Y-75296470D01*
X95271266Y-75365470D01*
X95236651Y-75430232D01*
X95227294Y-75441633D01*
X95216924Y-75459595D01*
X95167563Y-75514415D01*
X95124675Y-75566675D01*
X95108714Y-75579773D01*
X95090887Y-75599573D01*
X95035977Y-75639467D01*
X94988232Y-75678651D01*
X94964827Y-75691161D01*
X94938500Y-75710289D01*
X94881873Y-75735500D01*
X94832566Y-75761856D01*
X94801537Y-75771268D01*
X94766424Y-75786902D01*
X94711555Y-75798564D01*
X94663659Y-75813094D01*
X94625532Y-75816849D01*
X94582180Y-75826064D01*
X94531973Y-75826064D01*
X94488000Y-75830395D01*
X94444027Y-75826064D01*
X94393820Y-75826064D01*
X94350467Y-75816849D01*
X94312340Y-75813094D01*
X94264441Y-75798563D01*
X94209576Y-75786902D01*
X94174464Y-75771269D01*
X94143433Y-75761856D01*
X94094120Y-75735498D01*
X94037500Y-75710289D01*
X94011175Y-75691163D01*
X93987767Y-75678651D01*
X93940013Y-75639460D01*
X93885113Y-75599573D01*
X93867287Y-75579776D01*
X93851324Y-75566675D01*
X93808425Y-75514402D01*
X93759076Y-75459595D01*
X93748708Y-75441637D01*
X93739348Y-75430232D01*
X93704719Y-75365447D01*
X93664896Y-75296470D01*
X93660315Y-75282371D01*
X93656143Y-75274566D01*
X93633136Y-75198725D01*
X93606689Y-75117328D01*
X93605758Y-75108471D01*
X93604905Y-75105659D01*
X93596600Y-75021342D01*
X93587000Y-74930000D01*
X93596599Y-74838664D01*
X93604905Y-74754340D01*
X93605758Y-74751527D01*
X93606689Y-74742672D01*
X93633132Y-74661288D01*
X93656143Y-74585433D01*
X93660315Y-74577626D01*
X93664896Y-74563530D01*
X93704712Y-74494565D01*
X93739348Y-74429767D01*
X93748710Y-74418359D01*
X93759076Y-74400405D01*
X93808416Y-74345607D01*
X93851324Y-74293324D01*
X93867291Y-74280219D01*
X93885113Y-74260427D01*
X93940002Y-74220546D01*
X93987767Y-74181348D01*
X94011180Y-74168833D01*
X94037500Y-74149711D01*
X94094109Y-74124506D01*
X94143433Y-74098143D01*
X94174471Y-74088727D01*
X94209576Y-74073098D01*
X94264430Y-74061438D01*
X94312340Y-74046905D01*
X94350476Y-74043148D01*
X94393820Y-74033936D01*
X94444016Y-74033936D01*
X94488000Y-74029604D01*
X94531983Y-74033936D01*
G37*
G36*
X165966504Y-73913390D02*
G01*
X166007596Y-73913390D01*
X166053356Y-73921944D01*
X166105431Y-73927073D01*
X166144991Y-73939073D01*
X166180011Y-73945620D01*
X166228517Y-73964411D01*
X166283832Y-73981191D01*
X166315434Y-73998082D01*
X166343556Y-74008977D01*
X166392413Y-74039228D01*
X166448247Y-74069072D01*
X166471709Y-74088326D01*
X166492684Y-74101314D01*
X166539156Y-74143679D01*
X166592359Y-74187341D01*
X166608124Y-74206551D01*
X166622300Y-74219474D01*
X166663457Y-74273974D01*
X166710628Y-74331453D01*
X166719748Y-74348517D01*
X166727999Y-74359442D01*
X166760825Y-74425366D01*
X166798509Y-74495868D01*
X166802528Y-74509116D01*
X166806182Y-74516455D01*
X166827764Y-74592307D01*
X166852627Y-74674269D01*
X166853443Y-74682562D01*
X166854180Y-74685150D01*
X166861837Y-74767782D01*
X166870900Y-74859800D01*
X166861836Y-74951826D01*
X166854180Y-75034449D01*
X166853444Y-75037035D01*
X166852627Y-75045331D01*
X166827759Y-75127307D01*
X166806182Y-75203144D01*
X166802528Y-75210480D01*
X166798509Y-75223732D01*
X166760817Y-75294247D01*
X166727999Y-75360157D01*
X166719750Y-75371079D01*
X166710628Y-75388147D01*
X166663447Y-75445636D01*
X166622300Y-75500125D01*
X166608127Y-75513044D01*
X166592359Y-75532259D01*
X166539145Y-75575929D01*
X166492684Y-75618285D01*
X166471714Y-75631269D01*
X166448247Y-75650528D01*
X166392402Y-75680377D01*
X166343556Y-75710622D01*
X166315441Y-75721513D01*
X166283832Y-75738409D01*
X166228505Y-75755192D01*
X166180011Y-75773979D01*
X166144998Y-75780524D01*
X166105431Y-75792527D01*
X166053353Y-75797656D01*
X166007596Y-75806210D01*
X165966504Y-75806210D01*
X165919900Y-75810800D01*
X165873296Y-75806210D01*
X165832204Y-75806210D01*
X165786445Y-75797656D01*
X165734369Y-75792527D01*
X165694802Y-75780524D01*
X165659788Y-75773979D01*
X165611289Y-75755190D01*
X165555968Y-75738409D01*
X165524361Y-75721514D01*
X165496243Y-75710622D01*
X165447390Y-75680373D01*
X165391553Y-75650528D01*
X165368088Y-75631271D01*
X165347115Y-75618285D01*
X165300644Y-75575921D01*
X165247441Y-75532259D01*
X165231675Y-75513048D01*
X165217499Y-75500125D01*
X165176339Y-75445621D01*
X165129172Y-75388147D01*
X165120051Y-75371084D01*
X165111800Y-75360157D01*
X165078967Y-75294220D01*
X165041291Y-75223732D01*
X165037272Y-75210485D01*
X165033617Y-75203144D01*
X165012024Y-75127254D01*
X164987173Y-75045331D01*
X164986356Y-75037041D01*
X164985619Y-75034449D01*
X164977946Y-74951654D01*
X164968900Y-74859800D01*
X164977945Y-74767953D01*
X164985619Y-74685150D01*
X164986356Y-74682557D01*
X164987173Y-74674269D01*
X165012019Y-74592360D01*
X165033617Y-74516455D01*
X165037273Y-74509111D01*
X165041291Y-74495868D01*
X165078960Y-74425393D01*
X165111800Y-74359442D01*
X165120053Y-74348512D01*
X165129172Y-74331453D01*
X165176330Y-74273990D01*
X165217499Y-74219474D01*
X165231678Y-74206547D01*
X165247441Y-74187341D01*
X165300633Y-74143687D01*
X165347115Y-74101314D01*
X165368093Y-74088324D01*
X165391553Y-74069072D01*
X165447378Y-74039232D01*
X165496243Y-74008977D01*
X165524367Y-73998081D01*
X165555968Y-73981191D01*
X165611277Y-73964412D01*
X165659788Y-73945620D01*
X165694809Y-73939073D01*
X165734369Y-73927073D01*
X165786442Y-73921944D01*
X165832204Y-73913390D01*
X165873296Y-73913390D01*
X165919900Y-73908800D01*
X165966504Y-73913390D01*
G37*
G36*
X92817517Y-71492882D02*
G01*
X92834062Y-71503938D01*
X92845118Y-71520483D01*
X92849000Y-71540000D01*
X92849000Y-73240000D01*
X92845118Y-73259517D01*
X92834062Y-73276062D01*
X92817517Y-73287118D01*
X92798000Y-73291000D01*
X91098000Y-73291000D01*
X91078483Y-73287118D01*
X91061938Y-73276062D01*
X91050882Y-73259517D01*
X91047000Y-73240000D01*
X91047000Y-71540000D01*
X91050882Y-71520483D01*
X91061938Y-71503938D01*
X91078483Y-71492882D01*
X91098000Y-71489000D01*
X92798000Y-71489000D01*
X92817517Y-71492882D01*
G37*
G36*
X94531983Y-71493936D02*
G01*
X94582180Y-71493936D01*
X94625524Y-71503149D01*
X94663659Y-71506905D01*
X94711566Y-71521437D01*
X94766424Y-71533098D01*
X94801530Y-71548728D01*
X94832566Y-71558143D01*
X94881884Y-71584504D01*
X94938500Y-71609711D01*
X94964822Y-71628835D01*
X94988232Y-71641348D01*
X95035988Y-71680540D01*
X95090887Y-71720427D01*
X95108711Y-71740223D01*
X95124675Y-71753324D01*
X95167572Y-71805594D01*
X95216924Y-71860405D01*
X95227292Y-71878363D01*
X95236651Y-71889767D01*
X95271273Y-71954542D01*
X95311104Y-72023530D01*
X95315685Y-72037630D01*
X95319856Y-72045433D01*
X95342852Y-72121242D01*
X95369311Y-72202672D01*
X95370242Y-72211532D01*
X95371094Y-72214340D01*
X95379384Y-72298513D01*
X95389000Y-72390000D01*
X95379383Y-72481494D01*
X95371094Y-72565659D01*
X95370242Y-72568466D01*
X95369311Y-72577328D01*
X95342848Y-72658771D01*
X95319856Y-72734566D01*
X95315686Y-72742366D01*
X95311104Y-72756470D01*
X95271266Y-72825470D01*
X95236651Y-72890232D01*
X95227294Y-72901633D01*
X95216924Y-72919595D01*
X95167563Y-72974415D01*
X95124675Y-73026675D01*
X95108714Y-73039773D01*
X95090887Y-73059573D01*
X95035977Y-73099467D01*
X94988232Y-73138651D01*
X94964827Y-73151161D01*
X94938500Y-73170289D01*
X94881873Y-73195500D01*
X94832566Y-73221856D01*
X94801537Y-73231268D01*
X94766424Y-73246902D01*
X94711555Y-73258564D01*
X94663659Y-73273094D01*
X94625532Y-73276849D01*
X94582180Y-73286064D01*
X94531973Y-73286064D01*
X94488000Y-73290395D01*
X94444027Y-73286064D01*
X94393820Y-73286064D01*
X94350467Y-73276849D01*
X94312340Y-73273094D01*
X94264441Y-73258563D01*
X94209576Y-73246902D01*
X94174464Y-73231269D01*
X94143433Y-73221856D01*
X94094120Y-73195498D01*
X94037500Y-73170289D01*
X94011175Y-73151163D01*
X93987767Y-73138651D01*
X93940013Y-73099460D01*
X93885113Y-73059573D01*
X93867287Y-73039776D01*
X93851324Y-73026675D01*
X93808425Y-72974402D01*
X93759076Y-72919595D01*
X93748708Y-72901637D01*
X93739348Y-72890232D01*
X93704719Y-72825447D01*
X93664896Y-72756470D01*
X93660315Y-72742371D01*
X93656143Y-72734566D01*
X93633136Y-72658725D01*
X93606689Y-72577328D01*
X93605758Y-72568471D01*
X93604905Y-72565659D01*
X93596600Y-72481342D01*
X93587000Y-72390000D01*
X93596599Y-72298664D01*
X93604905Y-72214340D01*
X93605758Y-72211527D01*
X93606689Y-72202672D01*
X93633132Y-72121288D01*
X93656143Y-72045433D01*
X93660315Y-72037626D01*
X93664896Y-72023530D01*
X93704712Y-71954565D01*
X93739348Y-71889767D01*
X93748710Y-71878359D01*
X93759076Y-71860405D01*
X93808416Y-71805607D01*
X93851324Y-71753324D01*
X93867291Y-71740219D01*
X93885113Y-71720427D01*
X93940002Y-71680546D01*
X93987767Y-71641348D01*
X94011180Y-71628833D01*
X94037500Y-71609711D01*
X94094109Y-71584506D01*
X94143433Y-71558143D01*
X94174471Y-71548727D01*
X94209576Y-71533098D01*
X94264430Y-71521438D01*
X94312340Y-71506905D01*
X94350476Y-71503148D01*
X94393820Y-71493936D01*
X94444016Y-71493936D01*
X94488000Y-71489604D01*
X94531983Y-71493936D01*
G37*
G36*
X170147783Y-69207936D02*
G01*
X170197980Y-69207936D01*
X170241324Y-69217149D01*
X170279459Y-69220905D01*
X170327366Y-69235437D01*
X170382224Y-69247098D01*
X170417330Y-69262728D01*
X170448366Y-69272143D01*
X170497684Y-69298504D01*
X170554300Y-69323711D01*
X170580622Y-69342835D01*
X170604032Y-69355348D01*
X170651788Y-69394540D01*
X170706687Y-69434427D01*
X170724511Y-69454223D01*
X170740475Y-69467324D01*
X170783372Y-69519594D01*
X170832724Y-69574405D01*
X170843092Y-69592363D01*
X170852451Y-69603767D01*
X170887073Y-69668542D01*
X170926904Y-69737530D01*
X170931485Y-69751630D01*
X170935656Y-69759433D01*
X170958652Y-69835242D01*
X170985111Y-69916672D01*
X170986042Y-69925532D01*
X170986894Y-69928340D01*
X170995184Y-70012513D01*
X171004800Y-70104000D01*
X170995183Y-70195494D01*
X170986894Y-70279659D01*
X170986042Y-70282466D01*
X170985111Y-70291328D01*
X170958648Y-70372771D01*
X170935656Y-70448566D01*
X170931486Y-70456366D01*
X170926904Y-70470470D01*
X170887066Y-70539470D01*
X170852451Y-70604232D01*
X170843094Y-70615633D01*
X170832724Y-70633595D01*
X170783363Y-70688415D01*
X170740475Y-70740675D01*
X170724514Y-70753773D01*
X170706687Y-70773573D01*
X170651777Y-70813467D01*
X170604032Y-70852651D01*
X170580627Y-70865161D01*
X170554300Y-70884289D01*
X170497673Y-70909500D01*
X170448366Y-70935856D01*
X170417337Y-70945268D01*
X170382224Y-70960902D01*
X170327355Y-70972564D01*
X170279459Y-70987094D01*
X170241332Y-70990849D01*
X170197980Y-71000064D01*
X170147773Y-71000064D01*
X170103800Y-71004395D01*
X170059827Y-71000064D01*
X170009620Y-71000064D01*
X169966267Y-70990849D01*
X169928140Y-70987094D01*
X169880241Y-70972563D01*
X169825376Y-70960902D01*
X169790264Y-70945269D01*
X169759233Y-70935856D01*
X169709920Y-70909498D01*
X169653300Y-70884289D01*
X169626975Y-70865163D01*
X169603567Y-70852651D01*
X169555813Y-70813460D01*
X169500913Y-70773573D01*
X169483087Y-70753776D01*
X169467124Y-70740675D01*
X169424225Y-70688402D01*
X169374876Y-70633595D01*
X169364508Y-70615637D01*
X169355148Y-70604232D01*
X169320519Y-70539447D01*
X169280696Y-70470470D01*
X169276115Y-70456371D01*
X169271943Y-70448566D01*
X169248936Y-70372725D01*
X169222489Y-70291328D01*
X169221558Y-70282471D01*
X169220705Y-70279659D01*
X169212400Y-70195342D01*
X169202800Y-70104000D01*
X169212399Y-70012664D01*
X169220705Y-69928340D01*
X169221558Y-69925527D01*
X169222489Y-69916672D01*
X169248932Y-69835288D01*
X169271943Y-69759433D01*
X169276115Y-69751626D01*
X169280696Y-69737530D01*
X169320512Y-69668565D01*
X169355148Y-69603767D01*
X169364510Y-69592359D01*
X169374876Y-69574405D01*
X169424216Y-69519607D01*
X169467124Y-69467324D01*
X169483091Y-69454219D01*
X169500913Y-69434427D01*
X169555802Y-69394546D01*
X169603567Y-69355348D01*
X169626980Y-69342833D01*
X169653300Y-69323711D01*
X169709909Y-69298506D01*
X169759233Y-69272143D01*
X169790271Y-69262727D01*
X169825376Y-69247098D01*
X169880230Y-69235438D01*
X169928140Y-69220905D01*
X169966276Y-69217148D01*
X170009620Y-69207936D01*
X170059816Y-69207936D01*
X170103800Y-69203604D01*
X170147783Y-69207936D01*
G37*
G36*
X170147783Y-66667936D02*
G01*
X170197980Y-66667936D01*
X170241324Y-66677149D01*
X170279459Y-66680905D01*
X170327366Y-66695437D01*
X170382224Y-66707098D01*
X170417330Y-66722728D01*
X170448366Y-66732143D01*
X170497684Y-66758504D01*
X170554300Y-66783711D01*
X170580622Y-66802835D01*
X170604032Y-66815348D01*
X170651788Y-66854540D01*
X170706687Y-66894427D01*
X170724511Y-66914223D01*
X170740475Y-66927324D01*
X170783372Y-66979594D01*
X170832724Y-67034405D01*
X170843092Y-67052363D01*
X170852451Y-67063767D01*
X170887073Y-67128542D01*
X170926904Y-67197530D01*
X170931485Y-67211630D01*
X170935656Y-67219433D01*
X170958652Y-67295242D01*
X170985111Y-67376672D01*
X170986042Y-67385532D01*
X170986894Y-67388340D01*
X170995184Y-67472513D01*
X171004800Y-67564000D01*
X170995183Y-67655494D01*
X170986894Y-67739659D01*
X170986042Y-67742466D01*
X170985111Y-67751328D01*
X170958648Y-67832771D01*
X170935656Y-67908566D01*
X170931486Y-67916366D01*
X170926904Y-67930470D01*
X170887066Y-67999470D01*
X170852451Y-68064232D01*
X170843094Y-68075633D01*
X170832724Y-68093595D01*
X170783363Y-68148415D01*
X170740475Y-68200675D01*
X170724514Y-68213773D01*
X170706687Y-68233573D01*
X170651777Y-68273467D01*
X170604032Y-68312651D01*
X170580627Y-68325161D01*
X170554300Y-68344289D01*
X170497673Y-68369500D01*
X170448366Y-68395856D01*
X170417337Y-68405268D01*
X170382224Y-68420902D01*
X170327355Y-68432564D01*
X170279459Y-68447094D01*
X170241332Y-68450849D01*
X170197980Y-68460064D01*
X170147773Y-68460064D01*
X170103800Y-68464395D01*
X170059827Y-68460064D01*
X170009620Y-68460064D01*
X169966267Y-68450849D01*
X169928140Y-68447094D01*
X169880241Y-68432563D01*
X169825376Y-68420902D01*
X169790264Y-68405269D01*
X169759233Y-68395856D01*
X169709920Y-68369498D01*
X169653300Y-68344289D01*
X169626975Y-68325163D01*
X169603567Y-68312651D01*
X169555813Y-68273460D01*
X169500913Y-68233573D01*
X169483087Y-68213776D01*
X169467124Y-68200675D01*
X169424225Y-68148402D01*
X169374876Y-68093595D01*
X169364508Y-68075637D01*
X169355148Y-68064232D01*
X169320519Y-67999447D01*
X169280696Y-67930470D01*
X169276115Y-67916371D01*
X169271943Y-67908566D01*
X169248936Y-67832725D01*
X169222489Y-67751328D01*
X169221558Y-67742471D01*
X169220705Y-67739659D01*
X169212400Y-67655342D01*
X169202800Y-67564000D01*
X169212399Y-67472664D01*
X169220705Y-67388340D01*
X169221558Y-67385527D01*
X169222489Y-67376672D01*
X169248932Y-67295288D01*
X169271943Y-67219433D01*
X169276115Y-67211626D01*
X169280696Y-67197530D01*
X169320512Y-67128565D01*
X169355148Y-67063767D01*
X169364510Y-67052359D01*
X169374876Y-67034405D01*
X169424216Y-66979607D01*
X169467124Y-66927324D01*
X169483091Y-66914219D01*
X169500913Y-66894427D01*
X169555802Y-66854546D01*
X169603567Y-66815348D01*
X169626980Y-66802833D01*
X169653300Y-66783711D01*
X169709909Y-66758506D01*
X169759233Y-66732143D01*
X169790271Y-66722727D01*
X169825376Y-66707098D01*
X169880230Y-66695438D01*
X169928140Y-66680905D01*
X169966276Y-66677148D01*
X170009620Y-66667936D01*
X170059816Y-66667936D01*
X170103800Y-66663604D01*
X170147783Y-66667936D01*
G37*
G36*
X92118983Y-65143936D02*
G01*
X92169180Y-65143936D01*
X92212524Y-65153149D01*
X92250659Y-65156905D01*
X92298566Y-65171437D01*
X92353424Y-65183098D01*
X92388530Y-65198728D01*
X92419566Y-65208143D01*
X92468884Y-65234504D01*
X92525500Y-65259711D01*
X92551822Y-65278835D01*
X92575232Y-65291348D01*
X92622988Y-65330540D01*
X92677887Y-65370427D01*
X92695711Y-65390223D01*
X92711675Y-65403324D01*
X92754572Y-65455594D01*
X92803924Y-65510405D01*
X92814292Y-65528363D01*
X92823651Y-65539767D01*
X92858273Y-65604542D01*
X92898104Y-65673530D01*
X92902685Y-65687630D01*
X92906856Y-65695433D01*
X92929852Y-65771242D01*
X92956311Y-65852672D01*
X92957242Y-65861532D01*
X92958094Y-65864340D01*
X92966384Y-65948513D01*
X92976000Y-66040000D01*
X92966383Y-66131494D01*
X92958094Y-66215659D01*
X92957242Y-66218466D01*
X92956311Y-66227328D01*
X92929848Y-66308771D01*
X92906856Y-66384566D01*
X92902686Y-66392366D01*
X92898104Y-66406470D01*
X92858266Y-66475470D01*
X92823651Y-66540232D01*
X92814294Y-66551633D01*
X92803924Y-66569595D01*
X92754563Y-66624415D01*
X92711675Y-66676675D01*
X92695714Y-66689773D01*
X92677887Y-66709573D01*
X92622977Y-66749467D01*
X92575232Y-66788651D01*
X92551827Y-66801161D01*
X92525500Y-66820289D01*
X92468873Y-66845500D01*
X92419566Y-66871856D01*
X92388537Y-66881268D01*
X92353424Y-66896902D01*
X92298555Y-66908564D01*
X92250659Y-66923094D01*
X92212532Y-66926849D01*
X92169180Y-66936064D01*
X92118973Y-66936064D01*
X92075000Y-66940395D01*
X92031027Y-66936064D01*
X91980820Y-66936064D01*
X91937467Y-66926849D01*
X91899340Y-66923094D01*
X91851441Y-66908563D01*
X91796576Y-66896902D01*
X91761464Y-66881269D01*
X91730433Y-66871856D01*
X91681120Y-66845498D01*
X91624500Y-66820289D01*
X91598175Y-66801163D01*
X91574767Y-66788651D01*
X91527013Y-66749460D01*
X91472113Y-66709573D01*
X91454287Y-66689776D01*
X91438324Y-66676675D01*
X91395425Y-66624402D01*
X91346076Y-66569595D01*
X91335708Y-66551637D01*
X91326348Y-66540232D01*
X91291719Y-66475447D01*
X91251896Y-66406470D01*
X91247315Y-66392371D01*
X91243143Y-66384566D01*
X91220136Y-66308725D01*
X91193689Y-66227328D01*
X91192758Y-66218471D01*
X91191905Y-66215659D01*
X91183600Y-66131342D01*
X91174000Y-66040000D01*
X91183599Y-65948664D01*
X91191905Y-65864340D01*
X91192758Y-65861527D01*
X91193689Y-65852672D01*
X91220132Y-65771288D01*
X91243143Y-65695433D01*
X91247315Y-65687626D01*
X91251896Y-65673530D01*
X91291712Y-65604565D01*
X91326348Y-65539767D01*
X91335710Y-65528359D01*
X91346076Y-65510405D01*
X91395416Y-65455607D01*
X91438324Y-65403324D01*
X91454291Y-65390219D01*
X91472113Y-65370427D01*
X91527002Y-65330546D01*
X91574767Y-65291348D01*
X91598180Y-65278833D01*
X91624500Y-65259711D01*
X91681109Y-65234506D01*
X91730433Y-65208143D01*
X91761471Y-65198727D01*
X91796576Y-65183098D01*
X91851430Y-65171438D01*
X91899340Y-65156905D01*
X91937476Y-65153148D01*
X91980820Y-65143936D01*
X92031016Y-65143936D01*
X92075000Y-65139604D01*
X92118983Y-65143936D01*
G37*
G36*
X170147783Y-64127936D02*
G01*
X170197980Y-64127936D01*
X170241324Y-64137149D01*
X170279459Y-64140905D01*
X170327366Y-64155437D01*
X170382224Y-64167098D01*
X170417330Y-64182728D01*
X170448366Y-64192143D01*
X170497684Y-64218504D01*
X170554300Y-64243711D01*
X170580622Y-64262835D01*
X170604032Y-64275348D01*
X170651788Y-64314540D01*
X170706687Y-64354427D01*
X170724511Y-64374223D01*
X170740475Y-64387324D01*
X170783372Y-64439594D01*
X170832724Y-64494405D01*
X170843092Y-64512363D01*
X170852451Y-64523767D01*
X170887073Y-64588542D01*
X170926904Y-64657530D01*
X170931485Y-64671630D01*
X170935656Y-64679433D01*
X170958652Y-64755242D01*
X170985111Y-64836672D01*
X170986042Y-64845532D01*
X170986894Y-64848340D01*
X170995184Y-64932513D01*
X171004800Y-65024000D01*
X170995183Y-65115494D01*
X170986894Y-65199659D01*
X170986042Y-65202466D01*
X170985111Y-65211328D01*
X170958648Y-65292771D01*
X170935656Y-65368566D01*
X170931486Y-65376366D01*
X170926904Y-65390470D01*
X170887066Y-65459470D01*
X170852451Y-65524232D01*
X170843094Y-65535633D01*
X170832724Y-65553595D01*
X170783363Y-65608415D01*
X170740475Y-65660675D01*
X170724514Y-65673773D01*
X170706687Y-65693573D01*
X170651777Y-65733467D01*
X170604032Y-65772651D01*
X170580627Y-65785161D01*
X170554300Y-65804289D01*
X170497673Y-65829500D01*
X170448366Y-65855856D01*
X170417337Y-65865268D01*
X170382224Y-65880902D01*
X170327355Y-65892564D01*
X170279459Y-65907094D01*
X170241332Y-65910849D01*
X170197980Y-65920064D01*
X170147773Y-65920064D01*
X170103800Y-65924395D01*
X170059827Y-65920064D01*
X170009620Y-65920064D01*
X169966267Y-65910849D01*
X169928140Y-65907094D01*
X169880241Y-65892563D01*
X169825376Y-65880902D01*
X169790264Y-65865269D01*
X169759233Y-65855856D01*
X169709920Y-65829498D01*
X169653300Y-65804289D01*
X169626975Y-65785163D01*
X169603567Y-65772651D01*
X169555813Y-65733460D01*
X169500913Y-65693573D01*
X169483087Y-65673776D01*
X169467124Y-65660675D01*
X169424225Y-65608402D01*
X169374876Y-65553595D01*
X169364508Y-65535637D01*
X169355148Y-65524232D01*
X169320519Y-65459447D01*
X169280696Y-65390470D01*
X169276115Y-65376371D01*
X169271943Y-65368566D01*
X169248936Y-65292725D01*
X169222489Y-65211328D01*
X169221558Y-65202471D01*
X169220705Y-65199659D01*
X169212400Y-65115342D01*
X169202800Y-65024000D01*
X169212399Y-64932664D01*
X169220705Y-64848340D01*
X169221558Y-64845527D01*
X169222489Y-64836672D01*
X169248932Y-64755288D01*
X169271943Y-64679433D01*
X169276115Y-64671626D01*
X169280696Y-64657530D01*
X169320512Y-64588565D01*
X169355148Y-64523767D01*
X169364510Y-64512359D01*
X169374876Y-64494405D01*
X169424216Y-64439607D01*
X169467124Y-64387324D01*
X169483091Y-64374219D01*
X169500913Y-64354427D01*
X169555802Y-64314546D01*
X169603567Y-64275348D01*
X169626980Y-64262833D01*
X169653300Y-64243711D01*
X169709909Y-64218506D01*
X169759233Y-64192143D01*
X169790271Y-64182727D01*
X169825376Y-64167098D01*
X169880230Y-64155438D01*
X169928140Y-64140905D01*
X169966276Y-64137148D01*
X170009620Y-64127936D01*
X170059816Y-64127936D01*
X170103800Y-64123604D01*
X170147783Y-64127936D01*
G37*
G36*
X124694517Y-63237882D02*
G01*
X124711062Y-63248938D01*
X124722118Y-63265483D01*
X124726000Y-63285000D01*
X124726000Y-64985000D01*
X124722118Y-65004517D01*
X124711062Y-65021062D01*
X124694517Y-65032118D01*
X124675000Y-65036000D01*
X122975000Y-65036000D01*
X122955483Y-65032118D01*
X122938938Y-65021062D01*
X122927882Y-65004517D01*
X122924000Y-64985000D01*
X122924000Y-63285000D01*
X122927882Y-63265483D01*
X122938938Y-63248938D01*
X122955483Y-63237882D01*
X122975000Y-63234000D01*
X124675000Y-63234000D01*
X124694517Y-63237882D01*
G37*
G36*
X126408983Y-63238936D02*
G01*
X126459180Y-63238936D01*
X126502524Y-63248149D01*
X126540659Y-63251905D01*
X126588566Y-63266437D01*
X126643424Y-63278098D01*
X126678530Y-63293728D01*
X126709566Y-63303143D01*
X126758884Y-63329504D01*
X126815500Y-63354711D01*
X126841822Y-63373835D01*
X126865232Y-63386348D01*
X126912988Y-63425540D01*
X126967887Y-63465427D01*
X126985711Y-63485223D01*
X127001675Y-63498324D01*
X127044572Y-63550594D01*
X127093924Y-63605405D01*
X127104292Y-63623363D01*
X127113651Y-63634767D01*
X127148273Y-63699542D01*
X127188104Y-63768530D01*
X127192685Y-63782630D01*
X127196856Y-63790433D01*
X127219852Y-63866242D01*
X127246311Y-63947672D01*
X127247242Y-63956532D01*
X127248094Y-63959340D01*
X127256384Y-64043513D01*
X127266000Y-64135000D01*
X127256383Y-64226494D01*
X127248094Y-64310659D01*
X127247242Y-64313466D01*
X127246311Y-64322328D01*
X127219848Y-64403771D01*
X127196856Y-64479566D01*
X127192686Y-64487366D01*
X127188104Y-64501470D01*
X127148266Y-64570470D01*
X127113651Y-64635232D01*
X127104294Y-64646633D01*
X127093924Y-64664595D01*
X127044563Y-64719415D01*
X127001675Y-64771675D01*
X126985714Y-64784773D01*
X126967887Y-64804573D01*
X126912977Y-64844467D01*
X126865232Y-64883651D01*
X126841827Y-64896161D01*
X126815500Y-64915289D01*
X126758873Y-64940500D01*
X126709566Y-64966856D01*
X126678537Y-64976268D01*
X126643424Y-64991902D01*
X126588555Y-65003564D01*
X126540659Y-65018094D01*
X126502532Y-65021849D01*
X126459180Y-65031064D01*
X126408973Y-65031064D01*
X126365000Y-65035395D01*
X126321027Y-65031064D01*
X126270820Y-65031064D01*
X126227467Y-65021849D01*
X126189340Y-65018094D01*
X126141441Y-65003563D01*
X126086576Y-64991902D01*
X126051464Y-64976269D01*
X126020433Y-64966856D01*
X125971120Y-64940498D01*
X125914500Y-64915289D01*
X125888175Y-64896163D01*
X125864767Y-64883651D01*
X125817013Y-64844460D01*
X125762113Y-64804573D01*
X125744287Y-64784776D01*
X125728324Y-64771675D01*
X125685425Y-64719402D01*
X125636076Y-64664595D01*
X125625708Y-64646637D01*
X125616348Y-64635232D01*
X125581719Y-64570447D01*
X125541896Y-64501470D01*
X125537315Y-64487371D01*
X125533143Y-64479566D01*
X125510136Y-64403725D01*
X125483689Y-64322328D01*
X125482758Y-64313471D01*
X125481905Y-64310659D01*
X125473600Y-64226342D01*
X125464000Y-64135000D01*
X125473599Y-64043664D01*
X125481905Y-63959340D01*
X125482758Y-63956527D01*
X125483689Y-63947672D01*
X125510132Y-63866288D01*
X125533143Y-63790433D01*
X125537315Y-63782626D01*
X125541896Y-63768530D01*
X125581712Y-63699565D01*
X125616348Y-63634767D01*
X125625710Y-63623359D01*
X125636076Y-63605405D01*
X125685416Y-63550607D01*
X125728324Y-63498324D01*
X125744291Y-63485219D01*
X125762113Y-63465427D01*
X125817002Y-63425546D01*
X125864767Y-63386348D01*
X125888180Y-63373833D01*
X125914500Y-63354711D01*
X125971109Y-63329506D01*
X126020433Y-63303143D01*
X126051471Y-63293727D01*
X126086576Y-63278098D01*
X126141430Y-63266438D01*
X126189340Y-63251905D01*
X126227476Y-63248148D01*
X126270820Y-63238936D01*
X126321016Y-63238936D01*
X126365000Y-63234604D01*
X126408983Y-63238936D01*
G37*
G36*
X128948983Y-63238936D02*
G01*
X128999180Y-63238936D01*
X129042524Y-63248149D01*
X129080659Y-63251905D01*
X129128566Y-63266437D01*
X129183424Y-63278098D01*
X129218530Y-63293728D01*
X129249566Y-63303143D01*
X129298884Y-63329504D01*
X129355500Y-63354711D01*
X129381822Y-63373835D01*
X129405232Y-63386348D01*
X129452988Y-63425540D01*
X129507887Y-63465427D01*
X129525711Y-63485223D01*
X129541675Y-63498324D01*
X129584572Y-63550594D01*
X129633924Y-63605405D01*
X129644292Y-63623363D01*
X129653651Y-63634767D01*
X129688273Y-63699542D01*
X129728104Y-63768530D01*
X129732685Y-63782630D01*
X129736856Y-63790433D01*
X129759852Y-63866242D01*
X129786311Y-63947672D01*
X129787242Y-63956532D01*
X129788094Y-63959340D01*
X129796384Y-64043513D01*
X129806000Y-64135000D01*
X129796383Y-64226494D01*
X129788094Y-64310659D01*
X129787242Y-64313466D01*
X129786311Y-64322328D01*
X129759848Y-64403771D01*
X129736856Y-64479566D01*
X129732686Y-64487366D01*
X129728104Y-64501470D01*
X129688266Y-64570470D01*
X129653651Y-64635232D01*
X129644294Y-64646633D01*
X129633924Y-64664595D01*
X129584563Y-64719415D01*
X129541675Y-64771675D01*
X129525714Y-64784773D01*
X129507887Y-64804573D01*
X129452977Y-64844467D01*
X129405232Y-64883651D01*
X129381827Y-64896161D01*
X129355500Y-64915289D01*
X129298873Y-64940500D01*
X129249566Y-64966856D01*
X129218537Y-64976268D01*
X129183424Y-64991902D01*
X129128555Y-65003564D01*
X129080659Y-65018094D01*
X129042532Y-65021849D01*
X128999180Y-65031064D01*
X128948973Y-65031064D01*
X128905000Y-65035395D01*
X128861027Y-65031064D01*
X128810820Y-65031064D01*
X128767467Y-65021849D01*
X128729340Y-65018094D01*
X128681441Y-65003563D01*
X128626576Y-64991902D01*
X128591464Y-64976269D01*
X128560433Y-64966856D01*
X128511120Y-64940498D01*
X128454500Y-64915289D01*
X128428175Y-64896163D01*
X128404767Y-64883651D01*
X128357013Y-64844460D01*
X128302113Y-64804573D01*
X128284287Y-64784776D01*
X128268324Y-64771675D01*
X128225425Y-64719402D01*
X128176076Y-64664595D01*
X128165708Y-64646637D01*
X128156348Y-64635232D01*
X128121719Y-64570447D01*
X128081896Y-64501470D01*
X128077315Y-64487371D01*
X128073143Y-64479566D01*
X128050136Y-64403725D01*
X128023689Y-64322328D01*
X128022758Y-64313471D01*
X128021905Y-64310659D01*
X128013600Y-64226342D01*
X128004000Y-64135000D01*
X128013599Y-64043664D01*
X128021905Y-63959340D01*
X128022758Y-63956527D01*
X128023689Y-63947672D01*
X128050132Y-63866288D01*
X128073143Y-63790433D01*
X128077315Y-63782626D01*
X128081896Y-63768530D01*
X128121712Y-63699565D01*
X128156348Y-63634767D01*
X128165710Y-63623359D01*
X128176076Y-63605405D01*
X128225416Y-63550607D01*
X128268324Y-63498324D01*
X128284291Y-63485219D01*
X128302113Y-63465427D01*
X128357002Y-63425546D01*
X128404767Y-63386348D01*
X128428180Y-63373833D01*
X128454500Y-63354711D01*
X128511109Y-63329506D01*
X128560433Y-63303143D01*
X128591471Y-63293727D01*
X128626576Y-63278098D01*
X128681430Y-63266438D01*
X128729340Y-63251905D01*
X128767476Y-63248148D01*
X128810820Y-63238936D01*
X128861016Y-63238936D01*
X128905000Y-63234604D01*
X128948983Y-63238936D01*
G37*
G36*
X131488983Y-63238936D02*
G01*
X131539180Y-63238936D01*
X131582524Y-63248149D01*
X131620659Y-63251905D01*
X131668566Y-63266437D01*
X131723424Y-63278098D01*
X131758530Y-63293728D01*
X131789566Y-63303143D01*
X131838884Y-63329504D01*
X131895500Y-63354711D01*
X131921822Y-63373835D01*
X131945232Y-63386348D01*
X131992988Y-63425540D01*
X132047887Y-63465427D01*
X132065711Y-63485223D01*
X132081675Y-63498324D01*
X132124572Y-63550594D01*
X132173924Y-63605405D01*
X132184292Y-63623363D01*
X132193651Y-63634767D01*
X132228273Y-63699542D01*
X132268104Y-63768530D01*
X132272685Y-63782630D01*
X132276856Y-63790433D01*
X132299852Y-63866242D01*
X132326311Y-63947672D01*
X132327242Y-63956532D01*
X132328094Y-63959340D01*
X132336384Y-64043513D01*
X132346000Y-64135000D01*
X132336383Y-64226494D01*
X132328094Y-64310659D01*
X132327242Y-64313466D01*
X132326311Y-64322328D01*
X132299848Y-64403771D01*
X132276856Y-64479566D01*
X132272686Y-64487366D01*
X132268104Y-64501470D01*
X132228266Y-64570470D01*
X132193651Y-64635232D01*
X132184294Y-64646633D01*
X132173924Y-64664595D01*
X132124563Y-64719415D01*
X132081675Y-64771675D01*
X132065714Y-64784773D01*
X132047887Y-64804573D01*
X131992977Y-64844467D01*
X131945232Y-64883651D01*
X131921827Y-64896161D01*
X131895500Y-64915289D01*
X131838873Y-64940500D01*
X131789566Y-64966856D01*
X131758537Y-64976268D01*
X131723424Y-64991902D01*
X131668555Y-65003564D01*
X131620659Y-65018094D01*
X131582532Y-65021849D01*
X131539180Y-65031064D01*
X131488973Y-65031064D01*
X131445000Y-65035395D01*
X131401027Y-65031064D01*
X131350820Y-65031064D01*
X131307467Y-65021849D01*
X131269340Y-65018094D01*
X131221441Y-65003563D01*
X131166576Y-64991902D01*
X131131464Y-64976269D01*
X131100433Y-64966856D01*
X131051120Y-64940498D01*
X130994500Y-64915289D01*
X130968175Y-64896163D01*
X130944767Y-64883651D01*
X130897013Y-64844460D01*
X130842113Y-64804573D01*
X130824287Y-64784776D01*
X130808324Y-64771675D01*
X130765425Y-64719402D01*
X130716076Y-64664595D01*
X130705708Y-64646637D01*
X130696348Y-64635232D01*
X130661719Y-64570447D01*
X130621896Y-64501470D01*
X130617315Y-64487371D01*
X130613143Y-64479566D01*
X130590136Y-64403725D01*
X130563689Y-64322328D01*
X130562758Y-64313471D01*
X130561905Y-64310659D01*
X130553600Y-64226342D01*
X130544000Y-64135000D01*
X130553599Y-64043664D01*
X130561905Y-63959340D01*
X130562758Y-63956527D01*
X130563689Y-63947672D01*
X130590132Y-63866288D01*
X130613143Y-63790433D01*
X130617315Y-63782626D01*
X130621896Y-63768530D01*
X130661712Y-63699565D01*
X130696348Y-63634767D01*
X130705710Y-63623359D01*
X130716076Y-63605405D01*
X130765416Y-63550607D01*
X130808324Y-63498324D01*
X130824291Y-63485219D01*
X130842113Y-63465427D01*
X130897002Y-63425546D01*
X130944767Y-63386348D01*
X130968180Y-63373833D01*
X130994500Y-63354711D01*
X131051109Y-63329506D01*
X131100433Y-63303143D01*
X131131471Y-63293727D01*
X131166576Y-63278098D01*
X131221430Y-63266438D01*
X131269340Y-63251905D01*
X131307476Y-63248148D01*
X131350820Y-63238936D01*
X131401016Y-63238936D01*
X131445000Y-63234604D01*
X131488983Y-63238936D01*
G37*
G36*
X134028983Y-63238936D02*
G01*
X134079180Y-63238936D01*
X134122524Y-63248149D01*
X134160659Y-63251905D01*
X134208566Y-63266437D01*
X134263424Y-63278098D01*
X134298530Y-63293728D01*
X134329566Y-63303143D01*
X134378884Y-63329504D01*
X134435500Y-63354711D01*
X134461822Y-63373835D01*
X134485232Y-63386348D01*
X134532988Y-63425540D01*
X134587887Y-63465427D01*
X134605711Y-63485223D01*
X134621675Y-63498324D01*
X134664572Y-63550594D01*
X134713924Y-63605405D01*
X134724292Y-63623363D01*
X134733651Y-63634767D01*
X134768273Y-63699542D01*
X134808104Y-63768530D01*
X134812685Y-63782630D01*
X134816856Y-63790433D01*
X134839852Y-63866242D01*
X134866311Y-63947672D01*
X134867242Y-63956532D01*
X134868094Y-63959340D01*
X134876384Y-64043513D01*
X134886000Y-64135000D01*
X134876383Y-64226494D01*
X134868094Y-64310659D01*
X134867242Y-64313466D01*
X134866311Y-64322328D01*
X134839848Y-64403771D01*
X134816856Y-64479566D01*
X134812686Y-64487366D01*
X134808104Y-64501470D01*
X134768266Y-64570470D01*
X134733651Y-64635232D01*
X134724294Y-64646633D01*
X134713924Y-64664595D01*
X134664563Y-64719415D01*
X134621675Y-64771675D01*
X134605714Y-64784773D01*
X134587887Y-64804573D01*
X134532977Y-64844467D01*
X134485232Y-64883651D01*
X134461827Y-64896161D01*
X134435500Y-64915289D01*
X134378873Y-64940500D01*
X134329566Y-64966856D01*
X134298537Y-64976268D01*
X134263424Y-64991902D01*
X134208555Y-65003564D01*
X134160659Y-65018094D01*
X134122532Y-65021849D01*
X134079180Y-65031064D01*
X134028973Y-65031064D01*
X133985000Y-65035395D01*
X133941027Y-65031064D01*
X133890820Y-65031064D01*
X133847467Y-65021849D01*
X133809340Y-65018094D01*
X133761441Y-65003563D01*
X133706576Y-64991902D01*
X133671464Y-64976269D01*
X133640433Y-64966856D01*
X133591120Y-64940498D01*
X133534500Y-64915289D01*
X133508175Y-64896163D01*
X133484767Y-64883651D01*
X133437013Y-64844460D01*
X133382113Y-64804573D01*
X133364287Y-64784776D01*
X133348324Y-64771675D01*
X133305425Y-64719402D01*
X133256076Y-64664595D01*
X133245708Y-64646637D01*
X133236348Y-64635232D01*
X133201719Y-64570447D01*
X133161896Y-64501470D01*
X133157315Y-64487371D01*
X133153143Y-64479566D01*
X133130136Y-64403725D01*
X133103689Y-64322328D01*
X133102758Y-64313471D01*
X133101905Y-64310659D01*
X133093600Y-64226342D01*
X133084000Y-64135000D01*
X133093599Y-64043664D01*
X133101905Y-63959340D01*
X133102758Y-63956527D01*
X133103689Y-63947672D01*
X133130132Y-63866288D01*
X133153143Y-63790433D01*
X133157315Y-63782626D01*
X133161896Y-63768530D01*
X133201712Y-63699565D01*
X133236348Y-63634767D01*
X133245710Y-63623359D01*
X133256076Y-63605405D01*
X133305416Y-63550607D01*
X133348324Y-63498324D01*
X133364291Y-63485219D01*
X133382113Y-63465427D01*
X133437002Y-63425546D01*
X133484767Y-63386348D01*
X133508180Y-63373833D01*
X133534500Y-63354711D01*
X133591109Y-63329506D01*
X133640433Y-63303143D01*
X133671471Y-63293727D01*
X133706576Y-63278098D01*
X133761430Y-63266438D01*
X133809340Y-63251905D01*
X133847476Y-63248148D01*
X133890820Y-63238936D01*
X133941016Y-63238936D01*
X133985000Y-63234604D01*
X134028983Y-63238936D01*
G37*
G36*
X92118983Y-62603936D02*
G01*
X92169180Y-62603936D01*
X92212524Y-62613149D01*
X92250659Y-62616905D01*
X92298566Y-62631437D01*
X92353424Y-62643098D01*
X92388530Y-62658728D01*
X92419566Y-62668143D01*
X92468884Y-62694504D01*
X92525500Y-62719711D01*
X92551822Y-62738835D01*
X92575232Y-62751348D01*
X92622988Y-62790540D01*
X92677887Y-62830427D01*
X92695711Y-62850223D01*
X92711675Y-62863324D01*
X92754572Y-62915594D01*
X92803924Y-62970405D01*
X92814292Y-62988363D01*
X92823651Y-62999767D01*
X92858273Y-63064542D01*
X92898104Y-63133530D01*
X92902685Y-63147630D01*
X92906856Y-63155433D01*
X92929852Y-63231242D01*
X92956311Y-63312672D01*
X92957242Y-63321532D01*
X92958094Y-63324340D01*
X92966384Y-63408513D01*
X92976000Y-63500000D01*
X92966383Y-63591494D01*
X92958094Y-63675659D01*
X92957242Y-63678466D01*
X92956311Y-63687328D01*
X92929848Y-63768771D01*
X92906856Y-63844566D01*
X92902686Y-63852366D01*
X92898104Y-63866470D01*
X92858266Y-63935470D01*
X92823651Y-64000232D01*
X92814294Y-64011633D01*
X92803924Y-64029595D01*
X92754563Y-64084415D01*
X92711675Y-64136675D01*
X92695714Y-64149773D01*
X92677887Y-64169573D01*
X92622977Y-64209467D01*
X92575232Y-64248651D01*
X92551827Y-64261161D01*
X92525500Y-64280289D01*
X92468873Y-64305500D01*
X92419566Y-64331856D01*
X92388537Y-64341268D01*
X92353424Y-64356902D01*
X92298555Y-64368564D01*
X92250659Y-64383094D01*
X92212532Y-64386849D01*
X92169180Y-64396064D01*
X92118973Y-64396064D01*
X92075000Y-64400395D01*
X92031027Y-64396064D01*
X91980820Y-64396064D01*
X91937467Y-64386849D01*
X91899340Y-64383094D01*
X91851441Y-64368563D01*
X91796576Y-64356902D01*
X91761464Y-64341269D01*
X91730433Y-64331856D01*
X91681120Y-64305498D01*
X91624500Y-64280289D01*
X91598175Y-64261163D01*
X91574767Y-64248651D01*
X91527013Y-64209460D01*
X91472113Y-64169573D01*
X91454287Y-64149776D01*
X91438324Y-64136675D01*
X91395425Y-64084402D01*
X91346076Y-64029595D01*
X91335708Y-64011637D01*
X91326348Y-64000232D01*
X91291719Y-63935447D01*
X91251896Y-63866470D01*
X91247315Y-63852371D01*
X91243143Y-63844566D01*
X91220136Y-63768725D01*
X91193689Y-63687328D01*
X91192758Y-63678471D01*
X91191905Y-63675659D01*
X91183600Y-63591342D01*
X91174000Y-63500000D01*
X91183599Y-63408664D01*
X91191905Y-63324340D01*
X91192758Y-63321527D01*
X91193689Y-63312672D01*
X91220132Y-63231288D01*
X91243143Y-63155433D01*
X91247315Y-63147626D01*
X91251896Y-63133530D01*
X91291712Y-63064565D01*
X91326348Y-62999767D01*
X91335710Y-62988359D01*
X91346076Y-62970405D01*
X91395416Y-62915607D01*
X91438324Y-62863324D01*
X91454291Y-62850219D01*
X91472113Y-62830427D01*
X91527002Y-62790546D01*
X91574767Y-62751348D01*
X91598180Y-62738833D01*
X91624500Y-62719711D01*
X91681109Y-62694506D01*
X91730433Y-62668143D01*
X91761471Y-62658727D01*
X91796576Y-62643098D01*
X91851430Y-62631438D01*
X91899340Y-62616905D01*
X91937476Y-62613148D01*
X91980820Y-62603936D01*
X92031016Y-62603936D01*
X92075000Y-62599604D01*
X92118983Y-62603936D01*
G37*
G36*
X112445853Y-57666627D02*
G01*
X112789635Y-57742299D01*
X113123219Y-57854697D01*
X113442696Y-58002502D01*
X113744319Y-58183983D01*
X114024553Y-58397011D01*
X114280111Y-58639089D01*
X114507999Y-58907379D01*
X114705543Y-59198734D01*
X114870428Y-59509741D01*
X115000720Y-59836751D01*
X115094893Y-60175931D01*
X115151842Y-60523305D01*
X115170900Y-60874800D01*
X115151842Y-61226295D01*
X115094893Y-61573669D01*
X115000720Y-61912849D01*
X114870428Y-62239859D01*
X114705543Y-62550866D01*
X114507999Y-62842221D01*
X114280111Y-63110511D01*
X114024553Y-63352589D01*
X113744319Y-63565617D01*
X113442696Y-63747098D01*
X113123219Y-63894903D01*
X112789635Y-64007301D01*
X112445853Y-64082973D01*
X112095906Y-64121032D01*
X111743894Y-64121032D01*
X111393947Y-64082973D01*
X111050165Y-64007301D01*
X110716581Y-63894903D01*
X110397104Y-63747098D01*
X110095481Y-63565617D01*
X109815247Y-63352589D01*
X109559689Y-63110511D01*
X109331801Y-62842221D01*
X109134257Y-62550866D01*
X108969372Y-62239859D01*
X108839080Y-61912849D01*
X108744907Y-61573669D01*
X108687958Y-61226295D01*
X108668900Y-60874800D01*
X108687958Y-60523305D01*
X108744907Y-60175931D01*
X108839080Y-59836751D01*
X108969372Y-59509741D01*
X109134257Y-59198734D01*
X109331801Y-58907379D01*
X109559689Y-58639089D01*
X109815247Y-58397011D01*
X110095481Y-58183983D01*
X110397104Y-58002502D01*
X110716581Y-57854697D01*
X111050165Y-57742299D01*
X111393947Y-57666627D01*
X111743894Y-57628568D01*
X112095906Y-57628568D01*
X112445853Y-57666627D01*
G37*
G36*
X162445853Y-57666627D02*
G01*
X162789635Y-57742299D01*
X163123219Y-57854697D01*
X163442696Y-58002502D01*
X163744319Y-58183983D01*
X164024553Y-58397011D01*
X164280111Y-58639089D01*
X164507999Y-58907379D01*
X164705543Y-59198734D01*
X164870428Y-59509741D01*
X165000720Y-59836751D01*
X165094893Y-60175931D01*
X165151842Y-60523305D01*
X165170900Y-60874800D01*
X165151842Y-61226295D01*
X165094893Y-61573669D01*
X165000720Y-61912849D01*
X164870428Y-62239859D01*
X164705543Y-62550866D01*
X164507999Y-62842221D01*
X164280111Y-63110511D01*
X164024553Y-63352589D01*
X163744319Y-63565617D01*
X163442696Y-63747098D01*
X163123219Y-63894903D01*
X162789635Y-64007301D01*
X162445853Y-64082973D01*
X162095906Y-64121032D01*
X161743894Y-64121032D01*
X161393947Y-64082973D01*
X161050165Y-64007301D01*
X160716581Y-63894903D01*
X160397104Y-63747098D01*
X160095481Y-63565617D01*
X159815247Y-63352589D01*
X159559689Y-63110511D01*
X159331801Y-62842221D01*
X159134257Y-62550866D01*
X158969372Y-62239859D01*
X158839080Y-61912849D01*
X158744907Y-61573669D01*
X158687958Y-61226295D01*
X158668900Y-60874800D01*
X158687958Y-60523305D01*
X158744907Y-60175931D01*
X158839080Y-59836751D01*
X158969372Y-59509741D01*
X159134257Y-59198734D01*
X159331801Y-58907379D01*
X159559689Y-58639089D01*
X159815247Y-58397011D01*
X160095481Y-58183983D01*
X160397104Y-58002502D01*
X160716581Y-57854697D01*
X161050165Y-57742299D01*
X161393947Y-57666627D01*
X161743894Y-57628568D01*
X162095906Y-57628568D01*
X162445853Y-57666627D01*
G37*
G36*
X170147783Y-61587936D02*
G01*
X170197980Y-61587936D01*
X170241324Y-61597149D01*
X170279459Y-61600905D01*
X170327366Y-61615437D01*
X170382224Y-61627098D01*
X170417330Y-61642728D01*
X170448366Y-61652143D01*
X170497684Y-61678504D01*
X170554300Y-61703711D01*
X170580622Y-61722835D01*
X170604032Y-61735348D01*
X170651788Y-61774540D01*
X170706687Y-61814427D01*
X170724511Y-61834223D01*
X170740475Y-61847324D01*
X170783372Y-61899594D01*
X170832724Y-61954405D01*
X170843092Y-61972363D01*
X170852451Y-61983767D01*
X170887073Y-62048542D01*
X170926904Y-62117530D01*
X170931485Y-62131630D01*
X170935656Y-62139433D01*
X170958652Y-62215242D01*
X170985111Y-62296672D01*
X170986042Y-62305532D01*
X170986894Y-62308340D01*
X170995184Y-62392513D01*
X171004800Y-62484000D01*
X170995183Y-62575494D01*
X170986894Y-62659659D01*
X170986042Y-62662466D01*
X170985111Y-62671328D01*
X170958648Y-62752771D01*
X170935656Y-62828566D01*
X170931486Y-62836366D01*
X170926904Y-62850470D01*
X170887066Y-62919470D01*
X170852451Y-62984232D01*
X170843094Y-62995633D01*
X170832724Y-63013595D01*
X170783363Y-63068415D01*
X170740475Y-63120675D01*
X170724514Y-63133773D01*
X170706687Y-63153573D01*
X170651777Y-63193467D01*
X170604032Y-63232651D01*
X170580627Y-63245161D01*
X170554300Y-63264289D01*
X170497673Y-63289500D01*
X170448366Y-63315856D01*
X170417337Y-63325268D01*
X170382224Y-63340902D01*
X170327355Y-63352564D01*
X170279459Y-63367094D01*
X170241332Y-63370849D01*
X170197980Y-63380064D01*
X170147773Y-63380064D01*
X170103800Y-63384395D01*
X170059827Y-63380064D01*
X170009620Y-63380064D01*
X169966267Y-63370849D01*
X169928140Y-63367094D01*
X169880241Y-63352563D01*
X169825376Y-63340902D01*
X169790264Y-63325269D01*
X169759233Y-63315856D01*
X169709920Y-63289498D01*
X169653300Y-63264289D01*
X169626975Y-63245163D01*
X169603567Y-63232651D01*
X169555813Y-63193460D01*
X169500913Y-63153573D01*
X169483087Y-63133776D01*
X169467124Y-63120675D01*
X169424225Y-63068402D01*
X169374876Y-63013595D01*
X169364508Y-62995637D01*
X169355148Y-62984232D01*
X169320519Y-62919447D01*
X169280696Y-62850470D01*
X169276115Y-62836371D01*
X169271943Y-62828566D01*
X169248936Y-62752725D01*
X169222489Y-62671328D01*
X169221558Y-62662471D01*
X169220705Y-62659659D01*
X169212400Y-62575342D01*
X169202800Y-62484000D01*
X169212399Y-62392664D01*
X169220705Y-62308340D01*
X169221558Y-62305527D01*
X169222489Y-62296672D01*
X169248932Y-62215288D01*
X169271943Y-62139433D01*
X169276115Y-62131626D01*
X169280696Y-62117530D01*
X169320512Y-62048565D01*
X169355148Y-61983767D01*
X169364510Y-61972359D01*
X169374876Y-61954405D01*
X169424216Y-61899607D01*
X169467124Y-61847324D01*
X169483091Y-61834219D01*
X169500913Y-61814427D01*
X169555802Y-61774546D01*
X169603567Y-61735348D01*
X169626980Y-61722833D01*
X169653300Y-61703711D01*
X169709909Y-61678506D01*
X169759233Y-61652143D01*
X169790271Y-61642727D01*
X169825376Y-61627098D01*
X169880230Y-61615438D01*
X169928140Y-61600905D01*
X169966276Y-61597148D01*
X170009620Y-61587936D01*
X170059816Y-61587936D01*
X170103800Y-61583604D01*
X170147783Y-61587936D01*
G37*
G36*
X123868983Y-60698936D02*
G01*
X123919180Y-60698936D01*
X123962524Y-60708149D01*
X124000659Y-60711905D01*
X124048566Y-60726437D01*
X124103424Y-60738098D01*
X124138530Y-60753728D01*
X124169566Y-60763143D01*
X124218884Y-60789504D01*
X124275500Y-60814711D01*
X124301822Y-60833835D01*
X124325232Y-60846348D01*
X124372988Y-60885540D01*
X124427887Y-60925427D01*
X124445711Y-60945223D01*
X124461675Y-60958324D01*
X124504572Y-61010594D01*
X124553924Y-61065405D01*
X124564292Y-61083363D01*
X124573651Y-61094767D01*
X124608273Y-61159542D01*
X124648104Y-61228530D01*
X124652685Y-61242630D01*
X124656856Y-61250433D01*
X124679852Y-61326242D01*
X124706311Y-61407672D01*
X124707242Y-61416532D01*
X124708094Y-61419340D01*
X124716384Y-61503513D01*
X124726000Y-61595000D01*
X124716383Y-61686494D01*
X124708094Y-61770659D01*
X124707242Y-61773466D01*
X124706311Y-61782328D01*
X124679848Y-61863771D01*
X124656856Y-61939566D01*
X124652686Y-61947366D01*
X124648104Y-61961470D01*
X124608266Y-62030470D01*
X124573651Y-62095232D01*
X124564294Y-62106633D01*
X124553924Y-62124595D01*
X124504563Y-62179415D01*
X124461675Y-62231675D01*
X124445714Y-62244773D01*
X124427887Y-62264573D01*
X124372977Y-62304467D01*
X124325232Y-62343651D01*
X124301827Y-62356161D01*
X124275500Y-62375289D01*
X124218873Y-62400500D01*
X124169566Y-62426856D01*
X124138537Y-62436268D01*
X124103424Y-62451902D01*
X124048555Y-62463564D01*
X124000659Y-62478094D01*
X123962532Y-62481849D01*
X123919180Y-62491064D01*
X123868973Y-62491064D01*
X123825000Y-62495395D01*
X123781027Y-62491064D01*
X123730820Y-62491064D01*
X123687467Y-62481849D01*
X123649340Y-62478094D01*
X123601441Y-62463563D01*
X123546576Y-62451902D01*
X123511464Y-62436269D01*
X123480433Y-62426856D01*
X123431120Y-62400498D01*
X123374500Y-62375289D01*
X123348175Y-62356163D01*
X123324767Y-62343651D01*
X123277013Y-62304460D01*
X123222113Y-62264573D01*
X123204287Y-62244776D01*
X123188324Y-62231675D01*
X123145425Y-62179402D01*
X123096076Y-62124595D01*
X123085708Y-62106637D01*
X123076348Y-62095232D01*
X123041719Y-62030447D01*
X123001896Y-61961470D01*
X122997315Y-61947371D01*
X122993143Y-61939566D01*
X122970136Y-61863725D01*
X122943689Y-61782328D01*
X122942758Y-61773471D01*
X122941905Y-61770659D01*
X122933600Y-61686342D01*
X122924000Y-61595000D01*
X122933599Y-61503664D01*
X122941905Y-61419340D01*
X122942758Y-61416527D01*
X122943689Y-61407672D01*
X122970132Y-61326288D01*
X122993143Y-61250433D01*
X122997315Y-61242626D01*
X123001896Y-61228530D01*
X123041712Y-61159565D01*
X123076348Y-61094767D01*
X123085710Y-61083359D01*
X123096076Y-61065405D01*
X123145416Y-61010607D01*
X123188324Y-60958324D01*
X123204291Y-60945219D01*
X123222113Y-60925427D01*
X123277002Y-60885546D01*
X123324767Y-60846348D01*
X123348180Y-60833833D01*
X123374500Y-60814711D01*
X123431109Y-60789506D01*
X123480433Y-60763143D01*
X123511471Y-60753727D01*
X123546576Y-60738098D01*
X123601430Y-60726438D01*
X123649340Y-60711905D01*
X123687476Y-60708148D01*
X123730820Y-60698936D01*
X123781016Y-60698936D01*
X123825000Y-60694604D01*
X123868983Y-60698936D01*
G37*
G36*
X126408983Y-60698936D02*
G01*
X126459180Y-60698936D01*
X126502524Y-60708149D01*
X126540659Y-60711905D01*
X126588566Y-60726437D01*
X126643424Y-60738098D01*
X126678530Y-60753728D01*
X126709566Y-60763143D01*
X126758884Y-60789504D01*
X126815500Y-60814711D01*
X126841822Y-60833835D01*
X126865232Y-60846348D01*
X126912988Y-60885540D01*
X126967887Y-60925427D01*
X126985711Y-60945223D01*
X127001675Y-60958324D01*
X127044572Y-61010594D01*
X127093924Y-61065405D01*
X127104292Y-61083363D01*
X127113651Y-61094767D01*
X127148273Y-61159542D01*
X127188104Y-61228530D01*
X127192685Y-61242630D01*
X127196856Y-61250433D01*
X127219852Y-61326242D01*
X127246311Y-61407672D01*
X127247242Y-61416532D01*
X127248094Y-61419340D01*
X127256384Y-61503513D01*
X127266000Y-61595000D01*
X127256383Y-61686494D01*
X127248094Y-61770659D01*
X127247242Y-61773466D01*
X127246311Y-61782328D01*
X127219848Y-61863771D01*
X127196856Y-61939566D01*
X127192686Y-61947366D01*
X127188104Y-61961470D01*
X127148266Y-62030470D01*
X127113651Y-62095232D01*
X127104294Y-62106633D01*
X127093924Y-62124595D01*
X127044563Y-62179415D01*
X127001675Y-62231675D01*
X126985714Y-62244773D01*
X126967887Y-62264573D01*
X126912977Y-62304467D01*
X126865232Y-62343651D01*
X126841827Y-62356161D01*
X126815500Y-62375289D01*
X126758873Y-62400500D01*
X126709566Y-62426856D01*
X126678537Y-62436268D01*
X126643424Y-62451902D01*
X126588555Y-62463564D01*
X126540659Y-62478094D01*
X126502532Y-62481849D01*
X126459180Y-62491064D01*
X126408973Y-62491064D01*
X126365000Y-62495395D01*
X126321027Y-62491064D01*
X126270820Y-62491064D01*
X126227467Y-62481849D01*
X126189340Y-62478094D01*
X126141441Y-62463563D01*
X126086576Y-62451902D01*
X126051464Y-62436269D01*
X126020433Y-62426856D01*
X125971120Y-62400498D01*
X125914500Y-62375289D01*
X125888175Y-62356163D01*
X125864767Y-62343651D01*
X125817013Y-62304460D01*
X125762113Y-62264573D01*
X125744287Y-62244776D01*
X125728324Y-62231675D01*
X125685425Y-62179402D01*
X125636076Y-62124595D01*
X125625708Y-62106637D01*
X125616348Y-62095232D01*
X125581719Y-62030447D01*
X125541896Y-61961470D01*
X125537315Y-61947371D01*
X125533143Y-61939566D01*
X125510136Y-61863725D01*
X125483689Y-61782328D01*
X125482758Y-61773471D01*
X125481905Y-61770659D01*
X125473600Y-61686342D01*
X125464000Y-61595000D01*
X125473599Y-61503664D01*
X125481905Y-61419340D01*
X125482758Y-61416527D01*
X125483689Y-61407672D01*
X125510132Y-61326288D01*
X125533143Y-61250433D01*
X125537315Y-61242626D01*
X125541896Y-61228530D01*
X125581712Y-61159565D01*
X125616348Y-61094767D01*
X125625710Y-61083359D01*
X125636076Y-61065405D01*
X125685416Y-61010607D01*
X125728324Y-60958324D01*
X125744291Y-60945219D01*
X125762113Y-60925427D01*
X125817002Y-60885546D01*
X125864767Y-60846348D01*
X125888180Y-60833833D01*
X125914500Y-60814711D01*
X125971109Y-60789506D01*
X126020433Y-60763143D01*
X126051471Y-60753727D01*
X126086576Y-60738098D01*
X126141430Y-60726438D01*
X126189340Y-60711905D01*
X126227476Y-60708148D01*
X126270820Y-60698936D01*
X126321016Y-60698936D01*
X126365000Y-60694604D01*
X126408983Y-60698936D01*
G37*
G36*
X128948983Y-60698936D02*
G01*
X128999180Y-60698936D01*
X129042524Y-60708149D01*
X129080659Y-60711905D01*
X129128566Y-60726437D01*
X129183424Y-60738098D01*
X129218530Y-60753728D01*
X129249566Y-60763143D01*
X129298884Y-60789504D01*
X129355500Y-60814711D01*
X129381822Y-60833835D01*
X129405232Y-60846348D01*
X129452988Y-60885540D01*
X129507887Y-60925427D01*
X129525711Y-60945223D01*
X129541675Y-60958324D01*
X129584572Y-61010594D01*
X129633924Y-61065405D01*
X129644292Y-61083363D01*
X129653651Y-61094767D01*
X129688273Y-61159542D01*
X129728104Y-61228530D01*
X129732685Y-61242630D01*
X129736856Y-61250433D01*
X129759852Y-61326242D01*
X129786311Y-61407672D01*
X129787242Y-61416532D01*
X129788094Y-61419340D01*
X129796384Y-61503513D01*
X129806000Y-61595000D01*
X129796383Y-61686494D01*
X129788094Y-61770659D01*
X129787242Y-61773466D01*
X129786311Y-61782328D01*
X129759848Y-61863771D01*
X129736856Y-61939566D01*
X129732686Y-61947366D01*
X129728104Y-61961470D01*
X129688266Y-62030470D01*
X129653651Y-62095232D01*
X129644294Y-62106633D01*
X129633924Y-62124595D01*
X129584563Y-62179415D01*
X129541675Y-62231675D01*
X129525714Y-62244773D01*
X129507887Y-62264573D01*
X129452977Y-62304467D01*
X129405232Y-62343651D01*
X129381827Y-62356161D01*
X129355500Y-62375289D01*
X129298873Y-62400500D01*
X129249566Y-62426856D01*
X129218537Y-62436268D01*
X129183424Y-62451902D01*
X129128555Y-62463564D01*
X129080659Y-62478094D01*
X129042532Y-62481849D01*
X128999180Y-62491064D01*
X128948973Y-62491064D01*
X128905000Y-62495395D01*
X128861027Y-62491064D01*
X128810820Y-62491064D01*
X128767467Y-62481849D01*
X128729340Y-62478094D01*
X128681441Y-62463563D01*
X128626576Y-62451902D01*
X128591464Y-62436269D01*
X128560433Y-62426856D01*
X128511120Y-62400498D01*
X128454500Y-62375289D01*
X128428175Y-62356163D01*
X128404767Y-62343651D01*
X128357013Y-62304460D01*
X128302113Y-62264573D01*
X128284287Y-62244776D01*
X128268324Y-62231675D01*
X128225425Y-62179402D01*
X128176076Y-62124595D01*
X128165708Y-62106637D01*
X128156348Y-62095232D01*
X128121719Y-62030447D01*
X128081896Y-61961470D01*
X128077315Y-61947371D01*
X128073143Y-61939566D01*
X128050136Y-61863725D01*
X128023689Y-61782328D01*
X128022758Y-61773471D01*
X128021905Y-61770659D01*
X128013600Y-61686342D01*
X128004000Y-61595000D01*
X128013599Y-61503664D01*
X128021905Y-61419340D01*
X128022758Y-61416527D01*
X128023689Y-61407672D01*
X128050132Y-61326288D01*
X128073143Y-61250433D01*
X128077315Y-61242626D01*
X128081896Y-61228530D01*
X128121712Y-61159565D01*
X128156348Y-61094767D01*
X128165710Y-61083359D01*
X128176076Y-61065405D01*
X128225416Y-61010607D01*
X128268324Y-60958324D01*
X128284291Y-60945219D01*
X128302113Y-60925427D01*
X128357002Y-60885546D01*
X128404767Y-60846348D01*
X128428180Y-60833833D01*
X128454500Y-60814711D01*
X128511109Y-60789506D01*
X128560433Y-60763143D01*
X128591471Y-60753727D01*
X128626576Y-60738098D01*
X128681430Y-60726438D01*
X128729340Y-60711905D01*
X128767476Y-60708148D01*
X128810820Y-60698936D01*
X128861016Y-60698936D01*
X128905000Y-60694604D01*
X128948983Y-60698936D01*
G37*
G36*
X131488983Y-60698936D02*
G01*
X131539180Y-60698936D01*
X131582524Y-60708149D01*
X131620659Y-60711905D01*
X131668566Y-60726437D01*
X131723424Y-60738098D01*
X131758530Y-60753728D01*
X131789566Y-60763143D01*
X131838884Y-60789504D01*
X131895500Y-60814711D01*
X131921822Y-60833835D01*
X131945232Y-60846348D01*
X131992988Y-60885540D01*
X132047887Y-60925427D01*
X132065711Y-60945223D01*
X132081675Y-60958324D01*
X132124572Y-61010594D01*
X132173924Y-61065405D01*
X132184292Y-61083363D01*
X132193651Y-61094767D01*
X132228273Y-61159542D01*
X132268104Y-61228530D01*
X132272685Y-61242630D01*
X132276856Y-61250433D01*
X132299852Y-61326242D01*
X132326311Y-61407672D01*
X132327242Y-61416532D01*
X132328094Y-61419340D01*
X132336384Y-61503513D01*
X132346000Y-61595000D01*
X132336383Y-61686494D01*
X132328094Y-61770659D01*
X132327242Y-61773466D01*
X132326311Y-61782328D01*
X132299848Y-61863771D01*
X132276856Y-61939566D01*
X132272686Y-61947366D01*
X132268104Y-61961470D01*
X132228266Y-62030470D01*
X132193651Y-62095232D01*
X132184294Y-62106633D01*
X132173924Y-62124595D01*
X132124563Y-62179415D01*
X132081675Y-62231675D01*
X132065714Y-62244773D01*
X132047887Y-62264573D01*
X131992977Y-62304467D01*
X131945232Y-62343651D01*
X131921827Y-62356161D01*
X131895500Y-62375289D01*
X131838873Y-62400500D01*
X131789566Y-62426856D01*
X131758537Y-62436268D01*
X131723424Y-62451902D01*
X131668555Y-62463564D01*
X131620659Y-62478094D01*
X131582532Y-62481849D01*
X131539180Y-62491064D01*
X131488973Y-62491064D01*
X131445000Y-62495395D01*
X131401027Y-62491064D01*
X131350820Y-62491064D01*
X131307467Y-62481849D01*
X131269340Y-62478094D01*
X131221441Y-62463563D01*
X131166576Y-62451902D01*
X131131464Y-62436269D01*
X131100433Y-62426856D01*
X131051120Y-62400498D01*
X130994500Y-62375289D01*
X130968175Y-62356163D01*
X130944767Y-62343651D01*
X130897013Y-62304460D01*
X130842113Y-62264573D01*
X130824287Y-62244776D01*
X130808324Y-62231675D01*
X130765425Y-62179402D01*
X130716076Y-62124595D01*
X130705708Y-62106637D01*
X130696348Y-62095232D01*
X130661719Y-62030447D01*
X130621896Y-61961470D01*
X130617315Y-61947371D01*
X130613143Y-61939566D01*
X130590136Y-61863725D01*
X130563689Y-61782328D01*
X130562758Y-61773471D01*
X130561905Y-61770659D01*
X130553600Y-61686342D01*
X130544000Y-61595000D01*
X130553599Y-61503664D01*
X130561905Y-61419340D01*
X130562758Y-61416527D01*
X130563689Y-61407672D01*
X130590132Y-61326288D01*
X130613143Y-61250433D01*
X130617315Y-61242626D01*
X130621896Y-61228530D01*
X130661712Y-61159565D01*
X130696348Y-61094767D01*
X130705710Y-61083359D01*
X130716076Y-61065405D01*
X130765416Y-61010607D01*
X130808324Y-60958324D01*
X130824291Y-60945219D01*
X130842113Y-60925427D01*
X130897002Y-60885546D01*
X130944767Y-60846348D01*
X130968180Y-60833833D01*
X130994500Y-60814711D01*
X131051109Y-60789506D01*
X131100433Y-60763143D01*
X131131471Y-60753727D01*
X131166576Y-60738098D01*
X131221430Y-60726438D01*
X131269340Y-60711905D01*
X131307476Y-60708148D01*
X131350820Y-60698936D01*
X131401016Y-60698936D01*
X131445000Y-60694604D01*
X131488983Y-60698936D01*
G37*
G36*
X134028983Y-60698936D02*
G01*
X134079180Y-60698936D01*
X134122524Y-60708149D01*
X134160659Y-60711905D01*
X134208566Y-60726437D01*
X134263424Y-60738098D01*
X134298530Y-60753728D01*
X134329566Y-60763143D01*
X134378884Y-60789504D01*
X134435500Y-60814711D01*
X134461822Y-60833835D01*
X134485232Y-60846348D01*
X134532988Y-60885540D01*
X134587887Y-60925427D01*
X134605711Y-60945223D01*
X134621675Y-60958324D01*
X134664572Y-61010594D01*
X134713924Y-61065405D01*
X134724292Y-61083363D01*
X134733651Y-61094767D01*
X134768273Y-61159542D01*
X134808104Y-61228530D01*
X134812685Y-61242630D01*
X134816856Y-61250433D01*
X134839852Y-61326242D01*
X134866311Y-61407672D01*
X134867242Y-61416532D01*
X134868094Y-61419340D01*
X134876384Y-61503513D01*
X134886000Y-61595000D01*
X134876383Y-61686494D01*
X134868094Y-61770659D01*
X134867242Y-61773466D01*
X134866311Y-61782328D01*
X134839848Y-61863771D01*
X134816856Y-61939566D01*
X134812686Y-61947366D01*
X134808104Y-61961470D01*
X134768266Y-62030470D01*
X134733651Y-62095232D01*
X134724294Y-62106633D01*
X134713924Y-62124595D01*
X134664563Y-62179415D01*
X134621675Y-62231675D01*
X134605714Y-62244773D01*
X134587887Y-62264573D01*
X134532977Y-62304467D01*
X134485232Y-62343651D01*
X134461827Y-62356161D01*
X134435500Y-62375289D01*
X134378873Y-62400500D01*
X134329566Y-62426856D01*
X134298537Y-62436268D01*
X134263424Y-62451902D01*
X134208555Y-62463564D01*
X134160659Y-62478094D01*
X134122532Y-62481849D01*
X134079180Y-62491064D01*
X134028973Y-62491064D01*
X133985000Y-62495395D01*
X133941027Y-62491064D01*
X133890820Y-62491064D01*
X133847467Y-62481849D01*
X133809340Y-62478094D01*
X133761441Y-62463563D01*
X133706576Y-62451902D01*
X133671464Y-62436269D01*
X133640433Y-62426856D01*
X133591120Y-62400498D01*
X133534500Y-62375289D01*
X133508175Y-62356163D01*
X133484767Y-62343651D01*
X133437013Y-62304460D01*
X133382113Y-62264573D01*
X133364287Y-62244776D01*
X133348324Y-62231675D01*
X133305425Y-62179402D01*
X133256076Y-62124595D01*
X133245708Y-62106637D01*
X133236348Y-62095232D01*
X133201719Y-62030447D01*
X133161896Y-61961470D01*
X133157315Y-61947371D01*
X133153143Y-61939566D01*
X133130136Y-61863725D01*
X133103689Y-61782328D01*
X133102758Y-61773471D01*
X133101905Y-61770659D01*
X133093600Y-61686342D01*
X133084000Y-61595000D01*
X133093599Y-61503664D01*
X133101905Y-61419340D01*
X133102758Y-61416527D01*
X133103689Y-61407672D01*
X133130132Y-61326288D01*
X133153143Y-61250433D01*
X133157315Y-61242626D01*
X133161896Y-61228530D01*
X133201712Y-61159565D01*
X133236348Y-61094767D01*
X133245710Y-61083359D01*
X133256076Y-61065405D01*
X133305416Y-61010607D01*
X133348324Y-60958324D01*
X133364291Y-60945219D01*
X133382113Y-60925427D01*
X133437002Y-60885546D01*
X133484767Y-60846348D01*
X133508180Y-60833833D01*
X133534500Y-60814711D01*
X133591109Y-60789506D01*
X133640433Y-60763143D01*
X133671471Y-60753727D01*
X133706576Y-60738098D01*
X133761430Y-60726438D01*
X133809340Y-60711905D01*
X133847476Y-60708148D01*
X133890820Y-60698936D01*
X133941016Y-60698936D01*
X133985000Y-60694604D01*
X134028983Y-60698936D01*
G37*
G36*
X92118983Y-60063936D02*
G01*
X92169180Y-60063936D01*
X92212524Y-60073149D01*
X92250659Y-60076905D01*
X92298566Y-60091437D01*
X92353424Y-60103098D01*
X92388530Y-60118728D01*
X92419566Y-60128143D01*
X92468884Y-60154504D01*
X92525500Y-60179711D01*
X92551822Y-60198835D01*
X92575232Y-60211348D01*
X92622988Y-60250540D01*
X92677887Y-60290427D01*
X92695711Y-60310223D01*
X92711675Y-60323324D01*
X92754572Y-60375594D01*
X92803924Y-60430405D01*
X92814292Y-60448363D01*
X92823651Y-60459767D01*
X92858273Y-60524542D01*
X92898104Y-60593530D01*
X92902685Y-60607630D01*
X92906856Y-60615433D01*
X92929852Y-60691242D01*
X92956311Y-60772672D01*
X92957242Y-60781532D01*
X92958094Y-60784340D01*
X92966384Y-60868513D01*
X92976000Y-60960000D01*
X92966383Y-61051494D01*
X92958094Y-61135659D01*
X92957242Y-61138466D01*
X92956311Y-61147328D01*
X92929848Y-61228771D01*
X92906856Y-61304566D01*
X92902686Y-61312366D01*
X92898104Y-61326470D01*
X92858266Y-61395470D01*
X92823651Y-61460232D01*
X92814294Y-61471633D01*
X92803924Y-61489595D01*
X92754563Y-61544415D01*
X92711675Y-61596675D01*
X92695714Y-61609773D01*
X92677887Y-61629573D01*
X92622977Y-61669467D01*
X92575232Y-61708651D01*
X92551827Y-61721161D01*
X92525500Y-61740289D01*
X92468873Y-61765500D01*
X92419566Y-61791856D01*
X92388537Y-61801268D01*
X92353424Y-61816902D01*
X92298555Y-61828564D01*
X92250659Y-61843094D01*
X92212532Y-61846849D01*
X92169180Y-61856064D01*
X92118973Y-61856064D01*
X92075000Y-61860395D01*
X92031027Y-61856064D01*
X91980820Y-61856064D01*
X91937467Y-61846849D01*
X91899340Y-61843094D01*
X91851441Y-61828563D01*
X91796576Y-61816902D01*
X91761464Y-61801269D01*
X91730433Y-61791856D01*
X91681120Y-61765498D01*
X91624500Y-61740289D01*
X91598175Y-61721163D01*
X91574767Y-61708651D01*
X91527013Y-61669460D01*
X91472113Y-61629573D01*
X91454287Y-61609776D01*
X91438324Y-61596675D01*
X91395425Y-61544402D01*
X91346076Y-61489595D01*
X91335708Y-61471637D01*
X91326348Y-61460232D01*
X91291719Y-61395447D01*
X91251896Y-61326470D01*
X91247315Y-61312371D01*
X91243143Y-61304566D01*
X91220136Y-61228725D01*
X91193689Y-61147328D01*
X91192758Y-61138471D01*
X91191905Y-61135659D01*
X91183600Y-61051342D01*
X91174000Y-60960000D01*
X91183599Y-60868664D01*
X91191905Y-60784340D01*
X91192758Y-60781527D01*
X91193689Y-60772672D01*
X91220132Y-60691288D01*
X91243143Y-60615433D01*
X91247315Y-60607626D01*
X91251896Y-60593530D01*
X91291712Y-60524565D01*
X91326348Y-60459767D01*
X91335710Y-60448359D01*
X91346076Y-60430405D01*
X91395416Y-60375607D01*
X91438324Y-60323324D01*
X91454291Y-60310219D01*
X91472113Y-60290427D01*
X91527002Y-60250546D01*
X91574767Y-60211348D01*
X91598180Y-60198833D01*
X91624500Y-60179711D01*
X91681109Y-60154506D01*
X91730433Y-60128143D01*
X91761471Y-60118727D01*
X91796576Y-60103098D01*
X91851430Y-60091438D01*
X91899340Y-60076905D01*
X91937476Y-60073148D01*
X91980820Y-60063936D01*
X92031016Y-60063936D01*
X92075000Y-60059604D01*
X92118983Y-60063936D01*
G37*
G36*
X170973317Y-59046882D02*
G01*
X170989862Y-59057938D01*
X171000918Y-59074483D01*
X171004800Y-59094000D01*
X171004800Y-60794000D01*
X171000918Y-60813517D01*
X170989862Y-60830062D01*
X170973317Y-60841118D01*
X170953800Y-60845000D01*
X169253800Y-60845000D01*
X169234283Y-60841118D01*
X169217738Y-60830062D01*
X169206682Y-60813517D01*
X169202800Y-60794000D01*
X169202800Y-59094000D01*
X169206682Y-59074483D01*
X169217738Y-59057938D01*
X169234283Y-59046882D01*
X169253800Y-59043000D01*
X170953800Y-59043000D01*
X170973317Y-59046882D01*
G37*
G36*
X92944517Y-57522882D02*
G01*
X92961062Y-57533938D01*
X92972118Y-57550483D01*
X92976000Y-57570000D01*
X92976000Y-59270000D01*
X92972118Y-59289517D01*
X92961062Y-59306062D01*
X92944517Y-59317118D01*
X92925000Y-59321000D01*
X91225000Y-59321000D01*
X91205483Y-59317118D01*
X91188938Y-59306062D01*
X91177882Y-59289517D01*
X91174000Y-59270000D01*
X91174000Y-57570000D01*
X91177882Y-57550483D01*
X91188938Y-57533938D01*
X91205483Y-57522882D01*
X91225000Y-57519000D01*
X92925000Y-57519000D01*
X92944517Y-57522882D01*
G37*
M02*
