%TF.GenerationSoftware,KiCad,Pcbnew,8.0.1*%
%TF.CreationDate,2024-04-20T00:47:07+02:00*%
%TF.ProjectId,Gotek_Floppy_Disk_Emulator_V2,476f7465-6b5f-4466-9c6f-7070795f4469,rev?*%
%TF.SameCoordinates,Original*%
%TF.FileFunction,Soldermask,Bot*%
%TF.FilePolarity,Negative*%
%FSLAX46Y46*%
G04 Gerber Fmt 4.6, Leading zero omitted, Abs format (unit mm)*
G04 Created by KiCad (PCBNEW 8.0.1) date 2024-04-20 00:47:07*
%MOMM*%
%LPD*%
G01*
G04 APERTURE LIST*
G04 APERTURE END LIST*
G36*
X155174517Y-112467882D02*
G01*
X155191062Y-112478938D01*
X155202118Y-112495483D01*
X155206000Y-112515000D01*
X155206000Y-114215000D01*
X155202118Y-114234517D01*
X155191062Y-114251062D01*
X155174517Y-114262118D01*
X155155000Y-114266000D01*
X153455000Y-114266000D01*
X153435483Y-114262118D01*
X153418938Y-114251062D01*
X153407882Y-114234517D01*
X153404000Y-114215000D01*
X153404000Y-112515000D01*
X153407882Y-112495483D01*
X153418938Y-112478938D01*
X153435483Y-112467882D01*
X153455000Y-112464000D01*
X155155000Y-112464000D01*
X155174517Y-112467882D01*
G37*
G36*
X156888983Y-112468936D02*
G01*
X156939180Y-112468936D01*
X156982524Y-112478149D01*
X157020659Y-112481905D01*
X157068566Y-112496437D01*
X157123424Y-112508098D01*
X157158530Y-112523728D01*
X157189566Y-112533143D01*
X157238884Y-112559504D01*
X157295500Y-112584711D01*
X157321822Y-112603835D01*
X157345232Y-112616348D01*
X157392988Y-112655540D01*
X157447887Y-112695427D01*
X157465711Y-112715223D01*
X157481675Y-112728324D01*
X157524572Y-112780594D01*
X157573924Y-112835405D01*
X157584292Y-112853363D01*
X157593651Y-112864767D01*
X157628273Y-112929542D01*
X157668104Y-112998530D01*
X157672685Y-113012630D01*
X157676856Y-113020433D01*
X157699852Y-113096242D01*
X157726311Y-113177672D01*
X157727242Y-113186532D01*
X157728094Y-113189340D01*
X157736384Y-113273513D01*
X157746000Y-113365000D01*
X157736383Y-113456494D01*
X157728094Y-113540659D01*
X157727242Y-113543466D01*
X157726311Y-113552328D01*
X157699848Y-113633771D01*
X157676856Y-113709566D01*
X157672686Y-113717366D01*
X157668104Y-113731470D01*
X157628266Y-113800470D01*
X157593651Y-113865232D01*
X157584294Y-113876633D01*
X157573924Y-113894595D01*
X157524563Y-113949415D01*
X157481675Y-114001675D01*
X157465714Y-114014773D01*
X157447887Y-114034573D01*
X157392977Y-114074467D01*
X157345232Y-114113651D01*
X157321827Y-114126161D01*
X157295500Y-114145289D01*
X157238873Y-114170500D01*
X157189566Y-114196856D01*
X157158537Y-114206268D01*
X157123424Y-114221902D01*
X157068555Y-114233564D01*
X157020659Y-114248094D01*
X156982532Y-114251849D01*
X156939180Y-114261064D01*
X156888973Y-114261064D01*
X156845000Y-114265395D01*
X156801027Y-114261064D01*
X156750820Y-114261064D01*
X156707467Y-114251849D01*
X156669340Y-114248094D01*
X156621441Y-114233563D01*
X156566576Y-114221902D01*
X156531464Y-114206269D01*
X156500433Y-114196856D01*
X156451120Y-114170498D01*
X156394500Y-114145289D01*
X156368175Y-114126163D01*
X156344767Y-114113651D01*
X156297013Y-114074460D01*
X156242113Y-114034573D01*
X156224287Y-114014776D01*
X156208324Y-114001675D01*
X156165425Y-113949402D01*
X156116076Y-113894595D01*
X156105708Y-113876637D01*
X156096348Y-113865232D01*
X156061719Y-113800447D01*
X156021896Y-113731470D01*
X156017315Y-113717371D01*
X156013143Y-113709566D01*
X155990136Y-113633725D01*
X155963689Y-113552328D01*
X155962758Y-113543471D01*
X155961905Y-113540659D01*
X155953600Y-113456342D01*
X155944000Y-113365000D01*
X155953599Y-113273664D01*
X155961905Y-113189340D01*
X155962758Y-113186527D01*
X155963689Y-113177672D01*
X155990132Y-113096288D01*
X156013143Y-113020433D01*
X156017315Y-113012626D01*
X156021896Y-112998530D01*
X156061712Y-112929565D01*
X156096348Y-112864767D01*
X156105710Y-112853359D01*
X156116076Y-112835405D01*
X156165416Y-112780607D01*
X156208324Y-112728324D01*
X156224291Y-112715219D01*
X156242113Y-112695427D01*
X156297002Y-112655546D01*
X156344767Y-112616348D01*
X156368180Y-112603833D01*
X156394500Y-112584711D01*
X156451109Y-112559506D01*
X156500433Y-112533143D01*
X156531471Y-112523727D01*
X156566576Y-112508098D01*
X156621430Y-112496438D01*
X156669340Y-112481905D01*
X156707476Y-112478148D01*
X156750820Y-112468936D01*
X156801016Y-112468936D01*
X156845000Y-112464604D01*
X156888983Y-112468936D01*
G37*
G36*
X159428983Y-112468936D02*
G01*
X159479180Y-112468936D01*
X159522524Y-112478149D01*
X159560659Y-112481905D01*
X159608566Y-112496437D01*
X159663424Y-112508098D01*
X159698530Y-112523728D01*
X159729566Y-112533143D01*
X159778884Y-112559504D01*
X159835500Y-112584711D01*
X159861822Y-112603835D01*
X159885232Y-112616348D01*
X159932988Y-112655540D01*
X159987887Y-112695427D01*
X160005711Y-112715223D01*
X160021675Y-112728324D01*
X160064572Y-112780594D01*
X160113924Y-112835405D01*
X160124292Y-112853363D01*
X160133651Y-112864767D01*
X160168273Y-112929542D01*
X160208104Y-112998530D01*
X160212685Y-113012630D01*
X160216856Y-113020433D01*
X160239852Y-113096242D01*
X160266311Y-113177672D01*
X160267242Y-113186532D01*
X160268094Y-113189340D01*
X160276384Y-113273513D01*
X160286000Y-113365000D01*
X160276383Y-113456494D01*
X160268094Y-113540659D01*
X160267242Y-113543466D01*
X160266311Y-113552328D01*
X160239848Y-113633771D01*
X160216856Y-113709566D01*
X160212686Y-113717366D01*
X160208104Y-113731470D01*
X160168266Y-113800470D01*
X160133651Y-113865232D01*
X160124294Y-113876633D01*
X160113924Y-113894595D01*
X160064563Y-113949415D01*
X160021675Y-114001675D01*
X160005714Y-114014773D01*
X159987887Y-114034573D01*
X159932977Y-114074467D01*
X159885232Y-114113651D01*
X159861827Y-114126161D01*
X159835500Y-114145289D01*
X159778873Y-114170500D01*
X159729566Y-114196856D01*
X159698537Y-114206268D01*
X159663424Y-114221902D01*
X159608555Y-114233564D01*
X159560659Y-114248094D01*
X159522532Y-114251849D01*
X159479180Y-114261064D01*
X159428973Y-114261064D01*
X159385000Y-114265395D01*
X159341027Y-114261064D01*
X159290820Y-114261064D01*
X159247467Y-114251849D01*
X159209340Y-114248094D01*
X159161441Y-114233563D01*
X159106576Y-114221902D01*
X159071464Y-114206269D01*
X159040433Y-114196856D01*
X158991120Y-114170498D01*
X158934500Y-114145289D01*
X158908175Y-114126163D01*
X158884767Y-114113651D01*
X158837013Y-114074460D01*
X158782113Y-114034573D01*
X158764287Y-114014776D01*
X158748324Y-114001675D01*
X158705425Y-113949402D01*
X158656076Y-113894595D01*
X158645708Y-113876637D01*
X158636348Y-113865232D01*
X158601719Y-113800447D01*
X158561896Y-113731470D01*
X158557315Y-113717371D01*
X158553143Y-113709566D01*
X158530136Y-113633725D01*
X158503689Y-113552328D01*
X158502758Y-113543471D01*
X158501905Y-113540659D01*
X158493600Y-113456342D01*
X158484000Y-113365000D01*
X158493599Y-113273664D01*
X158501905Y-113189340D01*
X158502758Y-113186527D01*
X158503689Y-113177672D01*
X158530132Y-113096288D01*
X158553143Y-113020433D01*
X158557315Y-113012626D01*
X158561896Y-112998530D01*
X158601712Y-112929565D01*
X158636348Y-112864767D01*
X158645710Y-112853359D01*
X158656076Y-112835405D01*
X158705416Y-112780607D01*
X158748324Y-112728324D01*
X158764291Y-112715219D01*
X158782113Y-112695427D01*
X158837002Y-112655546D01*
X158884767Y-112616348D01*
X158908180Y-112603833D01*
X158934500Y-112584711D01*
X158991109Y-112559506D01*
X159040433Y-112533143D01*
X159071471Y-112523727D01*
X159106576Y-112508098D01*
X159161430Y-112496438D01*
X159209340Y-112481905D01*
X159247476Y-112478148D01*
X159290820Y-112468936D01*
X159341016Y-112468936D01*
X159385000Y-112464604D01*
X159428983Y-112468936D01*
G37*
G36*
X161968983Y-112468936D02*
G01*
X162019180Y-112468936D01*
X162062524Y-112478149D01*
X162100659Y-112481905D01*
X162148566Y-112496437D01*
X162203424Y-112508098D01*
X162238530Y-112523728D01*
X162269566Y-112533143D01*
X162318884Y-112559504D01*
X162375500Y-112584711D01*
X162401822Y-112603835D01*
X162425232Y-112616348D01*
X162472988Y-112655540D01*
X162527887Y-112695427D01*
X162545711Y-112715223D01*
X162561675Y-112728324D01*
X162604572Y-112780594D01*
X162653924Y-112835405D01*
X162664292Y-112853363D01*
X162673651Y-112864767D01*
X162708273Y-112929542D01*
X162748104Y-112998530D01*
X162752685Y-113012630D01*
X162756856Y-113020433D01*
X162779852Y-113096242D01*
X162806311Y-113177672D01*
X162807242Y-113186532D01*
X162808094Y-113189340D01*
X162816384Y-113273513D01*
X162826000Y-113365000D01*
X162816383Y-113456494D01*
X162808094Y-113540659D01*
X162807242Y-113543466D01*
X162806311Y-113552328D01*
X162779848Y-113633771D01*
X162756856Y-113709566D01*
X162752686Y-113717366D01*
X162748104Y-113731470D01*
X162708266Y-113800470D01*
X162673651Y-113865232D01*
X162664294Y-113876633D01*
X162653924Y-113894595D01*
X162604563Y-113949415D01*
X162561675Y-114001675D01*
X162545714Y-114014773D01*
X162527887Y-114034573D01*
X162472977Y-114074467D01*
X162425232Y-114113651D01*
X162401827Y-114126161D01*
X162375500Y-114145289D01*
X162318873Y-114170500D01*
X162269566Y-114196856D01*
X162238537Y-114206268D01*
X162203424Y-114221902D01*
X162148555Y-114233564D01*
X162100659Y-114248094D01*
X162062532Y-114251849D01*
X162019180Y-114261064D01*
X161968973Y-114261064D01*
X161925000Y-114265395D01*
X161881027Y-114261064D01*
X161830820Y-114261064D01*
X161787467Y-114251849D01*
X161749340Y-114248094D01*
X161701441Y-114233563D01*
X161646576Y-114221902D01*
X161611464Y-114206269D01*
X161580433Y-114196856D01*
X161531120Y-114170498D01*
X161474500Y-114145289D01*
X161448175Y-114126163D01*
X161424767Y-114113651D01*
X161377013Y-114074460D01*
X161322113Y-114034573D01*
X161304287Y-114014776D01*
X161288324Y-114001675D01*
X161245425Y-113949402D01*
X161196076Y-113894595D01*
X161185708Y-113876637D01*
X161176348Y-113865232D01*
X161141719Y-113800447D01*
X161101896Y-113731470D01*
X161097315Y-113717371D01*
X161093143Y-113709566D01*
X161070136Y-113633725D01*
X161043689Y-113552328D01*
X161042758Y-113543471D01*
X161041905Y-113540659D01*
X161033600Y-113456342D01*
X161024000Y-113365000D01*
X161033599Y-113273664D01*
X161041905Y-113189340D01*
X161042758Y-113186527D01*
X161043689Y-113177672D01*
X161070132Y-113096288D01*
X161093143Y-113020433D01*
X161097315Y-113012626D01*
X161101896Y-112998530D01*
X161141712Y-112929565D01*
X161176348Y-112864767D01*
X161185710Y-112853359D01*
X161196076Y-112835405D01*
X161245416Y-112780607D01*
X161288324Y-112728324D01*
X161304291Y-112715219D01*
X161322113Y-112695427D01*
X161377002Y-112655546D01*
X161424767Y-112616348D01*
X161448180Y-112603833D01*
X161474500Y-112584711D01*
X161531109Y-112559506D01*
X161580433Y-112533143D01*
X161611471Y-112523727D01*
X161646576Y-112508098D01*
X161701430Y-112496438D01*
X161749340Y-112481905D01*
X161787476Y-112478148D01*
X161830820Y-112468936D01*
X161881016Y-112468936D01*
X161925000Y-112464604D01*
X161968983Y-112468936D01*
G37*
G36*
X91991983Y-112133936D02*
G01*
X92042180Y-112133936D01*
X92085524Y-112143149D01*
X92123659Y-112146905D01*
X92171566Y-112161437D01*
X92226424Y-112173098D01*
X92261530Y-112188728D01*
X92292566Y-112198143D01*
X92341884Y-112224504D01*
X92398500Y-112249711D01*
X92424822Y-112268835D01*
X92448232Y-112281348D01*
X92495988Y-112320540D01*
X92550887Y-112360427D01*
X92568711Y-112380223D01*
X92584675Y-112393324D01*
X92627572Y-112445594D01*
X92676924Y-112500405D01*
X92687292Y-112518363D01*
X92696651Y-112529767D01*
X92731273Y-112594542D01*
X92771104Y-112663530D01*
X92775685Y-112677630D01*
X92779856Y-112685433D01*
X92802852Y-112761242D01*
X92829311Y-112842672D01*
X92830242Y-112851532D01*
X92831094Y-112854340D01*
X92839384Y-112938513D01*
X92849000Y-113030000D01*
X92839383Y-113121494D01*
X92831094Y-113205659D01*
X92830242Y-113208466D01*
X92829311Y-113217328D01*
X92802848Y-113298771D01*
X92779856Y-113374566D01*
X92775686Y-113382366D01*
X92771104Y-113396470D01*
X92731266Y-113465470D01*
X92696651Y-113530232D01*
X92687294Y-113541633D01*
X92676924Y-113559595D01*
X92627563Y-113614415D01*
X92584675Y-113666675D01*
X92568714Y-113679773D01*
X92550887Y-113699573D01*
X92495977Y-113739467D01*
X92448232Y-113778651D01*
X92424827Y-113791161D01*
X92398500Y-113810289D01*
X92341873Y-113835500D01*
X92292566Y-113861856D01*
X92261537Y-113871268D01*
X92226424Y-113886902D01*
X92171555Y-113898564D01*
X92123659Y-113913094D01*
X92085532Y-113916849D01*
X92042180Y-113926064D01*
X91991973Y-113926064D01*
X91948000Y-113930395D01*
X91904027Y-113926064D01*
X91853820Y-113926064D01*
X91810467Y-113916849D01*
X91772340Y-113913094D01*
X91724441Y-113898563D01*
X91669576Y-113886902D01*
X91634464Y-113871269D01*
X91603433Y-113861856D01*
X91554120Y-113835498D01*
X91497500Y-113810289D01*
X91471175Y-113791163D01*
X91447767Y-113778651D01*
X91400013Y-113739460D01*
X91345113Y-113699573D01*
X91327287Y-113679776D01*
X91311324Y-113666675D01*
X91268425Y-113614402D01*
X91219076Y-113559595D01*
X91208708Y-113541637D01*
X91199348Y-113530232D01*
X91164719Y-113465447D01*
X91124896Y-113396470D01*
X91120315Y-113382371D01*
X91116143Y-113374566D01*
X91093136Y-113298725D01*
X91066689Y-113217328D01*
X91065758Y-113208471D01*
X91064905Y-113205659D01*
X91056600Y-113121342D01*
X91047000Y-113030000D01*
X91056599Y-112938664D01*
X91064905Y-112854340D01*
X91065758Y-112851527D01*
X91066689Y-112842672D01*
X91093132Y-112761288D01*
X91116143Y-112685433D01*
X91120315Y-112677626D01*
X91124896Y-112663530D01*
X91164712Y-112594565D01*
X91199348Y-112529767D01*
X91208710Y-112518359D01*
X91219076Y-112500405D01*
X91268416Y-112445607D01*
X91311324Y-112393324D01*
X91327291Y-112380219D01*
X91345113Y-112360427D01*
X91400002Y-112320546D01*
X91447767Y-112281348D01*
X91471180Y-112268833D01*
X91497500Y-112249711D01*
X91554109Y-112224506D01*
X91603433Y-112198143D01*
X91634471Y-112188727D01*
X91669576Y-112173098D01*
X91724430Y-112161438D01*
X91772340Y-112146905D01*
X91810476Y-112143148D01*
X91853820Y-112133936D01*
X91904016Y-112133936D01*
X91948000Y-112129604D01*
X91991983Y-112133936D01*
G37*
G36*
X94531983Y-112133936D02*
G01*
X94582180Y-112133936D01*
X94625524Y-112143149D01*
X94663659Y-112146905D01*
X94711566Y-112161437D01*
X94766424Y-112173098D01*
X94801530Y-112188728D01*
X94832566Y-112198143D01*
X94881884Y-112224504D01*
X94938500Y-112249711D01*
X94964822Y-112268835D01*
X94988232Y-112281348D01*
X95035988Y-112320540D01*
X95090887Y-112360427D01*
X95108711Y-112380223D01*
X95124675Y-112393324D01*
X95167572Y-112445594D01*
X95216924Y-112500405D01*
X95227292Y-112518363D01*
X95236651Y-112529767D01*
X95271273Y-112594542D01*
X95311104Y-112663530D01*
X95315685Y-112677630D01*
X95319856Y-112685433D01*
X95342852Y-112761242D01*
X95369311Y-112842672D01*
X95370242Y-112851532D01*
X95371094Y-112854340D01*
X95379384Y-112938513D01*
X95389000Y-113030000D01*
X95379383Y-113121494D01*
X95371094Y-113205659D01*
X95370242Y-113208466D01*
X95369311Y-113217328D01*
X95342848Y-113298771D01*
X95319856Y-113374566D01*
X95315686Y-113382366D01*
X95311104Y-113396470D01*
X95271266Y-113465470D01*
X95236651Y-113530232D01*
X95227294Y-113541633D01*
X95216924Y-113559595D01*
X95167563Y-113614415D01*
X95124675Y-113666675D01*
X95108714Y-113679773D01*
X95090887Y-113699573D01*
X95035977Y-113739467D01*
X94988232Y-113778651D01*
X94964827Y-113791161D01*
X94938500Y-113810289D01*
X94881873Y-113835500D01*
X94832566Y-113861856D01*
X94801537Y-113871268D01*
X94766424Y-113886902D01*
X94711555Y-113898564D01*
X94663659Y-113913094D01*
X94625532Y-113916849D01*
X94582180Y-113926064D01*
X94531973Y-113926064D01*
X94488000Y-113930395D01*
X94444027Y-113926064D01*
X94393820Y-113926064D01*
X94350467Y-113916849D01*
X94312340Y-113913094D01*
X94264441Y-113898563D01*
X94209576Y-113886902D01*
X94174464Y-113871269D01*
X94143433Y-113861856D01*
X94094120Y-113835498D01*
X94037500Y-113810289D01*
X94011175Y-113791163D01*
X93987767Y-113778651D01*
X93940013Y-113739460D01*
X93885113Y-113699573D01*
X93867287Y-113679776D01*
X93851324Y-113666675D01*
X93808425Y-113614402D01*
X93759076Y-113559595D01*
X93748708Y-113541637D01*
X93739348Y-113530232D01*
X93704719Y-113465447D01*
X93664896Y-113396470D01*
X93660315Y-113382371D01*
X93656143Y-113374566D01*
X93633136Y-113298725D01*
X93606689Y-113217328D01*
X93605758Y-113208471D01*
X93604905Y-113205659D01*
X93596600Y-113121342D01*
X93587000Y-113030000D01*
X93596599Y-112938664D01*
X93604905Y-112854340D01*
X93605758Y-112851527D01*
X93606689Y-112842672D01*
X93633132Y-112761288D01*
X93656143Y-112685433D01*
X93660315Y-112677626D01*
X93664896Y-112663530D01*
X93704712Y-112594565D01*
X93739348Y-112529767D01*
X93748710Y-112518359D01*
X93759076Y-112500405D01*
X93808416Y-112445607D01*
X93851324Y-112393324D01*
X93867291Y-112380219D01*
X93885113Y-112360427D01*
X93940002Y-112320546D01*
X93987767Y-112281348D01*
X94011180Y-112268833D01*
X94037500Y-112249711D01*
X94094109Y-112224506D01*
X94143433Y-112198143D01*
X94174471Y-112188727D01*
X94209576Y-112173098D01*
X94264430Y-112161438D01*
X94312340Y-112146905D01*
X94350476Y-112143148D01*
X94393820Y-112133936D01*
X94444016Y-112133936D01*
X94488000Y-112129604D01*
X94531983Y-112133936D01*
G37*
G36*
X91991983Y-109593936D02*
G01*
X92042180Y-109593936D01*
X92085524Y-109603149D01*
X92123659Y-109606905D01*
X92171566Y-109621437D01*
X92226424Y-109633098D01*
X92261530Y-109648728D01*
X92292566Y-109658143D01*
X92341884Y-109684504D01*
X92398500Y-109709711D01*
X92424822Y-109728835D01*
X92448232Y-109741348D01*
X92495988Y-109780540D01*
X92550887Y-109820427D01*
X92568711Y-109840223D01*
X92584675Y-109853324D01*
X92627572Y-109905594D01*
X92676924Y-109960405D01*
X92687292Y-109978363D01*
X92696651Y-109989767D01*
X92731273Y-110054542D01*
X92771104Y-110123530D01*
X92775685Y-110137630D01*
X92779856Y-110145433D01*
X92802852Y-110221242D01*
X92829311Y-110302672D01*
X92830242Y-110311532D01*
X92831094Y-110314340D01*
X92839384Y-110398513D01*
X92849000Y-110490000D01*
X92839383Y-110581494D01*
X92831094Y-110665659D01*
X92830242Y-110668466D01*
X92829311Y-110677328D01*
X92802848Y-110758771D01*
X92779856Y-110834566D01*
X92775686Y-110842366D01*
X92771104Y-110856470D01*
X92731266Y-110925470D01*
X92696651Y-110990232D01*
X92687294Y-111001633D01*
X92676924Y-111019595D01*
X92627563Y-111074415D01*
X92584675Y-111126675D01*
X92568714Y-111139773D01*
X92550887Y-111159573D01*
X92495977Y-111199467D01*
X92448232Y-111238651D01*
X92424827Y-111251161D01*
X92398500Y-111270289D01*
X92341873Y-111295500D01*
X92292566Y-111321856D01*
X92261537Y-111331268D01*
X92226424Y-111346902D01*
X92171555Y-111358564D01*
X92123659Y-111373094D01*
X92085532Y-111376849D01*
X92042180Y-111386064D01*
X91991973Y-111386064D01*
X91948000Y-111390395D01*
X91904027Y-111386064D01*
X91853820Y-111386064D01*
X91810467Y-111376849D01*
X91772340Y-111373094D01*
X91724441Y-111358563D01*
X91669576Y-111346902D01*
X91634464Y-111331269D01*
X91603433Y-111321856D01*
X91554120Y-111295498D01*
X91497500Y-111270289D01*
X91471175Y-111251163D01*
X91447767Y-111238651D01*
X91400013Y-111199460D01*
X91345113Y-111159573D01*
X91327287Y-111139776D01*
X91311324Y-111126675D01*
X91268425Y-111074402D01*
X91219076Y-111019595D01*
X91208708Y-111001637D01*
X91199348Y-110990232D01*
X91164719Y-110925447D01*
X91124896Y-110856470D01*
X91120315Y-110842371D01*
X91116143Y-110834566D01*
X91093136Y-110758725D01*
X91066689Y-110677328D01*
X91065758Y-110668471D01*
X91064905Y-110665659D01*
X91056600Y-110581342D01*
X91047000Y-110490000D01*
X91056599Y-110398664D01*
X91064905Y-110314340D01*
X91065758Y-110311527D01*
X91066689Y-110302672D01*
X91093132Y-110221288D01*
X91116143Y-110145433D01*
X91120315Y-110137626D01*
X91124896Y-110123530D01*
X91164712Y-110054565D01*
X91199348Y-109989767D01*
X91208710Y-109978359D01*
X91219076Y-109960405D01*
X91268416Y-109905607D01*
X91311324Y-109853324D01*
X91327291Y-109840219D01*
X91345113Y-109820427D01*
X91400002Y-109780546D01*
X91447767Y-109741348D01*
X91471180Y-109728833D01*
X91497500Y-109709711D01*
X91554109Y-109684506D01*
X91603433Y-109658143D01*
X91634471Y-109648727D01*
X91669576Y-109633098D01*
X91724430Y-109621438D01*
X91772340Y-109606905D01*
X91810476Y-109603148D01*
X91853820Y-109593936D01*
X91904016Y-109593936D01*
X91948000Y-109589604D01*
X91991983Y-109593936D01*
G37*
G36*
X94531983Y-109593936D02*
G01*
X94582180Y-109593936D01*
X94625524Y-109603149D01*
X94663659Y-109606905D01*
X94711566Y-109621437D01*
X94766424Y-109633098D01*
X94801530Y-109648728D01*
X94832566Y-109658143D01*
X94881884Y-109684504D01*
X94938500Y-109709711D01*
X94964822Y-109728835D01*
X94988232Y-109741348D01*
X95035988Y-109780540D01*
X95090887Y-109820427D01*
X95108711Y-109840223D01*
X95124675Y-109853324D01*
X95167572Y-109905594D01*
X95216924Y-109960405D01*
X95227292Y-109978363D01*
X95236651Y-109989767D01*
X95271273Y-110054542D01*
X95311104Y-110123530D01*
X95315685Y-110137630D01*
X95319856Y-110145433D01*
X95342852Y-110221242D01*
X95369311Y-110302672D01*
X95370242Y-110311532D01*
X95371094Y-110314340D01*
X95379384Y-110398513D01*
X95389000Y-110490000D01*
X95379383Y-110581494D01*
X95371094Y-110665659D01*
X95370242Y-110668466D01*
X95369311Y-110677328D01*
X95342848Y-110758771D01*
X95319856Y-110834566D01*
X95315686Y-110842366D01*
X95311104Y-110856470D01*
X95271266Y-110925470D01*
X95236651Y-110990232D01*
X95227294Y-111001633D01*
X95216924Y-111019595D01*
X95167563Y-111074415D01*
X95124675Y-111126675D01*
X95108714Y-111139773D01*
X95090887Y-111159573D01*
X95035977Y-111199467D01*
X94988232Y-111238651D01*
X94964827Y-111251161D01*
X94938500Y-111270289D01*
X94881873Y-111295500D01*
X94832566Y-111321856D01*
X94801537Y-111331268D01*
X94766424Y-111346902D01*
X94711555Y-111358564D01*
X94663659Y-111373094D01*
X94625532Y-111376849D01*
X94582180Y-111386064D01*
X94531973Y-111386064D01*
X94488000Y-111390395D01*
X94444027Y-111386064D01*
X94393820Y-111386064D01*
X94350467Y-111376849D01*
X94312340Y-111373094D01*
X94264441Y-111358563D01*
X94209576Y-111346902D01*
X94174464Y-111331269D01*
X94143433Y-111321856D01*
X94094120Y-111295498D01*
X94037500Y-111270289D01*
X94011175Y-111251163D01*
X93987767Y-111238651D01*
X93940013Y-111199460D01*
X93885113Y-111159573D01*
X93867287Y-111139776D01*
X93851324Y-111126675D01*
X93808425Y-111074402D01*
X93759076Y-111019595D01*
X93748708Y-111001637D01*
X93739348Y-110990232D01*
X93704719Y-110925447D01*
X93664896Y-110856470D01*
X93660315Y-110842371D01*
X93656143Y-110834566D01*
X93633136Y-110758725D01*
X93606689Y-110677328D01*
X93605758Y-110668471D01*
X93604905Y-110665659D01*
X93596600Y-110581342D01*
X93587000Y-110490000D01*
X93596599Y-110398664D01*
X93604905Y-110314340D01*
X93605758Y-110311527D01*
X93606689Y-110302672D01*
X93633132Y-110221288D01*
X93656143Y-110145433D01*
X93660315Y-110137626D01*
X93664896Y-110123530D01*
X93704712Y-110054565D01*
X93739348Y-109989767D01*
X93748710Y-109978359D01*
X93759076Y-109960405D01*
X93808416Y-109905607D01*
X93851324Y-109853324D01*
X93867291Y-109840219D01*
X93885113Y-109820427D01*
X93940002Y-109780546D01*
X93987767Y-109741348D01*
X94011180Y-109728833D01*
X94037500Y-109709711D01*
X94094109Y-109684506D01*
X94143433Y-109658143D01*
X94174471Y-109648727D01*
X94209576Y-109633098D01*
X94264430Y-109621438D01*
X94312340Y-109606905D01*
X94350476Y-109603148D01*
X94393820Y-109593936D01*
X94444016Y-109593936D01*
X94488000Y-109589604D01*
X94531983Y-109593936D01*
G37*
G36*
X135875938Y-108174017D02*
G01*
X135921923Y-108174017D01*
X135973139Y-108183590D01*
X136030040Y-108189195D01*
X136073261Y-108202306D01*
X136112474Y-108209636D01*
X136166785Y-108230676D01*
X136227200Y-108249003D01*
X136261720Y-108267454D01*
X136293232Y-108279662D01*
X136347977Y-108313559D01*
X136408904Y-108346125D01*
X136434506Y-108367136D01*
X136458048Y-108381713D01*
X136510212Y-108429267D01*
X136568169Y-108476831D01*
X136585342Y-108497757D01*
X136601301Y-108512305D01*
X136647629Y-108573653D01*
X136698875Y-108636096D01*
X136708783Y-108654634D01*
X136718122Y-108667000D01*
X136755274Y-108741613D01*
X136795997Y-108817800D01*
X136800340Y-108832117D01*
X136804528Y-108840528D01*
X136829267Y-108927476D01*
X136855805Y-109014960D01*
X136856676Y-109023811D01*
X136857577Y-109026975D01*
X136866938Y-109128002D01*
X136876000Y-109220000D01*
X136866938Y-109312005D01*
X136857577Y-109413024D01*
X136856676Y-109416187D01*
X136855805Y-109425040D01*
X136829262Y-109512538D01*
X136804528Y-109599471D01*
X136800341Y-109607879D01*
X136795997Y-109622200D01*
X136755267Y-109698399D01*
X136718122Y-109772999D01*
X136708785Y-109785362D01*
X136698875Y-109803904D01*
X136647620Y-109866357D01*
X136601301Y-109927694D01*
X136585345Y-109942238D01*
X136568169Y-109963169D01*
X136510201Y-110010741D01*
X136458048Y-110058286D01*
X136434511Y-110072859D01*
X136408904Y-110093875D01*
X136347965Y-110126447D01*
X136293232Y-110160337D01*
X136261726Y-110172542D01*
X136227200Y-110190997D01*
X136166773Y-110209327D01*
X136112474Y-110230363D01*
X136073268Y-110237691D01*
X136030040Y-110250805D01*
X135973136Y-110256409D01*
X135921923Y-110265983D01*
X135875938Y-110265983D01*
X135825000Y-110271000D01*
X135774062Y-110265983D01*
X135728077Y-110265983D01*
X135676863Y-110256409D01*
X135619960Y-110250805D01*
X135576732Y-110237692D01*
X135537525Y-110230363D01*
X135483221Y-110209325D01*
X135422800Y-110190997D01*
X135388275Y-110172543D01*
X135356767Y-110160337D01*
X135302027Y-110126443D01*
X135241096Y-110093875D01*
X135215491Y-110072861D01*
X135191951Y-110058286D01*
X135139788Y-110010733D01*
X135081831Y-109963169D01*
X135064656Y-109942242D01*
X135048698Y-109927694D01*
X135002367Y-109866342D01*
X134951125Y-109803904D01*
X134941216Y-109785366D01*
X134931877Y-109772999D01*
X134894717Y-109698372D01*
X134854003Y-109622200D01*
X134849660Y-109607884D01*
X134845471Y-109599471D01*
X134820721Y-109512485D01*
X134794195Y-109425040D01*
X134793323Y-109416192D01*
X134792422Y-109413024D01*
X134783044Y-109311833D01*
X134774000Y-109220000D01*
X134783044Y-109128173D01*
X134792422Y-109026975D01*
X134793323Y-109023805D01*
X134794195Y-109014960D01*
X134820716Y-108927529D01*
X134845471Y-108840528D01*
X134849661Y-108832112D01*
X134854003Y-108817800D01*
X134894710Y-108741641D01*
X134931877Y-108667000D01*
X134941218Y-108654629D01*
X134951125Y-108636096D01*
X135002357Y-108573668D01*
X135048698Y-108512305D01*
X135064660Y-108497753D01*
X135081831Y-108476831D01*
X135139777Y-108429275D01*
X135191951Y-108381713D01*
X135215496Y-108367134D01*
X135241096Y-108346125D01*
X135302015Y-108313563D01*
X135356767Y-108279662D01*
X135388282Y-108267452D01*
X135422800Y-108249003D01*
X135483209Y-108230677D01*
X135537525Y-108209636D01*
X135576739Y-108202305D01*
X135619960Y-108189195D01*
X135676860Y-108183590D01*
X135728077Y-108174017D01*
X135774062Y-108174017D01*
X135825000Y-108169000D01*
X135875938Y-108174017D01*
G37*
G36*
X143344517Y-108172882D02*
G01*
X143361062Y-108183938D01*
X143372118Y-108200483D01*
X143376000Y-108220000D01*
X143376000Y-110220000D01*
X143372118Y-110239517D01*
X143361062Y-110256062D01*
X143344517Y-110267118D01*
X143325000Y-110271000D01*
X141325000Y-110271000D01*
X141305483Y-110267118D01*
X141288938Y-110256062D01*
X141277882Y-110239517D01*
X141274000Y-110220000D01*
X141274000Y-108220000D01*
X141277882Y-108200483D01*
X141288938Y-108183938D01*
X141305483Y-108172882D01*
X141325000Y-108169000D01*
X143325000Y-108169000D01*
X143344517Y-108172882D01*
G37*
G36*
X91991983Y-107053936D02*
G01*
X92042180Y-107053936D01*
X92085524Y-107063149D01*
X92123659Y-107066905D01*
X92171566Y-107081437D01*
X92226424Y-107093098D01*
X92261530Y-107108728D01*
X92292566Y-107118143D01*
X92341884Y-107144504D01*
X92398500Y-107169711D01*
X92424822Y-107188835D01*
X92448232Y-107201348D01*
X92495988Y-107240540D01*
X92550887Y-107280427D01*
X92568711Y-107300223D01*
X92584675Y-107313324D01*
X92627572Y-107365594D01*
X92676924Y-107420405D01*
X92687292Y-107438363D01*
X92696651Y-107449767D01*
X92731273Y-107514542D01*
X92771104Y-107583530D01*
X92775685Y-107597630D01*
X92779856Y-107605433D01*
X92802852Y-107681242D01*
X92829311Y-107762672D01*
X92830242Y-107771532D01*
X92831094Y-107774340D01*
X92839384Y-107858513D01*
X92849000Y-107950000D01*
X92839383Y-108041494D01*
X92831094Y-108125659D01*
X92830242Y-108128466D01*
X92829311Y-108137328D01*
X92802848Y-108218771D01*
X92779856Y-108294566D01*
X92775686Y-108302366D01*
X92771104Y-108316470D01*
X92731266Y-108385470D01*
X92696651Y-108450232D01*
X92687294Y-108461633D01*
X92676924Y-108479595D01*
X92627563Y-108534415D01*
X92584675Y-108586675D01*
X92568714Y-108599773D01*
X92550887Y-108619573D01*
X92495977Y-108659467D01*
X92448232Y-108698651D01*
X92424827Y-108711161D01*
X92398500Y-108730289D01*
X92341873Y-108755500D01*
X92292566Y-108781856D01*
X92261537Y-108791268D01*
X92226424Y-108806902D01*
X92171555Y-108818564D01*
X92123659Y-108833094D01*
X92085532Y-108836849D01*
X92042180Y-108846064D01*
X91991973Y-108846064D01*
X91948000Y-108850395D01*
X91904027Y-108846064D01*
X91853820Y-108846064D01*
X91810467Y-108836849D01*
X91772340Y-108833094D01*
X91724441Y-108818563D01*
X91669576Y-108806902D01*
X91634464Y-108791269D01*
X91603433Y-108781856D01*
X91554120Y-108755498D01*
X91497500Y-108730289D01*
X91471175Y-108711163D01*
X91447767Y-108698651D01*
X91400013Y-108659460D01*
X91345113Y-108619573D01*
X91327287Y-108599776D01*
X91311324Y-108586675D01*
X91268425Y-108534402D01*
X91219076Y-108479595D01*
X91208708Y-108461637D01*
X91199348Y-108450232D01*
X91164719Y-108385447D01*
X91124896Y-108316470D01*
X91120315Y-108302371D01*
X91116143Y-108294566D01*
X91093136Y-108218725D01*
X91066689Y-108137328D01*
X91065758Y-108128471D01*
X91064905Y-108125659D01*
X91056600Y-108041342D01*
X91047000Y-107950000D01*
X91056599Y-107858664D01*
X91064905Y-107774340D01*
X91065758Y-107771527D01*
X91066689Y-107762672D01*
X91093132Y-107681288D01*
X91116143Y-107605433D01*
X91120315Y-107597626D01*
X91124896Y-107583530D01*
X91164712Y-107514565D01*
X91199348Y-107449767D01*
X91208710Y-107438359D01*
X91219076Y-107420405D01*
X91268416Y-107365607D01*
X91311324Y-107313324D01*
X91327291Y-107300219D01*
X91345113Y-107280427D01*
X91400002Y-107240546D01*
X91447767Y-107201348D01*
X91471180Y-107188833D01*
X91497500Y-107169711D01*
X91554109Y-107144506D01*
X91603433Y-107118143D01*
X91634471Y-107108727D01*
X91669576Y-107093098D01*
X91724430Y-107081438D01*
X91772340Y-107066905D01*
X91810476Y-107063148D01*
X91853820Y-107053936D01*
X91904016Y-107053936D01*
X91948000Y-107049604D01*
X91991983Y-107053936D01*
G37*
G36*
X94531983Y-107053936D02*
G01*
X94582180Y-107053936D01*
X94625524Y-107063149D01*
X94663659Y-107066905D01*
X94711566Y-107081437D01*
X94766424Y-107093098D01*
X94801530Y-107108728D01*
X94832566Y-107118143D01*
X94881884Y-107144504D01*
X94938500Y-107169711D01*
X94964822Y-107188835D01*
X94988232Y-107201348D01*
X95035988Y-107240540D01*
X95090887Y-107280427D01*
X95108711Y-107300223D01*
X95124675Y-107313324D01*
X95167572Y-107365594D01*
X95216924Y-107420405D01*
X95227292Y-107438363D01*
X95236651Y-107449767D01*
X95271273Y-107514542D01*
X95311104Y-107583530D01*
X95315685Y-107597630D01*
X95319856Y-107605433D01*
X95342852Y-107681242D01*
X95369311Y-107762672D01*
X95370242Y-107771532D01*
X95371094Y-107774340D01*
X95379384Y-107858513D01*
X95389000Y-107950000D01*
X95379383Y-108041494D01*
X95371094Y-108125659D01*
X95370242Y-108128466D01*
X95369311Y-108137328D01*
X95342848Y-108218771D01*
X95319856Y-108294566D01*
X95315686Y-108302366D01*
X95311104Y-108316470D01*
X95271266Y-108385470D01*
X95236651Y-108450232D01*
X95227294Y-108461633D01*
X95216924Y-108479595D01*
X95167563Y-108534415D01*
X95124675Y-108586675D01*
X95108714Y-108599773D01*
X95090887Y-108619573D01*
X95035977Y-108659467D01*
X94988232Y-108698651D01*
X94964827Y-108711161D01*
X94938500Y-108730289D01*
X94881873Y-108755500D01*
X94832566Y-108781856D01*
X94801537Y-108791268D01*
X94766424Y-108806902D01*
X94711555Y-108818564D01*
X94663659Y-108833094D01*
X94625532Y-108836849D01*
X94582180Y-108846064D01*
X94531973Y-108846064D01*
X94488000Y-108850395D01*
X94444027Y-108846064D01*
X94393820Y-108846064D01*
X94350467Y-108836849D01*
X94312340Y-108833094D01*
X94264441Y-108818563D01*
X94209576Y-108806902D01*
X94174464Y-108791269D01*
X94143433Y-108781856D01*
X94094120Y-108755498D01*
X94037500Y-108730289D01*
X94011175Y-108711163D01*
X93987767Y-108698651D01*
X93940013Y-108659460D01*
X93885113Y-108619573D01*
X93867287Y-108599776D01*
X93851324Y-108586675D01*
X93808425Y-108534402D01*
X93759076Y-108479595D01*
X93748708Y-108461637D01*
X93739348Y-108450232D01*
X93704719Y-108385447D01*
X93664896Y-108316470D01*
X93660315Y-108302371D01*
X93656143Y-108294566D01*
X93633136Y-108218725D01*
X93606689Y-108137328D01*
X93605758Y-108128471D01*
X93604905Y-108125659D01*
X93596600Y-108041342D01*
X93587000Y-107950000D01*
X93596599Y-107858664D01*
X93604905Y-107774340D01*
X93605758Y-107771527D01*
X93606689Y-107762672D01*
X93633132Y-107681288D01*
X93656143Y-107605433D01*
X93660315Y-107597626D01*
X93664896Y-107583530D01*
X93704712Y-107514565D01*
X93739348Y-107449767D01*
X93748710Y-107438359D01*
X93759076Y-107420405D01*
X93808416Y-107365607D01*
X93851324Y-107313324D01*
X93867291Y-107300219D01*
X93885113Y-107280427D01*
X93940002Y-107240546D01*
X93987767Y-107201348D01*
X94011180Y-107188833D01*
X94037500Y-107169711D01*
X94094109Y-107144506D01*
X94143433Y-107118143D01*
X94174471Y-107108727D01*
X94209576Y-107093098D01*
X94264430Y-107081438D01*
X94312340Y-107066905D01*
X94350476Y-107063148D01*
X94393820Y-107053936D01*
X94444016Y-107053936D01*
X94488000Y-107049604D01*
X94531983Y-107053936D01*
G37*
G36*
X91991983Y-104513936D02*
G01*
X92042180Y-104513936D01*
X92085524Y-104523149D01*
X92123659Y-104526905D01*
X92171566Y-104541437D01*
X92226424Y-104553098D01*
X92261530Y-104568728D01*
X92292566Y-104578143D01*
X92341884Y-104604504D01*
X92398500Y-104629711D01*
X92424822Y-104648835D01*
X92448232Y-104661348D01*
X92495988Y-104700540D01*
X92550887Y-104740427D01*
X92568711Y-104760223D01*
X92584675Y-104773324D01*
X92627572Y-104825594D01*
X92676924Y-104880405D01*
X92687292Y-104898363D01*
X92696651Y-104909767D01*
X92731273Y-104974542D01*
X92771104Y-105043530D01*
X92775685Y-105057630D01*
X92779856Y-105065433D01*
X92802852Y-105141242D01*
X92829311Y-105222672D01*
X92830242Y-105231532D01*
X92831094Y-105234340D01*
X92839384Y-105318513D01*
X92849000Y-105410000D01*
X92839383Y-105501494D01*
X92831094Y-105585659D01*
X92830242Y-105588466D01*
X92829311Y-105597328D01*
X92802848Y-105678771D01*
X92779856Y-105754566D01*
X92775686Y-105762366D01*
X92771104Y-105776470D01*
X92731266Y-105845470D01*
X92696651Y-105910232D01*
X92687294Y-105921633D01*
X92676924Y-105939595D01*
X92627563Y-105994415D01*
X92584675Y-106046675D01*
X92568714Y-106059773D01*
X92550887Y-106079573D01*
X92495977Y-106119467D01*
X92448232Y-106158651D01*
X92424827Y-106171161D01*
X92398500Y-106190289D01*
X92341873Y-106215500D01*
X92292566Y-106241856D01*
X92261537Y-106251268D01*
X92226424Y-106266902D01*
X92171555Y-106278564D01*
X92123659Y-106293094D01*
X92085532Y-106296849D01*
X92042180Y-106306064D01*
X91991973Y-106306064D01*
X91948000Y-106310395D01*
X91904027Y-106306064D01*
X91853820Y-106306064D01*
X91810467Y-106296849D01*
X91772340Y-106293094D01*
X91724441Y-106278563D01*
X91669576Y-106266902D01*
X91634464Y-106251269D01*
X91603433Y-106241856D01*
X91554120Y-106215498D01*
X91497500Y-106190289D01*
X91471175Y-106171163D01*
X91447767Y-106158651D01*
X91400013Y-106119460D01*
X91345113Y-106079573D01*
X91327287Y-106059776D01*
X91311324Y-106046675D01*
X91268425Y-105994402D01*
X91219076Y-105939595D01*
X91208708Y-105921637D01*
X91199348Y-105910232D01*
X91164719Y-105845447D01*
X91124896Y-105776470D01*
X91120315Y-105762371D01*
X91116143Y-105754566D01*
X91093136Y-105678725D01*
X91066689Y-105597328D01*
X91065758Y-105588471D01*
X91064905Y-105585659D01*
X91056600Y-105501342D01*
X91047000Y-105410000D01*
X91056599Y-105318664D01*
X91064905Y-105234340D01*
X91065758Y-105231527D01*
X91066689Y-105222672D01*
X91093132Y-105141288D01*
X91116143Y-105065433D01*
X91120315Y-105057626D01*
X91124896Y-105043530D01*
X91164712Y-104974565D01*
X91199348Y-104909767D01*
X91208710Y-104898359D01*
X91219076Y-104880405D01*
X91268416Y-104825607D01*
X91311324Y-104773324D01*
X91327291Y-104760219D01*
X91345113Y-104740427D01*
X91400002Y-104700546D01*
X91447767Y-104661348D01*
X91471180Y-104648833D01*
X91497500Y-104629711D01*
X91554109Y-104604506D01*
X91603433Y-104578143D01*
X91634471Y-104568727D01*
X91669576Y-104553098D01*
X91724430Y-104541438D01*
X91772340Y-104526905D01*
X91810476Y-104523148D01*
X91853820Y-104513936D01*
X91904016Y-104513936D01*
X91948000Y-104509604D01*
X91991983Y-104513936D01*
G37*
G36*
X94531983Y-104513936D02*
G01*
X94582180Y-104513936D01*
X94625524Y-104523149D01*
X94663659Y-104526905D01*
X94711566Y-104541437D01*
X94766424Y-104553098D01*
X94801530Y-104568728D01*
X94832566Y-104578143D01*
X94881884Y-104604504D01*
X94938500Y-104629711D01*
X94964822Y-104648835D01*
X94988232Y-104661348D01*
X95035988Y-104700540D01*
X95090887Y-104740427D01*
X95108711Y-104760223D01*
X95124675Y-104773324D01*
X95167572Y-104825594D01*
X95216924Y-104880405D01*
X95227292Y-104898363D01*
X95236651Y-104909767D01*
X95271273Y-104974542D01*
X95311104Y-105043530D01*
X95315685Y-105057630D01*
X95319856Y-105065433D01*
X95342852Y-105141242D01*
X95369311Y-105222672D01*
X95370242Y-105231532D01*
X95371094Y-105234340D01*
X95379384Y-105318513D01*
X95389000Y-105410000D01*
X95379383Y-105501494D01*
X95371094Y-105585659D01*
X95370242Y-105588466D01*
X95369311Y-105597328D01*
X95342848Y-105678771D01*
X95319856Y-105754566D01*
X95315686Y-105762366D01*
X95311104Y-105776470D01*
X95271266Y-105845470D01*
X95236651Y-105910232D01*
X95227294Y-105921633D01*
X95216924Y-105939595D01*
X95167563Y-105994415D01*
X95124675Y-106046675D01*
X95108714Y-106059773D01*
X95090887Y-106079573D01*
X95035977Y-106119467D01*
X94988232Y-106158651D01*
X94964827Y-106171161D01*
X94938500Y-106190289D01*
X94881873Y-106215500D01*
X94832566Y-106241856D01*
X94801537Y-106251268D01*
X94766424Y-106266902D01*
X94711555Y-106278564D01*
X94663659Y-106293094D01*
X94625532Y-106296849D01*
X94582180Y-106306064D01*
X94531973Y-106306064D01*
X94488000Y-106310395D01*
X94444027Y-106306064D01*
X94393820Y-106306064D01*
X94350467Y-106296849D01*
X94312340Y-106293094D01*
X94264441Y-106278563D01*
X94209576Y-106266902D01*
X94174464Y-106251269D01*
X94143433Y-106241856D01*
X94094120Y-106215498D01*
X94037500Y-106190289D01*
X94011175Y-106171163D01*
X93987767Y-106158651D01*
X93940013Y-106119460D01*
X93885113Y-106079573D01*
X93867287Y-106059776D01*
X93851324Y-106046675D01*
X93808425Y-105994402D01*
X93759076Y-105939595D01*
X93748708Y-105921637D01*
X93739348Y-105910232D01*
X93704719Y-105845447D01*
X93664896Y-105776470D01*
X93660315Y-105762371D01*
X93656143Y-105754566D01*
X93633136Y-105678725D01*
X93606689Y-105597328D01*
X93605758Y-105588471D01*
X93604905Y-105585659D01*
X93596600Y-105501342D01*
X93587000Y-105410000D01*
X93596599Y-105318664D01*
X93604905Y-105234340D01*
X93605758Y-105231527D01*
X93606689Y-105222672D01*
X93633132Y-105141288D01*
X93656143Y-105065433D01*
X93660315Y-105057626D01*
X93664896Y-105043530D01*
X93704712Y-104974565D01*
X93739348Y-104909767D01*
X93748710Y-104898359D01*
X93759076Y-104880405D01*
X93808416Y-104825607D01*
X93851324Y-104773324D01*
X93867291Y-104760219D01*
X93885113Y-104740427D01*
X93940002Y-104700546D01*
X93987767Y-104661348D01*
X94011180Y-104648833D01*
X94037500Y-104629711D01*
X94094109Y-104604506D01*
X94143433Y-104578143D01*
X94174471Y-104568727D01*
X94209576Y-104553098D01*
X94264430Y-104541438D01*
X94312340Y-104526905D01*
X94350476Y-104523148D01*
X94393820Y-104513936D01*
X94444016Y-104513936D01*
X94488000Y-104509604D01*
X94531983Y-104513936D01*
G37*
G36*
X91991983Y-101973936D02*
G01*
X92042180Y-101973936D01*
X92085524Y-101983149D01*
X92123659Y-101986905D01*
X92171566Y-102001437D01*
X92226424Y-102013098D01*
X92261530Y-102028728D01*
X92292566Y-102038143D01*
X92341884Y-102064504D01*
X92398500Y-102089711D01*
X92424822Y-102108835D01*
X92448232Y-102121348D01*
X92495988Y-102160540D01*
X92550887Y-102200427D01*
X92568711Y-102220223D01*
X92584675Y-102233324D01*
X92627572Y-102285594D01*
X92676924Y-102340405D01*
X92687292Y-102358363D01*
X92696651Y-102369767D01*
X92731273Y-102434542D01*
X92771104Y-102503530D01*
X92775685Y-102517630D01*
X92779856Y-102525433D01*
X92802852Y-102601242D01*
X92829311Y-102682672D01*
X92830242Y-102691532D01*
X92831094Y-102694340D01*
X92839384Y-102778513D01*
X92849000Y-102870000D01*
X92839383Y-102961494D01*
X92831094Y-103045659D01*
X92830242Y-103048466D01*
X92829311Y-103057328D01*
X92802848Y-103138771D01*
X92779856Y-103214566D01*
X92775686Y-103222366D01*
X92771104Y-103236470D01*
X92731266Y-103305470D01*
X92696651Y-103370232D01*
X92687294Y-103381633D01*
X92676924Y-103399595D01*
X92627563Y-103454415D01*
X92584675Y-103506675D01*
X92568714Y-103519773D01*
X92550887Y-103539573D01*
X92495977Y-103579467D01*
X92448232Y-103618651D01*
X92424827Y-103631161D01*
X92398500Y-103650289D01*
X92341873Y-103675500D01*
X92292566Y-103701856D01*
X92261537Y-103711268D01*
X92226424Y-103726902D01*
X92171555Y-103738564D01*
X92123659Y-103753094D01*
X92085532Y-103756849D01*
X92042180Y-103766064D01*
X91991973Y-103766064D01*
X91948000Y-103770395D01*
X91904027Y-103766064D01*
X91853820Y-103766064D01*
X91810467Y-103756849D01*
X91772340Y-103753094D01*
X91724441Y-103738563D01*
X91669576Y-103726902D01*
X91634464Y-103711269D01*
X91603433Y-103701856D01*
X91554120Y-103675498D01*
X91497500Y-103650289D01*
X91471175Y-103631163D01*
X91447767Y-103618651D01*
X91400013Y-103579460D01*
X91345113Y-103539573D01*
X91327287Y-103519776D01*
X91311324Y-103506675D01*
X91268425Y-103454402D01*
X91219076Y-103399595D01*
X91208708Y-103381637D01*
X91199348Y-103370232D01*
X91164719Y-103305447D01*
X91124896Y-103236470D01*
X91120315Y-103222371D01*
X91116143Y-103214566D01*
X91093136Y-103138725D01*
X91066689Y-103057328D01*
X91065758Y-103048471D01*
X91064905Y-103045659D01*
X91056600Y-102961342D01*
X91047000Y-102870000D01*
X91056599Y-102778664D01*
X91064905Y-102694340D01*
X91065758Y-102691527D01*
X91066689Y-102682672D01*
X91093132Y-102601288D01*
X91116143Y-102525433D01*
X91120315Y-102517626D01*
X91124896Y-102503530D01*
X91164712Y-102434565D01*
X91199348Y-102369767D01*
X91208710Y-102358359D01*
X91219076Y-102340405D01*
X91268416Y-102285607D01*
X91311324Y-102233324D01*
X91327291Y-102220219D01*
X91345113Y-102200427D01*
X91400002Y-102160546D01*
X91447767Y-102121348D01*
X91471180Y-102108833D01*
X91497500Y-102089711D01*
X91554109Y-102064506D01*
X91603433Y-102038143D01*
X91634471Y-102028727D01*
X91669576Y-102013098D01*
X91724430Y-102001438D01*
X91772340Y-101986905D01*
X91810476Y-101983148D01*
X91853820Y-101973936D01*
X91904016Y-101973936D01*
X91948000Y-101969604D01*
X91991983Y-101973936D01*
G37*
G36*
X94531983Y-101973936D02*
G01*
X94582180Y-101973936D01*
X94625524Y-101983149D01*
X94663659Y-101986905D01*
X94711566Y-102001437D01*
X94766424Y-102013098D01*
X94801530Y-102028728D01*
X94832566Y-102038143D01*
X94881884Y-102064504D01*
X94938500Y-102089711D01*
X94964822Y-102108835D01*
X94988232Y-102121348D01*
X95035988Y-102160540D01*
X95090887Y-102200427D01*
X95108711Y-102220223D01*
X95124675Y-102233324D01*
X95167572Y-102285594D01*
X95216924Y-102340405D01*
X95227292Y-102358363D01*
X95236651Y-102369767D01*
X95271273Y-102434542D01*
X95311104Y-102503530D01*
X95315685Y-102517630D01*
X95319856Y-102525433D01*
X95342852Y-102601242D01*
X95369311Y-102682672D01*
X95370242Y-102691532D01*
X95371094Y-102694340D01*
X95379384Y-102778513D01*
X95389000Y-102870000D01*
X95379383Y-102961494D01*
X95371094Y-103045659D01*
X95370242Y-103048466D01*
X95369311Y-103057328D01*
X95342848Y-103138771D01*
X95319856Y-103214566D01*
X95315686Y-103222366D01*
X95311104Y-103236470D01*
X95271266Y-103305470D01*
X95236651Y-103370232D01*
X95227294Y-103381633D01*
X95216924Y-103399595D01*
X95167563Y-103454415D01*
X95124675Y-103506675D01*
X95108714Y-103519773D01*
X95090887Y-103539573D01*
X95035977Y-103579467D01*
X94988232Y-103618651D01*
X94964827Y-103631161D01*
X94938500Y-103650289D01*
X94881873Y-103675500D01*
X94832566Y-103701856D01*
X94801537Y-103711268D01*
X94766424Y-103726902D01*
X94711555Y-103738564D01*
X94663659Y-103753094D01*
X94625532Y-103756849D01*
X94582180Y-103766064D01*
X94531973Y-103766064D01*
X94488000Y-103770395D01*
X94444027Y-103766064D01*
X94393820Y-103766064D01*
X94350467Y-103756849D01*
X94312340Y-103753094D01*
X94264441Y-103738563D01*
X94209576Y-103726902D01*
X94174464Y-103711269D01*
X94143433Y-103701856D01*
X94094120Y-103675498D01*
X94037500Y-103650289D01*
X94011175Y-103631163D01*
X93987767Y-103618651D01*
X93940013Y-103579460D01*
X93885113Y-103539573D01*
X93867287Y-103519776D01*
X93851324Y-103506675D01*
X93808425Y-103454402D01*
X93759076Y-103399595D01*
X93748708Y-103381637D01*
X93739348Y-103370232D01*
X93704719Y-103305447D01*
X93664896Y-103236470D01*
X93660315Y-103222371D01*
X93656143Y-103214566D01*
X93633136Y-103138725D01*
X93606689Y-103057328D01*
X93605758Y-103048471D01*
X93604905Y-103045659D01*
X93596600Y-102961342D01*
X93587000Y-102870000D01*
X93596599Y-102778664D01*
X93604905Y-102694340D01*
X93605758Y-102691527D01*
X93606689Y-102682672D01*
X93633132Y-102601288D01*
X93656143Y-102525433D01*
X93660315Y-102517626D01*
X93664896Y-102503530D01*
X93704712Y-102434565D01*
X93739348Y-102369767D01*
X93748710Y-102358359D01*
X93759076Y-102340405D01*
X93808416Y-102285607D01*
X93851324Y-102233324D01*
X93867291Y-102220219D01*
X93885113Y-102200427D01*
X93940002Y-102160546D01*
X93987767Y-102121348D01*
X94011180Y-102108833D01*
X94037500Y-102089711D01*
X94094109Y-102064506D01*
X94143433Y-102038143D01*
X94174471Y-102028727D01*
X94209576Y-102013098D01*
X94264430Y-102001438D01*
X94312340Y-101986905D01*
X94350476Y-101983148D01*
X94393820Y-101973936D01*
X94444016Y-101973936D01*
X94488000Y-101969604D01*
X94531983Y-101973936D01*
G37*
G36*
X161519543Y-100583686D02*
G01*
X161575880Y-100583686D01*
X161637437Y-100592964D01*
X161702630Y-100598095D01*
X161755181Y-100610711D01*
X161805050Y-100618228D01*
X161870215Y-100638328D01*
X161939285Y-100654911D01*
X161983943Y-100673409D01*
X162026519Y-100686542D01*
X162093365Y-100718733D01*
X162164139Y-100748049D01*
X162200466Y-100770310D01*
X162235322Y-100787096D01*
X162301620Y-100832297D01*
X162371655Y-100875215D01*
X162399700Y-100899167D01*
X162426813Y-100917653D01*
X162490119Y-100976392D01*
X162556723Y-101033277D01*
X162576946Y-101056956D01*
X162596706Y-101075290D01*
X162654478Y-101147734D01*
X162714785Y-101218345D01*
X162728048Y-101239988D01*
X162741206Y-101256488D01*
X162790834Y-101342447D01*
X162841951Y-101425861D01*
X162849458Y-101443984D01*
X162857088Y-101457200D01*
X162895994Y-101556331D01*
X162935089Y-101650715D01*
X162938322Y-101664184D01*
X162941757Y-101672935D01*
X162967473Y-101785604D01*
X162991905Y-101887370D01*
X162992538Y-101895423D01*
X162993330Y-101898890D01*
X163003656Y-102036692D01*
X163011000Y-102130000D01*
X163003656Y-102223315D01*
X162993330Y-102361109D01*
X162992538Y-102364574D01*
X162991905Y-102372630D01*
X162967468Y-102474414D01*
X162941757Y-102587064D01*
X162938323Y-102595812D01*
X162935089Y-102609285D01*
X162895986Y-102703686D01*
X162857088Y-102802799D01*
X162849459Y-102816011D01*
X162841951Y-102834139D01*
X162790824Y-102917569D01*
X162741206Y-103003511D01*
X162728050Y-103020007D01*
X162714785Y-103041655D01*
X162654466Y-103112279D01*
X162596706Y-103184709D01*
X162576951Y-103203038D01*
X162556723Y-103226723D01*
X162490105Y-103283618D01*
X162426813Y-103342346D01*
X162399706Y-103360827D01*
X162371655Y-103384785D01*
X162301606Y-103427710D01*
X162235322Y-103472903D01*
X162200474Y-103489684D01*
X162164139Y-103511951D01*
X162093350Y-103541272D01*
X162026519Y-103573457D01*
X161983952Y-103586586D01*
X161939285Y-103605089D01*
X161870200Y-103621674D01*
X161805050Y-103641771D01*
X161755189Y-103649286D01*
X161702630Y-103661905D01*
X161637433Y-103667035D01*
X161575880Y-103676314D01*
X161519543Y-103676314D01*
X161460000Y-103681000D01*
X161400457Y-103676314D01*
X161344120Y-103676314D01*
X161282565Y-103667035D01*
X161217370Y-103661905D01*
X161164811Y-103649286D01*
X161114949Y-103641771D01*
X161049796Y-103621673D01*
X160980715Y-103605089D01*
X160936047Y-103586587D01*
X160893481Y-103573457D01*
X160826646Y-103541271D01*
X160755861Y-103511951D01*
X160719528Y-103489686D01*
X160684675Y-103472902D01*
X160618377Y-103427700D01*
X160548345Y-103384785D01*
X160520301Y-103360833D01*
X160493188Y-103342348D01*
X160429880Y-103283607D01*
X160363277Y-103226723D01*
X160343052Y-103203043D01*
X160323293Y-103184709D01*
X160265518Y-103112261D01*
X160205215Y-103041655D01*
X160191952Y-103020012D01*
X160178793Y-103003511D01*
X160129157Y-102917540D01*
X160078049Y-102834139D01*
X160070542Y-102816017D01*
X160062911Y-102802799D01*
X160023994Y-102703640D01*
X159984911Y-102609285D01*
X159981678Y-102595819D01*
X159978242Y-102587064D01*
X159952511Y-102474329D01*
X159928095Y-102372630D01*
X159927461Y-102364581D01*
X159926669Y-102361109D01*
X159916323Y-102223050D01*
X159909000Y-102130000D01*
X159916322Y-102036957D01*
X159926669Y-101898890D01*
X159927461Y-101895416D01*
X159928095Y-101887370D01*
X159952506Y-101785689D01*
X159978242Y-101672935D01*
X159981678Y-101664178D01*
X159984911Y-101650715D01*
X160023986Y-101556377D01*
X160062911Y-101457200D01*
X160070544Y-101443978D01*
X160078049Y-101425861D01*
X160129147Y-101342475D01*
X160178793Y-101256488D01*
X160191955Y-101239983D01*
X160205215Y-101218345D01*
X160265506Y-101147752D01*
X160323293Y-101075290D01*
X160343056Y-101056951D01*
X160363277Y-101033277D01*
X160429866Y-100976404D01*
X160493188Y-100917651D01*
X160520307Y-100899161D01*
X160548345Y-100875215D01*
X160618362Y-100832308D01*
X160684675Y-100787097D01*
X160719536Y-100770308D01*
X160755861Y-100748049D01*
X160826632Y-100718734D01*
X160893481Y-100686542D01*
X160936057Y-100673408D01*
X160980715Y-100654911D01*
X161049781Y-100638329D01*
X161114949Y-100618228D01*
X161164820Y-100610711D01*
X161217370Y-100598095D01*
X161282561Y-100592964D01*
X161344120Y-100583686D01*
X161400457Y-100583686D01*
X161460000Y-100579000D01*
X161519543Y-100583686D01*
G37*
G36*
X91991983Y-99433936D02*
G01*
X92042180Y-99433936D01*
X92085524Y-99443149D01*
X92123659Y-99446905D01*
X92171566Y-99461437D01*
X92226424Y-99473098D01*
X92261530Y-99488728D01*
X92292566Y-99498143D01*
X92341884Y-99524504D01*
X92398500Y-99549711D01*
X92424822Y-99568835D01*
X92448232Y-99581348D01*
X92495988Y-99620540D01*
X92550887Y-99660427D01*
X92568711Y-99680223D01*
X92584675Y-99693324D01*
X92627572Y-99745594D01*
X92676924Y-99800405D01*
X92687292Y-99818363D01*
X92696651Y-99829767D01*
X92731273Y-99894542D01*
X92771104Y-99963530D01*
X92775685Y-99977630D01*
X92779856Y-99985433D01*
X92802852Y-100061242D01*
X92829311Y-100142672D01*
X92830242Y-100151532D01*
X92831094Y-100154340D01*
X92839384Y-100238513D01*
X92849000Y-100330000D01*
X92839383Y-100421494D01*
X92831094Y-100505659D01*
X92830242Y-100508466D01*
X92829311Y-100517328D01*
X92802848Y-100598771D01*
X92779856Y-100674566D01*
X92775686Y-100682366D01*
X92771104Y-100696470D01*
X92731266Y-100765470D01*
X92696651Y-100830232D01*
X92687294Y-100841633D01*
X92676924Y-100859595D01*
X92627563Y-100914415D01*
X92584675Y-100966675D01*
X92568714Y-100979773D01*
X92550887Y-100999573D01*
X92495977Y-101039467D01*
X92448232Y-101078651D01*
X92424827Y-101091161D01*
X92398500Y-101110289D01*
X92341873Y-101135500D01*
X92292566Y-101161856D01*
X92261537Y-101171268D01*
X92226424Y-101186902D01*
X92171555Y-101198564D01*
X92123659Y-101213094D01*
X92085532Y-101216849D01*
X92042180Y-101226064D01*
X91991973Y-101226064D01*
X91948000Y-101230395D01*
X91904027Y-101226064D01*
X91853820Y-101226064D01*
X91810467Y-101216849D01*
X91772340Y-101213094D01*
X91724441Y-101198563D01*
X91669576Y-101186902D01*
X91634464Y-101171269D01*
X91603433Y-101161856D01*
X91554120Y-101135498D01*
X91497500Y-101110289D01*
X91471175Y-101091163D01*
X91447767Y-101078651D01*
X91400013Y-101039460D01*
X91345113Y-100999573D01*
X91327287Y-100979776D01*
X91311324Y-100966675D01*
X91268425Y-100914402D01*
X91219076Y-100859595D01*
X91208708Y-100841637D01*
X91199348Y-100830232D01*
X91164719Y-100765447D01*
X91124896Y-100696470D01*
X91120315Y-100682371D01*
X91116143Y-100674566D01*
X91093136Y-100598725D01*
X91066689Y-100517328D01*
X91065758Y-100508471D01*
X91064905Y-100505659D01*
X91056600Y-100421342D01*
X91047000Y-100330000D01*
X91056599Y-100238664D01*
X91064905Y-100154340D01*
X91065758Y-100151527D01*
X91066689Y-100142672D01*
X91093132Y-100061288D01*
X91116143Y-99985433D01*
X91120315Y-99977626D01*
X91124896Y-99963530D01*
X91164712Y-99894565D01*
X91199348Y-99829767D01*
X91208710Y-99818359D01*
X91219076Y-99800405D01*
X91268416Y-99745607D01*
X91311324Y-99693324D01*
X91327291Y-99680219D01*
X91345113Y-99660427D01*
X91400002Y-99620546D01*
X91447767Y-99581348D01*
X91471180Y-99568833D01*
X91497500Y-99549711D01*
X91554109Y-99524506D01*
X91603433Y-99498143D01*
X91634471Y-99488727D01*
X91669576Y-99473098D01*
X91724430Y-99461438D01*
X91772340Y-99446905D01*
X91810476Y-99443148D01*
X91853820Y-99433936D01*
X91904016Y-99433936D01*
X91948000Y-99429604D01*
X91991983Y-99433936D01*
G37*
G36*
X94531983Y-99433936D02*
G01*
X94582180Y-99433936D01*
X94625524Y-99443149D01*
X94663659Y-99446905D01*
X94711566Y-99461437D01*
X94766424Y-99473098D01*
X94801530Y-99488728D01*
X94832566Y-99498143D01*
X94881884Y-99524504D01*
X94938500Y-99549711D01*
X94964822Y-99568835D01*
X94988232Y-99581348D01*
X95035988Y-99620540D01*
X95090887Y-99660427D01*
X95108711Y-99680223D01*
X95124675Y-99693324D01*
X95167572Y-99745594D01*
X95216924Y-99800405D01*
X95227292Y-99818363D01*
X95236651Y-99829767D01*
X95271273Y-99894542D01*
X95311104Y-99963530D01*
X95315685Y-99977630D01*
X95319856Y-99985433D01*
X95342852Y-100061242D01*
X95369311Y-100142672D01*
X95370242Y-100151532D01*
X95371094Y-100154340D01*
X95379384Y-100238513D01*
X95389000Y-100330000D01*
X95379383Y-100421494D01*
X95371094Y-100505659D01*
X95370242Y-100508466D01*
X95369311Y-100517328D01*
X95342848Y-100598771D01*
X95319856Y-100674566D01*
X95315686Y-100682366D01*
X95311104Y-100696470D01*
X95271266Y-100765470D01*
X95236651Y-100830232D01*
X95227294Y-100841633D01*
X95216924Y-100859595D01*
X95167563Y-100914415D01*
X95124675Y-100966675D01*
X95108714Y-100979773D01*
X95090887Y-100999573D01*
X95035977Y-101039467D01*
X94988232Y-101078651D01*
X94964827Y-101091161D01*
X94938500Y-101110289D01*
X94881873Y-101135500D01*
X94832566Y-101161856D01*
X94801537Y-101171268D01*
X94766424Y-101186902D01*
X94711555Y-101198564D01*
X94663659Y-101213094D01*
X94625532Y-101216849D01*
X94582180Y-101226064D01*
X94531973Y-101226064D01*
X94488000Y-101230395D01*
X94444027Y-101226064D01*
X94393820Y-101226064D01*
X94350467Y-101216849D01*
X94312340Y-101213094D01*
X94264441Y-101198563D01*
X94209576Y-101186902D01*
X94174464Y-101171269D01*
X94143433Y-101161856D01*
X94094120Y-101135498D01*
X94037500Y-101110289D01*
X94011175Y-101091163D01*
X93987767Y-101078651D01*
X93940013Y-101039460D01*
X93885113Y-100999573D01*
X93867287Y-100979776D01*
X93851324Y-100966675D01*
X93808425Y-100914402D01*
X93759076Y-100859595D01*
X93748708Y-100841637D01*
X93739348Y-100830232D01*
X93704719Y-100765447D01*
X93664896Y-100696470D01*
X93660315Y-100682371D01*
X93656143Y-100674566D01*
X93633136Y-100598725D01*
X93606689Y-100517328D01*
X93605758Y-100508471D01*
X93604905Y-100505659D01*
X93596600Y-100421342D01*
X93587000Y-100330000D01*
X93596599Y-100238664D01*
X93604905Y-100154340D01*
X93605758Y-100151527D01*
X93606689Y-100142672D01*
X93633132Y-100061288D01*
X93656143Y-99985433D01*
X93660315Y-99977626D01*
X93664896Y-99963530D01*
X93704712Y-99894565D01*
X93739348Y-99829767D01*
X93748710Y-99818359D01*
X93759076Y-99800405D01*
X93808416Y-99745607D01*
X93851324Y-99693324D01*
X93867291Y-99680219D01*
X93885113Y-99660427D01*
X93940002Y-99620546D01*
X93987767Y-99581348D01*
X94011180Y-99568833D01*
X94037500Y-99549711D01*
X94094109Y-99524506D01*
X94143433Y-99498143D01*
X94174471Y-99488727D01*
X94209576Y-99473098D01*
X94264430Y-99461438D01*
X94312340Y-99446905D01*
X94350476Y-99443148D01*
X94393820Y-99433936D01*
X94444016Y-99433936D01*
X94488000Y-99429604D01*
X94531983Y-99433936D01*
G37*
G36*
X159569517Y-98212882D02*
G01*
X159586062Y-98223938D01*
X159597118Y-98240483D01*
X159601000Y-98260000D01*
X159601000Y-99860000D01*
X159597118Y-99879517D01*
X159586062Y-99896062D01*
X159569517Y-99907118D01*
X159550000Y-99911000D01*
X157950000Y-99911000D01*
X157930483Y-99907118D01*
X157913938Y-99896062D01*
X157902882Y-99879517D01*
X157899000Y-99860000D01*
X157899000Y-98260000D01*
X157902882Y-98240483D01*
X157913938Y-98223938D01*
X157930483Y-98212882D01*
X157950000Y-98209000D01*
X159550000Y-98209000D01*
X159569517Y-98212882D01*
G37*
G36*
X91991983Y-96893936D02*
G01*
X92042180Y-96893936D01*
X92085524Y-96903149D01*
X92123659Y-96906905D01*
X92171566Y-96921437D01*
X92226424Y-96933098D01*
X92261530Y-96948728D01*
X92292566Y-96958143D01*
X92341884Y-96984504D01*
X92398500Y-97009711D01*
X92424822Y-97028835D01*
X92448232Y-97041348D01*
X92495988Y-97080540D01*
X92550887Y-97120427D01*
X92568711Y-97140223D01*
X92584675Y-97153324D01*
X92627572Y-97205594D01*
X92676924Y-97260405D01*
X92687292Y-97278363D01*
X92696651Y-97289767D01*
X92731273Y-97354542D01*
X92771104Y-97423530D01*
X92775685Y-97437630D01*
X92779856Y-97445433D01*
X92802852Y-97521242D01*
X92829311Y-97602672D01*
X92830242Y-97611532D01*
X92831094Y-97614340D01*
X92839384Y-97698513D01*
X92849000Y-97790000D01*
X92839383Y-97881494D01*
X92831094Y-97965659D01*
X92830242Y-97968466D01*
X92829311Y-97977328D01*
X92802848Y-98058771D01*
X92779856Y-98134566D01*
X92775686Y-98142366D01*
X92771104Y-98156470D01*
X92731266Y-98225470D01*
X92696651Y-98290232D01*
X92687294Y-98301633D01*
X92676924Y-98319595D01*
X92627563Y-98374415D01*
X92584675Y-98426675D01*
X92568714Y-98439773D01*
X92550887Y-98459573D01*
X92495977Y-98499467D01*
X92448232Y-98538651D01*
X92424827Y-98551161D01*
X92398500Y-98570289D01*
X92341873Y-98595500D01*
X92292566Y-98621856D01*
X92261537Y-98631268D01*
X92226424Y-98646902D01*
X92171555Y-98658564D01*
X92123659Y-98673094D01*
X92085532Y-98676849D01*
X92042180Y-98686064D01*
X91991973Y-98686064D01*
X91948000Y-98690395D01*
X91904027Y-98686064D01*
X91853820Y-98686064D01*
X91810467Y-98676849D01*
X91772340Y-98673094D01*
X91724441Y-98658563D01*
X91669576Y-98646902D01*
X91634464Y-98631269D01*
X91603433Y-98621856D01*
X91554120Y-98595498D01*
X91497500Y-98570289D01*
X91471175Y-98551163D01*
X91447767Y-98538651D01*
X91400013Y-98499460D01*
X91345113Y-98459573D01*
X91327287Y-98439776D01*
X91311324Y-98426675D01*
X91268425Y-98374402D01*
X91219076Y-98319595D01*
X91208708Y-98301637D01*
X91199348Y-98290232D01*
X91164719Y-98225447D01*
X91124896Y-98156470D01*
X91120315Y-98142371D01*
X91116143Y-98134566D01*
X91093136Y-98058725D01*
X91066689Y-97977328D01*
X91065758Y-97968471D01*
X91064905Y-97965659D01*
X91056600Y-97881342D01*
X91047000Y-97790000D01*
X91056599Y-97698664D01*
X91064905Y-97614340D01*
X91065758Y-97611527D01*
X91066689Y-97602672D01*
X91093132Y-97521288D01*
X91116143Y-97445433D01*
X91120315Y-97437626D01*
X91124896Y-97423530D01*
X91164712Y-97354565D01*
X91199348Y-97289767D01*
X91208710Y-97278359D01*
X91219076Y-97260405D01*
X91268416Y-97205607D01*
X91311324Y-97153324D01*
X91327291Y-97140219D01*
X91345113Y-97120427D01*
X91400002Y-97080546D01*
X91447767Y-97041348D01*
X91471180Y-97028833D01*
X91497500Y-97009711D01*
X91554109Y-96984506D01*
X91603433Y-96958143D01*
X91634471Y-96948727D01*
X91669576Y-96933098D01*
X91724430Y-96921438D01*
X91772340Y-96906905D01*
X91810476Y-96903148D01*
X91853820Y-96893936D01*
X91904016Y-96893936D01*
X91948000Y-96889604D01*
X91991983Y-96893936D01*
G37*
G36*
X94531983Y-96893936D02*
G01*
X94582180Y-96893936D01*
X94625524Y-96903149D01*
X94663659Y-96906905D01*
X94711566Y-96921437D01*
X94766424Y-96933098D01*
X94801530Y-96948728D01*
X94832566Y-96958143D01*
X94881884Y-96984504D01*
X94938500Y-97009711D01*
X94964822Y-97028835D01*
X94988232Y-97041348D01*
X95035988Y-97080540D01*
X95090887Y-97120427D01*
X95108711Y-97140223D01*
X95124675Y-97153324D01*
X95167572Y-97205594D01*
X95216924Y-97260405D01*
X95227292Y-97278363D01*
X95236651Y-97289767D01*
X95271273Y-97354542D01*
X95311104Y-97423530D01*
X95315685Y-97437630D01*
X95319856Y-97445433D01*
X95342852Y-97521242D01*
X95369311Y-97602672D01*
X95370242Y-97611532D01*
X95371094Y-97614340D01*
X95379384Y-97698513D01*
X95389000Y-97790000D01*
X95379383Y-97881494D01*
X95371094Y-97965659D01*
X95370242Y-97968466D01*
X95369311Y-97977328D01*
X95342848Y-98058771D01*
X95319856Y-98134566D01*
X95315686Y-98142366D01*
X95311104Y-98156470D01*
X95271266Y-98225470D01*
X95236651Y-98290232D01*
X95227294Y-98301633D01*
X95216924Y-98319595D01*
X95167563Y-98374415D01*
X95124675Y-98426675D01*
X95108714Y-98439773D01*
X95090887Y-98459573D01*
X95035977Y-98499467D01*
X94988232Y-98538651D01*
X94964827Y-98551161D01*
X94938500Y-98570289D01*
X94881873Y-98595500D01*
X94832566Y-98621856D01*
X94801537Y-98631268D01*
X94766424Y-98646902D01*
X94711555Y-98658564D01*
X94663659Y-98673094D01*
X94625532Y-98676849D01*
X94582180Y-98686064D01*
X94531973Y-98686064D01*
X94488000Y-98690395D01*
X94444027Y-98686064D01*
X94393820Y-98686064D01*
X94350467Y-98676849D01*
X94312340Y-98673094D01*
X94264441Y-98658563D01*
X94209576Y-98646902D01*
X94174464Y-98631269D01*
X94143433Y-98621856D01*
X94094120Y-98595498D01*
X94037500Y-98570289D01*
X94011175Y-98551163D01*
X93987767Y-98538651D01*
X93940013Y-98499460D01*
X93885113Y-98459573D01*
X93867287Y-98439776D01*
X93851324Y-98426675D01*
X93808425Y-98374402D01*
X93759076Y-98319595D01*
X93748708Y-98301637D01*
X93739348Y-98290232D01*
X93704719Y-98225447D01*
X93664896Y-98156470D01*
X93660315Y-98142371D01*
X93656143Y-98134566D01*
X93633136Y-98058725D01*
X93606689Y-97977328D01*
X93605758Y-97968471D01*
X93604905Y-97965659D01*
X93596600Y-97881342D01*
X93587000Y-97790000D01*
X93596599Y-97698664D01*
X93604905Y-97614340D01*
X93605758Y-97611527D01*
X93606689Y-97602672D01*
X93633132Y-97521288D01*
X93656143Y-97445433D01*
X93660315Y-97437626D01*
X93664896Y-97423530D01*
X93704712Y-97354565D01*
X93739348Y-97289767D01*
X93748710Y-97278359D01*
X93759076Y-97260405D01*
X93808416Y-97205607D01*
X93851324Y-97153324D01*
X93867291Y-97140219D01*
X93885113Y-97120427D01*
X93940002Y-97080546D01*
X93987767Y-97041348D01*
X94011180Y-97028833D01*
X94037500Y-97009711D01*
X94094109Y-96984506D01*
X94143433Y-96958143D01*
X94174471Y-96948727D01*
X94209576Y-96933098D01*
X94264430Y-96921438D01*
X94312340Y-96906905D01*
X94350476Y-96903148D01*
X94393820Y-96893936D01*
X94444016Y-96893936D01*
X94488000Y-96889604D01*
X94531983Y-96893936D01*
G37*
G36*
X158791199Y-95713662D02*
G01*
X158838954Y-95713662D01*
X158880194Y-95722427D01*
X158915901Y-95725945D01*
X158960759Y-95739552D01*
X159012973Y-95750651D01*
X159046384Y-95765526D01*
X159075435Y-95774339D01*
X159121602Y-95799015D01*
X159175500Y-95823012D01*
X159200554Y-95841215D01*
X159222453Y-95852920D01*
X159267128Y-95889584D01*
X159319430Y-95927584D01*
X159336411Y-95946443D01*
X159351320Y-95958679D01*
X159391387Y-96007501D01*
X159438473Y-96059795D01*
X159448364Y-96076927D01*
X159457079Y-96087546D01*
X159489306Y-96147840D01*
X159527427Y-96213867D01*
X159531813Y-96227368D01*
X159535660Y-96234564D01*
X159556861Y-96304455D01*
X159582404Y-96383067D01*
X159583303Y-96391623D01*
X159584054Y-96394098D01*
X159591371Y-96468389D01*
X159601000Y-96560000D01*
X159591370Y-96651619D01*
X159584054Y-96725901D01*
X159583303Y-96728375D01*
X159582404Y-96736933D01*
X159556856Y-96815558D01*
X159535660Y-96885435D01*
X159531814Y-96892629D01*
X159527427Y-96906133D01*
X159489299Y-96972172D01*
X159457079Y-97032453D01*
X159448366Y-97043069D01*
X159438473Y-97060205D01*
X159391378Y-97112509D01*
X159351320Y-97161320D01*
X159336414Y-97173552D01*
X159319430Y-97192416D01*
X159267118Y-97230423D01*
X159222453Y-97267079D01*
X159200559Y-97278780D01*
X159175500Y-97296988D01*
X159121591Y-97320989D01*
X159075435Y-97345660D01*
X159046391Y-97354470D01*
X159012973Y-97369349D01*
X158960748Y-97380449D01*
X158915901Y-97394054D01*
X158880203Y-97397570D01*
X158838954Y-97406338D01*
X158791188Y-97406338D01*
X158750000Y-97410395D01*
X158708811Y-97406338D01*
X158661046Y-97406338D01*
X158619797Y-97397570D01*
X158584098Y-97394054D01*
X158539248Y-97380448D01*
X158487027Y-97369349D01*
X158453610Y-97354471D01*
X158424564Y-97345660D01*
X158378402Y-97320986D01*
X158324500Y-97296988D01*
X158299443Y-97278783D01*
X158277546Y-97267079D01*
X158232873Y-97230416D01*
X158180570Y-97192416D01*
X158163588Y-97173555D01*
X158148679Y-97161320D01*
X158108610Y-97112496D01*
X158061527Y-97060205D01*
X158051636Y-97043073D01*
X158042920Y-97032453D01*
X158010687Y-96972148D01*
X157972573Y-96906133D01*
X157968186Y-96892634D01*
X157964339Y-96885435D01*
X157943128Y-96815512D01*
X157917596Y-96736933D01*
X157916697Y-96728380D01*
X157915945Y-96725901D01*
X157908613Y-96651467D01*
X157899000Y-96560000D01*
X157908612Y-96468540D01*
X157915945Y-96394098D01*
X157916697Y-96391618D01*
X157917596Y-96383067D01*
X157943123Y-96304502D01*
X157964339Y-96234564D01*
X157968187Y-96227363D01*
X157972573Y-96213867D01*
X158010680Y-96147863D01*
X158042920Y-96087546D01*
X158051638Y-96076923D01*
X158061527Y-96059795D01*
X158108601Y-96007513D01*
X158148679Y-95958679D01*
X158163591Y-95946440D01*
X158180570Y-95927584D01*
X158232862Y-95889591D01*
X158277546Y-95852920D01*
X158299448Y-95841213D01*
X158324500Y-95823012D01*
X158378391Y-95799018D01*
X158424564Y-95774339D01*
X158453617Y-95765525D01*
X158487027Y-95750651D01*
X158539237Y-95739553D01*
X158584098Y-95725945D01*
X158619806Y-95722427D01*
X158661046Y-95713662D01*
X158708801Y-95713662D01*
X158750000Y-95709604D01*
X158791199Y-95713662D01*
G37*
G36*
X91991983Y-94353936D02*
G01*
X92042180Y-94353936D01*
X92085524Y-94363149D01*
X92123659Y-94366905D01*
X92171566Y-94381437D01*
X92226424Y-94393098D01*
X92261530Y-94408728D01*
X92292566Y-94418143D01*
X92341884Y-94444504D01*
X92398500Y-94469711D01*
X92424822Y-94488835D01*
X92448232Y-94501348D01*
X92495988Y-94540540D01*
X92550887Y-94580427D01*
X92568711Y-94600223D01*
X92584675Y-94613324D01*
X92627572Y-94665594D01*
X92676924Y-94720405D01*
X92687292Y-94738363D01*
X92696651Y-94749767D01*
X92731273Y-94814542D01*
X92771104Y-94883530D01*
X92775685Y-94897630D01*
X92779856Y-94905433D01*
X92802852Y-94981242D01*
X92829311Y-95062672D01*
X92830242Y-95071532D01*
X92831094Y-95074340D01*
X92839384Y-95158513D01*
X92849000Y-95250000D01*
X92839383Y-95341494D01*
X92831094Y-95425659D01*
X92830242Y-95428466D01*
X92829311Y-95437328D01*
X92802848Y-95518771D01*
X92779856Y-95594566D01*
X92775686Y-95602366D01*
X92771104Y-95616470D01*
X92731266Y-95685470D01*
X92696651Y-95750232D01*
X92687294Y-95761633D01*
X92676924Y-95779595D01*
X92627563Y-95834415D01*
X92584675Y-95886675D01*
X92568714Y-95899773D01*
X92550887Y-95919573D01*
X92495977Y-95959467D01*
X92448232Y-95998651D01*
X92424827Y-96011161D01*
X92398500Y-96030289D01*
X92341873Y-96055500D01*
X92292566Y-96081856D01*
X92261537Y-96091268D01*
X92226424Y-96106902D01*
X92171555Y-96118564D01*
X92123659Y-96133094D01*
X92085532Y-96136849D01*
X92042180Y-96146064D01*
X91991973Y-96146064D01*
X91948000Y-96150395D01*
X91904027Y-96146064D01*
X91853820Y-96146064D01*
X91810467Y-96136849D01*
X91772340Y-96133094D01*
X91724441Y-96118563D01*
X91669576Y-96106902D01*
X91634464Y-96091269D01*
X91603433Y-96081856D01*
X91554120Y-96055498D01*
X91497500Y-96030289D01*
X91471175Y-96011163D01*
X91447767Y-95998651D01*
X91400013Y-95959460D01*
X91345113Y-95919573D01*
X91327287Y-95899776D01*
X91311324Y-95886675D01*
X91268425Y-95834402D01*
X91219076Y-95779595D01*
X91208708Y-95761637D01*
X91199348Y-95750232D01*
X91164719Y-95685447D01*
X91124896Y-95616470D01*
X91120315Y-95602371D01*
X91116143Y-95594566D01*
X91093136Y-95518725D01*
X91066689Y-95437328D01*
X91065758Y-95428471D01*
X91064905Y-95425659D01*
X91056600Y-95341342D01*
X91047000Y-95250000D01*
X91056599Y-95158664D01*
X91064905Y-95074340D01*
X91065758Y-95071527D01*
X91066689Y-95062672D01*
X91093132Y-94981288D01*
X91116143Y-94905433D01*
X91120315Y-94897626D01*
X91124896Y-94883530D01*
X91164712Y-94814565D01*
X91199348Y-94749767D01*
X91208710Y-94738359D01*
X91219076Y-94720405D01*
X91268416Y-94665607D01*
X91311324Y-94613324D01*
X91327291Y-94600219D01*
X91345113Y-94580427D01*
X91400002Y-94540546D01*
X91447767Y-94501348D01*
X91471180Y-94488833D01*
X91497500Y-94469711D01*
X91554109Y-94444506D01*
X91603433Y-94418143D01*
X91634471Y-94408727D01*
X91669576Y-94393098D01*
X91724430Y-94381438D01*
X91772340Y-94366905D01*
X91810476Y-94363148D01*
X91853820Y-94353936D01*
X91904016Y-94353936D01*
X91948000Y-94349604D01*
X91991983Y-94353936D01*
G37*
G36*
X94531983Y-94353936D02*
G01*
X94582180Y-94353936D01*
X94625524Y-94363149D01*
X94663659Y-94366905D01*
X94711566Y-94381437D01*
X94766424Y-94393098D01*
X94801530Y-94408728D01*
X94832566Y-94418143D01*
X94881884Y-94444504D01*
X94938500Y-94469711D01*
X94964822Y-94488835D01*
X94988232Y-94501348D01*
X95035988Y-94540540D01*
X95090887Y-94580427D01*
X95108711Y-94600223D01*
X95124675Y-94613324D01*
X95167572Y-94665594D01*
X95216924Y-94720405D01*
X95227292Y-94738363D01*
X95236651Y-94749767D01*
X95271273Y-94814542D01*
X95311104Y-94883530D01*
X95315685Y-94897630D01*
X95319856Y-94905433D01*
X95342852Y-94981242D01*
X95369311Y-95062672D01*
X95370242Y-95071532D01*
X95371094Y-95074340D01*
X95379384Y-95158513D01*
X95389000Y-95250000D01*
X95379383Y-95341494D01*
X95371094Y-95425659D01*
X95370242Y-95428466D01*
X95369311Y-95437328D01*
X95342848Y-95518771D01*
X95319856Y-95594566D01*
X95315686Y-95602366D01*
X95311104Y-95616470D01*
X95271266Y-95685470D01*
X95236651Y-95750232D01*
X95227294Y-95761633D01*
X95216924Y-95779595D01*
X95167563Y-95834415D01*
X95124675Y-95886675D01*
X95108714Y-95899773D01*
X95090887Y-95919573D01*
X95035977Y-95959467D01*
X94988232Y-95998651D01*
X94964827Y-96011161D01*
X94938500Y-96030289D01*
X94881873Y-96055500D01*
X94832566Y-96081856D01*
X94801537Y-96091268D01*
X94766424Y-96106902D01*
X94711555Y-96118564D01*
X94663659Y-96133094D01*
X94625532Y-96136849D01*
X94582180Y-96146064D01*
X94531973Y-96146064D01*
X94488000Y-96150395D01*
X94444027Y-96146064D01*
X94393820Y-96146064D01*
X94350467Y-96136849D01*
X94312340Y-96133094D01*
X94264441Y-96118563D01*
X94209576Y-96106902D01*
X94174464Y-96091269D01*
X94143433Y-96081856D01*
X94094120Y-96055498D01*
X94037500Y-96030289D01*
X94011175Y-96011163D01*
X93987767Y-95998651D01*
X93940013Y-95959460D01*
X93885113Y-95919573D01*
X93867287Y-95899776D01*
X93851324Y-95886675D01*
X93808425Y-95834402D01*
X93759076Y-95779595D01*
X93748708Y-95761637D01*
X93739348Y-95750232D01*
X93704719Y-95685447D01*
X93664896Y-95616470D01*
X93660315Y-95602371D01*
X93656143Y-95594566D01*
X93633136Y-95518725D01*
X93606689Y-95437328D01*
X93605758Y-95428471D01*
X93604905Y-95425659D01*
X93596600Y-95341342D01*
X93587000Y-95250000D01*
X93596599Y-95158664D01*
X93604905Y-95074340D01*
X93605758Y-95071527D01*
X93606689Y-95062672D01*
X93633132Y-94981288D01*
X93656143Y-94905433D01*
X93660315Y-94897626D01*
X93664896Y-94883530D01*
X93704712Y-94814565D01*
X93739348Y-94749767D01*
X93748710Y-94738359D01*
X93759076Y-94720405D01*
X93808416Y-94665607D01*
X93851324Y-94613324D01*
X93867291Y-94600219D01*
X93885113Y-94580427D01*
X93940002Y-94540546D01*
X93987767Y-94501348D01*
X94011180Y-94488833D01*
X94037500Y-94469711D01*
X94094109Y-94444506D01*
X94143433Y-94418143D01*
X94174471Y-94408727D01*
X94209576Y-94393098D01*
X94264430Y-94381438D01*
X94312340Y-94366905D01*
X94350476Y-94363148D01*
X94393820Y-94353936D01*
X94444016Y-94353936D01*
X94488000Y-94349604D01*
X94531983Y-94353936D01*
G37*
G36*
X158791199Y-93713662D02*
G01*
X158838954Y-93713662D01*
X158880194Y-93722427D01*
X158915901Y-93725945D01*
X158960759Y-93739552D01*
X159012973Y-93750651D01*
X159046384Y-93765526D01*
X159075435Y-93774339D01*
X159121602Y-93799015D01*
X159175500Y-93823012D01*
X159200554Y-93841215D01*
X159222453Y-93852920D01*
X159267128Y-93889584D01*
X159319430Y-93927584D01*
X159336411Y-93946443D01*
X159351320Y-93958679D01*
X159391387Y-94007501D01*
X159438473Y-94059795D01*
X159448364Y-94076927D01*
X159457079Y-94087546D01*
X159489306Y-94147840D01*
X159527427Y-94213867D01*
X159531813Y-94227368D01*
X159535660Y-94234564D01*
X159556861Y-94304455D01*
X159582404Y-94383067D01*
X159583303Y-94391623D01*
X159584054Y-94394098D01*
X159591371Y-94468389D01*
X159601000Y-94560000D01*
X159591370Y-94651619D01*
X159584054Y-94725901D01*
X159583303Y-94728375D01*
X159582404Y-94736933D01*
X159556856Y-94815558D01*
X159535660Y-94885435D01*
X159531814Y-94892629D01*
X159527427Y-94906133D01*
X159489299Y-94972172D01*
X159457079Y-95032453D01*
X159448366Y-95043069D01*
X159438473Y-95060205D01*
X159391378Y-95112509D01*
X159351320Y-95161320D01*
X159336414Y-95173552D01*
X159319430Y-95192416D01*
X159267118Y-95230423D01*
X159222453Y-95267079D01*
X159200559Y-95278780D01*
X159175500Y-95296988D01*
X159121591Y-95320989D01*
X159075435Y-95345660D01*
X159046391Y-95354470D01*
X159012973Y-95369349D01*
X158960748Y-95380449D01*
X158915901Y-95394054D01*
X158880203Y-95397570D01*
X158838954Y-95406338D01*
X158791188Y-95406338D01*
X158750000Y-95410395D01*
X158708811Y-95406338D01*
X158661046Y-95406338D01*
X158619797Y-95397570D01*
X158584098Y-95394054D01*
X158539248Y-95380448D01*
X158487027Y-95369349D01*
X158453610Y-95354471D01*
X158424564Y-95345660D01*
X158378402Y-95320986D01*
X158324500Y-95296988D01*
X158299443Y-95278783D01*
X158277546Y-95267079D01*
X158232873Y-95230416D01*
X158180570Y-95192416D01*
X158163588Y-95173555D01*
X158148679Y-95161320D01*
X158108610Y-95112496D01*
X158061527Y-95060205D01*
X158051636Y-95043073D01*
X158042920Y-95032453D01*
X158010687Y-94972148D01*
X157972573Y-94906133D01*
X157968186Y-94892634D01*
X157964339Y-94885435D01*
X157943128Y-94815512D01*
X157917596Y-94736933D01*
X157916697Y-94728380D01*
X157915945Y-94725901D01*
X157908613Y-94651467D01*
X157899000Y-94560000D01*
X157908612Y-94468540D01*
X157915945Y-94394098D01*
X157916697Y-94391618D01*
X157917596Y-94383067D01*
X157943123Y-94304502D01*
X157964339Y-94234564D01*
X157968187Y-94227363D01*
X157972573Y-94213867D01*
X158010680Y-94147863D01*
X158042920Y-94087546D01*
X158051638Y-94076923D01*
X158061527Y-94059795D01*
X158108601Y-94007513D01*
X158148679Y-93958679D01*
X158163591Y-93946440D01*
X158180570Y-93927584D01*
X158232862Y-93889591D01*
X158277546Y-93852920D01*
X158299448Y-93841213D01*
X158324500Y-93823012D01*
X158378391Y-93799018D01*
X158424564Y-93774339D01*
X158453617Y-93765525D01*
X158487027Y-93750651D01*
X158539237Y-93739553D01*
X158584098Y-93725945D01*
X158619806Y-93722427D01*
X158661046Y-93713662D01*
X158708801Y-93713662D01*
X158750000Y-93709604D01*
X158791199Y-93713662D01*
G37*
G36*
X91991983Y-91813936D02*
G01*
X92042180Y-91813936D01*
X92085524Y-91823149D01*
X92123659Y-91826905D01*
X92171566Y-91841437D01*
X92226424Y-91853098D01*
X92261530Y-91868728D01*
X92292566Y-91878143D01*
X92341884Y-91904504D01*
X92398500Y-91929711D01*
X92424822Y-91948835D01*
X92448232Y-91961348D01*
X92495988Y-92000540D01*
X92550887Y-92040427D01*
X92568711Y-92060223D01*
X92584675Y-92073324D01*
X92627572Y-92125594D01*
X92676924Y-92180405D01*
X92687292Y-92198363D01*
X92696651Y-92209767D01*
X92731273Y-92274542D01*
X92771104Y-92343530D01*
X92775685Y-92357630D01*
X92779856Y-92365433D01*
X92802852Y-92441242D01*
X92829311Y-92522672D01*
X92830242Y-92531532D01*
X92831094Y-92534340D01*
X92839384Y-92618513D01*
X92849000Y-92710000D01*
X92839383Y-92801494D01*
X92831094Y-92885659D01*
X92830242Y-92888466D01*
X92829311Y-92897328D01*
X92802848Y-92978771D01*
X92779856Y-93054566D01*
X92775686Y-93062366D01*
X92771104Y-93076470D01*
X92731266Y-93145470D01*
X92696651Y-93210232D01*
X92687294Y-93221633D01*
X92676924Y-93239595D01*
X92627563Y-93294415D01*
X92584675Y-93346675D01*
X92568714Y-93359773D01*
X92550887Y-93379573D01*
X92495977Y-93419467D01*
X92448232Y-93458651D01*
X92424827Y-93471161D01*
X92398500Y-93490289D01*
X92341873Y-93515500D01*
X92292566Y-93541856D01*
X92261537Y-93551268D01*
X92226424Y-93566902D01*
X92171555Y-93578564D01*
X92123659Y-93593094D01*
X92085532Y-93596849D01*
X92042180Y-93606064D01*
X91991973Y-93606064D01*
X91948000Y-93610395D01*
X91904027Y-93606064D01*
X91853820Y-93606064D01*
X91810467Y-93596849D01*
X91772340Y-93593094D01*
X91724441Y-93578563D01*
X91669576Y-93566902D01*
X91634464Y-93551269D01*
X91603433Y-93541856D01*
X91554120Y-93515498D01*
X91497500Y-93490289D01*
X91471175Y-93471163D01*
X91447767Y-93458651D01*
X91400013Y-93419460D01*
X91345113Y-93379573D01*
X91327287Y-93359776D01*
X91311324Y-93346675D01*
X91268425Y-93294402D01*
X91219076Y-93239595D01*
X91208708Y-93221637D01*
X91199348Y-93210232D01*
X91164719Y-93145447D01*
X91124896Y-93076470D01*
X91120315Y-93062371D01*
X91116143Y-93054566D01*
X91093136Y-92978725D01*
X91066689Y-92897328D01*
X91065758Y-92888471D01*
X91064905Y-92885659D01*
X91056600Y-92801342D01*
X91047000Y-92710000D01*
X91056599Y-92618664D01*
X91064905Y-92534340D01*
X91065758Y-92531527D01*
X91066689Y-92522672D01*
X91093132Y-92441288D01*
X91116143Y-92365433D01*
X91120315Y-92357626D01*
X91124896Y-92343530D01*
X91164712Y-92274565D01*
X91199348Y-92209767D01*
X91208710Y-92198359D01*
X91219076Y-92180405D01*
X91268416Y-92125607D01*
X91311324Y-92073324D01*
X91327291Y-92060219D01*
X91345113Y-92040427D01*
X91400002Y-92000546D01*
X91447767Y-91961348D01*
X91471180Y-91948833D01*
X91497500Y-91929711D01*
X91554109Y-91904506D01*
X91603433Y-91878143D01*
X91634471Y-91868727D01*
X91669576Y-91853098D01*
X91724430Y-91841438D01*
X91772340Y-91826905D01*
X91810476Y-91823148D01*
X91853820Y-91813936D01*
X91904016Y-91813936D01*
X91948000Y-91809604D01*
X91991983Y-91813936D01*
G37*
G36*
X94531983Y-91813936D02*
G01*
X94582180Y-91813936D01*
X94625524Y-91823149D01*
X94663659Y-91826905D01*
X94711566Y-91841437D01*
X94766424Y-91853098D01*
X94801530Y-91868728D01*
X94832566Y-91878143D01*
X94881884Y-91904504D01*
X94938500Y-91929711D01*
X94964822Y-91948835D01*
X94988232Y-91961348D01*
X95035988Y-92000540D01*
X95090887Y-92040427D01*
X95108711Y-92060223D01*
X95124675Y-92073324D01*
X95167572Y-92125594D01*
X95216924Y-92180405D01*
X95227292Y-92198363D01*
X95236651Y-92209767D01*
X95271273Y-92274542D01*
X95311104Y-92343530D01*
X95315685Y-92357630D01*
X95319856Y-92365433D01*
X95342852Y-92441242D01*
X95369311Y-92522672D01*
X95370242Y-92531532D01*
X95371094Y-92534340D01*
X95379384Y-92618513D01*
X95389000Y-92710000D01*
X95379383Y-92801494D01*
X95371094Y-92885659D01*
X95370242Y-92888466D01*
X95369311Y-92897328D01*
X95342848Y-92978771D01*
X95319856Y-93054566D01*
X95315686Y-93062366D01*
X95311104Y-93076470D01*
X95271266Y-93145470D01*
X95236651Y-93210232D01*
X95227294Y-93221633D01*
X95216924Y-93239595D01*
X95167563Y-93294415D01*
X95124675Y-93346675D01*
X95108714Y-93359773D01*
X95090887Y-93379573D01*
X95035977Y-93419467D01*
X94988232Y-93458651D01*
X94964827Y-93471161D01*
X94938500Y-93490289D01*
X94881873Y-93515500D01*
X94832566Y-93541856D01*
X94801537Y-93551268D01*
X94766424Y-93566902D01*
X94711555Y-93578564D01*
X94663659Y-93593094D01*
X94625532Y-93596849D01*
X94582180Y-93606064D01*
X94531973Y-93606064D01*
X94488000Y-93610395D01*
X94444027Y-93606064D01*
X94393820Y-93606064D01*
X94350467Y-93596849D01*
X94312340Y-93593094D01*
X94264441Y-93578563D01*
X94209576Y-93566902D01*
X94174464Y-93551269D01*
X94143433Y-93541856D01*
X94094120Y-93515498D01*
X94037500Y-93490289D01*
X94011175Y-93471163D01*
X93987767Y-93458651D01*
X93940013Y-93419460D01*
X93885113Y-93379573D01*
X93867287Y-93359776D01*
X93851324Y-93346675D01*
X93808425Y-93294402D01*
X93759076Y-93239595D01*
X93748708Y-93221637D01*
X93739348Y-93210232D01*
X93704719Y-93145447D01*
X93664896Y-93076470D01*
X93660315Y-93062371D01*
X93656143Y-93054566D01*
X93633136Y-92978725D01*
X93606689Y-92897328D01*
X93605758Y-92888471D01*
X93604905Y-92885659D01*
X93596600Y-92801342D01*
X93587000Y-92710000D01*
X93596599Y-92618664D01*
X93604905Y-92534340D01*
X93605758Y-92531527D01*
X93606689Y-92522672D01*
X93633132Y-92441288D01*
X93656143Y-92365433D01*
X93660315Y-92357626D01*
X93664896Y-92343530D01*
X93704712Y-92274565D01*
X93739348Y-92209767D01*
X93748710Y-92198359D01*
X93759076Y-92180405D01*
X93808416Y-92125607D01*
X93851324Y-92073324D01*
X93867291Y-92060219D01*
X93885113Y-92040427D01*
X93940002Y-92000546D01*
X93987767Y-91961348D01*
X94011180Y-91948833D01*
X94037500Y-91929711D01*
X94094109Y-91904506D01*
X94143433Y-91878143D01*
X94174471Y-91868727D01*
X94209576Y-91853098D01*
X94264430Y-91841438D01*
X94312340Y-91826905D01*
X94350476Y-91823148D01*
X94393820Y-91813936D01*
X94444016Y-91813936D01*
X94488000Y-91809604D01*
X94531983Y-91813936D01*
G37*
G36*
X158791199Y-91213662D02*
G01*
X158838954Y-91213662D01*
X158880194Y-91222427D01*
X158915901Y-91225945D01*
X158960759Y-91239552D01*
X159012973Y-91250651D01*
X159046384Y-91265526D01*
X159075435Y-91274339D01*
X159121602Y-91299015D01*
X159175500Y-91323012D01*
X159200554Y-91341215D01*
X159222453Y-91352920D01*
X159267128Y-91389584D01*
X159319430Y-91427584D01*
X159336411Y-91446443D01*
X159351320Y-91458679D01*
X159391387Y-91507501D01*
X159438473Y-91559795D01*
X159448364Y-91576927D01*
X159457079Y-91587546D01*
X159489306Y-91647840D01*
X159527427Y-91713867D01*
X159531813Y-91727368D01*
X159535660Y-91734564D01*
X159556861Y-91804455D01*
X159582404Y-91883067D01*
X159583303Y-91891623D01*
X159584054Y-91894098D01*
X159591371Y-91968389D01*
X159601000Y-92060000D01*
X159591370Y-92151619D01*
X159584054Y-92225901D01*
X159583303Y-92228375D01*
X159582404Y-92236933D01*
X159556856Y-92315558D01*
X159535660Y-92385435D01*
X159531814Y-92392629D01*
X159527427Y-92406133D01*
X159489299Y-92472172D01*
X159457079Y-92532453D01*
X159448366Y-92543069D01*
X159438473Y-92560205D01*
X159391378Y-92612509D01*
X159351320Y-92661320D01*
X159336414Y-92673552D01*
X159319430Y-92692416D01*
X159267118Y-92730423D01*
X159222453Y-92767079D01*
X159200559Y-92778780D01*
X159175500Y-92796988D01*
X159121591Y-92820989D01*
X159075435Y-92845660D01*
X159046391Y-92854470D01*
X159012973Y-92869349D01*
X158960748Y-92880449D01*
X158915901Y-92894054D01*
X158880203Y-92897570D01*
X158838954Y-92906338D01*
X158791188Y-92906338D01*
X158750000Y-92910395D01*
X158708811Y-92906338D01*
X158661046Y-92906338D01*
X158619797Y-92897570D01*
X158584098Y-92894054D01*
X158539248Y-92880448D01*
X158487027Y-92869349D01*
X158453610Y-92854471D01*
X158424564Y-92845660D01*
X158378402Y-92820986D01*
X158324500Y-92796988D01*
X158299443Y-92778783D01*
X158277546Y-92767079D01*
X158232873Y-92730416D01*
X158180570Y-92692416D01*
X158163588Y-92673555D01*
X158148679Y-92661320D01*
X158108610Y-92612496D01*
X158061527Y-92560205D01*
X158051636Y-92543073D01*
X158042920Y-92532453D01*
X158010687Y-92472148D01*
X157972573Y-92406133D01*
X157968186Y-92392634D01*
X157964339Y-92385435D01*
X157943128Y-92315512D01*
X157917596Y-92236933D01*
X157916697Y-92228380D01*
X157915945Y-92225901D01*
X157908613Y-92151467D01*
X157899000Y-92060000D01*
X157908612Y-91968540D01*
X157915945Y-91894098D01*
X157916697Y-91891618D01*
X157917596Y-91883067D01*
X157943123Y-91804502D01*
X157964339Y-91734564D01*
X157968187Y-91727363D01*
X157972573Y-91713867D01*
X158010680Y-91647863D01*
X158042920Y-91587546D01*
X158051638Y-91576923D01*
X158061527Y-91559795D01*
X158108601Y-91507513D01*
X158148679Y-91458679D01*
X158163591Y-91446440D01*
X158180570Y-91427584D01*
X158232862Y-91389591D01*
X158277546Y-91352920D01*
X158299448Y-91341213D01*
X158324500Y-91323012D01*
X158378391Y-91299018D01*
X158424564Y-91274339D01*
X158453617Y-91265525D01*
X158487027Y-91250651D01*
X158539237Y-91239553D01*
X158584098Y-91225945D01*
X158619806Y-91222427D01*
X158661046Y-91213662D01*
X158708801Y-91213662D01*
X158750000Y-91209604D01*
X158791199Y-91213662D01*
G37*
G36*
X91991983Y-89273936D02*
G01*
X92042180Y-89273936D01*
X92085524Y-89283149D01*
X92123659Y-89286905D01*
X92171566Y-89301437D01*
X92226424Y-89313098D01*
X92261530Y-89328728D01*
X92292566Y-89338143D01*
X92341884Y-89364504D01*
X92398500Y-89389711D01*
X92424822Y-89408835D01*
X92448232Y-89421348D01*
X92495988Y-89460540D01*
X92550887Y-89500427D01*
X92568711Y-89520223D01*
X92584675Y-89533324D01*
X92627572Y-89585594D01*
X92676924Y-89640405D01*
X92687292Y-89658363D01*
X92696651Y-89669767D01*
X92731273Y-89734542D01*
X92771104Y-89803530D01*
X92775685Y-89817630D01*
X92779856Y-89825433D01*
X92802852Y-89901242D01*
X92829311Y-89982672D01*
X92830242Y-89991532D01*
X92831094Y-89994340D01*
X92839384Y-90078513D01*
X92849000Y-90170000D01*
X92839383Y-90261494D01*
X92831094Y-90345659D01*
X92830242Y-90348466D01*
X92829311Y-90357328D01*
X92802848Y-90438771D01*
X92779856Y-90514566D01*
X92775686Y-90522366D01*
X92771104Y-90536470D01*
X92731266Y-90605470D01*
X92696651Y-90670232D01*
X92687294Y-90681633D01*
X92676924Y-90699595D01*
X92627563Y-90754415D01*
X92584675Y-90806675D01*
X92568714Y-90819773D01*
X92550887Y-90839573D01*
X92495977Y-90879467D01*
X92448232Y-90918651D01*
X92424827Y-90931161D01*
X92398500Y-90950289D01*
X92341873Y-90975500D01*
X92292566Y-91001856D01*
X92261537Y-91011268D01*
X92226424Y-91026902D01*
X92171555Y-91038564D01*
X92123659Y-91053094D01*
X92085532Y-91056849D01*
X92042180Y-91066064D01*
X91991973Y-91066064D01*
X91948000Y-91070395D01*
X91904027Y-91066064D01*
X91853820Y-91066064D01*
X91810467Y-91056849D01*
X91772340Y-91053094D01*
X91724441Y-91038563D01*
X91669576Y-91026902D01*
X91634464Y-91011269D01*
X91603433Y-91001856D01*
X91554120Y-90975498D01*
X91497500Y-90950289D01*
X91471175Y-90931163D01*
X91447767Y-90918651D01*
X91400013Y-90879460D01*
X91345113Y-90839573D01*
X91327287Y-90819776D01*
X91311324Y-90806675D01*
X91268425Y-90754402D01*
X91219076Y-90699595D01*
X91208708Y-90681637D01*
X91199348Y-90670232D01*
X91164719Y-90605447D01*
X91124896Y-90536470D01*
X91120315Y-90522371D01*
X91116143Y-90514566D01*
X91093136Y-90438725D01*
X91066689Y-90357328D01*
X91065758Y-90348471D01*
X91064905Y-90345659D01*
X91056600Y-90261342D01*
X91047000Y-90170000D01*
X91056599Y-90078664D01*
X91064905Y-89994340D01*
X91065758Y-89991527D01*
X91066689Y-89982672D01*
X91093132Y-89901288D01*
X91116143Y-89825433D01*
X91120315Y-89817626D01*
X91124896Y-89803530D01*
X91164712Y-89734565D01*
X91199348Y-89669767D01*
X91208710Y-89658359D01*
X91219076Y-89640405D01*
X91268416Y-89585607D01*
X91311324Y-89533324D01*
X91327291Y-89520219D01*
X91345113Y-89500427D01*
X91400002Y-89460546D01*
X91447767Y-89421348D01*
X91471180Y-89408833D01*
X91497500Y-89389711D01*
X91554109Y-89364506D01*
X91603433Y-89338143D01*
X91634471Y-89328727D01*
X91669576Y-89313098D01*
X91724430Y-89301438D01*
X91772340Y-89286905D01*
X91810476Y-89283148D01*
X91853820Y-89273936D01*
X91904016Y-89273936D01*
X91948000Y-89269604D01*
X91991983Y-89273936D01*
G37*
G36*
X94531983Y-89273936D02*
G01*
X94582180Y-89273936D01*
X94625524Y-89283149D01*
X94663659Y-89286905D01*
X94711566Y-89301437D01*
X94766424Y-89313098D01*
X94801530Y-89328728D01*
X94832566Y-89338143D01*
X94881884Y-89364504D01*
X94938500Y-89389711D01*
X94964822Y-89408835D01*
X94988232Y-89421348D01*
X95035988Y-89460540D01*
X95090887Y-89500427D01*
X95108711Y-89520223D01*
X95124675Y-89533324D01*
X95167572Y-89585594D01*
X95216924Y-89640405D01*
X95227292Y-89658363D01*
X95236651Y-89669767D01*
X95271273Y-89734542D01*
X95311104Y-89803530D01*
X95315685Y-89817630D01*
X95319856Y-89825433D01*
X95342852Y-89901242D01*
X95369311Y-89982672D01*
X95370242Y-89991532D01*
X95371094Y-89994340D01*
X95379384Y-90078513D01*
X95389000Y-90170000D01*
X95379383Y-90261494D01*
X95371094Y-90345659D01*
X95370242Y-90348466D01*
X95369311Y-90357328D01*
X95342848Y-90438771D01*
X95319856Y-90514566D01*
X95315686Y-90522366D01*
X95311104Y-90536470D01*
X95271266Y-90605470D01*
X95236651Y-90670232D01*
X95227294Y-90681633D01*
X95216924Y-90699595D01*
X95167563Y-90754415D01*
X95124675Y-90806675D01*
X95108714Y-90819773D01*
X95090887Y-90839573D01*
X95035977Y-90879467D01*
X94988232Y-90918651D01*
X94964827Y-90931161D01*
X94938500Y-90950289D01*
X94881873Y-90975500D01*
X94832566Y-91001856D01*
X94801537Y-91011268D01*
X94766424Y-91026902D01*
X94711555Y-91038564D01*
X94663659Y-91053094D01*
X94625532Y-91056849D01*
X94582180Y-91066064D01*
X94531973Y-91066064D01*
X94488000Y-91070395D01*
X94444027Y-91066064D01*
X94393820Y-91066064D01*
X94350467Y-91056849D01*
X94312340Y-91053094D01*
X94264441Y-91038563D01*
X94209576Y-91026902D01*
X94174464Y-91011269D01*
X94143433Y-91001856D01*
X94094120Y-90975498D01*
X94037500Y-90950289D01*
X94011175Y-90931163D01*
X93987767Y-90918651D01*
X93940013Y-90879460D01*
X93885113Y-90839573D01*
X93867287Y-90819776D01*
X93851324Y-90806675D01*
X93808425Y-90754402D01*
X93759076Y-90699595D01*
X93748708Y-90681637D01*
X93739348Y-90670232D01*
X93704719Y-90605447D01*
X93664896Y-90536470D01*
X93660315Y-90522371D01*
X93656143Y-90514566D01*
X93633136Y-90438725D01*
X93606689Y-90357328D01*
X93605758Y-90348471D01*
X93604905Y-90345659D01*
X93596600Y-90261342D01*
X93587000Y-90170000D01*
X93596599Y-90078664D01*
X93604905Y-89994340D01*
X93605758Y-89991527D01*
X93606689Y-89982672D01*
X93633132Y-89901288D01*
X93656143Y-89825433D01*
X93660315Y-89817626D01*
X93664896Y-89803530D01*
X93704712Y-89734565D01*
X93739348Y-89669767D01*
X93748710Y-89658359D01*
X93759076Y-89640405D01*
X93808416Y-89585607D01*
X93851324Y-89533324D01*
X93867291Y-89520219D01*
X93885113Y-89500427D01*
X93940002Y-89460546D01*
X93987767Y-89421348D01*
X94011180Y-89408833D01*
X94037500Y-89389711D01*
X94094109Y-89364506D01*
X94143433Y-89338143D01*
X94174471Y-89328727D01*
X94209576Y-89313098D01*
X94264430Y-89301438D01*
X94312340Y-89286905D01*
X94350476Y-89283148D01*
X94393820Y-89273936D01*
X94444016Y-89273936D01*
X94488000Y-89269604D01*
X94531983Y-89273936D01*
G37*
G36*
X161519543Y-87443686D02*
G01*
X161575880Y-87443686D01*
X161637437Y-87452964D01*
X161702630Y-87458095D01*
X161755181Y-87470711D01*
X161805050Y-87478228D01*
X161870215Y-87498328D01*
X161939285Y-87514911D01*
X161983943Y-87533409D01*
X162026519Y-87546542D01*
X162093365Y-87578733D01*
X162164139Y-87608049D01*
X162200466Y-87630310D01*
X162235322Y-87647096D01*
X162301620Y-87692297D01*
X162371655Y-87735215D01*
X162399700Y-87759167D01*
X162426813Y-87777653D01*
X162490119Y-87836392D01*
X162556723Y-87893277D01*
X162576946Y-87916956D01*
X162596706Y-87935290D01*
X162654478Y-88007734D01*
X162714785Y-88078345D01*
X162728048Y-88099988D01*
X162741206Y-88116488D01*
X162790834Y-88202447D01*
X162841951Y-88285861D01*
X162849458Y-88303984D01*
X162857088Y-88317200D01*
X162895994Y-88416331D01*
X162935089Y-88510715D01*
X162938322Y-88524184D01*
X162941757Y-88532935D01*
X162967473Y-88645604D01*
X162991905Y-88747370D01*
X162992538Y-88755423D01*
X162993330Y-88758890D01*
X163003656Y-88896692D01*
X163011000Y-88990000D01*
X163003656Y-89083315D01*
X162993330Y-89221109D01*
X162992538Y-89224574D01*
X162991905Y-89232630D01*
X162967468Y-89334414D01*
X162941757Y-89447064D01*
X162938323Y-89455812D01*
X162935089Y-89469285D01*
X162895986Y-89563686D01*
X162857088Y-89662799D01*
X162849459Y-89676011D01*
X162841951Y-89694139D01*
X162790824Y-89777569D01*
X162741206Y-89863511D01*
X162728050Y-89880007D01*
X162714785Y-89901655D01*
X162654466Y-89972279D01*
X162596706Y-90044709D01*
X162576951Y-90063038D01*
X162556723Y-90086723D01*
X162490105Y-90143618D01*
X162426813Y-90202346D01*
X162399706Y-90220827D01*
X162371655Y-90244785D01*
X162301606Y-90287710D01*
X162235322Y-90332903D01*
X162200474Y-90349684D01*
X162164139Y-90371951D01*
X162093350Y-90401272D01*
X162026519Y-90433457D01*
X161983952Y-90446586D01*
X161939285Y-90465089D01*
X161870200Y-90481674D01*
X161805050Y-90501771D01*
X161755189Y-90509286D01*
X161702630Y-90521905D01*
X161637433Y-90527035D01*
X161575880Y-90536314D01*
X161519543Y-90536314D01*
X161460000Y-90541000D01*
X161400457Y-90536314D01*
X161344120Y-90536314D01*
X161282565Y-90527035D01*
X161217370Y-90521905D01*
X161164811Y-90509286D01*
X161114949Y-90501771D01*
X161049796Y-90481673D01*
X160980715Y-90465089D01*
X160936047Y-90446587D01*
X160893481Y-90433457D01*
X160826646Y-90401271D01*
X160755861Y-90371951D01*
X160719528Y-90349686D01*
X160684675Y-90332902D01*
X160618377Y-90287700D01*
X160548345Y-90244785D01*
X160520301Y-90220833D01*
X160493188Y-90202348D01*
X160429880Y-90143607D01*
X160363277Y-90086723D01*
X160343052Y-90063043D01*
X160323293Y-90044709D01*
X160265518Y-89972261D01*
X160205215Y-89901655D01*
X160191952Y-89880012D01*
X160178793Y-89863511D01*
X160129157Y-89777540D01*
X160078049Y-89694139D01*
X160070542Y-89676017D01*
X160062911Y-89662799D01*
X160023994Y-89563640D01*
X159984911Y-89469285D01*
X159981678Y-89455819D01*
X159978242Y-89447064D01*
X159952511Y-89334329D01*
X159928095Y-89232630D01*
X159927461Y-89224581D01*
X159926669Y-89221109D01*
X159916323Y-89083050D01*
X159909000Y-88990000D01*
X159916322Y-88896957D01*
X159926669Y-88758890D01*
X159927461Y-88755416D01*
X159928095Y-88747370D01*
X159952506Y-88645689D01*
X159978242Y-88532935D01*
X159981678Y-88524178D01*
X159984911Y-88510715D01*
X160023986Y-88416377D01*
X160062911Y-88317200D01*
X160070544Y-88303978D01*
X160078049Y-88285861D01*
X160129147Y-88202475D01*
X160178793Y-88116488D01*
X160191955Y-88099983D01*
X160205215Y-88078345D01*
X160265506Y-88007752D01*
X160323293Y-87935290D01*
X160343056Y-87916951D01*
X160363277Y-87893277D01*
X160429866Y-87836404D01*
X160493188Y-87777651D01*
X160520307Y-87759161D01*
X160548345Y-87735215D01*
X160618362Y-87692308D01*
X160684675Y-87647097D01*
X160719536Y-87630308D01*
X160755861Y-87608049D01*
X160826632Y-87578734D01*
X160893481Y-87546542D01*
X160936057Y-87533408D01*
X160980715Y-87514911D01*
X161049781Y-87498329D01*
X161114949Y-87478228D01*
X161164820Y-87470711D01*
X161217370Y-87458095D01*
X161282561Y-87452964D01*
X161344120Y-87443686D01*
X161400457Y-87443686D01*
X161460000Y-87439000D01*
X161519543Y-87443686D01*
G37*
G36*
X91991983Y-86733936D02*
G01*
X92042180Y-86733936D01*
X92085524Y-86743149D01*
X92123659Y-86746905D01*
X92171566Y-86761437D01*
X92226424Y-86773098D01*
X92261530Y-86788728D01*
X92292566Y-86798143D01*
X92341884Y-86824504D01*
X92398500Y-86849711D01*
X92424822Y-86868835D01*
X92448232Y-86881348D01*
X92495988Y-86920540D01*
X92550887Y-86960427D01*
X92568711Y-86980223D01*
X92584675Y-86993324D01*
X92627572Y-87045594D01*
X92676924Y-87100405D01*
X92687292Y-87118363D01*
X92696651Y-87129767D01*
X92731273Y-87194542D01*
X92771104Y-87263530D01*
X92775685Y-87277630D01*
X92779856Y-87285433D01*
X92802852Y-87361242D01*
X92829311Y-87442672D01*
X92830242Y-87451532D01*
X92831094Y-87454340D01*
X92839384Y-87538513D01*
X92849000Y-87630000D01*
X92839383Y-87721494D01*
X92831094Y-87805659D01*
X92830242Y-87808466D01*
X92829311Y-87817328D01*
X92802848Y-87898771D01*
X92779856Y-87974566D01*
X92775686Y-87982366D01*
X92771104Y-87996470D01*
X92731266Y-88065470D01*
X92696651Y-88130232D01*
X92687294Y-88141633D01*
X92676924Y-88159595D01*
X92627563Y-88214415D01*
X92584675Y-88266675D01*
X92568714Y-88279773D01*
X92550887Y-88299573D01*
X92495977Y-88339467D01*
X92448232Y-88378651D01*
X92424827Y-88391161D01*
X92398500Y-88410289D01*
X92341873Y-88435500D01*
X92292566Y-88461856D01*
X92261537Y-88471268D01*
X92226424Y-88486902D01*
X92171555Y-88498564D01*
X92123659Y-88513094D01*
X92085532Y-88516849D01*
X92042180Y-88526064D01*
X91991973Y-88526064D01*
X91948000Y-88530395D01*
X91904027Y-88526064D01*
X91853820Y-88526064D01*
X91810467Y-88516849D01*
X91772340Y-88513094D01*
X91724441Y-88498563D01*
X91669576Y-88486902D01*
X91634464Y-88471269D01*
X91603433Y-88461856D01*
X91554120Y-88435498D01*
X91497500Y-88410289D01*
X91471175Y-88391163D01*
X91447767Y-88378651D01*
X91400013Y-88339460D01*
X91345113Y-88299573D01*
X91327287Y-88279776D01*
X91311324Y-88266675D01*
X91268425Y-88214402D01*
X91219076Y-88159595D01*
X91208708Y-88141637D01*
X91199348Y-88130232D01*
X91164719Y-88065447D01*
X91124896Y-87996470D01*
X91120315Y-87982371D01*
X91116143Y-87974566D01*
X91093136Y-87898725D01*
X91066689Y-87817328D01*
X91065758Y-87808471D01*
X91064905Y-87805659D01*
X91056600Y-87721342D01*
X91047000Y-87630000D01*
X91056599Y-87538664D01*
X91064905Y-87454340D01*
X91065758Y-87451527D01*
X91066689Y-87442672D01*
X91093132Y-87361288D01*
X91116143Y-87285433D01*
X91120315Y-87277626D01*
X91124896Y-87263530D01*
X91164712Y-87194565D01*
X91199348Y-87129767D01*
X91208710Y-87118359D01*
X91219076Y-87100405D01*
X91268416Y-87045607D01*
X91311324Y-86993324D01*
X91327291Y-86980219D01*
X91345113Y-86960427D01*
X91400002Y-86920546D01*
X91447767Y-86881348D01*
X91471180Y-86868833D01*
X91497500Y-86849711D01*
X91554109Y-86824506D01*
X91603433Y-86798143D01*
X91634471Y-86788727D01*
X91669576Y-86773098D01*
X91724430Y-86761438D01*
X91772340Y-86746905D01*
X91810476Y-86743148D01*
X91853820Y-86733936D01*
X91904016Y-86733936D01*
X91948000Y-86729604D01*
X91991983Y-86733936D01*
G37*
G36*
X94531983Y-86733936D02*
G01*
X94582180Y-86733936D01*
X94625524Y-86743149D01*
X94663659Y-86746905D01*
X94711566Y-86761437D01*
X94766424Y-86773098D01*
X94801530Y-86788728D01*
X94832566Y-86798143D01*
X94881884Y-86824504D01*
X94938500Y-86849711D01*
X94964822Y-86868835D01*
X94988232Y-86881348D01*
X95035988Y-86920540D01*
X95090887Y-86960427D01*
X95108711Y-86980223D01*
X95124675Y-86993324D01*
X95167572Y-87045594D01*
X95216924Y-87100405D01*
X95227292Y-87118363D01*
X95236651Y-87129767D01*
X95271273Y-87194542D01*
X95311104Y-87263530D01*
X95315685Y-87277630D01*
X95319856Y-87285433D01*
X95342852Y-87361242D01*
X95369311Y-87442672D01*
X95370242Y-87451532D01*
X95371094Y-87454340D01*
X95379384Y-87538513D01*
X95389000Y-87630000D01*
X95379383Y-87721494D01*
X95371094Y-87805659D01*
X95370242Y-87808466D01*
X95369311Y-87817328D01*
X95342848Y-87898771D01*
X95319856Y-87974566D01*
X95315686Y-87982366D01*
X95311104Y-87996470D01*
X95271266Y-88065470D01*
X95236651Y-88130232D01*
X95227294Y-88141633D01*
X95216924Y-88159595D01*
X95167563Y-88214415D01*
X95124675Y-88266675D01*
X95108714Y-88279773D01*
X95090887Y-88299573D01*
X95035977Y-88339467D01*
X94988232Y-88378651D01*
X94964827Y-88391161D01*
X94938500Y-88410289D01*
X94881873Y-88435500D01*
X94832566Y-88461856D01*
X94801537Y-88471268D01*
X94766424Y-88486902D01*
X94711555Y-88498564D01*
X94663659Y-88513094D01*
X94625532Y-88516849D01*
X94582180Y-88526064D01*
X94531973Y-88526064D01*
X94488000Y-88530395D01*
X94444027Y-88526064D01*
X94393820Y-88526064D01*
X94350467Y-88516849D01*
X94312340Y-88513094D01*
X94264441Y-88498563D01*
X94209576Y-88486902D01*
X94174464Y-88471269D01*
X94143433Y-88461856D01*
X94094120Y-88435498D01*
X94037500Y-88410289D01*
X94011175Y-88391163D01*
X93987767Y-88378651D01*
X93940013Y-88339460D01*
X93885113Y-88299573D01*
X93867287Y-88279776D01*
X93851324Y-88266675D01*
X93808425Y-88214402D01*
X93759076Y-88159595D01*
X93748708Y-88141637D01*
X93739348Y-88130232D01*
X93704719Y-88065447D01*
X93664896Y-87996470D01*
X93660315Y-87982371D01*
X93656143Y-87974566D01*
X93633136Y-87898725D01*
X93606689Y-87817328D01*
X93605758Y-87808471D01*
X93604905Y-87805659D01*
X93596600Y-87721342D01*
X93587000Y-87630000D01*
X93596599Y-87538664D01*
X93604905Y-87454340D01*
X93605758Y-87451527D01*
X93606689Y-87442672D01*
X93633132Y-87361288D01*
X93656143Y-87285433D01*
X93660315Y-87277626D01*
X93664896Y-87263530D01*
X93704712Y-87194565D01*
X93739348Y-87129767D01*
X93748710Y-87118359D01*
X93759076Y-87100405D01*
X93808416Y-87045607D01*
X93851324Y-86993324D01*
X93867291Y-86980219D01*
X93885113Y-86960427D01*
X93940002Y-86920546D01*
X93987767Y-86881348D01*
X94011180Y-86868833D01*
X94037500Y-86849711D01*
X94094109Y-86824506D01*
X94143433Y-86798143D01*
X94174471Y-86788727D01*
X94209576Y-86773098D01*
X94264430Y-86761438D01*
X94312340Y-86746905D01*
X94350476Y-86743148D01*
X94393820Y-86733936D01*
X94444016Y-86733936D01*
X94488000Y-86729604D01*
X94531983Y-86733936D01*
G37*
G36*
X91991983Y-84193936D02*
G01*
X92042180Y-84193936D01*
X92085524Y-84203149D01*
X92123659Y-84206905D01*
X92171566Y-84221437D01*
X92226424Y-84233098D01*
X92261530Y-84248728D01*
X92292566Y-84258143D01*
X92341884Y-84284504D01*
X92398500Y-84309711D01*
X92424822Y-84328835D01*
X92448232Y-84341348D01*
X92495988Y-84380540D01*
X92550887Y-84420427D01*
X92568711Y-84440223D01*
X92584675Y-84453324D01*
X92627572Y-84505594D01*
X92676924Y-84560405D01*
X92687292Y-84578363D01*
X92696651Y-84589767D01*
X92731273Y-84654542D01*
X92771104Y-84723530D01*
X92775685Y-84737630D01*
X92779856Y-84745433D01*
X92802852Y-84821242D01*
X92829311Y-84902672D01*
X92830242Y-84911532D01*
X92831094Y-84914340D01*
X92839384Y-84998513D01*
X92849000Y-85090000D01*
X92839383Y-85181494D01*
X92831094Y-85265659D01*
X92830242Y-85268466D01*
X92829311Y-85277328D01*
X92802848Y-85358771D01*
X92779856Y-85434566D01*
X92775686Y-85442366D01*
X92771104Y-85456470D01*
X92731266Y-85525470D01*
X92696651Y-85590232D01*
X92687294Y-85601633D01*
X92676924Y-85619595D01*
X92627563Y-85674415D01*
X92584675Y-85726675D01*
X92568714Y-85739773D01*
X92550887Y-85759573D01*
X92495977Y-85799467D01*
X92448232Y-85838651D01*
X92424827Y-85851161D01*
X92398500Y-85870289D01*
X92341873Y-85895500D01*
X92292566Y-85921856D01*
X92261537Y-85931268D01*
X92226424Y-85946902D01*
X92171555Y-85958564D01*
X92123659Y-85973094D01*
X92085532Y-85976849D01*
X92042180Y-85986064D01*
X91991973Y-85986064D01*
X91948000Y-85990395D01*
X91904027Y-85986064D01*
X91853820Y-85986064D01*
X91810467Y-85976849D01*
X91772340Y-85973094D01*
X91724441Y-85958563D01*
X91669576Y-85946902D01*
X91634464Y-85931269D01*
X91603433Y-85921856D01*
X91554120Y-85895498D01*
X91497500Y-85870289D01*
X91471175Y-85851163D01*
X91447767Y-85838651D01*
X91400013Y-85799460D01*
X91345113Y-85759573D01*
X91327287Y-85739776D01*
X91311324Y-85726675D01*
X91268425Y-85674402D01*
X91219076Y-85619595D01*
X91208708Y-85601637D01*
X91199348Y-85590232D01*
X91164719Y-85525447D01*
X91124896Y-85456470D01*
X91120315Y-85442371D01*
X91116143Y-85434566D01*
X91093136Y-85358725D01*
X91066689Y-85277328D01*
X91065758Y-85268471D01*
X91064905Y-85265659D01*
X91056600Y-85181342D01*
X91047000Y-85090000D01*
X91056599Y-84998664D01*
X91064905Y-84914340D01*
X91065758Y-84911527D01*
X91066689Y-84902672D01*
X91093132Y-84821288D01*
X91116143Y-84745433D01*
X91120315Y-84737626D01*
X91124896Y-84723530D01*
X91164712Y-84654565D01*
X91199348Y-84589767D01*
X91208710Y-84578359D01*
X91219076Y-84560405D01*
X91268416Y-84505607D01*
X91311324Y-84453324D01*
X91327291Y-84440219D01*
X91345113Y-84420427D01*
X91400002Y-84380546D01*
X91447767Y-84341348D01*
X91471180Y-84328833D01*
X91497500Y-84309711D01*
X91554109Y-84284506D01*
X91603433Y-84258143D01*
X91634471Y-84248727D01*
X91669576Y-84233098D01*
X91724430Y-84221438D01*
X91772340Y-84206905D01*
X91810476Y-84203148D01*
X91853820Y-84193936D01*
X91904016Y-84193936D01*
X91948000Y-84189604D01*
X91991983Y-84193936D01*
G37*
G36*
X94531983Y-84193936D02*
G01*
X94582180Y-84193936D01*
X94625524Y-84203149D01*
X94663659Y-84206905D01*
X94711566Y-84221437D01*
X94766424Y-84233098D01*
X94801530Y-84248728D01*
X94832566Y-84258143D01*
X94881884Y-84284504D01*
X94938500Y-84309711D01*
X94964822Y-84328835D01*
X94988232Y-84341348D01*
X95035988Y-84380540D01*
X95090887Y-84420427D01*
X95108711Y-84440223D01*
X95124675Y-84453324D01*
X95167572Y-84505594D01*
X95216924Y-84560405D01*
X95227292Y-84578363D01*
X95236651Y-84589767D01*
X95271273Y-84654542D01*
X95311104Y-84723530D01*
X95315685Y-84737630D01*
X95319856Y-84745433D01*
X95342852Y-84821242D01*
X95369311Y-84902672D01*
X95370242Y-84911532D01*
X95371094Y-84914340D01*
X95379384Y-84998513D01*
X95389000Y-85090000D01*
X95379383Y-85181494D01*
X95371094Y-85265659D01*
X95370242Y-85268466D01*
X95369311Y-85277328D01*
X95342848Y-85358771D01*
X95319856Y-85434566D01*
X95315686Y-85442366D01*
X95311104Y-85456470D01*
X95271266Y-85525470D01*
X95236651Y-85590232D01*
X95227294Y-85601633D01*
X95216924Y-85619595D01*
X95167563Y-85674415D01*
X95124675Y-85726675D01*
X95108714Y-85739773D01*
X95090887Y-85759573D01*
X95035977Y-85799467D01*
X94988232Y-85838651D01*
X94964827Y-85851161D01*
X94938500Y-85870289D01*
X94881873Y-85895500D01*
X94832566Y-85921856D01*
X94801537Y-85931268D01*
X94766424Y-85946902D01*
X94711555Y-85958564D01*
X94663659Y-85973094D01*
X94625532Y-85976849D01*
X94582180Y-85986064D01*
X94531973Y-85986064D01*
X94488000Y-85990395D01*
X94444027Y-85986064D01*
X94393820Y-85986064D01*
X94350467Y-85976849D01*
X94312340Y-85973094D01*
X94264441Y-85958563D01*
X94209576Y-85946902D01*
X94174464Y-85931269D01*
X94143433Y-85921856D01*
X94094120Y-85895498D01*
X94037500Y-85870289D01*
X94011175Y-85851163D01*
X93987767Y-85838651D01*
X93940013Y-85799460D01*
X93885113Y-85759573D01*
X93867287Y-85739776D01*
X93851324Y-85726675D01*
X93808425Y-85674402D01*
X93759076Y-85619595D01*
X93748708Y-85601637D01*
X93739348Y-85590232D01*
X93704719Y-85525447D01*
X93664896Y-85456470D01*
X93660315Y-85442371D01*
X93656143Y-85434566D01*
X93633136Y-85358725D01*
X93606689Y-85277328D01*
X93605758Y-85268471D01*
X93604905Y-85265659D01*
X93596600Y-85181342D01*
X93587000Y-85090000D01*
X93596599Y-84998664D01*
X93604905Y-84914340D01*
X93605758Y-84911527D01*
X93606689Y-84902672D01*
X93633132Y-84821288D01*
X93656143Y-84745433D01*
X93660315Y-84737626D01*
X93664896Y-84723530D01*
X93704712Y-84654565D01*
X93739348Y-84589767D01*
X93748710Y-84578359D01*
X93759076Y-84560405D01*
X93808416Y-84505607D01*
X93851324Y-84453324D01*
X93867291Y-84440219D01*
X93885113Y-84420427D01*
X93940002Y-84380546D01*
X93987767Y-84341348D01*
X94011180Y-84328833D01*
X94037500Y-84309711D01*
X94094109Y-84284506D01*
X94143433Y-84258143D01*
X94174471Y-84248727D01*
X94209576Y-84233098D01*
X94264430Y-84221438D01*
X94312340Y-84206905D01*
X94350476Y-84203148D01*
X94393820Y-84193936D01*
X94444016Y-84193936D01*
X94488000Y-84189604D01*
X94531983Y-84193936D01*
G37*
G36*
X91991983Y-81653936D02*
G01*
X92042180Y-81653936D01*
X92085524Y-81663149D01*
X92123659Y-81666905D01*
X92171566Y-81681437D01*
X92226424Y-81693098D01*
X92261530Y-81708728D01*
X92292566Y-81718143D01*
X92341884Y-81744504D01*
X92398500Y-81769711D01*
X92424822Y-81788835D01*
X92448232Y-81801348D01*
X92495988Y-81840540D01*
X92550887Y-81880427D01*
X92568711Y-81900223D01*
X92584675Y-81913324D01*
X92627572Y-81965594D01*
X92676924Y-82020405D01*
X92687292Y-82038363D01*
X92696651Y-82049767D01*
X92731273Y-82114542D01*
X92771104Y-82183530D01*
X92775685Y-82197630D01*
X92779856Y-82205433D01*
X92802852Y-82281242D01*
X92829311Y-82362672D01*
X92830242Y-82371532D01*
X92831094Y-82374340D01*
X92839384Y-82458513D01*
X92849000Y-82550000D01*
X92839383Y-82641494D01*
X92831094Y-82725659D01*
X92830242Y-82728466D01*
X92829311Y-82737328D01*
X92802848Y-82818771D01*
X92779856Y-82894566D01*
X92775686Y-82902366D01*
X92771104Y-82916470D01*
X92731266Y-82985470D01*
X92696651Y-83050232D01*
X92687294Y-83061633D01*
X92676924Y-83079595D01*
X92627563Y-83134415D01*
X92584675Y-83186675D01*
X92568714Y-83199773D01*
X92550887Y-83219573D01*
X92495977Y-83259467D01*
X92448232Y-83298651D01*
X92424827Y-83311161D01*
X92398500Y-83330289D01*
X92341873Y-83355500D01*
X92292566Y-83381856D01*
X92261537Y-83391268D01*
X92226424Y-83406902D01*
X92171555Y-83418564D01*
X92123659Y-83433094D01*
X92085532Y-83436849D01*
X92042180Y-83446064D01*
X91991973Y-83446064D01*
X91948000Y-83450395D01*
X91904027Y-83446064D01*
X91853820Y-83446064D01*
X91810467Y-83436849D01*
X91772340Y-83433094D01*
X91724441Y-83418563D01*
X91669576Y-83406902D01*
X91634464Y-83391269D01*
X91603433Y-83381856D01*
X91554120Y-83355498D01*
X91497500Y-83330289D01*
X91471175Y-83311163D01*
X91447767Y-83298651D01*
X91400013Y-83259460D01*
X91345113Y-83219573D01*
X91327287Y-83199776D01*
X91311324Y-83186675D01*
X91268425Y-83134402D01*
X91219076Y-83079595D01*
X91208708Y-83061637D01*
X91199348Y-83050232D01*
X91164719Y-82985447D01*
X91124896Y-82916470D01*
X91120315Y-82902371D01*
X91116143Y-82894566D01*
X91093136Y-82818725D01*
X91066689Y-82737328D01*
X91065758Y-82728471D01*
X91064905Y-82725659D01*
X91056600Y-82641342D01*
X91047000Y-82550000D01*
X91056599Y-82458664D01*
X91064905Y-82374340D01*
X91065758Y-82371527D01*
X91066689Y-82362672D01*
X91093132Y-82281288D01*
X91116143Y-82205433D01*
X91120315Y-82197626D01*
X91124896Y-82183530D01*
X91164712Y-82114565D01*
X91199348Y-82049767D01*
X91208710Y-82038359D01*
X91219076Y-82020405D01*
X91268416Y-81965607D01*
X91311324Y-81913324D01*
X91327291Y-81900219D01*
X91345113Y-81880427D01*
X91400002Y-81840546D01*
X91447767Y-81801348D01*
X91471180Y-81788833D01*
X91497500Y-81769711D01*
X91554109Y-81744506D01*
X91603433Y-81718143D01*
X91634471Y-81708727D01*
X91669576Y-81693098D01*
X91724430Y-81681438D01*
X91772340Y-81666905D01*
X91810476Y-81663148D01*
X91853820Y-81653936D01*
X91904016Y-81653936D01*
X91948000Y-81649604D01*
X91991983Y-81653936D01*
G37*
G36*
X94531983Y-81653936D02*
G01*
X94582180Y-81653936D01*
X94625524Y-81663149D01*
X94663659Y-81666905D01*
X94711566Y-81681437D01*
X94766424Y-81693098D01*
X94801530Y-81708728D01*
X94832566Y-81718143D01*
X94881884Y-81744504D01*
X94938500Y-81769711D01*
X94964822Y-81788835D01*
X94988232Y-81801348D01*
X95035988Y-81840540D01*
X95090887Y-81880427D01*
X95108711Y-81900223D01*
X95124675Y-81913324D01*
X95167572Y-81965594D01*
X95216924Y-82020405D01*
X95227292Y-82038363D01*
X95236651Y-82049767D01*
X95271273Y-82114542D01*
X95311104Y-82183530D01*
X95315685Y-82197630D01*
X95319856Y-82205433D01*
X95342852Y-82281242D01*
X95369311Y-82362672D01*
X95370242Y-82371532D01*
X95371094Y-82374340D01*
X95379384Y-82458513D01*
X95389000Y-82550000D01*
X95379383Y-82641494D01*
X95371094Y-82725659D01*
X95370242Y-82728466D01*
X95369311Y-82737328D01*
X95342848Y-82818771D01*
X95319856Y-82894566D01*
X95315686Y-82902366D01*
X95311104Y-82916470D01*
X95271266Y-82985470D01*
X95236651Y-83050232D01*
X95227294Y-83061633D01*
X95216924Y-83079595D01*
X95167563Y-83134415D01*
X95124675Y-83186675D01*
X95108714Y-83199773D01*
X95090887Y-83219573D01*
X95035977Y-83259467D01*
X94988232Y-83298651D01*
X94964827Y-83311161D01*
X94938500Y-83330289D01*
X94881873Y-83355500D01*
X94832566Y-83381856D01*
X94801537Y-83391268D01*
X94766424Y-83406902D01*
X94711555Y-83418564D01*
X94663659Y-83433094D01*
X94625532Y-83436849D01*
X94582180Y-83446064D01*
X94531973Y-83446064D01*
X94488000Y-83450395D01*
X94444027Y-83446064D01*
X94393820Y-83446064D01*
X94350467Y-83436849D01*
X94312340Y-83433094D01*
X94264441Y-83418563D01*
X94209576Y-83406902D01*
X94174464Y-83391269D01*
X94143433Y-83381856D01*
X94094120Y-83355498D01*
X94037500Y-83330289D01*
X94011175Y-83311163D01*
X93987767Y-83298651D01*
X93940013Y-83259460D01*
X93885113Y-83219573D01*
X93867287Y-83199776D01*
X93851324Y-83186675D01*
X93808425Y-83134402D01*
X93759076Y-83079595D01*
X93748708Y-83061637D01*
X93739348Y-83050232D01*
X93704719Y-82985447D01*
X93664896Y-82916470D01*
X93660315Y-82902371D01*
X93656143Y-82894566D01*
X93633136Y-82818725D01*
X93606689Y-82737328D01*
X93605758Y-82728471D01*
X93604905Y-82725659D01*
X93596600Y-82641342D01*
X93587000Y-82550000D01*
X93596599Y-82458664D01*
X93604905Y-82374340D01*
X93605758Y-82371527D01*
X93606689Y-82362672D01*
X93633132Y-82281288D01*
X93656143Y-82205433D01*
X93660315Y-82197626D01*
X93664896Y-82183530D01*
X93704712Y-82114565D01*
X93739348Y-82049767D01*
X93748710Y-82038359D01*
X93759076Y-82020405D01*
X93808416Y-81965607D01*
X93851324Y-81913324D01*
X93867291Y-81900219D01*
X93885113Y-81880427D01*
X93940002Y-81840546D01*
X93987767Y-81801348D01*
X94011180Y-81788833D01*
X94037500Y-81769711D01*
X94094109Y-81744506D01*
X94143433Y-81718143D01*
X94174471Y-81708727D01*
X94209576Y-81693098D01*
X94264430Y-81681438D01*
X94312340Y-81666905D01*
X94350476Y-81663148D01*
X94393820Y-81653936D01*
X94444016Y-81653936D01*
X94488000Y-81649604D01*
X94531983Y-81653936D01*
G37*
G36*
X169194517Y-80967882D02*
G01*
X169211062Y-80978938D01*
X169222118Y-80995483D01*
X169226000Y-81015000D01*
X169226000Y-82815000D01*
X169222118Y-82834517D01*
X169211062Y-82851062D01*
X169194517Y-82862118D01*
X169175000Y-82866000D01*
X167375000Y-82866000D01*
X167355483Y-82862118D01*
X167338938Y-82851062D01*
X167327882Y-82834517D01*
X167324000Y-82815000D01*
X167324000Y-81015000D01*
X167327882Y-80995483D01*
X167338938Y-80978938D01*
X167355483Y-80967882D01*
X167375000Y-80964000D01*
X169175000Y-80964000D01*
X169194517Y-80967882D01*
G37*
G36*
X91991983Y-79113936D02*
G01*
X92042180Y-79113936D01*
X92085524Y-79123149D01*
X92123659Y-79126905D01*
X92171566Y-79141437D01*
X92226424Y-79153098D01*
X92261530Y-79168728D01*
X92292566Y-79178143D01*
X92341884Y-79204504D01*
X92398500Y-79229711D01*
X92424822Y-79248835D01*
X92448232Y-79261348D01*
X92495988Y-79300540D01*
X92550887Y-79340427D01*
X92568711Y-79360223D01*
X92584675Y-79373324D01*
X92627572Y-79425594D01*
X92676924Y-79480405D01*
X92687292Y-79498363D01*
X92696651Y-79509767D01*
X92731273Y-79574542D01*
X92771104Y-79643530D01*
X92775685Y-79657630D01*
X92779856Y-79665433D01*
X92802852Y-79741242D01*
X92829311Y-79822672D01*
X92830242Y-79831532D01*
X92831094Y-79834340D01*
X92839384Y-79918513D01*
X92849000Y-80010000D01*
X92839383Y-80101494D01*
X92831094Y-80185659D01*
X92830242Y-80188466D01*
X92829311Y-80197328D01*
X92802848Y-80278771D01*
X92779856Y-80354566D01*
X92775686Y-80362366D01*
X92771104Y-80376470D01*
X92731266Y-80445470D01*
X92696651Y-80510232D01*
X92687294Y-80521633D01*
X92676924Y-80539595D01*
X92627563Y-80594415D01*
X92584675Y-80646675D01*
X92568714Y-80659773D01*
X92550887Y-80679573D01*
X92495977Y-80719467D01*
X92448232Y-80758651D01*
X92424827Y-80771161D01*
X92398500Y-80790289D01*
X92341873Y-80815500D01*
X92292566Y-80841856D01*
X92261537Y-80851268D01*
X92226424Y-80866902D01*
X92171555Y-80878564D01*
X92123659Y-80893094D01*
X92085532Y-80896849D01*
X92042180Y-80906064D01*
X91991973Y-80906064D01*
X91948000Y-80910395D01*
X91904027Y-80906064D01*
X91853820Y-80906064D01*
X91810467Y-80896849D01*
X91772340Y-80893094D01*
X91724441Y-80878563D01*
X91669576Y-80866902D01*
X91634464Y-80851269D01*
X91603433Y-80841856D01*
X91554120Y-80815498D01*
X91497500Y-80790289D01*
X91471175Y-80771163D01*
X91447767Y-80758651D01*
X91400013Y-80719460D01*
X91345113Y-80679573D01*
X91327287Y-80659776D01*
X91311324Y-80646675D01*
X91268425Y-80594402D01*
X91219076Y-80539595D01*
X91208708Y-80521637D01*
X91199348Y-80510232D01*
X91164719Y-80445447D01*
X91124896Y-80376470D01*
X91120315Y-80362371D01*
X91116143Y-80354566D01*
X91093136Y-80278725D01*
X91066689Y-80197328D01*
X91065758Y-80188471D01*
X91064905Y-80185659D01*
X91056600Y-80101342D01*
X91047000Y-80010000D01*
X91056599Y-79918664D01*
X91064905Y-79834340D01*
X91065758Y-79831527D01*
X91066689Y-79822672D01*
X91093132Y-79741288D01*
X91116143Y-79665433D01*
X91120315Y-79657626D01*
X91124896Y-79643530D01*
X91164712Y-79574565D01*
X91199348Y-79509767D01*
X91208710Y-79498359D01*
X91219076Y-79480405D01*
X91268416Y-79425607D01*
X91311324Y-79373324D01*
X91327291Y-79360219D01*
X91345113Y-79340427D01*
X91400002Y-79300546D01*
X91447767Y-79261348D01*
X91471180Y-79248833D01*
X91497500Y-79229711D01*
X91554109Y-79204506D01*
X91603433Y-79178143D01*
X91634471Y-79168727D01*
X91669576Y-79153098D01*
X91724430Y-79141438D01*
X91772340Y-79126905D01*
X91810476Y-79123148D01*
X91853820Y-79113936D01*
X91904016Y-79113936D01*
X91948000Y-79109604D01*
X91991983Y-79113936D01*
G37*
G36*
X94531983Y-79113936D02*
G01*
X94582180Y-79113936D01*
X94625524Y-79123149D01*
X94663659Y-79126905D01*
X94711566Y-79141437D01*
X94766424Y-79153098D01*
X94801530Y-79168728D01*
X94832566Y-79178143D01*
X94881884Y-79204504D01*
X94938500Y-79229711D01*
X94964822Y-79248835D01*
X94988232Y-79261348D01*
X95035988Y-79300540D01*
X95090887Y-79340427D01*
X95108711Y-79360223D01*
X95124675Y-79373324D01*
X95167572Y-79425594D01*
X95216924Y-79480405D01*
X95227292Y-79498363D01*
X95236651Y-79509767D01*
X95271273Y-79574542D01*
X95311104Y-79643530D01*
X95315685Y-79657630D01*
X95319856Y-79665433D01*
X95342852Y-79741242D01*
X95369311Y-79822672D01*
X95370242Y-79831532D01*
X95371094Y-79834340D01*
X95379384Y-79918513D01*
X95389000Y-80010000D01*
X95379383Y-80101494D01*
X95371094Y-80185659D01*
X95370242Y-80188466D01*
X95369311Y-80197328D01*
X95342848Y-80278771D01*
X95319856Y-80354566D01*
X95315686Y-80362366D01*
X95311104Y-80376470D01*
X95271266Y-80445470D01*
X95236651Y-80510232D01*
X95227294Y-80521633D01*
X95216924Y-80539595D01*
X95167563Y-80594415D01*
X95124675Y-80646675D01*
X95108714Y-80659773D01*
X95090887Y-80679573D01*
X95035977Y-80719467D01*
X94988232Y-80758651D01*
X94964827Y-80771161D01*
X94938500Y-80790289D01*
X94881873Y-80815500D01*
X94832566Y-80841856D01*
X94801537Y-80851268D01*
X94766424Y-80866902D01*
X94711555Y-80878564D01*
X94663659Y-80893094D01*
X94625532Y-80896849D01*
X94582180Y-80906064D01*
X94531973Y-80906064D01*
X94488000Y-80910395D01*
X94444027Y-80906064D01*
X94393820Y-80906064D01*
X94350467Y-80896849D01*
X94312340Y-80893094D01*
X94264441Y-80878563D01*
X94209576Y-80866902D01*
X94174464Y-80851269D01*
X94143433Y-80841856D01*
X94094120Y-80815498D01*
X94037500Y-80790289D01*
X94011175Y-80771163D01*
X93987767Y-80758651D01*
X93940013Y-80719460D01*
X93885113Y-80679573D01*
X93867287Y-80659776D01*
X93851324Y-80646675D01*
X93808425Y-80594402D01*
X93759076Y-80539595D01*
X93748708Y-80521637D01*
X93739348Y-80510232D01*
X93704719Y-80445447D01*
X93664896Y-80376470D01*
X93660315Y-80362371D01*
X93656143Y-80354566D01*
X93633136Y-80278725D01*
X93606689Y-80197328D01*
X93605758Y-80188471D01*
X93604905Y-80185659D01*
X93596600Y-80101342D01*
X93587000Y-80010000D01*
X93596599Y-79918664D01*
X93604905Y-79834340D01*
X93605758Y-79831527D01*
X93606689Y-79822672D01*
X93633132Y-79741288D01*
X93656143Y-79665433D01*
X93660315Y-79657626D01*
X93664896Y-79643530D01*
X93704712Y-79574565D01*
X93739348Y-79509767D01*
X93748710Y-79498359D01*
X93759076Y-79480405D01*
X93808416Y-79425607D01*
X93851324Y-79373324D01*
X93867291Y-79360219D01*
X93885113Y-79340427D01*
X93940002Y-79300546D01*
X93987767Y-79261348D01*
X94011180Y-79248833D01*
X94037500Y-79229711D01*
X94094109Y-79204506D01*
X94143433Y-79178143D01*
X94174471Y-79168727D01*
X94209576Y-79153098D01*
X94264430Y-79141438D01*
X94312340Y-79126905D01*
X94350476Y-79123148D01*
X94393820Y-79113936D01*
X94444016Y-79113936D01*
X94488000Y-79109604D01*
X94531983Y-79113936D01*
G37*
G36*
X168321604Y-78428590D02*
G01*
X168362696Y-78428590D01*
X168408456Y-78437144D01*
X168460531Y-78442273D01*
X168500091Y-78454273D01*
X168535111Y-78460820D01*
X168583617Y-78479611D01*
X168638932Y-78496391D01*
X168670534Y-78513282D01*
X168698656Y-78524177D01*
X168747513Y-78554428D01*
X168803347Y-78584272D01*
X168826809Y-78603526D01*
X168847784Y-78616514D01*
X168894256Y-78658879D01*
X168947459Y-78702541D01*
X168963224Y-78721751D01*
X168977400Y-78734674D01*
X169018557Y-78789174D01*
X169065728Y-78846653D01*
X169074848Y-78863717D01*
X169083099Y-78874642D01*
X169115925Y-78940566D01*
X169153609Y-79011068D01*
X169157628Y-79024316D01*
X169161282Y-79031655D01*
X169182864Y-79107507D01*
X169207727Y-79189469D01*
X169208543Y-79197762D01*
X169209280Y-79200350D01*
X169216937Y-79282982D01*
X169226000Y-79375000D01*
X169216936Y-79467026D01*
X169209280Y-79549649D01*
X169208544Y-79552235D01*
X169207727Y-79560531D01*
X169182859Y-79642507D01*
X169161282Y-79718344D01*
X169157628Y-79725680D01*
X169153609Y-79738932D01*
X169115917Y-79809447D01*
X169083099Y-79875357D01*
X169074850Y-79886279D01*
X169065728Y-79903347D01*
X169018547Y-79960836D01*
X168977400Y-80015325D01*
X168963227Y-80028244D01*
X168947459Y-80047459D01*
X168894245Y-80091129D01*
X168847784Y-80133485D01*
X168826814Y-80146469D01*
X168803347Y-80165728D01*
X168747502Y-80195577D01*
X168698656Y-80225822D01*
X168670541Y-80236713D01*
X168638932Y-80253609D01*
X168583605Y-80270392D01*
X168535111Y-80289179D01*
X168500098Y-80295724D01*
X168460531Y-80307727D01*
X168408453Y-80312856D01*
X168362696Y-80321410D01*
X168321604Y-80321410D01*
X168275000Y-80326000D01*
X168228396Y-80321410D01*
X168187304Y-80321410D01*
X168141545Y-80312856D01*
X168089469Y-80307727D01*
X168049902Y-80295724D01*
X168014888Y-80289179D01*
X167966389Y-80270390D01*
X167911068Y-80253609D01*
X167879461Y-80236714D01*
X167851343Y-80225822D01*
X167802490Y-80195573D01*
X167746653Y-80165728D01*
X167723188Y-80146471D01*
X167702215Y-80133485D01*
X167655744Y-80091121D01*
X167602541Y-80047459D01*
X167586775Y-80028248D01*
X167572599Y-80015325D01*
X167531439Y-79960821D01*
X167484272Y-79903347D01*
X167475151Y-79886284D01*
X167466900Y-79875357D01*
X167434067Y-79809420D01*
X167396391Y-79738932D01*
X167392372Y-79725685D01*
X167388717Y-79718344D01*
X167367124Y-79642454D01*
X167342273Y-79560531D01*
X167341456Y-79552241D01*
X167340719Y-79549649D01*
X167333046Y-79466854D01*
X167324000Y-79375000D01*
X167333045Y-79283153D01*
X167340719Y-79200350D01*
X167341456Y-79197757D01*
X167342273Y-79189469D01*
X167367119Y-79107560D01*
X167388717Y-79031655D01*
X167392373Y-79024311D01*
X167396391Y-79011068D01*
X167434060Y-78940593D01*
X167466900Y-78874642D01*
X167475153Y-78863712D01*
X167484272Y-78846653D01*
X167531430Y-78789190D01*
X167572599Y-78734674D01*
X167586778Y-78721747D01*
X167602541Y-78702541D01*
X167655733Y-78658887D01*
X167702215Y-78616514D01*
X167723193Y-78603524D01*
X167746653Y-78584272D01*
X167802478Y-78554432D01*
X167851343Y-78524177D01*
X167879467Y-78513281D01*
X167911068Y-78496391D01*
X167966377Y-78479612D01*
X168014888Y-78460820D01*
X168049909Y-78454273D01*
X168089469Y-78442273D01*
X168141542Y-78437144D01*
X168187304Y-78428590D01*
X168228396Y-78428590D01*
X168275000Y-78424000D01*
X168321604Y-78428590D01*
G37*
G36*
X91991983Y-76573936D02*
G01*
X92042180Y-76573936D01*
X92085524Y-76583149D01*
X92123659Y-76586905D01*
X92171566Y-76601437D01*
X92226424Y-76613098D01*
X92261530Y-76628728D01*
X92292566Y-76638143D01*
X92341884Y-76664504D01*
X92398500Y-76689711D01*
X92424822Y-76708835D01*
X92448232Y-76721348D01*
X92495988Y-76760540D01*
X92550887Y-76800427D01*
X92568711Y-76820223D01*
X92584675Y-76833324D01*
X92627572Y-76885594D01*
X92676924Y-76940405D01*
X92687292Y-76958363D01*
X92696651Y-76969767D01*
X92731273Y-77034542D01*
X92771104Y-77103530D01*
X92775685Y-77117630D01*
X92779856Y-77125433D01*
X92802852Y-77201242D01*
X92829311Y-77282672D01*
X92830242Y-77291532D01*
X92831094Y-77294340D01*
X92839384Y-77378513D01*
X92849000Y-77470000D01*
X92839383Y-77561494D01*
X92831094Y-77645659D01*
X92830242Y-77648466D01*
X92829311Y-77657328D01*
X92802848Y-77738771D01*
X92779856Y-77814566D01*
X92775686Y-77822366D01*
X92771104Y-77836470D01*
X92731266Y-77905470D01*
X92696651Y-77970232D01*
X92687294Y-77981633D01*
X92676924Y-77999595D01*
X92627563Y-78054415D01*
X92584675Y-78106675D01*
X92568714Y-78119773D01*
X92550887Y-78139573D01*
X92495977Y-78179467D01*
X92448232Y-78218651D01*
X92424827Y-78231161D01*
X92398500Y-78250289D01*
X92341873Y-78275500D01*
X92292566Y-78301856D01*
X92261537Y-78311268D01*
X92226424Y-78326902D01*
X92171555Y-78338564D01*
X92123659Y-78353094D01*
X92085532Y-78356849D01*
X92042180Y-78366064D01*
X91991973Y-78366064D01*
X91948000Y-78370395D01*
X91904027Y-78366064D01*
X91853820Y-78366064D01*
X91810467Y-78356849D01*
X91772340Y-78353094D01*
X91724441Y-78338563D01*
X91669576Y-78326902D01*
X91634464Y-78311269D01*
X91603433Y-78301856D01*
X91554120Y-78275498D01*
X91497500Y-78250289D01*
X91471175Y-78231163D01*
X91447767Y-78218651D01*
X91400013Y-78179460D01*
X91345113Y-78139573D01*
X91327287Y-78119776D01*
X91311324Y-78106675D01*
X91268425Y-78054402D01*
X91219076Y-77999595D01*
X91208708Y-77981637D01*
X91199348Y-77970232D01*
X91164719Y-77905447D01*
X91124896Y-77836470D01*
X91120315Y-77822371D01*
X91116143Y-77814566D01*
X91093136Y-77738725D01*
X91066689Y-77657328D01*
X91065758Y-77648471D01*
X91064905Y-77645659D01*
X91056600Y-77561342D01*
X91047000Y-77470000D01*
X91056599Y-77378664D01*
X91064905Y-77294340D01*
X91065758Y-77291527D01*
X91066689Y-77282672D01*
X91093132Y-77201288D01*
X91116143Y-77125433D01*
X91120315Y-77117626D01*
X91124896Y-77103530D01*
X91164712Y-77034565D01*
X91199348Y-76969767D01*
X91208710Y-76958359D01*
X91219076Y-76940405D01*
X91268416Y-76885607D01*
X91311324Y-76833324D01*
X91327291Y-76820219D01*
X91345113Y-76800427D01*
X91400002Y-76760546D01*
X91447767Y-76721348D01*
X91471180Y-76708833D01*
X91497500Y-76689711D01*
X91554109Y-76664506D01*
X91603433Y-76638143D01*
X91634471Y-76628727D01*
X91669576Y-76613098D01*
X91724430Y-76601438D01*
X91772340Y-76586905D01*
X91810476Y-76583148D01*
X91853820Y-76573936D01*
X91904016Y-76573936D01*
X91948000Y-76569604D01*
X91991983Y-76573936D01*
G37*
G36*
X94531983Y-76573936D02*
G01*
X94582180Y-76573936D01*
X94625524Y-76583149D01*
X94663659Y-76586905D01*
X94711566Y-76601437D01*
X94766424Y-76613098D01*
X94801530Y-76628728D01*
X94832566Y-76638143D01*
X94881884Y-76664504D01*
X94938500Y-76689711D01*
X94964822Y-76708835D01*
X94988232Y-76721348D01*
X95035988Y-76760540D01*
X95090887Y-76800427D01*
X95108711Y-76820223D01*
X95124675Y-76833324D01*
X95167572Y-76885594D01*
X95216924Y-76940405D01*
X95227292Y-76958363D01*
X95236651Y-76969767D01*
X95271273Y-77034542D01*
X95311104Y-77103530D01*
X95315685Y-77117630D01*
X95319856Y-77125433D01*
X95342852Y-77201242D01*
X95369311Y-77282672D01*
X95370242Y-77291532D01*
X95371094Y-77294340D01*
X95379384Y-77378513D01*
X95389000Y-77470000D01*
X95379383Y-77561494D01*
X95371094Y-77645659D01*
X95370242Y-77648466D01*
X95369311Y-77657328D01*
X95342848Y-77738771D01*
X95319856Y-77814566D01*
X95315686Y-77822366D01*
X95311104Y-77836470D01*
X95271266Y-77905470D01*
X95236651Y-77970232D01*
X95227294Y-77981633D01*
X95216924Y-77999595D01*
X95167563Y-78054415D01*
X95124675Y-78106675D01*
X95108714Y-78119773D01*
X95090887Y-78139573D01*
X95035977Y-78179467D01*
X94988232Y-78218651D01*
X94964827Y-78231161D01*
X94938500Y-78250289D01*
X94881873Y-78275500D01*
X94832566Y-78301856D01*
X94801537Y-78311268D01*
X94766424Y-78326902D01*
X94711555Y-78338564D01*
X94663659Y-78353094D01*
X94625532Y-78356849D01*
X94582180Y-78366064D01*
X94531973Y-78366064D01*
X94488000Y-78370395D01*
X94444027Y-78366064D01*
X94393820Y-78366064D01*
X94350467Y-78356849D01*
X94312340Y-78353094D01*
X94264441Y-78338563D01*
X94209576Y-78326902D01*
X94174464Y-78311269D01*
X94143433Y-78301856D01*
X94094120Y-78275498D01*
X94037500Y-78250289D01*
X94011175Y-78231163D01*
X93987767Y-78218651D01*
X93940013Y-78179460D01*
X93885113Y-78139573D01*
X93867287Y-78119776D01*
X93851324Y-78106675D01*
X93808425Y-78054402D01*
X93759076Y-77999595D01*
X93748708Y-77981637D01*
X93739348Y-77970232D01*
X93704719Y-77905447D01*
X93664896Y-77836470D01*
X93660315Y-77822371D01*
X93656143Y-77814566D01*
X93633136Y-77738725D01*
X93606689Y-77657328D01*
X93605758Y-77648471D01*
X93604905Y-77645659D01*
X93596600Y-77561342D01*
X93587000Y-77470000D01*
X93596599Y-77378664D01*
X93604905Y-77294340D01*
X93605758Y-77291527D01*
X93606689Y-77282672D01*
X93633132Y-77201288D01*
X93656143Y-77125433D01*
X93660315Y-77117626D01*
X93664896Y-77103530D01*
X93704712Y-77034565D01*
X93739348Y-76969767D01*
X93748710Y-76958359D01*
X93759076Y-76940405D01*
X93808416Y-76885607D01*
X93851324Y-76833324D01*
X93867291Y-76820219D01*
X93885113Y-76800427D01*
X93940002Y-76760546D01*
X93987767Y-76721348D01*
X94011180Y-76708833D01*
X94037500Y-76689711D01*
X94094109Y-76664506D01*
X94143433Y-76638143D01*
X94174471Y-76628727D01*
X94209576Y-76613098D01*
X94264430Y-76601438D01*
X94312340Y-76586905D01*
X94350476Y-76583148D01*
X94393820Y-76573936D01*
X94444016Y-76573936D01*
X94488000Y-76569604D01*
X94531983Y-76573936D01*
G37*
G36*
X91991983Y-74033936D02*
G01*
X92042180Y-74033936D01*
X92085524Y-74043149D01*
X92123659Y-74046905D01*
X92171566Y-74061437D01*
X92226424Y-74073098D01*
X92261530Y-74088728D01*
X92292566Y-74098143D01*
X92341884Y-74124504D01*
X92398500Y-74149711D01*
X92424822Y-74168835D01*
X92448232Y-74181348D01*
X92495988Y-74220540D01*
X92550887Y-74260427D01*
X92568711Y-74280223D01*
X92584675Y-74293324D01*
X92627572Y-74345594D01*
X92676924Y-74400405D01*
X92687292Y-74418363D01*
X92696651Y-74429767D01*
X92731273Y-74494542D01*
X92771104Y-74563530D01*
X92775685Y-74577630D01*
X92779856Y-74585433D01*
X92802852Y-74661242D01*
X92829311Y-74742672D01*
X92830242Y-74751532D01*
X92831094Y-74754340D01*
X92839384Y-74838513D01*
X92849000Y-74930000D01*
X92839383Y-75021494D01*
X92831094Y-75105659D01*
X92830242Y-75108466D01*
X92829311Y-75117328D01*
X92802848Y-75198771D01*
X92779856Y-75274566D01*
X92775686Y-75282366D01*
X92771104Y-75296470D01*
X92731266Y-75365470D01*
X92696651Y-75430232D01*
X92687294Y-75441633D01*
X92676924Y-75459595D01*
X92627563Y-75514415D01*
X92584675Y-75566675D01*
X92568714Y-75579773D01*
X92550887Y-75599573D01*
X92495977Y-75639467D01*
X92448232Y-75678651D01*
X92424827Y-75691161D01*
X92398500Y-75710289D01*
X92341873Y-75735500D01*
X92292566Y-75761856D01*
X92261537Y-75771268D01*
X92226424Y-75786902D01*
X92171555Y-75798564D01*
X92123659Y-75813094D01*
X92085532Y-75816849D01*
X92042180Y-75826064D01*
X91991973Y-75826064D01*
X91948000Y-75830395D01*
X91904027Y-75826064D01*
X91853820Y-75826064D01*
X91810467Y-75816849D01*
X91772340Y-75813094D01*
X91724441Y-75798563D01*
X91669576Y-75786902D01*
X91634464Y-75771269D01*
X91603433Y-75761856D01*
X91554120Y-75735498D01*
X91497500Y-75710289D01*
X91471175Y-75691163D01*
X91447767Y-75678651D01*
X91400013Y-75639460D01*
X91345113Y-75599573D01*
X91327287Y-75579776D01*
X91311324Y-75566675D01*
X91268425Y-75514402D01*
X91219076Y-75459595D01*
X91208708Y-75441637D01*
X91199348Y-75430232D01*
X91164719Y-75365447D01*
X91124896Y-75296470D01*
X91120315Y-75282371D01*
X91116143Y-75274566D01*
X91093136Y-75198725D01*
X91066689Y-75117328D01*
X91065758Y-75108471D01*
X91064905Y-75105659D01*
X91056600Y-75021342D01*
X91047000Y-74930000D01*
X91056599Y-74838664D01*
X91064905Y-74754340D01*
X91065758Y-74751527D01*
X91066689Y-74742672D01*
X91093132Y-74661288D01*
X91116143Y-74585433D01*
X91120315Y-74577626D01*
X91124896Y-74563530D01*
X91164712Y-74494565D01*
X91199348Y-74429767D01*
X91208710Y-74418359D01*
X91219076Y-74400405D01*
X91268416Y-74345607D01*
X91311324Y-74293324D01*
X91327291Y-74280219D01*
X91345113Y-74260427D01*
X91400002Y-74220546D01*
X91447767Y-74181348D01*
X91471180Y-74168833D01*
X91497500Y-74149711D01*
X91554109Y-74124506D01*
X91603433Y-74098143D01*
X91634471Y-74088727D01*
X91669576Y-74073098D01*
X91724430Y-74061438D01*
X91772340Y-74046905D01*
X91810476Y-74043148D01*
X91853820Y-74033936D01*
X91904016Y-74033936D01*
X91948000Y-74029604D01*
X91991983Y-74033936D01*
G37*
G36*
X94531983Y-74033936D02*
G01*
X94582180Y-74033936D01*
X94625524Y-74043149D01*
X94663659Y-74046905D01*
X94711566Y-74061437D01*
X94766424Y-74073098D01*
X94801530Y-74088728D01*
X94832566Y-74098143D01*
X94881884Y-74124504D01*
X94938500Y-74149711D01*
X94964822Y-74168835D01*
X94988232Y-74181348D01*
X95035988Y-74220540D01*
X95090887Y-74260427D01*
X95108711Y-74280223D01*
X95124675Y-74293324D01*
X95167572Y-74345594D01*
X95216924Y-74400405D01*
X95227292Y-74418363D01*
X95236651Y-74429767D01*
X95271273Y-74494542D01*
X95311104Y-74563530D01*
X95315685Y-74577630D01*
X95319856Y-74585433D01*
X95342852Y-74661242D01*
X95369311Y-74742672D01*
X95370242Y-74751532D01*
X95371094Y-74754340D01*
X95379384Y-74838513D01*
X95389000Y-74930000D01*
X95379383Y-75021494D01*
X95371094Y-75105659D01*
X95370242Y-75108466D01*
X95369311Y-75117328D01*
X95342848Y-75198771D01*
X95319856Y-75274566D01*
X95315686Y-75282366D01*
X95311104Y-75296470D01*
X95271266Y-75365470D01*
X95236651Y-75430232D01*
X95227294Y-75441633D01*
X95216924Y-75459595D01*
X95167563Y-75514415D01*
X95124675Y-75566675D01*
X95108714Y-75579773D01*
X95090887Y-75599573D01*
X95035977Y-75639467D01*
X94988232Y-75678651D01*
X94964827Y-75691161D01*
X94938500Y-75710289D01*
X94881873Y-75735500D01*
X94832566Y-75761856D01*
X94801537Y-75771268D01*
X94766424Y-75786902D01*
X94711555Y-75798564D01*
X94663659Y-75813094D01*
X94625532Y-75816849D01*
X94582180Y-75826064D01*
X94531973Y-75826064D01*
X94488000Y-75830395D01*
X94444027Y-75826064D01*
X94393820Y-75826064D01*
X94350467Y-75816849D01*
X94312340Y-75813094D01*
X94264441Y-75798563D01*
X94209576Y-75786902D01*
X94174464Y-75771269D01*
X94143433Y-75761856D01*
X94094120Y-75735498D01*
X94037500Y-75710289D01*
X94011175Y-75691163D01*
X93987767Y-75678651D01*
X93940013Y-75639460D01*
X93885113Y-75599573D01*
X93867287Y-75579776D01*
X93851324Y-75566675D01*
X93808425Y-75514402D01*
X93759076Y-75459595D01*
X93748708Y-75441637D01*
X93739348Y-75430232D01*
X93704719Y-75365447D01*
X93664896Y-75296470D01*
X93660315Y-75282371D01*
X93656143Y-75274566D01*
X93633136Y-75198725D01*
X93606689Y-75117328D01*
X93605758Y-75108471D01*
X93604905Y-75105659D01*
X93596600Y-75021342D01*
X93587000Y-74930000D01*
X93596599Y-74838664D01*
X93604905Y-74754340D01*
X93605758Y-74751527D01*
X93606689Y-74742672D01*
X93633132Y-74661288D01*
X93656143Y-74585433D01*
X93660315Y-74577626D01*
X93664896Y-74563530D01*
X93704712Y-74494565D01*
X93739348Y-74429767D01*
X93748710Y-74418359D01*
X93759076Y-74400405D01*
X93808416Y-74345607D01*
X93851324Y-74293324D01*
X93867291Y-74280219D01*
X93885113Y-74260427D01*
X93940002Y-74220546D01*
X93987767Y-74181348D01*
X94011180Y-74168833D01*
X94037500Y-74149711D01*
X94094109Y-74124506D01*
X94143433Y-74098143D01*
X94174471Y-74088727D01*
X94209576Y-74073098D01*
X94264430Y-74061438D01*
X94312340Y-74046905D01*
X94350476Y-74043148D01*
X94393820Y-74033936D01*
X94444016Y-74033936D01*
X94488000Y-74029604D01*
X94531983Y-74033936D01*
G37*
G36*
X92817517Y-71492882D02*
G01*
X92834062Y-71503938D01*
X92845118Y-71520483D01*
X92849000Y-71540000D01*
X92849000Y-73240000D01*
X92845118Y-73259517D01*
X92834062Y-73276062D01*
X92817517Y-73287118D01*
X92798000Y-73291000D01*
X91098000Y-73291000D01*
X91078483Y-73287118D01*
X91061938Y-73276062D01*
X91050882Y-73259517D01*
X91047000Y-73240000D01*
X91047000Y-71540000D01*
X91050882Y-71520483D01*
X91061938Y-71503938D01*
X91078483Y-71492882D01*
X91098000Y-71489000D01*
X92798000Y-71489000D01*
X92817517Y-71492882D01*
G37*
G36*
X94531983Y-71493936D02*
G01*
X94582180Y-71493936D01*
X94625524Y-71503149D01*
X94663659Y-71506905D01*
X94711566Y-71521437D01*
X94766424Y-71533098D01*
X94801530Y-71548728D01*
X94832566Y-71558143D01*
X94881884Y-71584504D01*
X94938500Y-71609711D01*
X94964822Y-71628835D01*
X94988232Y-71641348D01*
X95035988Y-71680540D01*
X95090887Y-71720427D01*
X95108711Y-71740223D01*
X95124675Y-71753324D01*
X95167572Y-71805594D01*
X95216924Y-71860405D01*
X95227292Y-71878363D01*
X95236651Y-71889767D01*
X95271273Y-71954542D01*
X95311104Y-72023530D01*
X95315685Y-72037630D01*
X95319856Y-72045433D01*
X95342852Y-72121242D01*
X95369311Y-72202672D01*
X95370242Y-72211532D01*
X95371094Y-72214340D01*
X95379384Y-72298513D01*
X95389000Y-72390000D01*
X95379383Y-72481494D01*
X95371094Y-72565659D01*
X95370242Y-72568466D01*
X95369311Y-72577328D01*
X95342848Y-72658771D01*
X95319856Y-72734566D01*
X95315686Y-72742366D01*
X95311104Y-72756470D01*
X95271266Y-72825470D01*
X95236651Y-72890232D01*
X95227294Y-72901633D01*
X95216924Y-72919595D01*
X95167563Y-72974415D01*
X95124675Y-73026675D01*
X95108714Y-73039773D01*
X95090887Y-73059573D01*
X95035977Y-73099467D01*
X94988232Y-73138651D01*
X94964827Y-73151161D01*
X94938500Y-73170289D01*
X94881873Y-73195500D01*
X94832566Y-73221856D01*
X94801537Y-73231268D01*
X94766424Y-73246902D01*
X94711555Y-73258564D01*
X94663659Y-73273094D01*
X94625532Y-73276849D01*
X94582180Y-73286064D01*
X94531973Y-73286064D01*
X94488000Y-73290395D01*
X94444027Y-73286064D01*
X94393820Y-73286064D01*
X94350467Y-73276849D01*
X94312340Y-73273094D01*
X94264441Y-73258563D01*
X94209576Y-73246902D01*
X94174464Y-73231269D01*
X94143433Y-73221856D01*
X94094120Y-73195498D01*
X94037500Y-73170289D01*
X94011175Y-73151163D01*
X93987767Y-73138651D01*
X93940013Y-73099460D01*
X93885113Y-73059573D01*
X93867287Y-73039776D01*
X93851324Y-73026675D01*
X93808425Y-72974402D01*
X93759076Y-72919595D01*
X93748708Y-72901637D01*
X93739348Y-72890232D01*
X93704719Y-72825447D01*
X93664896Y-72756470D01*
X93660315Y-72742371D01*
X93656143Y-72734566D01*
X93633136Y-72658725D01*
X93606689Y-72577328D01*
X93605758Y-72568471D01*
X93604905Y-72565659D01*
X93596600Y-72481342D01*
X93587000Y-72390000D01*
X93596599Y-72298664D01*
X93604905Y-72214340D01*
X93605758Y-72211527D01*
X93606689Y-72202672D01*
X93633132Y-72121288D01*
X93656143Y-72045433D01*
X93660315Y-72037626D01*
X93664896Y-72023530D01*
X93704712Y-71954565D01*
X93739348Y-71889767D01*
X93748710Y-71878359D01*
X93759076Y-71860405D01*
X93808416Y-71805607D01*
X93851324Y-71753324D01*
X93867291Y-71740219D01*
X93885113Y-71720427D01*
X93940002Y-71680546D01*
X93987767Y-71641348D01*
X94011180Y-71628833D01*
X94037500Y-71609711D01*
X94094109Y-71584506D01*
X94143433Y-71558143D01*
X94174471Y-71548727D01*
X94209576Y-71533098D01*
X94264430Y-71521438D01*
X94312340Y-71506905D01*
X94350476Y-71503148D01*
X94393820Y-71493936D01*
X94444016Y-71493936D01*
X94488000Y-71489604D01*
X94531983Y-71493936D01*
G37*
G36*
X170147783Y-69207936D02*
G01*
X170197980Y-69207936D01*
X170241324Y-69217149D01*
X170279459Y-69220905D01*
X170327366Y-69235437D01*
X170382224Y-69247098D01*
X170417330Y-69262728D01*
X170448366Y-69272143D01*
X170497684Y-69298504D01*
X170554300Y-69323711D01*
X170580622Y-69342835D01*
X170604032Y-69355348D01*
X170651788Y-69394540D01*
X170706687Y-69434427D01*
X170724511Y-69454223D01*
X170740475Y-69467324D01*
X170783372Y-69519594D01*
X170832724Y-69574405D01*
X170843092Y-69592363D01*
X170852451Y-69603767D01*
X170887073Y-69668542D01*
X170926904Y-69737530D01*
X170931485Y-69751630D01*
X170935656Y-69759433D01*
X170958652Y-69835242D01*
X170985111Y-69916672D01*
X170986042Y-69925532D01*
X170986894Y-69928340D01*
X170995184Y-70012513D01*
X171004800Y-70104000D01*
X170995183Y-70195494D01*
X170986894Y-70279659D01*
X170986042Y-70282466D01*
X170985111Y-70291328D01*
X170958648Y-70372771D01*
X170935656Y-70448566D01*
X170931486Y-70456366D01*
X170926904Y-70470470D01*
X170887066Y-70539470D01*
X170852451Y-70604232D01*
X170843094Y-70615633D01*
X170832724Y-70633595D01*
X170783363Y-70688415D01*
X170740475Y-70740675D01*
X170724514Y-70753773D01*
X170706687Y-70773573D01*
X170651777Y-70813467D01*
X170604032Y-70852651D01*
X170580627Y-70865161D01*
X170554300Y-70884289D01*
X170497673Y-70909500D01*
X170448366Y-70935856D01*
X170417337Y-70945268D01*
X170382224Y-70960902D01*
X170327355Y-70972564D01*
X170279459Y-70987094D01*
X170241332Y-70990849D01*
X170197980Y-71000064D01*
X170147773Y-71000064D01*
X170103800Y-71004395D01*
X170059827Y-71000064D01*
X170009620Y-71000064D01*
X169966267Y-70990849D01*
X169928140Y-70987094D01*
X169880241Y-70972563D01*
X169825376Y-70960902D01*
X169790264Y-70945269D01*
X169759233Y-70935856D01*
X169709920Y-70909498D01*
X169653300Y-70884289D01*
X169626975Y-70865163D01*
X169603567Y-70852651D01*
X169555813Y-70813460D01*
X169500913Y-70773573D01*
X169483087Y-70753776D01*
X169467124Y-70740675D01*
X169424225Y-70688402D01*
X169374876Y-70633595D01*
X169364508Y-70615637D01*
X169355148Y-70604232D01*
X169320519Y-70539447D01*
X169280696Y-70470470D01*
X169276115Y-70456371D01*
X169271943Y-70448566D01*
X169248936Y-70372725D01*
X169222489Y-70291328D01*
X169221558Y-70282471D01*
X169220705Y-70279659D01*
X169212400Y-70195342D01*
X169202800Y-70104000D01*
X169212399Y-70012664D01*
X169220705Y-69928340D01*
X169221558Y-69925527D01*
X169222489Y-69916672D01*
X169248932Y-69835288D01*
X169271943Y-69759433D01*
X169276115Y-69751626D01*
X169280696Y-69737530D01*
X169320512Y-69668565D01*
X169355148Y-69603767D01*
X169364510Y-69592359D01*
X169374876Y-69574405D01*
X169424216Y-69519607D01*
X169467124Y-69467324D01*
X169483091Y-69454219D01*
X169500913Y-69434427D01*
X169555802Y-69394546D01*
X169603567Y-69355348D01*
X169626980Y-69342833D01*
X169653300Y-69323711D01*
X169709909Y-69298506D01*
X169759233Y-69272143D01*
X169790271Y-69262727D01*
X169825376Y-69247098D01*
X169880230Y-69235438D01*
X169928140Y-69220905D01*
X169966276Y-69217148D01*
X170009620Y-69207936D01*
X170059816Y-69207936D01*
X170103800Y-69203604D01*
X170147783Y-69207936D01*
G37*
G36*
X170147783Y-66667936D02*
G01*
X170197980Y-66667936D01*
X170241324Y-66677149D01*
X170279459Y-66680905D01*
X170327366Y-66695437D01*
X170382224Y-66707098D01*
X170417330Y-66722728D01*
X170448366Y-66732143D01*
X170497684Y-66758504D01*
X170554300Y-66783711D01*
X170580622Y-66802835D01*
X170604032Y-66815348D01*
X170651788Y-66854540D01*
X170706687Y-66894427D01*
X170724511Y-66914223D01*
X170740475Y-66927324D01*
X170783372Y-66979594D01*
X170832724Y-67034405D01*
X170843092Y-67052363D01*
X170852451Y-67063767D01*
X170887073Y-67128542D01*
X170926904Y-67197530D01*
X170931485Y-67211630D01*
X170935656Y-67219433D01*
X170958652Y-67295242D01*
X170985111Y-67376672D01*
X170986042Y-67385532D01*
X170986894Y-67388340D01*
X170995184Y-67472513D01*
X171004800Y-67564000D01*
X170995183Y-67655494D01*
X170986894Y-67739659D01*
X170986042Y-67742466D01*
X170985111Y-67751328D01*
X170958648Y-67832771D01*
X170935656Y-67908566D01*
X170931486Y-67916366D01*
X170926904Y-67930470D01*
X170887066Y-67999470D01*
X170852451Y-68064232D01*
X170843094Y-68075633D01*
X170832724Y-68093595D01*
X170783363Y-68148415D01*
X170740475Y-68200675D01*
X170724514Y-68213773D01*
X170706687Y-68233573D01*
X170651777Y-68273467D01*
X170604032Y-68312651D01*
X170580627Y-68325161D01*
X170554300Y-68344289D01*
X170497673Y-68369500D01*
X170448366Y-68395856D01*
X170417337Y-68405268D01*
X170382224Y-68420902D01*
X170327355Y-68432564D01*
X170279459Y-68447094D01*
X170241332Y-68450849D01*
X170197980Y-68460064D01*
X170147773Y-68460064D01*
X170103800Y-68464395D01*
X170059827Y-68460064D01*
X170009620Y-68460064D01*
X169966267Y-68450849D01*
X169928140Y-68447094D01*
X169880241Y-68432563D01*
X169825376Y-68420902D01*
X169790264Y-68405269D01*
X169759233Y-68395856D01*
X169709920Y-68369498D01*
X169653300Y-68344289D01*
X169626975Y-68325163D01*
X169603567Y-68312651D01*
X169555813Y-68273460D01*
X169500913Y-68233573D01*
X169483087Y-68213776D01*
X169467124Y-68200675D01*
X169424225Y-68148402D01*
X169374876Y-68093595D01*
X169364508Y-68075637D01*
X169355148Y-68064232D01*
X169320519Y-67999447D01*
X169280696Y-67930470D01*
X169276115Y-67916371D01*
X169271943Y-67908566D01*
X169248936Y-67832725D01*
X169222489Y-67751328D01*
X169221558Y-67742471D01*
X169220705Y-67739659D01*
X169212400Y-67655342D01*
X169202800Y-67564000D01*
X169212399Y-67472664D01*
X169220705Y-67388340D01*
X169221558Y-67385527D01*
X169222489Y-67376672D01*
X169248932Y-67295288D01*
X169271943Y-67219433D01*
X169276115Y-67211626D01*
X169280696Y-67197530D01*
X169320512Y-67128565D01*
X169355148Y-67063767D01*
X169364510Y-67052359D01*
X169374876Y-67034405D01*
X169424216Y-66979607D01*
X169467124Y-66927324D01*
X169483091Y-66914219D01*
X169500913Y-66894427D01*
X169555802Y-66854546D01*
X169603567Y-66815348D01*
X169626980Y-66802833D01*
X169653300Y-66783711D01*
X169709909Y-66758506D01*
X169759233Y-66732143D01*
X169790271Y-66722727D01*
X169825376Y-66707098D01*
X169880230Y-66695438D01*
X169928140Y-66680905D01*
X169966276Y-66677148D01*
X170009620Y-66667936D01*
X170059816Y-66667936D01*
X170103800Y-66663604D01*
X170147783Y-66667936D01*
G37*
G36*
X92118983Y-65143936D02*
G01*
X92169180Y-65143936D01*
X92212524Y-65153149D01*
X92250659Y-65156905D01*
X92298566Y-65171437D01*
X92353424Y-65183098D01*
X92388530Y-65198728D01*
X92419566Y-65208143D01*
X92468884Y-65234504D01*
X92525500Y-65259711D01*
X92551822Y-65278835D01*
X92575232Y-65291348D01*
X92622988Y-65330540D01*
X92677887Y-65370427D01*
X92695711Y-65390223D01*
X92711675Y-65403324D01*
X92754572Y-65455594D01*
X92803924Y-65510405D01*
X92814292Y-65528363D01*
X92823651Y-65539767D01*
X92858273Y-65604542D01*
X92898104Y-65673530D01*
X92902685Y-65687630D01*
X92906856Y-65695433D01*
X92929852Y-65771242D01*
X92956311Y-65852672D01*
X92957242Y-65861532D01*
X92958094Y-65864340D01*
X92966384Y-65948513D01*
X92976000Y-66040000D01*
X92966383Y-66131494D01*
X92958094Y-66215659D01*
X92957242Y-66218466D01*
X92956311Y-66227328D01*
X92929848Y-66308771D01*
X92906856Y-66384566D01*
X92902686Y-66392366D01*
X92898104Y-66406470D01*
X92858266Y-66475470D01*
X92823651Y-66540232D01*
X92814294Y-66551633D01*
X92803924Y-66569595D01*
X92754563Y-66624415D01*
X92711675Y-66676675D01*
X92695714Y-66689773D01*
X92677887Y-66709573D01*
X92622977Y-66749467D01*
X92575232Y-66788651D01*
X92551827Y-66801161D01*
X92525500Y-66820289D01*
X92468873Y-66845500D01*
X92419566Y-66871856D01*
X92388537Y-66881268D01*
X92353424Y-66896902D01*
X92298555Y-66908564D01*
X92250659Y-66923094D01*
X92212532Y-66926849D01*
X92169180Y-66936064D01*
X92118973Y-66936064D01*
X92075000Y-66940395D01*
X92031027Y-66936064D01*
X91980820Y-66936064D01*
X91937467Y-66926849D01*
X91899340Y-66923094D01*
X91851441Y-66908563D01*
X91796576Y-66896902D01*
X91761464Y-66881269D01*
X91730433Y-66871856D01*
X91681120Y-66845498D01*
X91624500Y-66820289D01*
X91598175Y-66801163D01*
X91574767Y-66788651D01*
X91527013Y-66749460D01*
X91472113Y-66709573D01*
X91454287Y-66689776D01*
X91438324Y-66676675D01*
X91395425Y-66624402D01*
X91346076Y-66569595D01*
X91335708Y-66551637D01*
X91326348Y-66540232D01*
X91291719Y-66475447D01*
X91251896Y-66406470D01*
X91247315Y-66392371D01*
X91243143Y-66384566D01*
X91220136Y-66308725D01*
X91193689Y-66227328D01*
X91192758Y-66218471D01*
X91191905Y-66215659D01*
X91183600Y-66131342D01*
X91174000Y-66040000D01*
X91183599Y-65948664D01*
X91191905Y-65864340D01*
X91192758Y-65861527D01*
X91193689Y-65852672D01*
X91220132Y-65771288D01*
X91243143Y-65695433D01*
X91247315Y-65687626D01*
X91251896Y-65673530D01*
X91291712Y-65604565D01*
X91326348Y-65539767D01*
X91335710Y-65528359D01*
X91346076Y-65510405D01*
X91395416Y-65455607D01*
X91438324Y-65403324D01*
X91454291Y-65390219D01*
X91472113Y-65370427D01*
X91527002Y-65330546D01*
X91574767Y-65291348D01*
X91598180Y-65278833D01*
X91624500Y-65259711D01*
X91681109Y-65234506D01*
X91730433Y-65208143D01*
X91761471Y-65198727D01*
X91796576Y-65183098D01*
X91851430Y-65171438D01*
X91899340Y-65156905D01*
X91937476Y-65153148D01*
X91980820Y-65143936D01*
X92031016Y-65143936D01*
X92075000Y-65139604D01*
X92118983Y-65143936D01*
G37*
G36*
X170147783Y-64127936D02*
G01*
X170197980Y-64127936D01*
X170241324Y-64137149D01*
X170279459Y-64140905D01*
X170327366Y-64155437D01*
X170382224Y-64167098D01*
X170417330Y-64182728D01*
X170448366Y-64192143D01*
X170497684Y-64218504D01*
X170554300Y-64243711D01*
X170580622Y-64262835D01*
X170604032Y-64275348D01*
X170651788Y-64314540D01*
X170706687Y-64354427D01*
X170724511Y-64374223D01*
X170740475Y-64387324D01*
X170783372Y-64439594D01*
X170832724Y-64494405D01*
X170843092Y-64512363D01*
X170852451Y-64523767D01*
X170887073Y-64588542D01*
X170926904Y-64657530D01*
X170931485Y-64671630D01*
X170935656Y-64679433D01*
X170958652Y-64755242D01*
X170985111Y-64836672D01*
X170986042Y-64845532D01*
X170986894Y-64848340D01*
X170995184Y-64932513D01*
X171004800Y-65024000D01*
X170995183Y-65115494D01*
X170986894Y-65199659D01*
X170986042Y-65202466D01*
X170985111Y-65211328D01*
X170958648Y-65292771D01*
X170935656Y-65368566D01*
X170931486Y-65376366D01*
X170926904Y-65390470D01*
X170887066Y-65459470D01*
X170852451Y-65524232D01*
X170843094Y-65535633D01*
X170832724Y-65553595D01*
X170783363Y-65608415D01*
X170740475Y-65660675D01*
X170724514Y-65673773D01*
X170706687Y-65693573D01*
X170651777Y-65733467D01*
X170604032Y-65772651D01*
X170580627Y-65785161D01*
X170554300Y-65804289D01*
X170497673Y-65829500D01*
X170448366Y-65855856D01*
X170417337Y-65865268D01*
X170382224Y-65880902D01*
X170327355Y-65892564D01*
X170279459Y-65907094D01*
X170241332Y-65910849D01*
X170197980Y-65920064D01*
X170147773Y-65920064D01*
X170103800Y-65924395D01*
X170059827Y-65920064D01*
X170009620Y-65920064D01*
X169966267Y-65910849D01*
X169928140Y-65907094D01*
X169880241Y-65892563D01*
X169825376Y-65880902D01*
X169790264Y-65865269D01*
X169759233Y-65855856D01*
X169709920Y-65829498D01*
X169653300Y-65804289D01*
X169626975Y-65785163D01*
X169603567Y-65772651D01*
X169555813Y-65733460D01*
X169500913Y-65693573D01*
X169483087Y-65673776D01*
X169467124Y-65660675D01*
X169424225Y-65608402D01*
X169374876Y-65553595D01*
X169364508Y-65535637D01*
X169355148Y-65524232D01*
X169320519Y-65459447D01*
X169280696Y-65390470D01*
X169276115Y-65376371D01*
X169271943Y-65368566D01*
X169248936Y-65292725D01*
X169222489Y-65211328D01*
X169221558Y-65202471D01*
X169220705Y-65199659D01*
X169212400Y-65115342D01*
X169202800Y-65024000D01*
X169212399Y-64932664D01*
X169220705Y-64848340D01*
X169221558Y-64845527D01*
X169222489Y-64836672D01*
X169248932Y-64755288D01*
X169271943Y-64679433D01*
X169276115Y-64671626D01*
X169280696Y-64657530D01*
X169320512Y-64588565D01*
X169355148Y-64523767D01*
X169364510Y-64512359D01*
X169374876Y-64494405D01*
X169424216Y-64439607D01*
X169467124Y-64387324D01*
X169483091Y-64374219D01*
X169500913Y-64354427D01*
X169555802Y-64314546D01*
X169603567Y-64275348D01*
X169626980Y-64262833D01*
X169653300Y-64243711D01*
X169709909Y-64218506D01*
X169759233Y-64192143D01*
X169790271Y-64182727D01*
X169825376Y-64167098D01*
X169880230Y-64155438D01*
X169928140Y-64140905D01*
X169966276Y-64137148D01*
X170009620Y-64127936D01*
X170059816Y-64127936D01*
X170103800Y-64123604D01*
X170147783Y-64127936D01*
G37*
G36*
X124694517Y-63237882D02*
G01*
X124711062Y-63248938D01*
X124722118Y-63265483D01*
X124726000Y-63285000D01*
X124726000Y-64985000D01*
X124722118Y-65004517D01*
X124711062Y-65021062D01*
X124694517Y-65032118D01*
X124675000Y-65036000D01*
X122975000Y-65036000D01*
X122955483Y-65032118D01*
X122938938Y-65021062D01*
X122927882Y-65004517D01*
X122924000Y-64985000D01*
X122924000Y-63285000D01*
X122927882Y-63265483D01*
X122938938Y-63248938D01*
X122955483Y-63237882D01*
X122975000Y-63234000D01*
X124675000Y-63234000D01*
X124694517Y-63237882D01*
G37*
G36*
X126408983Y-63238936D02*
G01*
X126459180Y-63238936D01*
X126502524Y-63248149D01*
X126540659Y-63251905D01*
X126588566Y-63266437D01*
X126643424Y-63278098D01*
X126678530Y-63293728D01*
X126709566Y-63303143D01*
X126758884Y-63329504D01*
X126815500Y-63354711D01*
X126841822Y-63373835D01*
X126865232Y-63386348D01*
X126912988Y-63425540D01*
X126967887Y-63465427D01*
X126985711Y-63485223D01*
X127001675Y-63498324D01*
X127044572Y-63550594D01*
X127093924Y-63605405D01*
X127104292Y-63623363D01*
X127113651Y-63634767D01*
X127148273Y-63699542D01*
X127188104Y-63768530D01*
X127192685Y-63782630D01*
X127196856Y-63790433D01*
X127219852Y-63866242D01*
X127246311Y-63947672D01*
X127247242Y-63956532D01*
X127248094Y-63959340D01*
X127256384Y-64043513D01*
X127266000Y-64135000D01*
X127256383Y-64226494D01*
X127248094Y-64310659D01*
X127247242Y-64313466D01*
X127246311Y-64322328D01*
X127219848Y-64403771D01*
X127196856Y-64479566D01*
X127192686Y-64487366D01*
X127188104Y-64501470D01*
X127148266Y-64570470D01*
X127113651Y-64635232D01*
X127104294Y-64646633D01*
X127093924Y-64664595D01*
X127044563Y-64719415D01*
X127001675Y-64771675D01*
X126985714Y-64784773D01*
X126967887Y-64804573D01*
X126912977Y-64844467D01*
X126865232Y-64883651D01*
X126841827Y-64896161D01*
X126815500Y-64915289D01*
X126758873Y-64940500D01*
X126709566Y-64966856D01*
X126678537Y-64976268D01*
X126643424Y-64991902D01*
X126588555Y-65003564D01*
X126540659Y-65018094D01*
X126502532Y-65021849D01*
X126459180Y-65031064D01*
X126408973Y-65031064D01*
X126365000Y-65035395D01*
X126321027Y-65031064D01*
X126270820Y-65031064D01*
X126227467Y-65021849D01*
X126189340Y-65018094D01*
X126141441Y-65003563D01*
X126086576Y-64991902D01*
X126051464Y-64976269D01*
X126020433Y-64966856D01*
X125971120Y-64940498D01*
X125914500Y-64915289D01*
X125888175Y-64896163D01*
X125864767Y-64883651D01*
X125817013Y-64844460D01*
X125762113Y-64804573D01*
X125744287Y-64784776D01*
X125728324Y-64771675D01*
X125685425Y-64719402D01*
X125636076Y-64664595D01*
X125625708Y-64646637D01*
X125616348Y-64635232D01*
X125581719Y-64570447D01*
X125541896Y-64501470D01*
X125537315Y-64487371D01*
X125533143Y-64479566D01*
X125510136Y-64403725D01*
X125483689Y-64322328D01*
X125482758Y-64313471D01*
X125481905Y-64310659D01*
X125473600Y-64226342D01*
X125464000Y-64135000D01*
X125473599Y-64043664D01*
X125481905Y-63959340D01*
X125482758Y-63956527D01*
X125483689Y-63947672D01*
X125510132Y-63866288D01*
X125533143Y-63790433D01*
X125537315Y-63782626D01*
X125541896Y-63768530D01*
X125581712Y-63699565D01*
X125616348Y-63634767D01*
X125625710Y-63623359D01*
X125636076Y-63605405D01*
X125685416Y-63550607D01*
X125728324Y-63498324D01*
X125744291Y-63485219D01*
X125762113Y-63465427D01*
X125817002Y-63425546D01*
X125864767Y-63386348D01*
X125888180Y-63373833D01*
X125914500Y-63354711D01*
X125971109Y-63329506D01*
X126020433Y-63303143D01*
X126051471Y-63293727D01*
X126086576Y-63278098D01*
X126141430Y-63266438D01*
X126189340Y-63251905D01*
X126227476Y-63248148D01*
X126270820Y-63238936D01*
X126321016Y-63238936D01*
X126365000Y-63234604D01*
X126408983Y-63238936D01*
G37*
G36*
X128948983Y-63238936D02*
G01*
X128999180Y-63238936D01*
X129042524Y-63248149D01*
X129080659Y-63251905D01*
X129128566Y-63266437D01*
X129183424Y-63278098D01*
X129218530Y-63293728D01*
X129249566Y-63303143D01*
X129298884Y-63329504D01*
X129355500Y-63354711D01*
X129381822Y-63373835D01*
X129405232Y-63386348D01*
X129452988Y-63425540D01*
X129507887Y-63465427D01*
X129525711Y-63485223D01*
X129541675Y-63498324D01*
X129584572Y-63550594D01*
X129633924Y-63605405D01*
X129644292Y-63623363D01*
X129653651Y-63634767D01*
X129688273Y-63699542D01*
X129728104Y-63768530D01*
X129732685Y-63782630D01*
X129736856Y-63790433D01*
X129759852Y-63866242D01*
X129786311Y-63947672D01*
X129787242Y-63956532D01*
X129788094Y-63959340D01*
X129796384Y-64043513D01*
X129806000Y-64135000D01*
X129796383Y-64226494D01*
X129788094Y-64310659D01*
X129787242Y-64313466D01*
X129786311Y-64322328D01*
X129759848Y-64403771D01*
X129736856Y-64479566D01*
X129732686Y-64487366D01*
X129728104Y-64501470D01*
X129688266Y-64570470D01*
X129653651Y-64635232D01*
X129644294Y-64646633D01*
X129633924Y-64664595D01*
X129584563Y-64719415D01*
X129541675Y-64771675D01*
X129525714Y-64784773D01*
X129507887Y-64804573D01*
X129452977Y-64844467D01*
X129405232Y-64883651D01*
X129381827Y-64896161D01*
X129355500Y-64915289D01*
X129298873Y-64940500D01*
X129249566Y-64966856D01*
X129218537Y-64976268D01*
X129183424Y-64991902D01*
X129128555Y-65003564D01*
X129080659Y-65018094D01*
X129042532Y-65021849D01*
X128999180Y-65031064D01*
X128948973Y-65031064D01*
X128905000Y-65035395D01*
X128861027Y-65031064D01*
X128810820Y-65031064D01*
X128767467Y-65021849D01*
X128729340Y-65018094D01*
X128681441Y-65003563D01*
X128626576Y-64991902D01*
X128591464Y-64976269D01*
X128560433Y-64966856D01*
X128511120Y-64940498D01*
X128454500Y-64915289D01*
X128428175Y-64896163D01*
X128404767Y-64883651D01*
X128357013Y-64844460D01*
X128302113Y-64804573D01*
X128284287Y-64784776D01*
X128268324Y-64771675D01*
X128225425Y-64719402D01*
X128176076Y-64664595D01*
X128165708Y-64646637D01*
X128156348Y-64635232D01*
X128121719Y-64570447D01*
X128081896Y-64501470D01*
X128077315Y-64487371D01*
X128073143Y-64479566D01*
X128050136Y-64403725D01*
X128023689Y-64322328D01*
X128022758Y-64313471D01*
X128021905Y-64310659D01*
X128013600Y-64226342D01*
X128004000Y-64135000D01*
X128013599Y-64043664D01*
X128021905Y-63959340D01*
X128022758Y-63956527D01*
X128023689Y-63947672D01*
X128050132Y-63866288D01*
X128073143Y-63790433D01*
X128077315Y-63782626D01*
X128081896Y-63768530D01*
X128121712Y-63699565D01*
X128156348Y-63634767D01*
X128165710Y-63623359D01*
X128176076Y-63605405D01*
X128225416Y-63550607D01*
X128268324Y-63498324D01*
X128284291Y-63485219D01*
X128302113Y-63465427D01*
X128357002Y-63425546D01*
X128404767Y-63386348D01*
X128428180Y-63373833D01*
X128454500Y-63354711D01*
X128511109Y-63329506D01*
X128560433Y-63303143D01*
X128591471Y-63293727D01*
X128626576Y-63278098D01*
X128681430Y-63266438D01*
X128729340Y-63251905D01*
X128767476Y-63248148D01*
X128810820Y-63238936D01*
X128861016Y-63238936D01*
X128905000Y-63234604D01*
X128948983Y-63238936D01*
G37*
G36*
X131488983Y-63238936D02*
G01*
X131539180Y-63238936D01*
X131582524Y-63248149D01*
X131620659Y-63251905D01*
X131668566Y-63266437D01*
X131723424Y-63278098D01*
X131758530Y-63293728D01*
X131789566Y-63303143D01*
X131838884Y-63329504D01*
X131895500Y-63354711D01*
X131921822Y-63373835D01*
X131945232Y-63386348D01*
X131992988Y-63425540D01*
X132047887Y-63465427D01*
X132065711Y-63485223D01*
X132081675Y-63498324D01*
X132124572Y-63550594D01*
X132173924Y-63605405D01*
X132184292Y-63623363D01*
X132193651Y-63634767D01*
X132228273Y-63699542D01*
X132268104Y-63768530D01*
X132272685Y-63782630D01*
X132276856Y-63790433D01*
X132299852Y-63866242D01*
X132326311Y-63947672D01*
X132327242Y-63956532D01*
X132328094Y-63959340D01*
X132336384Y-64043513D01*
X132346000Y-64135000D01*
X132336383Y-64226494D01*
X132328094Y-64310659D01*
X132327242Y-64313466D01*
X132326311Y-64322328D01*
X132299848Y-64403771D01*
X132276856Y-64479566D01*
X132272686Y-64487366D01*
X132268104Y-64501470D01*
X132228266Y-64570470D01*
X132193651Y-64635232D01*
X132184294Y-64646633D01*
X132173924Y-64664595D01*
X132124563Y-64719415D01*
X132081675Y-64771675D01*
X132065714Y-64784773D01*
X132047887Y-64804573D01*
X131992977Y-64844467D01*
X131945232Y-64883651D01*
X131921827Y-64896161D01*
X131895500Y-64915289D01*
X131838873Y-64940500D01*
X131789566Y-64966856D01*
X131758537Y-64976268D01*
X131723424Y-64991902D01*
X131668555Y-65003564D01*
X131620659Y-65018094D01*
X131582532Y-65021849D01*
X131539180Y-65031064D01*
X131488973Y-65031064D01*
X131445000Y-65035395D01*
X131401027Y-65031064D01*
X131350820Y-65031064D01*
X131307467Y-65021849D01*
X131269340Y-65018094D01*
X131221441Y-65003563D01*
X131166576Y-64991902D01*
X131131464Y-64976269D01*
X131100433Y-64966856D01*
X131051120Y-64940498D01*
X130994500Y-64915289D01*
X130968175Y-64896163D01*
X130944767Y-64883651D01*
X130897013Y-64844460D01*
X130842113Y-64804573D01*
X130824287Y-64784776D01*
X130808324Y-64771675D01*
X130765425Y-64719402D01*
X130716076Y-64664595D01*
X130705708Y-64646637D01*
X130696348Y-64635232D01*
X130661719Y-64570447D01*
X130621896Y-64501470D01*
X130617315Y-64487371D01*
X130613143Y-64479566D01*
X130590136Y-64403725D01*
X130563689Y-64322328D01*
X130562758Y-64313471D01*
X130561905Y-64310659D01*
X130553600Y-64226342D01*
X130544000Y-64135000D01*
X130553599Y-64043664D01*
X130561905Y-63959340D01*
X130562758Y-63956527D01*
X130563689Y-63947672D01*
X130590132Y-63866288D01*
X130613143Y-63790433D01*
X130617315Y-63782626D01*
X130621896Y-63768530D01*
X130661712Y-63699565D01*
X130696348Y-63634767D01*
X130705710Y-63623359D01*
X130716076Y-63605405D01*
X130765416Y-63550607D01*
X130808324Y-63498324D01*
X130824291Y-63485219D01*
X130842113Y-63465427D01*
X130897002Y-63425546D01*
X130944767Y-63386348D01*
X130968180Y-63373833D01*
X130994500Y-63354711D01*
X131051109Y-63329506D01*
X131100433Y-63303143D01*
X131131471Y-63293727D01*
X131166576Y-63278098D01*
X131221430Y-63266438D01*
X131269340Y-63251905D01*
X131307476Y-63248148D01*
X131350820Y-63238936D01*
X131401016Y-63238936D01*
X131445000Y-63234604D01*
X131488983Y-63238936D01*
G37*
G36*
X134028983Y-63238936D02*
G01*
X134079180Y-63238936D01*
X134122524Y-63248149D01*
X134160659Y-63251905D01*
X134208566Y-63266437D01*
X134263424Y-63278098D01*
X134298530Y-63293728D01*
X134329566Y-63303143D01*
X134378884Y-63329504D01*
X134435500Y-63354711D01*
X134461822Y-63373835D01*
X134485232Y-63386348D01*
X134532988Y-63425540D01*
X134587887Y-63465427D01*
X134605711Y-63485223D01*
X134621675Y-63498324D01*
X134664572Y-63550594D01*
X134713924Y-63605405D01*
X134724292Y-63623363D01*
X134733651Y-63634767D01*
X134768273Y-63699542D01*
X134808104Y-63768530D01*
X134812685Y-63782630D01*
X134816856Y-63790433D01*
X134839852Y-63866242D01*
X134866311Y-63947672D01*
X134867242Y-63956532D01*
X134868094Y-63959340D01*
X134876384Y-64043513D01*
X134886000Y-64135000D01*
X134876383Y-64226494D01*
X134868094Y-64310659D01*
X134867242Y-64313466D01*
X134866311Y-64322328D01*
X134839848Y-64403771D01*
X134816856Y-64479566D01*
X134812686Y-64487366D01*
X134808104Y-64501470D01*
X134768266Y-64570470D01*
X134733651Y-64635232D01*
X134724294Y-64646633D01*
X134713924Y-64664595D01*
X134664563Y-64719415D01*
X134621675Y-64771675D01*
X134605714Y-64784773D01*
X134587887Y-64804573D01*
X134532977Y-64844467D01*
X134485232Y-64883651D01*
X134461827Y-64896161D01*
X134435500Y-64915289D01*
X134378873Y-64940500D01*
X134329566Y-64966856D01*
X134298537Y-64976268D01*
X134263424Y-64991902D01*
X134208555Y-65003564D01*
X134160659Y-65018094D01*
X134122532Y-65021849D01*
X134079180Y-65031064D01*
X134028973Y-65031064D01*
X133985000Y-65035395D01*
X133941027Y-65031064D01*
X133890820Y-65031064D01*
X133847467Y-65021849D01*
X133809340Y-65018094D01*
X133761441Y-65003563D01*
X133706576Y-64991902D01*
X133671464Y-64976269D01*
X133640433Y-64966856D01*
X133591120Y-64940498D01*
X133534500Y-64915289D01*
X133508175Y-64896163D01*
X133484767Y-64883651D01*
X133437013Y-64844460D01*
X133382113Y-64804573D01*
X133364287Y-64784776D01*
X133348324Y-64771675D01*
X133305425Y-64719402D01*
X133256076Y-64664595D01*
X133245708Y-64646637D01*
X133236348Y-64635232D01*
X133201719Y-64570447D01*
X133161896Y-64501470D01*
X133157315Y-64487371D01*
X133153143Y-64479566D01*
X133130136Y-64403725D01*
X133103689Y-64322328D01*
X133102758Y-64313471D01*
X133101905Y-64310659D01*
X133093600Y-64226342D01*
X133084000Y-64135000D01*
X133093599Y-64043664D01*
X133101905Y-63959340D01*
X133102758Y-63956527D01*
X133103689Y-63947672D01*
X133130132Y-63866288D01*
X133153143Y-63790433D01*
X133157315Y-63782626D01*
X133161896Y-63768530D01*
X133201712Y-63699565D01*
X133236348Y-63634767D01*
X133245710Y-63623359D01*
X133256076Y-63605405D01*
X133305416Y-63550607D01*
X133348324Y-63498324D01*
X133364291Y-63485219D01*
X133382113Y-63465427D01*
X133437002Y-63425546D01*
X133484767Y-63386348D01*
X133508180Y-63373833D01*
X133534500Y-63354711D01*
X133591109Y-63329506D01*
X133640433Y-63303143D01*
X133671471Y-63293727D01*
X133706576Y-63278098D01*
X133761430Y-63266438D01*
X133809340Y-63251905D01*
X133847476Y-63248148D01*
X133890820Y-63238936D01*
X133941016Y-63238936D01*
X133985000Y-63234604D01*
X134028983Y-63238936D01*
G37*
G36*
X92118983Y-62603936D02*
G01*
X92169180Y-62603936D01*
X92212524Y-62613149D01*
X92250659Y-62616905D01*
X92298566Y-62631437D01*
X92353424Y-62643098D01*
X92388530Y-62658728D01*
X92419566Y-62668143D01*
X92468884Y-62694504D01*
X92525500Y-62719711D01*
X92551822Y-62738835D01*
X92575232Y-62751348D01*
X92622988Y-62790540D01*
X92677887Y-62830427D01*
X92695711Y-62850223D01*
X92711675Y-62863324D01*
X92754572Y-62915594D01*
X92803924Y-62970405D01*
X92814292Y-62988363D01*
X92823651Y-62999767D01*
X92858273Y-63064542D01*
X92898104Y-63133530D01*
X92902685Y-63147630D01*
X92906856Y-63155433D01*
X92929852Y-63231242D01*
X92956311Y-63312672D01*
X92957242Y-63321532D01*
X92958094Y-63324340D01*
X92966384Y-63408513D01*
X92976000Y-63500000D01*
X92966383Y-63591494D01*
X92958094Y-63675659D01*
X92957242Y-63678466D01*
X92956311Y-63687328D01*
X92929848Y-63768771D01*
X92906856Y-63844566D01*
X92902686Y-63852366D01*
X92898104Y-63866470D01*
X92858266Y-63935470D01*
X92823651Y-64000232D01*
X92814294Y-64011633D01*
X92803924Y-64029595D01*
X92754563Y-64084415D01*
X92711675Y-64136675D01*
X92695714Y-64149773D01*
X92677887Y-64169573D01*
X92622977Y-64209467D01*
X92575232Y-64248651D01*
X92551827Y-64261161D01*
X92525500Y-64280289D01*
X92468873Y-64305500D01*
X92419566Y-64331856D01*
X92388537Y-64341268D01*
X92353424Y-64356902D01*
X92298555Y-64368564D01*
X92250659Y-64383094D01*
X92212532Y-64386849D01*
X92169180Y-64396064D01*
X92118973Y-64396064D01*
X92075000Y-64400395D01*
X92031027Y-64396064D01*
X91980820Y-64396064D01*
X91937467Y-64386849D01*
X91899340Y-64383094D01*
X91851441Y-64368563D01*
X91796576Y-64356902D01*
X91761464Y-64341269D01*
X91730433Y-64331856D01*
X91681120Y-64305498D01*
X91624500Y-64280289D01*
X91598175Y-64261163D01*
X91574767Y-64248651D01*
X91527013Y-64209460D01*
X91472113Y-64169573D01*
X91454287Y-64149776D01*
X91438324Y-64136675D01*
X91395425Y-64084402D01*
X91346076Y-64029595D01*
X91335708Y-64011637D01*
X91326348Y-64000232D01*
X91291719Y-63935447D01*
X91251896Y-63866470D01*
X91247315Y-63852371D01*
X91243143Y-63844566D01*
X91220136Y-63768725D01*
X91193689Y-63687328D01*
X91192758Y-63678471D01*
X91191905Y-63675659D01*
X91183600Y-63591342D01*
X91174000Y-63500000D01*
X91183599Y-63408664D01*
X91191905Y-63324340D01*
X91192758Y-63321527D01*
X91193689Y-63312672D01*
X91220132Y-63231288D01*
X91243143Y-63155433D01*
X91247315Y-63147626D01*
X91251896Y-63133530D01*
X91291712Y-63064565D01*
X91326348Y-62999767D01*
X91335710Y-62988359D01*
X91346076Y-62970405D01*
X91395416Y-62915607D01*
X91438324Y-62863324D01*
X91454291Y-62850219D01*
X91472113Y-62830427D01*
X91527002Y-62790546D01*
X91574767Y-62751348D01*
X91598180Y-62738833D01*
X91624500Y-62719711D01*
X91681109Y-62694506D01*
X91730433Y-62668143D01*
X91761471Y-62658727D01*
X91796576Y-62643098D01*
X91851430Y-62631438D01*
X91899340Y-62616905D01*
X91937476Y-62613148D01*
X91980820Y-62603936D01*
X92031016Y-62603936D01*
X92075000Y-62599604D01*
X92118983Y-62603936D01*
G37*
G36*
X170147783Y-61587936D02*
G01*
X170197980Y-61587936D01*
X170241324Y-61597149D01*
X170279459Y-61600905D01*
X170327366Y-61615437D01*
X170382224Y-61627098D01*
X170417330Y-61642728D01*
X170448366Y-61652143D01*
X170497684Y-61678504D01*
X170554300Y-61703711D01*
X170580622Y-61722835D01*
X170604032Y-61735348D01*
X170651788Y-61774540D01*
X170706687Y-61814427D01*
X170724511Y-61834223D01*
X170740475Y-61847324D01*
X170783372Y-61899594D01*
X170832724Y-61954405D01*
X170843092Y-61972363D01*
X170852451Y-61983767D01*
X170887073Y-62048542D01*
X170926904Y-62117530D01*
X170931485Y-62131630D01*
X170935656Y-62139433D01*
X170958652Y-62215242D01*
X170985111Y-62296672D01*
X170986042Y-62305532D01*
X170986894Y-62308340D01*
X170995184Y-62392513D01*
X171004800Y-62484000D01*
X170995183Y-62575494D01*
X170986894Y-62659659D01*
X170986042Y-62662466D01*
X170985111Y-62671328D01*
X170958648Y-62752771D01*
X170935656Y-62828566D01*
X170931486Y-62836366D01*
X170926904Y-62850470D01*
X170887066Y-62919470D01*
X170852451Y-62984232D01*
X170843094Y-62995633D01*
X170832724Y-63013595D01*
X170783363Y-63068415D01*
X170740475Y-63120675D01*
X170724514Y-63133773D01*
X170706687Y-63153573D01*
X170651777Y-63193467D01*
X170604032Y-63232651D01*
X170580627Y-63245161D01*
X170554300Y-63264289D01*
X170497673Y-63289500D01*
X170448366Y-63315856D01*
X170417337Y-63325268D01*
X170382224Y-63340902D01*
X170327355Y-63352564D01*
X170279459Y-63367094D01*
X170241332Y-63370849D01*
X170197980Y-63380064D01*
X170147773Y-63380064D01*
X170103800Y-63384395D01*
X170059827Y-63380064D01*
X170009620Y-63380064D01*
X169966267Y-63370849D01*
X169928140Y-63367094D01*
X169880241Y-63352563D01*
X169825376Y-63340902D01*
X169790264Y-63325269D01*
X169759233Y-63315856D01*
X169709920Y-63289498D01*
X169653300Y-63264289D01*
X169626975Y-63245163D01*
X169603567Y-63232651D01*
X169555813Y-63193460D01*
X169500913Y-63153573D01*
X169483087Y-63133776D01*
X169467124Y-63120675D01*
X169424225Y-63068402D01*
X169374876Y-63013595D01*
X169364508Y-62995637D01*
X169355148Y-62984232D01*
X169320519Y-62919447D01*
X169280696Y-62850470D01*
X169276115Y-62836371D01*
X169271943Y-62828566D01*
X169248936Y-62752725D01*
X169222489Y-62671328D01*
X169221558Y-62662471D01*
X169220705Y-62659659D01*
X169212400Y-62575342D01*
X169202800Y-62484000D01*
X169212399Y-62392664D01*
X169220705Y-62308340D01*
X169221558Y-62305527D01*
X169222489Y-62296672D01*
X169248932Y-62215288D01*
X169271943Y-62139433D01*
X169276115Y-62131626D01*
X169280696Y-62117530D01*
X169320512Y-62048565D01*
X169355148Y-61983767D01*
X169364510Y-61972359D01*
X169374876Y-61954405D01*
X169424216Y-61899607D01*
X169467124Y-61847324D01*
X169483091Y-61834219D01*
X169500913Y-61814427D01*
X169555802Y-61774546D01*
X169603567Y-61735348D01*
X169626980Y-61722833D01*
X169653300Y-61703711D01*
X169709909Y-61678506D01*
X169759233Y-61652143D01*
X169790271Y-61642727D01*
X169825376Y-61627098D01*
X169880230Y-61615438D01*
X169928140Y-61600905D01*
X169966276Y-61597148D01*
X170009620Y-61587936D01*
X170059816Y-61587936D01*
X170103800Y-61583604D01*
X170147783Y-61587936D01*
G37*
G36*
X123868983Y-60698936D02*
G01*
X123919180Y-60698936D01*
X123962524Y-60708149D01*
X124000659Y-60711905D01*
X124048566Y-60726437D01*
X124103424Y-60738098D01*
X124138530Y-60753728D01*
X124169566Y-60763143D01*
X124218884Y-60789504D01*
X124275500Y-60814711D01*
X124301822Y-60833835D01*
X124325232Y-60846348D01*
X124372988Y-60885540D01*
X124427887Y-60925427D01*
X124445711Y-60945223D01*
X124461675Y-60958324D01*
X124504572Y-61010594D01*
X124553924Y-61065405D01*
X124564292Y-61083363D01*
X124573651Y-61094767D01*
X124608273Y-61159542D01*
X124648104Y-61228530D01*
X124652685Y-61242630D01*
X124656856Y-61250433D01*
X124679852Y-61326242D01*
X124706311Y-61407672D01*
X124707242Y-61416532D01*
X124708094Y-61419340D01*
X124716384Y-61503513D01*
X124726000Y-61595000D01*
X124716383Y-61686494D01*
X124708094Y-61770659D01*
X124707242Y-61773466D01*
X124706311Y-61782328D01*
X124679848Y-61863771D01*
X124656856Y-61939566D01*
X124652686Y-61947366D01*
X124648104Y-61961470D01*
X124608266Y-62030470D01*
X124573651Y-62095232D01*
X124564294Y-62106633D01*
X124553924Y-62124595D01*
X124504563Y-62179415D01*
X124461675Y-62231675D01*
X124445714Y-62244773D01*
X124427887Y-62264573D01*
X124372977Y-62304467D01*
X124325232Y-62343651D01*
X124301827Y-62356161D01*
X124275500Y-62375289D01*
X124218873Y-62400500D01*
X124169566Y-62426856D01*
X124138537Y-62436268D01*
X124103424Y-62451902D01*
X124048555Y-62463564D01*
X124000659Y-62478094D01*
X123962532Y-62481849D01*
X123919180Y-62491064D01*
X123868973Y-62491064D01*
X123825000Y-62495395D01*
X123781027Y-62491064D01*
X123730820Y-62491064D01*
X123687467Y-62481849D01*
X123649340Y-62478094D01*
X123601441Y-62463563D01*
X123546576Y-62451902D01*
X123511464Y-62436269D01*
X123480433Y-62426856D01*
X123431120Y-62400498D01*
X123374500Y-62375289D01*
X123348175Y-62356163D01*
X123324767Y-62343651D01*
X123277013Y-62304460D01*
X123222113Y-62264573D01*
X123204287Y-62244776D01*
X123188324Y-62231675D01*
X123145425Y-62179402D01*
X123096076Y-62124595D01*
X123085708Y-62106637D01*
X123076348Y-62095232D01*
X123041719Y-62030447D01*
X123001896Y-61961470D01*
X122997315Y-61947371D01*
X122993143Y-61939566D01*
X122970136Y-61863725D01*
X122943689Y-61782328D01*
X122942758Y-61773471D01*
X122941905Y-61770659D01*
X122933600Y-61686342D01*
X122924000Y-61595000D01*
X122933599Y-61503664D01*
X122941905Y-61419340D01*
X122942758Y-61416527D01*
X122943689Y-61407672D01*
X122970132Y-61326288D01*
X122993143Y-61250433D01*
X122997315Y-61242626D01*
X123001896Y-61228530D01*
X123041712Y-61159565D01*
X123076348Y-61094767D01*
X123085710Y-61083359D01*
X123096076Y-61065405D01*
X123145416Y-61010607D01*
X123188324Y-60958324D01*
X123204291Y-60945219D01*
X123222113Y-60925427D01*
X123277002Y-60885546D01*
X123324767Y-60846348D01*
X123348180Y-60833833D01*
X123374500Y-60814711D01*
X123431109Y-60789506D01*
X123480433Y-60763143D01*
X123511471Y-60753727D01*
X123546576Y-60738098D01*
X123601430Y-60726438D01*
X123649340Y-60711905D01*
X123687476Y-60708148D01*
X123730820Y-60698936D01*
X123781016Y-60698936D01*
X123825000Y-60694604D01*
X123868983Y-60698936D01*
G37*
G36*
X126408983Y-60698936D02*
G01*
X126459180Y-60698936D01*
X126502524Y-60708149D01*
X126540659Y-60711905D01*
X126588566Y-60726437D01*
X126643424Y-60738098D01*
X126678530Y-60753728D01*
X126709566Y-60763143D01*
X126758884Y-60789504D01*
X126815500Y-60814711D01*
X126841822Y-60833835D01*
X126865232Y-60846348D01*
X126912988Y-60885540D01*
X126967887Y-60925427D01*
X126985711Y-60945223D01*
X127001675Y-60958324D01*
X127044572Y-61010594D01*
X127093924Y-61065405D01*
X127104292Y-61083363D01*
X127113651Y-61094767D01*
X127148273Y-61159542D01*
X127188104Y-61228530D01*
X127192685Y-61242630D01*
X127196856Y-61250433D01*
X127219852Y-61326242D01*
X127246311Y-61407672D01*
X127247242Y-61416532D01*
X127248094Y-61419340D01*
X127256384Y-61503513D01*
X127266000Y-61595000D01*
X127256383Y-61686494D01*
X127248094Y-61770659D01*
X127247242Y-61773466D01*
X127246311Y-61782328D01*
X127219848Y-61863771D01*
X127196856Y-61939566D01*
X127192686Y-61947366D01*
X127188104Y-61961470D01*
X127148266Y-62030470D01*
X127113651Y-62095232D01*
X127104294Y-62106633D01*
X127093924Y-62124595D01*
X127044563Y-62179415D01*
X127001675Y-62231675D01*
X126985714Y-62244773D01*
X126967887Y-62264573D01*
X126912977Y-62304467D01*
X126865232Y-62343651D01*
X126841827Y-62356161D01*
X126815500Y-62375289D01*
X126758873Y-62400500D01*
X126709566Y-62426856D01*
X126678537Y-62436268D01*
X126643424Y-62451902D01*
X126588555Y-62463564D01*
X126540659Y-62478094D01*
X126502532Y-62481849D01*
X126459180Y-62491064D01*
X126408973Y-62491064D01*
X126365000Y-62495395D01*
X126321027Y-62491064D01*
X126270820Y-62491064D01*
X126227467Y-62481849D01*
X126189340Y-62478094D01*
X126141441Y-62463563D01*
X126086576Y-62451902D01*
X126051464Y-62436269D01*
X126020433Y-62426856D01*
X125971120Y-62400498D01*
X125914500Y-62375289D01*
X125888175Y-62356163D01*
X125864767Y-62343651D01*
X125817013Y-62304460D01*
X125762113Y-62264573D01*
X125744287Y-62244776D01*
X125728324Y-62231675D01*
X125685425Y-62179402D01*
X125636076Y-62124595D01*
X125625708Y-62106637D01*
X125616348Y-62095232D01*
X125581719Y-62030447D01*
X125541896Y-61961470D01*
X125537315Y-61947371D01*
X125533143Y-61939566D01*
X125510136Y-61863725D01*
X125483689Y-61782328D01*
X125482758Y-61773471D01*
X125481905Y-61770659D01*
X125473600Y-61686342D01*
X125464000Y-61595000D01*
X125473599Y-61503664D01*
X125481905Y-61419340D01*
X125482758Y-61416527D01*
X125483689Y-61407672D01*
X125510132Y-61326288D01*
X125533143Y-61250433D01*
X125537315Y-61242626D01*
X125541896Y-61228530D01*
X125581712Y-61159565D01*
X125616348Y-61094767D01*
X125625710Y-61083359D01*
X125636076Y-61065405D01*
X125685416Y-61010607D01*
X125728324Y-60958324D01*
X125744291Y-60945219D01*
X125762113Y-60925427D01*
X125817002Y-60885546D01*
X125864767Y-60846348D01*
X125888180Y-60833833D01*
X125914500Y-60814711D01*
X125971109Y-60789506D01*
X126020433Y-60763143D01*
X126051471Y-60753727D01*
X126086576Y-60738098D01*
X126141430Y-60726438D01*
X126189340Y-60711905D01*
X126227476Y-60708148D01*
X126270820Y-60698936D01*
X126321016Y-60698936D01*
X126365000Y-60694604D01*
X126408983Y-60698936D01*
G37*
G36*
X128948983Y-60698936D02*
G01*
X128999180Y-60698936D01*
X129042524Y-60708149D01*
X129080659Y-60711905D01*
X129128566Y-60726437D01*
X129183424Y-60738098D01*
X129218530Y-60753728D01*
X129249566Y-60763143D01*
X129298884Y-60789504D01*
X129355500Y-60814711D01*
X129381822Y-60833835D01*
X129405232Y-60846348D01*
X129452988Y-60885540D01*
X129507887Y-60925427D01*
X129525711Y-60945223D01*
X129541675Y-60958324D01*
X129584572Y-61010594D01*
X129633924Y-61065405D01*
X129644292Y-61083363D01*
X129653651Y-61094767D01*
X129688273Y-61159542D01*
X129728104Y-61228530D01*
X129732685Y-61242630D01*
X129736856Y-61250433D01*
X129759852Y-61326242D01*
X129786311Y-61407672D01*
X129787242Y-61416532D01*
X129788094Y-61419340D01*
X129796384Y-61503513D01*
X129806000Y-61595000D01*
X129796383Y-61686494D01*
X129788094Y-61770659D01*
X129787242Y-61773466D01*
X129786311Y-61782328D01*
X129759848Y-61863771D01*
X129736856Y-61939566D01*
X129732686Y-61947366D01*
X129728104Y-61961470D01*
X129688266Y-62030470D01*
X129653651Y-62095232D01*
X129644294Y-62106633D01*
X129633924Y-62124595D01*
X129584563Y-62179415D01*
X129541675Y-62231675D01*
X129525714Y-62244773D01*
X129507887Y-62264573D01*
X129452977Y-62304467D01*
X129405232Y-62343651D01*
X129381827Y-62356161D01*
X129355500Y-62375289D01*
X129298873Y-62400500D01*
X129249566Y-62426856D01*
X129218537Y-62436268D01*
X129183424Y-62451902D01*
X129128555Y-62463564D01*
X129080659Y-62478094D01*
X129042532Y-62481849D01*
X128999180Y-62491064D01*
X128948973Y-62491064D01*
X128905000Y-62495395D01*
X128861027Y-62491064D01*
X128810820Y-62491064D01*
X128767467Y-62481849D01*
X128729340Y-62478094D01*
X128681441Y-62463563D01*
X128626576Y-62451902D01*
X128591464Y-62436269D01*
X128560433Y-62426856D01*
X128511120Y-62400498D01*
X128454500Y-62375289D01*
X128428175Y-62356163D01*
X128404767Y-62343651D01*
X128357013Y-62304460D01*
X128302113Y-62264573D01*
X128284287Y-62244776D01*
X128268324Y-62231675D01*
X128225425Y-62179402D01*
X128176076Y-62124595D01*
X128165708Y-62106637D01*
X128156348Y-62095232D01*
X128121719Y-62030447D01*
X128081896Y-61961470D01*
X128077315Y-61947371D01*
X128073143Y-61939566D01*
X128050136Y-61863725D01*
X128023689Y-61782328D01*
X128022758Y-61773471D01*
X128021905Y-61770659D01*
X128013600Y-61686342D01*
X128004000Y-61595000D01*
X128013599Y-61503664D01*
X128021905Y-61419340D01*
X128022758Y-61416527D01*
X128023689Y-61407672D01*
X128050132Y-61326288D01*
X128073143Y-61250433D01*
X128077315Y-61242626D01*
X128081896Y-61228530D01*
X128121712Y-61159565D01*
X128156348Y-61094767D01*
X128165710Y-61083359D01*
X128176076Y-61065405D01*
X128225416Y-61010607D01*
X128268324Y-60958324D01*
X128284291Y-60945219D01*
X128302113Y-60925427D01*
X128357002Y-60885546D01*
X128404767Y-60846348D01*
X128428180Y-60833833D01*
X128454500Y-60814711D01*
X128511109Y-60789506D01*
X128560433Y-60763143D01*
X128591471Y-60753727D01*
X128626576Y-60738098D01*
X128681430Y-60726438D01*
X128729340Y-60711905D01*
X128767476Y-60708148D01*
X128810820Y-60698936D01*
X128861016Y-60698936D01*
X128905000Y-60694604D01*
X128948983Y-60698936D01*
G37*
G36*
X131488983Y-60698936D02*
G01*
X131539180Y-60698936D01*
X131582524Y-60708149D01*
X131620659Y-60711905D01*
X131668566Y-60726437D01*
X131723424Y-60738098D01*
X131758530Y-60753728D01*
X131789566Y-60763143D01*
X131838884Y-60789504D01*
X131895500Y-60814711D01*
X131921822Y-60833835D01*
X131945232Y-60846348D01*
X131992988Y-60885540D01*
X132047887Y-60925427D01*
X132065711Y-60945223D01*
X132081675Y-60958324D01*
X132124572Y-61010594D01*
X132173924Y-61065405D01*
X132184292Y-61083363D01*
X132193651Y-61094767D01*
X132228273Y-61159542D01*
X132268104Y-61228530D01*
X132272685Y-61242630D01*
X132276856Y-61250433D01*
X132299852Y-61326242D01*
X132326311Y-61407672D01*
X132327242Y-61416532D01*
X132328094Y-61419340D01*
X132336384Y-61503513D01*
X132346000Y-61595000D01*
X132336383Y-61686494D01*
X132328094Y-61770659D01*
X132327242Y-61773466D01*
X132326311Y-61782328D01*
X132299848Y-61863771D01*
X132276856Y-61939566D01*
X132272686Y-61947366D01*
X132268104Y-61961470D01*
X132228266Y-62030470D01*
X132193651Y-62095232D01*
X132184294Y-62106633D01*
X132173924Y-62124595D01*
X132124563Y-62179415D01*
X132081675Y-62231675D01*
X132065714Y-62244773D01*
X132047887Y-62264573D01*
X131992977Y-62304467D01*
X131945232Y-62343651D01*
X131921827Y-62356161D01*
X131895500Y-62375289D01*
X131838873Y-62400500D01*
X131789566Y-62426856D01*
X131758537Y-62436268D01*
X131723424Y-62451902D01*
X131668555Y-62463564D01*
X131620659Y-62478094D01*
X131582532Y-62481849D01*
X131539180Y-62491064D01*
X131488973Y-62491064D01*
X131445000Y-62495395D01*
X131401027Y-62491064D01*
X131350820Y-62491064D01*
X131307467Y-62481849D01*
X131269340Y-62478094D01*
X131221441Y-62463563D01*
X131166576Y-62451902D01*
X131131464Y-62436269D01*
X131100433Y-62426856D01*
X131051120Y-62400498D01*
X130994500Y-62375289D01*
X130968175Y-62356163D01*
X130944767Y-62343651D01*
X130897013Y-62304460D01*
X130842113Y-62264573D01*
X130824287Y-62244776D01*
X130808324Y-62231675D01*
X130765425Y-62179402D01*
X130716076Y-62124595D01*
X130705708Y-62106637D01*
X130696348Y-62095232D01*
X130661719Y-62030447D01*
X130621896Y-61961470D01*
X130617315Y-61947371D01*
X130613143Y-61939566D01*
X130590136Y-61863725D01*
X130563689Y-61782328D01*
X130562758Y-61773471D01*
X130561905Y-61770659D01*
X130553600Y-61686342D01*
X130544000Y-61595000D01*
X130553599Y-61503664D01*
X130561905Y-61419340D01*
X130562758Y-61416527D01*
X130563689Y-61407672D01*
X130590132Y-61326288D01*
X130613143Y-61250433D01*
X130617315Y-61242626D01*
X130621896Y-61228530D01*
X130661712Y-61159565D01*
X130696348Y-61094767D01*
X130705710Y-61083359D01*
X130716076Y-61065405D01*
X130765416Y-61010607D01*
X130808324Y-60958324D01*
X130824291Y-60945219D01*
X130842113Y-60925427D01*
X130897002Y-60885546D01*
X130944767Y-60846348D01*
X130968180Y-60833833D01*
X130994500Y-60814711D01*
X131051109Y-60789506D01*
X131100433Y-60763143D01*
X131131471Y-60753727D01*
X131166576Y-60738098D01*
X131221430Y-60726438D01*
X131269340Y-60711905D01*
X131307476Y-60708148D01*
X131350820Y-60698936D01*
X131401016Y-60698936D01*
X131445000Y-60694604D01*
X131488983Y-60698936D01*
G37*
G36*
X134028983Y-60698936D02*
G01*
X134079180Y-60698936D01*
X134122524Y-60708149D01*
X134160659Y-60711905D01*
X134208566Y-60726437D01*
X134263424Y-60738098D01*
X134298530Y-60753728D01*
X134329566Y-60763143D01*
X134378884Y-60789504D01*
X134435500Y-60814711D01*
X134461822Y-60833835D01*
X134485232Y-60846348D01*
X134532988Y-60885540D01*
X134587887Y-60925427D01*
X134605711Y-60945223D01*
X134621675Y-60958324D01*
X134664572Y-61010594D01*
X134713924Y-61065405D01*
X134724292Y-61083363D01*
X134733651Y-61094767D01*
X134768273Y-61159542D01*
X134808104Y-61228530D01*
X134812685Y-61242630D01*
X134816856Y-61250433D01*
X134839852Y-61326242D01*
X134866311Y-61407672D01*
X134867242Y-61416532D01*
X134868094Y-61419340D01*
X134876384Y-61503513D01*
X134886000Y-61595000D01*
X134876383Y-61686494D01*
X134868094Y-61770659D01*
X134867242Y-61773466D01*
X134866311Y-61782328D01*
X134839848Y-61863771D01*
X134816856Y-61939566D01*
X134812686Y-61947366D01*
X134808104Y-61961470D01*
X134768266Y-62030470D01*
X134733651Y-62095232D01*
X134724294Y-62106633D01*
X134713924Y-62124595D01*
X134664563Y-62179415D01*
X134621675Y-62231675D01*
X134605714Y-62244773D01*
X134587887Y-62264573D01*
X134532977Y-62304467D01*
X134485232Y-62343651D01*
X134461827Y-62356161D01*
X134435500Y-62375289D01*
X134378873Y-62400500D01*
X134329566Y-62426856D01*
X134298537Y-62436268D01*
X134263424Y-62451902D01*
X134208555Y-62463564D01*
X134160659Y-62478094D01*
X134122532Y-62481849D01*
X134079180Y-62491064D01*
X134028973Y-62491064D01*
X133985000Y-62495395D01*
X133941027Y-62491064D01*
X133890820Y-62491064D01*
X133847467Y-62481849D01*
X133809340Y-62478094D01*
X133761441Y-62463563D01*
X133706576Y-62451902D01*
X133671464Y-62436269D01*
X133640433Y-62426856D01*
X133591120Y-62400498D01*
X133534500Y-62375289D01*
X133508175Y-62356163D01*
X133484767Y-62343651D01*
X133437013Y-62304460D01*
X133382113Y-62264573D01*
X133364287Y-62244776D01*
X133348324Y-62231675D01*
X133305425Y-62179402D01*
X133256076Y-62124595D01*
X133245708Y-62106637D01*
X133236348Y-62095232D01*
X133201719Y-62030447D01*
X133161896Y-61961470D01*
X133157315Y-61947371D01*
X133153143Y-61939566D01*
X133130136Y-61863725D01*
X133103689Y-61782328D01*
X133102758Y-61773471D01*
X133101905Y-61770659D01*
X133093600Y-61686342D01*
X133084000Y-61595000D01*
X133093599Y-61503664D01*
X133101905Y-61419340D01*
X133102758Y-61416527D01*
X133103689Y-61407672D01*
X133130132Y-61326288D01*
X133153143Y-61250433D01*
X133157315Y-61242626D01*
X133161896Y-61228530D01*
X133201712Y-61159565D01*
X133236348Y-61094767D01*
X133245710Y-61083359D01*
X133256076Y-61065405D01*
X133305416Y-61010607D01*
X133348324Y-60958324D01*
X133364291Y-60945219D01*
X133382113Y-60925427D01*
X133437002Y-60885546D01*
X133484767Y-60846348D01*
X133508180Y-60833833D01*
X133534500Y-60814711D01*
X133591109Y-60789506D01*
X133640433Y-60763143D01*
X133671471Y-60753727D01*
X133706576Y-60738098D01*
X133761430Y-60726438D01*
X133809340Y-60711905D01*
X133847476Y-60708148D01*
X133890820Y-60698936D01*
X133941016Y-60698936D01*
X133985000Y-60694604D01*
X134028983Y-60698936D01*
G37*
G36*
X92118983Y-60063936D02*
G01*
X92169180Y-60063936D01*
X92212524Y-60073149D01*
X92250659Y-60076905D01*
X92298566Y-60091437D01*
X92353424Y-60103098D01*
X92388530Y-60118728D01*
X92419566Y-60128143D01*
X92468884Y-60154504D01*
X92525500Y-60179711D01*
X92551822Y-60198835D01*
X92575232Y-60211348D01*
X92622988Y-60250540D01*
X92677887Y-60290427D01*
X92695711Y-60310223D01*
X92711675Y-60323324D01*
X92754572Y-60375594D01*
X92803924Y-60430405D01*
X92814292Y-60448363D01*
X92823651Y-60459767D01*
X92858273Y-60524542D01*
X92898104Y-60593530D01*
X92902685Y-60607630D01*
X92906856Y-60615433D01*
X92929852Y-60691242D01*
X92956311Y-60772672D01*
X92957242Y-60781532D01*
X92958094Y-60784340D01*
X92966384Y-60868513D01*
X92976000Y-60960000D01*
X92966383Y-61051494D01*
X92958094Y-61135659D01*
X92957242Y-61138466D01*
X92956311Y-61147328D01*
X92929848Y-61228771D01*
X92906856Y-61304566D01*
X92902686Y-61312366D01*
X92898104Y-61326470D01*
X92858266Y-61395470D01*
X92823651Y-61460232D01*
X92814294Y-61471633D01*
X92803924Y-61489595D01*
X92754563Y-61544415D01*
X92711675Y-61596675D01*
X92695714Y-61609773D01*
X92677887Y-61629573D01*
X92622977Y-61669467D01*
X92575232Y-61708651D01*
X92551827Y-61721161D01*
X92525500Y-61740289D01*
X92468873Y-61765500D01*
X92419566Y-61791856D01*
X92388537Y-61801268D01*
X92353424Y-61816902D01*
X92298555Y-61828564D01*
X92250659Y-61843094D01*
X92212532Y-61846849D01*
X92169180Y-61856064D01*
X92118973Y-61856064D01*
X92075000Y-61860395D01*
X92031027Y-61856064D01*
X91980820Y-61856064D01*
X91937467Y-61846849D01*
X91899340Y-61843094D01*
X91851441Y-61828563D01*
X91796576Y-61816902D01*
X91761464Y-61801269D01*
X91730433Y-61791856D01*
X91681120Y-61765498D01*
X91624500Y-61740289D01*
X91598175Y-61721163D01*
X91574767Y-61708651D01*
X91527013Y-61669460D01*
X91472113Y-61629573D01*
X91454287Y-61609776D01*
X91438324Y-61596675D01*
X91395425Y-61544402D01*
X91346076Y-61489595D01*
X91335708Y-61471637D01*
X91326348Y-61460232D01*
X91291719Y-61395447D01*
X91251896Y-61326470D01*
X91247315Y-61312371D01*
X91243143Y-61304566D01*
X91220136Y-61228725D01*
X91193689Y-61147328D01*
X91192758Y-61138471D01*
X91191905Y-61135659D01*
X91183600Y-61051342D01*
X91174000Y-60960000D01*
X91183599Y-60868664D01*
X91191905Y-60784340D01*
X91192758Y-60781527D01*
X91193689Y-60772672D01*
X91220132Y-60691288D01*
X91243143Y-60615433D01*
X91247315Y-60607626D01*
X91251896Y-60593530D01*
X91291712Y-60524565D01*
X91326348Y-60459767D01*
X91335710Y-60448359D01*
X91346076Y-60430405D01*
X91395416Y-60375607D01*
X91438324Y-60323324D01*
X91454291Y-60310219D01*
X91472113Y-60290427D01*
X91527002Y-60250546D01*
X91574767Y-60211348D01*
X91598180Y-60198833D01*
X91624500Y-60179711D01*
X91681109Y-60154506D01*
X91730433Y-60128143D01*
X91761471Y-60118727D01*
X91796576Y-60103098D01*
X91851430Y-60091438D01*
X91899340Y-60076905D01*
X91937476Y-60073148D01*
X91980820Y-60063936D01*
X92031016Y-60063936D01*
X92075000Y-60059604D01*
X92118983Y-60063936D01*
G37*
G36*
X170973317Y-59046882D02*
G01*
X170989862Y-59057938D01*
X171000918Y-59074483D01*
X171004800Y-59094000D01*
X171004800Y-60794000D01*
X171000918Y-60813517D01*
X170989862Y-60830062D01*
X170973317Y-60841118D01*
X170953800Y-60845000D01*
X169253800Y-60845000D01*
X169234283Y-60841118D01*
X169217738Y-60830062D01*
X169206682Y-60813517D01*
X169202800Y-60794000D01*
X169202800Y-59094000D01*
X169206682Y-59074483D01*
X169217738Y-59057938D01*
X169234283Y-59046882D01*
X169253800Y-59043000D01*
X170953800Y-59043000D01*
X170973317Y-59046882D01*
G37*
G36*
X92944517Y-57522882D02*
G01*
X92961062Y-57533938D01*
X92972118Y-57550483D01*
X92976000Y-57570000D01*
X92976000Y-59270000D01*
X92972118Y-59289517D01*
X92961062Y-59306062D01*
X92944517Y-59317118D01*
X92925000Y-59321000D01*
X91225000Y-59321000D01*
X91205483Y-59317118D01*
X91188938Y-59306062D01*
X91177882Y-59289517D01*
X91174000Y-59270000D01*
X91174000Y-57570000D01*
X91177882Y-57550483D01*
X91188938Y-57533938D01*
X91205483Y-57522882D01*
X91225000Y-57519000D01*
X92925000Y-57519000D01*
X92944517Y-57522882D01*
G37*
M02*
