M48
; DRILL file {KiCad 8.0.1} date 2024-04-21T20:15:05+0200
; FORMAT={-:-/ absolute / inch / decimal}
; #@! TF.CreationDate,2024-04-21T20:15:05+02:00
; #@! TF.GenerationSoftware,Kicad,Pcbnew,8.0.1
; #@! TF.FileFunction,Plated,1,2,PTH
FMAT,2
INCH
; #@! TA.AperFunction,Plated,PTH,ViaDrill
T1C0.0157
; #@! TA.AperFunction,Plated,PTH,ComponentDrill
T2C0.0197
; #@! TA.AperFunction,Plated,PTH,ComponentDrill
T3C0.0354
; #@! TA.AperFunction,Plated,PTH,ComponentDrill
T4C0.0362
; #@! TA.AperFunction,Plated,PTH,ComponentDrill
T5C0.0394
; #@! TA.AperFunction,Plated,PTH,ComponentDrill
T6C0.0906
; #@! TA.AperFunction,Plated,PTH,ComponentDrill
T7C0.1260
%
G90
G05
T1
X3.275Y-2.25
X3.275Y-2.8157
X3.275Y-3.3815
X3.275Y-3.9472
X3.275Y-4.513
X3.975Y-2.9
X3.975Y-3.0
X3.975Y-3.2
X3.975Y-3.9
X3.975Y-4.025
X3.975Y-4.15
X3.975Y-4.4
X4.1012Y-2.8691
X4.125Y-2.975
X4.125Y-3.2
X4.125Y-3.689
X4.125Y-3.875
X4.125Y-3.925
X4.125Y-4.15
X4.175Y-3.075
X4.1799Y-4.001
X4.3472Y-3.7746
X4.4Y-3.35
X4.5933Y-3.0069
X4.5933Y-3.05
X4.625Y-2.25
X4.625Y-4.513
X4.65Y-3.925
X4.66Y-4.143
X4.69Y-3.4006
X4.7016Y-3.35
X4.725Y-4.25
X4.8Y-2.7
X4.825Y-3.75
X4.925Y-4.1
X4.95Y-4.375
X4.9535Y-4.0
X4.9732Y-2.8061
X5.05Y-3.7
X5.0953Y-3.686
X5.1Y-3.95
X5.119Y-3.4006
X5.15Y-3.2
X5.15Y-3.675
X5.1543Y-4.0797
X5.2Y-3.275
X5.25Y-3.1285
X5.2724Y-3.7254
X5.3216Y-3.3218
X5.325Y-2.975
X5.325Y-3.075
X5.35Y-2.25
X5.3512Y-2.8002
X5.4Y-3.025
X5.4004Y-2.6299
X5.4016Y-3.1216
X5.425Y-3.1644
X5.4462Y-2.6299
X5.4791Y-3.49
X5.5Y-2.6299
X5.5283Y-2.7313
X5.55Y-4.513
X5.5579Y-2.8535
X5.5673Y-3.0856
X5.5677Y-3.2715
X5.5921Y-2.875
X5.5965Y-3.0
X5.6261Y-2.9741
X5.6453Y-2.6813
X5.666Y-3.512
X5.6741Y-2.6545
X5.7043Y-3.2715
X5.725Y-3.0351
X5.7547Y-3.9
X5.7547Y-4.1978
X5.775Y-3.025
X5.8Y-2.825
X5.8Y-3.325
X5.8335Y-3.2923
X5.85Y-2.6
X5.8535Y-3.125
X5.8768Y-2.9482
X5.8853Y-2.9989
X5.9Y-3.7
X5.9Y-4.0
X5.95Y-2.675
X5.9516Y-2.7313
X5.975Y-3.625
X6.0106Y-2.5049
X6.0106Y-3.4596
X6.025Y-2.925
X6.0402Y-3.075
X6.05Y-2.25
X6.0677Y-2.8218
X6.1484Y-3.1545
X6.1484Y-3.2136
X6.15Y-2.925
X6.15Y-2.975
X6.175Y-3.95
X6.725Y-2.25
X6.725Y-3.5624
X6.725Y-4.275
T2
X4.3118Y-2.3966
X4.3118Y-4.3651
X4.3395Y-2.3298
X4.3395Y-2.4635
X4.3395Y-4.2983
X4.3395Y-4.432
X4.4063Y-2.3022
X4.4063Y-2.4911
X4.4063Y-4.2707
X4.4063Y-4.4596
X4.4731Y-2.3298
X4.4731Y-2.4635
X4.4731Y-4.2983
X4.4731Y-4.432
X4.5008Y-2.3966
X4.5008Y-4.3651
X6.2803Y-2.3966
X6.2803Y-4.3651
X6.308Y-2.3298
X6.308Y-2.4635
X6.308Y-4.2983
X6.308Y-4.432
X6.3748Y-2.3022
X6.3748Y-2.4911
X6.3748Y-4.2707
X6.3748Y-4.4596
X6.4416Y-2.3298
X6.4416Y-2.4635
X6.4416Y-4.2983
X6.4416Y-4.432
X6.4693Y-2.3966
X6.4693Y-4.3651
T3
X6.5323Y-2.9472
X6.5323Y-3.0472
T4
X6.25Y-3.2923
X6.25Y-3.3907
X6.25Y-3.4695
X6.25Y-3.5679
T5
X3.62Y-2.85
X3.62Y-2.95
X3.62Y-3.05
X3.62Y-3.15
X3.62Y-3.25
X3.62Y-3.35
X3.62Y-3.45
X3.62Y-3.55
X3.62Y-3.65
X3.62Y-3.75
X3.62Y-3.85
X3.62Y-3.95
X3.62Y-4.05
X3.62Y-4.15
X3.62Y-4.25
X3.62Y-4.35
X3.62Y-4.45
X3.625Y-2.3
X3.625Y-2.4
X3.625Y-2.5
X3.625Y-2.6
X3.72Y-2.85
X3.72Y-2.95
X3.72Y-3.05
X3.72Y-3.15
X3.72Y-3.25
X3.72Y-3.35
X3.72Y-3.45
X3.72Y-3.55
X3.72Y-3.65
X3.72Y-3.75
X3.72Y-3.85
X3.72Y-3.95
X3.72Y-4.05
X3.72Y-4.15
X3.72Y-4.25
X3.72Y-4.35
X3.72Y-4.45
X4.875Y-2.425
X4.875Y-2.525
X4.975Y-2.425
X4.975Y-2.525
X5.075Y-2.425
X5.075Y-2.525
X5.175Y-2.425
X5.175Y-2.525
X5.275Y-2.425
X5.275Y-2.525
X5.2921Y-4.2175
X5.548Y-4.2175
X5.8413Y-4.4685
X5.9413Y-4.4685
X6.0413Y-4.4685
X6.1413Y-4.4685
X6.697Y-2.36
X6.697Y-2.46
X6.697Y-2.56
X6.697Y-2.66
X6.697Y-2.76
T6
X6.3567Y-3.1714
X6.3567Y-3.6888
T7
X4.4063Y-2.3966
X4.4063Y-4.3651
X6.3748Y-2.3966
X6.3748Y-4.3651
M30
